<?xml version="1.0" encoding="utf-8" standalone="no"?>
<!DOCTYPE svg PUBLIC "-//W3C//DTD SVG 1.1//EN"
  "http://www.w3.org/Graphics/SVG/1.1/DTD/svg11.dtd">
<!-- Created with matplotlib (https://matplotlib.org/) -->
<svg height="216pt" version="1.1" viewBox="0 0 432 216" width="432pt" xmlns="http://www.w3.org/2000/svg" xmlns:xlink="http://www.w3.org/1999/xlink">
 <metadata>
  <rdf:RDF xmlns:cc="http://creativecommons.org/ns#" xmlns:dc="http://purl.org/dc/elements/1.1/" xmlns:rdf="http://www.w3.org/1999/02/22-rdf-syntax-ns#">
   <cc:Work>
    <dc:type rdf:resource="http://purl.org/dc/dcmitype/StillImage"/>
    <dc:date>2021-10-21T11:49:34.126285</dc:date>
    <dc:format>image/svg+xml</dc:format>
    <dc:creator>
     <cc:Agent>
      <dc:title>Matplotlib v3.3.4, https://matplotlib.org/</dc:title>
     </cc:Agent>
    </dc:creator>
   </cc:Work>
  </rdf:RDF>
 </metadata>
 <defs>
  <style type="text/css">*{stroke-linecap:butt;stroke-linejoin:round;}</style>
 </defs>
 <g id="figure_1">
  <g id="patch_1">
   <path d="M 0 216 
L 432 216 
L 432 0 
L 0 0 
z
" style="fill:#ffffff;"/>
  </g>
  <g id="axes_1">
   <g id="patch_2">
    <path d="M 52.32562 189.344323 
L 130.818188 189.344323 
L 130.818188 38.717784 
L 52.32562 38.717784 
z
" style="fill:#ffffff;"/>
   </g>
   <g id="matplotlib.axis_1">
    <g id="xtick_1">
     <g id="text_1">
      <!-- S2 -->
      <g style="fill:#262626;" transform="translate(50.635388 203.262822)scale(0.1 -0.1)">
       <defs>
        <path d="M 43.796875 67.984375 
C 43.796875 69.796875 43.703125 69.890625 43.09375 69.890625 
C 42.5 69.890625 42.296875 69.484375 41.90625 68.59375 
L 38.90625 61.953125 
C 35.09375 67.5 29.296875 70 23 70 
C 12.796875 70 4.59375 61.84375 4.59375 51.578125 
C 4.59375 48.453125 5.296875 44.015625 8.703125 39.78125 
C 12.40625 35.15625 15.90625 34.34375 23.90625 32.234375 
C 26.90625 31.421875 31.90625 30.109375 32.90625 29.703125 
C 38.59375 27.296875 41.59375 21.25 41.59375 15.609375 
C 41.59375 8.34375 36.5 0.59375 27.796875 0.59375 
C 17.09375 0.59375 7.09375 6.640625 6.40625 20.75 
C 6.296875 22.359375 6.203125 22.453125 5.5 22.453125 
C 4.703125 22.453125 4.59375 22.359375 4.59375 20.34375 
L 4.59375 0 
C 4.59375 -1.8125 4.703125 -1.90625 5.296875 -1.90625 
C 6 -1.90625 6.203125 -1.40625 7.59375 1.703125 
C 7.703125 2 7.703125 2.203125 9.59375 6.03125 
C 14.59375 -0.609375 23 -2 27.796875 -2 
C 38.703125 -2 46.40625 7.140625 46.40625 17.828125 
C 46.40625 23.0625 44.5 27.09375 43.40625 28.90625 
C 39.203125 35.359375 34.703125 36.5625 29.90625 37.765625 
C 29.203125 38.078125 29 38.078125 23.40625 39.484375 
C 18 40.890625 15.703125 41.59375 13.203125 44.3125 
C 10.40625 47.4375 9.40625 50.671875 9.40625 53.890625 
C 9.40625 60.4375 14.59375 67.59375 23.09375 67.59375 
C 33.703125 67.59375 40.296875 60.03125 41.796875 47.4375 
C 42.09375 45.625 42.203125 45.53125 42.90625 45.53125 
C 43.796875 45.53125 43.796875 45.828125 43.796875 47.546875 
z
" id="CMR17-83"/>
        <path d="M 41.703125 15.46875 
L 39.90625 15.46875 
C 38.90625 8.390625 38.09375 7.1875 37.703125 6.59375 
C 37.203125 5.796875 30 5.796875 28.59375 5.796875 
L 9.40625 5.796875 
C 13 9.6875 20 16.765625 28.5 24.9375 
C 34.59375 30.71875 41.703125 37.5 41.703125 47.390625 
C 41.703125 59.1875 32.296875 66 21.796875 66 
C 10.796875 66 4.09375 56.296875 4.09375 47.296875 
C 4.09375 43.390625 7 42.890625 8.203125 42.890625 
C 9.203125 42.890625 12.203125 43.484375 12.203125 46.984375 
C 12.203125 50.09375 9.59375 51 8.203125 51 
C 7.59375 51 7 50.890625 6.59375 50.6875 
C 8.5 59.1875 14.296875 63.390625 20.40625 63.390625 
C 29.09375 63.390625 34.796875 56.5 34.796875 47.390625 
C 34.796875 38.703125 29.703125 31.21875 24 24.734375 
L 4.09375 2.296875 
L 4.09375 0 
L 39.296875 0 
z
" id="CMR17-50"/>
       </defs>
       <use transform="scale(0.996264)" xlink:href="#CMR17-83"/>
       <use transform="translate(50.89537 0)scale(0.996264)" xlink:href="#CMR17-50"/>
      </g>
     </g>
    </g>
    <g id="xtick_2">
     <g id="text_2">
      <!-- SSe -->
      <g style="fill:#262626;" transform="translate(83.823168 203.262822)scale(0.1 -0.1)">
       <defs>
        <path d="M 38.09375 23.484375 
C 38.5 23.890625 38.5 24.09375 38.5 25.09375 
C 38.5 35.171875 33.09375 44 21.703125 44 
C 11.09375 44 2.703125 33.984375 2.703125 21.78125 
C 2.703125 8.65625 12.203125 -1 22.796875 -1 
C 34 -1 38.40625 9.671875 38.40625 11.796875 
C 38.40625 12.5 37.796875 12.5 37.59375 12.5 
C 36.90625 12.5 36.796875 12.296875 36.40625 11.078125 
C 34.203125 4.21875 28.703125 0.796875 23.5 0.796875 
C 19.203125 0.796875 14.90625 3.21875 12.203125 7.65625 
C 9.09375 12.796875 9.09375 18.75 9.09375 23.484375 
z
M 9.203125 25 
C 9.90625 39.234375 17.59375 42.390625 21.59375 42.390625 
C 28.40625 42.390625 33 36.0625 33.09375 25 
z
" id="CMR17-101"/>
       </defs>
       <use transform="scale(0.996264)" xlink:href="#CMR17-83"/>
       <use transform="translate(50.89537 0)scale(0.996264)" xlink:href="#CMR17-83"/>
       <use transform="translate(101.79074 0)scale(0.996264)" xlink:href="#CMR17-101"/>
      </g>
     </g>
    </g>
    <g id="xtick_3">
     <g id="text_3">
      <!-- Se2 -->
      <g style="fill:#262626;" transform="translate(119.778349 203.262822)scale(0.1 -0.1)">
       <use transform="scale(0.996264)" xlink:href="#CMR17-83"/>
       <use transform="translate(50.89537 0)scale(0.996264)" xlink:href="#CMR17-101"/>
       <use transform="translate(91.38103 0)scale(0.996264)" xlink:href="#CMR17-50"/>
      </g>
     </g>
    </g>
   </g>
   <g id="matplotlib.axis_2">
    <g id="ytick_1">
     <g id="line2d_1">
      <path clip-path="url(#p4ffec38b5f)" d="M 52.32562 187.867593 
L 130.818188 187.867593 
" style="fill:none;stroke:#cccccc;stroke-linecap:round;stroke-width:0.8;"/>
     </g>
     <g id="text_4">
      <!-- $\mathdefault{0}$ -->
      <g style="fill:#262626;" transform="translate(40.344285 191.326842)scale(0.1 -0.1)">
       <defs>
        <path d="M 42 31.84375 
C 42 37.96875 41.90625 48.421875 37.703125 56.453125 
C 34 63.484375 28.09375 66 22.90625 66 
C 18.09375 66 12 63.78125 8.203125 56.5625 
C 4.203125 49.015625 3.796875 39.671875 3.796875 31.84375 
C 3.796875 26.109375 3.90625 17.375 7 9.734375 
C 11.296875 -0.609375 19 -2 22.90625 -2 
C 27.5 -2 34.5 -0.109375 38.59375 9.4375 
C 41.59375 16.375 42 24.5 42 31.84375 
z
M 22.90625 -0.40625 
C 16.5 -0.40625 12.703125 5.125 11.296875 12.75 
C 10.203125 18.6875 10.203125 27.328125 10.203125 32.953125 
C 10.203125 40.6875 10.203125 47.109375 11.5 53.234375 
C 13.40625 61.78125 19 64.390625 22.90625 64.390625 
C 27 64.390625 32.296875 61.671875 34.203125 53.4375 
C 35.5 47.71875 35.59375 40.984375 35.59375 32.953125 
C 35.59375 26.421875 35.59375 18.375 34.40625 12.453125 
C 32.296875 1.5 26.40625 -0.40625 22.90625 -0.40625 
z
" id="CMR17-48"/>
       </defs>
       <use transform="scale(0.996264)" xlink:href="#CMR17-48"/>
      </g>
     </g>
    </g>
    <g id="ytick_2">
     <g id="line2d_2">
      <path clip-path="url(#p4ffec38b5f)" d="M 52.32562 158.332977 
L 130.818188 158.332977 
" style="fill:none;stroke:#cccccc;stroke-linecap:round;stroke-width:0.8;"/>
     </g>
     <g id="text_5">
      <!-- $\mathdefault{1000}$ -->
      <g style="fill:#262626;" transform="translate(25.400279 161.792226)scale(0.1 -0.1)">
       <defs>
        <path d="M 26.59375 63.796875 
C 26.59375 65.890625 26.5 66 25.09375 66 
C 21.203125 61.359375 15.296875 59.890625 9.703125 59.6875 
C 9.40625 59.6875 8.90625 59.6875 8.796875 59.5 
C 8.703125 59.296875 8.703125 59.09375 8.703125 57 
C 11.796875 57 17 57.59375 21 59.984375 
L 21 7.296875 
C 21 3.796875 20.796875 2.59375 12.203125 2.59375 
L 9.203125 2.59375 
L 9.203125 0 
C 14 0.09375 19 0.1875 23.796875 0.1875 
C 28.59375 0.1875 33.59375 0.09375 38.40625 0 
L 38.40625 2.59375 
L 35.40625 2.59375 
C 26.796875 2.59375 26.59375 3.6875 26.59375 7.296875 
z
" id="CMR17-49"/>
       </defs>
       <use transform="scale(0.996264)" xlink:href="#CMR17-49"/>
       <use transform="translate(45.690477 0)scale(0.996264)" xlink:href="#CMR17-48"/>
       <use transform="translate(91.380954 0)scale(0.996264)" xlink:href="#CMR17-48"/>
       <use transform="translate(137.071431 0)scale(0.996264)" xlink:href="#CMR17-48"/>
      </g>
     </g>
    </g>
    <g id="ytick_3">
     <g id="line2d_3">
      <path clip-path="url(#p4ffec38b5f)" d="M 52.32562 128.798361 
L 130.818188 128.798361 
" style="fill:none;stroke:#cccccc;stroke-linecap:round;stroke-width:0.8;"/>
     </g>
     <g id="text_6">
      <!-- $\mathdefault{2000}$ -->
      <g style="fill:#262626;" transform="translate(25.400279 132.257611)scale(0.1 -0.1)">
       <use transform="scale(0.996264)" xlink:href="#CMR17-50"/>
       <use transform="translate(45.690477 0)scale(0.996264)" xlink:href="#CMR17-48"/>
       <use transform="translate(91.380954 0)scale(0.996264)" xlink:href="#CMR17-48"/>
       <use transform="translate(137.071431 0)scale(0.996264)" xlink:href="#CMR17-48"/>
      </g>
     </g>
    </g>
    <g id="ytick_4">
     <g id="line2d_4">
      <path clip-path="url(#p4ffec38b5f)" d="M 52.32562 99.263746 
L 130.818188 99.263746 
" style="fill:none;stroke:#cccccc;stroke-linecap:round;stroke-width:0.8;"/>
     </g>
     <g id="text_7">
      <!-- $\mathdefault{3000}$ -->
      <g style="fill:#262626;" transform="translate(25.400279 102.722995)scale(0.1 -0.1)">
       <defs>
        <path d="M 22.09375 34 
C 31 34 34.90625 26.140625 34.90625 17.09375 
C 34.90625 5.03125 28.5 0.390625 22.703125 0.390625 
C 17.40625 0.390625 8.796875 3.015625 6.09375 10.796875 
C 6.59375 10.59375 7.09375 10.59375 7.59375 10.59375 
C 10 10.59375 11.796875 12.1875 11.796875 14.796875 
C 11.796875 17.6875 9.59375 19 7.59375 19 
C 5.90625 19 3.296875 18.1875 3.296875 14.484375 
C 3.296875 5.234375 12.296875 -2 22.90625 -2 
C 34 -2 42.5 6.75 42.5 16.984375 
C 42.5 26.84375 34.5 34 25 35.09375 
C 32.59375 36.671875 39.90625 43.375 39.90625 52.390625 
C 39.90625 60.25 32 66 23 66 
C 13.90625 66 5.90625 60.34375 5.90625 52.296875 
C 5.90625 48.796875 8.5 48.1875 9.796875 48.1875 
C 11.90625 48.1875 13.703125 49.484375 13.703125 52.09375 
C 13.703125 54.6875 11.90625 56 9.796875 56 
C 9.40625 56 8.90625 56 8.5 55.796875 
C 11.40625 62.484375 19.296875 63.6875 22.796875 63.6875 
C 26.296875 63.6875 32.90625 61.96875 32.90625 52.296875 
C 32.90625 49.484375 32.5 44.546875 29.09375 40.21875 
C 26.09375 36.390625 22.703125 36.1875 19.40625 35.890625 
C 18.90625 35.890625 16.59375 35.6875 16.203125 35.6875 
C 15.5 35.59375 15.09375 35.5 15.09375 34.796875 
C 15.09375 34.09375 15.203125 34 17.203125 34 
z
" id="CMR17-51"/>
       </defs>
       <use transform="scale(0.996264)" xlink:href="#CMR17-51"/>
       <use transform="translate(45.690477 0)scale(0.996264)" xlink:href="#CMR17-48"/>
       <use transform="translate(91.380954 0)scale(0.996264)" xlink:href="#CMR17-48"/>
       <use transform="translate(137.071431 0)scale(0.996264)" xlink:href="#CMR17-48"/>
      </g>
     </g>
    </g>
    <g id="ytick_5">
     <g id="line2d_5">
      <path clip-path="url(#p4ffec38b5f)" d="M 52.32562 69.72913 
L 130.818188 69.72913 
" style="fill:none;stroke:#cccccc;stroke-linecap:round;stroke-width:0.8;"/>
     </g>
     <g id="text_8">
      <!-- $\mathdefault{4000}$ -->
      <g style="fill:#262626;" transform="translate(25.400279 73.188379)scale(0.1 -0.1)">
       <defs>
        <path d="M 33.59375 64.796875 
C 33.59375 66.890625 33.5 67 31.703125 67 
L 2 19.59375 
L 2 17 
L 27.796875 17 
L 27.796875 7.1875 
C 27.796875 3.59375 27.59375 2.59375 20.59375 2.59375 
L 18.703125 2.59375 
L 18.703125 0 
C 21.90625 0.1875 27.296875 0.1875 30.703125 0.1875 
C 34.09375 0.1875 39.5 0.1875 42.703125 0 
L 42.703125 2.59375 
L 40.796875 2.59375 
C 33.796875 2.59375 33.59375 3.59375 33.59375 7.1875 
L 33.59375 17 
L 43.796875 17 
L 43.796875 19.59375 
L 33.59375 19.59375 
z
M 28.09375 58.171875 
L 28.09375 19.59375 
L 4 19.59375 
z
" id="CMR17-52"/>
       </defs>
       <use transform="scale(0.996264)" xlink:href="#CMR17-52"/>
       <use transform="translate(45.690477 0)scale(0.996264)" xlink:href="#CMR17-48"/>
       <use transform="translate(91.380954 0)scale(0.996264)" xlink:href="#CMR17-48"/>
       <use transform="translate(137.071431 0)scale(0.996264)" xlink:href="#CMR17-48"/>
      </g>
     </g>
    </g>
    <g id="ytick_6">
     <g id="line2d_6">
      <path clip-path="url(#p4ffec38b5f)" d="M 52.32562 40.194515 
L 130.818188 40.194515 
" style="fill:none;stroke:#cccccc;stroke-linecap:round;stroke-width:0.8;"/>
     </g>
     <g id="text_9">
      <!-- $\mathdefault{5000}$ -->
      <g style="fill:#262626;" transform="translate(25.400279 43.653764)scale(0.1 -0.1)">
       <defs>
        <path d="M 11.40625 58.59375 
C 12.40625 58.1875 16.5 56.890625 20.703125 56.890625 
C 30 56.890625 35.09375 61.890625 38 64.6875 
C 38 65.484375 38 66 37.40625 66 
C 37.296875 66 37.09375 66 36.296875 65.59375 
C 32.796875 64.09375 28.703125 63 23.703125 63 
C 20.703125 63 16.203125 63.359375 11.296875 65.484375 
C 10.203125 66 10 66 9.90625 66 
C 9.40625 66 9.296875 65.890625 9.296875 63.90625 
L 9.296875 34.859375 
C 9.296875 33.015625 9.296875 32.5 10.296875 32.5 
C 10.796875 32.5 11 32.703125 11.5 33.421875 
C 14.703125 38.046875 19.09375 40 24.09375 40 
C 27.59375 40 35.09375 37.734375 35.09375 20.203125 
C 35.09375 16.984375 35.09375 11.1875 32.09375 6.59375 
C 29.59375 2.484375 25.703125 0.390625 21.40625 0.390625 
C 14.796875 0.390625 8.09375 4.984375 6.296875 12.6875 
C 6.703125 12.59375 7.5 12.390625 7.90625 12.390625 
C 9.203125 12.390625 11.703125 13.09375 11.703125 16.1875 
C 11.703125 18.890625 9.796875 20 7.90625 20 
C 5.59375 20 4.09375 18.59375 4.09375 15.796875 
C 4.09375 7.09375 11 -2 21.59375 -2 
C 31.90625 -2 41.703125 6.890625 41.703125 19.796875 
C 41.703125 32.09375 33.90625 41.59375 24.203125 41.59375 
C 19.09375 41.59375 14.796875 39.6875 11.40625 36 
z
" id="CMR17-53"/>
       </defs>
       <use transform="scale(0.996264)" xlink:href="#CMR17-53"/>
       <use transform="translate(45.690477 0)scale(0.996264)" xlink:href="#CMR17-48"/>
       <use transform="translate(91.380954 0)scale(0.996264)" xlink:href="#CMR17-48"/>
       <use transform="translate(137.071431 0)scale(0.996264)" xlink:href="#CMR17-48"/>
      </g>
     </g>
    </g>
    <g id="text_10">
     <!-- relative energies [\si{\wn}] -->
     <g style="fill:#262626;" transform="translate(18.909619 165.096585)rotate(-90)scale(0.1 -0.1)">
      <defs>
       <path d="M 15 23.703125 
C 15 33.34375 19.09375 42.390625 26.59375 42.390625 
C 27.296875 42.390625 28 42.296875 28.703125 41.984375 
C 28.703125 41.984375 26.5 41.28125 26.5 38.671875 
C 26.5 36.265625 28.40625 35.265625 29.90625 35.265625 
C 31.09375 35.265625 33.296875 35.96875 33.296875 38.78125 
C 33.296875 41.984375 30.09375 44 26.703125 44 
C 19.09375 44 15.796875 36.5625 14.796875 33.046875 
L 14.703125 33.046875 
L 14.703125 44 
L 3.09375 42.890625 
L 3.09375 40.28125 
C 9 40.28125 9.90625 39.6875 9.90625 34.859375 
L 9.90625 6.921875 
C 9.90625 3.09375 9.5 2.59375 3.09375 2.59375 
L 3.09375 0 
C 5.5 0.1875 10.09375 0.1875 12.703125 0.1875 
C 15.59375 0.1875 20.703125 0.1875 23.40625 0 
L 23.40625 2.59375 
C 16.203125 2.59375 15 2.59375 15 7.109375 
z
" id="CMR17-114"/>
       <path d="M 15.296875 69 
L 3.40625 67.890625 
L 3.40625 65.296875 
C 9.296875 65.296875 10.203125 64.703125 10.203125 59.921875 
L 10.203125 6.859375 
C 10.203125 3.09375 9.796875 2.59375 3.40625 2.59375 
L 3.40625 0 
C 5.796875 0.1875 10.203125 0.1875 12.703125 0.1875 
C 15.296875 0.1875 19.703125 0.1875 22.09375 0 
L 22.09375 2.59375 
C 15.703125 2.59375 15.296875 2.984375 15.296875 6.859375 
z
" id="CMR17-108"/>
       <path d="M 36 25.875 
C 36 32 36 35.546875 31.796875 39.59375 
C 28.09375 42.984375 23.796875 44 20.40625 44 
C 12.5 44 6.796875 37.625 6.796875 30.890625 
C 6.796875 27.1875 9.796875 27 10.40625 27 
C 11.703125 27 14 27.796875 14 30.59375 
C 14 33.09375 12.09375 34.1875 10.40625 34.1875 
C 10 34.1875 9.5 34.09375 9.203125 34 
C 11.296875 40.53125 16.703125 42.390625 20.203125 42.390625 
C 25.203125 42.390625 30.703125 37.828125 30.703125 29.296875 
L 30.703125 25.5 
C 24.796875 25.296875 17.703125 24.5 12.09375 21.453125 
C 5.796875 17.921875 4 12.84375 4 9 
C 4 1.203125 13 -1 18.296875 -1 
C 23.796875 -1 28.90625 2.109375 31.09375 7.890625 
C 31.296875 3.421875 34.09375 -0.609375 38.5 -0.609375 
C 40.59375 -0.609375 45.90625 0.796875 45.90625 8.796875 
L 45.90625 14.46875 
L 44.09375 14.46875 
L 44.09375 8.703125 
C 44.09375 2.515625 41.40625 1.703125 40.09375 1.703125 
C 36 1.703125 36 6.96875 36 11.4375 
z
M 30.703125 13.859375 
C 30.703125 5.046875 24.5 0.59375 19 0.59375 
C 14 0.59375 10.09375 4.34375 10.09375 9 
C 10.09375 12.046875 11.40625 17.40625 17.203125 20.65625 
C 22 23.390625 27.5 23.796875 30.703125 24 
z
" id="CMR17-97"/>
       <path d="M 15.09375 40.390625 
L 29.09375 40.390625 
L 29.09375 43 
L 15.09375 43 
L 15.09375 62 
L 13.296875 62 
C 13.09375 51.4375 9.59375 42.1875 1.09375 41.984375 
L 1.09375 40.390625 
L 9.796875 40.390625 
L 9.796875 12.15625 
C 9.796875 10.234375 9.796875 -1 21.40625 -1 
C 27.296875 -1 30.703125 4.8125 30.703125 12.25 
L 30.703125 17.984375 
L 28.90625 17.984375 
L 28.90625 12.34375 
C 28.90625 5.421875 26.203125 0.796875 22 0.796875 
C 19.09375 0.796875 15.09375 2.796875 15.09375 11.953125 
z
" id="CMR17-116"/>
       <path d="M 15.5 61.890625 
C 15.5 64.09375 13.703125 66 11.40625 66 
C 9.203125 66 7.296875 64.1875 7.296875 61.890625 
C 7.296875 59.6875 9.09375 57.796875 11.40625 57.796875 
C 13.59375 57.796875 15.5 59.59375 15.5 61.890625 
z
M 3.796875 42.890625 
L 3.796875 40.296875 
C 9.40625 40.296875 10.203125 39.6875 10.203125 34.859375 
L 10.203125 6.921875 
C 10.203125 3.09375 9.796875 2.59375 3.40625 2.59375 
L 3.40625 0 
C 5.796875 0.1875 10.09375 0.1875 12.59375 0.1875 
C 15 0.1875 19.09375 0.1875 21.40625 0 
L 21.40625 2.59375 
C 15.5 2.59375 15.296875 3.203125 15.296875 6.8125 
L 15.296875 44 
z
" id="CMR17-105"/>
       <path d="M 39.09375 33.953125 
C 40 36.171875 41.59375 40.1875 47.40625 40.390625 
L 47.40625 43 
C 45.5 42.890625 43 42.796875 41.09375 42.796875 
C 39 42.796875 35.703125 42.796875 33.703125 43 
L 33.703125 40.390625 
C 36.203125 40.1875 37.59375 38.984375 37.59375 36.375 
C 37.59375 35.46875 37.59375 35.265625 37 33.859375 
L 26 5.921875 
L 14.09375 36.0625 
C 13.5 37.375 13.5 37.578125 13.5 37.984375 
C 13.5 40.390625 16.796875 40.390625 18.296875 40.390625 
L 18.296875 43 
C 15.90625 42.796875 11.5 42.796875 9 42.796875 
C 6.296875 42.796875 3.203125 42.796875 1 43 
L 1 40.390625 
C 4.796875 40.390625 6.90625 40.390625 8.09375 37.28125 
L 22.59375 0.6875 
C 23.203125 -0.8125 23.296875 -1 24.203125 -1 
C 25.09375 -1 25.203125 -0.8125 25.796875 0.6875 
z
" id="CMR17-118"/>
       <path d="M 41.5 30.53125 
C 41.5 35.65625 40.5 44 28.703125 44 
C 20.796875 44 16.703125 37.875 15.203125 33.84375 
L 15.09375 33.84375 
L 15.09375 44 
L 3.296875 42.890625 
L 3.296875 40.28125 
C 9.203125 40.28125 10.09375 39.6875 10.09375 34.859375 
L 10.09375 6.921875 
C 10.09375 3.09375 9.703125 2.59375 3.296875 2.59375 
L 3.296875 0 
C 5.703125 0.1875 10.09375 0.1875 12.703125 0.1875 
C 15.296875 0.1875 19.796875 0.1875 22.203125 0 
L 22.203125 2.59375 
C 15.796875 2.59375 15.40625 3 15.40625 6.921875 
L 15.40625 26.21875 
C 15.40625 35.453125 21 42.390625 28 42.390625 
C 35.40625 42.390625 36.203125 35.765625 36.203125 30.9375 
L 36.203125 6.921875 
C 36.203125 3.09375 35.796875 2.59375 29.40625 2.59375 
L 29.40625 0 
C 31.796875 0.1875 36.203125 0.1875 38.796875 0.1875 
C 41.40625 0.1875 45.90625 0.1875 48.296875 0 
L 48.296875 2.59375 
C 41.90625 2.59375 41.5 3 41.5 6.921875 
z
" id="CMR17-110"/>
       <path d="M 11.09375 18.203125 
C 13 16.6875 16.296875 15 20.296875 15 
C 28.203125 15 35 21.234375 35 29.609375 
C 35 32.234375 34.203125 36.265625 31.203125 39.390625 
C 34 42.390625 38.09375 43.390625 40.40625 43.390625 
C 40.796875 43.390625 41.40625 43.390625 41.90625 43.09375 
C 41.5 42.984375 40.59375 42.59375 40.59375 40.984375 
C 40.59375 39.6875 41.5 38.796875 42.796875 38.796875 
C 44.296875 38.796875 45.09375 39.796875 45.09375 41.09375 
C 45.09375 42.984375 43.59375 45 40.40625 45 
C 36.40625 45 32.90625 43.09375 30.09375 40.484375 
C 27.09375 43.1875 23.5 44.1875 20.296875 44.1875 
C 12.40625 44.1875 5.59375 37.984375 5.59375 29.609375 
C 5.59375 23.859375 8.90625 20.21875 9.90625 19.21875 
C 6.90625 15.6875 6.90625 11.59375 6.90625 11.09375 
C 6.90625 8.5 7.90625 4.6875 11.296875 2.59375 
C 6.09375 1.28125 2 -2.875 2 -8.078125 
C 2 -15.5625 11.5 -21 22.90625 -21 
C 33.90625 -21 43.796875 -15.765625 43.796875 -7.96875 
C 43.796875 6 29 6 21.296875 6 
C 19 6 14.90625 6 14.40625 6.09375 
C 11.296875 6.59375 9.203125 9.390625 9.203125 12.890625 
C 9.203125 13.796875 9.203125 16 11.09375 18.203125 
z
M 20.296875 16.6875 
C 11.5 16.6875 11.5 27.59375 11.5 29.609375 
C 11.5 31.625 11.5 42.484375 20.296875 42.484375 
C 29.09375 42.484375 29.09375 31.625 29.09375 29.609375 
C 29.09375 27.59375 29.09375 16.6875 20.296875 16.6875 
z
M 22.90625 -19.3125 
C 12.90625 -19.3125 6 -13.796875 6 -8.078125 
C 6 -4.859375 7.703125 -1.84375 9.90625 -0.171875 
C 12.40625 1.59375 13.40625 1.59375 20.203125 1.59375 
C 28.40625 1.59375 39.796875 1.59375 39.796875 -8.078125 
C 39.796875 -13.796875 32.90625 -19.3125 22.90625 -19.3125 
z
" id="CMR17-103"/>
       <path d="M 30.90625 42 
C 30.90625 43.796875 30.796875 43.890625 30.203125 43.890625 
C 29.796875 43.890625 29.703125 43.796875 28.5 42.296875 
C 28.203125 41.890625 27.296875 40.890625 27 40.5 
C 23.796875 43.890625 19.296875 44 17.59375 44 
C 6.5 44 2.5 38.1875 2.5 32.390625 
C 2.5 23.390625 12.703125 21.296875 15.59375 20.6875 
C 21.90625 19.390625 24.09375 19 26.203125 17.1875 
C 27.5 16 29.703125 13.796875 29.703125 10.1875 
C 29.703125 6 27.296875 0.59375 18.09375 0.59375 
C 9.40625 0.59375 6.296875 7.1875 4.5 16 
C 4.203125 17.390625 4.203125 17.5 3.40625 17.5 
C 2.59375 17.5 2.5 17.390625 2.5 15.390625 
L 2.5 1 
C 2.5 -0.8125 2.59375 -0.90625 3.203125 -0.90625 
C 3.703125 -0.90625 3.796875 -0.8125 4.296875 0 
C 4.90625 0.890625 6.40625 3.296875 7 4.296875 
C 9 1.59375 12.5 -1 18.09375 -1 
C 28 -1 33.296875 4.390625 33.296875 12.1875 
C 33.296875 17.296875 30.59375 20 29.296875 21.1875 
C 26.296875 24.296875 22.796875 25 18.59375 25.796875 
C 13.09375 27 6.09375 28.390625 6.09375 34.5 
C 6.09375 37.09375 7.5 42.59375 17.59375 42.59375 
C 28.296875 42.59375 28.90625 32.59375 29.09375 29.390625 
C 29.203125 28.890625 29.703125 28.796875 30 28.796875 
C 30.90625 28.796875 30.90625 29.09375 30.90625 30.796875 
z
" id="CMR17-115"/>
       <path d="M 23.5 -25 
L 23.5 -21.5 
L 14.09375 -21.5 
L 14.09375 71.484375 
L 23.5 71.484375 
L 23.5 75 
L 10.59375 75 
L 10.59375 -25 
z
" id="CMR17-91"/>
       <path d="M 34.90625 35 
C 33 35 30.203125 35 30.203125 31.484375 
C 30.203125 28.6875 32.5 27.890625 33.796875 27.890625 
C 34.5 27.890625 37.40625 28.1875 37.40625 31.6875 
C 37.40625 38.6875 30.59375 44 22.90625 44 
C 12.296875 44 3.296875 34.390625 3.296875 21.546875 
C 3.296875 8.140625 12.703125 -1 22.90625 -1 
C 35.296875 -1 38.40625 10.5625 38.40625 11.671875 
C 38.40625 12.078125 38.296875 12.375 37.59375 12.375 
C 36.90625 12.375 36.796875 12.28125 36.40625 10.96875 
C 33.796875 2.8125 28.09375 0.796875 23.796875 0.796875 
C 17.40625 0.796875 9.703125 6.734375 9.703125 21.640625 
C 9.703125 36.84375 17.09375 42.1875 23 42.1875 
C 26.90625 42.1875 32.703125 40.34375 34.90625 35 
z
" id="CMR17-99"/>
       <path d="M 67.59375 30.53125 
C 67.59375 35.5625 66.703125 44 54.796875 44 
C 48 44 43.296875 39.375 41.5 33.953125 
L 41.40625 33.953125 
C 40.203125 42.1875 34.296875 44 28.703125 44 
C 20.796875 44 16.703125 37.875 15.203125 33.84375 
L 15.09375 33.84375 
L 15.09375 44 
L 3.296875 42.890625 
L 3.296875 40.28125 
C 9.203125 40.28125 10.09375 39.6875 10.09375 34.859375 
L 10.09375 6.921875 
C 10.09375 3.09375 9.703125 2.59375 3.296875 2.59375 
L 3.296875 0 
C 5.703125 0.1875 10.09375 0.1875 12.703125 0.1875 
C 15.296875 0.1875 19.796875 0.1875 22.203125 0 
L 22.203125 2.59375 
C 15.796875 2.59375 15.40625 3 15.40625 6.921875 
L 15.40625 26.21875 
C 15.40625 35.453125 21 42.390625 28 42.390625 
C 35.40625 42.390625 36.203125 35.765625 36.203125 30.9375 
L 36.203125 6.921875 
C 36.203125 3.09375 35.796875 2.59375 29.40625 2.59375 
L 29.40625 0 
C 31.796875 0.1875 36.203125 0.1875 38.796875 0.1875 
C 41.40625 0.1875 45.90625 0.1875 48.296875 0 
L 48.296875 2.59375 
C 41.90625 2.59375 41.5 3 41.5 6.921875 
L 41.5 26.21875 
C 41.5 35.453125 47.09375 42.390625 54.09375 42.390625 
C 61.5 42.390625 62.296875 35.765625 62.296875 30.9375 
L 62.296875 6.921875 
C 62.296875 3.09375 61.90625 2.59375 55.5 2.59375 
L 55.5 0 
C 57.90625 0.1875 62.296875 0.1875 64.90625 0.1875 
C 67.5 0.1875 72 0.1875 74.40625 0 
L 74.40625 2.59375 
C 68 2.59375 67.59375 3 67.59375 6.921875 
z
" id="CMR17-109"/>
       <path d="M 65.90625 23 
C 67.59375 23 69.40625 23 69.40625 25 
C 69.40625 27 67.59375 27 65.90625 27 
L 11.796875 27 
C 10.09375 27 8.296875 27 8.296875 25 
C 8.296875 23 10.09375 23 11.796875 23 
z
" id="CMSY10-0"/>
       <path d="M 14.296875 75 
L 1.40625 75 
L 1.40625 71.484375 
L 10.796875 71.484375 
L 10.796875 -21.5 
L 1.40625 -21.5 
L 1.40625 -25 
L 14.296875 -25 
z
" id="CMR17-93"/>
      </defs>
      <use transform="scale(0.996264)" xlink:href="#CMR17-114"/>
      <use transform="translate(35.280768 0)scale(0.996264)" xlink:href="#CMR17-101"/>
      <use transform="translate(75.766428 0)scale(0.996264)" xlink:href="#CMR17-108"/>
      <use transform="translate(100.637487 0)scale(0.996264)" xlink:href="#CMR17-97"/>
      <use transform="translate(146.327964 0)scale(0.996264)" xlink:href="#CMR17-116"/>
      <use transform="translate(181.608732 0)scale(0.996264)" xlink:href="#CMR17-105"/>
      <use transform="translate(206.47979 0)scale(0.996264)" xlink:href="#CMR17-118"/>
      <use transform="translate(252.170252 0)scale(0.996264)" xlink:href="#CMR17-101"/>
      <use transform="translate(322.731879 0)scale(0.996264)" xlink:href="#CMR17-101"/>
      <use transform="translate(363.217539 0)scale(0.996264)" xlink:href="#CMR17-110"/>
      <use transform="translate(414.112909 0)scale(0.996264)" xlink:href="#CMR17-101"/>
      <use transform="translate(454.59857 0)scale(0.996264)" xlink:href="#CMR17-114"/>
      <use transform="translate(489.879337 0)scale(0.996264)" xlink:href="#CMR17-103"/>
      <use transform="translate(535.569814 0)scale(0.996264)" xlink:href="#CMR17-105"/>
      <use transform="translate(560.440873 0)scale(0.996264)" xlink:href="#CMR17-101"/>
      <use transform="translate(600.926533 0)scale(0.996264)" xlink:href="#CMR17-115"/>
      <use transform="translate(666.803837 0)scale(0.996264)" xlink:href="#CMR17-91"/>
      <use transform="translate(691.674896 0)scale(0.996264)" xlink:href="#CMR17-99"/>
      <use transform="translate(732.160556 0)scale(0.996264)" xlink:href="#CMR17-109"/>
      <use transform="translate(809.080146 36.153639)scale(0.697382)" xlink:href="#CMSY10-0"/>
      <use transform="translate(863.321139 36.153639)scale(0.697382)" xlink:href="#CMR17-49"/>
      <use transform="translate(895.802453 0)scale(0.996264)" xlink:href="#CMR17-93"/>
     </g>
    </g>
   </g>
   <g id="line2d_7">
    <path clip-path="url(#p4ffec38b5f)" d="M 55.893464 187.867593 
L 91.571904 187.867593 
L 127.250344 187.867593 
" style="fill:none;stroke:#dbdbdb;stroke-linecap:round;stroke-width:1.5;"/>
    <defs>
     <path d="M 0 3 
C 0.795609 3 1.55874 2.683901 2.12132 2.12132 
C 2.683901 1.55874 3 0.795609 3 0 
C 3 -0.795609 2.683901 -1.55874 2.12132 -2.12132 
C 1.55874 -2.683901 0.795609 -3 0 -3 
C -0.795609 -3 -1.55874 -2.683901 -2.12132 -2.12132 
C -2.683901 -1.55874 -3 -0.795609 -3 0 
C -3 0.795609 -2.683901 1.55874 -2.12132 2.12132 
C -1.55874 2.683901 -0.795609 3 0 3 
z
" id="m61ca51a9ba" style="stroke:#ffffff;stroke-width:0.75;"/>
    </defs>
    <g clip-path="url(#p4ffec38b5f)">
     <use style="fill:#dbdbdb;stroke:#ffffff;stroke-width:0.75;" x="55.893464" xlink:href="#m61ca51a9ba" y="187.867593"/>
     <use style="fill:#dbdbdb;stroke:#ffffff;stroke-width:0.75;" x="91.571904" xlink:href="#m61ca51a9ba" y="187.867593"/>
     <use style="fill:#dbdbdb;stroke:#ffffff;stroke-width:0.75;" x="127.250344" xlink:href="#m61ca51a9ba" y="187.867593"/>
    </g>
   </g>
   <g id="line2d_8">
    <path clip-path="url(#p4ffec38b5f)" d="M 55.893464 185.088385 
L 91.571904 185.209477 
L 127.250344 185.469382 
" style="fill:none;stroke:#b6b6b6;stroke-linecap:round;stroke-width:1.5;"/>
    <defs>
     <path d="M 0 3 
C 0.795609 3 1.55874 2.683901 2.12132 2.12132 
C 2.683901 1.55874 3 0.795609 3 0 
C 3 -0.795609 2.683901 -1.55874 2.12132 -2.12132 
C 1.55874 -2.683901 0.795609 -3 0 -3 
C -0.795609 -3 -1.55874 -2.683901 -2.12132 -2.12132 
C -2.683901 -1.55874 -3 -0.795609 -3 0 
C -3 0.795609 -2.683901 1.55874 -2.12132 2.12132 
C -1.55874 2.683901 -0.795609 3 0 3 
z
" id="mc08b390f87" style="stroke:#ffffff;stroke-width:0.75;"/>
    </defs>
    <g clip-path="url(#p4ffec38b5f)">
     <use style="fill:#b6b6b6;stroke:#ffffff;stroke-width:0.75;" x="55.893464" xlink:href="#mc08b390f87" y="185.088385"/>
     <use style="fill:#b6b6b6;stroke:#ffffff;stroke-width:0.75;" x="91.571904" xlink:href="#mc08b390f87" y="185.209477"/>
     <use style="fill:#b6b6b6;stroke:#ffffff;stroke-width:0.75;" x="127.250344" xlink:href="#mc08b390f87" y="185.469382"/>
    </g>
   </g>
   <g id="line2d_9">
    <path clip-path="url(#p4ffec38b5f)" d="M 55.893464 179.544738 
L 91.571904 179.913921 
L 127.250344 180.681821 
" style="fill:none;stroke:#929292;stroke-linecap:round;stroke-width:1.5;"/>
    <defs>
     <path d="M 0 3 
C 0.795609 3 1.55874 2.683901 2.12132 2.12132 
C 2.683901 1.55874 3 0.795609 3 0 
C 3 -0.795609 2.683901 -1.55874 2.12132 -2.12132 
C 1.55874 -2.683901 0.795609 -3 0 -3 
C -0.795609 -3 -1.55874 -2.683901 -2.12132 -2.12132 
C -2.683901 -1.55874 -3 -0.795609 -3 0 
C -3 0.795609 -2.683901 1.55874 -2.12132 2.12132 
C -1.55874 2.683901 -0.795609 3 0 3 
z
" id="mdfcaac0bc6" style="stroke:#ffffff;stroke-width:0.75;"/>
    </defs>
    <g clip-path="url(#p4ffec38b5f)">
     <use style="fill:#929292;stroke:#ffffff;stroke-width:0.75;" x="55.893464" xlink:href="#mdfcaac0bc6" y="179.544738"/>
     <use style="fill:#929292;stroke:#ffffff;stroke-width:0.75;" x="91.571904" xlink:href="#mdfcaac0bc6" y="179.913921"/>
     <use style="fill:#929292;stroke:#ffffff;stroke-width:0.75;" x="127.250344" xlink:href="#mdfcaac0bc6" y="180.681821"/>
    </g>
   </g>
   <g id="line2d_10">
    <path clip-path="url(#p4ffec38b5f)" d="M 55.893464 171.275045 
L 91.571904 172.013411 
L 127.250344 173.537397 
" style="fill:none;stroke:#6d6d6d;stroke-linecap:round;stroke-width:1.5;"/>
    <defs>
     <path d="M 0 3 
C 0.795609 3 1.55874 2.683901 2.12132 2.12132 
C 2.683901 1.55874 3 0.795609 3 0 
C 3 -0.795609 2.683901 -1.55874 2.12132 -2.12132 
C 1.55874 -2.683901 0.795609 -3 0 -3 
C -0.795609 -3 -1.55874 -2.683901 -2.12132 -2.12132 
C -2.683901 -1.55874 -3 -0.795609 -3 0 
C -3 0.795609 -2.683901 1.55874 -2.12132 2.12132 
C -1.55874 2.683901 -0.795609 3 0 3 
z
" id="meb5e59f617" style="stroke:#ffffff;stroke-width:0.75;"/>
    </defs>
    <g clip-path="url(#p4ffec38b5f)">
     <use style="fill:#6d6d6d;stroke:#ffffff;stroke-width:0.75;" x="55.893464" xlink:href="#meb5e59f617" y="171.275045"/>
     <use style="fill:#6d6d6d;stroke:#ffffff;stroke-width:0.75;" x="91.571904" xlink:href="#meb5e59f617" y="172.013411"/>
     <use style="fill:#6d6d6d;stroke:#ffffff;stroke-width:0.75;" x="127.250344" xlink:href="#meb5e59f617" y="173.537397"/>
    </g>
   </g>
   <g id="line2d_11">
    <path clip-path="url(#p4ffec38b5f)" d="M 55.893464 160.338377 
L 91.571904 161.567017 
L 127.250344 164.074506 
" style="fill:none;stroke:#494949;stroke-linecap:round;stroke-width:1.5;"/>
    <defs>
     <path d="M 0 3 
C 0.795609 3 1.55874 2.683901 2.12132 2.12132 
C 2.683901 1.55874 3 0.795609 3 0 
C 3 -0.795609 2.683901 -1.55874 2.12132 -2.12132 
C 1.55874 -2.683901 0.795609 -3 0 -3 
C -0.795609 -3 -1.55874 -2.683901 -2.12132 -2.12132 
C -2.683901 -1.55874 -3 -0.795609 -3 0 
C -3 0.795609 -2.683901 1.55874 -2.12132 2.12132 
C -1.55874 2.683901 -0.795609 3 0 3 
z
" id="m4d30c44955" style="stroke:#ffffff;stroke-width:0.75;"/>
    </defs>
    <g clip-path="url(#p4ffec38b5f)">
     <use style="fill:#494949;stroke:#ffffff;stroke-width:0.75;" x="55.893464" xlink:href="#m4d30c44955" y="160.338377"/>
     <use style="fill:#494949;stroke:#ffffff;stroke-width:0.75;" x="91.571904" xlink:href="#m4d30c44955" y="161.567017"/>
     <use style="fill:#494949;stroke:#ffffff;stroke-width:0.75;" x="127.250344" xlink:href="#m4d30c44955" y="164.074506"/>
    </g>
   </g>
   <g id="line2d_12">
    <path clip-path="url(#p4ffec38b5f)" d="M 55.893464 146.829244 
L 91.571904 148.663344 
L 127.250344 152.364031 
" style="fill:none;stroke:#242424;stroke-linecap:round;stroke-width:1.5;"/>
    <defs>
     <path d="M 0 3 
C 0.795609 3 1.55874 2.683901 2.12132 2.12132 
C 2.683901 1.55874 3 0.795609 3 0 
C 3 -0.795609 2.683901 -1.55874 2.12132 -2.12132 
C 1.55874 -2.683901 0.795609 -3 0 -3 
C -0.795609 -3 -1.55874 -2.683901 -2.12132 -2.12132 
C -2.683901 -1.55874 -3 -0.795609 -3 0 
C -3 0.795609 -2.683901 1.55874 -2.12132 2.12132 
C -1.55874 2.683901 -0.795609 3 0 3 
z
" id="m2b013586a9" style="stroke:#ffffff;stroke-width:0.75;"/>
    </defs>
    <g clip-path="url(#p4ffec38b5f)">
     <use style="fill:#242424;stroke:#ffffff;stroke-width:0.75;" x="55.893464" xlink:href="#m2b013586a9" y="146.829244"/>
     <use style="fill:#242424;stroke:#ffffff;stroke-width:0.75;" x="91.571904" xlink:href="#m2b013586a9" y="148.663344"/>
     <use style="fill:#242424;stroke:#ffffff;stroke-width:0.75;" x="127.250344" xlink:href="#m2b013586a9" y="152.364031"/>
    </g>
   </g>
   <g id="line2d_13"/>
   <g id="line2d_14"/>
   <g id="line2d_15"/>
   <g id="line2d_16"/>
   <g id="line2d_17"/>
   <g id="line2d_18"/>
   <g id="patch_3">
    <path d="M 52.32562 189.344323 
L 52.32562 38.717784 
" style="fill:none;stroke:#262626;stroke-linecap:square;stroke-linejoin:miter;stroke-width:0.8;"/>
   </g>
   <g id="patch_4">
    <path d="M 130.818188 189.344323 
L 130.818188 38.717784 
" style="fill:none;stroke:#262626;stroke-linecap:square;stroke-linejoin:miter;stroke-width:0.8;"/>
   </g>
   <g id="patch_5">
    <path d="M 52.32562 189.344323 
L 130.818188 189.344323 
" style="fill:none;stroke:#262626;stroke-linecap:square;stroke-linejoin:miter;stroke-width:0.8;"/>
   </g>
   <g id="patch_6">
    <path d="M 52.32562 38.717784 
L 130.818188 38.717784 
" style="fill:none;stroke:#262626;stroke-linecap:square;stroke-linejoin:miter;stroke-width:0.8;"/>
   </g>
   <g id="text_11">
    <!-- a) CAS(10,10) -->
    <g style="fill:#262626;" transform="translate(54.667624 19.766376)scale(0.12 -0.12)">
     <defs>
      <path d="M 26.296875 24.9375 
C 26.296875 32.140625 25.59375 44.359375 19.59375 57.265625 
C 14.796875 67.6875 6.59375 75 5.40625 75 
C 5.09375 75 4.703125 74.890625 4.703125 74.390625 
C 4.703125 74.1875 4.796875 74.09375 4.90625 73.890625 
C 9.703125 68.875 21.90625 56.171875 21.90625 25.046875 
C 21.90625 -6.1875 9.796875 -18.90625 4.90625 -23.90625 
C 4.796875 -24.109375 4.703125 -24.203125 4.703125 -24.40625 
C 4.703125 -24.90625 5.09375 -25 5.40625 -25 
C 6.5 -25 15 -17.609375 19.90625 -6.59375 
C 24.90625 4.515625 26.296875 15.328125 26.296875 24.9375 
z
" id="CMR17-41"/>
      <path d="M 62.09375 67.984375 
C 62.09375 69.796875 62 69.890625 61.40625 69.890625 
C 61 69.890625 60.90625 69.796875 60.203125 68.59375 
L 55.796875 60.140625 
C 50.90625 66.390625 44.90625 70 37.203125 70 
C 20.09375 70 4.59375 54.796875 4.59375 34.046875 
C 4.59375 13.078125 20.09375 -2 37.296875 -2 
C 52.59375 -2 62.09375 11.578125 62.09375 23.15625 
C 62.09375 24.171875 62.09375 24.578125 61.203125 24.578125 
C 60.40625 24.578125 60.40625 24.265625 60.296875 23.359375 
C 59.5 9.25 49.5 0.59375 38.703125 0.59375 
C 28.5 0.59375 12.203125 7.84375 12.203125 34.046875 
C 12.203125 60.34375 28.796875 67.390625 38.5 67.390625 
C 49.796875 67.390625 58 57.515625 59.90625 43.515625 
C 60.09375 42.296875 60.09375 42.109375 61 42.109375 
C 62.09375 42.109375 62.09375 42.296875 62.09375 44.125 
z
" id="CMR17-67"/>
      <path d="M 36.296875 69.390625 
C 35.796875 70.6875 35.59375 71 34.59375 71 
C 33.59375 71 33.40625 70.6875 32.90625 69.390625 
L 11.703125 9.0625 
C 9.796875 3.6875 5.796875 2.59375 2.296875 2.59375 
L 2.296875 0 
C 4.09375 0.1875 8.09375 0.1875 10 0.1875 
C 12.5 0.1875 16.5 0.1875 18.90625 0 
L 18.90625 2.59375 
C 14.203125 2.796875 13.5 5.96875 13.5 7.171875 
C 13.5 8.0625 13.703125 8.5625 13.90625 9.15625 
L 19.203125 24 
L 45.40625 24 
L 51.40625 7.078125 
C 51.90625 5.875 51.90625 5.671875 51.90625 5.28125 
C 51.90625 2.59375 47.59375 2.59375 45.703125 2.59375 
L 45.703125 0 
C 48.59375 0.1875 53.796875 0.1875 56.90625 0.1875 
C 59.5 0.1875 64.5 0.1875 66.90625 0 
L 66.90625 2.59375 
C 61.59375 2.59375 59.796875 2.59375 58.5 6.28125 
z
M 32.296875 61.3125 
L 44.5 26.59375 
L 20.09375 26.59375 
z
" id="CMR17-65"/>
      <path d="M 30.59375 -24.40625 
C 30.59375 -24.3125 30.59375 -24.109375 30.296875 -23.8125 
C 25.703125 -19.109375 13.40625 -6.296875 13.40625 24.9375 
C 13.40625 56.171875 25.5 68.875 30.40625 73.890625 
C 30.40625 73.984375 30.59375 74.1875 30.59375 74.484375 
C 30.59375 74.796875 30.296875 75 29.90625 75 
C 28.796875 75 20.296875 67.578125 15.40625 56.5625 
C 10.40625 45.453125 9 34.65625 9 25.046875 
C 9 17.828125 9.703125 5.625 15.703125 -7.296875 
C 20.5 -17.703125 28.703125 -25 29.90625 -25 
C 30.40625 -25 30.59375 -24.8125 30.59375 -24.40625 
z
" id="CMR17-40"/>
      <path d="M 15.796875 1.59375 
C 16 0.6875 16 0.390625 16 -1.1875 
C 16 -7.046875 14 -12.421875 9.796875 -17.3125 
C 9.296875 -17.8125 9.296875 -18 9.296875 -18.203125 
C 9.296875 -18.609375 9.703125 -19 10.09375 -19 
C 10.703125 -19 17.59375 -12.125 17.59375 -1.28125 
C 17.59375 2 17.203125 8.1875 12.5 8.1875 
C 10.296875 8.1875 8.40625 6.6875 8.40625 4.09375 
C 8.40625 1.5 10.296875 0 12.5 0 
C 13.703125 0 15 0.5 15.796875 1.59375 
z
" id="CMR17-44"/>
     </defs>
     <use transform="scale(0.996264)" xlink:href="#CMR17-97"/>
     <use transform="translate(45.690477 0)scale(0.996264)" xlink:href="#CMR17-41"/>
     <use transform="translate(111.047211 0)scale(0.996264)" xlink:href="#CMR17-67"/>
     <use transform="translate(177.557092 0)scale(0.996264)" xlink:href="#CMR17-65"/>
     <use transform="translate(246.629522 0)scale(0.996264)" xlink:href="#CMR17-83"/>
     <use transform="translate(297.524891 0)scale(0.996264)" xlink:href="#CMR17-40"/>
     <use transform="translate(332.805659 0)scale(0.996264)" xlink:href="#CMR17-49"/>
     <use transform="translate(378.496136 0)scale(0.996264)" xlink:href="#CMR17-48"/>
     <use transform="translate(424.186613 0)scale(0.996264)" xlink:href="#CMR17-44"/>
     <use transform="translate(449.057672 0)scale(0.996264)" xlink:href="#CMR17-49"/>
     <use transform="translate(494.748149 0)scale(0.996264)" xlink:href="#CMR17-48"/>
     <use transform="translate(540.438626 0)scale(0.996264)" xlink:href="#CMR17-41"/>
    </g>
    <!--  -->
    <g style="fill:#262626;" transform="translate(91.571904 32.717784)scale(0.12 -0.12)"/>
   </g>
   <g id="legend_1">
    <g id="patch_7">
     <path d="M 86.836853 149.32215 
L 123.818188 149.32215 
Q 125.818188 149.32215 125.818188 147.32215 
L 125.818188 45.717784 
Q 125.818188 43.717784 123.818188 43.717784 
L 86.836853 43.717784 
Q 84.836853 43.717784 84.836853 45.717784 
L 84.836853 147.32215 
Q 84.836853 149.32215 86.836853 149.32215 
z
" style="fill:#ffffff;opacity:0.8;stroke:#cccccc;stroke-linejoin:miter;"/>
    </g>
    <g id="text_12">
     <!-- $S=$ -->
     <g style="fill:#262626;" transform="translate(96.727857 55.316221)scale(0.1 -0.1)">
      <defs>
       <path d="M 63.5 69.09375 
C 63.5 70 62.796875 70 62.59375 70 
C 62.203125 70 62.09375 69.890625 60.90625 68.390625 
C 60.296875 67.6875 56.203125 62.53125 56.09375 62.4375 
C 52.796875 68.890625 46.203125 70 42 70 
C 29.296875 70 17.796875 58.46875 17.796875 47.25 
C 17.796875 39.796875 22.296875 35.4375 27.203125 33.75 
C 28.296875 33.34375 34.203125 31.765625 37.203125 31.0625 
C 42.296875 29.671875 43.59375 29.28125 45.703125 27.09375 
C 46.09375 26.59375 48.09375 24.3125 48.09375 19.65625 
C 48.09375 10.421875 39.5 0.890625 29.5 0.890625 
C 21.296875 0.890625 12.203125 4.359375 12.203125 15.484375 
C 12.203125 17.375 12.59375 19.75 12.90625 20.75 
C 12.90625 21.046875 13 21.53125 13 21.734375 
C 13 22.140625 12.796875 22.625 12 22.625 
C 11.09375 22.625 11 22.4375 10.59375 20.75 
L 5.5 0.390625 
C 5.5 0.296875 5.09375 -1 5.09375 -1.109375 
C 5.09375 -2 5.90625 -2 6.09375 -2 
C 6.5 -2 6.59375 -1.90625 7.796875 -0.40625 
L 12.40625 5.5625 
C 14.796875 1.984375 20 -2 29.296875 -2 
C 42.203125 -2 54 10.421875 54 22.828125 
C 54 27 53 30.671875 49.203125 34.34375 
C 47.09375 36.421875 45.296875 36.921875 36.09375 39.3125 
C 29.40625 41.09375 28.5 41.390625 26.703125 42.984375 
C 25 44.671875 23.703125 47.046875 23.703125 50.421875 
C 23.703125 58.765625 32.203125 67.296875 41.703125 67.296875 
C 51.5 67.296875 56.09375 61.34375 56.09375 51.90625 
C 56.09375 49.328125 55.59375 46.65625 55.59375 46.25 
C 55.59375 45.359375 56.40625 45.359375 56.703125 45.359375 
C 57.59375 45.359375 57.703125 45.65625 58.09375 47.25 
z
" id="CMMI12-83"/>
       <path d="M 64.296875 32 
C 65.796875 32 67.296875 32 67.296875 33.6875 
C 67.296875 35.5 65.59375 35.5 63.90625 35.5 
L 8 35.5 
C 6.296875 35.5 4.59375 35.5 4.59375 33.6875 
C 4.59375 32 6.09375 32 7.59375 32 
z
M 63.90625 14.484375 
C 65.59375 14.484375 67.296875 14.484375 67.296875 16.296875 
C 67.296875 18 65.796875 18 64.296875 18 
L 7.59375 18 
C 6.09375 18 4.59375 18 4.59375 16.296875 
C 4.59375 14.484375 6.296875 14.484375 8 14.484375 
z
" id="CMR17-61"/>
      </defs>
      <use transform="scale(0.996264)" xlink:href="#CMMI12-83"/>
      <use transform="translate(93.468448 0)scale(0.996264)" xlink:href="#CMR17-61"/>
     </g>
    </g>
    <g id="line2d_19">
     <path d="M 88.836853 66.494346 
L 108.836853 66.494346 
" style="fill:none;stroke:#242424;stroke-linecap:round;stroke-width:1.5;"/>
    </g>
    <g id="line2d_20">
     <defs>
      <path d="M 0 3 
C 0.795609 3 1.55874 2.683901 2.12132 2.12132 
C 2.683901 1.55874 3 0.795609 3 0 
C 3 -0.795609 2.683901 -1.55874 2.12132 -2.12132 
C 1.55874 -2.683901 0.795609 -3 0 -3 
C -0.795609 -3 -1.55874 -2.683901 -2.12132 -2.12132 
C -2.683901 -1.55874 -3 -0.795609 -3 0 
C -3 0.795609 -2.683901 1.55874 -2.12132 2.12132 
C -1.55874 2.683901 -0.795609 3 0 3 
z
" id="m077c6d62cd" style="stroke:#242424;"/>
     </defs>
     <g>
      <use style="fill:#242424;stroke:#242424;" x="98.836853" xlink:href="#m077c6d62cd" y="66.494346"/>
     </g>
    </g>
    <g id="text_13">
     <!-- 5 -->
     <g style="fill:#262626;" transform="translate(116.836853 69.994346)scale(0.1 -0.1)">
      <use transform="scale(0.996264)" xlink:href="#CMR17-53"/>
     </g>
    </g>
    <g id="line2d_21">
     <path d="M 88.836853 81.172471 
L 108.836853 81.172471 
" style="fill:none;stroke:#494949;stroke-linecap:round;stroke-width:1.5;"/>
    </g>
    <g id="line2d_22">
     <defs>
      <path d="M 0 3 
C 0.795609 3 1.55874 2.683901 2.12132 2.12132 
C 2.683901 1.55874 3 0.795609 3 0 
C 3 -0.795609 2.683901 -1.55874 2.12132 -2.12132 
C 1.55874 -2.683901 0.795609 -3 0 -3 
C -0.795609 -3 -1.55874 -2.683901 -2.12132 -2.12132 
C -2.683901 -1.55874 -3 -0.795609 -3 0 
C -3 0.795609 -2.683901 1.55874 -2.12132 2.12132 
C -1.55874 2.683901 -0.795609 3 0 3 
z
" id="m65f63ddc44" style="stroke:#494949;"/>
     </defs>
     <g>
      <use style="fill:#494949;stroke:#494949;" x="98.836853" xlink:href="#m65f63ddc44" y="81.172471"/>
     </g>
    </g>
    <g id="text_14">
     <!-- 4 -->
     <g style="fill:#262626;" transform="translate(116.836853 84.672471)scale(0.1 -0.1)">
      <use transform="scale(0.996264)" xlink:href="#CMR17-52"/>
     </g>
    </g>
    <g id="line2d_23">
     <path d="M 88.836853 95.850596 
L 108.836853 95.850596 
" style="fill:none;stroke:#6d6d6d;stroke-linecap:round;stroke-width:1.5;"/>
    </g>
    <g id="line2d_24">
     <defs>
      <path d="M 0 3 
C 0.795609 3 1.55874 2.683901 2.12132 2.12132 
C 2.683901 1.55874 3 0.795609 3 0 
C 3 -0.795609 2.683901 -1.55874 2.12132 -2.12132 
C 1.55874 -2.683901 0.795609 -3 0 -3 
C -0.795609 -3 -1.55874 -2.683901 -2.12132 -2.12132 
C -2.683901 -1.55874 -3 -0.795609 -3 0 
C -3 0.795609 -2.683901 1.55874 -2.12132 2.12132 
C -1.55874 2.683901 -0.795609 3 0 3 
z
" id="m6f362bd8df" style="stroke:#6d6d6d;"/>
     </defs>
     <g>
      <use style="fill:#6d6d6d;stroke:#6d6d6d;" x="98.836853" xlink:href="#m6f362bd8df" y="95.850596"/>
     </g>
    </g>
    <g id="text_15">
     <!-- 3 -->
     <g style="fill:#262626;" transform="translate(116.836853 99.350596)scale(0.1 -0.1)">
      <use transform="scale(0.996264)" xlink:href="#CMR17-51"/>
     </g>
    </g>
    <g id="line2d_25">
     <path d="M 88.836853 110.528721 
L 108.836853 110.528721 
" style="fill:none;stroke:#929292;stroke-linecap:round;stroke-width:1.5;"/>
    </g>
    <g id="line2d_26">
     <defs>
      <path d="M 0 3 
C 0.795609 3 1.55874 2.683901 2.12132 2.12132 
C 2.683901 1.55874 3 0.795609 3 0 
C 3 -0.795609 2.683901 -1.55874 2.12132 -2.12132 
C 1.55874 -2.683901 0.795609 -3 0 -3 
C -0.795609 -3 -1.55874 -2.683901 -2.12132 -2.12132 
C -2.683901 -1.55874 -3 -0.795609 -3 0 
C -3 0.795609 -2.683901 1.55874 -2.12132 2.12132 
C -1.55874 2.683901 -0.795609 3 0 3 
z
" id="mb71767b88a" style="stroke:#929292;"/>
     </defs>
     <g>
      <use style="fill:#929292;stroke:#929292;" x="98.836853" xlink:href="#mb71767b88a" y="110.528721"/>
     </g>
    </g>
    <g id="text_16">
     <!-- 2 -->
     <g style="fill:#262626;" transform="translate(116.836853 114.028721)scale(0.1 -0.1)">
      <use transform="scale(0.996264)" xlink:href="#CMR17-50"/>
     </g>
    </g>
    <g id="line2d_27">
     <path d="M 88.836853 125.206846 
L 108.836853 125.206846 
" style="fill:none;stroke:#b6b6b6;stroke-linecap:round;stroke-width:1.5;"/>
    </g>
    <g id="line2d_28">
     <defs>
      <path d="M 0 3 
C 0.795609 3 1.55874 2.683901 2.12132 2.12132 
C 2.683901 1.55874 3 0.795609 3 0 
C 3 -0.795609 2.683901 -1.55874 2.12132 -2.12132 
C 1.55874 -2.683901 0.795609 -3 0 -3 
C -0.795609 -3 -1.55874 -2.683901 -2.12132 -2.12132 
C -2.683901 -1.55874 -3 -0.795609 -3 0 
C -3 0.795609 -2.683901 1.55874 -2.12132 2.12132 
C -1.55874 2.683901 -0.795609 3 0 3 
z
" id="mbfff520b52" style="stroke:#b6b6b6;"/>
     </defs>
     <g>
      <use style="fill:#b6b6b6;stroke:#b6b6b6;" x="98.836853" xlink:href="#mbfff520b52" y="125.206846"/>
     </g>
    </g>
    <g id="text_17">
     <!-- 1 -->
     <g style="fill:#262626;" transform="translate(116.836853 128.706846)scale(0.1 -0.1)">
      <use transform="scale(0.996264)" xlink:href="#CMR17-49"/>
     </g>
    </g>
    <g id="line2d_29">
     <path d="M 88.836853 139.884971 
L 108.836853 139.884971 
" style="fill:none;stroke:#dbdbdb;stroke-linecap:round;stroke-width:1.5;"/>
    </g>
    <g id="line2d_30">
     <defs>
      <path d="M 0 3 
C 0.795609 3 1.55874 2.683901 2.12132 2.12132 
C 2.683901 1.55874 3 0.795609 3 0 
C 3 -0.795609 2.683901 -1.55874 2.12132 -2.12132 
C 1.55874 -2.683901 0.795609 -3 0 -3 
C -0.795609 -3 -1.55874 -2.683901 -2.12132 -2.12132 
C -2.683901 -1.55874 -3 -0.795609 -3 0 
C -3 0.795609 -2.683901 1.55874 -2.12132 2.12132 
C -1.55874 2.683901 -0.795609 3 0 3 
z
" id="m959a432e76" style="stroke:#dbdbdb;"/>
     </defs>
     <g>
      <use style="fill:#dbdbdb;stroke:#dbdbdb;" x="98.836853" xlink:href="#m959a432e76" y="139.884971"/>
     </g>
    </g>
    <g id="text_18">
     <!-- 0 -->
     <g style="fill:#262626;" transform="translate(116.836853 143.384971)scale(0.1 -0.1)">
      <use transform="scale(0.996264)" xlink:href="#CMR17-48"/>
     </g>
    </g>
   </g>
  </g>
  <g id="axes_2">
   <g id="patch_8">
    <path d="M 147.731659 189.344323 
L 226.224227 189.344323 
L 226.224227 38.717784 
L 147.731659 38.717784 
z
" style="fill:#ffffff;"/>
   </g>
   <g id="matplotlib.axis_3">
    <g id="xtick_4">
     <g id="text_19">
      <!-- S2 -->
      <g style="fill:#262626;" transform="translate(146.041427 203.262822)scale(0.1 -0.1)">
       <use transform="scale(0.996264)" xlink:href="#CMR17-83"/>
       <use transform="translate(50.89537 0)scale(0.996264)" xlink:href="#CMR17-50"/>
      </g>
     </g>
    </g>
    <g id="xtick_5">
     <g id="text_20">
      <!-- SSe -->
      <g style="fill:#262626;" transform="translate(179.229207 203.262822)scale(0.1 -0.1)">
       <use transform="scale(0.996264)" xlink:href="#CMR17-83"/>
       <use transform="translate(50.89537 0)scale(0.996264)" xlink:href="#CMR17-83"/>
       <use transform="translate(101.79074 0)scale(0.996264)" xlink:href="#CMR17-101"/>
      </g>
     </g>
    </g>
    <g id="xtick_6">
     <g id="text_21">
      <!-- Se2 -->
      <g style="fill:#262626;" transform="translate(215.184388 203.262822)scale(0.1 -0.1)">
       <use transform="scale(0.996264)" xlink:href="#CMR17-83"/>
       <use transform="translate(50.89537 0)scale(0.996264)" xlink:href="#CMR17-101"/>
       <use transform="translate(91.38103 0)scale(0.996264)" xlink:href="#CMR17-50"/>
      </g>
     </g>
    </g>
   </g>
   <g id="matplotlib.axis_4">
    <g id="ytick_7">
     <g id="line2d_31">
      <path clip-path="url(#p91e633fd85)" d="M 147.731659 187.867593 
L 226.224227 187.867593 
" style="fill:none;stroke:#cccccc;stroke-linecap:round;stroke-width:0.8;"/>
     </g>
    </g>
    <g id="ytick_8">
     <g id="line2d_32">
      <path clip-path="url(#p91e633fd85)" d="M 147.731659 158.332977 
L 226.224227 158.332977 
" style="fill:none;stroke:#cccccc;stroke-linecap:round;stroke-width:0.8;"/>
     </g>
    </g>
    <g id="ytick_9">
     <g id="line2d_33">
      <path clip-path="url(#p91e633fd85)" d="M 147.731659 128.798361 
L 226.224227 128.798361 
" style="fill:none;stroke:#cccccc;stroke-linecap:round;stroke-width:0.8;"/>
     </g>
    </g>
    <g id="ytick_10">
     <g id="line2d_34">
      <path clip-path="url(#p91e633fd85)" d="M 147.731659 99.263746 
L 226.224227 99.263746 
" style="fill:none;stroke:#cccccc;stroke-linecap:round;stroke-width:0.8;"/>
     </g>
    </g>
    <g id="ytick_11">
     <g id="line2d_35">
      <path clip-path="url(#p91e633fd85)" d="M 147.731659 69.72913 
L 226.224227 69.72913 
" style="fill:none;stroke:#cccccc;stroke-linecap:round;stroke-width:0.8;"/>
     </g>
    </g>
    <g id="ytick_12">
     <g id="line2d_36">
      <path clip-path="url(#p91e633fd85)" d="M 147.731659 40.194515 
L 226.224227 40.194515 
" style="fill:none;stroke:#cccccc;stroke-linecap:round;stroke-width:0.8;"/>
     </g>
    </g>
   </g>
   <g id="line2d_37">
    <path clip-path="url(#p91e633fd85)" d="M 151.299503 187.867593 
L 186.977943 187.867593 
L 222.656383 187.867593 
" style="fill:none;stroke:#dbdbdb;stroke-linecap:round;stroke-width:1.5;"/>
    <g clip-path="url(#p91e633fd85)">
     <use style="fill:#dbdbdb;stroke:#ffffff;stroke-width:0.75;" x="151.299503" xlink:href="#m61ca51a9ba" y="187.867593"/>
     <use style="fill:#dbdbdb;stroke:#ffffff;stroke-width:0.75;" x="186.977943" xlink:href="#m61ca51a9ba" y="187.867593"/>
     <use style="fill:#dbdbdb;stroke:#ffffff;stroke-width:0.75;" x="222.656383" xlink:href="#m61ca51a9ba" y="187.867593"/>
    </g>
   </g>
   <g id="line2d_38">
    <path clip-path="url(#p91e633fd85)" d="M 151.299503 182.985521 
L 186.977943 183.224751 
L 222.656383 183.676631 
" style="fill:none;stroke:#b6b6b6;stroke-linecap:round;stroke-width:1.5;"/>
    <g clip-path="url(#p91e633fd85)">
     <use style="fill:#b6b6b6;stroke:#ffffff;stroke-width:0.75;" x="151.299503" xlink:href="#mc08b390f87" y="182.985521"/>
     <use style="fill:#b6b6b6;stroke:#ffffff;stroke-width:0.75;" x="186.977943" xlink:href="#mc08b390f87" y="183.224751"/>
     <use style="fill:#b6b6b6;stroke:#ffffff;stroke-width:0.75;" x="222.656383" xlink:href="#mc08b390f87" y="183.676631"/>
    </g>
   </g>
   <g id="line2d_39">
    <path clip-path="url(#p91e633fd85)" d="M 151.299503 173.318841 
L 186.977943 174.024718 
L 222.656383 175.395124 
" style="fill:none;stroke:#929292;stroke-linecap:round;stroke-width:1.5;"/>
    <g clip-path="url(#p91e633fd85)">
     <use style="fill:#929292;stroke:#ffffff;stroke-width:0.75;" x="151.299503" xlink:href="#mdfcaac0bc6" y="173.318841"/>
     <use style="fill:#929292;stroke:#ffffff;stroke-width:0.75;" x="186.977943" xlink:href="#mdfcaac0bc6" y="174.024718"/>
     <use style="fill:#929292;stroke:#ffffff;stroke-width:0.75;" x="222.656383" xlink:href="#mdfcaac0bc6" y="175.395124"/>
    </g>
   </g>
   <g id="line2d_40">
    <path clip-path="url(#p91e633fd85)" d="M 151.299503 159.01818 
L 186.977943 160.432888 
L 222.656383 163.150073 
" style="fill:none;stroke:#6d6d6d;stroke-linecap:round;stroke-width:1.5;"/>
    <g clip-path="url(#p91e633fd85)">
     <use style="fill:#6d6d6d;stroke:#ffffff;stroke-width:0.75;" x="151.299503" xlink:href="#meb5e59f617" y="159.01818"/>
     <use style="fill:#6d6d6d;stroke:#ffffff;stroke-width:0.75;" x="186.977943" xlink:href="#meb5e59f617" y="160.432888"/>
     <use style="fill:#6d6d6d;stroke:#ffffff;stroke-width:0.75;" x="222.656383" xlink:href="#meb5e59f617" y="163.150073"/>
    </g>
   </g>
   <g id="line2d_41">
    <path clip-path="url(#p91e633fd85)" d="M 151.299503 140.284373 
L 186.977943 142.647143 
L 222.656383 147.112776 
" style="fill:none;stroke:#494949;stroke-linecap:round;stroke-width:1.5;"/>
    <g clip-path="url(#p91e633fd85)">
     <use style="fill:#494949;stroke:#ffffff;stroke-width:0.75;" x="151.299503" xlink:href="#m4d30c44955" y="140.284373"/>
     <use style="fill:#494949;stroke:#ffffff;stroke-width:0.75;" x="186.977943" xlink:href="#m4d30c44955" y="142.647143"/>
     <use style="fill:#494949;stroke:#ffffff;stroke-width:0.75;" x="222.656383" xlink:href="#m4d30c44955" y="147.112776"/>
    </g>
   </g>
   <g id="line2d_42">
    <path clip-path="url(#p91e633fd85)" d="M 151.299503 117.832159 
L 186.977943 121.39108 
L 222.656383 127.912323 
" style="fill:none;stroke:#242424;stroke-linecap:round;stroke-width:1.5;"/>
    <g clip-path="url(#p91e633fd85)">
     <use style="fill:#242424;stroke:#ffffff;stroke-width:0.75;" x="151.299503" xlink:href="#m2b013586a9" y="117.832159"/>
     <use style="fill:#242424;stroke:#ffffff;stroke-width:0.75;" x="186.977943" xlink:href="#m2b013586a9" y="121.39108"/>
     <use style="fill:#242424;stroke:#ffffff;stroke-width:0.75;" x="222.656383" xlink:href="#m2b013586a9" y="127.912323"/>
    </g>
   </g>
   <g id="line2d_43"/>
   <g id="line2d_44"/>
   <g id="line2d_45"/>
   <g id="line2d_46"/>
   <g id="line2d_47"/>
   <g id="line2d_48"/>
   <g id="patch_9">
    <path d="M 147.731659 189.344323 
L 147.731659 38.717784 
" style="fill:none;stroke:#262626;stroke-linecap:square;stroke-linejoin:miter;stroke-width:0.8;"/>
   </g>
   <g id="patch_10">
    <path d="M 226.224227 189.344323 
L 226.224227 38.717784 
" style="fill:none;stroke:#262626;stroke-linecap:square;stroke-linejoin:miter;stroke-width:0.8;"/>
   </g>
   <g id="patch_11">
    <path d="M 147.731659 189.344323 
L 226.224227 189.344323 
" style="fill:none;stroke:#262626;stroke-linecap:square;stroke-linejoin:miter;stroke-width:0.8;"/>
   </g>
   <g id="patch_12">
    <path d="M 147.731659 38.717784 
L 226.224227 38.717784 
" style="fill:none;stroke:#262626;stroke-linecap:square;stroke-linejoin:miter;stroke-width:0.8;"/>
   </g>
   <g id="text_22">
    <!-- b) CAS(10,10) -->
    <g style="fill:#262626;" transform="translate(149.748497 19.766376)scale(0.12 -0.12)">
     <defs>
      <path d="M 15 69 
L 3.09375 67.890625 
L 3.09375 65.296875 
C 9 65.296875 9.90625 64.703125 9.90625 60.046875 
L 9.90625 -0.203125 
L 11.703125 -0.203125 
L 14.59375 6.953125 
C 17.5 2.203125 21.796875 -1 27.59375 -1 
C 37.59375 -1 47.703125 7.859375 47.703125 21.59375 
C 47.703125 34.515625 38.703125 44 28.59375 44 
C 22.40625 44 18 40.671875 15 36.734375 
z
M 15.203125 31.59375 
C 15.203125 33.40625 15.203125 33.703125 16.59375 35.828125 
C 20.5 41.890625 26.09375 42.390625 28 42.390625 
C 31 42.390625 41.296875 40.78125 41.296875 21.6875 
C 41.296875 1.703125 29.5 0.59375 27.09375 0.59375 
C 24 0.59375 19.5 1.796875 16.296875 7.65625 
C 15.203125 9.578125 15.203125 9.78125 15.203125 11.59375 
z
" id="CMR17-98"/>
     </defs>
     <use transform="scale(0.996264)" xlink:href="#CMR17-98"/>
     <use transform="translate(50.89537 0)scale(0.996264)" xlink:href="#CMR17-41"/>
     <use transform="translate(116.252104 0)scale(0.996264)" xlink:href="#CMR17-67"/>
     <use transform="translate(182.761984 0)scale(0.996264)" xlink:href="#CMR17-65"/>
     <use transform="translate(251.834414 0)scale(0.996264)" xlink:href="#CMR17-83"/>
     <use transform="translate(302.729784 0)scale(0.996264)" xlink:href="#CMR17-40"/>
     <use transform="translate(338.010552 0)scale(0.996264)" xlink:href="#CMR17-49"/>
     <use transform="translate(383.701029 0)scale(0.996264)" xlink:href="#CMR17-48"/>
     <use transform="translate(429.391506 0)scale(0.996264)" xlink:href="#CMR17-44"/>
     <use transform="translate(454.262565 0)scale(0.996264)" xlink:href="#CMR17-49"/>
     <use transform="translate(499.953042 0)scale(0.996264)" xlink:href="#CMR17-48"/>
     <use transform="translate(545.643519 0)scale(0.996264)" xlink:href="#CMR17-41"/>
    </g>
    <!-- +NEVPT2 -->
    <g style="fill:#262626;" transform="translate(158.532125 32.717784)scale(0.12 -0.12)">
     <defs>
      <path d="M 37.703125 23 
L 64.203125 23 
C 65.59375 23 67.296875 23 67.296875 24.6875 
C 67.296875 26.5 65.703125 26.5 64.203125 26.5 
L 37.703125 26.5 
L 37.703125 52.890625 
C 37.703125 54.296875 37.703125 56 36 56 
C 34.203125 56 34.203125 54.390625 34.203125 52.890625 
L 34.203125 26.5 
L 7.703125 26.5 
C 6.296875 26.5 4.59375 26.5 4.59375 24.796875 
C 4.59375 23 6.203125 23 7.703125 23 
L 34.203125 23 
L 34.203125 -3.03125 
C 34.203125 -4.40625 34.203125 -6.109375 35.90625 -6.109375 
C 37.703125 -6.109375 37.703125 -4.515625 37.703125 -3.03125 
z
" id="CMR17-43"/>
      <path d="M 20.5 66.796875 
C 19.796875 67.890625 19.703125 68 17.796875 68 
L 5.09375 68 
L 5.09375 65.390625 
L 7 65.390625 
C 11 65.390625 12.796875 64.890625 13.09375 64.796875 
L 13.09375 9.75 
C 13.09375 7.265625 13.09375 2.59375 5.09375 2.59375 
L 5.09375 0 
C 7.40625 0.1875 11.59375 0.1875 14.09375 0.1875 
C 16.59375 0.1875 20.796875 0.1875 23.09375 0 
L 23.09375 2.59375 
C 15.09375 2.59375 15.09375 7.265625 15.09375 9.75 
L 15.09375 63.390625 
C 15.796875 62.796875 15.796875 62.609375 16.5 61.609375 
L 53.59375 1.1875 
C 54.296875 0 54.59375 0 55.09375 0 
C 56.09375 0 56.09375 0.296875 56.09375 2.1875 
L 56.09375 58.21875 
C 56.09375 60.703125 56.09375 65.390625 64.09375 65.390625 
L 64.09375 68 
C 61.796875 67.796875 57.59375 67.796875 55.09375 67.796875 
C 52.59375 67.796875 48.40625 67.796875 46.09375 68 
L 46.09375 65.390625 
C 54.09375 65.390625 54.09375 60.703125 54.09375 58.21875 
L 54.09375 12.140625 
z
" id="CMR17-78"/>
      <path d="M 60.703125 25.21875 
L 58.90625 25.21875 
C 56.703125 10.5625 55.40625 2.59375 37.796875 2.59375 
L 23.90625 2.59375 
C 19.90625 2.59375 19.703125 3.09375 19.703125 6.484375 
L 19.703125 34 
L 29.09375 34 
C 38.5 34 39.40625 30.609375 39.40625 22.328125 
L 41.203125 22.328125 
L 41.203125 48.21875 
L 39.40625 48.21875 
C 39.40625 39.96875 38.5 36.59375 29.09375 36.59375 
L 19.703125 36.59375 
L 19.703125 61.3125 
C 19.703125 64.703125 19.90625 65.1875 23.90625 65.1875 
L 37.59375 65.1875 
C 53.09375 65.1875 54.90625 59.03125 56.296875 45.828125 
L 58.09375 45.828125 
L 55.703125 67.796875 
L 5.09375 67.796875 
L 5.09375 65.1875 
C 12 65.1875 13.09375 65.1875 13.09375 60.71875 
L 13.09375 7.078125 
C 13.09375 2.59375 12 2.59375 5.09375 2.59375 
L 5.09375 0 
L 57.09375 0 
z
" id="CMR17-69"/>
      <path d="M 59 58.78125 
C 59.90625 60.984375 61.5 65.296875 68.203125 65.390625 
L 68.203125 68 
C 65.90625 67.796875 63.296875 67.796875 60.796875 67.796875 
C 58.40625 67.796875 54.296875 67.796875 52 68 
L 52 65.390625 
C 57 65.09375 57.203125 61.59375 57.203125 60.984375 
C 57.203125 59.890625 56.90625 59.1875 56.59375 58.390625 
L 36.90625 7 
L 16.296875 60.984375 
C 16 61.6875 15.796875 62.1875 15.796875 62.6875 
C 15.796875 65.390625 19.796875 65.390625 21.90625 65.390625 
L 21.90625 68 
C 18.703125 67.796875 14 67.796875 10.703125 67.796875 
C 8.09375 67.796875 3.40625 67.796875 1 68 
L 1 65.390625 
C 6.796875 65.390625 7.90625 65 9.09375 61.796875 
L 32.90625 -0.40625 
C 33.40625 -1.8125 33.5 -2 34.59375 -2 
C 35.703125 -2 35.796875 -1.8125 36.296875 -0.40625 
z
" id="CMR17-86"/>
      <path d="M 19.796875 32 
L 35.796875 32 
C 48.703125 32 58.09375 40.359375 58.09375 49.796875 
C 58.09375 59.234375 48.90625 68 35.796875 68 
L 5.203125 68 
L 5.203125 65.390625 
C 12.09375 65.390625 13.203125 65.390625 13.203125 60.921875 
L 13.203125 7.078125 
C 13.203125 2.59375 12.09375 2.59375 5.203125 2.59375 
L 5.203125 0 
C 8.09375 0.1875 13.40625 0.1875 16.5 0.1875 
C 19.59375 0.1875 24.90625 0.1875 27.796875 0 
L 27.796875 2.59375 
C 20.90625 2.59375 19.796875 2.59375 19.796875 7.078125 
z
M 19.59375 34.09375 
L 19.59375 61.515625 
C 19.59375 64.890625 19.796875 65.390625 23.796875 65.390625 
L 33.90625 65.390625 
C 46.796875 65.390625 50.5 58.046875 50.5 49.796875 
C 50.5 40.75 46.09375 34.09375 33.90625 34.09375 
z
" id="CMR17-80"/>
      <path d="M 62.203125 67.6875 
L 4.5 67.6875 
L 2.796875 45.6875 
L 4.59375 45.6875 
C 5.90625 62.203125 7.296875 65.09375 22.703125 65.09375 
C 24.5 65.09375 27.40625 65.09375 28.203125 64.984375 
C 30.09375 64.6875 30.09375 63.5 30.09375 61.203125 
L 30.09375 7.265625 
C 30.09375 3.6875 29.796875 2.59375 21.5 2.59375 
L 18.703125 2.59375 
L 18.703125 0 
C 23.5 0.09375 28.5 0.1875 33.40625 0.1875 
C 38.296875 0.1875 43.296875 0.09375 48.09375 0 
L 48.09375 2.59375 
L 45.296875 2.59375 
C 37 2.59375 36.703125 3.6875 36.703125 7.265625 
L 36.703125 61.203125 
C 36.703125 63.390625 36.703125 64.59375 38.5 64.984375 
C 39.296875 65.09375 42.203125 65.09375 44 65.09375 
C 59.296875 65.09375 60.796875 62.203125 62.09375 45.6875 
L 63.90625 45.6875 
z
" id="CMR17-84"/>
     </defs>
     <use transform="scale(0.996264)" xlink:href="#CMR17-43"/>
     <use transform="translate(71.714788 0)scale(0.996264)" xlink:href="#CMR17-78"/>
     <use transform="translate(140.787218 0)scale(0.996264)" xlink:href="#CMR17-69"/>
     <use transform="translate(203.373519 0)scale(0.996264)" xlink:href="#CMR17-86"/>
     <use transform="translate(272.445949 0)scale(0.996264)" xlink:href="#CMR17-80"/>
     <use transform="translate(335.032249 0)scale(0.996264)" xlink:href="#CMR17-84"/>
     <use transform="translate(401.54213 0)scale(0.996264)" xlink:href="#CMR17-50"/>
    </g>
   </g>
   <g id="legend_2">
    <g id="patch_13">
     <path d="M 182.242892 149.32215 
L 219.224227 149.32215 
Q 221.224227 149.32215 221.224227 147.32215 
L 221.224227 45.717784 
Q 221.224227 43.717784 219.224227 43.717784 
L 182.242892 43.717784 
Q 180.242892 43.717784 180.242892 45.717784 
L 180.242892 147.32215 
Q 180.242892 149.32215 182.242892 149.32215 
z
" style="fill:#ffffff;opacity:0.8;stroke:#cccccc;stroke-linejoin:miter;"/>
    </g>
    <g id="text_23">
     <!-- $S=$ -->
     <g style="fill:#262626;" transform="translate(192.133896 55.316221)scale(0.1 -0.1)">
      <use transform="scale(0.996264)" xlink:href="#CMMI12-83"/>
      <use transform="translate(93.468448 0)scale(0.996264)" xlink:href="#CMR17-61"/>
     </g>
    </g>
    <g id="line2d_49">
     <path d="M 184.242892 66.494346 
L 204.242892 66.494346 
" style="fill:none;stroke:#242424;stroke-linecap:round;stroke-width:1.5;"/>
    </g>
    <g id="line2d_50">
     <g>
      <use style="fill:#242424;stroke:#242424;" x="194.242892" xlink:href="#m077c6d62cd" y="66.494346"/>
     </g>
    </g>
    <g id="text_24">
     <!-- 5 -->
     <g style="fill:#262626;" transform="translate(212.242892 69.994346)scale(0.1 -0.1)">
      <use transform="scale(0.996264)" xlink:href="#CMR17-53"/>
     </g>
    </g>
    <g id="line2d_51">
     <path d="M 184.242892 81.172471 
L 204.242892 81.172471 
" style="fill:none;stroke:#494949;stroke-linecap:round;stroke-width:1.5;"/>
    </g>
    <g id="line2d_52">
     <g>
      <use style="fill:#494949;stroke:#494949;" x="194.242892" xlink:href="#m65f63ddc44" y="81.172471"/>
     </g>
    </g>
    <g id="text_25">
     <!-- 4 -->
     <g style="fill:#262626;" transform="translate(212.242892 84.672471)scale(0.1 -0.1)">
      <use transform="scale(0.996264)" xlink:href="#CMR17-52"/>
     </g>
    </g>
    <g id="line2d_53">
     <path d="M 184.242892 95.850596 
L 204.242892 95.850596 
" style="fill:none;stroke:#6d6d6d;stroke-linecap:round;stroke-width:1.5;"/>
    </g>
    <g id="line2d_54">
     <g>
      <use style="fill:#6d6d6d;stroke:#6d6d6d;" x="194.242892" xlink:href="#m6f362bd8df" y="95.850596"/>
     </g>
    </g>
    <g id="text_26">
     <!-- 3 -->
     <g style="fill:#262626;" transform="translate(212.242892 99.350596)scale(0.1 -0.1)">
      <use transform="scale(0.996264)" xlink:href="#CMR17-51"/>
     </g>
    </g>
    <g id="line2d_55">
     <path d="M 184.242892 110.528721 
L 204.242892 110.528721 
" style="fill:none;stroke:#929292;stroke-linecap:round;stroke-width:1.5;"/>
    </g>
    <g id="line2d_56">
     <g>
      <use style="fill:#929292;stroke:#929292;" x="194.242892" xlink:href="#mb71767b88a" y="110.528721"/>
     </g>
    </g>
    <g id="text_27">
     <!-- 2 -->
     <g style="fill:#262626;" transform="translate(212.242892 114.028721)scale(0.1 -0.1)">
      <use transform="scale(0.996264)" xlink:href="#CMR17-50"/>
     </g>
    </g>
    <g id="line2d_57">
     <path d="M 184.242892 125.206846 
L 204.242892 125.206846 
" style="fill:none;stroke:#b6b6b6;stroke-linecap:round;stroke-width:1.5;"/>
    </g>
    <g id="line2d_58">
     <g>
      <use style="fill:#b6b6b6;stroke:#b6b6b6;" x="194.242892" xlink:href="#mbfff520b52" y="125.206846"/>
     </g>
    </g>
    <g id="text_28">
     <!-- 1 -->
     <g style="fill:#262626;" transform="translate(212.242892 128.706846)scale(0.1 -0.1)">
      <use transform="scale(0.996264)" xlink:href="#CMR17-49"/>
     </g>
    </g>
    <g id="line2d_59">
     <path d="M 184.242892 139.884971 
L 204.242892 139.884971 
" style="fill:none;stroke:#dbdbdb;stroke-linecap:round;stroke-width:1.5;"/>
    </g>
    <g id="line2d_60">
     <g>
      <use style="fill:#dbdbdb;stroke:#dbdbdb;" x="194.242892" xlink:href="#m959a432e76" y="139.884971"/>
     </g>
    </g>
    <g id="text_29">
     <!-- 0 -->
     <g style="fill:#262626;" transform="translate(212.242892 143.384971)scale(0.1 -0.1)">
      <use transform="scale(0.996264)" xlink:href="#CMR17-48"/>
     </g>
    </g>
   </g>
  </g>
  <g id="axes_3">
   <g id="patch_14">
    <path d="M 243.137698 189.344323 
L 321.630266 189.344323 
L 321.630266 38.717784 
L 243.137698 38.717784 
z
" style="fill:#ffffff;"/>
   </g>
   <g id="matplotlib.axis_5">
    <g id="xtick_7">
     <g id="text_30">
      <!-- S2 -->
      <g style="fill:#262626;" transform="translate(241.447466 203.262822)scale(0.1 -0.1)">
       <use transform="scale(0.996264)" xlink:href="#CMR17-83"/>
       <use transform="translate(50.89537 0)scale(0.996264)" xlink:href="#CMR17-50"/>
      </g>
     </g>
    </g>
    <g id="xtick_8">
     <g id="text_31">
      <!-- Se2 -->
      <g style="fill:#262626;" transform="translate(310.590427 203.262822)scale(0.1 -0.1)">
       <use transform="scale(0.996264)" xlink:href="#CMR17-83"/>
       <use transform="translate(50.89537 0)scale(0.996264)" xlink:href="#CMR17-101"/>
       <use transform="translate(91.38103 0)scale(0.996264)" xlink:href="#CMR17-50"/>
      </g>
     </g>
    </g>
   </g>
   <g id="matplotlib.axis_6">
    <g id="ytick_13">
     <g id="line2d_61">
      <path clip-path="url(#p0438842df8)" d="M 243.137698 187.867593 
L 321.630266 187.867593 
" style="fill:none;stroke:#cccccc;stroke-linecap:round;stroke-width:0.8;"/>
     </g>
    </g>
    <g id="ytick_14">
     <g id="line2d_62">
      <path clip-path="url(#p0438842df8)" d="M 243.137698 158.332977 
L 321.630266 158.332977 
" style="fill:none;stroke:#cccccc;stroke-linecap:round;stroke-width:0.8;"/>
     </g>
    </g>
    <g id="ytick_15">
     <g id="line2d_63">
      <path clip-path="url(#p0438842df8)" d="M 243.137698 128.798361 
L 321.630266 128.798361 
" style="fill:none;stroke:#cccccc;stroke-linecap:round;stroke-width:0.8;"/>
     </g>
    </g>
    <g id="ytick_16">
     <g id="line2d_64">
      <path clip-path="url(#p0438842df8)" d="M 243.137698 99.263746 
L 321.630266 99.263746 
" style="fill:none;stroke:#cccccc;stroke-linecap:round;stroke-width:0.8;"/>
     </g>
    </g>
    <g id="ytick_17">
     <g id="line2d_65">
      <path clip-path="url(#p0438842df8)" d="M 243.137698 69.72913 
L 321.630266 69.72913 
" style="fill:none;stroke:#cccccc;stroke-linecap:round;stroke-width:0.8;"/>
     </g>
    </g>
    <g id="ytick_18">
     <g id="line2d_66">
      <path clip-path="url(#p0438842df8)" d="M 243.137698 40.194515 
L 321.630266 40.194515 
" style="fill:none;stroke:#cccccc;stroke-linecap:round;stroke-width:0.8;"/>
     </g>
    </g>
   </g>
   <g id="line2d_67">
    <path clip-path="url(#p0438842df8)" d="M 246.705542 187.867593 
L 318.062422 187.867593 
" style="fill:none;stroke:#dbdbdb;stroke-linecap:round;stroke-width:1.5;"/>
    <g clip-path="url(#p0438842df8)">
     <use style="fill:#dbdbdb;stroke:#ffffff;stroke-width:0.75;" x="246.705542" xlink:href="#m61ca51a9ba" y="187.867593"/>
     <use style="fill:#dbdbdb;stroke:#ffffff;stroke-width:0.75;" x="318.062422" xlink:href="#m61ca51a9ba" y="187.867593"/>
    </g>
   </g>
   <g id="line2d_68">
    <path clip-path="url(#p0438842df8)" d="M 246.705542 182.885103 
L 318.062422 183.292681 
" style="fill:none;stroke:#b6b6b6;stroke-linecap:round;stroke-width:1.5;"/>
    <g clip-path="url(#p0438842df8)">
     <use style="fill:#b6b6b6;stroke:#ffffff;stroke-width:0.75;" x="246.705542" xlink:href="#mc08b390f87" y="182.885103"/>
     <use style="fill:#b6b6b6;stroke:#ffffff;stroke-width:0.75;" x="318.062422" xlink:href="#mc08b390f87" y="183.292681"/>
    </g>
   </g>
   <g id="line2d_69">
    <path clip-path="url(#p0438842df8)" d="M 246.705542 172.91717 
L 318.062422 174.139903 
" style="fill:none;stroke:#929292;stroke-linecap:round;stroke-width:1.5;"/>
    <g clip-path="url(#p0438842df8)">
     <use style="fill:#929292;stroke:#ffffff;stroke-width:0.75;" x="246.705542" xlink:href="#mdfcaac0bc6" y="172.91717"/>
     <use style="fill:#929292;stroke:#ffffff;stroke-width:0.75;" x="318.062422" xlink:href="#mdfcaac0bc6" y="174.139903"/>
    </g>
   </g>
   <g id="line2d_70">
    <path clip-path="url(#p0438842df8)" d="M 246.705542 157.981515 
L 318.062422 160.406307 
" style="fill:none;stroke:#6d6d6d;stroke-linecap:round;stroke-width:1.5;"/>
    <g clip-path="url(#p0438842df8)">
     <use style="fill:#6d6d6d;stroke:#ffffff;stroke-width:0.75;" x="246.705542" xlink:href="#meb5e59f617" y="157.981515"/>
     <use style="fill:#6d6d6d;stroke:#ffffff;stroke-width:0.75;" x="318.062422" xlink:href="#meb5e59f617" y="160.406307"/>
    </g>
   </g>
   <g id="line2d_71">
    <path clip-path="url(#p0438842df8)" d="M 246.705542 138.128346 
L 318.062422 142.109613 
" style="fill:none;stroke:#494949;stroke-linecap:round;stroke-width:1.5;"/>
    <g clip-path="url(#p0438842df8)">
     <use style="fill:#494949;stroke:#ffffff;stroke-width:0.75;" x="246.705542" xlink:href="#m4d30c44955" y="138.128346"/>
     <use style="fill:#494949;stroke:#ffffff;stroke-width:0.75;" x="318.062422" xlink:href="#m4d30c44955" y="142.109613"/>
    </g>
   </g>
   <g id="line2d_72">
    <path clip-path="url(#p0438842df8)" d="M 246.705542 113.505337 
L 318.062422 119.341377 
" style="fill:none;stroke:#242424;stroke-linecap:round;stroke-width:1.5;"/>
    <g clip-path="url(#p0438842df8)">
     <use style="fill:#242424;stroke:#ffffff;stroke-width:0.75;" x="246.705542" xlink:href="#m2b013586a9" y="113.505337"/>
     <use style="fill:#242424;stroke:#ffffff;stroke-width:0.75;" x="318.062422" xlink:href="#m2b013586a9" y="119.341377"/>
    </g>
   </g>
   <g id="line2d_73"/>
   <g id="line2d_74"/>
   <g id="line2d_75"/>
   <g id="line2d_76"/>
   <g id="line2d_77"/>
   <g id="line2d_78"/>
   <g id="patch_15">
    <path d="M 243.137698 189.344323 
L 243.137698 38.717784 
" style="fill:none;stroke:#262626;stroke-linecap:square;stroke-linejoin:miter;stroke-width:0.8;"/>
   </g>
   <g id="patch_16">
    <path d="M 321.630266 189.344323 
L 321.630266 38.717784 
" style="fill:none;stroke:#262626;stroke-linecap:square;stroke-linejoin:miter;stroke-width:0.8;"/>
   </g>
   <g id="patch_17">
    <path d="M 243.137698 189.344323 
L 321.630266 189.344323 
" style="fill:none;stroke:#262626;stroke-linecap:square;stroke-linejoin:miter;stroke-width:0.8;"/>
   </g>
   <g id="patch_18">
    <path d="M 243.137698 38.717784 
L 321.630266 38.717784 
" style="fill:none;stroke:#262626;stroke-linecap:square;stroke-linejoin:miter;stroke-width:0.8;"/>
   </g>
   <g id="text_32">
    <!-- c) CAS(22,16) -->
    <g style="fill:#262626;" transform="translate(245.804868 19.766376)scale(0.12 -0.12)">
     <defs>
      <path d="M 10.59375 34.34375 
C 10.59375 58 21.796875 63.6875 28.296875 63.6875 
C 30.40625 63.6875 35.5 63.265625 37.5 59.09375 
C 35.90625 59.09375 32.90625 59.09375 32.90625 55.59375 
C 32.90625 52.890625 35.09375 52 36.5 52 
C 37.40625 52 40.09375 52.390625 40.09375 55.796875 
C 40.09375 62.296875 35.09375 66 28.203125 66 
C 16.296875 66 3.796875 53.296875 3.796875 31.421875 
C 3.796875 4.015625 15.09375 -2 23.09375 -2 
C 32.796875 -2 42 6.734375 42 20.234375 
C 42 32.828125 33.90625 42 23.703125 42 
C 17.59375 42 13.09375 37.96875 10.59375 30.921875 
z
M 23.09375 0.390625 
C 10.796875 0.390625 10.796875 18.9375 10.796875 22.65625 
C 10.796875 29.90625 14.203125 40.390625 23.5 40.390625 
C 25.203125 40.390625 30.09375 40.390625 33.40625 33.4375 
C 35.203125 29.515625 35.203125 25.375 35.203125 20.34375 
C 35.203125 14.90625 35.203125 10.875 33.09375 6.84375 
C 30.90625 2.703125 27.703125 0.390625 23.09375 0.390625 
z
" id="CMR17-54"/>
     </defs>
     <use transform="scale(0.996264)" xlink:href="#CMR17-99"/>
     <use transform="translate(40.48566 0)scale(0.996264)" xlink:href="#CMR17-41"/>
     <use transform="translate(105.842395 0)scale(0.996264)" xlink:href="#CMR17-67"/>
     <use transform="translate(172.352275 0)scale(0.996264)" xlink:href="#CMR17-65"/>
     <use transform="translate(241.424705 0)scale(0.996264)" xlink:href="#CMR17-83"/>
     <use transform="translate(292.320075 0)scale(0.996264)" xlink:href="#CMR17-40"/>
     <use transform="translate(327.600843 0)scale(0.996264)" xlink:href="#CMR17-50"/>
     <use transform="translate(373.29132 0)scale(0.996264)" xlink:href="#CMR17-50"/>
     <use transform="translate(418.981797 0)scale(0.996264)" xlink:href="#CMR17-44"/>
     <use transform="translate(443.852855 0)scale(0.996264)" xlink:href="#CMR17-49"/>
     <use transform="translate(489.543332 0)scale(0.996264)" xlink:href="#CMR17-54"/>
     <use transform="translate(535.233809 0)scale(0.996264)" xlink:href="#CMR17-41"/>
    </g>
    <!--  -->
    <g style="fill:#262626;" transform="translate(282.383982 32.717784)scale(0.12 -0.12)"/>
   </g>
   <g id="legend_3">
    <g id="patch_19">
     <path d="M 277.648931 149.32215 
L 314.630266 149.32215 
Q 316.630266 149.32215 316.630266 147.32215 
L 316.630266 45.717784 
Q 316.630266 43.717784 314.630266 43.717784 
L 277.648931 43.717784 
Q 275.648931 43.717784 275.648931 45.717784 
L 275.648931 147.32215 
Q 275.648931 149.32215 277.648931 149.32215 
z
" style="fill:#ffffff;opacity:0.8;stroke:#cccccc;stroke-linejoin:miter;"/>
    </g>
    <g id="text_33">
     <!-- $S=$ -->
     <g style="fill:#262626;" transform="translate(287.539935 55.316221)scale(0.1 -0.1)">
      <use transform="scale(0.996264)" xlink:href="#CMMI12-83"/>
      <use transform="translate(93.468448 0)scale(0.996264)" xlink:href="#CMR17-61"/>
     </g>
    </g>
    <g id="line2d_79">
     <path d="M 279.648931 66.494346 
L 299.648931 66.494346 
" style="fill:none;stroke:#242424;stroke-linecap:round;stroke-width:1.5;"/>
    </g>
    <g id="line2d_80">
     <g>
      <use style="fill:#242424;stroke:#242424;" x="289.648931" xlink:href="#m077c6d62cd" y="66.494346"/>
     </g>
    </g>
    <g id="text_34">
     <!-- 5 -->
     <g style="fill:#262626;" transform="translate(307.648931 69.994346)scale(0.1 -0.1)">
      <use transform="scale(0.996264)" xlink:href="#CMR17-53"/>
     </g>
    </g>
    <g id="line2d_81">
     <path d="M 279.648931 81.172471 
L 299.648931 81.172471 
" style="fill:none;stroke:#494949;stroke-linecap:round;stroke-width:1.5;"/>
    </g>
    <g id="line2d_82">
     <g>
      <use style="fill:#494949;stroke:#494949;" x="289.648931" xlink:href="#m65f63ddc44" y="81.172471"/>
     </g>
    </g>
    <g id="text_35">
     <!-- 4 -->
     <g style="fill:#262626;" transform="translate(307.648931 84.672471)scale(0.1 -0.1)">
      <use transform="scale(0.996264)" xlink:href="#CMR17-52"/>
     </g>
    </g>
    <g id="line2d_83">
     <path d="M 279.648931 95.850596 
L 299.648931 95.850596 
" style="fill:none;stroke:#6d6d6d;stroke-linecap:round;stroke-width:1.5;"/>
    </g>
    <g id="line2d_84">
     <g>
      <use style="fill:#6d6d6d;stroke:#6d6d6d;" x="289.648931" xlink:href="#m6f362bd8df" y="95.850596"/>
     </g>
    </g>
    <g id="text_36">
     <!-- 3 -->
     <g style="fill:#262626;" transform="translate(307.648931 99.350596)scale(0.1 -0.1)">
      <use transform="scale(0.996264)" xlink:href="#CMR17-51"/>
     </g>
    </g>
    <g id="line2d_85">
     <path d="M 279.648931 110.528721 
L 299.648931 110.528721 
" style="fill:none;stroke:#929292;stroke-linecap:round;stroke-width:1.5;"/>
    </g>
    <g id="line2d_86">
     <g>
      <use style="fill:#929292;stroke:#929292;" x="289.648931" xlink:href="#mb71767b88a" y="110.528721"/>
     </g>
    </g>
    <g id="text_37">
     <!-- 2 -->
     <g style="fill:#262626;" transform="translate(307.648931 114.028721)scale(0.1 -0.1)">
      <use transform="scale(0.996264)" xlink:href="#CMR17-50"/>
     </g>
    </g>
    <g id="line2d_87">
     <path d="M 279.648931 125.206846 
L 299.648931 125.206846 
" style="fill:none;stroke:#b6b6b6;stroke-linecap:round;stroke-width:1.5;"/>
    </g>
    <g id="line2d_88">
     <g>
      <use style="fill:#b6b6b6;stroke:#b6b6b6;" x="289.648931" xlink:href="#mbfff520b52" y="125.206846"/>
     </g>
    </g>
    <g id="text_38">
     <!-- 1 -->
     <g style="fill:#262626;" transform="translate(307.648931 128.706846)scale(0.1 -0.1)">
      <use transform="scale(0.996264)" xlink:href="#CMR17-49"/>
     </g>
    </g>
    <g id="line2d_89">
     <path d="M 279.648931 139.884971 
L 299.648931 139.884971 
" style="fill:none;stroke:#dbdbdb;stroke-linecap:round;stroke-width:1.5;"/>
    </g>
    <g id="line2d_90">
     <g>
      <use style="fill:#dbdbdb;stroke:#dbdbdb;" x="289.648931" xlink:href="#m959a432e76" y="139.884971"/>
     </g>
    </g>
    <g id="text_39">
     <!-- 0 -->
     <g style="fill:#262626;" transform="translate(307.648931 143.384971)scale(0.1 -0.1)">
      <use transform="scale(0.996264)" xlink:href="#CMR17-48"/>
     </g>
    </g>
   </g>
  </g>
  <g id="axes_4">
   <g id="patch_20">
    <path d="M 338.543737 189.344323 
L 417.036305 189.344323 
L 417.036305 38.717784 
L 338.543737 38.717784 
z
" style="fill:#ffffff;"/>
   </g>
   <g id="matplotlib.axis_7">
    <g id="xtick_9">
     <g id="text_40">
      <!-- S2 -->
      <g style="fill:#262626;" transform="translate(336.853505 203.262822)scale(0.1 -0.1)">
       <use transform="scale(0.996264)" xlink:href="#CMR17-83"/>
       <use transform="translate(50.89537 0)scale(0.996264)" xlink:href="#CMR17-50"/>
      </g>
     </g>
    </g>
    <g id="xtick_10">
     <g id="text_41">
      <!-- Se2 -->
      <g style="fill:#262626;" transform="translate(405.996466 203.262822)scale(0.1 -0.1)">
       <use transform="scale(0.996264)" xlink:href="#CMR17-83"/>
       <use transform="translate(50.89537 0)scale(0.996264)" xlink:href="#CMR17-101"/>
       <use transform="translate(91.38103 0)scale(0.996264)" xlink:href="#CMR17-50"/>
      </g>
     </g>
    </g>
   </g>
   <g id="matplotlib.axis_8">
    <g id="ytick_19">
     <g id="line2d_91">
      <path clip-path="url(#pa92f972b45)" d="M 338.543737 187.867593 
L 417.036305 187.867593 
" style="fill:none;stroke:#cccccc;stroke-linecap:round;stroke-width:0.8;"/>
     </g>
    </g>
    <g id="ytick_20">
     <g id="line2d_92">
      <path clip-path="url(#pa92f972b45)" d="M 338.543737 158.332977 
L 417.036305 158.332977 
" style="fill:none;stroke:#cccccc;stroke-linecap:round;stroke-width:0.8;"/>
     </g>
    </g>
    <g id="ytick_21">
     <g id="line2d_93">
      <path clip-path="url(#pa92f972b45)" d="M 338.543737 128.798361 
L 417.036305 128.798361 
" style="fill:none;stroke:#cccccc;stroke-linecap:round;stroke-width:0.8;"/>
     </g>
    </g>
    <g id="ytick_22">
     <g id="line2d_94">
      <path clip-path="url(#pa92f972b45)" d="M 338.543737 99.263746 
L 417.036305 99.263746 
" style="fill:none;stroke:#cccccc;stroke-linecap:round;stroke-width:0.8;"/>
     </g>
    </g>
    <g id="ytick_23">
     <g id="line2d_95">
      <path clip-path="url(#pa92f972b45)" d="M 338.543737 69.72913 
L 417.036305 69.72913 
" style="fill:none;stroke:#cccccc;stroke-linecap:round;stroke-width:0.8;"/>
     </g>
    </g>
    <g id="ytick_24">
     <g id="line2d_96">
      <path clip-path="url(#pa92f972b45)" d="M 338.543737 40.194515 
L 417.036305 40.194515 
" style="fill:none;stroke:#cccccc;stroke-linecap:round;stroke-width:0.8;"/>
     </g>
    </g>
   </g>
   <g id="line2d_97">
    <path clip-path="url(#pa92f972b45)" d="M 342.111581 187.867593 
L 413.468461 187.867593 
" style="fill:none;stroke:#dbdbdb;stroke-linecap:round;stroke-width:1.5;"/>
    <g clip-path="url(#pa92f972b45)">
     <use style="fill:#dbdbdb;stroke:#ffffff;stroke-width:0.75;" x="342.111581" xlink:href="#m61ca51a9ba" y="187.867593"/>
     <use style="fill:#dbdbdb;stroke:#ffffff;stroke-width:0.75;" x="413.468461" xlink:href="#m61ca51a9ba" y="187.867593"/>
    </g>
   </g>
   <g id="line2d_98">
    <path clip-path="url(#pa92f972b45)" d="M 342.111581 178.339726 
L 413.468461 179.069231 
" style="fill:none;stroke:#b6b6b6;stroke-linecap:round;stroke-width:1.5;"/>
    <g clip-path="url(#pa92f972b45)">
     <use style="fill:#b6b6b6;stroke:#ffffff;stroke-width:0.75;" x="342.111581" xlink:href="#mc08b390f87" y="178.339726"/>
     <use style="fill:#b6b6b6;stroke:#ffffff;stroke-width:0.75;" x="413.468461" xlink:href="#mc08b390f87" y="179.069231"/>
    </g>
   </g>
   <g id="line2d_99">
    <path clip-path="url(#pa92f972b45)" d="M 342.111581 159.236736 
L 413.468461 161.369135 
" style="fill:none;stroke:#929292;stroke-linecap:round;stroke-width:1.5;"/>
    <g clip-path="url(#pa92f972b45)">
     <use style="fill:#929292;stroke:#ffffff;stroke-width:0.75;" x="342.111581" xlink:href="#mdfcaac0bc6" y="159.236736"/>
     <use style="fill:#929292;stroke:#ffffff;stroke-width:0.75;" x="413.468461" xlink:href="#mdfcaac0bc6" y="161.369135"/>
    </g>
   </g>
   <g id="line2d_100">
    <path clip-path="url(#pa92f972b45)" d="M 342.111581 130.484788 
L 413.468461 134.693471 
" style="fill:none;stroke:#6d6d6d;stroke-linecap:round;stroke-width:1.5;"/>
    <g clip-path="url(#pa92f972b45)">
     <use style="fill:#6d6d6d;stroke:#ffffff;stroke-width:0.75;" x="342.111581" xlink:href="#meb5e59f617" y="130.484788"/>
     <use style="fill:#6d6d6d;stroke:#ffffff;stroke-width:0.75;" x="413.468461" xlink:href="#meb5e59f617" y="134.693471"/>
    </g>
   </g>
   <g id="line2d_101">
    <path clip-path="url(#pa92f972b45)" d="M 342.111581 92.157717 
L 413.468461 99.13084 
" style="fill:none;stroke:#494949;stroke-linecap:round;stroke-width:1.5;"/>
    <g clip-path="url(#pa92f972b45)">
     <use style="fill:#494949;stroke:#ffffff;stroke-width:0.75;" x="342.111581" xlink:href="#m4d30c44955" y="92.157717"/>
     <use style="fill:#494949;stroke:#ffffff;stroke-width:0.75;" x="413.468461" xlink:href="#m4d30c44955" y="99.13084"/>
    </g>
   </g>
   <g id="line2d_102">
    <path clip-path="url(#pa92f972b45)" d="M 342.111581 44.568591 
L 413.468461 54.743266 
" style="fill:none;stroke:#242424;stroke-linecap:round;stroke-width:1.5;"/>
    <g clip-path="url(#pa92f972b45)">
     <use style="fill:#242424;stroke:#ffffff;stroke-width:0.75;" x="342.111581" xlink:href="#m2b013586a9" y="44.568591"/>
     <use style="fill:#242424;stroke:#ffffff;stroke-width:0.75;" x="413.468461" xlink:href="#m2b013586a9" y="54.743266"/>
    </g>
   </g>
   <g id="line2d_103"/>
   <g id="line2d_104"/>
   <g id="line2d_105"/>
   <g id="line2d_106"/>
   <g id="line2d_107"/>
   <g id="line2d_108"/>
   <g id="patch_21">
    <path d="M 338.543737 189.344323 
L 338.543737 38.717784 
" style="fill:none;stroke:#262626;stroke-linecap:square;stroke-linejoin:miter;stroke-width:0.8;"/>
   </g>
   <g id="patch_22">
    <path d="M 417.036305 189.344323 
L 417.036305 38.717784 
" style="fill:none;stroke:#262626;stroke-linecap:square;stroke-linejoin:miter;stroke-width:0.8;"/>
   </g>
   <g id="patch_23">
    <path d="M 338.543737 189.344323 
L 417.036305 189.344323 
" style="fill:none;stroke:#262626;stroke-linecap:square;stroke-linejoin:miter;stroke-width:0.8;"/>
   </g>
   <g id="patch_24">
    <path d="M 338.543737 38.717784 
L 417.036305 38.717784 
" style="fill:none;stroke:#262626;stroke-linecap:square;stroke-linejoin:miter;stroke-width:0.8;"/>
   </g>
   <g id="text_42">
    <!-- d) CAS(22,16) -->
    <g style="fill:#262626;" transform="translate(340.560575 19.766376)scale(0.12 -0.12)">
     <defs>
      <path d="M 29.203125 67.890625 
L 29.203125 65.296875 
C 35.09375 65.296875 36 64.703125 36 60.046875 
L 36 37.046875 
C 35.59375 37.546875 31.5 44 23.40625 44 
C 13.203125 44 3.296875 34.8125 3.296875 21.5 
C 3.296875 8.265625 12.59375 -1 22.40625 -1 
C 30.90625 -1 35.296875 5.640625 35.796875 6.34375 
L 35.796875 -1 
L 47.90625 -0.203125 
L 47.90625 2.40625 
C 42 2.40625 41.09375 3.015625 41.09375 7.859375 
L 41.09375 69 
z
M 35.796875 11.90625 
C 35.796875 8.875 34 6.140625 31.703125 4.125 
C 28.296875 1.09375 24.90625 0.59375 23 0.59375 
C 20.09375 0.59375 9.703125 2.109375 9.703125 21.390625 
C 9.703125 41.1875 21.296875 42.390625 23.90625 42.390625 
C 28.5 42.390625 32.203125 39.765625 34.5 36.140625 
C 35.796875 34.015625 35.796875 33.703125 35.796875 31.890625 
z
" id="CMR17-100"/>
     </defs>
     <use transform="scale(0.996264)" xlink:href="#CMR17-100"/>
     <use transform="translate(50.89537 0)scale(0.996264)" xlink:href="#CMR17-41"/>
     <use transform="translate(116.252104 0)scale(0.996264)" xlink:href="#CMR17-67"/>
     <use transform="translate(182.761984 0)scale(0.996264)" xlink:href="#CMR17-65"/>
     <use transform="translate(251.834414 0)scale(0.996264)" xlink:href="#CMR17-83"/>
     <use transform="translate(302.729784 0)scale(0.996264)" xlink:href="#CMR17-40"/>
     <use transform="translate(338.010552 0)scale(0.996264)" xlink:href="#CMR17-50"/>
     <use transform="translate(383.701029 0)scale(0.996264)" xlink:href="#CMR17-50"/>
     <use transform="translate(429.391506 0)scale(0.996264)" xlink:href="#CMR17-44"/>
     <use transform="translate(454.262565 0)scale(0.996264)" xlink:href="#CMR17-49"/>
     <use transform="translate(499.953042 0)scale(0.996264)" xlink:href="#CMR17-54"/>
     <use transform="translate(545.643519 0)scale(0.996264)" xlink:href="#CMR17-41"/>
    </g>
    <!-- +NEVPT2 -->
    <g style="fill:#262626;" transform="translate(349.344203 32.717784)scale(0.12 -0.12)">
     <use transform="scale(0.996264)" xlink:href="#CMR17-43"/>
     <use transform="translate(71.714788 0)scale(0.996264)" xlink:href="#CMR17-78"/>
     <use transform="translate(140.787218 0)scale(0.996264)" xlink:href="#CMR17-69"/>
     <use transform="translate(203.373519 0)scale(0.996264)" xlink:href="#CMR17-86"/>
     <use transform="translate(272.445949 0)scale(0.996264)" xlink:href="#CMR17-80"/>
     <use transform="translate(335.032249 0)scale(0.996264)" xlink:href="#CMR17-84"/>
     <use transform="translate(401.54213 0)scale(0.996264)" xlink:href="#CMR17-50"/>
    </g>
   </g>
   <g id="legend_4">
    <g id="patch_25">
     <path d="M 373.05497 149.32215 
L 410.036305 149.32215 
Q 412.036305 149.32215 412.036305 147.32215 
L 412.036305 45.717784 
Q 412.036305 43.717784 410.036305 43.717784 
L 373.05497 43.717784 
Q 371.05497 43.717784 371.05497 45.717784 
L 371.05497 147.32215 
Q 371.05497 149.32215 373.05497 149.32215 
z
" style="fill:#ffffff;opacity:0.8;stroke:#cccccc;stroke-linejoin:miter;"/>
    </g>
    <g id="text_43">
     <!-- $S=$ -->
     <g style="fill:#262626;" transform="translate(382.945974 55.316221)scale(0.1 -0.1)">
      <use transform="scale(0.996264)" xlink:href="#CMMI12-83"/>
      <use transform="translate(93.468448 0)scale(0.996264)" xlink:href="#CMR17-61"/>
     </g>
    </g>
    <g id="line2d_109">
     <path d="M 375.05497 66.494346 
L 395.05497 66.494346 
" style="fill:none;stroke:#242424;stroke-linecap:round;stroke-width:1.5;"/>
    </g>
    <g id="line2d_110">
     <g>
      <use style="fill:#242424;stroke:#242424;" x="385.05497" xlink:href="#m077c6d62cd" y="66.494346"/>
     </g>
    </g>
    <g id="text_44">
     <!-- 5 -->
     <g style="fill:#262626;" transform="translate(403.05497 69.994346)scale(0.1 -0.1)">
      <use transform="scale(0.996264)" xlink:href="#CMR17-53"/>
     </g>
    </g>
    <g id="line2d_111">
     <path d="M 375.05497 81.172471 
L 395.05497 81.172471 
" style="fill:none;stroke:#494949;stroke-linecap:round;stroke-width:1.5;"/>
    </g>
    <g id="line2d_112">
     <g>
      <use style="fill:#494949;stroke:#494949;" x="385.05497" xlink:href="#m65f63ddc44" y="81.172471"/>
     </g>
    </g>
    <g id="text_45">
     <!-- 4 -->
     <g style="fill:#262626;" transform="translate(403.05497 84.672471)scale(0.1 -0.1)">
      <use transform="scale(0.996264)" xlink:href="#CMR17-52"/>
     </g>
    </g>
    <g id="line2d_113">
     <path d="M 375.05497 95.850596 
L 395.05497 95.850596 
" style="fill:none;stroke:#6d6d6d;stroke-linecap:round;stroke-width:1.5;"/>
    </g>
    <g id="line2d_114">
     <g>
      <use style="fill:#6d6d6d;stroke:#6d6d6d;" x="385.05497" xlink:href="#m6f362bd8df" y="95.850596"/>
     </g>
    </g>
    <g id="text_46">
     <!-- 3 -->
     <g style="fill:#262626;" transform="translate(403.05497 99.350596)scale(0.1 -0.1)">
      <use transform="scale(0.996264)" xlink:href="#CMR17-51"/>
     </g>
    </g>
    <g id="line2d_115">
     <path d="M 375.05497 110.528721 
L 395.05497 110.528721 
" style="fill:none;stroke:#929292;stroke-linecap:round;stroke-width:1.5;"/>
    </g>
    <g id="line2d_116">
     <g>
      <use style="fill:#929292;stroke:#929292;" x="385.05497" xlink:href="#mb71767b88a" y="110.528721"/>
     </g>
    </g>
    <g id="text_47">
     <!-- 2 -->
     <g style="fill:#262626;" transform="translate(403.05497 114.028721)scale(0.1 -0.1)">
      <use transform="scale(0.996264)" xlink:href="#CMR17-50"/>
     </g>
    </g>
    <g id="line2d_117">
     <path d="M 375.05497 125.206846 
L 395.05497 125.206846 
" style="fill:none;stroke:#b6b6b6;stroke-linecap:round;stroke-width:1.5;"/>
    </g>
    <g id="line2d_118">
     <g>
      <use style="fill:#b6b6b6;stroke:#b6b6b6;" x="385.05497" xlink:href="#mbfff520b52" y="125.206846"/>
     </g>
    </g>
    <g id="text_48">
     <!-- 1 -->
     <g style="fill:#262626;" transform="translate(403.05497 128.706846)scale(0.1 -0.1)">
      <use transform="scale(0.996264)" xlink:href="#CMR17-49"/>
     </g>
    </g>
    <g id="line2d_119">
     <path d="M 375.05497 139.884971 
L 395.05497 139.884971 
" style="fill:none;stroke:#dbdbdb;stroke-linecap:round;stroke-width:1.5;"/>
    </g>
    <g id="line2d_120">
     <g>
      <use style="fill:#dbdbdb;stroke:#dbdbdb;" x="385.05497" xlink:href="#m959a432e76" y="139.884971"/>
     </g>
    </g>
    <g id="text_49">
     <!-- 0 -->
     <g style="fill:#262626;" transform="translate(403.05497 143.384971)scale(0.1 -0.1)">
      <use transform="scale(0.996264)" xlink:href="#CMR17-48"/>
     </g>
    </g>
   </g>
  </g>
 </g>
 <defs>
  <clipPath id="p4ffec38b5f">
   <rect height="150.626539" width="78.492568" x="52.32562" y="38.717784"/>
  </clipPath>
  <clipPath id="p91e633fd85">
   <rect height="150.626539" width="78.492568" x="147.731659" y="38.717784"/>
  </clipPath>
  <clipPath id="p0438842df8">
   <rect height="150.626539" width="78.492568" x="243.137698" y="38.717784"/>
  </clipPath>
  <clipPath id="pa92f972b45">
   <rect height="150.626539" width="78.492568" x="338.543737" y="38.717784"/>
  </clipPath>
 </defs>
</svg>
