<?xml version="1.0" encoding="utf-8" standalone="no"?>
<!DOCTYPE svg PUBLIC "-//W3C//DTD SVG 1.1//EN"
  "http://www.w3.org/Graphics/SVG/1.1/DTD/svg11.dtd">
<!-- Created with matplotlib (https://matplotlib.org/) -->
<svg height="216pt" version="1.1" viewBox="0 0 360 216" width="360pt" xmlns="http://www.w3.org/2000/svg" xmlns:xlink="http://www.w3.org/1999/xlink">
 <metadata>
  <rdf:RDF xmlns:cc="http://creativecommons.org/ns#" xmlns:dc="http://purl.org/dc/elements/1.1/" xmlns:rdf="http://www.w3.org/1999/02/22-rdf-syntax-ns#">
   <cc:Work>
    <dc:type rdf:resource="http://purl.org/dc/dcmitype/StillImage"/>
    <dc:date>2022-04-15T20:29:40.033869</dc:date>
    <dc:format>image/svg+xml</dc:format>
    <dc:creator>
     <cc:Agent>
      <dc:title>Matplotlib v3.3.4, https://matplotlib.org/</dc:title>
     </cc:Agent>
    </dc:creator>
   </cc:Work>
  </rdf:RDF>
 </metadata>
 <defs>
  <style type="text/css">*{stroke-linecap:butt;stroke-linejoin:round;}</style>
 </defs>
 <g id="figure_1">
  <g id="patch_1">
   <path d="M 0 216 
L 360 216 
L 360 0 
L 0 0 
z
" style="fill:#ffffff;"/>
  </g>
  <g id="axes_1">
   <g id="patch_2">
    <path d="M 52.32562 176.488647 
L 166.75 176.488647 
L 166.75 25.766376 
L 52.32562 25.766376 
z
" style="fill:#ffffff;"/>
   </g>
   <g id="matplotlib.axis_1">
    <g id="xtick_1">
     <g id="text_1">
      <!-- 0 -->
      <g style="fill:#262626;" transform="translate(55.03606 190.407145)scale(0.1 -0.1)">
       <defs>
        <path d="M 42 31.84375 
C 42 37.96875 41.90625 48.421875 37.703125 56.453125 
C 34 63.484375 28.09375 66 22.90625 66 
C 18.09375 66 12 63.78125 8.203125 56.5625 
C 4.203125 49.015625 3.796875 39.671875 3.796875 31.84375 
C 3.796875 26.109375 3.90625 17.375 7 9.734375 
C 11.296875 -0.609375 19 -2 22.90625 -2 
C 27.5 -2 34.5 -0.109375 38.59375 9.4375 
C 41.59375 16.375 42 24.5 42 31.84375 
z
M 22.90625 -0.40625 
C 16.5 -0.40625 12.703125 5.125 11.296875 12.75 
C 10.203125 18.6875 10.203125 27.328125 10.203125 32.953125 
C 10.203125 40.6875 10.203125 47.109375 11.5 53.234375 
C 13.40625 61.78125 19 64.390625 22.90625 64.390625 
C 27 64.390625 32.296875 61.671875 34.203125 53.4375 
C 35.5 47.71875 35.59375 40.984375 35.59375 32.953125 
C 35.59375 26.421875 35.59375 18.375 34.40625 12.453125 
C 32.296875 1.5 26.40625 -0.40625 22.90625 -0.40625 
z
" id="CMR17-48"/>
       </defs>
       <use transform="scale(0.996264)" xlink:href="#CMR17-48"/>
      </g>
     </g>
    </g>
    <g id="xtick_2">
     <g id="text_2">
      <!-- 1 -->
      <g style="fill:#262626;" transform="translate(75.840493 190.407145)scale(0.1 -0.1)">
       <defs>
        <path d="M 26.59375 63.796875 
C 26.59375 65.890625 26.5 66 25.09375 66 
C 21.203125 61.359375 15.296875 59.890625 9.703125 59.6875 
C 9.40625 59.6875 8.90625 59.6875 8.796875 59.5 
C 8.703125 59.296875 8.703125 59.09375 8.703125 57 
C 11.796875 57 17 57.59375 21 59.984375 
L 21 7.296875 
C 21 3.796875 20.796875 2.59375 12.203125 2.59375 
L 9.203125 2.59375 
L 9.203125 0 
C 14 0.09375 19 0.1875 23.796875 0.1875 
C 28.59375 0.1875 33.59375 0.09375 38.40625 0 
L 38.40625 2.59375 
L 35.40625 2.59375 
C 26.796875 2.59375 26.59375 3.6875 26.59375 7.296875 
z
" id="CMR17-49"/>
       </defs>
       <use transform="scale(0.996264)" xlink:href="#CMR17-49"/>
      </g>
     </g>
    </g>
    <g id="xtick_3">
     <g id="text_3">
      <!-- 2 -->
      <g style="fill:#262626;" transform="translate(96.644926 190.407145)scale(0.1 -0.1)">
       <defs>
        <path d="M 41.703125 15.46875 
L 39.90625 15.46875 
C 38.90625 8.390625 38.09375 7.1875 37.703125 6.59375 
C 37.203125 5.796875 30 5.796875 28.59375 5.796875 
L 9.40625 5.796875 
C 13 9.6875 20 16.765625 28.5 24.9375 
C 34.59375 30.71875 41.703125 37.5 41.703125 47.390625 
C 41.703125 59.1875 32.296875 66 21.796875 66 
C 10.796875 66 4.09375 56.296875 4.09375 47.296875 
C 4.09375 43.390625 7 42.890625 8.203125 42.890625 
C 9.203125 42.890625 12.203125 43.484375 12.203125 46.984375 
C 12.203125 50.09375 9.59375 51 8.203125 51 
C 7.59375 51 7 50.890625 6.59375 50.6875 
C 8.5 59.1875 14.296875 63.390625 20.40625 63.390625 
C 29.09375 63.390625 34.796875 56.5 34.796875 47.390625 
C 34.796875 38.703125 29.703125 31.21875 24 24.734375 
L 4.09375 2.296875 
L 4.09375 0 
L 39.296875 0 
z
" id="CMR17-50"/>
       </defs>
       <use transform="scale(0.996264)" xlink:href="#CMR17-50"/>
      </g>
     </g>
    </g>
    <g id="xtick_4">
     <g id="text_4">
      <!-- 3 -->
      <g style="fill:#262626;" transform="translate(117.449359 190.407145)scale(0.1 -0.1)">
       <defs>
        <path d="M 22.09375 34 
C 31 34 34.90625 26.140625 34.90625 17.09375 
C 34.90625 5.03125 28.5 0.390625 22.703125 0.390625 
C 17.40625 0.390625 8.796875 3.015625 6.09375 10.796875 
C 6.59375 10.59375 7.09375 10.59375 7.59375 10.59375 
C 10 10.59375 11.796875 12.1875 11.796875 14.796875 
C 11.796875 17.6875 9.59375 19 7.59375 19 
C 5.90625 19 3.296875 18.1875 3.296875 14.484375 
C 3.296875 5.234375 12.296875 -2 22.90625 -2 
C 34 -2 42.5 6.75 42.5 16.984375 
C 42.5 26.84375 34.5 34 25 35.09375 
C 32.59375 36.671875 39.90625 43.375 39.90625 52.390625 
C 39.90625 60.25 32 66 23 66 
C 13.90625 66 5.90625 60.34375 5.90625 52.296875 
C 5.90625 48.796875 8.5 48.1875 9.796875 48.1875 
C 11.90625 48.1875 13.703125 49.484375 13.703125 52.09375 
C 13.703125 54.6875 11.90625 56 9.796875 56 
C 9.40625 56 8.90625 56 8.5 55.796875 
C 11.40625 62.484375 19.296875 63.6875 22.796875 63.6875 
C 26.296875 63.6875 32.90625 61.96875 32.90625 52.296875 
C 32.90625 49.484375 32.5 44.546875 29.09375 40.21875 
C 26.09375 36.390625 22.703125 36.1875 19.40625 35.890625 
C 18.90625 35.890625 16.59375 35.6875 16.203125 35.6875 
C 15.5 35.59375 15.09375 35.5 15.09375 34.796875 
C 15.09375 34.09375 15.203125 34 17.203125 34 
z
" id="CMR17-51"/>
       </defs>
       <use transform="scale(0.996264)" xlink:href="#CMR17-51"/>
      </g>
     </g>
    </g>
    <g id="xtick_5">
     <g id="text_5">
      <!-- 4 -->
      <g style="fill:#262626;" transform="translate(138.253791 190.407145)scale(0.1 -0.1)">
       <defs>
        <path d="M 33.59375 64.796875 
C 33.59375 66.890625 33.5 67 31.703125 67 
L 2 19.59375 
L 2 17 
L 27.796875 17 
L 27.796875 7.1875 
C 27.796875 3.59375 27.59375 2.59375 20.59375 2.59375 
L 18.703125 2.59375 
L 18.703125 0 
C 21.90625 0.1875 27.296875 0.1875 30.703125 0.1875 
C 34.09375 0.1875 39.5 0.1875 42.703125 0 
L 42.703125 2.59375 
L 40.796875 2.59375 
C 33.796875 2.59375 33.59375 3.59375 33.59375 7.1875 
L 33.59375 17 
L 43.796875 17 
L 43.796875 19.59375 
L 33.59375 19.59375 
z
M 28.09375 58.171875 
L 28.09375 19.59375 
L 4 19.59375 
z
" id="CMR17-52"/>
       </defs>
       <use transform="scale(0.996264)" xlink:href="#CMR17-52"/>
      </g>
     </g>
    </g>
    <g id="xtick_6">
     <g id="text_6">
      <!-- 5 -->
      <g style="fill:#262626;" transform="translate(159.058224 190.407145)scale(0.1 -0.1)">
       <defs>
        <path d="M 11.40625 58.59375 
C 12.40625 58.1875 16.5 56.890625 20.703125 56.890625 
C 30 56.890625 35.09375 61.890625 38 64.6875 
C 38 65.484375 38 66 37.40625 66 
C 37.296875 66 37.09375 66 36.296875 65.59375 
C 32.796875 64.09375 28.703125 63 23.703125 63 
C 20.703125 63 16.203125 63.359375 11.296875 65.484375 
C 10.203125 66 10 66 9.90625 66 
C 9.40625 66 9.296875 65.890625 9.296875 63.90625 
L 9.296875 34.859375 
C 9.296875 33.015625 9.296875 32.5 10.296875 32.5 
C 10.796875 32.5 11 32.703125 11.5 33.421875 
C 14.703125 38.046875 19.09375 40 24.09375 40 
C 27.59375 40 35.09375 37.734375 35.09375 20.203125 
C 35.09375 16.984375 35.09375 11.1875 32.09375 6.59375 
C 29.59375 2.484375 25.703125 0.390625 21.40625 0.390625 
C 14.796875 0.390625 8.09375 4.984375 6.296875 12.6875 
C 6.703125 12.59375 7.5 12.390625 7.90625 12.390625 
C 9.203125 12.390625 11.703125 13.09375 11.703125 16.1875 
C 11.703125 18.890625 9.796875 20 7.90625 20 
C 5.59375 20 4.09375 18.59375 4.09375 15.796875 
C 4.09375 7.09375 11 -2 21.59375 -2 
C 31.90625 -2 41.703125 6.890625 41.703125 19.796875 
C 41.703125 32.09375 33.90625 41.59375 24.203125 41.59375 
C 19.09375 41.59375 14.796875 39.6875 11.40625 36 
z
" id="CMR17-53"/>
       </defs>
       <use transform="scale(0.996264)" xlink:href="#CMR17-53"/>
      </g>
     </g>
    </g>
    <g id="text_7">
     <!-- spin state $S$ -->
     <g style="fill:#262626;" transform="translate(83.735232 203.262822)scale(0.1 -0.1)">
      <defs>
       <path d="M 30.90625 42 
C 30.90625 43.796875 30.796875 43.890625 30.203125 43.890625 
C 29.796875 43.890625 29.703125 43.796875 28.5 42.296875 
C 28.203125 41.890625 27.296875 40.890625 27 40.5 
C 23.796875 43.890625 19.296875 44 17.59375 44 
C 6.5 44 2.5 38.1875 2.5 32.390625 
C 2.5 23.390625 12.703125 21.296875 15.59375 20.6875 
C 21.90625 19.390625 24.09375 19 26.203125 17.1875 
C 27.5 16 29.703125 13.796875 29.703125 10.1875 
C 29.703125 6 27.296875 0.59375 18.09375 0.59375 
C 9.40625 0.59375 6.296875 7.1875 4.5 16 
C 4.203125 17.390625 4.203125 17.5 3.40625 17.5 
C 2.59375 17.5 2.5 17.390625 2.5 15.390625 
L 2.5 1 
C 2.5 -0.8125 2.59375 -0.90625 3.203125 -0.90625 
C 3.703125 -0.90625 3.796875 -0.8125 4.296875 0 
C 4.90625 0.890625 6.40625 3.296875 7 4.296875 
C 9 1.59375 12.5 -1 18.09375 -1 
C 28 -1 33.296875 4.390625 33.296875 12.1875 
C 33.296875 17.296875 30.59375 20 29.296875 21.1875 
C 26.296875 24.296875 22.796875 25 18.59375 25.796875 
C 13.09375 27 6.09375 28.390625 6.09375 34.5 
C 6.09375 37.09375 7.5 42.59375 17.59375 42.59375 
C 28.296875 42.59375 28.90625 32.59375 29.09375 29.390625 
C 29.203125 28.890625 29.703125 28.796875 30 28.796875 
C 30.90625 28.796875 30.90625 29.09375 30.90625 30.796875 
z
" id="CMR17-115"/>
       <path d="M 22 -17.40625 
C 15.59375 -17.40625 15.203125 -17 15.203125 -13.03125 
L 15.203125 5.9375 
C 18.09375 1.703125 22.296875 -1 27.59375 -1 
C 37.59375 -1 47.703125 7.859375 47.703125 21.59375 
C 47.703125 34.3125 39 44 28.703125 44 
C 22.703125 44 17.796875 40.671875 15 36.640625 
L 15 44 
L 3.09375 42.890625 
L 3.09375 40.265625 
C 9 40.265625 9.90625 39.671875 9.90625 34.8125 
L 9.90625 -13.03125 
C 9.90625 -16.890625 9.5 -17.40625 3.09375 -17.40625 
L 3.09375 -20 
C 5.5 -19.8125 9.90625 -19.8125 12.5 -19.8125 
C 15.09375 -19.8125 19.59375 -19.8125 22 -20 
z
M 15.203125 31.484375 
C 15.203125 32.90625 15.203125 35.015625 19.09375 38.765625 
C 19.59375 39.15625 23 42.1875 28 42.1875 
C 35.296875 42.1875 41.296875 33 41.296875 21.5 
C 41.296875 9.984375 34.90625 0.59375 27 0.59375 
C 23.40625 0.59375 19.5 2.3125 16.5 7.046875 
C 15.203125 9.28125 15.203125 9.875 15.203125 11.5 
z
" id="CMR17-112"/>
       <path d="M 15.5 61.890625 
C 15.5 64.09375 13.703125 66 11.40625 66 
C 9.203125 66 7.296875 64.1875 7.296875 61.890625 
C 7.296875 59.6875 9.09375 57.796875 11.40625 57.796875 
C 13.59375 57.796875 15.5 59.59375 15.5 61.890625 
z
M 3.796875 42.890625 
L 3.796875 40.296875 
C 9.40625 40.296875 10.203125 39.6875 10.203125 34.859375 
L 10.203125 6.921875 
C 10.203125 3.09375 9.796875 2.59375 3.40625 2.59375 
L 3.40625 0 
C 5.796875 0.1875 10.09375 0.1875 12.59375 0.1875 
C 15 0.1875 19.09375 0.1875 21.40625 0 
L 21.40625 2.59375 
C 15.5 2.59375 15.296875 3.203125 15.296875 6.8125 
L 15.296875 44 
z
" id="CMR17-105"/>
       <path d="M 41.5 30.53125 
C 41.5 35.65625 40.5 44 28.703125 44 
C 20.796875 44 16.703125 37.875 15.203125 33.84375 
L 15.09375 33.84375 
L 15.09375 44 
L 3.296875 42.890625 
L 3.296875 40.28125 
C 9.203125 40.28125 10.09375 39.6875 10.09375 34.859375 
L 10.09375 6.921875 
C 10.09375 3.09375 9.703125 2.59375 3.296875 2.59375 
L 3.296875 0 
C 5.703125 0.1875 10.09375 0.1875 12.703125 0.1875 
C 15.296875 0.1875 19.796875 0.1875 22.203125 0 
L 22.203125 2.59375 
C 15.796875 2.59375 15.40625 3 15.40625 6.921875 
L 15.40625 26.21875 
C 15.40625 35.453125 21 42.390625 28 42.390625 
C 35.40625 42.390625 36.203125 35.765625 36.203125 30.9375 
L 36.203125 6.921875 
C 36.203125 3.09375 35.796875 2.59375 29.40625 2.59375 
L 29.40625 0 
C 31.796875 0.1875 36.203125 0.1875 38.796875 0.1875 
C 41.40625 0.1875 45.90625 0.1875 48.296875 0 
L 48.296875 2.59375 
C 41.90625 2.59375 41.5 3 41.5 6.921875 
z
" id="CMR17-110"/>
       <path d="M 15.09375 40.390625 
L 29.09375 40.390625 
L 29.09375 43 
L 15.09375 43 
L 15.09375 62 
L 13.296875 62 
C 13.09375 51.4375 9.59375 42.1875 1.09375 41.984375 
L 1.09375 40.390625 
L 9.796875 40.390625 
L 9.796875 12.15625 
C 9.796875 10.234375 9.796875 -1 21.40625 -1 
C 27.296875 -1 30.703125 4.8125 30.703125 12.25 
L 30.703125 17.984375 
L 28.90625 17.984375 
L 28.90625 12.34375 
C 28.90625 5.421875 26.203125 0.796875 22 0.796875 
C 19.09375 0.796875 15.09375 2.796875 15.09375 11.953125 
z
" id="CMR17-116"/>
       <path d="M 36 25.875 
C 36 32 36 35.546875 31.796875 39.59375 
C 28.09375 42.984375 23.796875 44 20.40625 44 
C 12.5 44 6.796875 37.625 6.796875 30.890625 
C 6.796875 27.1875 9.796875 27 10.40625 27 
C 11.703125 27 14 27.796875 14 30.59375 
C 14 33.09375 12.09375 34.1875 10.40625 34.1875 
C 10 34.1875 9.5 34.09375 9.203125 34 
C 11.296875 40.53125 16.703125 42.390625 20.203125 42.390625 
C 25.203125 42.390625 30.703125 37.828125 30.703125 29.296875 
L 30.703125 25.5 
C 24.796875 25.296875 17.703125 24.5 12.09375 21.453125 
C 5.796875 17.921875 4 12.84375 4 9 
C 4 1.203125 13 -1 18.296875 -1 
C 23.796875 -1 28.90625 2.109375 31.09375 7.890625 
C 31.296875 3.421875 34.09375 -0.609375 38.5 -0.609375 
C 40.59375 -0.609375 45.90625 0.796875 45.90625 8.796875 
L 45.90625 14.46875 
L 44.09375 14.46875 
L 44.09375 8.703125 
C 44.09375 2.515625 41.40625 1.703125 40.09375 1.703125 
C 36 1.703125 36 6.96875 36 11.4375 
z
M 30.703125 13.859375 
C 30.703125 5.046875 24.5 0.59375 19 0.59375 
C 14 0.59375 10.09375 4.34375 10.09375 9 
C 10.09375 12.046875 11.40625 17.40625 17.203125 20.65625 
C 22 23.390625 27.5 23.796875 30.703125 24 
z
" id="CMR17-97"/>
       <path d="M 38.09375 23.484375 
C 38.5 23.890625 38.5 24.09375 38.5 25.09375 
C 38.5 35.171875 33.09375 44 21.703125 44 
C 11.09375 44 2.703125 33.984375 2.703125 21.78125 
C 2.703125 8.65625 12.203125 -1 22.796875 -1 
C 34 -1 38.40625 9.671875 38.40625 11.796875 
C 38.40625 12.5 37.796875 12.5 37.59375 12.5 
C 36.90625 12.5 36.796875 12.296875 36.40625 11.078125 
C 34.203125 4.21875 28.703125 0.796875 23.5 0.796875 
C 19.203125 0.796875 14.90625 3.21875 12.203125 7.65625 
C 9.09375 12.796875 9.09375 18.75 9.09375 23.484375 
z
M 9.203125 25 
C 9.90625 39.234375 17.59375 42.390625 21.59375 42.390625 
C 28.40625 42.390625 33 36.0625 33.09375 25 
z
" id="CMR17-101"/>
       <path d="M 63.5 69.09375 
C 63.5 70 62.796875 70 62.59375 70 
C 62.203125 70 62.09375 69.890625 60.90625 68.390625 
C 60.296875 67.6875 56.203125 62.53125 56.09375 62.4375 
C 52.796875 68.890625 46.203125 70 42 70 
C 29.296875 70 17.796875 58.46875 17.796875 47.25 
C 17.796875 39.796875 22.296875 35.4375 27.203125 33.75 
C 28.296875 33.34375 34.203125 31.765625 37.203125 31.0625 
C 42.296875 29.671875 43.59375 29.28125 45.703125 27.09375 
C 46.09375 26.59375 48.09375 24.3125 48.09375 19.65625 
C 48.09375 10.421875 39.5 0.890625 29.5 0.890625 
C 21.296875 0.890625 12.203125 4.359375 12.203125 15.484375 
C 12.203125 17.375 12.59375 19.75 12.90625 20.75 
C 12.90625 21.046875 13 21.53125 13 21.734375 
C 13 22.140625 12.796875 22.625 12 22.625 
C 11.09375 22.625 11 22.4375 10.59375 20.75 
L 5.5 0.390625 
C 5.5 0.296875 5.09375 -1 5.09375 -1.109375 
C 5.09375 -2 5.90625 -2 6.09375 -2 
C 6.5 -2 6.59375 -1.90625 7.796875 -0.40625 
L 12.40625 5.5625 
C 14.796875 1.984375 20 -2 29.296875 -2 
C 42.203125 -2 54 10.421875 54 22.828125 
C 54 27 53 30.671875 49.203125 34.34375 
C 47.09375 36.421875 45.296875 36.921875 36.09375 39.3125 
C 29.40625 41.09375 28.5 41.390625 26.703125 42.984375 
C 25 44.671875 23.703125 47.046875 23.703125 50.421875 
C 23.703125 58.765625 32.203125 67.296875 41.703125 67.296875 
C 51.5 67.296875 56.09375 61.34375 56.09375 51.90625 
C 56.09375 49.328125 55.59375 46.65625 55.59375 46.25 
C 55.59375 45.359375 56.40625 45.359375 56.703125 45.359375 
C 57.59375 45.359375 57.703125 45.65625 58.09375 47.25 
z
" id="CMMI12-83"/>
      </defs>
      <use transform="scale(0.996264)" xlink:href="#CMR17-115"/>
      <use transform="translate(35.801338 0)scale(0.996264)" xlink:href="#CMR17-112"/>
      <use transform="translate(86.696707 0)scale(0.996264)" xlink:href="#CMR17-105"/>
      <use transform="translate(111.567766 0)scale(0.996264)" xlink:href="#CMR17-110"/>
      <use transform="translate(192.539102 0)scale(0.996264)" xlink:href="#CMR17-115"/>
      <use transform="translate(228.34044 0)scale(0.996264)" xlink:href="#CMR17-116"/>
      <use transform="translate(263.621207 0)scale(0.996264)" xlink:href="#CMR17-97"/>
      <use transform="translate(309.311685 0)scale(0.996264)" xlink:href="#CMR17-116"/>
      <use transform="translate(344.592452 0)scale(0.996264)" xlink:href="#CMR17-101"/>
      <use transform="translate(415.154079 0)scale(0.996264)" xlink:href="#CMMI12-83"/>
     </g>
    </g>
   </g>
   <g id="matplotlib.axis_2">
    <g id="ytick_1">
     <g id="line2d_1">
      <path clip-path="url(#pec24ffb1a4)" d="M 52.32562 169.637634 
L 166.75 169.637634 
" style="fill:none;stroke:#cccccc;stroke-linecap:round;stroke-width:0.8;"/>
     </g>
     <g id="text_8">
      <!-- $\mathdefault{0}$ -->
      <g style="fill:#262626;" transform="translate(40.344285 173.096883)scale(0.1 -0.1)">
       <use transform="scale(0.996264)" xlink:href="#CMR17-48"/>
      </g>
     </g>
    </g>
    <g id="ytick_2">
     <g id="line2d_2">
      <path clip-path="url(#pec24ffb1a4)" d="M 52.32562 133.458174 
L 166.75 133.458174 
" style="fill:none;stroke:#cccccc;stroke-linecap:round;stroke-width:0.8;"/>
     </g>
     <g id="text_9">
      <!-- $\mathdefault{1000}$ -->
      <g style="fill:#262626;" transform="translate(25.400279 136.917423)scale(0.1 -0.1)">
       <use transform="scale(0.996264)" xlink:href="#CMR17-49"/>
       <use transform="translate(45.690477 0)scale(0.996264)" xlink:href="#CMR17-48"/>
       <use transform="translate(91.380954 0)scale(0.996264)" xlink:href="#CMR17-48"/>
       <use transform="translate(137.071431 0)scale(0.996264)" xlink:href="#CMR17-48"/>
      </g>
     </g>
    </g>
    <g id="ytick_3">
     <g id="line2d_3">
      <path clip-path="url(#pec24ffb1a4)" d="M 52.32562 97.278713 
L 166.75 97.278713 
" style="fill:none;stroke:#cccccc;stroke-linecap:round;stroke-width:0.8;"/>
     </g>
     <g id="text_10">
      <!-- $\mathdefault{2000}$ -->
      <g style="fill:#262626;" transform="translate(25.400279 100.737962)scale(0.1 -0.1)">
       <use transform="scale(0.996264)" xlink:href="#CMR17-50"/>
       <use transform="translate(45.690477 0)scale(0.996264)" xlink:href="#CMR17-48"/>
       <use transform="translate(91.380954 0)scale(0.996264)" xlink:href="#CMR17-48"/>
       <use transform="translate(137.071431 0)scale(0.996264)" xlink:href="#CMR17-48"/>
      </g>
     </g>
    </g>
    <g id="ytick_4">
     <g id="line2d_4">
      <path clip-path="url(#pec24ffb1a4)" d="M 52.32562 61.099253 
L 166.75 61.099253 
" style="fill:none;stroke:#cccccc;stroke-linecap:round;stroke-width:0.8;"/>
     </g>
     <g id="text_11">
      <!-- $\mathdefault{3000}$ -->
      <g style="fill:#262626;" transform="translate(25.400279 64.558502)scale(0.1 -0.1)">
       <use transform="scale(0.996264)" xlink:href="#CMR17-51"/>
       <use transform="translate(45.690477 0)scale(0.996264)" xlink:href="#CMR17-48"/>
       <use transform="translate(91.380954 0)scale(0.996264)" xlink:href="#CMR17-48"/>
       <use transform="translate(137.071431 0)scale(0.996264)" xlink:href="#CMR17-48"/>
      </g>
     </g>
    </g>
    <g id="text_12">
     <!-- relative energies [\si{\wn}] -->
     <g style="fill:#262626;" transform="translate(18.909619 152.193042)rotate(-90)scale(0.1 -0.1)">
      <defs>
       <path d="M 15 23.703125 
C 15 33.34375 19.09375 42.390625 26.59375 42.390625 
C 27.296875 42.390625 28 42.296875 28.703125 41.984375 
C 28.703125 41.984375 26.5 41.28125 26.5 38.671875 
C 26.5 36.265625 28.40625 35.265625 29.90625 35.265625 
C 31.09375 35.265625 33.296875 35.96875 33.296875 38.78125 
C 33.296875 41.984375 30.09375 44 26.703125 44 
C 19.09375 44 15.796875 36.5625 14.796875 33.046875 
L 14.703125 33.046875 
L 14.703125 44 
L 3.09375 42.890625 
L 3.09375 40.28125 
C 9 40.28125 9.90625 39.6875 9.90625 34.859375 
L 9.90625 6.921875 
C 9.90625 3.09375 9.5 2.59375 3.09375 2.59375 
L 3.09375 0 
C 5.5 0.1875 10.09375 0.1875 12.703125 0.1875 
C 15.59375 0.1875 20.703125 0.1875 23.40625 0 
L 23.40625 2.59375 
C 16.203125 2.59375 15 2.59375 15 7.109375 
z
" id="CMR17-114"/>
       <path d="M 15.296875 69 
L 3.40625 67.890625 
L 3.40625 65.296875 
C 9.296875 65.296875 10.203125 64.703125 10.203125 59.921875 
L 10.203125 6.859375 
C 10.203125 3.09375 9.796875 2.59375 3.40625 2.59375 
L 3.40625 0 
C 5.796875 0.1875 10.203125 0.1875 12.703125 0.1875 
C 15.296875 0.1875 19.703125 0.1875 22.09375 0 
L 22.09375 2.59375 
C 15.703125 2.59375 15.296875 2.984375 15.296875 6.859375 
z
" id="CMR17-108"/>
       <path d="M 39.09375 33.953125 
C 40 36.171875 41.59375 40.1875 47.40625 40.390625 
L 47.40625 43 
C 45.5 42.890625 43 42.796875 41.09375 42.796875 
C 39 42.796875 35.703125 42.796875 33.703125 43 
L 33.703125 40.390625 
C 36.203125 40.1875 37.59375 38.984375 37.59375 36.375 
C 37.59375 35.46875 37.59375 35.265625 37 33.859375 
L 26 5.921875 
L 14.09375 36.0625 
C 13.5 37.375 13.5 37.578125 13.5 37.984375 
C 13.5 40.390625 16.796875 40.390625 18.296875 40.390625 
L 18.296875 43 
C 15.90625 42.796875 11.5 42.796875 9 42.796875 
C 6.296875 42.796875 3.203125 42.796875 1 43 
L 1 40.390625 
C 4.796875 40.390625 6.90625 40.390625 8.09375 37.28125 
L 22.59375 0.6875 
C 23.203125 -0.8125 23.296875 -1 24.203125 -1 
C 25.09375 -1 25.203125 -0.8125 25.796875 0.6875 
z
" id="CMR17-118"/>
       <path d="M 11.09375 18.203125 
C 13 16.6875 16.296875 15 20.296875 15 
C 28.203125 15 35 21.234375 35 29.609375 
C 35 32.234375 34.203125 36.265625 31.203125 39.390625 
C 34 42.390625 38.09375 43.390625 40.40625 43.390625 
C 40.796875 43.390625 41.40625 43.390625 41.90625 43.09375 
C 41.5 42.984375 40.59375 42.59375 40.59375 40.984375 
C 40.59375 39.6875 41.5 38.796875 42.796875 38.796875 
C 44.296875 38.796875 45.09375 39.796875 45.09375 41.09375 
C 45.09375 42.984375 43.59375 45 40.40625 45 
C 36.40625 45 32.90625 43.09375 30.09375 40.484375 
C 27.09375 43.1875 23.5 44.1875 20.296875 44.1875 
C 12.40625 44.1875 5.59375 37.984375 5.59375 29.609375 
C 5.59375 23.859375 8.90625 20.21875 9.90625 19.21875 
C 6.90625 15.6875 6.90625 11.59375 6.90625 11.09375 
C 6.90625 8.5 7.90625 4.6875 11.296875 2.59375 
C 6.09375 1.28125 2 -2.875 2 -8.078125 
C 2 -15.5625 11.5 -21 22.90625 -21 
C 33.90625 -21 43.796875 -15.765625 43.796875 -7.96875 
C 43.796875 6 29 6 21.296875 6 
C 19 6 14.90625 6 14.40625 6.09375 
C 11.296875 6.59375 9.203125 9.390625 9.203125 12.890625 
C 9.203125 13.796875 9.203125 16 11.09375 18.203125 
z
M 20.296875 16.6875 
C 11.5 16.6875 11.5 27.59375 11.5 29.609375 
C 11.5 31.625 11.5 42.484375 20.296875 42.484375 
C 29.09375 42.484375 29.09375 31.625 29.09375 29.609375 
C 29.09375 27.59375 29.09375 16.6875 20.296875 16.6875 
z
M 22.90625 -19.3125 
C 12.90625 -19.3125 6 -13.796875 6 -8.078125 
C 6 -4.859375 7.703125 -1.84375 9.90625 -0.171875 
C 12.40625 1.59375 13.40625 1.59375 20.203125 1.59375 
C 28.40625 1.59375 39.796875 1.59375 39.796875 -8.078125 
C 39.796875 -13.796875 32.90625 -19.3125 22.90625 -19.3125 
z
" id="CMR17-103"/>
       <path d="M 23.5 -25 
L 23.5 -21.5 
L 14.09375 -21.5 
L 14.09375 71.484375 
L 23.5 71.484375 
L 23.5 75 
L 10.59375 75 
L 10.59375 -25 
z
" id="CMR17-91"/>
       <path d="M 34.90625 35 
C 33 35 30.203125 35 30.203125 31.484375 
C 30.203125 28.6875 32.5 27.890625 33.796875 27.890625 
C 34.5 27.890625 37.40625 28.1875 37.40625 31.6875 
C 37.40625 38.6875 30.59375 44 22.90625 44 
C 12.296875 44 3.296875 34.390625 3.296875 21.546875 
C 3.296875 8.140625 12.703125 -1 22.90625 -1 
C 35.296875 -1 38.40625 10.5625 38.40625 11.671875 
C 38.40625 12.078125 38.296875 12.375 37.59375 12.375 
C 36.90625 12.375 36.796875 12.28125 36.40625 10.96875 
C 33.796875 2.8125 28.09375 0.796875 23.796875 0.796875 
C 17.40625 0.796875 9.703125 6.734375 9.703125 21.640625 
C 9.703125 36.84375 17.09375 42.1875 23 42.1875 
C 26.90625 42.1875 32.703125 40.34375 34.90625 35 
z
" id="CMR17-99"/>
       <path d="M 67.59375 30.53125 
C 67.59375 35.5625 66.703125 44 54.796875 44 
C 48 44 43.296875 39.375 41.5 33.953125 
L 41.40625 33.953125 
C 40.203125 42.1875 34.296875 44 28.703125 44 
C 20.796875 44 16.703125 37.875 15.203125 33.84375 
L 15.09375 33.84375 
L 15.09375 44 
L 3.296875 42.890625 
L 3.296875 40.28125 
C 9.203125 40.28125 10.09375 39.6875 10.09375 34.859375 
L 10.09375 6.921875 
C 10.09375 3.09375 9.703125 2.59375 3.296875 2.59375 
L 3.296875 0 
C 5.703125 0.1875 10.09375 0.1875 12.703125 0.1875 
C 15.296875 0.1875 19.796875 0.1875 22.203125 0 
L 22.203125 2.59375 
C 15.796875 2.59375 15.40625 3 15.40625 6.921875 
L 15.40625 26.21875 
C 15.40625 35.453125 21 42.390625 28 42.390625 
C 35.40625 42.390625 36.203125 35.765625 36.203125 30.9375 
L 36.203125 6.921875 
C 36.203125 3.09375 35.796875 2.59375 29.40625 2.59375 
L 29.40625 0 
C 31.796875 0.1875 36.203125 0.1875 38.796875 0.1875 
C 41.40625 0.1875 45.90625 0.1875 48.296875 0 
L 48.296875 2.59375 
C 41.90625 2.59375 41.5 3 41.5 6.921875 
L 41.5 26.21875 
C 41.5 35.453125 47.09375 42.390625 54.09375 42.390625 
C 61.5 42.390625 62.296875 35.765625 62.296875 30.9375 
L 62.296875 6.921875 
C 62.296875 3.09375 61.90625 2.59375 55.5 2.59375 
L 55.5 0 
C 57.90625 0.1875 62.296875 0.1875 64.90625 0.1875 
C 67.5 0.1875 72 0.1875 74.40625 0 
L 74.40625 2.59375 
C 68 2.59375 67.59375 3 67.59375 6.921875 
z
" id="CMR17-109"/>
       <path d="M 65.90625 23 
C 67.59375 23 69.40625 23 69.40625 25 
C 69.40625 27 67.59375 27 65.90625 27 
L 11.796875 27 
C 10.09375 27 8.296875 27 8.296875 25 
C 8.296875 23 10.09375 23 11.796875 23 
z
" id="CMSY10-0"/>
       <path d="M 14.296875 75 
L 1.40625 75 
L 1.40625 71.484375 
L 10.796875 71.484375 
L 10.796875 -21.5 
L 1.40625 -21.5 
L 1.40625 -25 
L 14.296875 -25 
z
" id="CMR17-93"/>
      </defs>
      <use transform="scale(0.996264)" xlink:href="#CMR17-114"/>
      <use transform="translate(35.280768 0)scale(0.996264)" xlink:href="#CMR17-101"/>
      <use transform="translate(75.766428 0)scale(0.996264)" xlink:href="#CMR17-108"/>
      <use transform="translate(100.637487 0)scale(0.996264)" xlink:href="#CMR17-97"/>
      <use transform="translate(146.327964 0)scale(0.996264)" xlink:href="#CMR17-116"/>
      <use transform="translate(181.608732 0)scale(0.996264)" xlink:href="#CMR17-105"/>
      <use transform="translate(206.47979 0)scale(0.996264)" xlink:href="#CMR17-118"/>
      <use transform="translate(252.170252 0)scale(0.996264)" xlink:href="#CMR17-101"/>
      <use transform="translate(322.731879 0)scale(0.996264)" xlink:href="#CMR17-101"/>
      <use transform="translate(363.217539 0)scale(0.996264)" xlink:href="#CMR17-110"/>
      <use transform="translate(414.112909 0)scale(0.996264)" xlink:href="#CMR17-101"/>
      <use transform="translate(454.59857 0)scale(0.996264)" xlink:href="#CMR17-114"/>
      <use transform="translate(489.879337 0)scale(0.996264)" xlink:href="#CMR17-103"/>
      <use transform="translate(535.569814 0)scale(0.996264)" xlink:href="#CMR17-105"/>
      <use transform="translate(560.440873 0)scale(0.996264)" xlink:href="#CMR17-101"/>
      <use transform="translate(600.926533 0)scale(0.996264)" xlink:href="#CMR17-115"/>
      <use transform="translate(666.803837 0)scale(0.996264)" xlink:href="#CMR17-91"/>
      <use transform="translate(691.674896 0)scale(0.996264)" xlink:href="#CMR17-99"/>
      <use transform="translate(732.160556 0)scale(0.996264)" xlink:href="#CMR17-109"/>
      <use transform="translate(809.080146 36.153639)scale(0.697382)" xlink:href="#CMSY10-0"/>
      <use transform="translate(863.321139 36.153639)scale(0.697382)" xlink:href="#CMR17-49"/>
      <use transform="translate(895.802453 0)scale(0.996264)" xlink:href="#CMR17-93"/>
     </g>
    </g>
   </g>
   <g id="PathCollection_1">
    <path clip-path="url(#pec24ffb1a4)" d="M 56.026728 172.637634 
L 57.526728 171.137634 
L 59.026728 172.637634 
L 60.526728 171.137634 
L 59.026728 169.637634 
L 60.526728 168.137634 
L 59.026728 166.637634 
L 57.526728 168.137634 
L 56.026728 166.637634 
L 54.526728 168.137634 
L 56.026728 169.637634 
L 54.526728 171.137634 
z
" style="stroke:#ffffff;stroke-width:0.48;"/>
    <path clip-path="url(#pec24ffb1a4)" d="M 76.831161 163.623267 
L 78.331161 162.123267 
L 79.831161 163.623267 
L 81.331161 162.123267 
L 79.831161 160.623267 
L 81.331161 159.123267 
L 79.831161 157.623267 
L 78.331161 159.123267 
L 76.831161 157.623267 
L 75.331161 159.123267 
L 76.831161 160.623267 
L 75.331161 162.123267 
z
" style="stroke:#ffffff;stroke-width:0.48;"/>
    <path clip-path="url(#pec24ffb1a4)" d="M 97.635594 145.497982 
L 99.135594 143.997982 
L 100.635594 145.497982 
L 102.135594 143.997982 
L 100.635594 142.497982 
L 102.135594 140.997982 
L 100.635594 139.497982 
L 99.135594 140.997982 
L 97.635594 139.497982 
L 96.135594 140.997982 
L 97.635594 142.497982 
L 96.135594 143.997982 
z
" style="stroke:#ffffff;stroke-width:0.48;"/>
    <path clip-path="url(#pec24ffb1a4)" d="M 118.440026 118.214328 
L 119.940026 116.714328 
L 121.440026 118.214328 
L 122.940026 116.714328 
L 121.440026 115.214328 
L 122.940026 113.714328 
L 121.440026 112.214328 
L 119.940026 113.714328 
L 118.440026 112.214328 
L 116.940026 113.714328 
L 118.440026 115.214328 
L 116.940026 116.714328 
z
" style="stroke:#ffffff;stroke-width:0.48;"/>
    <path clip-path="url(#pec24ffb1a4)" d="M 139.244459 81.653484 
L 140.744459 80.153484 
L 142.244459 81.653484 
L 143.744459 80.153484 
L 142.244459 78.653484 
L 143.744459 77.153484 
L 142.244459 75.653484 
L 140.744459 77.153484 
L 139.244459 75.653484 
L 137.744459 77.153484 
L 139.244459 78.653484 
L 137.744459 80.153484 
z
" style="stroke:#ffffff;stroke-width:0.48;"/>
    <path clip-path="url(#pec24ffb1a4)" d="M 160.048892 35.617388 
L 161.548892 34.117388 
L 163.048892 35.617388 
L 164.548892 34.117388 
L 163.048892 32.617388 
L 164.548892 31.117388 
L 163.048892 29.617388 
L 161.548892 31.117388 
L 160.048892 29.617388 
L 158.548892 31.117388 
L 160.048892 32.617388 
L 158.548892 34.117388 
z
" style="stroke:#ffffff;stroke-width:0.48;"/>
   </g>
   <g id="PathCollection_2"/>
   <g id="line2d_5">
    <path clip-path="url(#pec24ffb1a4)" d="M 57.526728 169.637634 
L 58.997749 169.291077 
L 60.468769 168.898749 
L 61.93979 168.460648 
L 63.41081 167.976777 
L 64.881831 167.447133 
L 66.352851 166.871718 
L 67.823872 166.250531 
L 69.294892 165.583572 
L 70.765913 164.870842 
L 72.236933 164.11234 
L 73.707954 163.308066 
L 75.178974 162.458021 
L 76.649995 161.562204 
L 78.121015 160.620615 
L 79.592036 159.633255 
L 81.063056 158.600123 
L 82.534077 157.521219 
L 84.005097 156.396544 
L 85.476118 155.226097 
L 86.947138 154.009878 
L 88.418159 152.747888 
L 89.889179 151.440126 
L 91.360199 150.086592 
L 92.83122 148.687287 
L 94.30224 147.24221 
L 95.773261 145.751361 
L 97.244281 144.214741 
L 98.715302 142.632349 
L 100.186322 141.004185 
L 101.657343 139.33025 
L 103.128363 137.610542 
L 104.599384 135.845064 
L 106.070404 134.033813 
L 107.541425 132.176791 
L 109.012445 130.273998 
L 110.483466 128.325432 
L 111.954486 126.331095 
L 113.425507 124.290986 
L 114.896527 122.205106 
L 116.367548 120.073454 
L 117.838568 117.89603 
L 119.309589 115.672835 
L 120.780609 113.403868 
L 122.25163 111.089129 
L 123.72265 108.728618 
L 125.193671 106.322336 
L 126.664691 103.870282 
L 128.135712 101.372457 
L 129.606732 98.82886 
L 131.077753 96.239491 
L 132.548773 93.604351 
L 134.019794 90.923438 
L 135.490814 88.196755 
L 136.961835 85.424299 
L 138.432855 82.606072 
L 139.903876 79.742073 
L 141.374896 76.832303 
L 142.845917 73.876761 
L 144.316937 70.875447 
L 145.787958 67.828361 
L 147.258978 64.735504 
L 148.729999 61.596875 
L 150.201019 58.412475 
L 151.67204 55.182303 
L 153.14306 51.906359 
L 154.614081 48.584643 
L 156.085101 45.217156 
L 157.556122 41.803897 
L 159.027142 38.344867 
L 160.498163 34.840064 
L 161.969183 31.289491 
L 163.440204 27.693145 
L 164.911224 24.051028 
L 166.382245 20.363139 
L 167.853265 16.629478 
L 169.324286 12.850046 
L 170.795306 9.024842 
L 172.266327 5.153867 
L 173.737347 1.237119 
L 174.567841 -1 
" style="fill:none;stroke:#aaaaaa;stroke-linecap:round;stroke-width:1.5;"/>
   </g>
   <g id="line2d_6">
    <path clip-path="url(#pec24ffb1a4)" d="M 57.526728 169.640697 
L 58.997749 169.295604 
L 60.468769 168.90586 
L 61.93979 168.471421 
L 63.41081 167.99224 
L 64.881831 167.468272 
L 66.352851 166.899473 
L 67.823872 166.285795 
L 69.294892 165.627194 
L 70.765913 164.923625 
L 72.236933 164.175041 
L 73.707954 163.381398 
L 75.178974 162.54265 
L 76.649995 161.658751 
L 78.121015 160.729656 
L 79.592036 159.75532 
L 81.063056 158.735697 
L 82.534077 157.670741 
L 84.005097 156.560407 
L 85.476118 155.40465 
L 86.947138 154.203424 
L 88.418159 152.956684 
L 89.889179 151.664384 
L 91.360199 150.326479 
L 92.83122 148.942923 
L 94.30224 147.51367 
L 95.773261 146.038676 
L 97.244281 144.517895 
L 98.715302 142.951281 
L 100.186322 141.338789 
L 101.657343 139.680374 
L 103.128363 137.975989 
L 104.599384 136.22559 
L 106.070404 134.429131 
L 107.541425 132.586567 
L 109.012445 130.697851 
L 110.483466 128.762939 
L 111.954486 126.781785 
L 113.425507 124.754344 
L 114.896527 122.68057 
L 116.367548 120.560418 
L 117.838568 118.393842 
L 119.309589 116.180796 
L 120.780609 113.921236 
L 122.25163 111.615116 
L 123.72265 109.26239 
L 125.193671 106.863013 
L 126.664691 104.416939 
L 128.135712 101.924123 
L 129.606732 99.38452 
L 131.077753 96.798084 
L 132.548773 94.164769 
L 134.019794 91.48453 
L 135.490814 88.757322 
L 136.961835 85.983099 
L 138.432855 83.161815 
L 139.903876 80.293426 
L 141.374896 77.377885 
L 142.845917 74.415147 
L 144.316937 71.405167 
L 145.787958 68.3479 
L 147.258978 65.243299 
L 148.729999 62.09132 
L 150.201019 58.891916 
L 151.67204 55.645043 
L 153.14306 52.350654 
L 154.614081 49.008705 
L 156.085101 45.61915 
L 157.556122 42.181944 
L 159.027142 38.69704 
L 160.498163 35.164394 
L 161.969183 31.58396 
L 163.440204 27.955693 
L 164.911224 24.279546 
L 166.382245 20.555476 
L 167.853265 16.783435 
L 169.324286 12.963379 
L 170.795306 9.095263 
L 172.266327 5.17904 
L 173.737347 1.214666 
L 174.54925 -1 
" style="fill:none;stroke:#555555;stroke-dasharray:6,2.25;stroke-dashoffset:0;stroke-width:1.5;"/>
   </g>
   <g id="line2d_7"/>
   <g id="line2d_8"/>
   <g id="patch_3">
    <path d="M 52.32562 176.488647 
L 52.32562 25.766376 
" style="fill:none;stroke:#262626;stroke-linecap:square;stroke-linejoin:miter;stroke-width:0.8;"/>
   </g>
   <g id="patch_4">
    <path d="M 166.75 176.488647 
L 166.75 25.766376 
" style="fill:none;stroke:#262626;stroke-linecap:square;stroke-linejoin:miter;stroke-width:0.8;"/>
   </g>
   <g id="patch_5">
    <path d="M 52.32562 176.488647 
L 166.75 176.488647 
" style="fill:none;stroke:#262626;stroke-linecap:square;stroke-linejoin:miter;stroke-width:0.8;"/>
   </g>
   <g id="patch_6">
    <path d="M 52.32562 25.766376 
L 166.75 25.766376 
" style="fill:none;stroke:#262626;stroke-linecap:square;stroke-linejoin:miter;stroke-width:0.8;"/>
   </g>
   <g id="text_13">
    <!-- a) state average -->
    <g style="fill:#262626;" transform="translate(69.022111 19.766376)scale(0.12 -0.12)">
     <defs>
      <path d="M 26.296875 24.9375 
C 26.296875 32.140625 25.59375 44.359375 19.59375 57.265625 
C 14.796875 67.6875 6.59375 75 5.40625 75 
C 5.09375 75 4.703125 74.890625 4.703125 74.390625 
C 4.703125 74.1875 4.796875 74.09375 4.90625 73.890625 
C 9.703125 68.875 21.90625 56.171875 21.90625 25.046875 
C 21.90625 -6.1875 9.796875 -18.90625 4.90625 -23.90625 
C 4.796875 -24.109375 4.703125 -24.203125 4.703125 -24.40625 
C 4.703125 -24.90625 5.09375 -25 5.40625 -25 
C 6.5 -25 15 -17.609375 19.90625 -6.59375 
C 24.90625 4.515625 26.296875 15.328125 26.296875 24.9375 
z
" id="CMR17-41"/>
     </defs>
     <use transform="scale(0.996264)" xlink:href="#CMR17-97"/>
     <use transform="translate(45.690477 0)scale(0.996264)" xlink:href="#CMR17-41"/>
     <use transform="translate(111.047211 0)scale(0.996264)" xlink:href="#CMR17-115"/>
     <use transform="translate(146.848549 0)scale(0.996264)" xlink:href="#CMR17-116"/>
     <use transform="translate(182.129317 0)scale(0.996264)" xlink:href="#CMR17-97"/>
     <use transform="translate(227.819794 0)scale(0.996264)" xlink:href="#CMR17-116"/>
     <use transform="translate(263.100562 0)scale(0.996264)" xlink:href="#CMR17-101"/>
     <use transform="translate(333.662188 0)scale(0.996264)" xlink:href="#CMR17-97"/>
     <use transform="translate(376.750212 0)scale(0.996264)" xlink:href="#CMR17-118"/>
     <use transform="translate(422.440674 0)scale(0.996264)" xlink:href="#CMR17-101"/>
     <use transform="translate(462.926334 0)scale(0.996264)" xlink:href="#CMR17-114"/>
     <use transform="translate(498.207102 0)scale(0.996264)" xlink:href="#CMR17-97"/>
     <use transform="translate(543.897579 0)scale(0.996264)" xlink:href="#CMR17-103"/>
     <use transform="translate(589.588056 0)scale(0.996264)" xlink:href="#CMR17-101"/>
    </g>
   </g>
   <g id="legend_1">
    <g id="patch_7">
     <path d="M 59.32562 77.658242 
L 135.050628 77.658242 
Q 137.050628 77.658242 137.050628 75.658242 
L 137.050628 32.766376 
Q 137.050628 30.766376 135.050628 30.766376 
L 59.32562 30.766376 
Q 57.32562 30.766376 57.32562 32.766376 
L 57.32562 75.658242 
Q 57.32562 77.658242 59.32562 77.658242 
z
" style="fill:#ffffff;opacity:0.8;stroke:#cccccc;stroke-linejoin:miter;"/>
    </g>
    <g id="line2d_9">
     <path d="M 61.32562 38.864814 
L 81.32562 38.864814 
" style="fill:none;stroke:#aaaaaa;stroke-linecap:round;stroke-width:1.5;"/>
    </g>
    <g id="line2d_10"/>
    <g id="text_14">
     <!-- $J$ -->
     <g style="fill:#262626;" transform="translate(89.32562 42.364814)scale(0.1 -0.1)">
      <defs>
       <path d="M 53.40625 61.109375 
C 54.203125 64.09375 54.40625 65.09375 59.296875 65.09375 
C 60.90625 65.09375 61.90625 65.09375 61.90625 66.890625 
C 61.90625 68 61 68 60.59375 68 
C 58.90625 68 57 67.796875 55.203125 67.796875 
L 49.703125 67.796875 
C 45.5 67.796875 41.09375 68 36.90625 68 
C 36 68 34.796875 68 34.796875 66.1875 
C 34.796875 65.1875 35.59375 65.1875 35.59375 65.09375 
L 38.09375 65.09375 
C 46.09375 65.09375 46.09375 64.296875 46.09375 62.796875 
C 46.09375 62.703125 46.09375 62 45.703125 60.40625 
L 34.203125 14.890625 
C 31.59375 4.75 24.90625 0 20.09375 0 
C 16.703125 0 11.90625 1.546875 10.703125 6.6875 
C 11.09375 6.59375 11.59375 6.484375 12 6.484375 
C 15.296875 6.484375 17.90625 9.390625 17.90625 12.296875 
C 17.90625 13.890625 16.90625 16 13.90625 16 
C 12.09375 16 7.90625 14.984375 7.90625 8.484375 
C 7.90625 2.328125 13.09375 -2 20.296875 -2 
C 29.40625 -2 39.203125 4.75 41.59375 14.1875 
z
" id="CMMI12-74"/>
      </defs>
      <use transform="scale(0.996264)" xlink:href="#CMMI12-74"/>
     </g>
    </g>
    <g id="line2d_11">
     <path d="M 61.32562 53.542939 
L 81.32562 53.542939 
" style="fill:none;stroke:#555555;stroke-dasharray:6,2.25;stroke-dashoffset:0;stroke-width:1.5;"/>
    </g>
    <g id="line2d_12"/>
    <g id="text_15">
     <!-- $J$\&amp;$\lambda$ -->
     <g style="fill:#262626;" transform="translate(89.32562 57.042939)scale(0.1 -0.1)">
      <defs>
       <path d="M 6.703125 21.203125 
C 4.5 18.671875 3.296875 15.84375 3.296875 12.515625 
C 3.296875 4.234375 11 -2 20.40625 -2 
C 29.796875 -2 35.796875 3.828125 37.796875 5.75 
C 40.5 3.21875 46 -2 54 -2 
C 61.09375 -2 67.09375 3.421875 67.296875 11.8125 
L 65.5 11.8125 
C 65.296875 3.921875 58.796875 0.59375 54.40625 0.59375 
C 48.5 0.59375 43.59375 6.546875 41.203125 9.375 
C 43.09375 11.703125 46.296875 15.640625 52.90625 27.65625 
C 54.796875 31 57.59375 36.046875 59.09375 37.359375 
C 60.5 38.578125 62.796875 40.296875 67.796875 40.390625 
L 67.796875 43 
C 65.90625 42.796875 61.703125 42.796875 59.703125 42.796875 
C 56.703125 42.796875 52 42.796875 49.09375 43 
L 49.09375 40.390625 
C 52.40625 40.390625 55.09375 38.984375 55.09375 36.25 
C 55.09375 34.640625 52.796875 30.6875 48.5 23.421875 
C 47 20.796875 43.5 14.828125 40 10.890625 
C 38.5 12.8125 28.59375 25.640625 23.703125 38.671875 
C 34 51.09375 35.09375 55.59375 35.09375 58.796875 
C 35.09375 62.796875 33.796875 71 27.296875 71 
C 21.40625 71 15.296875 65.59375 15.296875 55.890625 
C 15.296875 50.796875 16.09375 44.5 19.09375 35.75 
z
M 23.09375 40.59375 
C 21.203125 45.796875 20.09375 52.390625 20.09375 57.796875 
C 20.09375 66.59375 24.203125 69.390625 27.40625 69.390625 
C 33 69.390625 33.296875 60.390625 33.296875 58.890625 
C 33.296875 55.390625 31.5 50.390625 23.09375 40.59375 
z
M 19.796875 34.03125 
C 24.703125 22.8125 31.796875 12.609375 36.5 7.15625 
C 31.59375 2.515625 26.203125 0.59375 21.296875 0.59375 
C 13.203125 0.59375 9.703125 8.96875 9.703125 15.546875 
C 9.703125 19.6875 11 23.828125 13.59375 26.859375 
z
" id="CMR17-38"/>
       <path d="M 30.90625 61.921875 
C 28.40625 69 20.5 69 19.203125 69 
C 18.59375 69 17.5 69 17.5 67.984375 
C 17.5 67.1875 18.09375 67.09375 18.59375 66.984375 
C 20.09375 66.796875 21.296875 66.59375 22.90625 63.71875 
C 23.90625 61.828125 34.203125 32.109375 34.203125 31.90625 
C 34.203125 31.8125 34.09375 31.703125 33.296875 30.90625 
L 7.296875 4.765625 
C 6.09375 3.578125 5.296875 2.78125 5.296875 1.484375 
C 5.296875 0.09375 6.5 -1.109375 8.09375 -1.109375 
C 8.5 -1.109375 9.59375 -0.90625 10.203125 -0.3125 
C 11.796875 1.1875 26.09375 18.59375 35.203125 29.328125 
C 37.796875 21.5625 41 12.421875 44.09375 4.078125 
C 44.59375 2.578125 45.09375 1.1875 46.5 -0.109375 
C 47.5 -1 47.703125 -1 50.5 -1 
L 52.40625 -1 
C 52.796875 -1 53.5 -1 53.5 -0.203125 
C 53.5 0.1875 53.40625 0.296875 53 0.6875 
C 52.09375 1.78125 51.40625 3.578125 51 4.765625 
z
" id="CMMI12-21"/>
      </defs>
      <use transform="scale(0.996264)" xlink:href="#CMMI12-74"/>
      <use transform="translate(63.142671 0)scale(0.996264)" xlink:href="#CMR17-38"/>
      <use transform="translate(134.857459 0)scale(0.996264)" xlink:href="#CMMI12-21"/>
     </g>
    </g>
    <g id="PathCollection_3">
     <defs>
      <path d="M -1.5 3 
L 0 1.5 
L 1.5 3 
L 3 1.5 
L 1.5 0 
L 3 -1.5 
L 1.5 -3 
L 0 -1.5 
L -1.5 -3 
L -3 -1.5 
L -1.5 0 
L -3 1.5 
z
" id="m062f578dab" style="stroke:#333333;"/>
     </defs>
     <g>
      <use style="fill:#333333;stroke:#333333;" x="71.32562" xlink:href="#m062f578dab" y="69.096064"/>
     </g>
    </g>
    <g id="text_16">
     <!-- calculated -->
     <g style="fill:#262626;" transform="translate(89.32562 71.721064)scale(0.1 -0.1)">
      <defs>
       <path d="M 29.40625 42.890625 
L 29.40625 40.296875 
C 35.296875 40.296875 36.203125 39.6875 36.203125 34.828125 
L 36.203125 16.453125 
C 36.203125 7.96875 31.703125 0.59375 24.296875 0.59375 
C 16.09375 0.59375 15.40625 5.546875 15.40625 10.796875 
L 15.40625 44 
L 3.296875 42.890625 
L 3.296875 40.296875 
C 7.296875 40.296875 10 40.296875 10.09375 36.25 
L 10.09375 16.859375 
C 10.09375 10.09375 10.09375 5.75 12.703125 2.921875 
C 14 1.609375 16.5 -1 23.703125 -1 
C 32.203125 -1 35.5 6.25 36.296875 8.375 
L 36.40625 8.375 
L 36.40625 -1 
L 48.296875 -0.203125 
L 48.296875 2.40625 
C 42.40625 2.40625 41.5 3.015625 41.5 7.859375 
L 41.5 44 
z
" id="CMR17-117"/>
       <path d="M 29.203125 67.890625 
L 29.203125 65.296875 
C 35.09375 65.296875 36 64.703125 36 60.046875 
L 36 37.046875 
C 35.59375 37.546875 31.5 44 23.40625 44 
C 13.203125 44 3.296875 34.8125 3.296875 21.5 
C 3.296875 8.265625 12.59375 -1 22.40625 -1 
C 30.90625 -1 35.296875 5.640625 35.796875 6.34375 
L 35.796875 -1 
L 47.90625 -0.203125 
L 47.90625 2.40625 
C 42 2.40625 41.09375 3.015625 41.09375 7.859375 
L 41.09375 69 
z
M 35.796875 11.90625 
C 35.796875 8.875 34 6.140625 31.703125 4.125 
C 28.296875 1.09375 24.90625 0.59375 23 0.59375 
C 20.09375 0.59375 9.703125 2.109375 9.703125 21.390625 
C 9.703125 41.1875 21.296875 42.390625 23.90625 42.390625 
C 28.5 42.390625 32.203125 39.765625 34.5 36.140625 
C 35.796875 34.015625 35.796875 33.703125 35.796875 31.890625 
z
" id="CMR17-100"/>
      </defs>
      <use transform="scale(0.996264)" xlink:href="#CMR17-99"/>
      <use transform="translate(40.48566 0)scale(0.996264)" xlink:href="#CMR17-97"/>
      <use transform="translate(86.176138 0)scale(0.996264)" xlink:href="#CMR17-108"/>
      <use transform="translate(111.047196 0)scale(0.996264)" xlink:href="#CMR17-99"/>
      <use transform="translate(151.532857 0)scale(0.996264)" xlink:href="#CMR17-117"/>
      <use transform="translate(202.428226 0)scale(0.996264)" xlink:href="#CMR17-108"/>
      <use transform="translate(227.299285 0)scale(0.996264)" xlink:href="#CMR17-97"/>
      <use transform="translate(272.989762 0)scale(0.996264)" xlink:href="#CMR17-116"/>
      <use transform="translate(308.27053 0)scale(0.996264)" xlink:href="#CMR17-101"/>
      <use transform="translate(348.75619 0)scale(0.996264)" xlink:href="#CMR17-100"/>
     </g>
    </g>
   </g>
  </g>
  <g id="axes_2">
   <g id="patch_8">
    <path d="M 196.75 176.488647 
L 311.17438 176.488647 
L 311.17438 25.766376 
L 196.75 25.766376 
z
" style="fill:#ffffff;"/>
   </g>
   <g id="matplotlib.axis_3">
    <g id="xtick_7">
     <g id="text_17">
      <!-- 0 -->
      <g style="fill:#262626;" transform="translate(199.460441 190.407145)scale(0.1 -0.1)">
       <use transform="scale(0.996264)" xlink:href="#CMR17-48"/>
      </g>
     </g>
    </g>
    <g id="xtick_8">
     <g id="text_18">
      <!-- 1 -->
      <g style="fill:#262626;" transform="translate(220.264873 190.407145)scale(0.1 -0.1)">
       <use transform="scale(0.996264)" xlink:href="#CMR17-49"/>
      </g>
     </g>
    </g>
    <g id="xtick_9">
     <g id="text_19">
      <!-- 2 -->
      <g style="fill:#262626;" transform="translate(241.069306 190.407145)scale(0.1 -0.1)">
       <use transform="scale(0.996264)" xlink:href="#CMR17-50"/>
      </g>
     </g>
    </g>
    <g id="xtick_10">
     <g id="text_20">
      <!-- 3 -->
      <g style="fill:#262626;" transform="translate(261.873739 190.407145)scale(0.1 -0.1)">
       <use transform="scale(0.996264)" xlink:href="#CMR17-51"/>
      </g>
     </g>
    </g>
    <g id="xtick_11">
     <g id="text_21">
      <!-- 4 -->
      <g style="fill:#262626;" transform="translate(282.678172 190.407145)scale(0.1 -0.1)">
       <use transform="scale(0.996264)" xlink:href="#CMR17-52"/>
      </g>
     </g>
    </g>
    <g id="xtick_12">
     <g id="text_22">
      <!-- 5 -->
      <g style="fill:#262626;" transform="translate(303.482604 190.407145)scale(0.1 -0.1)">
       <use transform="scale(0.996264)" xlink:href="#CMR17-53"/>
      </g>
     </g>
    </g>
    <g id="text_23">
     <!-- spin state $S$ -->
     <g style="fill:#262626;" transform="translate(228.159612 203.262822)scale(0.1 -0.1)">
      <use transform="scale(0.996264)" xlink:href="#CMR17-115"/>
      <use transform="translate(35.801338 0)scale(0.996264)" xlink:href="#CMR17-112"/>
      <use transform="translate(86.696707 0)scale(0.996264)" xlink:href="#CMR17-105"/>
      <use transform="translate(111.567766 0)scale(0.996264)" xlink:href="#CMR17-110"/>
      <use transform="translate(192.539102 0)scale(0.996264)" xlink:href="#CMR17-115"/>
      <use transform="translate(228.34044 0)scale(0.996264)" xlink:href="#CMR17-116"/>
      <use transform="translate(263.621207 0)scale(0.996264)" xlink:href="#CMR17-97"/>
      <use transform="translate(309.311685 0)scale(0.996264)" xlink:href="#CMR17-116"/>
      <use transform="translate(344.592452 0)scale(0.996264)" xlink:href="#CMR17-101"/>
      <use transform="translate(415.154079 0)scale(0.996264)" xlink:href="#CMMI12-83"/>
     </g>
    </g>
   </g>
   <g id="matplotlib.axis_4">
    <g id="ytick_5">
     <g id="line2d_13">
      <path clip-path="url(#pf890278bb1)" d="M 196.75 169.637634 
L 311.17438 169.637634 
" style="fill:none;stroke:#cccccc;stroke-linecap:round;stroke-width:0.8;"/>
     </g>
     <g id="line2d_14"/>
     <g id="text_24">
      <!-- $\mathdefault{0}$ -->
      <g style="fill:#262626;" transform="translate(314.67438 173.096883)scale(0.1 -0.1)">
       <use transform="scale(0.996264)" xlink:href="#CMR17-48"/>
      </g>
     </g>
    </g>
    <g id="ytick_6">
     <g id="line2d_15">
      <path clip-path="url(#pf890278bb1)" d="M 196.75 143.172825 
L 311.17438 143.172825 
" style="fill:none;stroke:#cccccc;stroke-linecap:round;stroke-width:0.8;"/>
     </g>
     <g id="line2d_16"/>
     <g id="text_25">
      <!-- $\mathdefault{1000}$ -->
      <g style="fill:#262626;" transform="translate(314.67438 146.632074)scale(0.1 -0.1)">
       <use transform="scale(0.996264)" xlink:href="#CMR17-49"/>
       <use transform="translate(45.690477 0)scale(0.996264)" xlink:href="#CMR17-48"/>
       <use transform="translate(91.380954 0)scale(0.996264)" xlink:href="#CMR17-48"/>
       <use transform="translate(137.071431 0)scale(0.996264)" xlink:href="#CMR17-48"/>
      </g>
     </g>
    </g>
    <g id="ytick_7">
     <g id="line2d_17">
      <path clip-path="url(#pf890278bb1)" d="M 196.75 116.708016 
L 311.17438 116.708016 
" style="fill:none;stroke:#cccccc;stroke-linecap:round;stroke-width:0.8;"/>
     </g>
     <g id="line2d_18"/>
     <g id="text_26">
      <!-- $\mathdefault{2000}$ -->
      <g style="fill:#262626;" transform="translate(314.67438 120.167265)scale(0.1 -0.1)">
       <use transform="scale(0.996264)" xlink:href="#CMR17-50"/>
       <use transform="translate(45.690477 0)scale(0.996264)" xlink:href="#CMR17-48"/>
       <use transform="translate(91.380954 0)scale(0.996264)" xlink:href="#CMR17-48"/>
       <use transform="translate(137.071431 0)scale(0.996264)" xlink:href="#CMR17-48"/>
      </g>
     </g>
    </g>
    <g id="ytick_8">
     <g id="line2d_19">
      <path clip-path="url(#pf890278bb1)" d="M 196.75 90.243206 
L 311.17438 90.243206 
" style="fill:none;stroke:#cccccc;stroke-linecap:round;stroke-width:0.8;"/>
     </g>
     <g id="line2d_20"/>
     <g id="text_27">
      <!-- $\mathdefault{3000}$ -->
      <g style="fill:#262626;" transform="translate(314.67438 93.702455)scale(0.1 -0.1)">
       <use transform="scale(0.996264)" xlink:href="#CMR17-51"/>
       <use transform="translate(45.690477 0)scale(0.996264)" xlink:href="#CMR17-48"/>
       <use transform="translate(91.380954 0)scale(0.996264)" xlink:href="#CMR17-48"/>
       <use transform="translate(137.071431 0)scale(0.996264)" xlink:href="#CMR17-48"/>
      </g>
     </g>
    </g>
    <g id="ytick_9">
     <g id="line2d_21">
      <path clip-path="url(#pf890278bb1)" d="M 196.75 63.778397 
L 311.17438 63.778397 
" style="fill:none;stroke:#cccccc;stroke-linecap:round;stroke-width:0.8;"/>
     </g>
     <g id="line2d_22"/>
     <g id="text_28">
      <!-- $\mathdefault{4000}$ -->
      <g style="fill:#262626;" transform="translate(314.67438 67.237646)scale(0.1 -0.1)">
       <use transform="scale(0.996264)" xlink:href="#CMR17-52"/>
       <use transform="translate(45.690477 0)scale(0.996264)" xlink:href="#CMR17-48"/>
       <use transform="translate(91.380954 0)scale(0.996264)" xlink:href="#CMR17-48"/>
       <use transform="translate(137.071431 0)scale(0.996264)" xlink:href="#CMR17-48"/>
      </g>
     </g>
    </g>
    <g id="ytick_10">
     <g id="line2d_23">
      <path clip-path="url(#pf890278bb1)" d="M 196.75 37.313588 
L 311.17438 37.313588 
" style="fill:none;stroke:#cccccc;stroke-linecap:round;stroke-width:0.8;"/>
     </g>
     <g id="line2d_24"/>
     <g id="text_29">
      <!-- $\mathdefault{5000}$ -->
      <g style="fill:#262626;" transform="translate(314.67438 40.772837)scale(0.1 -0.1)">
       <use transform="scale(0.996264)" xlink:href="#CMR17-53"/>
       <use transform="translate(45.690477 0)scale(0.996264)" xlink:href="#CMR17-48"/>
       <use transform="translate(91.380954 0)scale(0.996264)" xlink:href="#CMR17-48"/>
       <use transform="translate(137.071431 0)scale(0.996264)" xlink:href="#CMR17-48"/>
      </g>
     </g>
    </g>
    <g id="text_30">
     <!-- relative energies [\si{\wn}] -->
     <g style="fill:#262626;" transform="translate(346.70934 152.193042)rotate(-90)scale(0.1 -0.1)">
      <use transform="scale(0.996264)" xlink:href="#CMR17-114"/>
      <use transform="translate(35.280768 0)scale(0.996264)" xlink:href="#CMR17-101"/>
      <use transform="translate(75.766428 0)scale(0.996264)" xlink:href="#CMR17-108"/>
      <use transform="translate(100.637487 0)scale(0.996264)" xlink:href="#CMR17-97"/>
      <use transform="translate(146.327964 0)scale(0.996264)" xlink:href="#CMR17-116"/>
      <use transform="translate(181.608732 0)scale(0.996264)" xlink:href="#CMR17-105"/>
      <use transform="translate(206.47979 0)scale(0.996264)" xlink:href="#CMR17-118"/>
      <use transform="translate(252.170252 0)scale(0.996264)" xlink:href="#CMR17-101"/>
      <use transform="translate(322.731879 0)scale(0.996264)" xlink:href="#CMR17-101"/>
      <use transform="translate(363.217539 0)scale(0.996264)" xlink:href="#CMR17-110"/>
      <use transform="translate(414.112909 0)scale(0.996264)" xlink:href="#CMR17-101"/>
      <use transform="translate(454.59857 0)scale(0.996264)" xlink:href="#CMR17-114"/>
      <use transform="translate(489.879337 0)scale(0.996264)" xlink:href="#CMR17-103"/>
      <use transform="translate(535.569814 0)scale(0.996264)" xlink:href="#CMR17-105"/>
      <use transform="translate(560.440873 0)scale(0.996264)" xlink:href="#CMR17-101"/>
      <use transform="translate(600.926533 0)scale(0.996264)" xlink:href="#CMR17-115"/>
      <use transform="translate(666.803837 0)scale(0.996264)" xlink:href="#CMR17-91"/>
      <use transform="translate(691.674896 0)scale(0.996264)" xlink:href="#CMR17-99"/>
      <use transform="translate(732.160556 0)scale(0.996264)" xlink:href="#CMR17-109"/>
      <use transform="translate(809.080146 36.153639)scale(0.697382)" xlink:href="#CMSY10-0"/>
      <use transform="translate(863.321139 36.153639)scale(0.697382)" xlink:href="#CMR17-49"/>
      <use transform="translate(895.802453 0)scale(0.996264)" xlink:href="#CMR17-93"/>
     </g>
    </g>
   </g>
   <g id="PathCollection_4">
    <path clip-path="url(#pf890278bb1)" d="M 200.451108 172.637634 
L 201.951108 171.137634 
L 203.451108 172.637634 
L 204.951108 171.137634 
L 203.451108 169.637634 
L 204.951108 168.137634 
L 203.451108 166.637634 
L 201.951108 168.137634 
L 200.451108 166.637634 
L 198.951108 168.137634 
L 200.451108 169.637634 
L 198.951108 171.137634 
z
" style="stroke:#ffffff;stroke-width:0.48;"/>
    <path clip-path="url(#pf890278bb1)" d="M 221.255541 161.465868 
L 222.755541 159.965868 
L 224.255541 161.465868 
L 225.755541 159.965868 
L 224.255541 158.465868 
L 225.755541 156.965868 
L 224.255541 155.465868 
L 222.755541 156.965868 
L 221.255541 155.465868 
L 219.755541 156.965868 
L 221.255541 158.465868 
L 219.755541 159.965868 
z
" style="stroke:#ffffff;stroke-width:0.48;"/>
    <path clip-path="url(#pf890278bb1)" d="M 242.059974 139.904588 
L 243.559974 138.404588 
L 245.059974 139.904588 
L 246.559974 138.404588 
L 245.059974 136.904588 
L 246.559974 135.404588 
L 245.059974 133.904588 
L 243.559974 135.404588 
L 242.059974 133.904588 
L 240.559974 135.404588 
L 242.059974 136.904588 
L 240.559974 138.404588 
z
" style="stroke:#ffffff;stroke-width:0.48;"/>
    <path clip-path="url(#pf890278bb1)" d="M 262.864406 109.372854 
L 264.364406 107.872854 
L 265.864406 109.372854 
L 267.364406 107.872854 
L 265.864406 106.372854 
L 267.364406 104.872854 
L 265.864406 103.372854 
L 264.364406 104.872854 
L 262.864406 103.372854 
L 261.364406 104.872854 
L 262.864406 106.372854 
L 261.364406 107.872854 
z
" style="stroke:#ffffff;stroke-width:0.48;"/>
    <path clip-path="url(#pf890278bb1)" d="M 283.668839 69.767387 
L 285.168839 68.267387 
L 286.668839 69.767387 
L 288.168839 68.267387 
L 286.668839 66.767387 
L 288.168839 65.267387 
L 286.668839 63.767387 
L 285.168839 65.267387 
L 283.668839 63.767387 
L 282.168839 65.267387 
L 283.668839 66.767387 
L 282.168839 68.267387 
z
" style="stroke:#ffffff;stroke-width:0.48;"/>
    <path clip-path="url(#pf890278bb1)" d="M 304.473272 35.617388 
L 305.973272 34.117388 
L 307.473272 35.617388 
L 308.973272 34.117388 
L 307.473272 32.617388 
L 308.973272 31.117388 
L 307.473272 29.617388 
L 305.973272 31.117388 
L 304.473272 29.617388 
L 302.973272 31.117388 
L 304.473272 32.617388 
L 302.973272 34.117388 
z
" style="stroke:#ffffff;stroke-width:0.48;"/>
   </g>
   <g id="PathCollection_5"/>
   <g id="line2d_25">
    <path clip-path="url(#pf890278bb1)" d="M 201.951108 169.637634 
L 203.422129 169.310677 
L 204.893149 168.940537 
L 206.36417 168.527214 
L 207.83519 168.070709 
L 209.306211 167.57102 
L 210.777231 167.028148 
L 212.248252 166.442093 
L 213.719272 165.812855 
L 215.190293 165.140434 
L 216.661313 164.42483 
L 218.132334 163.666043 
L 219.603354 162.864073 
L 221.074375 162.018921 
L 222.545395 161.130585 
L 224.016416 160.199066 
L 225.487436 159.224364 
L 226.958457 158.206479 
L 228.429477 157.145411 
L 229.900498 156.041161 
L 231.371518 154.893727 
L 232.842539 153.70311 
L 234.313559 152.46931 
L 235.78458 151.192327 
L 237.2556 149.872162 
L 238.726621 148.508813 
L 240.197641 147.102281 
L 241.668662 145.652566 
L 243.139682 144.159669 
L 244.610703 142.623588 
L 246.081723 141.044324 
L 247.552744 139.421877 
L 249.023764 137.756248 
L 250.494785 136.047435 
L 251.965805 134.295439 
L 253.436826 132.500261 
L 254.907846 130.661899 
L 256.378867 128.780354 
L 257.849887 126.855627 
L 259.320908 124.887716 
L 260.791928 122.876622 
L 262.262949 120.822346 
L 263.733969 118.724886 
L 265.20499 116.584243 
L 266.67601 114.400418 
L 268.147031 112.173409 
L 269.618051 109.903218 
L 271.089072 107.589843 
L 272.560092 105.233285 
L 274.031113 102.833545 
L 275.502133 100.390621 
L 276.973154 97.904515 
L 278.444174 95.375225 
L 279.915195 92.802752 
L 281.386215 90.187097 
L 282.857236 87.528258 
L 284.328256 84.826237 
L 285.799277 82.081032 
L 287.270297 79.292645 
L 288.741318 76.461074 
L 290.212338 73.586321 
L 291.683359 70.668384 
L 293.154379 67.707265 
L 294.6254 64.702962 
L 296.09642 61.655477 
L 297.567441 58.564808 
L 299.038461 55.430957 
L 300.509482 52.253922 
L 301.980502 49.033705 
L 303.451523 45.770305 
L 304.922543 42.463721 
L 306.393564 39.113955 
L 307.864584 35.721005 
L 309.335605 32.284873 
L 310.806625 28.805557 
L 312.277646 25.283059 
L 313.748666 21.717378 
L 315.219687 18.108513 
L 316.690707 14.456466 
L 318.161727 10.761236 
L 319.632748 7.022822 
L 321.103768 3.241226 
L 322.574789 -0.583554 
L 322.733167 -1 
" style="fill:none;stroke:#aaaaaa;stroke-linecap:round;stroke-width:1.5;"/>
   </g>
   <g id="line2d_26">
    <path clip-path="url(#pf890278bb1)" d="M 201.951108 169.5482 
L 203.422129 169.178501 
L 204.893149 168.732877 
L 206.36417 168.212654 
L 207.83519 167.61916 
L 209.306211 166.953723 
L 210.777231 166.217672 
L 212.248252 165.412333 
L 213.719272 164.539035 
L 215.190293 163.599106 
L 216.661313 162.593872 
L 218.132334 161.524664 
L 219.603354 160.392807 
L 221.074375 159.19963 
L 222.545395 157.94646 
L 224.016416 156.634626 
L 225.487436 155.265456 
L 226.958457 153.840277 
L 228.429477 152.360417 
L 229.900498 150.827203 
L 231.371518 149.241965 
L 232.842539 147.606029 
L 234.313559 145.920723 
L 235.78458 144.187375 
L 237.2556 142.407314 
L 238.726621 140.581866 
L 240.197641 138.712361 
L 241.668662 136.800124 
L 243.139682 134.846486 
L 244.610703 132.852772 
L 246.081723 130.820311 
L 247.552744 128.750432 
L 249.023764 126.644461 
L 250.494785 124.503726 
L 251.965805 122.329556 
L 253.436826 120.123279 
L 254.907846 117.886221 
L 256.378867 115.619711 
L 257.849887 113.325077 
L 259.320908 111.003647 
L 260.791928 108.656748 
L 262.262949 106.285708 
L 263.733969 103.891855 
L 265.20499 101.476517 
L 266.67601 99.041022 
L 268.147031 96.586698 
L 269.618051 94.114872 
L 271.089072 91.626872 
L 272.560092 89.124026 
L 274.031113 86.607662 
L 275.502133 84.079109 
L 276.973154 81.539692 
L 278.444174 78.990741 
L 279.915195 76.433584 
L 281.386215 73.869547 
L 282.857236 71.299959 
L 284.328256 68.726148 
L 285.799277 66.149442 
L 287.270297 63.571168 
L 288.741318 60.992655 
L 290.212338 58.415229 
L 291.683359 55.84022 
L 293.154379 53.268954 
L 294.6254 50.70276 
L 296.09642 48.142966 
L 297.567441 45.590898 
L 299.038461 43.047886 
L 300.509482 40.515257 
L 301.980502 37.994339 
L 303.451523 35.486459 
L 304.922543 32.992946 
L 306.393564 30.515127 
L 307.864584 28.05433 
L 309.335605 25.611883 
L 310.806625 23.189114 
L 312.277646 20.78735 
L 313.748666 18.40792 
L 315.219687 16.052152 
L 316.690707 13.721372 
L 318.161727 11.41691 
L 319.632748 9.140092 
L 321.103768 6.892247 
L 322.574789 4.674702 
L 324.045809 2.488786 
L 325.51683 0.335826 
L 326.444309 -1 
" style="fill:none;stroke:#555555;stroke-dasharray:6,2.25;stroke-dashoffset:0;stroke-width:1.5;"/>
   </g>
   <g id="line2d_27"/>
   <g id="line2d_28"/>
   <g id="patch_9">
    <path d="M 196.75 176.488647 
L 196.75 25.766376 
" style="fill:none;stroke:#262626;stroke-linecap:square;stroke-linejoin:miter;stroke-width:0.8;"/>
   </g>
   <g id="patch_10">
    <path d="M 311.17438 176.488647 
L 311.17438 25.766376 
" style="fill:none;stroke:#262626;stroke-linecap:square;stroke-linejoin:miter;stroke-width:0.8;"/>
   </g>
   <g id="patch_11">
    <path d="M 196.75 176.488647 
L 311.17438 176.488647 
" style="fill:none;stroke:#262626;stroke-linecap:square;stroke-linejoin:miter;stroke-width:0.8;"/>
   </g>
   <g id="patch_12">
    <path d="M 196.75 25.766376 
L 311.17438 25.766376 
" style="fill:none;stroke:#262626;stroke-linecap:square;stroke-linejoin:miter;stroke-width:0.8;"/>
   </g>
   <g id="text_31">
    <!-- b) state specific -->
    <g style="fill:#262626;" transform="translate(213.73914 19.766376)scale(0.12 -0.12)">
     <defs>
      <path d="M 15 69 
L 3.09375 67.890625 
L 3.09375 65.296875 
C 9 65.296875 9.90625 64.703125 9.90625 60.046875 
L 9.90625 -0.203125 
L 11.703125 -0.203125 
L 14.59375 6.953125 
C 17.5 2.203125 21.796875 -1 27.59375 -1 
C 37.59375 -1 47.703125 7.859375 47.703125 21.59375 
C 47.703125 34.515625 38.703125 44 28.59375 44 
C 22.40625 44 18 40.671875 15 36.734375 
z
M 15.203125 31.59375 
C 15.203125 33.40625 15.203125 33.703125 16.59375 35.828125 
C 20.5 41.890625 26.09375 42.390625 28 42.390625 
C 31 42.390625 41.296875 40.78125 41.296875 21.6875 
C 41.296875 1.703125 29.5 0.59375 27.09375 0.59375 
C 24 0.59375 19.5 1.796875 16.296875 7.65625 
C 15.203125 9.578125 15.203125 9.78125 15.203125 11.59375 
z
" id="CMR17-98"/>
      <path d="M 39.90625 44 
C 37.5 43.890625 30.09375 43.390625 28.203125 43.1875 
C 27.59375 43.09375 27.40625 43.09375 26.203125 43.09375 
L 14.796875 43.09375 
L 14.796875 54.953125 
C 14.796875 64.484375 22.40625 69 28.40625 69 
C 30.296875 69 34.59375 68.484375 36.796875 65 
C 35.796875 65 32.59375 65 32.59375 61.484375 
C 32.59375 59.09375 34.203125 57.890625 36.203125 57.890625 
C 38 57.890625 39.796875 58.890625 39.796875 61.59375 
C 39.796875 66.640625 35 70.59375 28.796875 70.59375 
C 20.90625 70.59375 9.90625 66.015625 9.90625 54.953125 
L 9.90625 43.09375 
L 1.90625 43.09375 
L 1.90625 40.484375 
L 9.90625 40.484375 
L 9.90625 6.90625 
C 9.90625 3.09375 9.5 2.59375 3.09375 2.59375 
L 3.09375 0 
C 5.5 0.1875 9.90625 0.1875 12.40625 0.1875 
C 15 0.1875 19.40625 0.1875 21.796875 0 
L 21.796875 2.59375 
C 15.40625 2.59375 15 3 15 6.90625 
L 15 40.484375 
L 29.703125 40.484375 
C 34 40.484375 34.796875 39.59375 34.796875 35.171875 
L 34.796875 6.90625 
C 34.796875 3.09375 34.40625 2.59375 28 2.59375 
L 28 0 
C 30.40625 0.1875 34.796875 0.1875 37.296875 0.1875 
C 39.90625 0.1875 44.296875 0.1875 46.703125 0 
L 46.703125 2.59375 
C 40.296875 2.59375 39.90625 3 39.90625 6.90625 
z
" id="CMR17-12"/>
     </defs>
     <use transform="scale(0.996264)" xlink:href="#CMR17-98"/>
     <use transform="translate(50.89537 0)scale(0.996264)" xlink:href="#CMR17-41"/>
     <use transform="translate(116.252104 0)scale(0.996264)" xlink:href="#CMR17-115"/>
     <use transform="translate(152.053442 0)scale(0.996264)" xlink:href="#CMR17-116"/>
     <use transform="translate(187.334209 0)scale(0.996264)" xlink:href="#CMR17-97"/>
     <use transform="translate(233.024686 0)scale(0.996264)" xlink:href="#CMR17-116"/>
     <use transform="translate(268.305454 0)scale(0.996264)" xlink:href="#CMR17-101"/>
     <use transform="translate(338.867081 0)scale(0.996264)" xlink:href="#CMR17-115"/>
     <use transform="translate(374.668419 0)scale(0.996264)" xlink:href="#CMR17-112"/>
     <use transform="translate(428.166227 0)scale(0.996264)" xlink:href="#CMR17-101"/>
     <use transform="translate(468.651888 0)scale(0.996264)" xlink:href="#CMR17-99"/>
     <use transform="translate(509.137548 0)scale(0.996264)" xlink:href="#CMR17-105"/>
     <use transform="translate(534.008607 0)scale(0.996264)" xlink:href="#CMR17-12"/>
     <use transform="translate(583.75083 0)scale(0.996264)" xlink:href="#CMR17-99"/>
    </g>
   </g>
   <g id="legend_2">
    <g id="patch_13">
     <path d="M 203.75 77.658242 
L 279.475008 77.658242 
Q 281.475008 77.658242 281.475008 75.658242 
L 281.475008 32.766376 
Q 281.475008 30.766376 279.475008 30.766376 
L 203.75 30.766376 
Q 201.75 30.766376 201.75 32.766376 
L 201.75 75.658242 
Q 201.75 77.658242 203.75 77.658242 
z
" style="fill:#ffffff;opacity:0.8;stroke:#cccccc;stroke-linejoin:miter;"/>
    </g>
    <g id="line2d_29">
     <path d="M 205.75 38.864814 
L 225.75 38.864814 
" style="fill:none;stroke:#aaaaaa;stroke-linecap:round;stroke-width:1.5;"/>
    </g>
    <g id="line2d_30"/>
    <g id="text_32">
     <!-- $J$ -->
     <g style="fill:#262626;" transform="translate(233.75 42.364814)scale(0.1 -0.1)">
      <use transform="scale(0.996264)" xlink:href="#CMMI12-74"/>
     </g>
    </g>
    <g id="line2d_31">
     <path d="M 205.75 53.542939 
L 225.75 53.542939 
" style="fill:none;stroke:#555555;stroke-dasharray:6,2.25;stroke-dashoffset:0;stroke-width:1.5;"/>
    </g>
    <g id="line2d_32"/>
    <g id="text_33">
     <!-- $J$\&amp;$\lambda$ -->
     <g style="fill:#262626;" transform="translate(233.75 57.042939)scale(0.1 -0.1)">
      <use transform="scale(0.996264)" xlink:href="#CMMI12-74"/>
      <use transform="translate(63.142671 0)scale(0.996264)" xlink:href="#CMR17-38"/>
      <use transform="translate(134.857459 0)scale(0.996264)" xlink:href="#CMMI12-21"/>
     </g>
    </g>
    <g id="PathCollection_6">
     <g>
      <use style="fill:#333333;stroke:#333333;" x="215.75" xlink:href="#m062f578dab" y="69.096064"/>
     </g>
    </g>
    <g id="text_34">
     <!-- calculated -->
     <g style="fill:#262626;" transform="translate(233.75 71.721064)scale(0.1 -0.1)">
      <use transform="scale(0.996264)" xlink:href="#CMR17-99"/>
      <use transform="translate(40.48566 0)scale(0.996264)" xlink:href="#CMR17-97"/>
      <use transform="translate(86.176138 0)scale(0.996264)" xlink:href="#CMR17-108"/>
      <use transform="translate(111.047196 0)scale(0.996264)" xlink:href="#CMR17-99"/>
      <use transform="translate(151.532857 0)scale(0.996264)" xlink:href="#CMR17-117"/>
      <use transform="translate(202.428226 0)scale(0.996264)" xlink:href="#CMR17-108"/>
      <use transform="translate(227.299285 0)scale(0.996264)" xlink:href="#CMR17-97"/>
      <use transform="translate(272.989762 0)scale(0.996264)" xlink:href="#CMR17-116"/>
      <use transform="translate(308.27053 0)scale(0.996264)" xlink:href="#CMR17-101"/>
      <use transform="translate(348.75619 0)scale(0.996264)" xlink:href="#CMR17-100"/>
     </g>
    </g>
   </g>
  </g>
 </g>
 <defs>
  <clipPath id="pec24ffb1a4">
   <rect height="150.72227" width="114.42438" x="52.32562" y="25.766376"/>
  </clipPath>
  <clipPath id="pf890278bb1">
   <rect height="150.72227" width="114.42438" x="196.75" y="25.766376"/>
  </clipPath>
 </defs>
</svg>
