<?xml version="1.0" encoding="UTF-8" standalone="no"?>
<!-- Created with matplotlib (https://matplotlib.org/) -->

<svg
   height="210.93774pt"
   version="1.1"
   viewBox="0 0 419.62371 210.93774"
   width="419.62372pt"
   id="svg686"
   sodipodi:docname="j_fit_.svg"
   inkscape:version="1.1.1 (1:1.1+202109281949+c3084ef5ed)"
   inkscape:export-filename="/home/spiller/phd/thesis/results/sesub/dimer/j_fit.png"
   inkscape:export-xdpi="250"
   inkscape:export-ydpi="250"
   xmlns:inkscape="http://www.inkscape.org/namespaces/inkscape"
   xmlns:sodipodi="http://sodipodi.sourceforge.net/DTD/sodipodi-0.dtd"
   xmlns:xlink="http://www.w3.org/1999/xlink"
   xmlns="http://www.w3.org/2000/svg"
   xmlns:svg="http://www.w3.org/2000/svg"
   xmlns:rdf="http://www.w3.org/1999/02/22-rdf-syntax-ns#"
   xmlns:cc="http://creativecommons.org/ns#"
   xmlns:dc="http://purl.org/dc/elements/1.1/">
  <sodipodi:namedview
     id="namedview688"
     pagecolor="#ffffff"
     bordercolor="#666666"
     borderopacity="1.0"
     inkscape:pageshadow="2"
     inkscape:pageopacity="0.0"
     inkscape:pagecheckerboard="0"
     inkscape:document-units="pt"
     showgrid="false"
     fit-margin-top="5"
     lock-margins="true"
     fit-margin-left="5"
     fit-margin-right="5"
     fit-margin-bottom="5"
     inkscape:zoom="2.4965278"
     inkscape:cx="161.62448"
     inkscape:cy="155.61613"
     inkscape:window-width="1920"
     inkscape:window-height="1016"
     inkscape:window-x="0"
     inkscape:window-y="0"
     inkscape:window-maximized="1"
     inkscape:current-layer="axes_1" />
  <metadata
     id="metadata2">
    <rdf:RDF>
      <cc:Work>
        <dc:type
           rdf:resource="http://purl.org/dc/dcmitype/StillImage" />
        <dc:date>2021-10-22T18:19:44.882188</dc:date>
        <dc:format>image/svg+xml</dc:format>
        <dc:creator>
          <cc:Agent>
            <dc:title>Matplotlib v3.3.4, https://matplotlib.org/</dc:title>
          </cc:Agent>
        </dc:creator>
      </cc:Work>
    </rdf:RDF>
  </metadata>
  <defs
     id="defs6">
    <style
       type="text/css"
       id="style4">*{stroke-linecap:butt;stroke-linejoin:round;}</style>
  </defs>
  <g
     id="axes_1"
     transform="translate(-5.6915339,0.68239)">
    <g
       id="patch_2">
      <path
         d="M 52.32562,176.48865 H 166.75 V 25.766376 H 52.32562 Z"
         style="fill:#ffffff"
         id="path11" />
    </g>
    <g
       id="matplotlib.axis_1">
      <g
         id="xtick_1">
        <g
           id="text_1">
          <!-- 0 -->
          <g
             style="fill:#262626"
             transform="matrix(0.1,0,0,-0.1,55.03606,190.40715)"
             id="g19">
            <defs
               id="defs15">
              <path
                 d="m 42,31.84375 c 0,6.125 -0.09375,16.578125 -4.296875,24.609375 C 34,63.484375 28.09375,66 22.90625,66 18.09375,66 12,63.78125 8.203125,56.5625 4.203125,49.015625 3.796875,39.671875 3.796875,31.84375 3.796875,26.109375 3.90625,17.375 7,9.734375 11.296875,-0.609375 19,-2 22.90625,-2 27.5,-2 34.5,-0.109375 38.59375,9.4375 41.59375,16.375 42,24.5 42,31.84375 Z m -19.09375,-32.25 C 16.5,-0.40625 12.703125,5.125 11.296875,12.75 c -1.09375,5.9375 -1.09375,14.578125 -1.09375,20.203125 0,7.734375 0,14.15625 1.296875,20.28125 1.90625,8.546875 7.5,11.15625 11.40625,11.15625 4.09375,0 9.390625,-2.71875 11.296875,-10.953125 C 35.5,47.71875 35.59375,40.984375 35.59375,32.953125 c 0,-6.53125 0,-14.578125 -1.1875,-20.5 -2.109375,-10.953125 -8,-12.859375 -11.5,-12.859375 z"
                 id="CMR17-48" />
            </defs>
            <use
               transform="scale(0.996264)"
               xlink:href="#CMR17-48"
               id="use17"
               x="0"
               y="0"
               width="100%"
               height="100%" />
          </g>
        </g>
      </g>
      <g
         id="xtick_2">
        <g
           id="text_2">
          <!-- 1 -->
          <g
             style="fill:#262626"
             transform="matrix(0.1,0,0,-0.1,75.840493,190.40715)"
             id="g28">
            <defs
               id="defs24">
              <path
                 d="M 26.59375,63.796875 C 26.59375,65.890625 26.5,66 25.09375,66 21.203125,61.359375 15.296875,59.890625 9.703125,59.6875 c -0.296875,0 -0.796875,0 -0.90625,-0.1875 C 8.703125,59.296875 8.703125,59.09375 8.703125,57 11.796875,57 17,57.59375 21,59.984375 v -52.6875 c 0,-3.5 -0.203125,-4.703125 -8.796875,-4.703125 h -3 V 0 C 14,0.09375 19,0.1875 23.796875,0.1875 28.59375,0.1875 33.59375,0.09375 38.40625,0 v 2.59375 h -3 c -8.609375,0 -8.8125,1.09375 -8.8125,4.703125 z"
                 id="CMR17-49" />
            </defs>
            <use
               transform="scale(0.996264)"
               xlink:href="#CMR17-49"
               id="use26"
               x="0"
               y="0"
               width="100%"
               height="100%" />
          </g>
        </g>
      </g>
      <g
         id="xtick_3">
        <g
           id="text_3">
          <!-- 2 -->
          <g
             style="fill:#262626"
             transform="matrix(0.1,0,0,-0.1,96.644926,190.40715)"
             id="g37">
            <defs
               id="defs33">
              <path
                 d="M 41.703125,15.46875 H 39.90625 c -1,-7.078125 -1.8125,-8.28125 -2.203125,-8.875 C 37.203125,5.796875 30,5.796875 28.59375,5.796875 H 9.40625 C 13,9.6875 20,16.765625 28.5,24.9375 34.59375,30.71875 41.703125,37.5 41.703125,47.390625 41.703125,59.1875 32.296875,66 21.796875,66 c -11,0 -17.703125,-9.703125 -17.703125,-18.703125 0,-3.90625 2.90625,-4.40625 4.109375,-4.40625 1,0 4,0.59375 4,4.09375 C 12.203125,50.09375 9.59375,51 8.203125,51 7.59375,51 7,50.890625 6.59375,50.6875 c 1.90625,8.5 7.703125,12.703125 13.8125,12.703125 8.6875,0 14.390625,-6.890625 14.390625,-16 0,-8.6875 -5.09375,-16.171875 -10.796875,-22.65625 L 4.09375,2.296875 V 0 h 35.203125 z"
                 id="CMR17-50" />
            </defs>
            <use
               transform="scale(0.996264)"
               xlink:href="#CMR17-50"
               id="use35"
               x="0"
               y="0"
               width="100%"
               height="100%" />
          </g>
        </g>
      </g>
      <g
         id="xtick_4">
        <g
           id="text_4">
          <!-- 3 -->
          <g
             style="fill:#262626"
             transform="matrix(0.1,0,0,-0.1,117.44936,190.40715)"
             id="g46">
            <defs
               id="defs42">
              <path
                 d="M 22.09375,34 C 31,34 34.90625,26.140625 34.90625,17.09375 34.90625,5.03125 28.5,0.390625 22.703125,0.390625 c -5.296875,0 -13.90625,2.625 -16.609375,10.40625 0.5,-0.203125 1,-0.203125 1.5,-0.203125 2.40625,0 4.203125,1.59375 4.203125,4.203125 C 11.796875,17.6875 9.59375,19 7.59375,19 5.90625,19 3.296875,18.1875 3.296875,14.484375 3.296875,5.234375 12.296875,-2 22.90625,-2 34,-2 42.5,6.75 42.5,16.984375 42.5,26.84375 34.5,34 25,35.09375 32.59375,36.671875 39.90625,43.375 39.90625,52.390625 39.90625,60.25 32,66 23,66 13.90625,66 5.90625,60.34375 5.90625,52.296875 c 0,-3.5 2.59375,-4.109375 3.890625,-4.109375 2.109375,0 3.90625,1.296875 3.90625,3.90625 C 13.703125,54.6875 11.90625,56 9.796875,56 9.40625,56 8.90625,56 8.5,55.796875 c 2.90625,6.6875 10.796875,7.890625 14.296875,7.890625 3.5,0 10.109375,-1.71875 10.109375,-11.390625 0,-2.8125 -0.40625,-7.75 -3.8125,-12.078125 -3,-3.828125 -6.390625,-4.03125 -9.6875,-4.328125 -0.5,0 -2.8125,-0.203125 -3.203125,-0.203125 C 15.5,35.59375 15.09375,35.5 15.09375,34.796875 15.09375,34.09375 15.203125,34 17.203125,34 Z"
                 id="CMR17-51" />
            </defs>
            <use
               transform="scale(0.996264)"
               xlink:href="#CMR17-51"
               id="use44"
               x="0"
               y="0"
               width="100%"
               height="100%" />
          </g>
        </g>
      </g>
      <g
         id="xtick_5">
        <g
           id="text_5">
          <!-- 4 -->
          <g
             style="fill:#262626"
             transform="matrix(0.1,0,0,-0.1,138.25379,190.40715)"
             id="g55">
            <defs
               id="defs51">
              <path
                 d="M 33.59375,64.796875 C 33.59375,66.890625 33.5,67 31.703125,67 L 2,19.59375 V 17 H 27.796875 V 7.1875 c 0,-3.59375 -0.203125,-4.59375 -7.203125,-4.59375 H 18.703125 V 0 c 3.203125,0.1875 8.59375,0.1875 12,0.1875 3.390625,0 8.796875,0 12,-0.1875 v 2.59375 h -1.90625 c -7,0 -7.203125,1 -7.203125,4.59375 V 17 h 10.203125 v 2.59375 H 33.59375 Z m -5.5,-6.625 V 19.59375 H 4 Z"
                 id="CMR17-52" />
            </defs>
            <use
               transform="scale(0.996264)"
               xlink:href="#CMR17-52"
               id="use53"
               x="0"
               y="0"
               width="100%"
               height="100%" />
          </g>
        </g>
      </g>
      <g
         id="xtick_6">
        <g
           id="text_6">
          <!-- 5 -->
          <g
             style="fill:#262626"
             transform="matrix(0.1,0,0,-0.1,159.05822,190.40715)"
             id="g64">
            <defs
               id="defs60">
              <path
                 d="m 11.40625,58.59375 c 1,-0.40625 5.09375,-1.703125 9.296875,-1.703125 9.296875,0 14.390625,5 17.296875,7.796875 C 38,65.484375 38,66 37.40625,66 c -0.109375,0 -0.3125,0 -1.109375,-0.40625 -3.5,-1.5 -7.59375,-2.59375 -12.59375,-2.59375 -3,0 -7.5,0.359375 -12.40625,2.484375 C 10.203125,66 10,66 9.90625,66 9.40625,66 9.296875,65.890625 9.296875,63.90625 V 34.859375 c 0,-1.84375 0,-2.359375 1,-2.359375 0.5,0 0.703125,0.203125 1.203125,0.921875 C 14.703125,38.046875 19.09375,40 24.09375,40 c 3.5,0 11,-2.265625 11,-19.796875 0,-3.21875 0,-9.015625 -3,-13.609375 -2.5,-4.109375 -6.390625,-6.203125 -10.6875,-6.203125 -6.609375,0 -13.3125,4.59375 -15.109375,12.296875 C 6.703125,12.59375 7.5,12.390625 7.90625,12.390625 c 1.296875,0 3.796875,0.703125 3.796875,3.796875 C 11.703125,18.890625 9.796875,20 7.90625,20 5.59375,20 4.09375,18.59375 4.09375,15.796875 4.09375,7.09375 11,-2 21.59375,-2 c 10.3125,0 20.109375,8.890625 20.109375,21.796875 0,12.296875 -7.796875,21.796875 -17.5,21.796875 -5.109375,0 -9.40625,-1.90625 -12.796875,-5.59375 z"
                 id="CMR17-53" />
            </defs>
            <use
               transform="scale(0.996264)"
               xlink:href="#CMR17-53"
               id="use62"
               x="0"
               y="0"
               width="100%"
               height="100%" />
          </g>
        </g>
      </g>
      <g
         id="text_7">
        <!-- spin state $S$ -->
        <g
           style="fill:#262626"
           transform="matrix(0.1,0,0,-0.1,83.735232,203.26282)"
           id="g98">
          <defs
             id="defs76">
            <path
               d="m 30.90625,42 c 0,1.796875 -0.109375,1.890625 -0.703125,1.890625 -0.40625,0 -0.5,-0.09375 -1.703125,-1.59375 C 28.203125,41.890625 27.296875,40.890625 27,40.5 23.796875,43.890625 19.296875,44 17.59375,44 6.5,44 2.5,38.1875 2.5,32.390625 c 0,-9 10.203125,-11.09375 13.09375,-11.703125 6.3125,-1.296875 8.5,-1.6875 10.609375,-3.5 1.296875,-1.1875 3.5,-3.390625 3.5,-7 C 29.703125,6 27.296875,0.59375 18.09375,0.59375 9.40625,0.59375 6.296875,7.1875 4.5,16 4.203125,17.390625 4.203125,17.5 3.40625,17.5 2.59375,17.5 2.5,17.390625 2.5,15.390625 V 1 c 0,-1.8125 0.09375,-1.90625 0.703125,-1.90625 0.5,0 0.59375,0.09375 1.09375,0.90625 C 4.90625,0.890625 6.40625,3.296875 7,4.296875 9,1.59375 12.5,-1 18.09375,-1 28,-1 33.296875,4.390625 33.296875,12.1875 c 0,5.109375 -2.703125,7.8125 -4,9 -3,3.109375 -6.5,3.8125 -10.703125,4.609375 -5.5,1.203125 -12.5,2.59375 -12.5,8.703125 0,2.59375 1.40625,8.09375 11.5,8.09375 10.703125,0 11.3125,-10 11.5,-13.203125 0.109375,-0.5 0.609375,-0.59375 0.90625,-0.59375 0.90625,0 0.90625,0.296875 0.90625,2 z"
               id="CMR17-115" />
            <path
               d="m 22,-17.40625 c -6.40625,0 -6.796875,0.40625 -6.796875,4.375 V 5.9375 C 18.09375,1.703125 22.296875,-1 27.59375,-1 c 10,0 20.109375,8.859375 20.109375,22.59375 C 47.703125,34.3125 39,44 28.703125,44 22.703125,44 17.796875,40.671875 15,36.640625 V 44 L 3.09375,42.890625 v -2.625 c 5.90625,0 6.8125,-0.59375 6.8125,-5.453125 v -47.84375 c 0,-3.859375 -0.40625,-4.375 -6.8125,-4.375 V -20 c 2.40625,0.1875 6.8125,0.1875 9.40625,0.1875 2.59375,0 7.09375,0 9.5,-0.1875 z m -6.796875,48.890625 c 0,1.421875 0,3.53125 3.890625,7.28125 C 19.59375,39.15625 23,42.1875 28,42.1875 35.296875,42.1875 41.296875,33 41.296875,21.5 41.296875,9.984375 34.90625,0.59375 27,0.59375 23.40625,0.59375 19.5,2.3125 16.5,7.046875 15.203125,9.28125 15.203125,9.875 15.203125,11.5 Z"
               id="CMR17-112" />
            <path
               d="M 15.5,61.890625 C 15.5,64.09375 13.703125,66 11.40625,66 9.203125,66 7.296875,64.1875 7.296875,61.890625 c 0,-2.203125 1.796875,-4.09375 4.109375,-4.09375 2.1875,0 4.09375,1.796875 4.09375,4.09375 z m -11.703125,-19 v -2.59375 c 5.609375,0 6.40625,-0.609375 6.40625,-5.4375 V 6.921875 C 10.203125,3.09375 9.796875,2.59375 3.40625,2.59375 V 0 c 2.390625,0.1875 6.6875,0.1875 9.1875,0.1875 2.40625,0 6.5,0 8.8125,-0.1875 v 2.59375 c -5.90625,0 -6.109375,0.609375 -6.109375,4.21875 V 44 Z"
               id="CMR17-105" />
            <path
               d="M 41.5,30.53125 C 41.5,35.65625 40.5,44 28.703125,44 c -7.90625,0 -12,-6.125 -13.5,-10.15625 H 15.09375 V 44 L 3.296875,42.890625 V 40.28125 c 5.90625,0 6.796875,-0.59375 6.796875,-5.421875 V 6.921875 C 10.09375,3.09375 9.703125,2.59375 3.296875,2.59375 V 0 c 2.40625,0.1875 6.796875,0.1875 9.40625,0.1875 2.59375,0 7.09375,0 9.5,-0.1875 V 2.59375 C 15.796875,2.59375 15.40625,3 15.40625,6.921875 V 26.21875 C 15.40625,35.453125 21,42.390625 28,42.390625 c 7.40625,0 8.203125,-6.625 8.203125,-11.453125 V 6.921875 c 0,-3.828125 -0.40625,-4.328125 -6.796875,-4.328125 V 0 c 2.390625,0.1875 6.796875,0.1875 9.390625,0.1875 2.609375,0 7.109375,0 9.5,-0.1875 V 2.59375 C 41.90625,2.59375 41.5,3 41.5,6.921875 Z"
               id="CMR17-110" />
            <path
               d="m 15.09375,40.390625 h 14 V 43 h -14 V 62 H 13.296875 C 13.09375,51.4375 9.59375,42.1875 1.09375,41.984375 v -1.59375 H 9.796875 V 12.15625 c 0,-1.921875 0,-13.15625 11.609375,-13.15625 5.890625,0 9.296875,5.8125 9.296875,13.25 v 5.734375 H 28.90625 V 12.34375 C 28.90625,5.421875 26.203125,0.796875 22,0.796875 c -2.90625,0 -6.90625,2 -6.90625,11.15625 z"
               id="CMR17-116" />
            <path
               d="M 36,25.875 C 36,32 36,35.546875 31.796875,39.59375 28.09375,42.984375 23.796875,44 20.40625,44 12.5,44 6.796875,37.625 6.796875,30.890625 6.796875,27.1875 9.796875,27 10.40625,27 11.703125,27 14,27.796875 14,30.59375 c 0,2.5 -1.90625,3.59375 -3.59375,3.59375 C 10,34.1875 9.5,34.09375 9.203125,34 c 2.09375,6.53125 7.5,8.390625 11,8.390625 5,0 10.5,-4.5625 10.5,-13.09375 V 25.5 c -5.90625,-0.203125 -13,-1 -18.609375,-4.046875 C 5.796875,17.921875 4,12.84375 4,9 4,1.203125 13,-1 18.296875,-1 c 5.5,0 10.609375,3.109375 12.796875,8.890625 0.203125,-4.46875 3,-8.5 7.40625,-8.5 2.09375,0 7.40625,1.40625 7.40625,9.40625 v 5.671875 h -1.8125 V 8.703125 c 0,-6.1875 -2.6875,-7 -4,-7 C 36,1.703125 36,6.96875 36,11.4375 Z M 30.703125,13.859375 C 30.703125,5.046875 24.5,0.59375 19,0.59375 c -5,0 -8.90625,3.75 -8.90625,8.40625 0,3.046875 1.3125,8.40625 7.109375,11.65625 C 22,23.390625 27.5,23.796875 30.703125,24 Z"
               id="CMR17-97" />
            <path
               d="M 38.09375,23.484375 C 38.5,23.890625 38.5,24.09375 38.5,25.09375 38.5,35.171875 33.09375,44 21.703125,44 c -10.609375,0 -19,-10.015625 -19,-22.21875 C 2.703125,8.65625 12.203125,-1 22.796875,-1 34,-1 38.40625,9.671875 38.40625,11.796875 38.40625,12.5 37.796875,12.5 37.59375,12.5 c -0.6875,0 -0.796875,-0.203125 -1.1875,-1.421875 C 34.203125,4.21875 28.703125,0.796875 23.5,0.796875 19.203125,0.796875 14.90625,3.21875 12.203125,7.65625 9.09375,12.796875 9.09375,18.75 9.09375,23.484375 Z M 9.203125,25 C 9.90625,39.234375 17.59375,42.390625 21.59375,42.390625 28.40625,42.390625 33,36.0625 33.09375,25 Z"
               id="CMR17-101" />
            <path
               d="M 63.5,69.09375 C 63.5,70 62.796875,70 62.59375,70 c -0.390625,0 -0.5,-0.109375 -1.6875,-1.609375 C 60.296875,67.6875 56.203125,62.53125 56.09375,62.4375 52.796875,68.890625 46.203125,70 42,70 29.296875,70 17.796875,58.46875 17.796875,47.25 c 0,-7.453125 4.5,-11.8125 9.40625,-13.5 1.09375,-0.40625 7,-1.984375 10,-2.6875 5.09375,-1.390625 6.390625,-1.78125 8.5,-3.96875 0.390625,-0.5 2.390625,-2.78125 2.390625,-7.4375 C 48.09375,10.421875 39.5,0.890625 29.5,0.890625 c -8.203125,0 -17.296875,3.46875 -17.296875,14.59375 0,1.890625 0.390625,4.265625 0.703125,5.265625 0,0.296875 0.09375,0.78125 0.09375,0.984375 0,0.40625 -0.203125,0.890625 -1,0.890625 -0.90625,0 -1,-0.1875 -1.40625,-1.875 L 5.5,0.390625 C 5.5,0.296875 5.09375,-1 5.09375,-1.109375 5.09375,-2 5.90625,-2 6.09375,-2 c 0.40625,0 0.5,0.09375 1.703125,1.59375 L 12.40625,5.5625 C 14.796875,1.984375 20,-2 29.296875,-2 42.203125,-2 54,10.421875 54,22.828125 54,27 53,30.671875 49.203125,34.34375 c -2.109375,2.078125 -3.90625,2.578125 -13.109375,4.96875 -6.6875,1.78125 -7.59375,2.078125 -9.390625,3.671875 -1.703125,1.6875 -3,4.0625 -3,7.4375 0,8.34375 8.5,16.875 18,16.875 9.796875,0 14.390625,-5.953125 14.390625,-15.390625 0,-2.578125 -0.5,-5.25 -0.5,-5.65625 0,-0.890625 0.8125,-0.890625 1.109375,-0.890625 0.890625,0 1,0.296875 1.390625,1.890625 z"
               id="CMMI12-83" />
          </defs>
          <use
             transform="scale(0.996264)"
             xlink:href="#CMR17-115"
             id="use78"
             x="0"
             y="0"
             width="100%"
             height="100%" />
          <use
             transform="matrix(0.996264,0,0,0.996264,35.801338,0)"
             xlink:href="#CMR17-112"
             id="use80"
             x="0"
             y="0"
             width="100%"
             height="100%" />
          <use
             transform="matrix(0.996264,0,0,0.996264,86.696707,0)"
             xlink:href="#CMR17-105"
             id="use82"
             x="0"
             y="0"
             width="100%"
             height="100%" />
          <use
             transform="matrix(0.996264,0,0,0.996264,111.56777,0)"
             xlink:href="#CMR17-110"
             id="use84"
             x="0"
             y="0"
             width="100%"
             height="100%" />
          <use
             transform="matrix(0.996264,0,0,0.996264,192.5391,0)"
             xlink:href="#CMR17-115"
             id="use86"
             x="0"
             y="0"
             width="100%"
             height="100%" />
          <use
             transform="matrix(0.996264,0,0,0.996264,228.34044,0)"
             xlink:href="#CMR17-116"
             id="use88"
             x="0"
             y="0"
             width="100%"
             height="100%" />
          <use
             transform="matrix(0.996264,0,0,0.996264,263.62121,0)"
             xlink:href="#CMR17-97"
             id="use90"
             x="0"
             y="0"
             width="100%"
             height="100%" />
          <use
             transform="matrix(0.996264,0,0,0.996264,309.31168,0)"
             xlink:href="#CMR17-116"
             id="use92"
             x="0"
             y="0"
             width="100%"
             height="100%" />
          <use
             transform="matrix(0.996264,0,0,0.996264,344.59245,0)"
             xlink:href="#CMR17-101"
             id="use94"
             x="0"
             y="0"
             width="100%"
             height="100%" />
          <use
             transform="matrix(0.996264,0,0,0.996264,415.15408,0)"
             xlink:href="#CMMI12-83"
             id="use96"
             x="0"
             y="0"
             width="100%"
             height="100%" />
        </g>
      </g>
    </g>
    <g
       id="matplotlib.axis_2">
      <g
         id="ytick_1">
        <g
           id="line2d_1">
          <path
             clip-path="url(#p5042b5e460)"
             d="M 52.32562,169.63763 H 166.75"
             style="fill:none;stroke:#cccccc;stroke-width:0.8;stroke-linecap:round"
             id="path102" />
        </g>
        <g
           id="text_8">
          <!-- $\mathdefault{0}$ -->
          <g
             style="fill:#262626"
             transform="matrix(0.1,0,0,-0.1,40.344285,173.09688)"
             id="g107">
            <use
               transform="scale(0.996264)"
               xlink:href="#CMR17-48"
               id="use105"
               x="0"
               y="0"
               width="100%"
               height="100%" />
          </g>
        </g>
      </g>
      <g
         id="ytick_2">
        <g
           id="line2d_2">
          <path
             clip-path="url(#p5042b5e460)"
             d="M 52.32562,133.45817 H 166.75"
             style="fill:none;stroke:#cccccc;stroke-width:0.8;stroke-linecap:round"
             id="path111" />
        </g>
        <g
           id="text_9">
          <!-- $\mathdefault{1000}$ -->
          <g
             style="fill:#262626"
             transform="matrix(0.1,0,0,-0.1,25.400279,136.91742)"
             id="g122">
            <use
               transform="scale(0.996264)"
               xlink:href="#CMR17-49"
               id="use114"
               x="0"
               y="0"
               width="100%"
               height="100%" />
            <use
               transform="matrix(0.996264,0,0,0.996264,45.690477,0)"
               xlink:href="#CMR17-48"
               id="use116"
               x="0"
               y="0"
               width="100%"
               height="100%" />
            <use
               transform="matrix(0.996264,0,0,0.996264,91.380954,0)"
               xlink:href="#CMR17-48"
               id="use118"
               x="0"
               y="0"
               width="100%"
               height="100%" />
            <use
               transform="matrix(0.996264,0,0,0.996264,137.07143,0)"
               xlink:href="#CMR17-48"
               id="use120"
               x="0"
               y="0"
               width="100%"
               height="100%" />
          </g>
        </g>
      </g>
      <g
         id="ytick_3">
        <g
           id="line2d_3">
          <path
             clip-path="url(#p5042b5e460)"
             d="M 52.32562,97.278713 H 166.75"
             style="fill:none;stroke:#cccccc;stroke-width:0.8;stroke-linecap:round"
             id="path126" />
        </g>
        <g
           id="text_10">
          <!-- $\mathdefault{2000}$ -->
          <g
             style="fill:#262626"
             transform="matrix(0.1,0,0,-0.1,25.400279,100.73796)"
             id="g137">
            <use
               transform="scale(0.996264)"
               xlink:href="#CMR17-50"
               id="use129"
               x="0"
               y="0"
               width="100%"
               height="100%" />
            <use
               transform="matrix(0.996264,0,0,0.996264,45.690477,0)"
               xlink:href="#CMR17-48"
               id="use131"
               x="0"
               y="0"
               width="100%"
               height="100%" />
            <use
               transform="matrix(0.996264,0,0,0.996264,91.380954,0)"
               xlink:href="#CMR17-48"
               id="use133"
               x="0"
               y="0"
               width="100%"
               height="100%" />
            <use
               transform="matrix(0.996264,0,0,0.996264,137.07143,0)"
               xlink:href="#CMR17-48"
               id="use135"
               x="0"
               y="0"
               width="100%"
               height="100%" />
          </g>
        </g>
      </g>
      <g
         id="ytick_4">
        <g
           id="line2d_4">
          <path
             clip-path="url(#p5042b5e460)"
             d="M 52.32562,61.099253 H 166.75"
             style="fill:none;stroke:#cccccc;stroke-width:0.8;stroke-linecap:round"
             id="path141" />
        </g>
        <g
           id="text_11">
          <!-- $\mathdefault{3000}$ -->
          <g
             style="fill:#262626"
             transform="matrix(0.1,0,0,-0.1,25.400279,64.558502)"
             id="g152">
            <use
               transform="scale(0.996264)"
               xlink:href="#CMR17-51"
               id="use144"
               x="0"
               y="0"
               width="100%"
               height="100%" />
            <use
               transform="matrix(0.996264,0,0,0.996264,45.690477,0)"
               xlink:href="#CMR17-48"
               id="use146"
               x="0"
               y="0"
               width="100%"
               height="100%" />
            <use
               transform="matrix(0.996264,0,0,0.996264,91.380954,0)"
               xlink:href="#CMR17-48"
               id="use148"
               x="0"
               y="0"
               width="100%"
               height="100%" />
            <use
               transform="matrix(0.996264,0,0,0.996264,137.07143,0)"
               xlink:href="#CMR17-48"
               id="use150"
               x="0"
               y="0"
               width="100%"
               height="100%" />
          </g>
        </g>
      </g>
      <g
         id="text_12">
        <!-- relative energies [\si{\wn}] -->
        <g
           style="fill:#262626"
           transform="matrix(0,-0.1,-0.1,0,18.909619,152.19304)"
           id="g211">
          <defs
             id="defs165">
            <path
               d="m 15,23.703125 c 0,9.640625 4.09375,18.6875 11.59375,18.6875 0.703125,0 1.40625,-0.09375 2.109375,-0.40625 0,0 -2.203125,-0.703125 -2.203125,-3.3125 0,-2.40625 1.90625,-3.40625 3.40625,-3.40625 1.1875,0 3.390625,0.703125 3.390625,3.515625 0,3.203125 -3.203125,5.21875 -6.59375,5.21875 -7.609375,0 -10.90625,-7.4375 -11.90625,-10.953125 h -0.09375 V 44 L 3.09375,42.890625 V 40.28125 c 5.90625,0 6.8125,-0.59375 6.8125,-5.421875 V 6.921875 C 9.90625,3.09375 9.5,2.59375 3.09375,2.59375 V 0 c 2.40625,0.1875 7,0.1875 9.609375,0.1875 2.890625,0 8,0 10.703125,-0.1875 v 2.59375 c -7.203125,0 -8.40625,0 -8.40625,4.515625 z"
               id="CMR17-114" />
            <path
               d="M 15.296875,69 3.40625,67.890625 v -2.59375 c 5.890625,0 6.796875,-0.59375 6.796875,-5.375 V 6.859375 C 10.203125,3.09375 9.796875,2.59375 3.40625,2.59375 V 0 c 2.390625,0.1875 6.796875,0.1875 9.296875,0.1875 2.59375,0 7,0 9.390625,-0.1875 v 2.59375 c -6.390625,0 -6.796875,0.390625 -6.796875,4.265625 z"
               id="CMR17-108" />
            <path
               d="m 39.09375,33.953125 c 0.90625,2.21875 2.5,6.234375 8.3125,6.4375 V 43 C 45.5,42.890625 43,42.796875 41.09375,42.796875 c -2.09375,0 -5.390625,0 -7.390625,0.203125 v -2.609375 c 2.5,-0.203125 3.890625,-1.40625 3.890625,-4.015625 0,-0.90625 0,-1.109375 -0.59375,-2.515625 L 26,5.921875 14.09375,36.0625 C 13.5,37.375 13.5,37.578125 13.5,37.984375 c 0,2.40625 3.296875,2.40625 4.796875,2.40625 V 43 C 15.90625,42.796875 11.5,42.796875 9,42.796875 c -2.703125,0 -5.796875,0 -8,0.203125 v -2.609375 c 3.796875,0 5.90625,0 7.09375,-3.109375 l 14.5,-36.59375 C 23.203125,-0.8125 23.296875,-1 24.203125,-1 c 0.890625,0 1,0.1875 1.59375,1.6875 z"
               id="CMR17-118" />
            <path
               d="M 11.09375,18.203125 C 13,16.6875 16.296875,15 20.296875,15 28.203125,15 35,21.234375 35,29.609375 c 0,2.625 -0.796875,6.65625 -3.796875,9.78125 2.796875,3 6.890625,4 9.203125,4 0.390625,0 1,0 1.5,-0.296875 -0.40625,-0.109375 -1.3125,-0.5 -1.3125,-2.109375 0,-1.296875 0.90625,-2.1875 2.203125,-2.1875 1.5,0 2.296875,1 2.296875,2.296875 0,1.890625 -1.5,3.90625 -4.6875,3.90625 -4,0 -7.5,-1.90625 -10.3125,-4.515625 -3,2.703125 -6.59375,3.703125 -9.796875,3.703125 -7.890625,0 -14.703125,-6.203125 -14.703125,-14.578125 0,-5.75 3.3125,-9.390625 4.3125,-10.390625 -3,-3.53125 -3,-7.625 -3,-8.125 0,-2.59375 1,-6.40625 4.390625,-8.5 C 6.09375,1.28125 2,-2.875 2,-8.078125 2,-15.5625 11.5,-21 22.90625,-21 c 11,0 20.890625,5.234375 20.890625,13.03125 C 43.796875,6 29,6 21.296875,6 19,6 14.90625,6 14.40625,6.09375 c -3.109375,0.5 -5.203125,3.296875 -5.203125,6.796875 0,0.90625 0,3.109375 1.890625,5.3125 z M 20.296875,16.6875 C 11.5,16.6875 11.5,27.59375 11.5,29.609375 c 0,2.015625 0,12.875 8.796875,12.875 8.796875,0 8.796875,-10.859375 8.796875,-12.875 0,-2.015625 0,-12.921875 -8.796875,-12.921875 z m 2.609375,-36 c -10,0 -16.90625,5.515625 -16.90625,11.234375 0,3.21875 1.703125,6.234375 3.90625,7.90625 2.5,1.765625 3.5,1.765625 10.296875,1.765625 8.203125,0 19.59375,0 19.59375,-9.671875 0,-5.71875 -6.890625,-11.234375 -16.890625,-11.234375 z"
               id="CMR17-103" />
            <path
               d="m 23.5,-25 v 3.5 H 14.09375 V 71.484375 H 23.5 V 75 H 10.59375 V -25 Z"
               id="CMR17-91" />
            <path
               d="M 34.90625,35 C 33,35 30.203125,35 30.203125,31.484375 c 0,-2.796875 2.296875,-3.59375 3.59375,-3.59375 0.703125,0 3.609375,0.296875 3.609375,3.796875 0,7 -6.8125,12.3125 -14.5,12.3125 C 12.296875,44 3.296875,34.390625 3.296875,21.546875 3.296875,8.140625 12.703125,-1 22.90625,-1 c 12.390625,0 15.5,11.5625 15.5,12.671875 0,0.40625 -0.109375,0.703125 -0.8125,0.703125 -0.6875,0 -0.796875,-0.09375 -1.1875,-1.40625 C 33.796875,2.8125 28.09375,0.796875 23.796875,0.796875 c -6.390625,0 -14.09375,5.9375 -14.09375,20.84375 C 9.703125,36.84375 17.09375,42.1875 23,42.1875 c 3.90625,0 9.703125,-1.84375 11.90625,-7.1875 z"
               id="CMR17-99" />
            <path
               d="M 67.59375,30.53125 C 67.59375,35.5625 66.703125,44 54.796875,44 48,44 43.296875,39.375 41.5,33.953125 H 41.40625 C 40.203125,42.1875 34.296875,44 28.703125,44 c -7.90625,0 -12,-6.125 -13.5,-10.15625 H 15.09375 V 44 L 3.296875,42.890625 V 40.28125 c 5.90625,0 6.796875,-0.59375 6.796875,-5.421875 V 6.921875 C 10.09375,3.09375 9.703125,2.59375 3.296875,2.59375 V 0 c 2.40625,0.1875 6.796875,0.1875 9.40625,0.1875 2.59375,0 7.09375,0 9.5,-0.1875 V 2.59375 C 15.796875,2.59375 15.40625,3 15.40625,6.921875 V 26.21875 C 15.40625,35.453125 21,42.390625 28,42.390625 c 7.40625,0 8.203125,-6.625 8.203125,-11.453125 V 6.921875 c 0,-3.828125 -0.40625,-4.328125 -6.796875,-4.328125 V 0 c 2.390625,0.1875 6.796875,0.1875 9.390625,0.1875 2.609375,0 7.109375,0 9.5,-0.1875 V 2.59375 C 41.90625,2.59375 41.5,3 41.5,6.921875 V 26.21875 c 0,9.234375 5.59375,16.171875 12.59375,16.171875 7.40625,0 8.203125,-6.625 8.203125,-11.453125 V 6.921875 C 62.296875,3.09375 61.90625,2.59375 55.5,2.59375 V 0 c 2.40625,0.1875 6.796875,0.1875 9.40625,0.1875 2.59375,0 7.09375,0 9.5,-0.1875 V 2.59375 C 68,2.59375 67.59375,3 67.59375,6.921875 Z"
               id="CMR17-109" />
            <path
               d="m 65.90625,23 c 1.6875,0 3.5,0 3.5,2 0,2 -1.8125,2 -3.5,2 H 11.796875 c -1.703125,0 -3.5,0 -3.5,-2 0,-2 1.796875,-2 3.5,-2 z"
               id="CMSY10-0" />
            <path
               d="M 14.296875,75 H 1.40625 v -3.515625 h 9.390625 V -21.5 H 1.40625 V -25 h 12.890625 z"
               id="CMR17-93" />
          </defs>
          <use
             transform="scale(0.996264)"
             xlink:href="#CMR17-114"
             id="use167"
             x="0"
             y="0"
             width="100%"
             height="100%" />
          <use
             transform="matrix(0.996264,0,0,0.996264,35.280768,0)"
             xlink:href="#CMR17-101"
             id="use169"
             x="0"
             y="0"
             width="100%"
             height="100%" />
          <use
             transform="matrix(0.996264,0,0,0.996264,75.766428,0)"
             xlink:href="#CMR17-108"
             id="use171"
             x="0"
             y="0"
             width="100%"
             height="100%" />
          <use
             transform="matrix(0.996264,0,0,0.996264,100.63749,0)"
             xlink:href="#CMR17-97"
             id="use173"
             x="0"
             y="0"
             width="100%"
             height="100%" />
          <use
             transform="matrix(0.996264,0,0,0.996264,146.32796,0)"
             xlink:href="#CMR17-116"
             id="use175"
             x="0"
             y="0"
             width="100%"
             height="100%" />
          <use
             transform="matrix(0.996264,0,0,0.996264,181.60873,0)"
             xlink:href="#CMR17-105"
             id="use177"
             x="0"
             y="0"
             width="100%"
             height="100%" />
          <use
             transform="matrix(0.996264,0,0,0.996264,206.47979,0)"
             xlink:href="#CMR17-118"
             id="use179"
             x="0"
             y="0"
             width="100%"
             height="100%" />
          <use
             transform="matrix(0.996264,0,0,0.996264,252.17025,0)"
             xlink:href="#CMR17-101"
             id="use181"
             x="0"
             y="0"
             width="100%"
             height="100%" />
          <use
             transform="matrix(0.996264,0,0,0.996264,322.73188,0)"
             xlink:href="#CMR17-101"
             id="use183"
             x="0"
             y="0"
             width="100%"
             height="100%" />
          <use
             transform="matrix(0.996264,0,0,0.996264,363.21754,0)"
             xlink:href="#CMR17-110"
             id="use185"
             x="0"
             y="0"
             width="100%"
             height="100%" />
          <use
             transform="matrix(0.996264,0,0,0.996264,414.11291,0)"
             xlink:href="#CMR17-101"
             id="use187"
             x="0"
             y="0"
             width="100%"
             height="100%" />
          <use
             transform="matrix(0.996264,0,0,0.996264,454.59857,0)"
             xlink:href="#CMR17-114"
             id="use189"
             x="0"
             y="0"
             width="100%"
             height="100%" />
          <use
             transform="matrix(0.996264,0,0,0.996264,489.87934,0)"
             xlink:href="#CMR17-103"
             id="use191"
             x="0"
             y="0"
             width="100%"
             height="100%" />
          <use
             transform="matrix(0.996264,0,0,0.996264,535.56981,0)"
             xlink:href="#CMR17-105"
             id="use193"
             x="0"
             y="0"
             width="100%"
             height="100%" />
          <use
             transform="matrix(0.996264,0,0,0.996264,560.44087,0)"
             xlink:href="#CMR17-101"
             id="use195"
             x="0"
             y="0"
             width="100%"
             height="100%" />
          <use
             transform="matrix(0.996264,0,0,0.996264,600.92653,0)"
             xlink:href="#CMR17-115"
             id="use197"
             x="0"
             y="0"
             width="100%"
             height="100%" />
          <use
             transform="matrix(0.996264,0,0,0.996264,666.80384,0)"
             xlink:href="#CMR17-91"
             id="use199"
             x="0"
             y="0"
             width="100%"
             height="100%" />
          <use
             transform="matrix(0.996264,0,0,0.996264,691.6749,0)"
             xlink:href="#CMR17-99"
             id="use201"
             x="0"
             y="0"
             width="100%"
             height="100%" />
          <use
             transform="matrix(0.996264,0,0,0.996264,732.16056,0)"
             xlink:href="#CMR17-109"
             id="use203"
             x="0"
             y="0"
             width="100%"
             height="100%" />
          <use
             transform="matrix(0.697382,0,0,0.697382,809.08015,36.153639)"
             xlink:href="#CMSY10-0"
             id="use205"
             x="0"
             y="0"
             width="100%"
             height="100%" />
          <use
             transform="matrix(0.697382,0,0,0.697382,863.32114,36.153639)"
             xlink:href="#CMR17-49"
             id="use207"
             x="0"
             y="0"
             width="100%"
             height="100%" />
          <use
             transform="matrix(0.996264,0,0,0.996264,895.80245,0)"
             xlink:href="#CMR17-93"
             id="use209"
             x="0"
             y="0"
             width="100%"
             height="100%" />
        </g>
      </g>
    </g>
    <g
       id="PathCollection_2" />
    <g
       id="line2d_5">
      <path
         clip-path="url(#p5042b5e460)"
         d="m 57.526728,169.63763 1.471021,-0.34655 1.47102,-0.39233 1.471021,-0.4381 1.47102,-0.48387 1.471021,-0.52965 1.47102,-0.57541 1.471021,-0.62119 1.47102,-0.66696 1.471021,-0.71273 1.47102,-0.7585 1.471021,-0.80427 1.47102,-0.85005 1.471021,-0.89582 1.47102,-0.94159 1.471021,-0.98736 1.47102,-1.03313 1.471021,-1.0789 1.47102,-1.12468 1.471021,-1.17044 1.47102,-1.21622 1.471021,-1.26199 1.47102,-1.30776 1.47102,-1.35354 1.471021,-1.3993 1.47102,-1.44508 1.471021,-1.49085 1.47102,-1.53662 1.471021,-1.58239 1.471018,-1.62817 1.47102,-1.67393 1.47102,-1.71971 1.47102,-1.76548 1.47102,-1.81125 1.47103,-1.85702 1.47102,-1.90279 1.47102,-1.94857 1.47102,-1.99433 1.47102,-2.04011 1.47102,-2.08588 1.47102,-2.13166 1.47102,-2.17742 1.47102,-2.22319 1.47102,-2.26897 1.47102,-2.31474 1.47102,-2.36051 1.47102,-2.40628 1.47102,-2.45206 1.47102,-2.49782 1.47102,-2.5436 1.47102,-2.589369 1.47102,-2.63514 1.47102,-2.680913 1.47102,-2.726683 1.47102,-2.772456 1.47102,-2.818227 1.47103,-2.863999 1.47102,-2.90977 1.47102,-2.955542 1.47102,-3.001314 1.47102,-3.047086 1.47102,-3.092857 1.47102,-3.138629 1.47102,-3.1844 1.47102,-3.230172 1.47102,-3.275944 1.47102,-3.321716 1.47102,-3.367487 1.47102,-3.413259 1.47102,-3.45903 1.47102,-3.504803 1.47102,-3.550573 1.47102,-3.596346 1.47102,-3.642117 1.47102,-3.687889 1.47102,-3.733661 1.47103,-3.779432 1.47102,-3.825204 1.47102,-3.870975 1.47102,-3.916748 L 174.56784,-1"
         style="fill:none;stroke:#aaaaaa;stroke-width:1.5;stroke-linecap:round"
         id="path229" />
    </g>
    <g
       id="line2d_6">
      <path
         clip-path="url(#p5042b5e460)"
         d="m 57.526728,169.6407 1.471021,-0.3451 1.47102,-0.38974 1.471021,-0.43444 1.47102,-0.47918 1.471021,-0.52397 1.47102,-0.5688 1.471021,-0.61368 1.47102,-0.6586 1.471021,-0.70357 1.47102,-0.74858 1.471021,-0.79364 1.47102,-0.83875 1.471021,-0.8839 1.47102,-0.92909 1.471021,-0.97434 1.47102,-1.01962 1.471021,-1.06496 1.47102,-1.11033 1.471021,-1.15576 1.47102,-1.20123 1.471021,-1.24674 1.47102,-1.2923 1.47102,-1.3379 1.471021,-1.38356 1.47102,-1.42925 1.471021,-1.47499 1.47102,-1.52079 1.471021,-1.56661 1.471018,-1.61249 1.47102,-1.65842 1.47102,-1.70438 1.47102,-1.7504 1.47102,-1.79646 1.47103,-1.84256 1.47102,-1.88872 1.47102,-1.93491 1.47102,-1.98115 1.47102,-2.02745 1.47102,-2.07377 1.47102,-2.12015 1.47102,-2.16658 1.47102,-2.21304 1.47102,-2.25956 1.47102,-2.30612 1.47102,-2.35273 1.47102,-2.39938 1.47102,-2.44607 1.47102,-2.49282 1.47102,-2.5396 1.47102,-2.586436 1.47102,-2.633315 1.47102,-2.680239 1.47102,-2.727208 1.47102,-2.774223 1.47102,-2.821284 1.47103,-2.868389 1.47102,-2.915541 1.47102,-2.962738 1.47102,-3.00998 1.47102,-3.057267 1.47102,-3.104601 1.47102,-3.151979 1.47102,-3.199404 1.47102,-3.246873 1.47102,-3.294389 1.47102,-3.341949 1.47102,-3.389555 1.47102,-3.437206 1.47102,-3.484904 1.47102,-3.532646 1.47102,-3.580434 1.47102,-3.628267 1.47102,-3.676147 1.47102,-3.72407 1.47102,-3.772041 1.47103,-3.820056 1.47102,-3.868116 1.47102,-3.916223 1.47102,-3.964374 L 174.54925,-1"
         style="fill:none;stroke:#555555;stroke-width:1.5;stroke-dasharray:6, 2.25;stroke-dashoffset:0"
         id="path232" />
    </g>
    <g
       id="line2d_7" />
    <g
       id="line2d_8" />
    <g
       id="patch_3">
      <path
         d="M 52.32562,176.48865 V 25.766376"
         style="fill:none;stroke:#262626;stroke-width:0.8;stroke-linecap:square;stroke-linejoin:miter"
         id="path237" />
    </g>
    <g
       id="patch_4">
      <path
         d="M 166.75,176.48865 V 25.766376"
         style="fill:none;stroke:#262626;stroke-width:0.8;stroke-linecap:square;stroke-linejoin:miter"
         id="path240" />
    </g>
    <g
       id="patch_5">
      <path
         d="M 52.32562,176.48865 H 166.75"
         style="fill:none;stroke:#262626;stroke-width:0.8;stroke-linecap:square;stroke-linejoin:miter"
         id="path243" />
    </g>
    <g
       id="patch_6">
      <path
         d="M 52.32562,25.766376 H 166.75"
         style="fill:none;stroke:#262626;stroke-width:0.8;stroke-linecap:square;stroke-linejoin:miter"
         id="path246" />
    </g>
    <g
       id="text_13">
      <!-- a) state average -->
      <g
         style="fill:#262626"
         transform="matrix(0.12,0,0,-0.12,69.022111,19.766376)"
         id="g280">
        <defs
           id="defs250">
          <path
             d="m 26.296875,24.9375 c 0,7.203125 -0.703125,19.421875 -6.703125,32.328125 C 14.796875,67.6875 6.59375,75 5.40625,75 5.09375,75 4.703125,74.890625 4.703125,74.390625 c 0,-0.203125 0.09375,-0.296875 0.203125,-0.5 4.796875,-5.015625 17,-17.71875 17,-48.84375 0,-31.234375 -12.109375,-43.953125 -17,-48.953125 -0.109375,-0.203125 -0.203125,-0.296875 -0.203125,-0.5 0,-0.5 0.390625,-0.59375 0.703125,-0.59375 1.09375,0 9.59375,7.390625 14.5,18.40625 5,11.109375 6.390625,21.921875 6.390625,31.53125 z"
             id="CMR17-41" />
        </defs>
        <use
           transform="scale(0.996264)"
           xlink:href="#CMR17-97"
           id="use252"
           x="0"
           y="0"
           width="100%"
           height="100%" />
        <use
           transform="matrix(0.996264,0,0,0.996264,45.690477,0)"
           xlink:href="#CMR17-41"
           id="use254"
           x="0"
           y="0"
           width="100%"
           height="100%" />
        <use
           transform="matrix(0.996264,0,0,0.996264,111.04721,0)"
           xlink:href="#CMR17-115"
           id="use256"
           x="0"
           y="0"
           width="100%"
           height="100%" />
        <use
           transform="matrix(0.996264,0,0,0.996264,146.84855,0)"
           xlink:href="#CMR17-116"
           id="use258"
           x="0"
           y="0"
           width="100%"
           height="100%" />
        <use
           transform="matrix(0.996264,0,0,0.996264,182.12932,0)"
           xlink:href="#CMR17-97"
           id="use260"
           x="0"
           y="0"
           width="100%"
           height="100%" />
        <use
           transform="matrix(0.996264,0,0,0.996264,227.81979,0)"
           xlink:href="#CMR17-116"
           id="use262"
           x="0"
           y="0"
           width="100%"
           height="100%" />
        <use
           transform="matrix(0.996264,0,0,0.996264,263.10056,0)"
           xlink:href="#CMR17-101"
           id="use264"
           x="0"
           y="0"
           width="100%"
           height="100%" />
        <use
           transform="matrix(0.996264,0,0,0.996264,333.66219,0)"
           xlink:href="#CMR17-97"
           id="use266"
           x="0"
           y="0"
           width="100%"
           height="100%" />
        <use
           transform="matrix(0.996264,0,0,0.996264,376.75021,0)"
           xlink:href="#CMR17-118"
           id="use268"
           x="0"
           y="0"
           width="100%"
           height="100%" />
        <use
           transform="matrix(0.996264,0,0,0.996264,422.44067,0)"
           xlink:href="#CMR17-101"
           id="use270"
           x="0"
           y="0"
           width="100%"
           height="100%" />
        <use
           transform="matrix(0.996264,0,0,0.996264,462.92633,0)"
           xlink:href="#CMR17-114"
           id="use272"
           x="0"
           y="0"
           width="100%"
           height="100%" />
        <use
           transform="matrix(0.996264,0,0,0.996264,498.2071,0)"
           xlink:href="#CMR17-97"
           id="use274"
           x="0"
           y="0"
           width="100%"
           height="100%" />
        <use
           transform="matrix(0.996264,0,0,0.996264,543.89758,0)"
           xlink:href="#CMR17-103"
           id="use276"
           x="0"
           y="0"
           width="100%"
           height="100%" />
        <use
           transform="matrix(0.996264,0,0,0.996264,589.58806,0)"
           xlink:href="#CMR17-101"
           id="use278"
           x="0"
           y="0"
           width="100%"
           height="100%" />
      </g>
    </g>
    <g
       id="PathCollection_1">
      <path
         clip-path="url(#p5042b5e460)"
         d="m 56.026728,172.63763 1.5,-1.5 1.5,1.5 1.5,-1.5 -1.5,-1.5 1.5,-1.5 -1.5,-1.5 -1.5,1.5 -1.5,-1.5 -1.5,1.5 1.5,1.5 -1.5,1.5 z"
         style="stroke:#ffffff;stroke-width:0.48"
         id="path215" />
      <path
         clip-path="url(#p5042b5e460)"
         d="m 76.831161,163.62327 1.5,-1.5 1.5,1.5 1.5,-1.5 -1.5,-1.5 1.5,-1.5 -1.5,-1.5 -1.5,1.5 -1.5,-1.5 -1.5,1.5 1.5,1.5 -1.5,1.5 z"
         style="stroke:#ffffff;stroke-width:0.48"
         id="path217" />
      <path
         clip-path="url(#p5042b5e460)"
         d="m 97.635594,145.49798 1.5,-1.5 1.499996,1.5 1.5,-1.5 -1.5,-1.5 1.5,-1.5 -1.5,-1.5 -1.499996,1.5 -1.5,-1.5 -1.5,1.5 1.5,1.5 -1.5,1.5 z"
         style="stroke:#ffffff;stroke-width:0.48"
         id="path219" />
      <path
         clip-path="url(#p5042b5e460)"
         d="m 118.44003,118.21433 1.5,-1.5 1.5,1.5 1.5,-1.5 -1.5,-1.5 1.5,-1.5 -1.5,-1.5 -1.5,1.5 -1.5,-1.5 -1.5,1.5 1.5,1.5 -1.5,1.5 z"
         style="stroke:#ffffff;stroke-width:0.48"
         id="path221" />
      <path
         clip-path="url(#p5042b5e460)"
         d="m 139.24446,81.653484 1.5,-1.5 1.5,1.5 1.5,-1.5 -1.5,-1.5 1.5,-1.5 -1.5,-1.5 -1.5,1.5 -1.5,-1.5 -1.5,1.5 1.5,1.5 -1.5,1.5 z"
         style="stroke:#ffffff;stroke-width:0.48"
         id="path223" />
      <path
         clip-path="url(#p5042b5e460)"
         d="m 160.04889,35.617388 1.5,-1.5 1.5,1.5 1.5,-1.5 -1.5,-1.5 1.5,-1.5 -1.5,-1.5 -1.5,1.5 -1.5,-1.5 -1.5,1.5 1.5,1.5 -1.5,1.5 z"
         style="stroke:#ffffff;stroke-width:0.48"
         id="path225" />
    </g>
  </g>
  <g
     id="axes_2"
     transform="translate(-5.6915339,0.68239)">
    <g
       id="patch_8">
      <path
         d="M 196.75,176.48865 H 311.17438 V 25.766376 H 196.75 Z"
         style="fill:#ffffff"
         id="path352" />
    </g>
    <g
       id="matplotlib.axis_3">
      <g
         id="xtick_7">
        <g
           id="text_17">
          <!-- 0 -->
          <g
             style="fill:#262626"
             transform="matrix(0.1,0,0,-0.1,199.46044,190.40715)"
             id="g357">
            <use
               transform="scale(0.996264)"
               xlink:href="#CMR17-48"
               id="use355"
               x="0"
               y="0"
               width="100%"
               height="100%" />
          </g>
        </g>
      </g>
      <g
         id="xtick_8">
        <g
           id="text_18">
          <!-- 1 -->
          <g
             style="fill:#262626"
             transform="matrix(0.1,0,0,-0.1,220.26487,190.40715)"
             id="g363">
            <use
               transform="scale(0.996264)"
               xlink:href="#CMR17-49"
               id="use361"
               x="0"
               y="0"
               width="100%"
               height="100%" />
          </g>
        </g>
      </g>
      <g
         id="xtick_9">
        <g
           id="text_19">
          <!-- 2 -->
          <g
             style="fill:#262626"
             transform="matrix(0.1,0,0,-0.1,241.06931,190.40715)"
             id="g369">
            <use
               transform="scale(0.996264)"
               xlink:href="#CMR17-50"
               id="use367"
               x="0"
               y="0"
               width="100%"
               height="100%" />
          </g>
        </g>
      </g>
      <g
         id="xtick_10">
        <g
           id="text_20">
          <!-- 3 -->
          <g
             style="fill:#262626"
             transform="matrix(0.1,0,0,-0.1,261.87374,190.40715)"
             id="g375">
            <use
               transform="scale(0.996264)"
               xlink:href="#CMR17-51"
               id="use373"
               x="0"
               y="0"
               width="100%"
               height="100%" />
          </g>
        </g>
      </g>
      <g
         id="xtick_11">
        <g
           id="text_21">
          <!-- 4 -->
          <g
             style="fill:#262626"
             transform="matrix(0.1,0,0,-0.1,282.67817,190.40715)"
             id="g381">
            <use
               transform="scale(0.996264)"
               xlink:href="#CMR17-52"
               id="use379"
               x="0"
               y="0"
               width="100%"
               height="100%" />
          </g>
        </g>
      </g>
      <g
         id="xtick_12">
        <g
           id="text_22">
          <!-- 5 -->
          <g
             style="fill:#262626"
             transform="matrix(0.1,0,0,-0.1,303.4826,190.40715)"
             id="g387">
            <use
               transform="scale(0.996264)"
               xlink:href="#CMR17-53"
               id="use385"
               x="0"
               y="0"
               width="100%"
               height="100%" />
          </g>
        </g>
      </g>
      <g
         id="text_23">
        <!-- spin state $S$ -->
        <g
           style="fill:#262626"
           transform="matrix(0.1,0,0,-0.1,228.15961,203.26282)"
           id="g411">
          <use
             transform="scale(0.996264)"
             xlink:href="#CMR17-115"
             id="use391"
             x="0"
             y="0"
             width="100%"
             height="100%" />
          <use
             transform="matrix(0.996264,0,0,0.996264,35.801338,0)"
             xlink:href="#CMR17-112"
             id="use393"
             x="0"
             y="0"
             width="100%"
             height="100%" />
          <use
             transform="matrix(0.996264,0,0,0.996264,86.696707,0)"
             xlink:href="#CMR17-105"
             id="use395"
             x="0"
             y="0"
             width="100%"
             height="100%" />
          <use
             transform="matrix(0.996264,0,0,0.996264,111.56777,0)"
             xlink:href="#CMR17-110"
             id="use397"
             x="0"
             y="0"
             width="100%"
             height="100%" />
          <use
             transform="matrix(0.996264,0,0,0.996264,192.5391,0)"
             xlink:href="#CMR17-115"
             id="use399"
             x="0"
             y="0"
             width="100%"
             height="100%" />
          <use
             transform="matrix(0.996264,0,0,0.996264,228.34044,0)"
             xlink:href="#CMR17-116"
             id="use401"
             x="0"
             y="0"
             width="100%"
             height="100%" />
          <use
             transform="matrix(0.996264,0,0,0.996264,263.62121,0)"
             xlink:href="#CMR17-97"
             id="use403"
             x="0"
             y="0"
             width="100%"
             height="100%" />
          <use
             transform="matrix(0.996264,0,0,0.996264,309.31168,0)"
             xlink:href="#CMR17-116"
             id="use405"
             x="0"
             y="0"
             width="100%"
             height="100%" />
          <use
             transform="matrix(0.996264,0,0,0.996264,344.59245,0)"
             xlink:href="#CMR17-101"
             id="use407"
             x="0"
             y="0"
             width="100%"
             height="100%" />
          <use
             transform="matrix(0.996264,0,0,0.996264,415.15408,0)"
             xlink:href="#CMMI12-83"
             id="use409"
             x="0"
             y="0"
             width="100%"
             height="100%" />
        </g>
      </g>
    </g>
    <g
       id="matplotlib.axis_4">
      <g
         id="ytick_5">
        <g
           id="line2d_13">
          <path
             clip-path="url(#p4ce4641ca8)"
             d="M 196.75,169.63763 H 311.17438"
             style="fill:none;stroke:#cccccc;stroke-width:0.8;stroke-linecap:round"
             id="path415" />
        </g>
        <g
           id="line2d_14" />
        <g
           id="text_24">
          <!-- $\mathdefault{0}$ -->
          <g
             style="fill:#262626"
             transform="matrix(0.1,0,0,-0.1,314.67438,173.09688)"
             id="g421">
            <use
               transform="scale(0.996264)"
               xlink:href="#CMR17-48"
               id="use419"
               x="0"
               y="0"
               width="100%"
               height="100%" />
          </g>
        </g>
      </g>
      <g
         id="ytick_6">
        <g
           id="line2d_15">
          <path
             clip-path="url(#p4ce4641ca8)"
             d="M 196.75,143.17282 H 311.17438"
             style="fill:none;stroke:#cccccc;stroke-width:0.8;stroke-linecap:round"
             id="path425" />
        </g>
        <g
           id="line2d_16" />
        <g
           id="text_25">
          <!-- $\mathdefault{1000}$ -->
          <g
             style="fill:#262626"
             transform="matrix(0.1,0,0,-0.1,314.67438,146.63207)"
             id="g437">
            <use
               transform="scale(0.996264)"
               xlink:href="#CMR17-49"
               id="use429"
               x="0"
               y="0"
               width="100%"
               height="100%" />
            <use
               transform="matrix(0.996264,0,0,0.996264,45.690477,0)"
               xlink:href="#CMR17-48"
               id="use431"
               x="0"
               y="0"
               width="100%"
               height="100%" />
            <use
               transform="matrix(0.996264,0,0,0.996264,91.380954,0)"
               xlink:href="#CMR17-48"
               id="use433"
               x="0"
               y="0"
               width="100%"
               height="100%" />
            <use
               transform="matrix(0.996264,0,0,0.996264,137.07143,0)"
               xlink:href="#CMR17-48"
               id="use435"
               x="0"
               y="0"
               width="100%"
               height="100%" />
          </g>
        </g>
      </g>
      <g
         id="ytick_7">
        <g
           id="line2d_17">
          <path
             clip-path="url(#p4ce4641ca8)"
             d="M 196.75,116.70802 H 311.17438"
             style="fill:none;stroke:#cccccc;stroke-width:0.8;stroke-linecap:round"
             id="path441" />
        </g>
        <g
           id="line2d_18" />
        <g
           id="text_26">
          <!-- $\mathdefault{2000}$ -->
          <g
             style="fill:#262626"
             transform="matrix(0.1,0,0,-0.1,314.67438,120.16727)"
             id="g453">
            <use
               transform="scale(0.996264)"
               xlink:href="#CMR17-50"
               id="use445"
               x="0"
               y="0"
               width="100%"
               height="100%" />
            <use
               transform="matrix(0.996264,0,0,0.996264,45.690477,0)"
               xlink:href="#CMR17-48"
               id="use447"
               x="0"
               y="0"
               width="100%"
               height="100%" />
            <use
               transform="matrix(0.996264,0,0,0.996264,91.380954,0)"
               xlink:href="#CMR17-48"
               id="use449"
               x="0"
               y="0"
               width="100%"
               height="100%" />
            <use
               transform="matrix(0.996264,0,0,0.996264,137.07143,0)"
               xlink:href="#CMR17-48"
               id="use451"
               x="0"
               y="0"
               width="100%"
               height="100%" />
          </g>
        </g>
      </g>
      <g
         id="ytick_8">
        <g
           id="line2d_19">
          <path
             clip-path="url(#p4ce4641ca8)"
             d="M 196.75,90.243206 H 311.17438"
             style="fill:none;stroke:#cccccc;stroke-width:0.8;stroke-linecap:round"
             id="path457" />
        </g>
        <g
           id="line2d_20" />
        <g
           id="text_27">
          <!-- $\mathdefault{3000}$ -->
          <g
             style="fill:#262626"
             transform="matrix(0.1,0,0,-0.1,314.67438,93.702455)"
             id="g469">
            <use
               transform="scale(0.996264)"
               xlink:href="#CMR17-51"
               id="use461"
               x="0"
               y="0"
               width="100%"
               height="100%" />
            <use
               transform="matrix(0.996264,0,0,0.996264,45.690477,0)"
               xlink:href="#CMR17-48"
               id="use463"
               x="0"
               y="0"
               width="100%"
               height="100%" />
            <use
               transform="matrix(0.996264,0,0,0.996264,91.380954,0)"
               xlink:href="#CMR17-48"
               id="use465"
               x="0"
               y="0"
               width="100%"
               height="100%" />
            <use
               transform="matrix(0.996264,0,0,0.996264,137.07143,0)"
               xlink:href="#CMR17-48"
               id="use467"
               x="0"
               y="0"
               width="100%"
               height="100%" />
          </g>
        </g>
      </g>
      <g
         id="ytick_9">
        <g
           id="line2d_21">
          <path
             clip-path="url(#p4ce4641ca8)"
             d="M 196.75,63.778397 H 311.17438"
             style="fill:none;stroke:#cccccc;stroke-width:0.8;stroke-linecap:round"
             id="path473" />
        </g>
        <g
           id="line2d_22" />
        <g
           id="text_28">
          <!-- $\mathdefault{4000}$ -->
          <g
             style="fill:#262626"
             transform="matrix(0.1,0,0,-0.1,314.67438,67.237646)"
             id="g485">
            <use
               transform="scale(0.996264)"
               xlink:href="#CMR17-52"
               id="use477"
               x="0"
               y="0"
               width="100%"
               height="100%" />
            <use
               transform="matrix(0.996264,0,0,0.996264,45.690477,0)"
               xlink:href="#CMR17-48"
               id="use479"
               x="0"
               y="0"
               width="100%"
               height="100%" />
            <use
               transform="matrix(0.996264,0,0,0.996264,91.380954,0)"
               xlink:href="#CMR17-48"
               id="use481"
               x="0"
               y="0"
               width="100%"
               height="100%" />
            <use
               transform="matrix(0.996264,0,0,0.996264,137.07143,0)"
               xlink:href="#CMR17-48"
               id="use483"
               x="0"
               y="0"
               width="100%"
               height="100%" />
          </g>
        </g>
      </g>
      <g
         id="ytick_10">
        <g
           id="line2d_23">
          <path
             clip-path="url(#p4ce4641ca8)"
             d="M 196.75,37.313588 H 311.17438"
             style="fill:none;stroke:#cccccc;stroke-width:0.8;stroke-linecap:round"
             id="path489" />
        </g>
        <g
           id="line2d_24" />
        <g
           id="text_29">
          <!-- $\mathdefault{5000}$ -->
          <g
             style="fill:#262626"
             transform="matrix(0.1,0,0,-0.1,314.67438,40.772837)"
             id="g501">
            <use
               transform="scale(0.996264)"
               xlink:href="#CMR17-53"
               id="use493"
               x="0"
               y="0"
               width="100%"
               height="100%" />
            <use
               transform="matrix(0.996264,0,0,0.996264,45.690477,0)"
               xlink:href="#CMR17-48"
               id="use495"
               x="0"
               y="0"
               width="100%"
               height="100%" />
            <use
               transform="matrix(0.996264,0,0,0.996264,91.380954,0)"
               xlink:href="#CMR17-48"
               id="use497"
               x="0"
               y="0"
               width="100%"
               height="100%" />
            <use
               transform="matrix(0.996264,0,0,0.996264,137.07143,0)"
               xlink:href="#CMR17-48"
               id="use499"
               x="0"
               y="0"
               width="100%"
               height="100%" />
          </g>
        </g>
      </g>
      <g
         id="text_30">
        <!-- relative energies [\si{\wn}] -->
        <g
           style="fill:#262626"
           transform="matrix(0,-0.1,-0.1,0,346.70934,152.19304)"
           id="g549">
          <use
             transform="scale(0.996264)"
             xlink:href="#CMR17-114"
             id="use505"
             x="0"
             y="0"
             width="100%"
             height="100%" />
          <use
             transform="matrix(0.996264,0,0,0.996264,35.280768,0)"
             xlink:href="#CMR17-101"
             id="use507"
             x="0"
             y="0"
             width="100%"
             height="100%" />
          <use
             transform="matrix(0.996264,0,0,0.996264,75.766428,0)"
             xlink:href="#CMR17-108"
             id="use509"
             x="0"
             y="0"
             width="100%"
             height="100%" />
          <use
             transform="matrix(0.996264,0,0,0.996264,100.63749,0)"
             xlink:href="#CMR17-97"
             id="use511"
             x="0"
             y="0"
             width="100%"
             height="100%" />
          <use
             transform="matrix(0.996264,0,0,0.996264,146.32796,0)"
             xlink:href="#CMR17-116"
             id="use513"
             x="0"
             y="0"
             width="100%"
             height="100%" />
          <use
             transform="matrix(0.996264,0,0,0.996264,181.60873,0)"
             xlink:href="#CMR17-105"
             id="use515"
             x="0"
             y="0"
             width="100%"
             height="100%" />
          <use
             transform="matrix(0.996264,0,0,0.996264,206.47979,0)"
             xlink:href="#CMR17-118"
             id="use517"
             x="0"
             y="0"
             width="100%"
             height="100%" />
          <use
             transform="matrix(0.996264,0,0,0.996264,252.17025,0)"
             xlink:href="#CMR17-101"
             id="use519"
             x="0"
             y="0"
             width="100%"
             height="100%" />
          <use
             transform="matrix(0.996264,0,0,0.996264,322.73188,0)"
             xlink:href="#CMR17-101"
             id="use521"
             x="0"
             y="0"
             width="100%"
             height="100%" />
          <use
             transform="matrix(0.996264,0,0,0.996264,363.21754,0)"
             xlink:href="#CMR17-110"
             id="use523"
             x="0"
             y="0"
             width="100%"
             height="100%" />
          <use
             transform="matrix(0.996264,0,0,0.996264,414.11291,0)"
             xlink:href="#CMR17-101"
             id="use525"
             x="0"
             y="0"
             width="100%"
             height="100%" />
          <use
             transform="matrix(0.996264,0,0,0.996264,454.59857,0)"
             xlink:href="#CMR17-114"
             id="use527"
             x="0"
             y="0"
             width="100%"
             height="100%" />
          <use
             transform="matrix(0.996264,0,0,0.996264,489.87934,0)"
             xlink:href="#CMR17-103"
             id="use529"
             x="0"
             y="0"
             width="100%"
             height="100%" />
          <use
             transform="matrix(0.996264,0,0,0.996264,535.56981,0)"
             xlink:href="#CMR17-105"
             id="use531"
             x="0"
             y="0"
             width="100%"
             height="100%" />
          <use
             transform="matrix(0.996264,0,0,0.996264,560.44087,0)"
             xlink:href="#CMR17-101"
             id="use533"
             x="0"
             y="0"
             width="100%"
             height="100%" />
          <use
             transform="matrix(0.996264,0,0,0.996264,600.92653,0)"
             xlink:href="#CMR17-115"
             id="use535"
             x="0"
             y="0"
             width="100%"
             height="100%" />
          <use
             transform="matrix(0.996264,0,0,0.996264,666.80384,0)"
             xlink:href="#CMR17-91"
             id="use537"
             x="0"
             y="0"
             width="100%"
             height="100%" />
          <use
             transform="matrix(0.996264,0,0,0.996264,691.6749,0)"
             xlink:href="#CMR17-99"
             id="use539"
             x="0"
             y="0"
             width="100%"
             height="100%" />
          <use
             transform="matrix(0.996264,0,0,0.996264,732.16056,0)"
             xlink:href="#CMR17-109"
             id="use541"
             x="0"
             y="0"
             width="100%"
             height="100%" />
          <use
             transform="matrix(0.697382,0,0,0.697382,809.08015,36.153639)"
             xlink:href="#CMSY10-0"
             id="use543"
             x="0"
             y="0"
             width="100%"
             height="100%" />
          <use
             transform="matrix(0.697382,0,0,0.697382,863.32114,36.153639)"
             xlink:href="#CMR17-49"
             id="use545"
             x="0"
             y="0"
             width="100%"
             height="100%" />
          <use
             transform="matrix(0.996264,0,0,0.996264,895.80245,0)"
             xlink:href="#CMR17-93"
             id="use547"
             x="0"
             y="0"
             width="100%"
             height="100%" />
        </g>
      </g>
    </g>
    <g
       id="PathCollection_5" />
    <g
       id="line2d_25">
      <path
         clip-path="url(#p4ce4641ca8)"
         d="m 201.95111,169.63763 1.47102,-0.32695 1.47102,-0.37014 1.47102,-0.41333 1.47102,-0.4565 1.47102,-0.49969 1.47102,-0.54287 1.47102,-0.58606 1.47102,-0.62923 1.47102,-0.67243 1.47102,-0.7156 1.47102,-0.75879 1.47102,-0.80197 1.47102,-0.84515 1.47103,-0.88834 1.47102,-0.93151 1.47102,-0.97471 1.47102,-1.01788 1.47102,-1.06107 1.47102,-1.10425 1.47102,-1.14743 1.47102,-1.19062 1.47102,-1.2338 1.47102,-1.27698 1.47102,-1.32017 1.47102,-1.36335 1.47102,-1.40653 1.47102,-1.44971 1.47102,-1.4929 1.47102,-1.53608 1.47102,-1.57927 1.47102,-1.62244 1.47102,-1.66563 1.47102,-1.70882 1.47102,-1.75199 1.47103,-1.79518 1.47102,-1.83836 1.47102,-1.88155 1.47102,-1.92472 1.47102,-1.96791 1.47102,-2.0111 1.47102,-2.05427 1.47102,-2.09746 1.47102,-2.14065 1.47102,-2.18382 1.47102,-2.22701 1.47102,-2.27019 1.47102,-2.31338 1.47102,-2.35656 1.47102,-2.39973 1.47102,-2.44293 1.47102,-2.486105 1.47102,-2.52929 1.47102,-2.572473 1.47102,-2.615655 1.47103,-2.658839 1.47102,-2.702021 1.47102,-2.745205 1.47102,-2.788387 1.47102,-2.831571 1.47102,-2.874753 1.47102,-2.917937 1.47102,-2.961119 1.47102,-3.004303 1.47102,-3.047485 1.47102,-3.090669 1.47102,-3.133851 1.47102,-3.177035 1.47102,-3.220217 1.47102,-3.2634 1.47102,-3.306584 1.47102,-3.349766 1.47102,-3.39295 1.47102,-3.436132 1.47102,-3.479316 1.47103,-3.522498 1.47102,-3.565681 1.47102,-3.608865 1.47102,-3.652047 1.47102,-3.69523 1.47102,-3.738414 1.47102,-3.781596 1.47102,-3.82478 L 322.73317,-1"
         style="fill:none;stroke:#aaaaaa;stroke-width:1.5;stroke-linecap:round"
         id="path567" />
    </g>
    <g
       id="line2d_26">
      <path
         clip-path="url(#p4ce4641ca8)"
         d="m 201.95111,169.5482 1.47102,-0.3697 1.47102,-0.44562 1.47102,-0.52023 1.47102,-0.59349 1.47102,-0.66544 1.47102,-0.73605 1.47102,-0.80534 1.47102,-0.8733 1.47102,-0.93992 1.47102,-1.00524 1.47102,-1.06921 1.47102,-1.13185 1.47102,-1.19318 1.47103,-1.25317 1.47102,-1.31183 1.47102,-1.36917 1.47102,-1.42518 1.47102,-1.47986 1.47102,-1.53322 1.47102,-1.58524 1.47102,-1.63593 1.47102,-1.68531 1.47102,-1.73335 1.47102,-1.78006 1.47102,-1.82544 1.47102,-1.86951 1.47102,-1.91224 1.47102,-1.95363 1.47102,-1.99372 1.47102,-2.03246 1.47102,-2.06988 1.47102,-2.10597 1.47102,-2.14073 1.47102,-2.17417 1.47103,-2.20628 1.47102,-2.23706 1.47102,-2.26651 1.47102,-2.29463 1.47102,-2.32143 1.47102,-2.3469 1.47102,-2.37104 1.47102,-2.39385 1.47102,-2.41534 1.47102,-2.435498 1.47102,-2.454324 1.47102,-2.471826 1.47102,-2.488 1.47102,-2.502846 1.47102,-2.516364 1.47102,-2.528553 1.47102,-2.539417 1.47102,-2.548951 1.47102,-2.557157 1.47102,-2.564037 1.47103,-2.569588 1.47102,-2.573811 1.47102,-2.576706 1.47102,-2.578274 1.47102,-2.578513 1.47102,-2.577426 1.47102,-2.575009 1.47102,-2.571266 1.47102,-2.566194 1.47102,-2.559794 1.47102,-2.552068 1.47102,-2.543012 1.47102,-2.532629 1.47102,-2.520918 1.47102,-2.50788 1.47102,-2.493513 1.47102,-2.477819 1.47102,-2.460797 1.47102,-2.442447 1.47102,-2.422769 1.47103,-2.401764 1.47102,-2.37943 1.47102,-2.355768 1.47102,-2.33078 1.47102,-2.304462 1.47102,-2.276818 1.47102,-2.247845 1.47102,-2.217545 1.47102,-2.185916 1.47102,-2.15296 L 326.44431,-1"
         style="fill:none;stroke:#555555;stroke-width:1.5;stroke-dasharray:6, 2.25;stroke-dashoffset:0"
         id="path570" />
    </g>
    <g
       id="line2d_27" />
    <g
       id="line2d_28" />
    <g
       id="patch_9">
      <path
         d="M 196.75,176.48865 V 25.766376"
         style="fill:none;stroke:#262626;stroke-width:0.8;stroke-linecap:square;stroke-linejoin:miter"
         id="path575" />
    </g>
    <g
       id="patch_10">
      <path
         d="M 311.17438,176.48865 V 25.766376"
         style="fill:none;stroke:#262626;stroke-width:0.8;stroke-linecap:square;stroke-linejoin:miter"
         id="path578" />
    </g>
    <g
       id="patch_11">
      <path
         d="M 196.75,176.48865 H 311.17438"
         style="fill:none;stroke:#262626;stroke-width:0.8;stroke-linecap:square;stroke-linejoin:miter"
         id="path581" />
    </g>
    <g
       id="patch_12">
      <path
         d="M 196.75,25.766376 H 311.17438"
         style="fill:none;stroke:#262626;stroke-width:0.8;stroke-linecap:square;stroke-linejoin:miter"
         id="path584" />
    </g>
    <g
       id="text_31">
      <!-- b) state specific -->
      <g
         style="fill:#262626"
         transform="matrix(0.12,0,0,-0.12,213.73914,19.766376)"
         id="g619">
        <defs
           id="defs589">
          <path
             d="M 15,69 3.09375,67.890625 v -2.59375 c 5.90625,0 6.8125,-0.59375 6.8125,-5.25 v -60.25 h 1.796875 l 2.890625,7.15625 C 17.5,2.203125 21.796875,-1 27.59375,-1 c 10,0 20.109375,8.859375 20.109375,22.59375 0,12.921875 -9,22.40625 -19.109375,22.40625 C 22.40625,44 18,40.671875 15,36.734375 Z m 0.203125,-37.40625 c 0,1.8125 0,2.109375 1.390625,4.234375 3.90625,6.0625 9.5,6.5625 11.40625,6.5625 3,0 13.296875,-1.609375 13.296875,-20.703125 C 41.296875,1.703125 29.5,0.59375 27.09375,0.59375 24,0.59375 19.5,1.796875 16.296875,7.65625 c -1.09375,1.921875 -1.09375,2.125 -1.09375,3.9375 z"
             id="CMR17-98" />
          <path
             d="M 39.90625,44 C 37.5,43.890625 30.09375,43.390625 28.203125,43.1875 c -0.609375,-0.09375 -0.796875,-0.09375 -2,-0.09375 H 14.796875 V 54.953125 C 14.796875,64.484375 22.40625,69 28.40625,69 c 1.890625,0 6.1875,-0.515625 8.390625,-4 -1,0 -4.203125,0 -4.203125,-3.515625 0,-2.390625 1.609375,-3.59375 3.609375,-3.59375 1.796875,0 3.59375,1 3.59375,3.703125 0,5.046875 -4.796875,9 -11,9 -7.890625,0 -18.890625,-4.578125 -18.890625,-15.640625 V 43.09375 h -8 v -2.609375 h 8 V 6.90625 c 0,-3.8125 -0.40625,-4.3125 -6.8125,-4.3125 V 0 c 2.40625,0.1875 6.8125,0.1875 9.3125,0.1875 2.59375,0 7,0 9.390625,-0.1875 V 2.59375 C 15.40625,2.59375 15,3 15,6.90625 v 33.578125 h 14.703125 c 4.296875,0 5.09375,-0.890625 5.09375,-5.3125 V 6.90625 C 34.796875,3.09375 34.40625,2.59375 28,2.59375 V 0 c 2.40625,0.1875 6.796875,0.1875 9.296875,0.1875 2.609375,0 7,0 9.40625,-0.1875 v 2.59375 c -6.40625,0 -6.796875,0.40625 -6.796875,4.3125 z"
             id="CMR17-12" />
        </defs>
        <use
           transform="scale(0.996264)"
           xlink:href="#CMR17-98"
           id="use591"
           x="0"
           y="0"
           width="100%"
           height="100%" />
        <use
           transform="matrix(0.996264,0,0,0.996264,50.89537,0)"
           xlink:href="#CMR17-41"
           id="use593"
           x="0"
           y="0"
           width="100%"
           height="100%" />
        <use
           transform="matrix(0.996264,0,0,0.996264,116.2521,0)"
           xlink:href="#CMR17-115"
           id="use595"
           x="0"
           y="0"
           width="100%"
           height="100%" />
        <use
           transform="matrix(0.996264,0,0,0.996264,152.05344,0)"
           xlink:href="#CMR17-116"
           id="use597"
           x="0"
           y="0"
           width="100%"
           height="100%" />
        <use
           transform="matrix(0.996264,0,0,0.996264,187.33421,0)"
           xlink:href="#CMR17-97"
           id="use599"
           x="0"
           y="0"
           width="100%"
           height="100%" />
        <use
           transform="matrix(0.996264,0,0,0.996264,233.02469,0)"
           xlink:href="#CMR17-116"
           id="use601"
           x="0"
           y="0"
           width="100%"
           height="100%" />
        <use
           transform="matrix(0.996264,0,0,0.996264,268.30545,0)"
           xlink:href="#CMR17-101"
           id="use603"
           x="0"
           y="0"
           width="100%"
           height="100%" />
        <use
           transform="matrix(0.996264,0,0,0.996264,338.86708,0)"
           xlink:href="#CMR17-115"
           id="use605"
           x="0"
           y="0"
           width="100%"
           height="100%" />
        <use
           transform="matrix(0.996264,0,0,0.996264,374.66842,0)"
           xlink:href="#CMR17-112"
           id="use607"
           x="0"
           y="0"
           width="100%"
           height="100%" />
        <use
           transform="matrix(0.996264,0,0,0.996264,428.16623,0)"
           xlink:href="#CMR17-101"
           id="use609"
           x="0"
           y="0"
           width="100%"
           height="100%" />
        <use
           transform="matrix(0.996264,0,0,0.996264,468.65189,0)"
           xlink:href="#CMR17-99"
           id="use611"
           x="0"
           y="0"
           width="100%"
           height="100%" />
        <use
           transform="matrix(0.996264,0,0,0.996264,509.13755,0)"
           xlink:href="#CMR17-105"
           id="use613"
           x="0"
           y="0"
           width="100%"
           height="100%" />
        <use
           transform="matrix(0.996264,0,0,0.996264,534.00861,0)"
           xlink:href="#CMR17-12"
           id="use615"
           x="0"
           y="0"
           width="100%"
           height="100%" />
        <use
           transform="matrix(0.996264,0,0,0.996264,583.75083,0)"
           xlink:href="#CMR17-99"
           id="use617"
           x="0"
           y="0"
           width="100%"
           height="100%" />
      </g>
    </g>
    <g
       id="PathCollection_4">
      <path
         clip-path="url(#p4ce4641ca8)"
         d="m 200.45111,172.63763 1.5,-1.5 1.5,1.5 1.5,-1.5 -1.5,-1.5 1.5,-1.5 -1.5,-1.5 -1.5,1.5 -1.5,-1.5 -1.5,1.5 1.5,1.5 -1.5,1.5 z"
         style="stroke:#ffffff;stroke-width:0.48"
         id="path553" />
      <path
         clip-path="url(#p4ce4641ca8)"
         d="m 221.25554,161.46587 1.5,-1.5 1.5,1.5 1.5,-1.5 -1.5,-1.5 1.5,-1.5 -1.5,-1.5 -1.5,1.5 -1.5,-1.5 -1.5,1.5 1.5,1.5 -1.5,1.5 z"
         style="stroke:#ffffff;stroke-width:0.48"
         id="path555" />
      <path
         clip-path="url(#p4ce4641ca8)"
         d="m 242.05997,139.90459 1.5,-1.5 1.5,1.5 1.5,-1.5 -1.5,-1.5 1.5,-1.5 -1.5,-1.5 -1.5,1.5 -1.5,-1.5 -1.5,1.5 1.5,1.5 -1.5,1.5 z"
         style="stroke:#ffffff;stroke-width:0.48"
         id="path557" />
      <path
         clip-path="url(#p4ce4641ca8)"
         d="m 262.86441,109.37285 1.5,-1.5 1.5,1.5 1.5,-1.5 -1.5,-1.5 1.5,-1.5 -1.5,-1.5 -1.5,1.5 -1.5,-1.5 -1.5,1.5 1.5,1.5 -1.5,1.5 z"
         style="stroke:#ffffff;stroke-width:0.48"
         id="path559" />
      <path
         clip-path="url(#p4ce4641ca8)"
         d="m 283.66884,69.767387 1.5,-1.5 1.5,1.5 1.5,-1.5 -1.5,-1.5 1.5,-1.5 -1.5,-1.5 -1.5,1.5 -1.5,-1.5 -1.5,1.5 1.5,1.5 -1.5,1.5 z"
         style="stroke:#ffffff;stroke-width:0.48"
         id="path561" />
      <path
         clip-path="url(#p4ce4641ca8)"
         d="m 304.47327,35.617388 1.5,-1.5 1.5,1.5 1.5,-1.5 -1.5,-1.5 1.5,-1.5 -1.5,-1.5 -1.5,1.5 -1.5,-1.5 -1.5,1.5 1.5,1.5 -1.5,1.5 z"
         style="stroke:#ffffff;stroke-width:0.48"
         id="path563" />
    </g>
  </g>
  <defs
     id="defs684">
    <clipPath
       id="p5042b5e460">
      <rect
         height="150.72227"
         width="114.42438"
         x="52.325619"
         y="25.766376"
         id="rect678" />
    </clipPath>
    <clipPath
       id="p4ce4641ca8">
      <rect
         height="150.72227"
         width="114.42438"
         x="196.75"
         y="25.766376"
         id="rect681" />
    </clipPath>
  </defs>
  <g
     id="legend_2"
     style="stroke-linecap:butt;stroke-linejoin:round"
     transform="translate(132.6487,-25.266376)">
    <g
       id="patch_13">
      <path
         d="m 203.75,77.658242 h 75.72501 q 2,0 2,-2 V 32.766376 q 0,-2 -2,-2 H 203.75 q -2,0 -2,2 v 42.891866 q 0,2 2,2 z"
         style="opacity:0.8;fill:#ffffff;stroke:#cccccc;stroke-linejoin:miter"
         id="path622" />
    </g>
    <g
       id="line2d_29">
      <path
         d="m 205.75,38.864814 h 20"
         style="fill:none;stroke:#aaaaaa;stroke-width:1.5;stroke-linecap:round"
         id="path625" />
    </g>
    <g
       id="line2d_30" />
    <g
       id="text_32">
      <!-- $J$ -->
      <g
         style="fill:#262626"
         transform="matrix(0.1,0,0,-0.1,233.75,42.364814)"
         id="g631">
        <path
           d="m 53.206724,60.88107 c 0.793898,2.973226 0.996264,3.96949 5.868618,3.96949 1.603362,0 2.599626,0 2.599626,1.790162 0,1.10523 -0.902864,1.10523 -1.307596,1.10523 -1.681196,0 -3.580324,-0.202366 -5.370486,-0.202366 h -5.479452 c -4.187422,0 -8.57721,0.202366 -12.749066,0.202366 -0.902864,0 -2.101494,0 -2.101494,-1.805728 0,-0.996264 0.793898,-0.996264 0.793898,-1.089664 h 2.49066 c 7.970112,0 7.970112,-0.793898 7.970112,-2.288294 0,-0.0934 0,-0.793898 -0.389166,-2.381694 L 34.075342,14.834994 C 31.475716,4.732254 24.8132,0 20.01868,0 c -3.377958,0 -8.156912,1.5410959 -9.355542,6.6625155 0.389166,-0.0934 0.887298,-0.2023661 1.29203,-0.2023661 3.284558,0 5.884184,2.8953922 5.884184,5.7907846 0,1.587796 -0.996264,3.68929 -3.985056,3.68929 -1.805728,0 -5.9775837,-1.011831 -5.9775837,-7.4875466 0,-6.1332503 5.1681197,-10.4452054 12.3443337,-10.4452054 9.075342,0 18.835616,6.724782 21.21731,16.127024 z"
           id="use629"
           style="stroke-width:0.996264" />
      </g>
    </g>
    <g
       id="line2d_31">
      <path
         d="m 205.75,53.542939 h 20"
         style="fill:none;stroke:#555555;stroke-width:1.5;stroke-dasharray:6, 2.25;stroke-dashoffset:0"
         id="path634" />
    </g>
    <g
       id="line2d_32" />
    <g
       id="text_33">
      <!-- $J$\&amp;$\lambda$ -->
      <g
         style="fill:#262626"
         transform="matrix(0.1,0,0,-0.1,233.75,57.042939)"
         id="g644">
        <path
           d="m 53.206724,60.88107 c 0.793898,2.973226 0.996264,3.96949 5.868618,3.96949 1.603362,0 2.599626,0 2.599626,1.790162 0,1.10523 -0.902864,1.10523 -1.307596,1.10523 -1.681196,0 -3.580324,-0.202366 -5.370486,-0.202366 h -5.479452 c -4.187422,0 -8.57721,0.202366 -12.749066,0.202366 -0.902864,0 -2.101494,0 -2.101494,-1.805728 0,-0.996264 0.793898,-0.996264 0.793898,-1.089664 h 2.49066 c 7.970112,0 7.970112,-0.793898 7.970112,-2.288294 0,-0.0934 0,-0.793898 -0.389166,-2.381694 L 34.075342,14.834994 C 31.475716,4.732254 24.8132,0 20.01868,0 c -3.377958,0 -8.156912,1.5410959 -9.355542,6.6625155 0.389166,-0.0934 0.887298,-0.2023661 1.29203,-0.2023661 3.284558,0 5.884184,2.8953922 5.884184,5.7907846 0,1.587796 -0.996264,3.68929 -3.985056,3.68929 -1.805728,0 -5.9775837,-1.011831 -5.9775837,-7.4875466 0,-6.1332503 5.1681197,-10.4452054 12.3443337,-10.4452054 9.075342,0 18.835616,6.724782 21.21731,16.127024 z"
           id="use638"
           style="stroke-width:0.996264" />
        <path
           d="m 69.820753,21.12391 c -2.194894,-2.521793 -3.393524,-5.339352 -3.393524,-8.655043 0,-8.2503116 7.674346,-14.461395 17.045454,-14.461395 9.355542,0 15.333126,5.8063511 17.325657,7.721046 2.69302,-2.5217932 8.17248,-7.721046 16.14259,-7.721046 7.06724,0 13.04483,5.4016189 13.24719,13.760897 h -1.79016 C 128.1956,3.9072229 121.71988,0.59153175 117.34566,0.59153175 c -5.88418,0 -10.77211,5.93088415 -13.1538,8.74844325 1.88356,2.319427 5.07472,6.242217 11.6594,18.212951 1.88356,3.331258 4.66999,8.359278 6.16439,9.666874 1.40099,1.214197 3.68929,2.926526 8.67061,3.019926 v 2.599626 c -1.88356,-0.202366 -6.07099,-0.202366 -8.06351,-0.202366 -2.9888,0 -7.67435,0 -10.56974,0.202366 v -2.599626 c 3.30012,0 5.97758,-1.400997 5.97758,-4.125156 0,-1.603362 -2.28829,-5.541718 -6.56911,-12.780199 -1.4944,-2.615193 -4.98133,-8.561644 -8.46825,-12.484433 -1.49439,1.914695 -11.363635,14.694894 -16.235989,27.677459 10.258406,12.375467 11.34807,16.858655 11.34807,20.049813 0,3.985056 -1.29203,12.157534 -7.767746,12.157534 -5.868618,0 -11.955168,-5.386052 -11.955168,-15.052926 0,-5.07472 0.793898,-11.34807 3.78269,-20.06538 z m 16.32939,19.318182 c -1.883562,5.183686 -2.988792,11.752802 -2.988792,17.138854 0,8.76401 4.094022,11.550436 7.28518,11.550436 5.572852,0 5.868618,-8.966376 5.868618,-10.460772 0,-3.486924 -1.790162,-8.468244 -10.165006,-18.228518 z M 82.865585,33.904109 C 87.753505,22.727273 94.820753,12.562266 99.506307,7.1295143 94.618387,2.5062266 89.247901,0.59153175 84.359981,0.59153175 c -8.063512,0 -11.550436,8.34371105 -11.550436,14.89726025 0,4.125156 1.29203,8.250311 3.87609,11.270236 z"
           id="use640"
           style="stroke-width:0.996264" />
        <path
           d="m 165.64824,61.690535 c -2.49066,7.051681 -10.36737,7.051681 -11.6594,7.051681 -0.6071,0 -1.69676,0 -1.69676,-1.011831 0,-0.793898 0.59153,-0.887297 1.08966,-0.996264 1.4944,-0.186799 2.69303,-0.389165 4.29639,-3.253424 0.99627,-1.883562 11.25467,-31.491283 11.25467,-31.693649 0,-0.0934 -0.10896,-0.202366 -0.90286,-0.996264 L 142.12707,4.7478206 c -1.19863,-1.1830635 -1.99252,-1.9769613 -1.99252,-3.2689912 0,-1.38542965 1.19863,-2.5840598 2.78642,-2.5840598 0.40473,0 1.4944,0.20236615 2.1015,0.7938979 1.58779,1.494396 15.83125,18.8356165 24.9066,29.5298875 2.58406,-7.736612 5.77521,-16.843088 8.85741,-25.1556659 0.49813,-1.494396 0.99626,-2.8798256 2.39726,-4.17185548 C 182.18,-0.996264 182.38237,-0.996264 185.16879,-0.996264 h 1.89913 c 0.38917,0 1.08966,0 1.08966,0.79389787 0,0.38916563 -0.0934,0.49813201 -0.49813,0.88729763 -0.90286,1.0896637 -1.58779,2.8798256 -1.99253,4.0628891 z"
           id="use642"
           style="stroke-width:0.996264" />
      </g>
    </g>
    <g
       id="PathCollection_6">
      <g
         id="g649">
        <path
           d="m 214.25,72.096062 1.5,-1.5 1.5,1.5 1.5,-1.5 -1.5,-1.5 1.5,-1.5 -1.5,-1.5 -1.5,1.5 -1.5,-1.5 -1.5,1.5 1.5,1.5 -1.5,1.5 z"
           id="use647"
           style="fill:#333333;stroke:#333333" />
      </g>
    </g>
    <g
       id="text_34">
      <!-- calculated -->
      <g
         style="fill:#262626"
         transform="matrix(0.1,0,0,-0.1,233.75,71.721064)"
         id="g672">
        <use
           transform="scale(0.996264)"
           xlink:href="#CMR17-99"
           id="use652"
           x="0"
           y="0"
           width="100%"
           height="100%" />
        <use
           transform="matrix(0.996264,0,0,0.996264,40.48566,0)"
           xlink:href="#CMR17-97"
           id="use654"
           x="0"
           y="0"
           width="100%"
           height="100%" />
        <use
           transform="matrix(0.996264,0,0,0.996264,86.176138,0)"
           xlink:href="#CMR17-108"
           id="use656"
           x="0"
           y="0"
           width="100%"
           height="100%" />
        <use
           transform="matrix(0.996264,0,0,0.996264,111.0472,0)"
           xlink:href="#CMR17-99"
           id="use658"
           x="0"
           y="0"
           width="100%"
           height="100%" />
        <path
           d="m 180.82925,42.730386 v -2.58406 c 5.86862,0 6.77148,-0.607098 6.77148,-5.448319 V 16.391656 c 0,-8.4526772 -4.48319,-15.80012425 -11.86177,-15.80012425 -8.17248,0 -8.85741,4.93462015 -8.85741,10.16500625 v 33.079078 l -12.06413,-1.10523 v -2.58406 c 3.98505,0 6.67808,0 6.77148,-4.031756 V 16.796388 c 0,-6.740348 0,-11.06787 2.59963,-13.8854291 1.29203,-1.3075965 3.78269,-3.9072229 10.9589,-3.9072229 8.46824,0 11.7528,7.222914 12.5467,9.339975 h 0.10897 v -9.339975 l 11.8462,0.79389787 V 2.3972603 c -5.86862,0 -6.77148,0.6070983 -6.77148,5.4327521 V 43.835616 Z"
           id="use660"
           style="stroke-width:0.996264" />
        <use
           transform="matrix(0.996264,0,0,0.996264,202.42823,0)"
           xlink:href="#CMR17-108"
           id="use662"
           x="0"
           y="0"
           width="100%"
           height="100%" />
        <use
           transform="matrix(0.996264,0,0,0.996264,227.29928,0)"
           xlink:href="#CMR17-97"
           id="use664"
           x="0"
           y="0"
           width="100%"
           height="100%" />
        <use
           transform="matrix(0.996264,0,0,0.996264,272.98976,0)"
           xlink:href="#CMR17-116"
           id="use666"
           x="0"
           y="0"
           width="100%"
           height="100%" />
        <use
           transform="matrix(0.996264,0,0,0.996264,308.27053,0)"
           xlink:href="#CMR17-101"
           id="use668"
           x="0"
           y="0"
           width="100%"
           height="100%" />
        <path
           d="m 377.85021,67.636986 v -2.58406 c 5.86862,0 6.77148,-0.591532 6.77148,-5.230386 V 36.908468 c -0.40473,0.498132 -4.48318,6.927148 -12.5467,6.927148 -10.165,0 -20.03424,-9.153176 -20.03424,-22.41594 0,-13.1849314 9.26214,-22.41594 19.03798,-22.41594 8.46824,0 12.84247,6.6158156 13.3406,7.3163137 V -0.996264 l 12.06413,0.79389787 V 2.3972603 c -5.88418,0 -6.78705,0.6070983 -6.78705,5.4327521 V 68.742216 Z m 6.56912,-55.775218 c 0,-3.019925 -1.79016,-5.7440844 -4.07846,-7.752179 -3.39352,-3.0199252 -6.77148,-3.51805725 -8.67061,-3.51805725 -2.89539,0 -13.2472,1.50996265 -13.2472,20.71917825 0,19.722914 11.55044,20.921544 14.15007,20.921544 4.57658,0 8.26587,-2.615193 10.55417,-6.22665 1.29203,-2.117061 1.29203,-2.428394 1.29203,-4.234122 z"
           id="use670"
           style="stroke-width:0.996264" />
      </g>
    </g>
  </g>
</svg>
