<?xml version="1.0" encoding="utf-8" standalone="no"?>
<!DOCTYPE svg PUBLIC "-//W3C//DTD SVG 1.1//EN"
  "http://www.w3.org/Graphics/SVG/1.1/DTD/svg11.dtd">
<!-- Created with matplotlib (https://matplotlib.org/) -->
<svg height="144pt" version="1.1" viewBox="0 0 576 144" width="576pt" xmlns="http://www.w3.org/2000/svg" xmlns:xlink="http://www.w3.org/1999/xlink">
 <metadata>
  <rdf:RDF xmlns:cc="http://creativecommons.org/ns#" xmlns:dc="http://purl.org/dc/elements/1.1/" xmlns:rdf="http://www.w3.org/1999/02/22-rdf-syntax-ns#">
   <cc:Work>
    <dc:type rdf:resource="http://purl.org/dc/dcmitype/StillImage"/>
    <dc:date>2022-04-15T20:29:43.605761</dc:date>
    <dc:format>image/svg+xml</dc:format>
    <dc:creator>
     <cc:Agent>
      <dc:title>Matplotlib v3.3.4, https://matplotlib.org/</dc:title>
     </cc:Agent>
    </dc:creator>
   </cc:Work>
  </rdf:RDF>
 </metadata>
 <defs>
  <style type="text/css">*{stroke-linecap:butt;stroke-linejoin:round;}</style>
 </defs>
 <g id="figure_1">
  <g id="patch_1">
   <path d="M 0 144 
L 576 144 
L 576 0 
L 0 0 
z
" style="fill:#ffffff;"/>
  </g>
  <g id="axes_1">
   <g id="patch_2">
    <path d="M 32.925311 110.814587 
L 139.540248 110.814587 
L 139.540248 17.474739 
L 32.925311 17.474739 
z
" style="fill:#ffffff;"/>
   </g>
   <g id="matplotlib.axis_1">
    <g id="xtick_1">
     <g id="text_1">
      <!-- \ce{S2} -->
      <g style="fill:#262626;" transform="translate(45.94144 124.733085)scale(0.1 -0.1)">
       <defs>
        <path d="M 43.796875 67.984375 
C 43.796875 69.796875 43.703125 69.890625 43.09375 69.890625 
C 42.5 69.890625 42.296875 69.484375 41.90625 68.59375 
L 38.90625 61.953125 
C 35.09375 67.5 29.296875 70 23 70 
C 12.796875 70 4.59375 61.84375 4.59375 51.578125 
C 4.59375 48.453125 5.296875 44.015625 8.703125 39.78125 
C 12.40625 35.15625 15.90625 34.34375 23.90625 32.234375 
C 26.90625 31.421875 31.90625 30.109375 32.90625 29.703125 
C 38.59375 27.296875 41.59375 21.25 41.59375 15.609375 
C 41.59375 8.34375 36.5 0.59375 27.796875 0.59375 
C 17.09375 0.59375 7.09375 6.640625 6.40625 20.75 
C 6.296875 22.359375 6.203125 22.453125 5.5 22.453125 
C 4.703125 22.453125 4.59375 22.359375 4.59375 20.34375 
L 4.59375 0 
C 4.59375 -1.8125 4.703125 -1.90625 5.296875 -1.90625 
C 6 -1.90625 6.203125 -1.40625 7.59375 1.703125 
C 7.703125 2 7.703125 2.203125 9.59375 6.03125 
C 14.59375 -0.609375 23 -2 27.796875 -2 
C 38.703125 -2 46.40625 7.140625 46.40625 17.828125 
C 46.40625 23.0625 44.5 27.09375 43.40625 28.90625 
C 39.203125 35.359375 34.703125 36.5625 29.90625 37.765625 
C 29.203125 38.078125 29 38.078125 23.40625 39.484375 
C 18 40.890625 15.703125 41.59375 13.203125 44.3125 
C 10.40625 47.4375 9.40625 50.671875 9.40625 53.890625 
C 9.40625 60.4375 14.59375 67.59375 23.09375 67.59375 
C 33.703125 67.59375 40.296875 60.03125 41.796875 47.4375 
C 42.09375 45.625 42.203125 45.53125 42.90625 45.53125 
C 43.796875 45.53125 43.796875 45.828125 43.796875 47.546875 
z
" id="CMR17-83"/>
        <path d="M 41.703125 15.46875 
L 39.90625 15.46875 
C 38.90625 8.390625 38.09375 7.1875 37.703125 6.59375 
C 37.203125 5.796875 30 5.796875 28.59375 5.796875 
L 9.40625 5.796875 
C 13 9.6875 20 16.765625 28.5 24.9375 
C 34.59375 30.71875 41.703125 37.5 41.703125 47.390625 
C 41.703125 59.1875 32.296875 66 21.796875 66 
C 10.796875 66 4.09375 56.296875 4.09375 47.296875 
C 4.09375 43.390625 7 42.890625 8.203125 42.890625 
C 9.203125 42.890625 12.203125 43.484375 12.203125 46.984375 
C 12.203125 50.09375 9.59375 51 8.203125 51 
C 7.59375 51 7 50.890625 6.59375 50.6875 
C 8.5 59.1875 14.296875 63.390625 20.40625 63.390625 
C 29.09375 63.390625 34.796875 56.5 34.796875 47.390625 
C 34.796875 38.703125 29.703125 31.21875 24 24.734375 
L 4.09375 2.296875 
L 4.09375 0 
L 39.296875 0 
z
" id="CMR17-50"/>
       </defs>
       <use transform="scale(0.996264)" xlink:href="#CMR17-83"/>
       <use transform="translate(50.89537 -14.943915)scale(0.697382)" xlink:href="#CMR17-50"/>
      </g>
     </g>
    </g>
    <g id="xtick_2">
     <g id="text_2">
      <!-- \ce{SSe} -->
      <g style="fill:#262626;" transform="translate(78.484043 124.733085)scale(0.1 -0.1)">
       <defs>
        <path d="M 38.09375 23.484375 
C 38.5 23.890625 38.5 24.09375 38.5 25.09375 
C 38.5 35.171875 33.09375 44 21.703125 44 
C 11.09375 44 2.703125 33.984375 2.703125 21.78125 
C 2.703125 8.65625 12.203125 -1 22.796875 -1 
C 34 -1 38.40625 9.671875 38.40625 11.796875 
C 38.40625 12.5 37.796875 12.5 37.59375 12.5 
C 36.90625 12.5 36.796875 12.296875 36.40625 11.078125 
C 34.203125 4.21875 28.703125 0.796875 23.5 0.796875 
C 19.203125 0.796875 14.90625 3.21875 12.203125 7.65625 
C 9.09375 12.796875 9.09375 18.75 9.09375 23.484375 
z
M 9.203125 25 
C 9.90625 39.234375 17.59375 42.390625 21.59375 42.390625 
C 28.40625 42.390625 33 36.0625 33.09375 25 
z
" id="CMR17-101"/>
       </defs>
       <use transform="scale(0.996264)" xlink:href="#CMR17-83"/>
       <use transform="translate(50.89537 0)scale(0.996264)" xlink:href="#CMR17-83"/>
       <use transform="translate(101.79074 0)scale(0.996264)" xlink:href="#CMR17-101"/>
      </g>
     </g>
    </g>
    <g id="xtick_3">
     <g id="text_3">
      <!-- \ce{Se2} -->
      <g style="fill:#262626;" transform="translate(114.804146 124.733085)scale(0.1 -0.1)">
       <use transform="scale(0.996264)" xlink:href="#CMR17-83"/>
       <use transform="translate(50.89537 0)scale(0.996264)" xlink:href="#CMR17-101"/>
       <use transform="translate(91.38103 -14.943915)scale(0.697382)" xlink:href="#CMR17-50"/>
      </g>
     </g>
    </g>
    <g id="text_4">
     <!-- \ce{X2} in \fed{X2}{1+} -->
     <g style="fill:#262626;" transform="translate(51.723213 139.50934)scale(0.1 -0.1)">
      <defs>
       <path d="M 36.5 37.71875 
L 51.296875 58.921875 
C 52.796875 61.015625 55.796875 65.28125 64 65.390625 
L 64 68 
C 61.703125 67.796875 57.90625 67.796875 55.5 67.796875 
C 52.203125 67.796875 48.09375 67.796875 45.59375 68 
L 45.59375 65.390625 
C 48.796875 65.09375 49.59375 63.09375 49.59375 61.5 
C 49.59375 60.3125 49.09375 59.515625 48.40625 58.515625 
L 35.203125 39.515625 
L 20.40625 61.015625 
C 19.703125 62.109375 19.59375 62.40625 19.59375 62.703125 
C 19.59375 63.59375 20.703125 65.28125 24 65.390625 
L 24 68 
C 20.796875 67.796875 15.90625 67.796875 12.59375 67.796875 
C 10 67.796875 5 67.796875 2.59375 68 
L 2.59375 65.390625 
C 8.09375 65.390625 9.90625 65.1875 12.09375 62.109375 
L 31.40625 34.046875 
L 14 8.859375 
C 9.703125 2.6875 3.203125 2.59375 1.296875 2.59375 
L 1.296875 0 
C 3.59375 0.1875 7.40625 0.1875 9.796875 0.1875 
C 12.5 0.1875 17.203125 0.1875 19.703125 0 
L 19.703125 2.59375 
C 16.59375 2.890625 15.703125 4.875 15.703125 6.46875 
C 15.703125 7.765625 16.203125 8.46875 16.703125 9.15625 
L 32.703125 32.25 
L 50.09375 6.96875 
C 50.90625 5.875 50.90625 5.578125 50.90625 5.28125 
C 50.90625 4.484375 50 2.796875 46.5 2.59375 
L 46.5 0 
C 49.703125 0.1875 54.59375 0.1875 57.90625 0.1875 
C 60.5 0.1875 65.5 0.1875 67.90625 0 
L 67.90625 2.59375 
C 61.5 2.59375 60.5 3.09375 58.5 5.875 
z
" id="CMR17-88"/>
       <path d="M 15.5 61.890625 
C 15.5 64.09375 13.703125 66 11.40625 66 
C 9.203125 66 7.296875 64.1875 7.296875 61.890625 
C 7.296875 59.6875 9.09375 57.796875 11.40625 57.796875 
C 13.59375 57.796875 15.5 59.59375 15.5 61.890625 
z
M 3.796875 42.890625 
L 3.796875 40.296875 
C 9.40625 40.296875 10.203125 39.6875 10.203125 34.859375 
L 10.203125 6.921875 
C 10.203125 3.09375 9.796875 2.59375 3.40625 2.59375 
L 3.40625 0 
C 5.796875 0.1875 10.09375 0.1875 12.59375 0.1875 
C 15 0.1875 19.09375 0.1875 21.40625 0 
L 21.40625 2.59375 
C 15.5 2.59375 15.296875 3.203125 15.296875 6.8125 
L 15.296875 44 
z
" id="CMR17-105"/>
       <path d="M 41.5 30.53125 
C 41.5 35.65625 40.5 44 28.703125 44 
C 20.796875 44 16.703125 37.875 15.203125 33.84375 
L 15.09375 33.84375 
L 15.09375 44 
L 3.296875 42.890625 
L 3.296875 40.28125 
C 9.203125 40.28125 10.09375 39.6875 10.09375 34.859375 
L 10.09375 6.921875 
C 10.09375 3.09375 9.703125 2.59375 3.296875 2.59375 
L 3.296875 0 
C 5.703125 0.1875 10.09375 0.1875 12.703125 0.1875 
C 15.296875 0.1875 19.796875 0.1875 22.203125 0 
L 22.203125 2.59375 
C 15.796875 2.59375 15.40625 3 15.40625 6.921875 
L 15.40625 26.21875 
C 15.40625 35.453125 21 42.390625 28 42.390625 
C 35.40625 42.390625 36.203125 35.765625 36.203125 30.9375 
L 36.203125 6.921875 
C 36.203125 3.09375 35.796875 2.59375 29.40625 2.59375 
L 29.40625 0 
C 31.796875 0.1875 36.203125 0.1875 38.796875 0.1875 
C 41.40625 0.1875 45.90625 0.1875 48.296875 0 
L 48.296875 2.59375 
C 41.90625 2.59375 41.5 3 41.5 6.921875 
z
" id="CMR17-110"/>
       <path d="M 23.5 -25 
L 23.5 -21.5 
L 14.09375 -21.5 
L 14.09375 71.484375 
L 23.5 71.484375 
L 23.5 75 
L 10.59375 75 
L 10.59375 -25 
z
" id="CMR17-91"/>
       <path d="M 54.40625 67.796875 
L 5.09375 67.796875 
L 5.09375 65.1875 
C 12 65.1875 13.09375 65.1875 13.09375 60.671875 
L 13.09375 7.03125 
C 13.09375 2.59375 12 2.59375 5.09375 2.59375 
L 5.09375 0 
C 8 0.1875 13.59375 0.1875 16.703125 0.1875 
C 20.796875 0.1875 25.59375 0.1875 29.703125 0 
L 29.703125 2.59375 
L 27.5 2.59375 
C 19.90625 2.59375 19.703125 3.578125 19.703125 7.125 
L 19.703125 32.390625 
L 28.703125 32.390625 
C 38 32.390625 38.90625 29.140625 38.90625 20.84375 
L 40.703125 20.84375 
L 40.703125 46.734375 
L 38.90625 46.734375 
C 38.90625 38.296875 38 35 28.703125 35 
L 19.703125 35 
L 19.703125 61.28125 
C 19.703125 64.6875 19.90625 65.1875 23.90625 65.1875 
L 36.796875 65.1875 
C 51.90625 65.1875 53.59375 58.96875 55 45.625 
L 56.796875 45.625 
z
" id="CMR17-70"/>
       <path d="M 14.296875 75 
L 1.40625 75 
L 1.40625 71.484375 
L 10.796875 71.484375 
L 10.796875 -21.5 
L 1.40625 -21.5 
L 1.40625 -25 
L 14.296875 -25 
z
" id="CMR17-93"/>
       <path d="M 26.59375 63.796875 
C 26.59375 65.890625 26.5 66 25.09375 66 
C 21.203125 61.359375 15.296875 59.890625 9.703125 59.6875 
C 9.40625 59.6875 8.90625 59.6875 8.796875 59.5 
C 8.703125 59.296875 8.703125 59.09375 8.703125 57 
C 11.796875 57 17 57.59375 21 59.984375 
L 21 7.296875 
C 21 3.796875 20.796875 2.59375 12.203125 2.59375 
L 9.203125 2.59375 
L 9.203125 0 
C 14 0.09375 19 0.1875 23.796875 0.1875 
C 28.59375 0.1875 33.59375 0.09375 38.40625 0 
L 38.40625 2.59375 
L 35.40625 2.59375 
C 26.796875 2.59375 26.59375 3.6875 26.59375 7.296875 
z
" id="CMR17-49"/>
       <path d="M 37.703125 23 
L 64.203125 23 
C 65.59375 23 67.296875 23 67.296875 24.6875 
C 67.296875 26.5 65.703125 26.5 64.203125 26.5 
L 37.703125 26.5 
L 37.703125 52.890625 
C 37.703125 54.296875 37.703125 56 36 56 
C 34.203125 56 34.203125 54.390625 34.203125 52.890625 
L 34.203125 26.5 
L 7.703125 26.5 
C 6.296875 26.5 4.59375 26.5 4.59375 24.796875 
C 4.59375 23 6.203125 23 7.703125 23 
L 34.203125 23 
L 34.203125 -3.03125 
C 34.203125 -4.40625 34.203125 -6.109375 35.90625 -6.109375 
C 37.703125 -6.109375 37.703125 -4.515625 37.703125 -3.03125 
z
" id="CMR17-43"/>
      </defs>
      <use transform="scale(0.996264)" xlink:href="#CMR17-88"/>
      <use transform="translate(69.07243 -14.943915)scale(0.697382)" xlink:href="#CMR17-50"/>
      <use transform="translate(131.62971 0)scale(0.996264)" xlink:href="#CMR17-105"/>
      <use transform="translate(156.500769 0)scale(0.996264)" xlink:href="#CMR17-110"/>
      <use transform="translate(237.472105 0)scale(0.996264)" xlink:href="#CMR17-91"/>
      <use transform="translate(262.343163 0)scale(0.996264)" xlink:href="#CMR17-70"/>
      <use transform="translate(314.519754 0)scale(0.996264)" xlink:href="#CMR17-101"/>
      <use transform="translate(355.005415 -14.943915)scale(0.697382)" xlink:href="#CMR17-50"/>
      <use transform="translate(387.486729 0)scale(0.996264)" xlink:href="#CMR17-88"/>
      <use transform="translate(456.559159 -14.943915)scale(0.697382)" xlink:href="#CMR17-50"/>
      <use transform="translate(489.040473 0)scale(0.996264)" xlink:href="#CMR17-93"/>
      <use transform="translate(513.911531 41.137482)scale(0.697382)" xlink:href="#CMR17-49"/>
      <use transform="translate(545.894713 41.137482)scale(0.697382)" xlink:href="#CMR17-43"/>
     </g>
    </g>
   </g>
   <g id="matplotlib.axis_2">
    <g id="ytick_1">
     <g id="line2d_1">
      <path clip-path="url(#pa0733dc8ea)" d="M 32.925311 82.094634 
L 139.540248 82.094634 
" style="fill:none;stroke:#cccccc;stroke-linecap:round;stroke-width:0.8;"/>
     </g>
     <g id="text_5">
      <!-- $\mathdefault{90}$ -->
      <g style="fill:#262626;" transform="translate(15.96264 85.553883)scale(0.1 -0.1)">
       <defs>
        <path d="M 35.203125 29.234375 
C 35.203125 7 26.09375 0.390625 18.59375 0.390625 
C 16.296875 0.390625 10.703125 0.671875 8.40625 4.390625 
C 11 4 12.90625 5.390625 12.90625 7.890625 
C 12.90625 10.59375 10.703125 11.5 9.296875 11.5 
C 8.40625 11.5 5.703125 11.09375 5.703125 7.6875 
C 5.703125 1.0625 11.59375 -2 18.796875 -2 
C 30.296875 -2 42 10.390625 42 32.65625 
C 42 60.265625 30.796875 66 23.203125 66 
C 13.296875 66 3.796875 57.25 3.796875 43.75 
C 3.796875 31.25 11.90625 22 22.09375 22 
C 30.5 22 34.203125 29.84375 35.203125 33.15625 
z
M 22.296875 23.59375 
C 19.59375 23.59375 15.796875 24.09375 12.703125 30.140625 
C 10.59375 34.078125 10.59375 38.703125 10.59375 43.640625 
C 10.59375 49.59375 10.59375 53.71875 13.40625 58.15625 
C 14.796875 60.265625 17.40625 63.6875 23.203125 63.6875 
C 35 63.6875 35 45.453125 35 41.421875 
C 35 34.265625 31.796875 23.59375 22.296875 23.59375 
z
" id="CMR17-57"/>
        <path d="M 42 31.84375 
C 42 37.96875 41.90625 48.421875 37.703125 56.453125 
C 34 63.484375 28.09375 66 22.90625 66 
C 18.09375 66 12 63.78125 8.203125 56.5625 
C 4.203125 49.015625 3.796875 39.671875 3.796875 31.84375 
C 3.796875 26.109375 3.90625 17.375 7 9.734375 
C 11.296875 -0.609375 19 -2 22.90625 -2 
C 27.5 -2 34.5 -0.109375 38.59375 9.4375 
C 41.59375 16.375 42 24.5 42 31.84375 
z
M 22.90625 -0.40625 
C 16.5 -0.40625 12.703125 5.125 11.296875 12.75 
C 10.203125 18.6875 10.203125 27.328125 10.203125 32.953125 
C 10.203125 40.6875 10.203125 47.109375 11.5 53.234375 
C 13.40625 61.78125 19 64.390625 22.90625 64.390625 
C 27 64.390625 32.296875 61.671875 34.203125 53.4375 
C 35.5 47.71875 35.59375 40.984375 35.59375 32.953125 
C 35.59375 26.421875 35.59375 18.375 34.40625 12.453125 
C 32.296875 1.5 26.40625 -0.40625 22.90625 -0.40625 
z
" id="CMR17-48"/>
       </defs>
       <use transform="scale(0.996264)" xlink:href="#CMR17-57"/>
       <use transform="translate(45.690477 0)scale(0.996264)" xlink:href="#CMR17-48"/>
      </g>
     </g>
    </g>
    <g id="ytick_2">
     <g id="line2d_2">
      <path clip-path="url(#pa0733dc8ea)" d="M 32.925311 46.194692 
L 139.540248 46.194692 
" style="fill:none;stroke:#cccccc;stroke-linecap:round;stroke-width:0.8;"/>
     </g>
     <g id="text_6">
      <!-- $\mathdefault{95}$ -->
      <g style="fill:#262626;" transform="translate(15.96264 49.653941)scale(0.1 -0.1)">
       <defs>
        <path d="M 11.40625 58.59375 
C 12.40625 58.1875 16.5 56.890625 20.703125 56.890625 
C 30 56.890625 35.09375 61.890625 38 64.6875 
C 38 65.484375 38 66 37.40625 66 
C 37.296875 66 37.09375 66 36.296875 65.59375 
C 32.796875 64.09375 28.703125 63 23.703125 63 
C 20.703125 63 16.203125 63.359375 11.296875 65.484375 
C 10.203125 66 10 66 9.90625 66 
C 9.40625 66 9.296875 65.890625 9.296875 63.90625 
L 9.296875 34.859375 
C 9.296875 33.015625 9.296875 32.5 10.296875 32.5 
C 10.796875 32.5 11 32.703125 11.5 33.421875 
C 14.703125 38.046875 19.09375 40 24.09375 40 
C 27.59375 40 35.09375 37.734375 35.09375 20.203125 
C 35.09375 16.984375 35.09375 11.1875 32.09375 6.59375 
C 29.59375 2.484375 25.703125 0.390625 21.40625 0.390625 
C 14.796875 0.390625 8.09375 4.984375 6.296875 12.6875 
C 6.703125 12.59375 7.5 12.390625 7.90625 12.390625 
C 9.203125 12.390625 11.703125 13.09375 11.703125 16.1875 
C 11.703125 18.890625 9.796875 20 7.90625 20 
C 5.59375 20 4.09375 18.59375 4.09375 15.796875 
C 4.09375 7.09375 11 -2 21.59375 -2 
C 31.90625 -2 41.703125 6.890625 41.703125 19.796875 
C 41.703125 32.09375 33.90625 41.59375 24.203125 41.59375 
C 19.09375 41.59375 14.796875 39.6875 11.40625 36 
z
" id="CMR17-53"/>
       </defs>
       <use transform="scale(0.996264)" xlink:href="#CMR17-57"/>
       <use transform="translate(45.690477 0)scale(0.996264)" xlink:href="#CMR17-53"/>
      </g>
     </g>
    </g>
    <g id="text_7">
     <!-- Loew. pop. [\si{\percent}] -->
     <g style="fill:#262626;" transform="translate(9.47198 97.976207)rotate(-90)scale(0.1 -0.1)">
      <defs>
       <path d="M 54.203125 25.1875 
L 52.40625 25.1875 
C 51.59375 15.328125 50.296875 2.59375 33.203125 2.59375 
L 23.90625 2.59375 
C 19.90625 2.59375 19.703125 3.09375 19.703125 6.46875 
L 19.703125 60.8125 
C 19.703125 64.390625 19.90625 65.390625 27.5 65.390625 
L 29.703125 65.390625 
L 29.703125 68 
C 25.59375 67.796875 20.796875 67.796875 16.703125 67.796875 
C 13.59375 67.796875 8 67.796875 5.09375 68 
L 5.09375 65.390625 
C 12 65.390625 13.09375 65.390625 13.09375 60.90625 
L 13.09375 7.078125 
C 13.09375 2.59375 12 2.59375 5.09375 2.59375 
L 5.09375 0 
L 51.796875 0 
z
" id="CMR17-76"/>
       <path d="M 43.09375 21.1875 
C 43.09375 34 33.796875 44 22.90625 44 
C 12 44 2.703125 34 2.703125 21.1875 
C 2.703125 8.59375 12 -1 22.90625 -1 
C 33.796875 -1 43.09375 8.59375 43.09375 21.1875 
z
M 22.90625 0.796875 
C 18.203125 0.796875 14.203125 3.59375 11.90625 7.5 
C 9.40625 12 9.09375 17.59375 9.09375 22 
C 9.09375 26.1875 9.296875 31.390625 11.90625 35.890625 
C 13.90625 39.1875 17.796875 42.390625 22.90625 42.390625 
C 27.40625 42.390625 31.203125 39.890625 33.59375 36.390625 
C 36.703125 31.6875 36.703125 25.09375 36.703125 22 
C 36.703125 18.09375 36.5 12.09375 33.796875 7.296875 
C 31 2.6875 26.703125 0.796875 22.90625 0.796875 
z
" id="CMR17-111"/>
       <path d="M 58.203125 34.15625 
C 60.203125 40.09375 64.203125 40.296875 65.703125 40.390625 
L 65.703125 43 
C 63.703125 42.890625 61.703125 42.796875 59.703125 42.796875 
C 57.796875 42.796875 53.5 42.796875 51.796875 43 
L 51.796875 40.390625 
C 54.90625 40.1875 56.59375 38.375 56.59375 35.875 
C 56.59375 35.171875 56.40625 34.265625 56.203125 33.5625 
L 46.796875 6.21875 
L 36.59375 35.875 
C 36.40625 36.578125 36.09375 37.375 36.09375 37.78125 
C 36.09375 40.390625 39.5 40.390625 41.09375 40.390625 
L 41.09375 43 
C 38.796875 42.796875 34.59375 42.796875 32.203125 42.796875 
C 29.703125 42.796875 27.09375 42.796875 24.796875 43 
L 24.796875 40.390625 
C 30.296875 40.390625 30.296875 40.1875 32.40625 33.859375 
L 23.203125 6.921875 
L 13.296875 35.96875 
C 12.796875 37.28125 12.796875 37.484375 12.796875 37.78125 
C 12.796875 40.390625 16.203125 40.390625 17.796875 40.390625 
L 17.796875 43 
C 15.40625 42.796875 11.203125 42.796875 8.703125 42.796875 
C 6.5 42.796875 3.09375 42.796875 1 43 
L 1 40.390625 
C 5.40625 40.390625 6.5 40.09375 7.59375 36.765625 
L 19.90625 0.59375 
C 20.296875 -0.703125 20.59375 -1 21.40625 -1 
C 22.09375 -1 22.5 -0.8125 23 0.6875 
L 33.296875 31.046875 
L 43.703125 0.6875 
C 44.203125 -0.8125 44.59375 -1 45.296875 -1 
C 46.09375 -1 46.40625 -0.703125 46.796875 0.59375 
z
" id="CMR17-119"/>
       <path d="M 16.59375 4.09375 
C 16.59375 6.59375 14.59375 8.1875 12.5 8.1875 
C 10.5 8.1875 8.40625 6.59375 8.40625 4.09375 
C 8.40625 1.59375 10.40625 0 12.5 0 
C 14.5 0 16.59375 1.59375 16.59375 4.09375 
z
" id="CMR17-46"/>
       <path d="M 22 -17.40625 
C 15.59375 -17.40625 15.203125 -17 15.203125 -13.03125 
L 15.203125 5.9375 
C 18.09375 1.703125 22.296875 -1 27.59375 -1 
C 37.59375 -1 47.703125 7.859375 47.703125 21.59375 
C 47.703125 34.3125 39 44 28.703125 44 
C 22.703125 44 17.796875 40.671875 15 36.640625 
L 15 44 
L 3.09375 42.890625 
L 3.09375 40.265625 
C 9 40.265625 9.90625 39.671875 9.90625 34.8125 
L 9.90625 -13.03125 
C 9.90625 -16.890625 9.5 -17.40625 3.09375 -17.40625 
L 3.09375 -20 
C 5.5 -19.8125 9.90625 -19.8125 12.5 -19.8125 
C 15.09375 -19.8125 19.59375 -19.8125 22 -20 
z
M 15.203125 31.484375 
C 15.203125 32.90625 15.203125 35.015625 19.09375 38.765625 
C 19.59375 39.15625 23 42.1875 28 42.1875 
C 35.296875 42.1875 41.296875 33 41.296875 21.5 
C 41.296875 9.984375 34.90625 0.59375 27 0.59375 
C 23.40625 0.59375 19.5 2.3125 16.5 7.046875 
C 15.203125 9.28125 15.203125 9.875 15.203125 11.5 
z
" id="CMR17-112"/>
       <path d="M 72.5 14.5 
C 72.5 26.09375 66.796875 34.59375 60.09375 34.59375 
C 53.296875 34.59375 46.40625 26.6875 46.40625 14.5 
C 46.40625 2.296875 53.203125 -5.609375 60.09375 -5.609375 
C 66.796875 -5.609375 72.5 2.796875 72.5 14.5 
z
M 60.203125 -4 
C 57.59375 -4 51.09375 -1.609375 51.09375 14.5 
C 51.09375 30.6875 57.59375 33 60.203125 33 
C 65.703125 33 70.703125 25.09375 70.703125 14.5 
C 70.703125 3.890625 65.703125 -4 60.203125 -4 
z
M 63.796875 71.4375 
C 64.5 72.5625 64.59375 72.671875 64.59375 73.1875 
C 64.59375 74.390625 63.703125 75 62.90625 75 
C 61.90625 75 61.5 74.296875 60.796875 73.484375 
C 55 64.921875 47 64 42.90625 64 
C 32.90625 64 26.796875 69.984375 24.90625 71.84375 
C 23.59375 73.078125 21.703125 75 18.296875 75 
C 11.5 75 4.59375 66.890625 4.59375 54.625 
C 4.59375 42.46875 11.40625 34.59375 18.296875 34.59375 
C 25 34.59375 30.703125 42.96875 30.703125 54.625 
C 30.703125 61.5 28.59375 66.265625 28.296875 66.890625 
C 34.40625 62.890625 40.40625 62.390625 43 62.390625 
C 49.40625 62.390625 54 64.8125 56.5 66.578125 
L 56.59375 66.46875 
L 13.40625 -1.90625 
C 12.5 -3.3125 12.5 -3.5 12.5 -3.8125 
C 12.5 -4.90625 13.40625 -5.609375 14.296875 -5.609375 
C 15.203125 -5.609375 15.5 -5.109375 16.203125 -4 
z
M 18.40625 36.1875 
C 15.796875 36.1875 9.296875 38.578125 9.296875 54.625 
C 9.296875 71.015625 15.796875 73.390625 18.40625 73.390625 
C 23.90625 73.390625 28.90625 65.234375 28.90625 54.625 
C 28.90625 44.0625 23.90625 36.1875 18.40625 36.1875 
z
" id="CMR17-37"/>
      </defs>
      <use transform="scale(0.996264)" xlink:href="#CMR17-76"/>
      <use transform="translate(57.381408 0)scale(0.996264)" xlink:href="#CMR17-111"/>
      <use transform="translate(105.674324 0)scale(0.996264)" xlink:href="#CMR17-101"/>
      <use transform="translate(146.159984 0)scale(0.996264)" xlink:href="#CMR17-119"/>
      <use transform="translate(212.669865 0)scale(0.996264)" xlink:href="#CMR17-46"/>
      <use transform="translate(278.026584 0)scale(0.996264)" xlink:href="#CMR17-112"/>
      <use transform="translate(331.524392 0)scale(0.996264)" xlink:href="#CMR17-111"/>
      <use transform="translate(377.214869 0)scale(0.996264)" xlink:href="#CMR17-112"/>
      <use transform="translate(428.110239 0)scale(0.996264)" xlink:href="#CMR17-46"/>
      <use transform="translate(493.466958 0)scale(0.996264)" xlink:href="#CMR17-91"/>
      <use transform="translate(518.338016 0)scale(0.996264)" xlink:href="#CMR17-37"/>
      <use transform="translate(595.257606 0)scale(0.996264)" xlink:href="#CMR17-93"/>
     </g>
    </g>
   </g>
   <g id="line2d_3">
    <path clip-path="url(#pa0733dc8ea)" d="M 50.694467 28.96272 
L 86.23278 31.834716 
L 121.771092 29.680719 
" style="fill:none;stroke:#000000;stroke-linecap:round;stroke-width:1.5;"/>
    <defs>
     <path d="M 0 3 
C 0.795609 3 1.55874 2.683901 2.12132 2.12132 
C 2.683901 1.55874 3 0.795609 3 0 
C 3 -0.795609 2.683901 -1.55874 2.12132 -2.12132 
C 1.55874 -2.683901 0.795609 -3 0 -3 
C -0.795609 -3 -1.55874 -2.683901 -2.12132 -2.12132 
C -2.683901 -1.55874 -3 -0.795609 -3 0 
C -3 0.795609 -2.683901 1.55874 -2.12132 2.12132 
C -1.55874 2.683901 -0.795609 3 0 3 
z
" id="me092858d67" style="stroke:#ffffff;stroke-width:0.75;"/>
    </defs>
    <g clip-path="url(#pa0733dc8ea)">
     <use style="stroke:#ffffff;stroke-width:0.75;" x="50.694467" xlink:href="#me092858d67" y="28.96272"/>
     <use style="stroke:#ffffff;stroke-width:0.75;" x="86.23278" xlink:href="#me092858d67" y="31.834716"/>
     <use style="stroke:#ffffff;stroke-width:0.75;" x="121.771092" xlink:href="#me092858d67" y="29.680719"/>
    </g>
   </g>
   <g id="line2d_4"/>
   <g id="line2d_5">
    <path clip-path="url(#pa0733dc8ea)" d="M 50.694467 26.090725 
L 86.23278 25.372726 
L 121.771092 26.090725 
" style="fill:none;stroke:#808080;stroke-linecap:round;stroke-width:1.5;"/>
    <defs>
     <path d="M -1.5 3 
L 0 1.5 
L 1.5 3 
L 3 1.5 
L 1.5 0 
L 3 -1.5 
L 1.5 -3 
L 0 -1.5 
L -1.5 -3 
L -3 -1.5 
L -1.5 0 
L -3 1.5 
z
" id="m350adf3a56" style="stroke:#ffffff;stroke-linejoin:miter;stroke-width:0.75;"/>
    </defs>
    <g clip-path="url(#pa0733dc8ea)">
     <use style="fill:#808080;stroke:#ffffff;stroke-linejoin:miter;stroke-width:0.75;" x="50.694467" xlink:href="#m350adf3a56" y="26.090725"/>
     <use style="fill:#808080;stroke:#ffffff;stroke-linejoin:miter;stroke-width:0.75;" x="86.23278" xlink:href="#m350adf3a56" y="25.372726"/>
     <use style="fill:#808080;stroke:#ffffff;stroke-linejoin:miter;stroke-width:0.75;" x="121.771092" xlink:href="#m350adf3a56" y="26.090725"/>
    </g>
   </g>
   <g id="line2d_6"/>
   <g id="patch_3">
    <path d="M 32.925311 110.814587 
L 32.925311 17.474739 
" style="fill:none;stroke:#262626;stroke-linecap:square;stroke-linejoin:miter;stroke-width:0.8;"/>
   </g>
   <g id="patch_4">
    <path d="M 139.540248 110.814587 
L 139.540248 17.474739 
" style="fill:none;stroke:#262626;stroke-linecap:square;stroke-linejoin:miter;stroke-width:0.8;"/>
   </g>
   <g id="patch_5">
    <path d="M 32.925311 110.814587 
L 139.540248 110.814587 
" style="fill:none;stroke:#262626;stroke-linecap:square;stroke-linejoin:miter;stroke-width:0.8;"/>
   </g>
   <g id="patch_6">
    <path d="M 32.925311 17.474739 
L 139.540248 17.474739 
" style="fill:none;stroke:#262626;stroke-linecap:square;stroke-linejoin:miter;stroke-width:0.8;"/>
   </g>
   <g id="text_8">
    <!-- $z^2$ -->
    <g style="fill:#262626;" transform="translate(81.130385 11.474739)scale(0.12 -0.12)">
     <defs>
      <path d="M 12.703125 7.59375 
C 17 12.640625 20.5 15.859375 25.5 20.515625 
C 31.5 25.890625 34.09375 28.46875 35.5 30.03125 
C 42.5 37.046875 46 42.390625 46 43.1875 
C 46 44 45.203125 44 45 44 
C 44.296875 44 44.09375 43.59375 43.59375 42.890625 
C 41.09375 38.59375 38.703125 37 36.09375 37 
C 34 37 32.90625 37.546875 31 39.796875 
C 28.90625 42.296875 27.203125 44 24.296875 44 
C 17 44 12.59375 35.390625 12.59375 33.234375 
C 12.59375 32.921875 12.703125 32.296875 13.59375 32.296875 
C 14.40625 32.296875 14.5 32.71875 14.796875 33.4375 
C 16.5 37.296875 21.296875 37.734375 23.203125 37.734375 
C 25.296875 37.734375 27.296875 37.296875 29.40625 36.59375 
C 33.203125 34.984375 34.796875 34.984375 35.796875 34.984375 
C 36.5 34.984375 36.90625 34.984375 37.40625 35.09375 
C 34.09375 31.0625 28.703125 26.09375 24.203125 21.859375 
L 14.09375 12.234375 
C 8 5.9375 4.296875 0.5 4.296875 -0.203125 
C 4.296875 -0.8125 4.796875 -1 5.40625 -1 
C 6 -1 6.09375 -0.90625 6.796875 0.296875 
C 8.40625 2.796875 11.59375 6 15.296875 6 
C 17.40625 6 18.40625 5.5625 20.40625 3.296875 
C 22.296875 1.09375 24 -1 27.203125 -1 
C 37 -1 42.59375 11.296875 42.59375 13.6875 
C 42.59375 14.09375 42.5 14.71875 41.5 14.71875 
C 40.703125 14.71875 40.59375 14.296875 40.296875 13.265625 
C 38.09375 7.1875 32.203125 5.25 28.296875 5.25 
C 26.203125 5.25 24.203125 5.6875 22.09375 6.390625 
C 18.09375 8 17 8 15.703125 8 
C 14.703125 8 13.59375 8 12.703125 7.59375 
z
" id="CMMI12-122"/>
     </defs>
     <use transform="scale(0.996264)" xlink:href="#CMMI12-122"/>
     <use transform="translate(49.755145 36.153639)scale(0.697382)" xlink:href="#CMR17-50"/>
    </g>
   </g>
  </g>
  <g id="axes_2">
   <g id="patch_7">
    <path d="M 141.540248 110.814587 
L 248.155186 110.814587 
L 248.155186 17.474739 
L 141.540248 17.474739 
z
" style="fill:#ffffff;"/>
   </g>
   <g id="matplotlib.axis_3">
    <g id="xtick_4">
     <g id="text_9">
      <!-- \ce{S2} -->
      <g style="fill:#262626;" transform="translate(154.556378 124.733085)scale(0.1 -0.1)">
       <use transform="scale(0.996264)" xlink:href="#CMR17-83"/>
       <use transform="translate(50.89537 -14.943915)scale(0.697382)" xlink:href="#CMR17-50"/>
      </g>
     </g>
    </g>
    <g id="xtick_5">
     <g id="text_10">
      <!-- \ce{SSe} -->
      <g style="fill:#262626;" transform="translate(187.098981 124.733085)scale(0.1 -0.1)">
       <use transform="scale(0.996264)" xlink:href="#CMR17-83"/>
       <use transform="translate(50.89537 0)scale(0.996264)" xlink:href="#CMR17-83"/>
       <use transform="translate(101.79074 0)scale(0.996264)" xlink:href="#CMR17-101"/>
      </g>
     </g>
    </g>
    <g id="xtick_6">
     <g id="text_11">
      <!-- \ce{Se2} -->
      <g style="fill:#262626;" transform="translate(223.419084 124.733085)scale(0.1 -0.1)">
       <use transform="scale(0.996264)" xlink:href="#CMR17-83"/>
       <use transform="translate(50.89537 0)scale(0.996264)" xlink:href="#CMR17-101"/>
       <use transform="translate(91.38103 -14.943915)scale(0.697382)" xlink:href="#CMR17-50"/>
      </g>
     </g>
    </g>
   </g>
   <g id="matplotlib.axis_4">
    <g id="ytick_3">
     <g id="line2d_7">
      <path clip-path="url(#pa9c26fb706)" d="M 141.540248 82.094634 
L 248.155186 82.094634 
" style="fill:none;stroke:#cccccc;stroke-linecap:round;stroke-width:0.8;"/>
     </g>
    </g>
    <g id="ytick_4">
     <g id="line2d_8">
      <path clip-path="url(#pa9c26fb706)" d="M 141.540248 46.194692 
L 248.155186 46.194692 
" style="fill:none;stroke:#cccccc;stroke-linecap:round;stroke-width:0.8;"/>
     </g>
    </g>
   </g>
   <g id="line2d_9">
    <path clip-path="url(#pa9c26fb706)" d="M 159.309405 46.194692 
L 194.847717 44.040696 
L 230.38603 43.322697 
" style="fill:none;stroke:#000000;stroke-linecap:round;stroke-width:1.5;"/>
    <g clip-path="url(#pa9c26fb706)">
     <use style="stroke:#ffffff;stroke-width:0.75;" x="159.309405" xlink:href="#me092858d67" y="46.194692"/>
     <use style="stroke:#ffffff;stroke-width:0.75;" x="194.847717" xlink:href="#me092858d67" y="44.040696"/>
     <use style="stroke:#ffffff;stroke-width:0.75;" x="230.38603" xlink:href="#me092858d67" y="43.322697"/>
    </g>
   </g>
   <g id="line2d_10"/>
   <g id="line2d_11">
    <path clip-path="url(#pa9c26fb706)" d="M 159.309405 26.808724 
L 194.847717 26.090725 
L 230.38603 25.372726 
" style="fill:none;stroke:#808080;stroke-linecap:round;stroke-width:1.5;"/>
    <g clip-path="url(#pa9c26fb706)">
     <use style="fill:#808080;stroke:#ffffff;stroke-linejoin:miter;stroke-width:0.75;" x="159.309405" xlink:href="#m350adf3a56" y="26.808724"/>
     <use style="fill:#808080;stroke:#ffffff;stroke-linejoin:miter;stroke-width:0.75;" x="194.847717" xlink:href="#m350adf3a56" y="26.090725"/>
     <use style="fill:#808080;stroke:#ffffff;stroke-linejoin:miter;stroke-width:0.75;" x="230.38603" xlink:href="#m350adf3a56" y="25.372726"/>
    </g>
   </g>
   <g id="line2d_12"/>
   <g id="patch_8">
    <path d="M 141.540248 110.814587 
L 141.540248 17.474739 
" style="fill:none;stroke:#262626;stroke-linecap:square;stroke-linejoin:miter;stroke-width:0.8;"/>
   </g>
   <g id="patch_9">
    <path d="M 248.155186 110.814587 
L 248.155186 17.474739 
" style="fill:none;stroke:#262626;stroke-linecap:square;stroke-linejoin:miter;stroke-width:0.8;"/>
   </g>
   <g id="patch_10">
    <path d="M 141.540248 110.814587 
L 248.155186 110.814587 
" style="fill:none;stroke:#262626;stroke-linecap:square;stroke-linejoin:miter;stroke-width:0.8;"/>
   </g>
   <g id="patch_11">
    <path d="M 141.540248 17.474739 
L 248.155186 17.474739 
" style="fill:none;stroke:#262626;stroke-linecap:square;stroke-linejoin:miter;stroke-width:0.8;"/>
   </g>
   <g id="text_12">
    <!-- $x^2-y^2$ -->
    <g style="fill:#262626;" transform="translate(176.664197 11.474739)scale(0.12 -0.12)">
     <defs>
      <path d="M 47.40625 41 
C 44.203125 40.390625 43 37.984375 43 36.09375 
C 43 33.6875 44.90625 32.890625 46.296875 32.890625 
C 49.296875 32.890625 51.40625 35.484375 51.40625 38.1875 
C 51.40625 42.09375 46.59375 44 42.40625 44 
C 36.296875 44 32.90625 38.296875 32 36.390625 
C 29.703125 43.59375 23.5 44 21.703125 44 
C 11.5 44 6.09375 31.140625 6.09375 28.890625 
C 6.09375 28.484375 6.5 27.96875 7.203125 27.96875 
C 8 27.96875 8.203125 28.578125 8.40625 28.984375 
C 11.796875 40.1875 18.5 41.984375 21.40625 41.984375 
C 25.90625 41.984375 26.796875 38.09375 26.796875 35.6875 
C 26.796875 33.484375 26.203125 31.140625 25 26.21875 
L 21.59375 12.15625 
C 20.09375 6.09375 17.203125 1 11.90625 1 
C 11.40625 1 8.90625 1 6.796875 1.96875 
C 10.40625 2.59375 11.203125 5.59375 11.203125 6.796875 
C 11.203125 8.796875 9.703125 10 7.796875 10 
C 5.40625 10 2.796875 7.890625 2.796875 4.6875 
C 2.796875 0.890625 7.5 -1 11.796875 -1 
C 16.59375 -1 20 2.390625 22.09375 6.484375 
C 23.703125 1 28.703125 -1 32.40625 -1 
C 42.59375 -1 48 11.734375 48 14 
C 48 14.515625 47.59375 14.921875 47 14.921875 
C 46.09375 14.921875 46 14.40625 45.703125 13.59375 
C 43 4.6875 37.203125 1 32.703125 1 
C 29.203125 1 27.296875 3.1875 27.296875 7.296875 
C 27.296875 9.484375 27.703125 11.125 29.296875 17.90625 
L 32.796875 31.859375 
C 34.296875 37.890625 37.703125 41.984375 42.296875 41.984375 
C 42.5 41.984375 45.296875 41.984375 47.40625 41 
z
" id="CMMI12-120"/>
      <path d="M 65.90625 23 
C 67.59375 23 69.40625 23 69.40625 25 
C 69.40625 27 67.59375 27 65.90625 27 
L 11.796875 27 
C 10.09375 27 8.296875 27 8.296875 25 
C 8.296875 23 10.09375 23 11.796875 23 
z
" id="CMSY10-0"/>
      <path d="M 26.296875 -10.515625 
C 23.59375 -14.390625 19.703125 -18 14.796875 -18 
C 13.59375 -18 8.796875 -17.796875 7.296875 -12.90625 
C 7.59375 -13.015625 8.09375 -13.015625 8.296875 -13.015625 
C 11.296875 -13.015625 13.296875 -10.40625 13.296875 -8.109375 
C 13.296875 -5.8125 11.40625 -5 9.90625 -5 
C 8.296875 -5 4.796875 -6.203125 4.796875 -11.109375 
C 4.796875 -16.40625 9.09375 -20 14.796875 -20 
C 24.796875 -20 34.90625 -10.515625 37.703125 -0.109375 
L 47.5 38.796875 
C 47.59375 39.296875 47.796875 39.890625 47.796875 40.484375 
C 47.796875 41.984375 46.59375 43 45.09375 43 
C 44.203125 43 42.09375 42.59375 41.296875 39.59375 
L 33.90625 10.265625 
C 33.40625 8.46875 33.40625 8.28125 32.59375 7.171875 
C 30.59375 4.390625 27.296875 1 22.5 1 
C 16.90625 1 16.40625 6.484375 16.40625 9.171875 
C 16.40625 14.859375 19.09375 22.546875 21.796875 29.71875 
C 22.90625 32.609375 23.5 34.015625 23.5 36.015625 
C 23.5 40.203125 20.5 44 15.59375 44 
C 6.40625 44 2.703125 29.53125 2.703125 28.71875 
C 2.703125 28.328125 3.09375 27.828125 3.796875 27.828125 
C 4.703125 27.828125 4.796875 28.234375 5.203125 29.625 
C 7.59375 38 11.40625 41.984375 15.296875 41.984375 
C 16.203125 41.984375 17.90625 41.984375 17.90625 38.703125 
C 17.90625 36.109375 16.796875 33.21875 15.296875 29.421875 
C 10.40625 16.359375 10.40625 13.0625 10.40625 10.671875 
C 10.40625 1.1875 17.203125 -1 22.203125 -1 
C 25.09375 -1 28.703125 -0.109375 32.203125 3.59375 
L 32.296875 3.484375 
C 30.796875 -2.203125 29.796875 -5.609375 26.296875 -10.515625 
z
" id="CMMI12-121"/>
     </defs>
     <use transform="scale(0.996264)" xlink:href="#CMMI12-120"/>
     <use transform="translate(55.43406 36.153639)scale(0.697382)" xlink:href="#CMR17-50"/>
     <use transform="translate(110.05458 0)scale(0.996264)" xlink:href="#CMSY10-0"/>
     <use transform="translate(209.681255 0)scale(0.996264)" xlink:href="#CMMI12-121"/>
     <use transform="translate(260.820036 36.153639)scale(0.697382)" xlink:href="#CMR17-50"/>
    </g>
   </g>
  </g>
  <g id="axes_3">
   <g id="patch_12">
    <path d="M 250.155186 110.814587 
L 356.770124 110.814587 
L 356.770124 17.474739 
L 250.155186 17.474739 
z
" style="fill:#ffffff;"/>
   </g>
   <g id="matplotlib.axis_5">
    <g id="xtick_7">
     <g id="text_13">
      <!-- \ce{S2} -->
      <g style="fill:#262626;" transform="translate(263.171315 124.733085)scale(0.1 -0.1)">
       <use transform="scale(0.996264)" xlink:href="#CMR17-83"/>
       <use transform="translate(50.89537 -14.943915)scale(0.697382)" xlink:href="#CMR17-50"/>
      </g>
     </g>
    </g>
    <g id="xtick_8">
     <g id="text_14">
      <!-- \ce{SSe} -->
      <g style="fill:#262626;" transform="translate(295.713919 124.733085)scale(0.1 -0.1)">
       <use transform="scale(0.996264)" xlink:href="#CMR17-83"/>
       <use transform="translate(50.89537 0)scale(0.996264)" xlink:href="#CMR17-83"/>
       <use transform="translate(101.79074 0)scale(0.996264)" xlink:href="#CMR17-101"/>
      </g>
     </g>
    </g>
    <g id="xtick_9">
     <g id="text_15">
      <!-- \ce{Se2} -->
      <g style="fill:#262626;" transform="translate(332.034021 124.733085)scale(0.1 -0.1)">
       <use transform="scale(0.996264)" xlink:href="#CMR17-83"/>
       <use transform="translate(50.89537 0)scale(0.996264)" xlink:href="#CMR17-101"/>
       <use transform="translate(91.38103 -14.943915)scale(0.697382)" xlink:href="#CMR17-50"/>
      </g>
     </g>
    </g>
   </g>
   <g id="matplotlib.axis_6">
    <g id="ytick_5">
     <g id="line2d_13">
      <path clip-path="url(#pf9a91c2c0c)" d="M 250.155186 82.094634 
L 356.770124 82.094634 
" style="fill:none;stroke:#cccccc;stroke-linecap:round;stroke-width:0.8;"/>
     </g>
    </g>
    <g id="ytick_6">
     <g id="line2d_14">
      <path clip-path="url(#pf9a91c2c0c)" d="M 250.155186 46.194692 
L 356.770124 46.194692 
" style="fill:none;stroke:#cccccc;stroke-linecap:round;stroke-width:0.8;"/>
     </g>
    </g>
   </g>
   <g id="line2d_15">
    <path clip-path="url(#pf9a91c2c0c)" d="M 267.924343 72.04265 
L 303.462655 72.760649 
L 339.000968 69.170655 
" style="fill:none;stroke:#000000;stroke-linecap:round;stroke-width:1.5;"/>
    <g clip-path="url(#pf9a91c2c0c)">
     <use style="stroke:#ffffff;stroke-width:0.75;" x="267.924343" xlink:href="#me092858d67" y="72.04265"/>
     <use style="stroke:#ffffff;stroke-width:0.75;" x="303.462655" xlink:href="#me092858d67" y="72.760649"/>
     <use style="stroke:#ffffff;stroke-width:0.75;" x="339.000968" xlink:href="#me092858d67" y="69.170655"/>
    </g>
   </g>
   <g id="line2d_16"/>
   <g id="line2d_17">
    <path clip-path="url(#pf9a91c2c0c)" d="M 267.924343 38.296705 
L 303.462655 37.578706 
L 339.000968 35.42471 
" style="fill:none;stroke:#808080;stroke-linecap:round;stroke-width:1.5;"/>
    <g clip-path="url(#pf9a91c2c0c)">
     <use style="fill:#808080;stroke:#ffffff;stroke-linejoin:miter;stroke-width:0.75;" x="267.924343" xlink:href="#m350adf3a56" y="38.296705"/>
     <use style="fill:#808080;stroke:#ffffff;stroke-linejoin:miter;stroke-width:0.75;" x="303.462655" xlink:href="#m350adf3a56" y="37.578706"/>
     <use style="fill:#808080;stroke:#ffffff;stroke-linejoin:miter;stroke-width:0.75;" x="339.000968" xlink:href="#m350adf3a56" y="35.42471"/>
    </g>
   </g>
   <g id="line2d_18"/>
   <g id="patch_13">
    <path d="M 250.155186 110.814587 
L 250.155186 17.474739 
" style="fill:none;stroke:#262626;stroke-linecap:square;stroke-linejoin:miter;stroke-width:0.8;"/>
   </g>
   <g id="patch_14">
    <path d="M 356.770124 110.814587 
L 356.770124 17.474739 
" style="fill:none;stroke:#262626;stroke-linecap:square;stroke-linejoin:miter;stroke-width:0.8;"/>
   </g>
   <g id="patch_15">
    <path d="M 250.155186 110.814587 
L 356.770124 110.814587 
" style="fill:none;stroke:#262626;stroke-linecap:square;stroke-linejoin:miter;stroke-width:0.8;"/>
   </g>
   <g id="patch_16">
    <path d="M 250.155186 17.474739 
L 356.770124 17.474739 
" style="fill:none;stroke:#262626;stroke-linecap:square;stroke-linejoin:miter;stroke-width:0.8;"/>
   </g>
   <g id="text_16">
    <!-- $xy$ -->
    <g style="fill:#262626;" transform="translate(297.282766 11.474739)scale(0.12 -0.12)">
     <use transform="scale(0.996264)" xlink:href="#CMMI12-120"/>
     <use transform="translate(55.43406 0)scale(0.996264)" xlink:href="#CMMI12-121"/>
    </g>
   </g>
  </g>
  <g id="axes_4">
   <g id="patch_17">
    <path d="M 358.770124 110.814587 
L 465.385062 110.814587 
L 465.385062 17.474739 
L 358.770124 17.474739 
z
" style="fill:#ffffff;"/>
   </g>
   <g id="matplotlib.axis_7">
    <g id="xtick_10">
     <g id="text_17">
      <!-- \ce{S2} -->
      <g style="fill:#262626;" transform="translate(371.786253 124.733085)scale(0.1 -0.1)">
       <use transform="scale(0.996264)" xlink:href="#CMR17-83"/>
       <use transform="translate(50.89537 -14.943915)scale(0.697382)" xlink:href="#CMR17-50"/>
      </g>
     </g>
    </g>
    <g id="xtick_11">
     <g id="text_18">
      <!-- \ce{SSe} -->
      <g style="fill:#262626;" transform="translate(404.328857 124.733085)scale(0.1 -0.1)">
       <use transform="scale(0.996264)" xlink:href="#CMR17-83"/>
       <use transform="translate(50.89537 0)scale(0.996264)" xlink:href="#CMR17-83"/>
       <use transform="translate(101.79074 0)scale(0.996264)" xlink:href="#CMR17-101"/>
      </g>
     </g>
    </g>
    <g id="xtick_12">
     <g id="text_19">
      <!-- \ce{Se2} -->
      <g style="fill:#262626;" transform="translate(440.648959 124.733085)scale(0.1 -0.1)">
       <use transform="scale(0.996264)" xlink:href="#CMR17-83"/>
       <use transform="translate(50.89537 0)scale(0.996264)" xlink:href="#CMR17-101"/>
       <use transform="translate(91.38103 -14.943915)scale(0.697382)" xlink:href="#CMR17-50"/>
      </g>
     </g>
    </g>
   </g>
   <g id="matplotlib.axis_8">
    <g id="ytick_7">
     <g id="line2d_19">
      <path clip-path="url(#p7806b8077f)" d="M 358.770124 82.094634 
L 465.385062 82.094634 
" style="fill:none;stroke:#cccccc;stroke-linecap:round;stroke-width:0.8;"/>
     </g>
    </g>
    <g id="ytick_8">
     <g id="line2d_20">
      <path clip-path="url(#p7806b8077f)" d="M 358.770124 46.194692 
L 465.385062 46.194692 
" style="fill:none;stroke:#cccccc;stroke-linecap:round;stroke-width:0.8;"/>
     </g>
    </g>
   </g>
   <g id="line2d_21">
    <path clip-path="url(#p7806b8077f)" d="M 376.539281 90.71062 
L 412.077593 79.222638 
L 447.615906 79.222638 
" style="fill:none;stroke:#000000;stroke-linecap:round;stroke-width:1.5;"/>
    <g clip-path="url(#p7806b8077f)">
     <use style="stroke:#ffffff;stroke-width:0.75;" x="376.539281" xlink:href="#me092858d67" y="90.71062"/>
     <use style="stroke:#ffffff;stroke-width:0.75;" x="412.077593" xlink:href="#me092858d67" y="79.222638"/>
     <use style="stroke:#ffffff;stroke-width:0.75;" x="447.615906" xlink:href="#me092858d67" y="79.222638"/>
    </g>
   </g>
   <g id="line2d_22"/>
   <g id="line2d_23">
    <path clip-path="url(#p7806b8077f)" d="M 376.539281 48.348689 
L 412.077593 44.758694 
L 447.615906 47.63069 
" style="fill:none;stroke:#808080;stroke-linecap:round;stroke-width:1.5;"/>
    <g clip-path="url(#p7806b8077f)">
     <use style="fill:#808080;stroke:#ffffff;stroke-linejoin:miter;stroke-width:0.75;" x="376.539281" xlink:href="#m350adf3a56" y="48.348689"/>
     <use style="fill:#808080;stroke:#ffffff;stroke-linejoin:miter;stroke-width:0.75;" x="412.077593" xlink:href="#m350adf3a56" y="44.758694"/>
     <use style="fill:#808080;stroke:#ffffff;stroke-linejoin:miter;stroke-width:0.75;" x="447.615906" xlink:href="#m350adf3a56" y="47.63069"/>
    </g>
   </g>
   <g id="line2d_24"/>
   <g id="patch_18">
    <path d="M 358.770124 110.814587 
L 358.770124 17.474739 
" style="fill:none;stroke:#262626;stroke-linecap:square;stroke-linejoin:miter;stroke-width:0.8;"/>
   </g>
   <g id="patch_19">
    <path d="M 465.385062 110.814587 
L 465.385062 17.474739 
" style="fill:none;stroke:#262626;stroke-linecap:square;stroke-linejoin:miter;stroke-width:0.8;"/>
   </g>
   <g id="patch_20">
    <path d="M 358.770124 110.814587 
L 465.385062 110.814587 
" style="fill:none;stroke:#262626;stroke-linecap:square;stroke-linejoin:miter;stroke-width:0.8;"/>
   </g>
   <g id="patch_21">
    <path d="M 358.770124 17.474739 
L 465.385062 17.474739 
" style="fill:none;stroke:#262626;stroke-linecap:square;stroke-linejoin:miter;stroke-width:0.8;"/>
   </g>
   <g id="text_20">
    <!-- $xz$ -->
    <g style="fill:#262626;" transform="translate(406.032604 11.474739)scale(0.12 -0.12)">
     <use transform="scale(0.996264)" xlink:href="#CMMI12-120"/>
     <use transform="translate(55.43406 0)scale(0.996264)" xlink:href="#CMMI12-122"/>
    </g>
   </g>
  </g>
  <g id="axes_5">
   <g id="patch_22">
    <path d="M 467.385062 110.814587 
L 574 110.814587 
L 574 17.474739 
L 467.385062 17.474739 
z
" style="fill:#ffffff;"/>
   </g>
   <g id="matplotlib.axis_9">
    <g id="xtick_13">
     <g id="text_21">
      <!-- \ce{S2} -->
      <g style="fill:#262626;" transform="translate(480.401191 124.733085)scale(0.1 -0.1)">
       <use transform="scale(0.996264)" xlink:href="#CMR17-83"/>
       <use transform="translate(50.89537 -14.943915)scale(0.697382)" xlink:href="#CMR17-50"/>
      </g>
     </g>
    </g>
    <g id="xtick_14">
     <g id="text_22">
      <!-- \ce{SSe} -->
      <g style="fill:#262626;" transform="translate(512.943795 124.733085)scale(0.1 -0.1)">
       <use transform="scale(0.996264)" xlink:href="#CMR17-83"/>
       <use transform="translate(50.89537 0)scale(0.996264)" xlink:href="#CMR17-83"/>
       <use transform="translate(101.79074 0)scale(0.996264)" xlink:href="#CMR17-101"/>
      </g>
     </g>
    </g>
    <g id="xtick_15">
     <g id="text_23">
      <!-- \ce{Se2} -->
      <g style="fill:#262626;" transform="translate(549.263897 124.733085)scale(0.1 -0.1)">
       <use transform="scale(0.996264)" xlink:href="#CMR17-83"/>
       <use transform="translate(50.89537 0)scale(0.996264)" xlink:href="#CMR17-101"/>
       <use transform="translate(91.38103 -14.943915)scale(0.697382)" xlink:href="#CMR17-50"/>
      </g>
     </g>
    </g>
   </g>
   <g id="matplotlib.axis_10">
    <g id="ytick_9">
     <g id="line2d_25">
      <path clip-path="url(#p50c177c9da)" d="M 467.385062 82.094634 
L 574 82.094634 
" style="fill:none;stroke:#cccccc;stroke-linecap:round;stroke-width:0.8;"/>
     </g>
    </g>
    <g id="ytick_10">
     <g id="line2d_26">
      <path clip-path="url(#p50c177c9da)" d="M 467.385062 46.194692 
L 574 46.194692 
" style="fill:none;stroke:#cccccc;stroke-linecap:round;stroke-width:0.8;"/>
     </g>
    </g>
   </g>
   <g id="line2d_27">
    <path clip-path="url(#p50c177c9da)" d="M 485.154218 93.582615 
L 520.692531 103.634599 
L 556.230844 105.788595 
" style="fill:none;stroke:#000000;stroke-linecap:round;stroke-width:1.5;"/>
    <g clip-path="url(#p50c177c9da)">
     <use style="stroke:#ffffff;stroke-width:0.75;" x="485.154218" xlink:href="#me092858d67" y="93.582615"/>
     <use style="stroke:#ffffff;stroke-width:0.75;" x="520.692531" xlink:href="#me092858d67" y="103.634599"/>
     <use style="stroke:#ffffff;stroke-width:0.75;" x="556.230844" xlink:href="#me092858d67" y="105.788595"/>
    </g>
   </g>
   <g id="line2d_28"/>
   <g id="line2d_29">
    <path clip-path="url(#p50c177c9da)" d="M 485.154218 51.220684 
L 520.692531 54.092679 
L 556.230844 50.502685 
" style="fill:none;stroke:#808080;stroke-linecap:round;stroke-width:1.5;"/>
    <g clip-path="url(#p50c177c9da)">
     <use style="fill:#808080;stroke:#ffffff;stroke-linejoin:miter;stroke-width:0.75;" x="485.154218" xlink:href="#m350adf3a56" y="51.220684"/>
     <use style="fill:#808080;stroke:#ffffff;stroke-linejoin:miter;stroke-width:0.75;" x="520.692531" xlink:href="#m350adf3a56" y="54.092679"/>
     <use style="fill:#808080;stroke:#ffffff;stroke-linejoin:miter;stroke-width:0.75;" x="556.230844" xlink:href="#m350adf3a56" y="50.502685"/>
    </g>
   </g>
   <g id="line2d_30"/>
   <g id="patch_23">
    <path d="M 467.385062 110.814587 
L 467.385062 17.474739 
" style="fill:none;stroke:#262626;stroke-linecap:square;stroke-linejoin:miter;stroke-width:0.8;"/>
   </g>
   <g id="patch_24">
    <path d="M 574 110.814587 
L 574 17.474739 
" style="fill:none;stroke:#262626;stroke-linecap:square;stroke-linejoin:miter;stroke-width:0.8;"/>
   </g>
   <g id="patch_25">
    <path d="M 467.385062 110.814587 
L 574 110.814587 
" style="fill:none;stroke:#262626;stroke-linecap:square;stroke-linejoin:miter;stroke-width:0.8;"/>
   </g>
   <g id="patch_26">
    <path d="M 467.385062 17.474739 
L 574 17.474739 
" style="fill:none;stroke:#262626;stroke-linecap:square;stroke-linejoin:miter;stroke-width:0.8;"/>
   </g>
   <g id="text_24">
    <!-- $yz$ -->
    <g style="fill:#262626;" transform="translate(514.905266 11.474739)scale(0.12 -0.12)">
     <use transform="scale(0.996264)" xlink:href="#CMMI12-121"/>
     <use transform="translate(51.138781 0)scale(0.996264)" xlink:href="#CMMI12-122"/>
    </g>
   </g>
   <g id="legend_1">
    <g id="patch_27">
     <path d="M 496.701638 105.814587 
L 544.683424 105.814587 
Q 546.683424 105.814587 546.683424 103.814587 
L 546.683424 75.600846 
Q 546.683424 73.600846 544.683424 73.600846 
L 496.701638 73.600846 
Q 494.701638 73.600846 494.701638 75.600846 
L 494.701638 103.814587 
Q 494.701638 105.814587 496.701638 105.814587 
z
" style="fill:#ffffff;opacity:0.8;stroke:#cccccc;stroke-linejoin:miter;"/>
    </g>
    <g id="line2d_31">
     <path d="M 498.701638 81.699284 
L 518.701638 81.699284 
" style="fill:none;stroke:#000000;stroke-linecap:round;stroke-width:1.5;"/>
    </g>
    <g id="line2d_32">
     <defs>
      <path d="M 0 3 
C 0.795609 3 1.55874 2.683901 2.12132 2.12132 
C 2.683901 1.55874 3 0.795609 3 0 
C 3 -0.795609 2.683901 -1.55874 2.12132 -2.12132 
C 1.55874 -2.683901 0.795609 -3 0 -3 
C -0.795609 -3 -1.55874 -2.683901 -2.12132 -2.12132 
C -2.683901 -1.55874 -3 -0.795609 -3 0 
C -3 0.795609 -2.683901 1.55874 -2.12132 2.12132 
C -1.55874 2.683901 -0.795609 3 0 3 
z
" id="mdb9a727438" style="stroke:#000000;"/>
     </defs>
     <g>
      <use style="stroke:#000000;" x="508.701638" xlink:href="#mdb9a727438" y="81.699284"/>
     </g>
    </g>
    <g id="text_25">
     <!-- \ce{Fe_A} -->
     <g style="fill:#262626;" transform="translate(526.701638 85.199284)scale(0.1 -0.1)">
      <defs>
       <path d="M 36.296875 69.390625 
C 35.796875 70.6875 35.59375 71 34.59375 71 
C 33.59375 71 33.40625 70.6875 32.90625 69.390625 
L 11.703125 9.0625 
C 9.796875 3.6875 5.796875 2.59375 2.296875 2.59375 
L 2.296875 0 
C 4.09375 0.1875 8.09375 0.1875 10 0.1875 
C 12.5 0.1875 16.5 0.1875 18.90625 0 
L 18.90625 2.59375 
C 14.203125 2.796875 13.5 5.96875 13.5 7.171875 
C 13.5 8.0625 13.703125 8.5625 13.90625 9.15625 
L 19.203125 24 
L 45.40625 24 
L 51.40625 7.078125 
C 51.90625 5.875 51.90625 5.671875 51.90625 5.28125 
C 51.90625 2.59375 47.59375 2.59375 45.703125 2.59375 
L 45.703125 0 
C 48.59375 0.1875 53.796875 0.1875 56.90625 0.1875 
C 59.5 0.1875 64.5 0.1875 66.90625 0 
L 66.90625 2.59375 
C 61.59375 2.59375 59.796875 2.59375 58.5 6.28125 
z
M 32.296875 61.3125 
L 44.5 26.59375 
L 20.09375 26.59375 
z
" id="CMR17-65"/>
      </defs>
      <use transform="scale(0.996264)" xlink:href="#CMR17-70"/>
      <use transform="translate(52.176591 0)scale(0.996264)" xlink:href="#CMR17-101"/>
      <use transform="translate(92.662252 -14.943915)scale(0.697382)" xlink:href="#CMR17-65"/>
     </g>
    </g>
    <g id="line2d_33">
     <path d="M 498.701638 96.377409 
L 518.701638 96.377409 
" style="fill:none;stroke:#808080;stroke-linecap:round;stroke-width:1.5;"/>
    </g>
    <g id="line2d_34">
     <defs>
      <path d="M -1.5 3 
L 0 1.5 
L 1.5 3 
L 3 1.5 
L 1.5 0 
L 3 -1.5 
L 1.5 -3 
L 0 -1.5 
L -1.5 -3 
L -3 -1.5 
L -1.5 0 
L -3 1.5 
z
" id="m2a2eabbe21" style="stroke:#808080;stroke-linejoin:miter;"/>
     </defs>
     <g>
      <use style="fill:#808080;stroke:#808080;stroke-linejoin:miter;" x="508.701638" xlink:href="#m2a2eabbe21" y="96.377409"/>
     </g>
    </g>
    <g id="text_26">
     <!-- \ce{Fe_B} -->
     <g style="fill:#262626;" transform="translate(526.701638 99.877409)scale(0.1 -0.1)">
      <defs>
       <path d="M 5.203125 68 
L 5.203125 65.390625 
C 12.09375 65.390625 13.203125 65.390625 13.203125 60.890625 
L 13.203125 7.046875 
C 13.203125 2.59375 12.09375 2.59375 5.203125 2.59375 
L 5.203125 0 
L 39.59375 0 
C 52.40625 0 60.703125 9.03125 60.703125 18.046875 
C 60.703125 26.96875 52.5 34.59375 41.796875 35.296875 
C 51.40625 37.1875 58.09375 43.59375 58.09375 51.1875 
C 58.09375 59.5 49.90625 68 37 68 
z
M 19.5 36 
L 19.5 61.5 
C 19.5 64.890625 19.703125 65.390625 23.703125 65.390625 
L 36.5 65.390625 
C 46.40625 65.390625 50.796875 57.390625 50.796875 51.1875 
C 50.796875 43.59375 44.703125 36 33.90625 36 
z
M 23.703125 2.59375 
C 19.703125 2.59375 19.5 3.09375 19.5 6.453125 
L 19.5 34.390625 
L 38 34.390625 
C 48.296875 34.390625 53.296875 25.375 53.296875 18.140625 
C 53.296875 10.90625 47.59375 2.59375 36.703125 2.59375 
z
" id="CMR17-66"/>
      </defs>
      <use transform="scale(0.996264)" xlink:href="#CMR17-70"/>
      <use transform="translate(52.176591 0)scale(0.996264)" xlink:href="#CMR17-101"/>
      <use transform="translate(92.662252 -14.943915)scale(0.697382)" xlink:href="#CMR17-66"/>
     </g>
    </g>
   </g>
  </g>
 </g>
 <defs>
  <clipPath id="pa0733dc8ea">
   <rect height="93.339848" width="106.614938" x="32.925311" y="17.474739"/>
  </clipPath>
  <clipPath id="pa9c26fb706">
   <rect height="93.339848" width="106.614938" x="141.540248" y="17.474739"/>
  </clipPath>
  <clipPath id="pf9a91c2c0c">
   <rect height="93.339848" width="106.614938" x="250.155186" y="17.474739"/>
  </clipPath>
  <clipPath id="p7806b8077f">
   <rect height="93.339848" width="106.614938" x="358.770124" y="17.474739"/>
  </clipPath>
  <clipPath id="p50c177c9da">
   <rect height="93.339848" width="106.614938" x="467.385062" y="17.474739"/>
  </clipPath>
 </defs>
</svg>
