<?xml version="1.0"?><svg xmlns="http://www.w3.org/2000/svg" xmlns:xlink="http://www.w3.org/1999/xlink" viewBox="91.26 214.92 440.61 101.32" preserveAspectRatio="xMidYMid" width="100%" height="100%"><clipPath id="447"><rect x="0.3" y="0.3" width="769" height="522.6" /></clipPath><g id="drawing"><rect x="91.26" y="214.92" width="100%" height="100%" fill="rgb(255, 255, 255)" /><g id="page" clip-path="url(#447)"><g><text xml:space="preserve" text-anchor="start" text-rendering="geometricPrecision"><tspan x="226.33" y="282.77" font-family="Arial" font-size="10" fill="rgb(0, 0, 0)">N</tspan></text></g><g><text xml:space="preserve" text-anchor="middle" text-rendering="geometricPrecision"><tspan x="240.57" y="264.33" font-family="Arial" font-size="10" fill="rgb(0, 128, 0)">Fe</tspan><tspan font-family="Arial" dy="-4.07" font-size="7.5" fill="rgb(0, 128, 0)">2+/3+</tspan></text></g><g><text xml:space="preserve" text-anchor="start" text-rendering="geometricPrecision"><tspan x="226.33" y="245.89" font-family="Arial" font-size="10" fill="rgb(0, 0, 0)">N</tspan></text></g><g id="Solid"><path d="M197.64 260.43 L197.64 260.43 L197.99 260.43 L198.34 260.43 L208.81 278.57 L208.64 278.87 L208.29 278.87 Z" stroke="rgb(0, 0, 0)" stroke-width="0" fill-rule="evenodd" stroke-linejoin="miter" fill="rgb(0, 0, 0)" shape-rendering="geometricPrecision" /><line x1="202.42" y1="260.43" x2="203.66" y2="262.59" stroke="rgb(0, 0, 0)" stroke-width="0.6" shape-rendering="auto" /><path d="M204.55 264.73 L204.55 264.73 L205.8 266.89 L206.32 266.59 L205.07 264.43 Z" stroke="rgb(0, 0, 0)" stroke-width="0" fill-rule="evenodd" stroke-linejoin="miter" fill="rgb(0, 0, 0)" shape-rendering="geometricPrecision" /><path d="M206.95 268.88 L206.95 268.88 L208.2 271.04 L208.72 270.74 L207.47 268.58 Z" stroke="rgb(0, 0, 0)" stroke-width="0" fill-rule="evenodd" stroke-linejoin="miter" fill="rgb(0, 0, 0)" shape-rendering="geometricPrecision" /><line x1="209.61" y1="272.88" x2="210.85" y2="275.04" stroke="rgb(0, 0, 0)" stroke-width="0.6" shape-rendering="auto" /></g><g id="Solid"><path d="M208.81 279.17 L208.81 279.17 L208.64 278.87 L208.81 278.57 L225.51 278.57 L225.51 278.87 L225.51 279.17 Z" stroke="rgb(0, 0, 0)" stroke-width="0" fill-rule="evenodd" stroke-linejoin="miter" fill="rgb(0, 0, 0)" shape-rendering="geometricPrecision" /><line x1="210.85" y1="275.04" x2="213.34" y2="275.04" stroke="rgb(0, 0, 0)" stroke-width="0.6" shape-rendering="auto" /><path d="M216.94 275.34 L216.94 275.34 L219.43 275.34 L219.43 274.74 L216.94 274.74 Z" stroke="rgb(0, 0, 0)" stroke-width="0" fill-rule="evenodd" stroke-linejoin="miter" fill="rgb(0, 0, 0)" shape-rendering="geometricPrecision" /><line x1="223.02" y1="275.04" x2="225.51" y2="275.04" stroke="rgb(0, 0, 0)" stroke-width="0.6" shape-rendering="auto" /></g><g id="Solid"><path d="M232.81 274.47 L232.81 274.47 L232.55 274.32 L232.29 274.17 L238.32 263.72 L238.58 263.87 L238.84 264.02 Z" stroke="rgb(0, 0, 0)" stroke-width="0" fill-rule="evenodd" stroke-linejoin="miter" fill="rgb(0, 0, 0)" shape-rendering="geometricPrecision" /></g><g id="Solid"><path d="M236.87 253.41 L236.87 253.41 L236.61 253.56 L236.35 253.71 L232.72 247.43 L232.98 247.28 L233.24 247.13 Z" stroke="rgb(0, 0, 0)" stroke-width="0" fill-rule="evenodd" stroke-linejoin="miter" fill="rgb(0, 0, 0)" shape-rendering="geometricPrecision" /></g><g id="Solid"><path d="M225.51 241.69 L225.51 241.69 L225.51 241.99 L225.51 242.29 L208.81 242.29 L208.64 241.99 L208.81 241.69 Z" stroke="rgb(0, 0, 0)" stroke-width="0" fill-rule="evenodd" stroke-linejoin="miter" fill="rgb(0, 0, 0)" shape-rendering="geometricPrecision" /><line x1="225.51" y1="245.03" x2="223.02" y2="245.03" stroke="rgb(0, 0, 0)" stroke-width="0.6" shape-rendering="auto" /><path d="M221.3 244.73 L221.3 244.73 L218.81 244.73 L218.81 245.33 L221.3 245.33 Z" stroke="rgb(0, 0, 0)" stroke-width="0" fill-rule="evenodd" stroke-linejoin="miter" fill="rgb(0, 0, 0)" shape-rendering="geometricPrecision" /><path d="M217.09 244.73 L217.09 244.73 L214.6 244.73 L214.6 245.33 L217.09 245.33 Z" stroke="rgb(0, 0, 0)" stroke-width="0" fill-rule="evenodd" stroke-linejoin="miter" fill="rgb(0, 0, 0)" shape-rendering="geometricPrecision" /><line x1="212.88" y1="245.03" x2="210.39" y2="245.03" stroke="rgb(0, 0, 0)" stroke-width="0.6" shape-rendering="auto" /></g><g id="Solid"><path d="M208.29 241.99 L208.29 241.99 L208.64 241.99 L208.81 242.29 L198.34 260.43 L197.99 260.43 L197.64 260.43 Z" stroke="rgb(0, 0, 0)" stroke-width="0" fill-rule="evenodd" stroke-linejoin="miter" fill="rgb(0, 0, 0)" shape-rendering="geometricPrecision" /><line x1="210.85" y1="245.82" x2="209.61" y2="247.98" stroke="rgb(0, 0, 0)" stroke-width="0.6" shape-rendering="auto" /><path d="M208.2 249.82 L208.2 249.82 L206.95 251.98 L207.47 252.28 L208.72 250.12 Z" stroke="rgb(0, 0, 0)" stroke-width="0" fill-rule="evenodd" stroke-linejoin="miter" fill="rgb(0, 0, 0)" shape-rendering="geometricPrecision" /><path d="M205.8 253.97 L205.8 253.97 L204.55 256.13 L205.07 256.43 L206.32 254.27 Z" stroke="rgb(0, 0, 0)" stroke-width="0" fill-rule="evenodd" stroke-linejoin="miter" fill="rgb(0, 0, 0)" shape-rendering="geometricPrecision" /><line x1="203.66" y1="258.27" x2="202.42" y2="260.43" stroke="rgb(0, 0, 0)" stroke-width="0.6" shape-rendering="auto" /></g><g><text xml:space="preserve" text-anchor="start" text-rendering="geometricPrecision"><tspan x="259.79" y="279.38" font-family="Arial" font-size="10" fill="rgb(255, 128, 0)">X</tspan></text></g><g><text xml:space="preserve" text-anchor="middle" text-rendering="geometricPrecision"><tspan x="285.68" y="264.33" font-family="Arial" font-size="10" fill="rgb(128, 128, 128)">Ga</tspan><tspan font-family="Arial" dy="-4.07" font-size="7.5" fill="rgb(128, 128, 128)">3+</tspan><tspan font-family="Arial" dy="4.07" font-size="10" fill="rgb(128, 128, 128)">/Zn</tspan><tspan font-family="Arial" dy="-4.07" font-size="7.5" fill="rgb(128, 128, 128)">2+</tspan></text></g><g><text xml:space="preserve" text-anchor="start" text-rendering="geometricPrecision"><tspan x="259.79" y="249.28" font-family="Arial" font-size="10" fill="rgb(255, 128, 0)">X</tspan></text></g><g id="WedgeBegin"><path d="M243.71 262.89 L243.71 262.89 L243.88 262.64 L244.04 262.39 L259.81 271.46 L258.98 272.72 L258.14 273.97 Z" stroke="rgb(0, 0, 0)" stroke-width="0" fill-rule="evenodd" stroke-linejoin="miter" fill="rgb(0, 0, 0)" shape-rendering="geometricPrecision" /></g><g id="WedgeEnd"><path d="M268.36 273.8 L268.36 273.8 L267.52 272.54 L266.69 271.29 L282.21 262.39 L282.37 262.64 L282.54 262.89 Z" stroke="rgb(128, 128, 128)" stroke-width="0" fill-rule="evenodd" stroke-linejoin="miter" fill="rgb(128, 128, 128)" shape-rendering="geometricPrecision" /></g><g id="Wedged Hash Begin Bond"><path d="M275.94 253.57 L275.94 253.57 L275.61 254.07 L275.07 253.8 L275.49 253.18 Z" stroke="rgb(128, 128, 128)" stroke-width="0" fill-rule="evenodd" stroke-linejoin="miter" fill="rgb(128, 128, 128)" shape-rendering="geometricPrecision" /><path d="M273.57 251.54 L273.57 251.54 L272.82 252.66 L272.28 252.39 L273.11 251.14 Z" stroke="rgb(128, 128, 128)" stroke-width="0" fill-rule="evenodd" stroke-linejoin="miter" fill="rgb(128, 128, 128)" shape-rendering="geometricPrecision" /><path d="M271.19 249.5 L271.19 249.5 L270.02 251.25 L269.48 250.98 L270.73 249.1 Z" stroke="rgb(128, 128, 128)" stroke-width="0" fill-rule="evenodd" stroke-linejoin="miter" fill="rgb(128, 128, 128)" shape-rendering="geometricPrecision" /><path d="M268.82 247.46 L268.82 247.46 L267.23 249.84 L266.69 249.57 L268.36 247.06 Z" stroke="rgb(128, 128, 128)" stroke-width="0" fill-rule="evenodd" stroke-linejoin="miter" fill="rgb(128, 128, 128)" shape-rendering="geometricPrecision" /></g><g id="Wedged Hash End Bond"><path d="M258.04 246.96 L258.04 246.96 L259.71 249.47 L259.17 249.74 L257.58 247.35 Z" stroke="rgb(0, 0, 0)" stroke-width="0" fill-rule="evenodd" stroke-linejoin="miter" fill="rgb(0, 0, 0)" shape-rendering="geometricPrecision" /><path d="M255.72 248.96 L255.72 248.96 L256.97 250.84 L256.43 251.11 L255.26 249.36 Z" stroke="rgb(0, 0, 0)" stroke-width="0" fill-rule="evenodd" stroke-linejoin="miter" fill="rgb(0, 0, 0)" shape-rendering="geometricPrecision" /><path d="M253.39 250.97 L253.39 250.97 L254.23 252.22 L253.69 252.49 L252.94 251.36 Z" stroke="rgb(0, 0, 0)" stroke-width="0" fill-rule="evenodd" stroke-linejoin="miter" fill="rgb(0, 0, 0)" shape-rendering="geometricPrecision" /><path d="M251.07 252.97 L251.07 252.97 L251.48 253.6 L250.94 253.87 L250.61 253.37 Z" stroke="rgb(0, 0, 0)" stroke-width="0" fill-rule="evenodd" stroke-linejoin="miter" fill="rgb(0, 0, 0)" shape-rendering="geometricPrecision" /></g><g><text xml:space="preserve" text-anchor="start" text-rendering="geometricPrecision"><tspan x="292.72" y="282.77" font-family="Arial" font-size="10" fill="rgb(128, 128, 128)">N</tspan></text></g><g><text xml:space="preserve" text-anchor="start" text-rendering="geometricPrecision"><tspan x="292.72" y="245.89" font-family="Arial" font-size="10" fill="rgb(128, 128, 128)">N</tspan></text></g><g id="Solid"><path d="M288.51 265.93 L288.51 265.93 L288.77 265.78 L289.03 265.63 L293.96 274.17 L293.7 274.32 L293.44 274.47 Z" stroke="rgb(128, 128, 128)" stroke-width="0" fill-rule="evenodd" stroke-linejoin="miter" fill="rgb(128, 128, 128)" shape-rendering="geometricPrecision" /></g><g id="Solid"><path d="M300.79 279.17 L300.79 279.17 L300.79 278.87 L300.79 278.57 L317.44 278.57 L317.61 278.87 L317.44 279.17 Z" stroke="rgb(128, 128, 128)" stroke-width="0" fill-rule="evenodd" stroke-linejoin="miter" fill="rgb(128, 128, 128)" shape-rendering="geometricPrecision" /><line x1="300.79" y1="275.84" x2="303.28" y2="275.84" stroke="rgb(128, 128, 128)" stroke-width="0.6" shape-rendering="auto" /><path d="M304.98 276.14 L304.98 276.14 L307.47 276.14 L307.47 275.54 L304.98 275.54 Z" stroke="rgb(128, 128, 128)" stroke-width="0" fill-rule="evenodd" stroke-linejoin="miter" fill="rgb(128, 128, 128)" shape-rendering="geometricPrecision" /><path d="M309.18 276.14 L309.18 276.14 L311.67 276.14 L311.67 275.54 L309.18 275.54 Z" stroke="rgb(128, 128, 128)" stroke-width="0" fill-rule="evenodd" stroke-linejoin="miter" fill="rgb(128, 128, 128)" shape-rendering="geometricPrecision" /><line x1="313.37" y1="275.84" x2="315.86" y2="275.84" stroke="rgb(128, 128, 128)" stroke-width="0.6" shape-rendering="auto" /></g><g id="Solid"><path d="M317.96 278.87 L317.96 278.87 L317.61 278.87 L317.44 278.57 L327.9 260.43 L328.25 260.43 L328.6 260.43 Z" stroke="rgb(128, 128, 128)" stroke-width="0" fill-rule="evenodd" stroke-linejoin="miter" fill="rgb(128, 128, 128)" shape-rendering="geometricPrecision" /><line x1="315.4" y1="275.04" x2="316.64" y2="272.88" stroke="rgb(128, 128, 128)" stroke-width="0.6" shape-rendering="auto" /><path d="M318.05 271.04 L318.05 271.04 L319.3 268.88 L318.78 268.58 L317.53 270.74 Z" stroke="rgb(128, 128, 128)" stroke-width="0" fill-rule="evenodd" stroke-linejoin="miter" fill="rgb(128, 128, 128)" shape-rendering="geometricPrecision" /><path d="M320.45 266.89 L320.45 266.89 L321.69 264.73 L321.17 264.43 L319.93 266.59 Z" stroke="rgb(128, 128, 128)" stroke-width="0" fill-rule="evenodd" stroke-linejoin="miter" fill="rgb(128, 128, 128)" shape-rendering="geometricPrecision" /><line x1="322.58" y1="262.59" x2="323.83" y2="260.43" stroke="rgb(128, 128, 128)" stroke-width="0.6" shape-rendering="auto" /></g><g id="Solid"><path d="M328.6 260.43 L328.6 260.43 L328.25 260.43 L327.9 260.43 L317.44 242.29 L317.61 241.99 L317.96 241.99 Z" stroke="rgb(128, 128, 128)" stroke-width="0" fill-rule="evenodd" stroke-linejoin="miter" fill="rgb(128, 128, 128)" shape-rendering="geometricPrecision" /><line x1="323.83" y1="260.43" x2="322.58" y2="258.27" stroke="rgb(128, 128, 128)" stroke-width="0.6" shape-rendering="auto" /><path d="M321.69 256.13 L321.69 256.13 L320.45 253.97 L319.93 254.27 L321.17 256.43 Z" stroke="rgb(128, 128, 128)" stroke-width="0" fill-rule="evenodd" stroke-linejoin="miter" fill="rgb(128, 128, 128)" shape-rendering="geometricPrecision" /><path d="M319.3 251.98 L319.3 251.98 L318.05 249.82 L317.53 250.12 L318.78 252.28 Z" stroke="rgb(128, 128, 128)" stroke-width="0" fill-rule="evenodd" stroke-linejoin="miter" fill="rgb(128, 128, 128)" shape-rendering="geometricPrecision" /><line x1="316.64" y1="247.98" x2="315.4" y2="245.82" stroke="rgb(128, 128, 128)" stroke-width="0.6" shape-rendering="auto" /></g><g id="Solid"><path d="M317.44 241.69 L317.44 241.69 L317.61 241.99 L317.44 242.29 L300.79 242.29 L300.79 241.99 L300.79 241.69 Z" stroke="rgb(128, 128, 128)" stroke-width="0" fill-rule="evenodd" stroke-linejoin="miter" fill="rgb(128, 128, 128)" shape-rendering="geometricPrecision" /><line x1="315.4" y1="245.82" x2="312.91" y2="245.82" stroke="rgb(128, 128, 128)" stroke-width="0.6" shape-rendering="auto" /><path d="M309.34 245.52 L309.34 245.52 L306.85 245.52 L306.85 246.12 L309.34 246.12 Z" stroke="rgb(128, 128, 128)" stroke-width="0" fill-rule="evenodd" stroke-linejoin="miter" fill="rgb(128, 128, 128)" shape-rendering="geometricPrecision" /><line x1="303.28" y1="245.82" x2="300.79" y2="245.82" stroke="rgb(128, 128, 128)" stroke-width="0.6" shape-rendering="auto" /></g><g id="Solid"><path d="M293.01 247.13 L293.01 247.13 L293.27 247.28 L293.53 247.43 L288.66 255.87 L288.4 255.72 L288.14 255.57 Z" stroke="rgb(128, 128, 128)" stroke-width="0" fill-rule="evenodd" stroke-linejoin="miter" fill="rgb(128, 128, 128)" shape-rendering="geometricPrecision" /></g><g><text xml:space="preserve" text-anchor="start" text-rendering="geometricPrecision"><tspan x="282.08" y="227.46" font-family="Arial" font-size="10" fill="rgb(128, 128, 128)">R</tspan></text></g><g id="Solid"><path d="M293.94 237.27 L293.94 237.27 L293.68 237.42 L293.42 237.57 L288.49 229.03 L288.75 228.88 L289.01 228.73 Z" stroke="rgb(128, 128, 128)" stroke-width="0" fill-rule="evenodd" stroke-linejoin="miter" fill="rgb(128, 128, 128)" shape-rendering="geometricPrecision" /></g><g id="Solid"><path d="M317.96 241.99 L317.96 241.99 L317.61 241.99 L317.44 241.69 L327.99 223.41 L328.25 223.56 L328.51 223.71 Z" stroke="rgb(128, 128, 128)" stroke-width="0" fill-rule="evenodd" stroke-linejoin="miter" fill="rgb(128, 128, 128)" shape-rendering="geometricPrecision" /></g><g id="Solid"><path d="M317.44 279.17 L317.44 279.17 L317.61 278.87 L317.96 278.87 L328.51 297.15 L328.25 297.3 L327.99 297.45 Z" stroke="rgb(128, 128, 128)" stroke-width="0" fill-rule="evenodd" stroke-linejoin="miter" fill="rgb(128, 128, 128)" shape-rendering="geometricPrecision" /></g><g><text xml:space="preserve" text-anchor="start" text-rendering="geometricPrecision"><tspan x="282.08" y="301.2" font-family="Arial" font-size="10" fill="rgb(128, 128, 128)">R</tspan></text></g><g id="Solid"><path d="M293 284.03 L293 284.03 L293.26 284.18 L293.52 284.33 L288.52 292.97 L288.26 292.82 L288 292.67 Z" stroke="rgb(128, 128, 128)" stroke-width="0" fill-rule="evenodd" stroke-linejoin="miter" fill="rgb(128, 128, 128)" shape-rendering="geometricPrecision" /></g><g><text xml:space="preserve" text-anchor="start" text-rendering="geometricPrecision"><tspan x="236.97" y="227.46" font-family="Arial" font-size="10" fill="rgb(0, 0, 0)">R</tspan></text></g><g id="Solid"><path d="M232.83 237.57 L232.83 237.57 L232.57 237.42 L232.31 237.27 L237.24 228.73 L237.5 228.88 L237.76 229.03 Z" stroke="rgb(0, 0, 0)" stroke-width="0" fill-rule="evenodd" stroke-linejoin="miter" fill="rgb(0, 0, 0)" shape-rendering="geometricPrecision" /></g><g><text xml:space="preserve" text-anchor="start" text-rendering="geometricPrecision"><tspan x="236.97" y="301.2" font-family="Arial" font-size="10" fill="rgb(0, 0, 0)">R</tspan></text></g><g id="Solid"><path d="M232.73 284.33 L232.73 284.33 L232.99 284.18 L233.25 284.03 L238.19 292.57 L237.93 292.72 L237.67 292.87 Z" stroke="rgb(0, 0, 0)" stroke-width="0" fill-rule="evenodd" stroke-linejoin="miter" fill="rgb(0, 0, 0)" shape-rendering="geometricPrecision" /></g><g id="Solid"><path d="M208.29 278.87 L208.29 278.87 L208.64 278.87 L208.81 279.17 L198.25 297.45 L197.99 297.3 L197.73 297.15 Z" stroke="rgb(0, 0, 0)" stroke-width="0" fill-rule="evenodd" stroke-linejoin="miter" fill="rgb(0, 0, 0)" shape-rendering="geometricPrecision" /></g><g id="Solid"><path d="M208.81 241.69 L208.81 241.69 L208.64 241.99 L208.29 241.99 L197.73 223.71 L197.99 223.56 L198.25 223.41 Z" stroke="rgb(0, 0, 0)" stroke-width="0" fill-rule="evenodd" stroke-linejoin="miter" fill="rgb(0, 0, 0)" shape-rendering="geometricPrecision" /></g><g id="Charge282"><circle cx="211.69" cy="260.43" r="3.33333333333333" stroke="rgb(0, 0, 0)" stroke-width="0.48" fill="none" /><line x1="209.72" y1="260.43" x2="213.66" y2="260.43" stroke="rgb(0, 0, 0)" stroke-width="0.48" shape-rendering="auto" /></g><g id="Charge283"><circle cx="316.31" cy="260.43" r="3.33333333333333" stroke="rgb(128, 128, 128)" stroke-width="0.48" fill="none" /><line x1="314.34" y1="260.43" x2="318.28" y2="260.43" stroke="rgb(128, 128, 128)" stroke-width="0.48" shape-rendering="auto" /></g><g><text xml:space="preserve" text-anchor="start" text-rendering="geometricPrecision"><tspan x="113.01" y="264.46" font-family="Arial" font-size="10" fill="rgb(0, 128, 0)">Fe</tspan><tspan font-family="Arial" dy="-4.07" font-size="7.5" fill="rgb(0, 128, 0)">2+/3+</tspan></text></g><g id="Solid"><path d="M127.07 254.55 L127.07 254.55 L126.92 254.29 L126.77 254.03 L128.38 253.1 L128.53 253.36 L128.68 253.62 Z" stroke="rgb(0, 0, 0)" stroke-width="0" fill-rule="evenodd" stroke-linejoin="miter" fill="rgb(0, 0, 0)" shape-rendering="geometricPrecision" /></g><g id="Solid"><path d="M113.07 256.7 L113.07 256.7 L112.84 256.9 L112.62 257.1 L98.73 241.28 L98.96 241.08 L99.18 240.88 Z" stroke="rgb(0, 0, 0)" stroke-width="0" fill-rule="evenodd" stroke-linejoin="miter" fill="rgb(0, 0, 0)" shape-rendering="geometricPrecision" /></g><g><text xml:space="preserve" text-anchor="start" text-rendering="geometricPrecision"><tspan x="91.26" y="240.01" font-family="Arial" font-size="10" fill="rgb(255, 128, 0)">X</tspan><tspan font-family="Arial" font-size="10" fill="rgb(0, 0, 0)">H</tspan></text></g><g><text xml:space="preserve" text-anchor="start" text-rendering="geometricPrecision"><tspan x="130.41" y="287.39" font-family="Arial" font-size="10" fill="rgb(255, 128, 0)">X</tspan><tspan font-family="Arial" font-size="10" fill="rgb(0, 0, 0)">H</tspan></text></g><g id="Wedged Hash Begin Bond"><path d="M119.91 266.05 L119.91 266.05 L120.39 265.68 L120.79 266.13 L120.25 266.55 Z" stroke="rgb(0, 0, 0)" stroke-width="0" fill-rule="evenodd" stroke-linejoin="miter" fill="rgb(0, 0, 0)" shape-rendering="geometricPrecision" /><path d="M121.39 268.28 L121.39 268.28 L122.17 267.68 L122.57 268.13 L121.72 268.78 Z" stroke="rgb(0, 0, 0)" stroke-width="0" fill-rule="evenodd" stroke-linejoin="miter" fill="rgb(0, 0, 0)" shape-rendering="geometricPrecision" /><path d="M122.87 270.52 L122.87 270.52 L123.96 269.68 L124.36 270.13 L123.2 271.02 Z" stroke="rgb(0, 0, 0)" stroke-width="0" fill-rule="evenodd" stroke-linejoin="miter" fill="rgb(0, 0, 0)" shape-rendering="geometricPrecision" /><path d="M124.35 272.75 L124.35 272.75 L125.74 271.68 L126.14 272.12 L124.68 273.25 Z" stroke="rgb(0, 0, 0)" stroke-width="0" fill-rule="evenodd" stroke-linejoin="miter" fill="rgb(0, 0, 0)" shape-rendering="geometricPrecision" /><path d="M125.83 274.98 L125.83 274.98 L127.52 273.67 L127.92 274.12 L126.16 275.48 Z" stroke="rgb(0, 0, 0)" stroke-width="0" fill-rule="evenodd" stroke-linejoin="miter" fill="rgb(0, 0, 0)" shape-rendering="geometricPrecision" /><path d="M127.31 277.21 L127.31 277.21 L129.31 275.67 L129.71 276.12 L127.64 277.72 Z" stroke="rgb(0, 0, 0)" stroke-width="0" fill-rule="evenodd" stroke-linejoin="miter" fill="rgb(0, 0, 0)" shape-rendering="geometricPrecision" /><path d="M128.78 279.45 L128.78 279.45 L131.09 277.67 L131.49 278.12 L129.12 279.95 Z" stroke="rgb(0, 0, 0)" stroke-width="0" fill-rule="evenodd" stroke-linejoin="miter" fill="rgb(0, 0, 0)" shape-rendering="geometricPrecision" /></g><g id="Solid"><path d="M119.99 256.65 L119.99 256.65 L119.77 256.45 L119.55 256.24 L133.71 240.55 L133.93 240.75 L134.15 240.95 Z" stroke="rgb(0, 0, 0)" stroke-width="0" fill-rule="evenodd" stroke-linejoin="miter" fill="rgb(0, 0, 0)" shape-rendering="geometricPrecision" /></g><g><text xml:space="preserve" text-anchor="start" text-rendering="geometricPrecision"><tspan x="134.86" y="239.93" font-family="Arial" font-size="10" fill="rgb(255, 128, 0)">X</tspan><tspan font-family="Arial" font-size="10" fill="rgb(0, 0, 0)">H</tspan></text></g><g id="WedgeBegin"><path d="M112.66 264.31 L112.66 264.31 L112.9 264.5 L113.13 264.69 L102.95 279.29 L101.78 278.35 L100.61 277.41 Z" stroke="rgb(0, 0, 0)" stroke-width="0" fill-rule="evenodd" stroke-linejoin="miter" fill="rgb(0, 0, 0)" shape-rendering="geometricPrecision" /></g><g><text xml:space="preserve" text-anchor="start" text-rendering="geometricPrecision"><tspan x="94.86" y="286.73" font-family="Arial" font-size="10" fill="rgb(255, 128, 0)">X</tspan><tspan font-family="Arial" font-size="10" fill="rgb(0, 0, 0)">H</tspan></text></g><g><text xml:space="preserve" text-anchor="start" text-rendering="geometricPrecision"><tspan x="393.95" y="282.77" font-family="Arial" font-size="10" fill="rgb(0, 0, 0)">N</tspan></text></g><g><text xml:space="preserve" text-anchor="middle" text-rendering="geometricPrecision"><tspan x="408.19" y="264.33" font-family="Arial" font-size="10" fill="rgb(0, 128, 0)">Fe</tspan><tspan font-family="Arial" dy="-4.07" font-size="7.5" fill="rgb(0, 128, 0)">2+/3+</tspan></text></g><g><text xml:space="preserve" text-anchor="start" text-rendering="geometricPrecision"><tspan x="393.95" y="245.89" font-family="Arial" font-size="10" fill="rgb(0, 0, 0)">N</tspan></text></g><g id="Solid"><path d="M365.26 260.43 L365.26 260.43 L365.61 260.43 L365.96 260.43 L376.43 278.57 L376.26 278.87 L375.91 278.87 Z" stroke="rgb(0, 0, 0)" stroke-width="0" fill-rule="evenodd" stroke-linejoin="miter" fill="rgb(0, 0, 0)" shape-rendering="geometricPrecision" /><line x1="370.04" y1="260.43" x2="371.28" y2="262.59" stroke="rgb(0, 0, 0)" stroke-width="0.6" shape-rendering="auto" /><path d="M372.17 264.73 L372.17 264.73 L373.42 266.89 L373.94 266.59 L372.69 264.43 Z" stroke="rgb(0, 0, 0)" stroke-width="0" fill-rule="evenodd" stroke-linejoin="miter" fill="rgb(0, 0, 0)" shape-rendering="geometricPrecision" /><path d="M374.57 268.88 L374.57 268.88 L375.82 271.04 L376.34 270.74 L375.09 268.58 Z" stroke="rgb(0, 0, 0)" stroke-width="0" fill-rule="evenodd" stroke-linejoin="miter" fill="rgb(0, 0, 0)" shape-rendering="geometricPrecision" /><line x1="377.23" y1="272.88" x2="378.47" y2="275.04" stroke="rgb(0, 0, 0)" stroke-width="0.6" shape-rendering="auto" /></g><g id="Solid"><path d="M376.43 279.17 L376.43 279.17 L376.26 278.87 L376.43 278.57 L393.21 278.57 L393.21 278.87 L393.21 279.17 Z" stroke="rgb(0, 0, 0)" stroke-width="0" fill-rule="evenodd" stroke-linejoin="miter" fill="rgb(0, 0, 0)" shape-rendering="geometricPrecision" /><line x1="378.47" y1="275.04" x2="380.96" y2="275.04" stroke="rgb(0, 0, 0)" stroke-width="0.6" shape-rendering="auto" /><path d="M384.6 275.34 L384.6 275.34 L387.09 275.34 L387.09 274.74 L384.6 274.74 Z" stroke="rgb(0, 0, 0)" stroke-width="0" fill-rule="evenodd" stroke-linejoin="miter" fill="rgb(0, 0, 0)" shape-rendering="geometricPrecision" /><line x1="390.72" y1="275.04" x2="393.21" y2="275.04" stroke="rgb(0, 0, 0)" stroke-width="0.6" shape-rendering="auto" /></g><g id="Solid"><path d="M400.43 274.47 L400.43 274.47 L400.17 274.32 L399.91 274.17 L405.94 263.72 L406.2 263.87 L406.46 264.02 Z" stroke="rgb(0, 0, 0)" stroke-width="0" fill-rule="evenodd" stroke-linejoin="miter" fill="rgb(0, 0, 0)" shape-rendering="geometricPrecision" /></g><g id="Solid"><path d="M404.47 253.37 L404.47 253.37 L404.21 253.52 L403.95 253.67 L400.34 247.43 L400.6 247.28 L400.86 247.13 Z" stroke="rgb(0, 0, 0)" stroke-width="0" fill-rule="evenodd" stroke-linejoin="miter" fill="rgb(0, 0, 0)" shape-rendering="geometricPrecision" /></g><g id="Solid"><path d="M393.21 241.69 L393.21 241.69 L393.21 241.99 L393.21 242.29 L376.43 242.29 L376.26 241.99 L376.43 241.69 Z" stroke="rgb(0, 0, 0)" stroke-width="0" fill-rule="evenodd" stroke-linejoin="miter" fill="rgb(0, 0, 0)" shape-rendering="geometricPrecision" /><line x1="393.21" y1="245.04" x2="390.72" y2="245.04" stroke="rgb(0, 0, 0)" stroke-width="0.6" shape-rendering="auto" /><path d="M388.98 244.74 L388.98 244.74 L386.49 244.74 L386.49 245.34 L388.98 245.34 Z" stroke="rgb(0, 0, 0)" stroke-width="0" fill-rule="evenodd" stroke-linejoin="miter" fill="rgb(0, 0, 0)" shape-rendering="geometricPrecision" /><path d="M384.74 244.74 L384.74 244.74 L382.25 244.74 L382.25 245.34 L384.74 245.34 Z" stroke="rgb(0, 0, 0)" stroke-width="0" fill-rule="evenodd" stroke-linejoin="miter" fill="rgb(0, 0, 0)" shape-rendering="geometricPrecision" /><line x1="380.51" y1="245.04" x2="378.02" y2="245.04" stroke="rgb(0, 0, 0)" stroke-width="0.6" shape-rendering="auto" /></g><g id="Solid"><path d="M375.91 241.99 L375.91 241.99 L376.26 241.99 L376.43 242.29 L365.96 260.43 L365.61 260.43 L365.26 260.43 Z" stroke="rgb(0, 0, 0)" stroke-width="0" fill-rule="evenodd" stroke-linejoin="miter" fill="rgb(0, 0, 0)" shape-rendering="geometricPrecision" /><line x1="378.47" y1="245.82" x2="377.23" y2="247.98" stroke="rgb(0, 0, 0)" stroke-width="0.6" shape-rendering="auto" /><path d="M375.82 249.82 L375.82 249.82 L374.57 251.98 L375.09 252.28 L376.34 250.12 Z" stroke="rgb(0, 0, 0)" stroke-width="0" fill-rule="evenodd" stroke-linejoin="miter" fill="rgb(0, 0, 0)" shape-rendering="geometricPrecision" /><path d="M373.42 253.97 L373.42 253.97 L372.17 256.13 L372.69 256.43 L373.94 254.27 Z" stroke="rgb(0, 0, 0)" stroke-width="0" fill-rule="evenodd" stroke-linejoin="miter" fill="rgb(0, 0, 0)" shape-rendering="geometricPrecision" /><line x1="371.28" y1="258.27" x2="370.04" y2="260.43" stroke="rgb(0, 0, 0)" stroke-width="0.6" shape-rendering="auto" /></g><g><text xml:space="preserve" text-anchor="start" text-rendering="geometricPrecision"><tspan x="427.42" y="279.38" font-family="Arial" font-size="10" fill="rgb(255, 128, 0)">X</tspan></text></g><g><text xml:space="preserve" text-anchor="middle" text-rendering="geometricPrecision"><tspan x="453.3" y="264.33" font-family="Arial" font-size="10" fill="rgb(0, 128, 0)">Fe</tspan><tspan font-family="Arial" dy="-4.07" font-size="7.5" fill="rgb(0, 128, 0)">3+</tspan></text></g><g id="WedgeBegin"><path d="M411.33 262.89 L411.33 262.89 L411.5 262.64 L411.66 262.39 L427.41 271.45 L426.58 272.7 L425.74 273.96 Z" stroke="rgb(0, 0, 0)" stroke-width="0" fill-rule="evenodd" stroke-linejoin="miter" fill="rgb(0, 0, 0)" shape-rendering="geometricPrecision" /></g><g><text xml:space="preserve" text-anchor="start" text-rendering="geometricPrecision"><tspan x="427.42" y="249.28" font-family="Arial" font-size="10" fill="rgb(255, 128, 0)">X</tspan></text></g><g id="WedgeEnd"><path d="M435.96 273.81 L435.96 273.81 L435.12 272.56 L434.29 271.3 L448.31 263.4 L448.48 263.65 L448.64 263.9 Z" stroke="rgb(0, 0, 0)" stroke-width="0" fill-rule="evenodd" stroke-linejoin="miter" fill="rgb(0, 0, 0)" shape-rendering="geometricPrecision" /></g><g id="Wedged Hash Begin Bond"><path d="M447.3 256.07 L447.3 256.07 L446.97 256.57 L446.44 256.28 L446.83 255.69 Z" stroke="rgb(0, 0, 0)" stroke-width="0" fill-rule="evenodd" stroke-linejoin="miter" fill="rgb(0, 0, 0)" shape-rendering="geometricPrecision" /><path d="M445.13 254.34 L445.13 254.34 L444.54 255.22 L444.01 254.93 L444.66 253.96 Z" stroke="rgb(0, 0, 0)" stroke-width="0" fill-rule="evenodd" stroke-linejoin="miter" fill="rgb(0, 0, 0)" shape-rendering="geometricPrecision" /><path d="M442.95 252.61 L442.95 252.61 L442.11 253.88 L441.58 253.59 L442.48 252.24 Z" stroke="rgb(0, 0, 0)" stroke-width="0" fill-rule="evenodd" stroke-linejoin="miter" fill="rgb(0, 0, 0)" shape-rendering="geometricPrecision" /><path d="M440.78 250.88 L440.78 250.88 L439.68 252.54 L439.15 252.25 L440.31 250.51 Z" stroke="rgb(0, 0, 0)" stroke-width="0" fill-rule="evenodd" stroke-linejoin="miter" fill="rgb(0, 0, 0)" shape-rendering="geometricPrecision" /><path d="M438.6 249.15 L438.6 249.15 L437.24 251.19 L436.72 250.9 L438.13 248.78 Z" stroke="rgb(0, 0, 0)" stroke-width="0" fill-rule="evenodd" stroke-linejoin="miter" fill="rgb(0, 0, 0)" shape-rendering="geometricPrecision" /><path d="M436.43 247.42 L436.43 247.42 L434.81 249.85 L434.29 249.56 L435.96 247.05 Z" stroke="rgb(0, 0, 0)" stroke-width="0" fill-rule="evenodd" stroke-linejoin="miter" fill="rgb(0, 0, 0)" shape-rendering="geometricPrecision" /></g><g id="Wedged Hash End Bond"><path d="M425.64 246.97 L425.64 246.97 L427.31 249.48 L426.77 249.75 L425.18 247.37 Z" stroke="rgb(0, 0, 0)" stroke-width="0" fill-rule="evenodd" stroke-linejoin="miter" fill="rgb(0, 0, 0)" shape-rendering="geometricPrecision" /><path d="M423.32 248.97 L423.32 248.97 L424.58 250.85 L424.04 251.12 L422.87 249.37 Z" stroke="rgb(0, 0, 0)" stroke-width="0" fill-rule="evenodd" stroke-linejoin="miter" fill="rgb(0, 0, 0)" shape-rendering="geometricPrecision" /><path d="M421.01 250.97 L421.01 250.97 L421.84 252.22 L421.3 252.49 L420.55 251.37 Z" stroke="rgb(0, 0, 0)" stroke-width="0" fill-rule="evenodd" stroke-linejoin="miter" fill="rgb(0, 0, 0)" shape-rendering="geometricPrecision" /><path d="M418.69 252.97 L418.69 252.97 L419.1 253.6 L418.56 253.87 L418.23 253.37 Z" stroke="rgb(0, 0, 0)" stroke-width="0" fill-rule="evenodd" stroke-linejoin="miter" fill="rgb(0, 0, 0)" shape-rendering="geometricPrecision" /></g><g><text xml:space="preserve" text-anchor="start" text-rendering="geometricPrecision"><tspan x="460.34" y="282.77" font-family="Arial" font-size="10" fill="rgb(0, 0, 0)">N</tspan></text></g><g><text xml:space="preserve" text-anchor="start" text-rendering="geometricPrecision"><tspan x="460.34" y="245.89" font-family="Arial" font-size="10" fill="rgb(0, 0, 0)">N</tspan></text></g><g id="Solid"><path d="M455.03 264.04 L455.03 264.04 L455.29 263.89 L455.55 263.74 L461.58 274.17 L461.32 274.32 L461.06 274.47 Z" stroke="rgb(0, 0, 0)" stroke-width="0" fill-rule="evenodd" stroke-linejoin="miter" fill="rgb(0, 0, 0)" shape-rendering="geometricPrecision" /></g><g id="Solid"><path d="M468.39 279.17 L468.39 279.17 L468.39 278.87 L468.39 278.57 L485.06 278.57 L485.23 278.87 L485.06 279.17 Z" stroke="rgb(0, 0, 0)" stroke-width="0" fill-rule="evenodd" stroke-linejoin="miter" fill="rgb(0, 0, 0)" shape-rendering="geometricPrecision" /><line x1="468.39" y1="275.84" x2="470.88" y2="275.84" stroke="rgb(0, 0, 0)" stroke-width="0.6" shape-rendering="auto" /><path d="M472.59 276.14 L472.59 276.14 L475.08 276.14 L475.08 275.54 L472.59 275.54 Z" stroke="rgb(0, 0, 0)" stroke-width="0" fill-rule="evenodd" stroke-linejoin="miter" fill="rgb(0, 0, 0)" shape-rendering="geometricPrecision" /><path d="M476.79 276.14 L476.79 276.14 L479.28 276.14 L479.28 275.54 L476.79 275.54 Z" stroke="rgb(0, 0, 0)" stroke-width="0" fill-rule="evenodd" stroke-linejoin="miter" fill="rgb(0, 0, 0)" shape-rendering="geometricPrecision" /><line x1="480.99" y1="275.84" x2="483.48" y2="275.84" stroke="rgb(0, 0, 0)" stroke-width="0.6" shape-rendering="auto" /></g><g id="Solid"><path d="M485.58 278.87 L485.58 278.87 L485.23 278.87 L485.06 278.57 L495.53 260.43 L495.88 260.43 L496.23 260.43 Z" stroke="rgb(0, 0, 0)" stroke-width="0" fill-rule="evenodd" stroke-linejoin="miter" fill="rgb(0, 0, 0)" shape-rendering="geometricPrecision" /><line x1="483.02" y1="275.04" x2="484.26" y2="272.88" stroke="rgb(0, 0, 0)" stroke-width="0.6" shape-rendering="auto" /><path d="M485.67 271.04 L485.67 271.04 L486.92 268.88 L486.4 268.58 L485.15 270.74 Z" stroke="rgb(0, 0, 0)" stroke-width="0" fill-rule="evenodd" stroke-linejoin="miter" fill="rgb(0, 0, 0)" shape-rendering="geometricPrecision" /><path d="M488.07 266.89 L488.07 266.89 L489.32 264.73 L488.8 264.43 L487.55 266.59 Z" stroke="rgb(0, 0, 0)" stroke-width="0" fill-rule="evenodd" stroke-linejoin="miter" fill="rgb(0, 0, 0)" shape-rendering="geometricPrecision" /><line x1="490.21" y1="262.59" x2="491.45" y2="260.43" stroke="rgb(0, 0, 0)" stroke-width="0.6" shape-rendering="auto" /></g><g id="Solid"><path d="M496.23 260.43 L496.23 260.43 L495.88 260.43 L495.53 260.43 L485.06 242.29 L485.23 241.99 L485.58 241.99 Z" stroke="rgb(0, 0, 0)" stroke-width="0" fill-rule="evenodd" stroke-linejoin="miter" fill="rgb(0, 0, 0)" shape-rendering="geometricPrecision" /><line x1="491.45" y1="260.43" x2="490.21" y2="258.27" stroke="rgb(0, 0, 0)" stroke-width="0.6" shape-rendering="auto" /><path d="M489.32 256.13 L489.32 256.13 L488.07 253.97 L487.55 254.27 L488.8 256.43 Z" stroke="rgb(0, 0, 0)" stroke-width="0" fill-rule="evenodd" stroke-linejoin="miter" fill="rgb(0, 0, 0)" shape-rendering="geometricPrecision" /><path d="M486.92 251.98 L486.92 251.98 L485.67 249.82 L485.15 250.12 L486.4 252.28 Z" stroke="rgb(0, 0, 0)" stroke-width="0" fill-rule="evenodd" stroke-linejoin="miter" fill="rgb(0, 0, 0)" shape-rendering="geometricPrecision" /><line x1="484.26" y1="247.98" x2="483.02" y2="245.82" stroke="rgb(0, 0, 0)" stroke-width="0.6" shape-rendering="auto" /></g><g id="Solid"><path d="M485.06 241.69 L485.06 241.69 L485.23 241.99 L485.06 242.29 L468.39 242.29 L468.39 241.99 L468.39 241.69 Z" stroke="rgb(0, 0, 0)" stroke-width="0" fill-rule="evenodd" stroke-linejoin="miter" fill="rgb(0, 0, 0)" shape-rendering="geometricPrecision" /><line x1="483.02" y1="245.82" x2="480.53" y2="245.82" stroke="rgb(0, 0, 0)" stroke-width="0.6" shape-rendering="auto" /><path d="M476.95 245.52 L476.95 245.52 L474.46 245.52 L474.46 246.12 L476.95 246.12 Z" stroke="rgb(0, 0, 0)" stroke-width="0" fill-rule="evenodd" stroke-linejoin="miter" fill="rgb(0, 0, 0)" shape-rendering="geometricPrecision" /><line x1="470.88" y1="245.82" x2="468.39" y2="245.82" stroke="rgb(0, 0, 0)" stroke-width="0.6" shape-rendering="auto" /></g><g id="Solid"><path d="M460.63 247.13 L460.63 247.13 L460.89 247.28 L461.15 247.43 L457.78 253.27 L457.52 253.12 L457.26 252.97 Z" stroke="rgb(0, 0, 0)" stroke-width="0" fill-rule="evenodd" stroke-linejoin="miter" fill="rgb(0, 0, 0)" shape-rendering="geometricPrecision" /></g><g><text xml:space="preserve" text-anchor="start" text-rendering="geometricPrecision"><tspan x="449.7" y="227.46" font-family="Arial" font-size="10" fill="rgb(0, 0, 0)">R</tspan></text></g><g id="Solid"><path d="M461.56 237.27 L461.56 237.27 L461.3 237.42 L461.04 237.57 L456.11 229.03 L456.37 228.88 L456.63 228.73 Z" stroke="rgb(0, 0, 0)" stroke-width="0" fill-rule="evenodd" stroke-linejoin="miter" fill="rgb(0, 0, 0)" shape-rendering="geometricPrecision" /></g><g id="Solid"><path d="M485.58 241.99 L485.58 241.99 L485.23 241.99 L485.06 241.69 L495.62 223.41 L495.88 223.56 L496.14 223.71 Z" stroke="rgb(0, 0, 0)" stroke-width="0" fill-rule="evenodd" stroke-linejoin="miter" fill="rgb(0, 0, 0)" shape-rendering="geometricPrecision" /></g><g id="Solid"><path d="M485.06 279.17 L485.06 279.17 L485.23 278.87 L485.58 278.87 L496.14 297.15 L495.88 297.3 L495.62 297.45 Z" stroke="rgb(0, 0, 0)" stroke-width="0" fill-rule="evenodd" stroke-linejoin="miter" fill="rgb(0, 0, 0)" shape-rendering="geometricPrecision" /></g><g><text xml:space="preserve" text-anchor="start" text-rendering="geometricPrecision"><tspan x="449.7" y="301.2" font-family="Arial" font-size="10" fill="rgb(0, 0, 0)">R</tspan></text></g><g id="Solid"><path d="M460.62 284.03 L460.62 284.03 L460.88 284.18 L461.14 284.33 L456.14 292.97 L455.88 292.82 L455.62 292.67 Z" stroke="rgb(0, 0, 0)" stroke-width="0" fill-rule="evenodd" stroke-linejoin="miter" fill="rgb(0, 0, 0)" shape-rendering="geometricPrecision" /></g><g><text xml:space="preserve" text-anchor="start" text-rendering="geometricPrecision"><tspan x="404.59" y="227.46" font-family="Arial" font-size="10" fill="rgb(0, 0, 0)">R</tspan></text></g><g id="Solid"><path d="M400.45 237.57 L400.45 237.57 L400.19 237.42 L399.93 237.27 L404.86 228.73 L405.12 228.88 L405.38 229.03 Z" stroke="rgb(0, 0, 0)" stroke-width="0" fill-rule="evenodd" stroke-linejoin="miter" fill="rgb(0, 0, 0)" shape-rendering="geometricPrecision" /></g><g><text xml:space="preserve" text-anchor="start" text-rendering="geometricPrecision"><tspan x="404.59" y="301.2" font-family="Arial" font-size="10" fill="rgb(0, 0, 0)">R</tspan></text></g><g id="Solid"><path d="M400.35 284.33 L400.35 284.33 L400.61 284.18 L400.87 284.03 L405.81 292.57 L405.55 292.72 L405.29 292.87 Z" stroke="rgb(0, 0, 0)" stroke-width="0" fill-rule="evenodd" stroke-linejoin="miter" fill="rgb(0, 0, 0)" shape-rendering="geometricPrecision" /></g><g id="Solid"><path d="M375.91 278.87 L375.91 278.87 L376.26 278.87 L376.43 279.17 L365.87 297.45 L365.61 297.3 L365.35 297.15 Z" stroke="rgb(0, 0, 0)" stroke-width="0" fill-rule="evenodd" stroke-linejoin="miter" fill="rgb(0, 0, 0)" shape-rendering="geometricPrecision" /></g><g id="Solid"><path d="M376.43 241.69 L376.43 241.69 L376.26 241.99 L375.91 241.99 L365.35 223.71 L365.61 223.56 L365.87 223.41 Z" stroke="rgb(0, 0, 0)" stroke-width="0" fill-rule="evenodd" stroke-linejoin="miter" fill="rgb(0, 0, 0)" shape-rendering="geometricPrecision" /></g><g id="Charge380"><circle cx="379.31" cy="260.43" r="3.33333333333333" stroke="rgb(0, 0, 0)" stroke-width="0.48" fill="none" /><line x1="377.34" y1="260.43" x2="381.28" y2="260.43" stroke="rgb(0, 0, 0)" stroke-width="0.48" shape-rendering="auto" /></g><g id="Charge381"><circle cx="483.93" cy="260.43" r="3.33333333333333" stroke="rgb(0, 0, 0)" stroke-width="0.48" fill="none" /><line x1="481.96" y1="260.43" x2="485.9" y2="260.43" stroke="rgb(0, 0, 0)" stroke-width="0.48" shape-rendering="auto" /></g><g id="Hollow"><path d="M167.69 258.63 L182.96 258.63 L182.96 256.83 L186.56 260.43 L182.96 264.03 L182.96 262.23 L167.69 262.23 Z" stroke="rgb(0, 0, 0)" stroke-width="0.6" fill-rule="evenodd" stroke-linejoin="miter" fill="none" shape-rendering="geometricPrecision" /></g><g id="Hollow"><path d="M337.36 258.63 L352.44 258.63 L352.44 256.83 L356.04 260.43 L352.44 264.03 L352.44 262.23 L337.36 262.23 Z" stroke="rgb(0, 0, 0)" stroke-width="0.6" fill-rule="evenodd" stroke-linejoin="miter" fill="none" shape-rendering="geometricPrecision" /></g><g><text xml:space="preserve" text-anchor="start" text-rendering="geometricPrecision"><tspan x="112.05" y="313.69" font-family="Arial" font-size="10" fill="rgb(0, 0, 0)">(1)</tspan></text></g><g><text xml:space="preserve" text-anchor="start" text-rendering="geometricPrecision"><tspan x="257.77" y="313.69" font-family="Arial" font-size="10" fill="rgb(0, 0, 0)">(2)</tspan></text></g><g><text xml:space="preserve" text-anchor="start" text-rendering="geometricPrecision"><tspan x="425.25" y="313.69" font-family="Arial" font-size="10" fill="rgb(0, 0, 0)">(3)</tspan></text></g><g id="Solid"><path d="M141 217.43 L141 217.43 L141 217.13 L141 216.83 L155.7 216.83 L155.4 217.13 L155.1 217.43 Z" stroke="rgb(0, 0, 0)" stroke-width="0" fill-rule="evenodd" stroke-linejoin="miter" fill="rgb(0, 0, 0)" shape-rendering="geometricPrecision" /></g><g id="Solid"><path d="M155.1 217.43 L155.1 217.43 L155.4 217.13 L155.7 216.83 L155.7 231.52 L155.4 231.52 L155.1 231.52 Z" stroke="rgb(0, 0, 0)" stroke-width="0" fill-rule="evenodd" stroke-linejoin="miter" fill="rgb(0, 0, 0)" shape-rendering="geometricPrecision" /></g><g id="Solid"><path d="M318.75 217.05 L318.75 217.05 L318.75 216.75 L318.75 216.45 L333.45 216.45 L333.15 216.75 L332.85 217.05 Z" stroke="rgb(0, 0, 0)" stroke-width="0" fill-rule="evenodd" stroke-linejoin="miter" fill="rgb(0, 0, 0)" shape-rendering="geometricPrecision" /></g><g id="Solid"><path d="M332.85 217.05 L332.85 217.05 L333.15 216.75 L333.45 216.45 L333.45 231.15 L333.15 231.15 L332.85 231.15 Z" stroke="rgb(0, 0, 0)" stroke-width="0" fill-rule="evenodd" stroke-linejoin="miter" fill="rgb(0, 0, 0)" shape-rendering="geometricPrecision" /></g><g id="Solid"><path d="M488.63 217.43 L488.63 217.43 L488.63 217.13 L488.63 216.83 L503.32 216.83 L503.02 217.13 L502.72 217.43 Z" stroke="rgb(0, 0, 0)" stroke-width="0" fill-rule="evenodd" stroke-linejoin="miter" fill="rgb(0, 0, 0)" shape-rendering="geometricPrecision" /></g><g id="Solid"><path d="M502.72 217.43 L502.72 217.43 L503.02 217.13 L503.32 216.83 L503.32 231.52 L503.02 231.52 L502.72 231.52 Z" stroke="rgb(0, 0, 0)" stroke-width="0" fill-rule="evenodd" stroke-linejoin="miter" fill="rgb(0, 0, 0)" shape-rendering="geometricPrecision" /></g><g><text xml:space="preserve" text-anchor="start" text-rendering="geometricPrecision"><tspan x="160.13" y="224.25" font-family="Arial" font-size="10" fill="rgb(0, 0, 0)">2-/1-</tspan></text></g><g><text xml:space="preserve" text-anchor="start" text-rendering="geometricPrecision"><tspan x="338.63" y="223.88" font-family="Arial" font-size="10" fill="rgb(0, 0, 0)">1+</tspan></text></g><g><text xml:space="preserve" text-anchor="start" text-rendering="geometricPrecision"><tspan x="506.25" y="224.25" font-family="Arial" font-size="10" fill="rgb(0, 0, 0)">1+/2+</tspan></text></g></g></g></svg>