<?xml version="1.0" encoding="UTF-8" standalone="no"?>
<!-- Created with matplotlib (https://matplotlib.org/) -->

<svg
   height="204.04849pt"
   version="1.1"
   viewBox="0 0 276.79999 204.04849"
   width="276.79999pt"
   id="svg453"
   sodipodi:docname="moess_fit_.svg"
   inkscape:version="1.1.1 (1:1.1+202109281949+c3084ef5ed)"
   inkscape:export-filename="/home/spiller/phd/thesis/appendix/dimer/moess_fit.png"
   inkscape:export-xdpi="350.74014"
   inkscape:export-ydpi="350.74014"
   xmlns:inkscape="http://www.inkscape.org/namespaces/inkscape"
   xmlns:sodipodi="http://sodipodi.sourceforge.net/DTD/sodipodi-0.dtd"
   xmlns:xlink="http://www.w3.org/1999/xlink"
   xmlns="http://www.w3.org/2000/svg"
   xmlns:svg="http://www.w3.org/2000/svg"
   xmlns:rdf="http://www.w3.org/1999/02/22-rdf-syntax-ns#"
   xmlns:cc="http://creativecommons.org/ns#"
   xmlns:dc="http://purl.org/dc/elements/1.1/">
  <sodipodi:namedview
     id="namedview455"
     pagecolor="#ffffff"
     bordercolor="#666666"
     borderopacity="1.0"
     inkscape:pageshadow="2"
     inkscape:pageopacity="1"
     inkscape:pagecheckerboard="0"
     inkscape:document-units="pt"
     showgrid="false"
     inkscape:zoom="1.7653117"
     inkscape:cx="229.70447"
     inkscape:cy="140.76834"
     inkscape:window-width="1920"
     inkscape:window-height="1016"
     inkscape:window-x="0"
     inkscape:window-y="0"
     inkscape:window-maximized="1"
     inkscape:current-layer="axes_1"
     fit-margin-top="5"
     lock-margins="true"
     fit-margin-left="5"
     fit-margin-right="5"
     fit-margin-bottom="5" />
  <metadata
     id="metadata2">
    <rdf:RDF>
      <cc:Work>
        <dc:type
           rdf:resource="http://purl.org/dc/dcmitype/StillImage" />
        <dc:date>2021-11-23T13:19:43.889616</dc:date>
        <dc:format>image/svg+xml</dc:format>
        <dc:creator>
          <cc:Agent>
            <dc:title>Matplotlib v3.3.4, https://matplotlib.org/</dc:title>
          </cc:Agent>
        </dc:creator>
      </cc:Work>
    </rdf:RDF>
  </metadata>
  <defs
     id="defs6">
    <style
       type="text/css"
       id="style4">*{stroke-linecap:butt;stroke-linejoin:round;}</style>
  </defs>
  <g
     id="axes_1"
     transform="translate(-5.8,-6.1515036)">
    <g
       id="patch_2">
      <path
         d="M 52.241463,175.38168 H 277.2 V 11.757501 H 52.241463 Z"
         style="fill:#ffffff"
         id="path11" />
    </g>
    <g
       id="matplotlib.axis_1">
      <g
         id="xtick_1">
        <g
           id="text_1">
          <!-- $\mathdefault{2}$ -->
          <g
             style="fill:#262626"
             transform="matrix(0.1,0,0,-0.1,79.764091,189.30018)"
             id="g19">
            <defs
               id="defs15">
              <path
                 d="M 41.703125,15.46875 H 39.90625 c -1,-7.078125 -1.8125,-8.28125 -2.203125,-8.875 C 37.203125,5.796875 30,5.796875 28.59375,5.796875 H 9.40625 C 13,9.6875 20,16.765625 28.5,24.9375 34.59375,30.71875 41.703125,37.5 41.703125,47.390625 41.703125,59.1875 32.296875,66 21.796875,66 c -11,0 -17.703125,-9.703125 -17.703125,-18.703125 0,-3.90625 2.90625,-4.40625 4.109375,-4.40625 1,0 4,0.59375 4,4.09375 C 12.203125,50.09375 9.59375,51 8.203125,51 7.59375,51 7,50.890625 6.59375,50.6875 c 1.90625,8.5 7.703125,12.703125 13.8125,12.703125 8.6875,0 14.390625,-6.890625 14.390625,-16 0,-8.6875 -5.09375,-16.171875 -10.796875,-22.65625 L 4.09375,2.296875 V 0 h 35.203125 z"
                 id="CMR17-50" />
            </defs>
            <use
               transform="scale(0.996264)"
               xlink:href="#CMR17-50"
               id="use17"
               x="0"
               y="0"
               width="100%"
               height="100%" />
          </g>
        </g>
      </g>
      <g
         id="xtick_2">
        <g
           id="text_2">
          <!-- $\mathdefault{4}$ -->
          <g
             style="fill:#262626"
             transform="matrix(0.1,0,0,-0.1,134.93089,189.30018)"
             id="g28">
            <defs
               id="defs24">
              <path
                 d="M 33.59375,64.796875 C 33.59375,66.890625 33.5,67 31.703125,67 L 2,19.59375 V 17 H 27.796875 V 7.1875 c 0,-3.59375 -0.203125,-4.59375 -7.203125,-4.59375 H 18.703125 V 0 c 3.203125,0.1875 8.59375,0.1875 12,0.1875 3.390625,0 8.796875,0 12,-0.1875 v 2.59375 h -1.90625 c -7,0 -7.203125,1 -7.203125,4.59375 V 17 h 10.203125 v 2.59375 H 33.59375 Z m -5.5,-6.625 V 19.59375 H 4 Z"
                 id="CMR17-52" />
            </defs>
            <use
               transform="scale(0.996264)"
               xlink:href="#CMR17-52"
               id="use26"
               x="0"
               y="0"
               width="100%"
               height="100%" />
          </g>
        </g>
      </g>
      <g
         id="xtick_3">
        <g
           id="text_3">
          <!-- $\mathdefault{6}$ -->
          <g
             style="fill:#262626"
             transform="matrix(0.1,0,0,-0.1,190.0977,189.30018)"
             id="g37">
            <defs
               id="defs33">
              <path
                 d="M 10.59375,34.34375 C 10.59375,58 21.796875,63.6875 28.296875,63.6875 30.40625,63.6875 35.5,63.265625 37.5,59.09375 c -1.59375,0 -4.59375,0 -4.59375,-3.5 C 32.90625,52.890625 35.09375,52 36.5,52 c 0.90625,0 3.59375,0.390625 3.59375,3.796875 0,6.5 -5,10.203125 -11.890625,10.203125 C 16.296875,66 3.796875,53.296875 3.796875,31.421875 3.796875,4.015625 15.09375,-2 23.09375,-2 32.796875,-2 42,6.734375 42,20.234375 42,32.828125 33.90625,42 23.703125,42 17.59375,42 13.09375,37.96875 10.59375,30.921875 Z m 12.5,-33.953125 c -12.296875,0 -12.296875,18.546875 -12.296875,22.265625 0,7.25 3.40625,17.734375 12.703125,17.734375 1.703125,0 6.59375,0 9.90625,-6.953125 1.796875,-3.921875 1.796875,-8.0625 1.796875,-13.09375 0,-5.4375 0,-9.46875 -2.109375,-13.5 -2.1875,-4.140625 -5.390625,-6.453125 -10,-6.453125 z"
                 id="CMR17-54" />
            </defs>
            <use
               transform="scale(0.996264)"
               xlink:href="#CMR17-54"
               id="use35"
               x="0"
               y="0"
               width="100%"
               height="100%" />
          </g>
        </g>
      </g>
      <g
         id="xtick_4">
        <g
           id="text_4">
          <!-- $\mathdefault{8}$ -->
          <g
             style="fill:#262626"
             transform="matrix(0.1,0,0,-0.1,245.2645,189.30018)"
             id="g46">
            <defs
               id="defs42">
              <path
                 d="M 27.203125,35.765625 C 33.5,38.96875 39.90625,43.796875 39.90625,51.53125 39.90625,60.6875 31.09375,66 23,66 13.90625,66 5.90625,59.375 5.90625,50.234375 c 0,-2.515625 0.59375,-6.84375 4.5,-10.65625 1,-1 5.1875,-4.015625 7.890625,-5.921875 -4.5,-2.3125 -15,-7.84375 -15,-18.890625 C 3.296875,4.40625 13.09375,-2 22.796875,-2 33.5,-2 42.5,5.71875 42.5,15.96875 c 0,9.140625 -6.09375,13.359375 -10.09375,16.078125 z m -13.109375,8.84375 c -0.796875,0.5 -4.796875,3.609375 -4.796875,8.328125 0,6.140625 6.296875,10.75 13.5,10.75 7.90625,0 13.703125,-5.625 13.703125,-12.15625 0,-9.34375 -10.40625,-14.671875 -10.90625,-14.671875 -0.09375,0 -0.1875,0 -1,0.609375 z M 32.5,24 c 1.5,-1.09375 6.296875,-4.421875 6.296875,-10.546875 0,-7.4375 -7.390625,-13.0625 -15.796875,-13.0625 -9.09375,0 -16,6.53125 -16,14.46875 0,7.9375 6.09375,14.578125 13,17.6875 z"
                 id="CMR17-56" />
            </defs>
            <use
               transform="scale(0.996264)"
               xlink:href="#CMR17-56"
               id="use44"
               x="0"
               y="0"
               width="100%"
               height="100%" />
          </g>
        </g>
      </g>
      <g
         id="text_5">
        <!-- calculated: $\rho (0)$ -->
        <g
           style="fill:#262626"
           transform="matrix(0.1,0,0,-0.1,130.32015,202.70934)"
           id="g94">
          <defs
             id="defs62">
            <path
               d="M 34.90625,35 C 33,35 30.203125,35 30.203125,31.484375 c 0,-2.796875 2.296875,-3.59375 3.59375,-3.59375 0.703125,0 3.609375,0.296875 3.609375,3.796875 0,7 -6.8125,12.3125 -14.5,12.3125 C 12.296875,44 3.296875,34.390625 3.296875,21.546875 3.296875,8.140625 12.703125,-1 22.90625,-1 c 12.390625,0 15.5,11.5625 15.5,12.671875 0,0.40625 -0.109375,0.703125 -0.8125,0.703125 -0.6875,0 -0.796875,-0.09375 -1.1875,-1.40625 C 33.796875,2.8125 28.09375,0.796875 23.796875,0.796875 c -6.390625,0 -14.09375,5.9375 -14.09375,20.84375 C 9.703125,36.84375 17.09375,42.1875 23,42.1875 c 3.90625,0 9.703125,-1.84375 11.90625,-7.1875 z"
               id="CMR17-99" />
            <path
               d="M 36,25.875 C 36,32 36,35.546875 31.796875,39.59375 28.09375,42.984375 23.796875,44 20.40625,44 12.5,44 6.796875,37.625 6.796875,30.890625 6.796875,27.1875 9.796875,27 10.40625,27 11.703125,27 14,27.796875 14,30.59375 c 0,2.5 -1.90625,3.59375 -3.59375,3.59375 C 10,34.1875 9.5,34.09375 9.203125,34 c 2.09375,6.53125 7.5,8.390625 11,8.390625 5,0 10.5,-4.5625 10.5,-13.09375 V 25.5 c -5.90625,-0.203125 -13,-1 -18.609375,-4.046875 C 5.796875,17.921875 4,12.84375 4,9 4,1.203125 13,-1 18.296875,-1 c 5.5,0 10.609375,3.109375 12.796875,8.890625 0.203125,-4.46875 3,-8.5 7.40625,-8.5 2.09375,0 7.40625,1.40625 7.40625,9.40625 v 5.671875 h -1.8125 V 8.703125 c 0,-6.1875 -2.6875,-7 -4,-7 C 36,1.703125 36,6.96875 36,11.4375 Z M 30.703125,13.859375 C 30.703125,5.046875 24.5,0.59375 19,0.59375 c -5,0 -8.90625,3.75 -8.90625,8.40625 0,3.046875 1.3125,8.40625 7.109375,11.65625 C 22,23.390625 27.5,23.796875 30.703125,24 Z"
               id="CMR17-97" />
            <path
               d="M 15.296875,69 3.40625,67.890625 v -2.59375 c 5.890625,0 6.796875,-0.59375 6.796875,-5.375 V 6.859375 C 10.203125,3.09375 9.796875,2.59375 3.40625,2.59375 V 0 c 2.390625,0.1875 6.796875,0.1875 9.296875,0.1875 2.59375,0 7,0 9.390625,-0.1875 v 2.59375 c -6.390625,0 -6.796875,0.390625 -6.796875,4.265625 z"
               id="CMR17-108" />
            <path
               d="m 29.40625,42.890625 v -2.59375 c 5.890625,0 6.796875,-0.609375 6.796875,-5.46875 v -18.375 c 0,-8.484375 -4.5,-15.859375 -11.90625,-15.859375 -8.203125,0 -8.890625,4.953125 -8.890625,10.203125 V 44 L 3.296875,42.890625 v -2.59375 c 4,0 6.703125,0 6.796875,-4.046875 V 16.859375 c 0,-6.765625 0,-11.109375 2.609375,-13.9375 C 14,1.609375 16.5,-1 23.703125,-1 c 8.5,0 11.796875,7.25 12.59375,9.375 H 36.40625 V -1 l 11.890625,0.796875 V 2.40625 C 42.40625,2.40625 41.5,3.015625 41.5,7.859375 V 44 Z"
               id="CMR17-117" />
            <path
               d="m 15.09375,40.390625 h 14 V 43 h -14 V 62 H 13.296875 C 13.09375,51.4375 9.59375,42.1875 1.09375,41.984375 v -1.59375 H 9.796875 V 12.15625 c 0,-1.921875 0,-13.15625 11.609375,-13.15625 5.890625,0 9.296875,5.8125 9.296875,13.25 v 5.734375 H 28.90625 V 12.34375 C 28.90625,5.421875 26.203125,0.796875 22,0.796875 c -2.90625,0 -6.90625,2 -6.90625,11.15625 z"
               id="CMR17-116" />
            <path
               d="M 38.09375,23.484375 C 38.5,23.890625 38.5,24.09375 38.5,25.09375 38.5,35.171875 33.09375,44 21.703125,44 c -10.609375,0 -19,-10.015625 -19,-22.21875 C 2.703125,8.65625 12.203125,-1 22.796875,-1 34,-1 38.40625,9.671875 38.40625,11.796875 38.40625,12.5 37.796875,12.5 37.59375,12.5 c -0.6875,0 -0.796875,-0.203125 -1.1875,-1.421875 C 34.203125,4.21875 28.703125,0.796875 23.5,0.796875 19.203125,0.796875 14.90625,3.21875 12.203125,7.65625 9.09375,12.796875 9.09375,18.75 9.09375,23.484375 Z M 9.203125,25 C 9.90625,39.234375 17.59375,42.390625 21.59375,42.390625 28.40625,42.390625 33,36.0625 33.09375,25 Z"
               id="CMR17-101" />
            <path
               d="m 29.203125,67.890625 v -2.59375 c 5.890625,0 6.796875,-0.59375 6.796875,-5.25 v -23 C 35.59375,37.546875 31.5,44 23.40625,44 13.203125,44 3.296875,34.8125 3.296875,21.5 3.296875,8.265625 12.59375,-1 22.40625,-1 c 8.5,0 12.890625,6.640625 13.390625,7.34375 V -1 L 47.90625,-0.203125 V 2.40625 c -5.90625,0 -6.8125,0.609375 -6.8125,5.453125 V 69 Z M 35.796875,11.90625 C 35.796875,8.875 34,6.140625 31.703125,4.125 28.296875,1.09375 24.90625,0.59375 23,0.59375 c -2.90625,0 -13.296875,1.515625 -13.296875,20.796875 0,19.796875 11.59375,21 14.203125,21 4.59375,0 8.296875,-2.625 10.59375,-6.25 1.296875,-2.125 1.296875,-2.4375 1.296875,-4.25 z"
               id="CMR17-100" />
            <path
               d="m 16.59375,38.890625 c 0,2.5 -2,4.109375 -4.09375,4.109375 -2,0 -4.09375,-1.609375 -4.09375,-4.109375 0,-2.5 2,-4.09375 4.09375,-4.09375 2,0 4.09375,1.59375 4.09375,4.09375 z m 0,-34.796875 c 0,2.5 -2,4.09375 -4.09375,4.09375 -2,0 -4.09375,-1.59375 -4.09375,-4.09375 0,-2.5 2,-4.09375 4.09375,-4.09375 2,0 4.09375,1.59375 4.09375,4.09375 z"
               id="CMR17-58" />
            <path
               d="M 3.09375,-16.953125 C 3,-17.4375 2.796875,-18.03125 2.796875,-18.609375 c 0,-1.5 1.203125,-2.5 2.703125,-2.5 1.5,0 2.90625,1 3.5,2.390625 0.40625,0.890625 3.203125,12.625 6.40625,24.796875 C 17.40625,1.09375 21.09375,-1 25,-1 36.296875,-1 49.09375,12.96875 49.09375,28.03125 49.09375,38.703125 42.59375,44 35.703125,44 26.90625,44 16.203125,34.90625 12.90625,21.640625 Z M 24.90625,1 c -6.8125,0 -8.5,7.875 -8.5,9.078125 0,0.59375 2.5,10.0625 2.796875,11.5625 5.09375,19.859375 14.890625,20.34375 16.390625,20.34375 4.5,0 7,-4.078125 7,-9.96875 0,-5.078125 -2.6875,-14.96875 -4.390625,-19.15625 C 35.203125,5.984375 30,1 24.90625,1 Z"
               id="CMMI12-26" />
            <path
               d="m 30.59375,-24.40625 c 0,0.09375 0,0.296875 -0.296875,0.59375 -4.59375,4.703125 -16.890625,17.515625 -16.890625,48.75 0,31.234375 12.09375,43.9375 17,48.953125 0,0.09375 0.1875,0.296875 0.1875,0.59375 0,0.3125 -0.296875,0.515625 -0.6875,0.515625 -1.109375,0 -9.609375,-7.421875 -14.5,-18.4375 C 10.40625,45.453125 9,34.65625 9,25.046875 9,17.828125 9.703125,5.625 15.703125,-7.296875 20.5,-17.703125 28.703125,-25 29.90625,-25 c 0.5,0 0.6875,0.1875 0.6875,0.59375 z"
               id="CMR17-40" />
            <path
               d="m 42,31.84375 c 0,6.125 -0.09375,16.578125 -4.296875,24.609375 C 34,63.484375 28.09375,66 22.90625,66 18.09375,66 12,63.78125 8.203125,56.5625 4.203125,49.015625 3.796875,39.671875 3.796875,31.84375 3.796875,26.109375 3.90625,17.375 7,9.734375 11.296875,-0.609375 19,-2 22.90625,-2 27.5,-2 34.5,-0.109375 38.59375,9.4375 41.59375,16.375 42,24.5 42,31.84375 Z m -19.09375,-32.25 C 16.5,-0.40625 12.703125,5.125 11.296875,12.75 c -1.09375,5.9375 -1.09375,14.578125 -1.09375,20.203125 0,7.734375 0,14.15625 1.296875,20.28125 1.90625,8.546875 7.5,11.15625 11.40625,11.15625 4.09375,0 9.390625,-2.71875 11.296875,-10.953125 C 35.5,47.71875 35.59375,40.984375 35.59375,32.953125 c 0,-6.53125 0,-14.578125 -1.1875,-20.5 -2.109375,-10.953125 -8,-12.859375 -11.5,-12.859375 z"
               id="CMR17-48" />
            <path
               d="m 26.296875,24.9375 c 0,7.203125 -0.703125,19.421875 -6.703125,32.328125 C 14.796875,67.6875 6.59375,75 5.40625,75 5.09375,75 4.703125,74.890625 4.703125,74.390625 c 0,-0.203125 0.09375,-0.296875 0.203125,-0.5 4.796875,-5.015625 17,-17.71875 17,-48.84375 0,-31.234375 -12.109375,-43.953125 -17,-48.953125 -0.109375,-0.203125 -0.203125,-0.296875 -0.203125,-0.5 0,-0.5 0.390625,-0.59375 0.703125,-0.59375 1.09375,0 9.59375,7.390625 14.5,18.40625 5,11.109375 6.390625,21.921875 6.390625,31.53125 z"
               id="CMR17-41" />
          </defs>
          <use
             transform="scale(0.996264)"
             xlink:href="#CMR17-99"
             id="use64"
             x="0"
             y="0"
             width="100%"
             height="100%" />
          <use
             transform="matrix(0.996264,0,0,0.996264,40.48566,0)"
             xlink:href="#CMR17-97"
             id="use66"
             x="0"
             y="0"
             width="100%"
             height="100%" />
          <use
             transform="matrix(0.996264,0,0,0.996264,86.176138,0)"
             xlink:href="#CMR17-108"
             id="use68"
             x="0"
             y="0"
             width="100%"
             height="100%" />
          <use
             transform="matrix(0.996264,0,0,0.996264,111.0472,0)"
             xlink:href="#CMR17-99"
             id="use70"
             x="0"
             y="0"
             width="100%"
             height="100%" />
          <use
             transform="matrix(0.996264,0,0,0.996264,151.53286,0)"
             xlink:href="#CMR17-117"
             id="use72"
             x="0"
             y="0"
             width="100%"
             height="100%" />
          <use
             transform="matrix(0.996264,0,0,0.996264,202.42823,0)"
             xlink:href="#CMR17-108"
             id="use74"
             x="0"
             y="0"
             width="100%"
             height="100%" />
          <use
             transform="matrix(0.996264,0,0,0.996264,227.29928,0)"
             xlink:href="#CMR17-97"
             id="use76"
             x="0"
             y="0"
             width="100%"
             height="100%" />
          <use
             transform="matrix(0.996264,0,0,0.996264,272.98976,0)"
             xlink:href="#CMR17-116"
             id="use78"
             x="0"
             y="0"
             width="100%"
             height="100%" />
          <use
             transform="matrix(0.996264,0,0,0.996264,308.27053,0)"
             xlink:href="#CMR17-101"
             id="use80"
             x="0"
             y="0"
             width="100%"
             height="100%" />
          <use
             transform="matrix(0.996264,0,0,0.996264,348.75619,0)"
             xlink:href="#CMR17-100"
             id="use82"
             x="0"
             y="0"
             width="100%"
             height="100%" />
          <use
             transform="matrix(0.996264,0,0,0.996264,399.65156,0)"
             xlink:href="#CMR17-58"
             id="use84"
             x="0"
             y="0"
             width="100%"
             height="100%" />
          <use
             transform="matrix(0.996264,0,0,0.996264,465.00828,0)"
             xlink:href="#CMMI12-26"
             id="use86"
             x="0"
             y="0"
             width="100%"
             height="100%" />
          <use
             transform="matrix(0.996264,0,0,0.996264,515.32265,0)"
             xlink:href="#CMR17-40"
             id="use88"
             x="0"
             y="0"
             width="100%"
             height="100%" />
          <use
             transform="matrix(0.996264,0,0,0.996264,550.60342,0)"
             xlink:href="#CMR17-48"
             id="use90"
             x="0"
             y="0"
             width="100%"
             height="100%" />
          <use
             transform="matrix(0.996264,0,0,0.996264,596.2939,0)"
             xlink:href="#CMR17-41"
             id="use92"
             x="0"
             y="0"
             width="100%"
             height="100%" />
        </g>
      </g>
      <g
         id="text_6">
        <!-- $\mathdefault{+1.378{\times}10^{4}}$ -->
        <g
           style="fill:#262626"
           transform="matrix(0.1,0,0,-0.1,225.07585,201.24001)"
           id="g125">
          <defs
             id="defs103">
            <path
               d="m 37.703125,23 h 26.5 c 1.390625,0 3.09375,0 3.09375,1.6875 0,1.8125 -1.59375,1.8125 -3.09375,1.8125 h -26.5 V 52.890625 C 37.703125,54.296875 37.703125,56 36,56 34.203125,56 34.203125,54.390625 34.203125,52.890625 V 26.5 h -26.5 C 6.296875,26.5 4.59375,26.5 4.59375,24.796875 4.59375,23 6.203125,23 7.703125,23 h 26.5 V -3.03125 c 0,-1.375 0,-3.078125 1.703125,-3.078125 1.796875,0 1.796875,1.59375 1.796875,3.078125 z"
               id="CMR17-43" />
            <path
               d="M 26.59375,63.796875 C 26.59375,65.890625 26.5,66 25.09375,66 21.203125,61.359375 15.296875,59.890625 9.703125,59.6875 c -0.296875,0 -0.796875,0 -0.90625,-0.1875 C 8.703125,59.296875 8.703125,59.09375 8.703125,57 11.796875,57 17,57.59375 21,59.984375 v -52.6875 c 0,-3.5 -0.203125,-4.703125 -8.796875,-4.703125 h -3 V 0 C 14,0.09375 19,0.1875 23.796875,0.1875 28.59375,0.1875 33.59375,0.09375 38.40625,0 v 2.59375 h -3 c -8.609375,0 -8.8125,1.09375 -8.8125,4.703125 z"
               id="CMR17-49" />
            <path
               d="M 18.40625,4.796875 C 18.40625,7.6875 16,9.6875 13.59375,9.6875 10.703125,9.6875 8.703125,7.296875 8.703125,4.890625 8.703125,2 11.09375,0 13.5,0 c 2.90625,0 4.90625,2.390625 4.90625,4.796875 z"
               id="CMMI12-58" />
            <path
               d="M 22.09375,34 C 31,34 34.90625,26.140625 34.90625,17.09375 34.90625,5.03125 28.5,0.390625 22.703125,0.390625 c -5.296875,0 -13.90625,2.625 -16.609375,10.40625 0.5,-0.203125 1,-0.203125 1.5,-0.203125 2.40625,0 4.203125,1.59375 4.203125,4.203125 C 11.796875,17.6875 9.59375,19 7.59375,19 5.90625,19 3.296875,18.1875 3.296875,14.484375 3.296875,5.234375 12.296875,-2 22.90625,-2 34,-2 42.5,6.75 42.5,16.984375 42.5,26.84375 34.5,34 25,35.09375 32.59375,36.671875 39.90625,43.375 39.90625,52.390625 39.90625,60.25 32,66 23,66 13.90625,66 5.90625,60.34375 5.90625,52.296875 c 0,-3.5 2.59375,-4.109375 3.890625,-4.109375 2.109375,0 3.90625,1.296875 3.90625,3.90625 C 13.703125,54.6875 11.90625,56 9.796875,56 9.40625,56 8.90625,56 8.5,55.796875 c 2.90625,6.6875 10.796875,7.890625 14.296875,7.890625 3.5,0 10.109375,-1.71875 10.109375,-11.390625 0,-2.8125 -0.40625,-7.75 -3.8125,-12.078125 -3,-3.828125 -6.390625,-4.03125 -9.6875,-4.328125 -0.5,0 -2.8125,-0.203125 -3.203125,-0.203125 C 15.5,35.59375 15.09375,35.5 15.09375,34.796875 15.09375,34.09375 15.203125,34 17.203125,34 Z"
               id="CMR17-51" />
            <path
               d="M 45.09375,61.796875 V 64 h -23.5 C 9.90625,64 9.703125,65.09375 9.296875,67 H 7.5 L 4.59375,48.5 h 1.8125 c 0.296875,1.90625 1,7 2.1875,8.890625 0.609375,0.796875 8,0.796875 9.703125,0.796875 h 22 L 29.203125,41.71875 c -7.40625,-11.078125 -12.5,-26.046875 -12.5,-39.125 0,-1.203125 0,-4.59375 3.59375,-4.59375 3.609375,0 3.609375,3.390625 3.609375,4.6875 v 4.59375 c 0,16.375 2.796875,27.15625 7.390625,34.03125 z"
               id="CMR17-55" />
            <path
               d="m 38.90625,27.734375 -20,19.859375 C 17.703125,48.796875 17.5,49 16.703125,49 c -1,0 -2,-0.90625 -2,-2 0,-0.703125 0.203125,-0.90625 1.296875,-2 L 36,24.9375 16,4.890625 c -1.09375,-1.09375 -1.296875,-1.296875 -1.296875,-2 0,-1.09375 1,-2 2,-2 0.796875,0 1,0.203125 2.203125,1.40625 L 38.796875,22.15625 59.5,1.484375 c 0.203125,-0.09375 0.90625,-0.59375 1.5,-0.59375 1.203125,0 2,0.90625 2,2 0,0.203125 0,0.59375 -0.296875,1.09375 -0.109375,0.203125 -16,15.875 -21,20.953125 L 60,43.203125 c 0.5,0.59375 2,1.890625 2.5,2.5 0.09375,0.1875 0.5,0.59375 0.5,1.296875 0,1.09375 -0.796875,2 -2,2 -0.796875,0 -1.203125,-0.40625 -2.296875,-1.5 z"
               id="CMSY10-2" />
          </defs>
          <use
             transform="scale(0.996264)"
             xlink:href="#CMR17-43"
             id="use105"
             x="0"
             y="0"
             width="100%"
             height="100%" />
          <use
             transform="matrix(0.996264,0,0,0.996264,71.714788,0)"
             xlink:href="#CMR17-49"
             id="use107"
             x="0"
             y="0"
             width="100%"
             height="100%" />
          <use
             transform="matrix(0.996264,0,0,0.996264,117.40527,0)"
             xlink:href="#CMMI12-58"
             id="use109"
             x="0"
             y="0"
             width="100%"
             height="100%" />
          <use
             transform="matrix(0.996264,0,0,0.996264,144.50244,0)"
             xlink:href="#CMR17-51"
             id="use111"
             x="0"
             y="0"
             width="100%"
             height="100%" />
          <use
             transform="matrix(0.996264,0,0,0.996264,190.19292,0)"
             xlink:href="#CMR17-55"
             id="use113"
             x="0"
             y="0"
             width="100%"
             height="100%" />
          <use
             transform="matrix(0.996264,0,0,0.996264,235.8834,0)"
             xlink:href="#CMR17-56"
             id="use115"
             x="0"
             y="0"
             width="100%"
             height="100%" />
          <use
             transform="matrix(0.996264,0,0,0.996264,281.57387,0)"
             xlink:href="#CMSY10-2"
             id="use117"
             x="0"
             y="0"
             width="100%"
             height="100%" />
          <use
             transform="matrix(0.996264,0,0,0.996264,359.06134,0)"
             xlink:href="#CMR17-49"
             id="use119"
             x="0"
             y="0"
             width="100%"
             height="100%" />
          <use
             transform="matrix(0.996264,0,0,0.996264,404.75182,0)"
             xlink:href="#CMR17-48"
             id="use121"
             x="0"
             y="0"
             width="100%"
             height="100%" />
          <use
             transform="matrix(0.697382,0,0,0.697382,450.4423,36.153639)"
             xlink:href="#CMR17-52"
             id="use123"
             x="0"
             y="0"
             width="100%"
             height="100%" />
        </g>
      </g>
    </g>
    <g
       id="matplotlib.axis_2">
      <g
         id="ytick_1">
        <g
           id="text_7">
          <!-- $\mathdefault{−1.0}$ -->
          <g
             style="fill:#262626"
             transform="matrix(0.1,0,0,-0.1,24.76264,171.22921)"
             id="g140">
            <defs
               id="defs130">
              <path
                 d="m 65.90625,23 c 1.6875,0 3.5,0 3.5,2 0,2 -1.8125,2 -3.5,2 H 11.796875 c -1.703125,0 -3.5,0 -3.5,-2 0,-2 1.796875,-2 3.5,-2 z"
                 id="CMSY10-0" />
            </defs>
            <use
               transform="scale(0.996264)"
               xlink:href="#CMSY10-0"
               id="use132"
               x="0"
               y="0"
               width="100%"
               height="100%" />
            <use
               transform="matrix(0.996264,0,0,0.996264,77.487468,0)"
               xlink:href="#CMR17-49"
               id="use134"
               x="0"
               y="0"
               width="100%"
               height="100%" />
            <use
               transform="matrix(0.996264,0,0,0.996264,123.17794,0)"
               xlink:href="#CMMI12-58"
               id="use136"
               x="0"
               y="0"
               width="100%"
               height="100%" />
            <use
               transform="matrix(0.996264,0,0,0.996264,150.27512,0)"
               xlink:href="#CMR17-48"
               id="use138"
               x="0"
               y="0"
               width="100%"
               height="100%" />
          </g>
        </g>
      </g>
      <g
         id="ytick_2">
        <g
           id="text_8">
          <!-- $\mathdefault{−0.5}$ -->
          <g
             style="fill:#262626"
             transform="matrix(0.1,0,0,-0.1,24.76264,140.52874)"
             id="g155">
            <defs
               id="defs145">
              <path
                 d="m 11.40625,58.59375 c 1,-0.40625 5.09375,-1.703125 9.296875,-1.703125 9.296875,0 14.390625,5 17.296875,7.796875 C 38,65.484375 38,66 37.40625,66 c -0.109375,0 -0.3125,0 -1.109375,-0.40625 -3.5,-1.5 -7.59375,-2.59375 -12.59375,-2.59375 -3,0 -7.5,0.359375 -12.40625,2.484375 C 10.203125,66 10,66 9.90625,66 9.40625,66 9.296875,65.890625 9.296875,63.90625 V 34.859375 c 0,-1.84375 0,-2.359375 1,-2.359375 0.5,0 0.703125,0.203125 1.203125,0.921875 C 14.703125,38.046875 19.09375,40 24.09375,40 c 3.5,0 11,-2.265625 11,-19.796875 0,-3.21875 0,-9.015625 -3,-13.609375 -2.5,-4.109375 -6.390625,-6.203125 -10.6875,-6.203125 -6.609375,0 -13.3125,4.59375 -15.109375,12.296875 C 6.703125,12.59375 7.5,12.390625 7.90625,12.390625 c 1.296875,0 3.796875,0.703125 3.796875,3.796875 C 11.703125,18.890625 9.796875,20 7.90625,20 5.59375,20 4.09375,18.59375 4.09375,15.796875 4.09375,7.09375 11,-2 21.59375,-2 c 10.3125,0 20.109375,8.890625 20.109375,21.796875 0,12.296875 -7.796875,21.796875 -17.5,21.796875 -5.109375,0 -9.40625,-1.90625 -12.796875,-5.59375 z"
                 id="CMR17-53" />
            </defs>
            <use
               transform="scale(0.996264)"
               xlink:href="#CMSY10-0"
               id="use147"
               x="0"
               y="0"
               width="100%"
               height="100%" />
            <use
               transform="matrix(0.996264,0,0,0.996264,77.487468,0)"
               xlink:href="#CMR17-48"
               id="use149"
               x="0"
               y="0"
               width="100%"
               height="100%" />
            <use
               transform="matrix(0.996264,0,0,0.996264,123.17794,0)"
               xlink:href="#CMMI12-58"
               id="use151"
               x="0"
               y="0"
               width="100%"
               height="100%" />
            <use
               transform="matrix(0.996264,0,0,0.996264,150.27512,0)"
               xlink:href="#CMR17-53"
               id="use153"
               x="0"
               y="0"
               width="100%"
               height="100%" />
          </g>
        </g>
      </g>
      <g
         id="ytick_3">
        <g
           id="text_9">
          <!-- $\mathdefault{0.0}$ -->
          <g
             style="fill:#262626"
             transform="matrix(0.1,0,0,-0.1,32.511384,109.82827)"
             id="g165">
            <use
               transform="scale(0.996264)"
               xlink:href="#CMR17-48"
               id="use159"
               x="0"
               y="0"
               width="100%"
               height="100%" />
            <use
               transform="matrix(0.996264,0,0,0.996264,45.690477,0)"
               xlink:href="#CMMI12-58"
               id="use161"
               x="0"
               y="0"
               width="100%"
               height="100%" />
            <use
               transform="matrix(0.996264,0,0,0.996264,72.787654,0)"
               xlink:href="#CMR17-48"
               id="use163"
               x="0"
               y="0"
               width="100%"
               height="100%" />
          </g>
        </g>
      </g>
      <g
         id="ytick_4">
        <g
           id="text_10">
          <!-- $\mathdefault{0.5}$ -->
          <g
             style="fill:#262626"
             transform="matrix(0.1,0,0,-0.1,32.511384,79.127793)"
             id="g175">
            <use
               transform="scale(0.996264)"
               xlink:href="#CMR17-48"
               id="use169"
               x="0"
               y="0"
               width="100%"
               height="100%" />
            <use
               transform="matrix(0.996264,0,0,0.996264,45.690477,0)"
               xlink:href="#CMMI12-58"
               id="use171"
               x="0"
               y="0"
               width="100%"
               height="100%" />
            <use
               transform="matrix(0.996264,0,0,0.996264,72.787654,0)"
               xlink:href="#CMR17-53"
               id="use173"
               x="0"
               y="0"
               width="100%"
               height="100%" />
          </g>
        </g>
      </g>
      <g
         id="ytick_5">
        <g
           id="text_11">
          <!-- $\mathdefault{1.0}$ -->
          <g
             style="fill:#262626"
             transform="matrix(0.1,0,0,-0.1,32.511384,48.42732)"
             id="g185">
            <use
               transform="scale(0.996264)"
               xlink:href="#CMR17-49"
               id="use179"
               x="0"
               y="0"
               width="100%"
               height="100%" />
            <use
               transform="matrix(0.996264,0,0,0.996264,45.690477,0)"
               xlink:href="#CMMI12-58"
               id="use181"
               x="0"
               y="0"
               width="100%"
               height="100%" />
            <use
               transform="matrix(0.996264,0,0,0.996264,72.787654,0)"
               xlink:href="#CMR17-48"
               id="use183"
               x="0"
               y="0"
               width="100%"
               height="100%" />
          </g>
        </g>
      </g>
      <g
         id="ytick_6">
        <g
           id="text_12">
          <!-- $\mathdefault{1.5}$ -->
          <g
             style="fill:#262626"
             transform="matrix(0.1,0,0,-0.1,32.511384,17.726846)"
             id="g195">
            <use
               transform="scale(0.996264)"
               xlink:href="#CMR17-49"
               id="use189"
               x="0"
               y="0"
               width="100%"
               height="100%" />
            <use
               transform="matrix(0.996264,0,0,0.996264,45.690477,0)"
               xlink:href="#CMMI12-58"
               id="use191"
               x="0"
               y="0"
               width="100%"
               height="100%" />
            <use
               transform="matrix(0.996264,0,0,0.996264,72.787654,0)"
               xlink:href="#CMR17-53"
               id="use193"
               x="0"
               y="0"
               width="100%"
               height="100%" />
          </g>
        </g>
      </g>
      <g
         id="text_13">
        <!-- experimental: $\delta [mm/s]$ -->
        <g
           style="fill:#262626"
           transform="matrix(0,-0.1,-0.1,0,18.27198,144.01307)"
           id="g253">
          <defs
             id="defs211">
            <path
               d="m 26,23.296875 c 3,3.890625 6.40625,8.296875 9.203125,11.59375 3.296875,3.796875 7.09375,5.40625 11.5,5.5 V 43 C 45,42.890625 41.5,42.796875 39.703125,42.796875 37,42.796875 33.90625,42.796875 31.59375,43 V 40.390625 C 33,40.1875 33.796875,39.1875 33.796875,37.796875 c 0,-1.796875 -1,-2.90625 -1.5,-3.609375 l -7.390625,-9.390625 -8.8125,11.5 c -0.890625,1.09375 -0.890625,1.296875 -0.890625,1.796875 0,1.203125 1,2.203125 2.703125,2.296875 V 43 C 15.5,42.796875 11.203125,42.796875 8.703125,42.796875 6,42.796875 2.796875,42.796875 0.59375,43 V 40.390625 C 6,40.390625 7.203125,40 9.59375,37 l 11.5,-14.90625 C 21.296875,21.890625 21.796875,21.296875 21.796875,21 21.796875,20.59375 13.09375,9.890625 12,8.5 7.5,3.09375 2.796875,2.6875 0.09375,2.59375 V 0 c 1.703125,0.09375 5.203125,0.1875 7,0.1875 2,0 6.40625,0 8.203125,-0.1875 V 2.59375 C 14.703125,2.6875 13.09375,2.890625 13.09375,5.1875 c 0,1.8125 0.8125,2.90625 1.703125,4.109375 L 23.09375,19.5 31.796875,8.1875 c 0.796875,-1.09375 2,-2.59375 2,-3.296875 C 33.796875,3.5 32.59375,2.6875 31,2.59375 V 0 c 2.40625,0.1875 6.703125,0.1875 9.203125,0.1875 2.703125,0 5.890625,0 8.09375,-0.1875 v 2.59375 c -5,0 -6.5,0.203125 -8.890625,3.296875 z"
               id="CMR17-120" />
            <path
               d="m 22,-17.40625 c -6.40625,0 -6.796875,0.40625 -6.796875,4.375 V 5.9375 C 18.09375,1.703125 22.296875,-1 27.59375,-1 c 10,0 20.109375,8.859375 20.109375,22.59375 C 47.703125,34.3125 39,44 28.703125,44 22.703125,44 17.796875,40.671875 15,36.640625 V 44 L 3.09375,42.890625 v -2.625 c 5.90625,0 6.8125,-0.59375 6.8125,-5.453125 v -47.84375 c 0,-3.859375 -0.40625,-4.375 -6.8125,-4.375 V -20 c 2.40625,0.1875 6.8125,0.1875 9.40625,0.1875 2.59375,0 7.09375,0 9.5,-0.1875 z m -6.796875,48.890625 c 0,1.421875 0,3.53125 3.890625,7.28125 C 19.59375,39.15625 23,42.1875 28,42.1875 35.296875,42.1875 41.296875,33 41.296875,21.5 41.296875,9.984375 34.90625,0.59375 27,0.59375 23.40625,0.59375 19.5,2.3125 16.5,7.046875 15.203125,9.28125 15.203125,9.875 15.203125,11.5 Z"
               id="CMR17-112" />
            <path
               d="m 15,23.703125 c 0,9.640625 4.09375,18.6875 11.59375,18.6875 0.703125,0 1.40625,-0.09375 2.109375,-0.40625 0,0 -2.203125,-0.703125 -2.203125,-3.3125 0,-2.40625 1.90625,-3.40625 3.40625,-3.40625 1.1875,0 3.390625,0.703125 3.390625,3.515625 0,3.203125 -3.203125,5.21875 -6.59375,5.21875 -7.609375,0 -10.90625,-7.4375 -11.90625,-10.953125 h -0.09375 V 44 L 3.09375,42.890625 V 40.28125 c 5.90625,0 6.8125,-0.59375 6.8125,-5.421875 V 6.921875 C 9.90625,3.09375 9.5,2.59375 3.09375,2.59375 V 0 c 2.40625,0.1875 7,0.1875 9.609375,0.1875 2.890625,0 8,0 10.703125,-0.1875 v 2.59375 c -7.203125,0 -8.40625,0 -8.40625,4.515625 z"
               id="CMR17-114" />
            <path
               d="M 15.5,61.890625 C 15.5,64.09375 13.703125,66 11.40625,66 9.203125,66 7.296875,64.1875 7.296875,61.890625 c 0,-2.203125 1.796875,-4.09375 4.109375,-4.09375 2.1875,0 4.09375,1.796875 4.09375,4.09375 z m -11.703125,-19 v -2.59375 c 5.609375,0 6.40625,-0.609375 6.40625,-5.4375 V 6.921875 C 10.203125,3.09375 9.796875,2.59375 3.40625,2.59375 V 0 c 2.390625,0.1875 6.6875,0.1875 9.1875,0.1875 2.40625,0 6.5,0 8.8125,-0.1875 v 2.59375 c -5.90625,0 -6.109375,0.609375 -6.109375,4.21875 V 44 Z"
               id="CMR17-105" />
            <path
               d="M 67.59375,30.53125 C 67.59375,35.5625 66.703125,44 54.796875,44 48,44 43.296875,39.375 41.5,33.953125 H 41.40625 C 40.203125,42.1875 34.296875,44 28.703125,44 c -7.90625,0 -12,-6.125 -13.5,-10.15625 H 15.09375 V 44 L 3.296875,42.890625 V 40.28125 c 5.90625,0 6.796875,-0.59375 6.796875,-5.421875 V 6.921875 C 10.09375,3.09375 9.703125,2.59375 3.296875,2.59375 V 0 c 2.40625,0.1875 6.796875,0.1875 9.40625,0.1875 2.59375,0 7.09375,0 9.5,-0.1875 V 2.59375 C 15.796875,2.59375 15.40625,3 15.40625,6.921875 V 26.21875 C 15.40625,35.453125 21,42.390625 28,42.390625 c 7.40625,0 8.203125,-6.625 8.203125,-11.453125 V 6.921875 c 0,-3.828125 -0.40625,-4.328125 -6.796875,-4.328125 V 0 c 2.390625,0.1875 6.796875,0.1875 9.390625,0.1875 2.609375,0 7.109375,0 9.5,-0.1875 V 2.59375 C 41.90625,2.59375 41.5,3 41.5,6.921875 V 26.21875 c 0,9.234375 5.59375,16.171875 12.59375,16.171875 7.40625,0 8.203125,-6.625 8.203125,-11.453125 V 6.921875 C 62.296875,3.09375 61.90625,2.59375 55.5,2.59375 V 0 c 2.40625,0.1875 6.796875,0.1875 9.40625,0.1875 2.59375,0 7.09375,0 9.5,-0.1875 V 2.59375 C 68,2.59375 67.59375,3 67.59375,6.921875 Z"
               id="CMR17-109" />
            <path
               d="M 41.5,30.53125 C 41.5,35.65625 40.5,44 28.703125,44 c -7.90625,0 -12,-6.125 -13.5,-10.15625 H 15.09375 V 44 L 3.296875,42.890625 V 40.28125 c 5.90625,0 6.796875,-0.59375 6.796875,-5.421875 V 6.921875 C 10.09375,3.09375 9.703125,2.59375 3.296875,2.59375 V 0 c 2.40625,0.1875 6.796875,0.1875 9.40625,0.1875 2.59375,0 7.09375,0 9.5,-0.1875 V 2.59375 C 15.796875,2.59375 15.40625,3 15.40625,6.921875 V 26.21875 C 15.40625,35.453125 21,42.390625 28,42.390625 c 7.40625,0 8.203125,-6.625 8.203125,-11.453125 V 6.921875 c 0,-3.828125 -0.40625,-4.328125 -6.796875,-4.328125 V 0 c 2.390625,0.1875 6.796875,0.1875 9.390625,0.1875 2.609375,0 7.109375,0 9.5,-0.1875 V 2.59375 C 41.90625,2.59375 41.5,3 41.5,6.921875 Z"
               id="CMR17-110" />
            <path
               d="M 26,43.671875 C 13.203125,40.578125 4,27.3125 4,15.640625 4,4.984375 11.203125,-1 19.203125,-1 31,-1 39,15.15625 39,28.40625 c 0,8.984375 -4.203125,14.453125 -6.703125,17.75 -3.703125,4.6875 -9.703125,12.359375 -9.703125,17.15625 0,1.6875 1.3125,4.6875 5.703125,4.6875 3.109375,0 5,-1.109375 8,-2.796875 0.90625,-0.609375 3.203125,-1.890625 4.5,-1.890625 2.109375,0 3.609375,2.09375 3.609375,3.6875 0,1.890625 -1.5,2.1875 -5,3 -4.703125,1 -6.109375,1 -7.8125,1 -1.6875,0 -11.5,0 -11.5,-10.1875 0,-4.890625 2.5,-10.5625 5.90625,-17.140625 z m 1.09375,-1.90625 c 3.8125,-7.875 5.3125,-10.859375 5.3125,-17.34375 C 32.40625,16.640625 28.203125,1 19.296875,1 c -3.890625,0 -9.5,2.578125 -9.5,11.859375 0,6.484375 3.703125,25.328125 17.296875,28.90625 z"
               id="CMMI12-14" />
            <path
               d="m 23.5,-25 v 3.5 H 14.09375 V 71.484375 H 23.5 V 75 H 10.59375 V -25 Z"
               id="CMR17-91" />
            <path
               d="M 20.59375,29.21875 C 20.796875,29.828125 23.296875,34.8125 27,38 c 2.59375,2.390625 6,3.984375 9.90625,3.984375 4,0 5.390625,-2.984375 5.390625,-6.96875 0,-0.609375 0,-2.59375 -1.203125,-7.28125 l -2.5,-10.28125 c -0.796875,-3 -2.6875,-10.375 -2.890625,-11.46875 -0.40625,-1.5 -1,-4.09375 -1,-4.5 0,-1.390625 1.09375,-2.484375 2.59375,-2.484375 3,0 3.5,2.296875 4.40625,5.890625 l 6,23.828125 c 0.203125,0.8125 5.390625,13.265625 16.390625,13.265625 4,0 5.40625,-2.984375 5.40625,-6.96875 0,-5.59375 -3.90625,-16.46875 -6.09375,-22.453125 C 62.5,10.171875 62,8.875 62,7.078125 62,2.59375 65.09375,-1 69.90625,-1 c 9.296875,0 12.796875,14.65625 12.796875,15.265625 0,0.5 -0.40625,0.890625 -1,0.890625 -0.90625,0 -1,-0.296875 -1.5,-2 C 77.90625,5.1875 74.203125,1 70.203125,1 c -1,0 -2.609375,0.09375 -2.609375,3.28125 0,2.59375 1.203125,5.796875 1.609375,6.890625 C 71,15.953125 75.5,27.734375 75.5,33.515625 75.5,39.5 72,44 64.40625,44 57.703125,44 52.296875,40.203125 48.296875,34.3125 48,39.703125 44.703125,44 37.203125,44 28.296875,44 23.59375,37.703125 21.796875,35.203125 21.5,40.890625 17.40625,44 13,44 10.09375,44 7.796875,42.59375 5.90625,38.796875 4.09375,35.203125 2.703125,29.125 2.703125,28.71875 c 0,-0.390625 0.390625,-0.890625 1.09375,-0.890625 0.796875,0 0.90625,0.09375 1.5,2.390625 1.5,5.890625 3.40625,11.765625 7.40625,11.765625 2.296875,0 3.09375,-1.59375 3.09375,-4.578125 0,-2.203125 -1,-6.09375 -1.703125,-9.171875 l -2.796875,-10.78125 c -0.390625,-1.890625 -1.5,-6.390625 -2,-8.1875 C 8.59375,6.671875 7.5,1.984375 7.5,1.484375 7.5,0.09375 8.59375,-1 10.09375,-1 c 1.203125,0 2.609375,0.59375 3.40625,2.09375 0.203125,0.5 1.09375,3.984375 1.59375,5.984375 l 2.203125,8.984375 z"
               id="CMMI12-109" />
            <path
               d="m 42.90625,71.296875 c 0,0.09375 0.59375,1.59375 0.59375,1.796875 0,1.203125 -1,1.90625 -1.796875,1.90625 -0.5,0 -1.40625,0 -2.203125,-2.203125 L 6,-21.3125 c 0,-0.09375 -0.59375,-1.59375 -0.59375,-1.796875 0,-1.203125 1,-1.890625 1.796875,-1.890625 0.59375,0 1.5,0.09375 2.203125,2.1875 z"
               id="CMMI12-61" />
            <path
               d="m 22.796875,20.15625 c 1.703125,-0.296875 4.40625,-0.890625 5,-0.984375 1.296875,-0.40625 5.796875,-2 5.796875,-6.78125 C 33.59375,9.296875 30.796875,1 19.203125,1 17.09375,1 9.59375,1.296875 7.59375,6.984375 c 4,-0.515625 6,2.609375 6,4.8125 C 13.59375,13.890625 12.203125,15 10.203125,15 8,15 5.09375,13.296875 5.09375,8.796875 c 0,-6.046875 6,-9.796875 14,-9.796875 15.203125,0 19.703125,11.390625 19.703125,16.59375 0,1.484375 0,4.265625 -3.203125,7.453125 -2.5,2.375 -4.890625,2.875 -10.296875,3.96875 -2.703125,0.59375 -7,1.484375 -7,5.96875 0,2 1.796875,9 11.296875,9 4.203125,0 8.3125,-1.53125 9.3125,-4.984375 -4.40625,0 -4.609375,-3.8125 -4.609375,-3.90625 0,-2.109375 1.90625,-2.703125 2.796875,-2.703125 1.40625,0 4.203125,1.09375 4.203125,5.296875 C 41.296875,39.78125 37.5,44 29.703125,44 16.59375,44 13.09375,33.890625 13.09375,29.796875 13.09375,22.25 20.5,20.65625 22.796875,20.15625 Z"
               id="CMMI12-115" />
            <path
               d="M 14.296875,75 H 1.40625 v -3.515625 h 9.390625 V -21.5 H 1.40625 V -25 h 12.890625 z"
               id="CMR17-93" />
          </defs>
          <use
             transform="scale(0.996264)"
             xlink:href="#CMR17-101"
             id="use213"
             x="0"
             y="0"
             width="100%"
             height="100%" />
          <use
             transform="matrix(0.996264,0,0,0.996264,40.48566,0)"
             xlink:href="#CMR17-120"
             id="use215"
             x="0"
             y="0"
             width="100%"
             height="100%" />
          <use
             transform="matrix(0.996264,0,0,0.996264,88.778576,0)"
             xlink:href="#CMR17-112"
             id="use217"
             x="0"
             y="0"
             width="100%"
             height="100%" />
          <use
             transform="matrix(0.996264,0,0,0.996264,142.27638,0)"
             xlink:href="#CMR17-101"
             id="use219"
             x="0"
             y="0"
             width="100%"
             height="100%" />
          <use
             transform="matrix(0.996264,0,0,0.996264,182.76204,0)"
             xlink:href="#CMR17-114"
             id="use221"
             x="0"
             y="0"
             width="100%"
             height="100%" />
          <use
             transform="matrix(0.996264,0,0,0.996264,218.04281,0)"
             xlink:href="#CMR17-105"
             id="use223"
             x="0"
             y="0"
             width="100%"
             height="100%" />
          <use
             transform="matrix(0.996264,0,0,0.996264,242.91387,0)"
             xlink:href="#CMR17-109"
             id="use225"
             x="0"
             y="0"
             width="100%"
             height="100%" />
          <use
             transform="matrix(0.996264,0,0,0.996264,319.83346,0)"
             xlink:href="#CMR17-101"
             id="use227"
             x="0"
             y="0"
             width="100%"
             height="100%" />
          <use
             transform="matrix(0.996264,0,0,0.996264,360.31912,0)"
             xlink:href="#CMR17-110"
             id="use229"
             x="0"
             y="0"
             width="100%"
             height="100%" />
          <use
             transform="matrix(0.996264,0,0,0.996264,408.61204,0)"
             xlink:href="#CMR17-116"
             id="use231"
             x="0"
             y="0"
             width="100%"
             height="100%" />
          <use
             transform="matrix(0.996264,0,0,0.996264,443.89281,0)"
             xlink:href="#CMR17-97"
             id="use233"
             x="0"
             y="0"
             width="100%"
             height="100%" />
          <use
             transform="matrix(0.996264,0,0,0.996264,489.58328,0)"
             xlink:href="#CMR17-108"
             id="use235"
             x="0"
             y="0"
             width="100%"
             height="100%" />
          <use
             transform="matrix(0.996264,0,0,0.996264,514.45434,0)"
             xlink:href="#CMR17-58"
             id="use237"
             x="0"
             y="0"
             width="100%"
             height="100%" />
          <use
             transform="matrix(0.996264,0,0,0.996264,579.81106,0)"
             xlink:href="#CMMI12-14"
             id="use239"
             x="0"
             y="0"
             width="100%"
             height="100%" />
          <use
             transform="matrix(0.996264,0,0,0.996264,626.75245,0)"
             xlink:href="#CMR17-91"
             id="use241"
             x="0"
             y="0"
             width="100%"
             height="100%" />
          <use
             transform="matrix(0.996264,0,0,0.996264,651.62351,0)"
             xlink:href="#CMMI12-109"
             id="use243"
             x="0"
             y="0"
             width="100%"
             height="100%" />
          <use
             transform="matrix(0.996264,0,0,0.996264,736.95073,0)"
             xlink:href="#CMMI12-109"
             id="use245"
             x="0"
             y="0"
             width="100%"
             height="100%" />
          <use
             transform="matrix(0.996264,0,0,0.996264,822.27795,0)"
             xlink:href="#CMMI12-61"
             id="use247"
             x="0"
             y="0"
             width="100%"
             height="100%" />
          <use
             transform="matrix(0.996264,0,0,0.996264,871.05287,0)"
             xlink:href="#CMMI12-115"
             id="use249"
             x="0"
             y="0"
             width="100%"
             height="100%" />
          <use
             transform="matrix(0.996264,0,0,0.996264,917.00292,0)"
             xlink:href="#CMR17-93"
             id="use251"
             x="0"
             y="0"
             width="100%"
             height="100%" />
        </g>
      </g>
    </g>
    <g
       id="line2d_1">
      <path
         clip-path="url(#p631567b55a)"
         d="m 62.466851,19.194964 22.723084,16.527695 22.723085,16.527695 22.72308,16.527696 22.72309,16.527695 22.72308,16.527695 22.72309,16.5277 22.72308,16.52769 22.72309,16.52769 22.72308,16.5277"
         style="fill:none;stroke:#808080;stroke-width:1.5;stroke-linecap:round"
         id="path257" />
    </g>
    <g
       id="line2d_2" />
    <g
       id="patch_3">
      <path
         d="M 52.241463,175.38168 V 11.757501"
         style="fill:none;stroke:#262626;stroke-width:0.8;stroke-linecap:square;stroke-linejoin:miter"
         id="path261" />
    </g>
    <g
       id="patch_4">
      <path
         d="M 277.2,175.38168 V 11.757501"
         style="fill:none;stroke:#262626;stroke-width:0.8;stroke-linecap:square;stroke-linejoin:miter"
         id="path264" />
    </g>
    <g
       id="patch_5">
      <path
         d="M 52.241463,175.38168 H 277.2"
         style="fill:none;stroke:#262626;stroke-width:0.8;stroke-linecap:square;stroke-linejoin:miter"
         id="path267" />
    </g>
    <g
       id="patch_6">
      <path
         d="M 52.241463,11.757501 H 277.2"
         style="fill:none;stroke:#262626;stroke-width:0.8;stroke-linecap:square;stroke-linejoin:miter"
         id="path270" />
    </g>
    <g
       id="text_14">
      <!-- $\delta = \alpha * ( \rho_0 - C ) + \beta  = ax + b $ -->
      <g
         style="fill:#262626"
         transform="matrix(0.1,0,0,-0.1,124.38529,35.5919)"
         id="g317">
        <defs
           id="defs281">
          <path
             d="m 64.296875,32 c 1.5,0 3,0 3,1.6875 0,1.8125 -1.703125,1.8125 -3.390625,1.8125 H 8 c -1.703125,0 -3.40625,0 -3.40625,-1.8125 0,-1.6875 1.5,-1.6875 3,-1.6875 z M 63.90625,14.484375 c 1.6875,0 3.390625,0 3.390625,1.8125 0,1.703125 -1.5,1.703125 -3,1.703125 H 7.59375 c -1.5,0 -3,0 -3,-1.703125 0,-1.8125 1.703125,-1.8125 3.40625,-1.8125 z"
             id="CMR17-61" />
          <path
             d="M 46.296875,25.234375 C 46.296875,34.90625 40.796875,44 30.203125,44 17.09375,44 4,29.71875 4,15.5625 4,6.875 9.40625,-1 19.59375,-1 c 6.203125,0 13.609375,2.390625 20.703125,8.375 1.40625,-5.578125 4.5,-8.375 8.796875,-8.375 5.40625,0 8.109375,5.578125 8.109375,6.875 0,0.90625 -0.703125,0.90625 -1,0.90625 C 55.40625,6.78125 55.296875,6.484375 55,5.6875 54.09375,3.1875 51.796875,1 49.40625,1 46.296875,1 46.296875,7.375 46.296875,13.46875 56.5,25.640625 58.90625,38.203125 58.90625,38.296875 c 0,0.90625 -0.8125,0.90625 -1.109375,0.90625 -0.890625,0 -1,-0.296875 -1.390625,-2.09375 C 55.09375,32.71875 52.5,24.9375 46.296875,16.75 Z M 40,9.765625 C 31.203125,1.890625 23.296875,1 19.796875,1 c -7.09375,0 -9.09375,6.28125 -9.09375,10.96875 0,4.28125 2.203125,14.46875 5.296875,19.953125 4.09375,6.984375 9.703125,10.0625 14.203125,10.0625 9.703125,0 9.703125,-12.65625 9.703125,-21.046875 0,-2.484375 -0.109375,-5.078125 -0.109375,-7.578125 C 39.796875,11.375 39.90625,10.875 40,9.765625 Z"
             id="CMMI12-11" />
          <path
             d="M 27.5,43.15625 C 27.59375,44.578125 27.59375,47 25,47 23.40625,47 22.09375,45.6875 22.40625,44.375 V 43.046875 L 23.796875,27.1875 11,36.703125 C 10.09375,37.21875 9.90625,37.421875 9.203125,37.421875 7.796875,37.421875 6.5,35.984375 6.5,34.5625 6.5,32.921875 7.5,32.515625 8.5,32 L 22.703125,25.046875 8.90625,18.1875 C 7.296875,17.375 6.5,16.953125 6.5,15.421875 6.5,13.890625 7.796875,12.5625 9.203125,12.5625 c 0.703125,0 0.890625,0 3.390625,1.9375 l 11.203125,8.296875 -1.5,-17.1875 C 22.296875,3.5 24.09375,3 24.90625,3 c 1.1875,0 2.6875,0.6875 2.6875,2.609375 l -1.5,17.1875 12.8125,-9.515625 C 39.796875,12.765625 40,12.5625 40.703125,12.5625 c 1.390625,0 2.703125,1.4375 2.703125,2.859375 0,1.53125 -0.90625,2.046875 -2.109375,2.65625 -6,3.078125 -6.203125,3.078125 -14.09375,6.859375 L 41,31.796875 c 1.59375,0.8125 2.40625,1.21875 2.40625,2.765625 0,1.53125 -1.3125,2.859375 -2.703125,2.859375 -0.703125,0 -0.90625,0 -3.40625,-1.9375 L 26.09375,27.1875 Z"
             id="CMSY10-3" />
          <path
             d="M 74.703125,69.09375 C 74.703125,70 74,70 73.796875,70 73.59375,70 73.203125,70 72.40625,68.984375 L 65.5,60.640625 C 62,66.59375 56.5,70 49,70 27.40625,70 5,48.234375 5,24.90625 5,8.328125 16.703125,-2 31.296875,-2 c 8,0 15,3.390625 20.796875,8.25 8.703125,7.25 11.3125,16.875 11.3125,17.671875 0,0.890625 -0.8125,0.890625 -1.109375,0.890625 -0.890625,0 -1,-0.59375 -1.203125,-1 C 56.5,8.328125 43,0.890625 33,0.890625 c -10.59375,0 -19.796875,6.75 -19.796875,20.84375 0,3.171875 1,20.4375 12.296875,33.4375 5.5,6.359375 14.90625,11.921875 24.40625,11.921875 11,0 15.890625,-9.03125 15.890625,-19.15625 C 65.796875,45.359375 65.5,43.171875 65.5,42.765625 65.5,41.875 66.5,41.875 66.796875,41.875 67.90625,41.875 68,41.984375 68.40625,43.765625 Z"
             id="CMMI12-67" />
          <path
             d="M 56.59375,58.421875 C 56.59375,64.546875 51.5,71 42.40625,71 29.5,71 21.296875,54.84375 18.703125,44.21875 L 2.90625,-18 C 2.703125,-18.8125 3.296875,-19 3.796875,-19 4.5,-19 5,-18.90625 5.09375,-18.40625 l 7,27.65625 c 1,-5.640625 6.5,-10.25 12.40625,-10.25 14.296875,0 27.796875,11.265625 27.796875,26.28125 0,3.828125 -0.890625,7.65625 -3,10.875 C 48.09375,38.078125 46.59375,39.484375 45,40.609375 c 7.203125,3.5 11.59375,9.734375 11.59375,17.8125 z M 39.203125,40.703125 C 37.59375,40.171875 36,40 34.09375,40 c -1.390625,0 -2.6875,-0.109375 -4.5,0.4375 1,0.609375 2.5,0.796875 4.609375,0.796875 1.796875,0 3.59375,-0.1875 5,-0.53125 z M 51.40625,59.34375 c 0,-5.625 -2.703125,-13.796875 -9.203125,-17.40625 C 40.296875,42.546875 37.703125,43 35.5,43 c -2.09375,0 -8.09375,0.203125 -8.09375,-2.65625 0,-2.671875 5.5,-2.375 7.1875,-2.375 2.609375,0 4.90625,0.609375 7.3125,1.3125 C 45.09375,36.671875 46.5,33.234375 46.5,28.203125 46.5,22.359375 44.90625,17.625 43,13.28125 39.703125,5.828125 31.90625,1 25,1 17.703125,1 13.90625,6.84375 13.90625,13.6875 c 0,0.90625 0,2.21875 0.390625,3.734375 l 6.5,26.078125 C 24.09375,56.890625 32.5,68.953125 42.203125,68.953125 c 7.203125,0 9.203125,-5.109375 9.203125,-9.609375 z"
             id="CMMI12-12" />
          <path
             d="m 30.09375,11.859375 c -0.5,-1.6875 -0.5,-1.890625 -1.890625,-3.78125 C 26,5.28125 21.59375,1 16.90625,1 12.796875,1 10.5,4.6875 10.5,10.5625 c 0,5.5 3.09375,16.671875 5,20.859375 3.40625,6.984375 8.09375,10.5625 12,10.5625 6.59375,0 7.90625,-8.171875 7.90625,-8.96875 0,-0.09375 -0.3125,-1.390625 -0.40625,-1.59375 z M 36.5,37.40625 C 35.40625,40 32.703125,44 27.5,44 16.203125,44 4,29.421875 4,14.65625 4,4.78125 9.796875,-1 16.59375,-1 c 5.5,0 10.203125,4.28125 13,7.578125 C 30.59375,0.6875 35.296875,-1 38.296875,-1 c 3,0 5.40625,1.796875 7.203125,5.375 1.59375,3.375 3,9.453125 3,9.84375 0,0.5 -0.40625,0.90625 -1,0.90625 -0.90625,0 -1,-0.5 -1.40625,-2 C 44.59375,7.265625 42.703125,1 38.59375,1 35.703125,1 35.5,3.578125 35.5,5.5625 c 0,2.296875 0.296875,3.390625 1.203125,7.265625 0.703125,2.484375 1.203125,4.671875 2,7.5625 3.703125,14.921875 4.59375,18.5 4.59375,19.109375 0,1.390625 -1.09375,2.5 -2.59375,2.5 -3.203125,0 -4,-3.5 -4.203125,-4.6875 z"
             id="CMMI12-97" />
          <path
             d="M 47.40625,41 C 44.203125,40.390625 43,37.984375 43,36.09375 c 0,-2.40625 1.90625,-3.203125 3.296875,-3.203125 3,0 5.109375,2.59375 5.109375,5.296875 0,3.90625 -4.8125,5.8125 -9,5.8125 C 36.296875,44 32.90625,38.296875 32,36.390625 29.703125,43.59375 23.5,44 21.703125,44 11.5,44 6.09375,31.140625 6.09375,28.890625 c 0,-0.40625 0.40625,-0.921875 1.109375,-0.921875 0.796875,0 1,0.609375 1.203125,1.015625 3.390625,11.203125 10.09375,13 13,13 4.5,0 5.390625,-3.890625 5.390625,-6.296875 0,-2.203125 -0.59375,-4.546875 -1.796875,-9.46875 L 21.59375,12.15625 C 20.09375,6.09375 17.203125,1 11.90625,1 c -0.5,0 -3,0 -5.109375,0.96875 3.609375,0.625 4.40625,3.625 4.40625,4.828125 0,2 -1.5,3.203125 -3.40625,3.203125 -2.390625,0 -5,-2.109375 -5,-5.3125 C 2.796875,0.890625 7.5,-1 11.796875,-1 16.59375,-1 20,2.390625 22.09375,6.484375 23.703125,1 28.703125,-1 32.40625,-1 42.59375,-1 48,11.734375 48,14 c 0,0.515625 -0.40625,0.921875 -1,0.921875 -0.90625,0 -1,-0.515625 -1.296875,-1.328125 C 43,4.6875 37.203125,1 32.703125,1 c -3.5,0 -5.40625,2.1875 -5.40625,6.296875 0,2.1875 0.40625,3.828125 2,10.609375 l 3.5,13.953125 c 1.5,6.03125 4.90625,10.125 9.5,10.125 0.203125,0 3,0 5.109375,-0.984375 z"
             id="CMMI12-120" />
          <path
             d="m 23.09375,66.484375 c 0.109375,0.40625 0.3125,1 0.3125,1.5 C 23.40625,69 22.40625,69 22.203125,69 22.09375,69 18.5,68.6875 16.703125,68.484375 15,68.390625 13.5,68.1875 11.703125,68.09375 9.296875,67.890625 8.59375,67.796875 8.59375,65.984375 c 0,-1 1,-1 2,-1 5.109375,0 5.109375,-0.875 5.109375,-1.859375 0,-0.703125 -0.796875,-3.5625 -1.203125,-5.328125 l -2.40625,-9.46875 C 11.09375,44.390625 5.40625,21.75 5,19.953125 4.5,17.453125 4.5,15.75 4.5,14.453125 4.5,4.28125 10.203125,-1 16.703125,-1 28.296875,-1 40.296875,13.859375 40.296875,28.328125 40.296875,37.5 35.09375,44 27.59375,44 22.40625,44 17.703125,39.703125 15.796875,37.703125 Z M 16.796875,1 C 13.59375,1 10.09375,3.390625 10.09375,11.171875 c 0,3.28125 0.3125,5.1875 2.109375,12.171875 C 12.5,24.640625 14.09375,31.015625 14.5,32.3125 c 0.203125,0.796875 6.09375,9.671875 12.90625,9.671875 4.390625,0 6.390625,-4.375 6.390625,-9.5625 C 33.796875,27.625 31,16.359375 28.5,11.171875 26,5.78125 21.40625,1 16.796875,1 Z"
             id="CMMI12-98" />
        </defs>
        <use
           transform="scale(0.996264)"
           xlink:href="#CMMI12-14"
           id="use283"
           x="0"
           y="0"
           width="100%"
           height="100%" />
        <use
           transform="matrix(0.996264,0,0,0.996264,74.615395,0)"
           xlink:href="#CMR17-61"
           id="use285"
           x="0"
           y="0"
           width="100%"
           height="100%" />
        <use
           transform="matrix(0.996264,0,0,0.996264,174.00419,0)"
           xlink:href="#CMMI12-11"
           id="use287"
           x="0"
           y="0"
           width="100%"
           height="100%" />
        <use
           transform="matrix(0.996264,0,0,0.996264,258.82442,0)"
           xlink:href="#CMSY10-3"
           id="use289"
           x="0"
           y="0"
           width="100%"
           height="100%" />
        <use
           transform="matrix(0.996264,0,0,0.996264,330.77701,0)"
           xlink:href="#CMR17-40"
           id="use291"
           x="0"
           y="0"
           width="100%"
           height="100%" />
        <use
           transform="matrix(0.996264,0,0,0.996264,366.05778,0)"
           xlink:href="#CMMI12-26"
           id="use293"
           x="0"
           y="0"
           width="100%"
           height="100%" />
        <use
           transform="matrix(0.697382,0,0,0.697382,416.37215,-14.943915)"
           xlink:href="#CMR17-48"
           id="use295"
           x="0"
           y="0"
           width="100%"
           height="100%" />
        <use
           transform="matrix(0.996264,0,0,0.996264,470.99267,0)"
           xlink:href="#CMSY10-0"
           id="use297"
           x="0"
           y="0"
           width="100%"
           height="100%" />
        <use
           transform="matrix(0.996264,0,0,0.996264,570.61935,0)"
           xlink:href="#CMMI12-67"
           id="use299"
           x="0"
           y="0"
           width="100%"
           height="100%" />
        <use
           transform="matrix(0.996264,0,0,0.996264,647.56619,0)"
           xlink:href="#CMR17-41"
           id="use301"
           x="0"
           y="0"
           width="100%"
           height="100%" />
        <use
           transform="matrix(0.996264,0,0,0.996264,704.98617,0)"
           xlink:href="#CMR17-43"
           id="use303"
           x="0"
           y="0"
           width="100%"
           height="100%" />
        <use
           transform="matrix(0.996264,0,0,0.996264,798.84016,0)"
           xlink:href="#CMMI12-12"
           id="use305"
           x="0"
           y="0"
           width="100%"
           height="100%" />
        <use
           transform="matrix(0.996264,0,0,0.996264,887.10819,0)"
           xlink:href="#CMR17-61"
           id="use307"
           x="0"
           y="0"
           width="100%"
           height="100%" />
        <use
           transform="matrix(0.996264,0,0,0.996264,986.49699,0)"
           xlink:href="#CMMI12-97"
           id="use309"
           x="0"
           y="0"
           width="100%"
           height="100%" />
        <use
           transform="matrix(0.996264,0,0,0.996264,1037.7048,0)"
           xlink:href="#CMMI12-120"
           id="use311"
           x="0"
           y="0"
           width="100%"
           height="100%" />
        <use
           transform="matrix(0.996264,0,0,0.996264,1115.2781,0)"
           xlink:href="#CMR17-43"
           id="use313"
           x="0"
           y="0"
           width="100%"
           height="100%" />
        <use
           transform="matrix(0.996264,0,0,0.996264,1209.1321,0)"
           xlink:href="#CMMI12-98"
           id="use315"
           x="0"
           y="0"
           width="100%"
           height="100%" />
      </g>
      <!-- $ a = -0.32675$ -->
      <g
         style="fill:#262626"
         transform="matrix(0.1,0,0,-0.1,195.75043,46.384758)"
         id="g339">
        <use
           transform="scale(0.996264)"
           xlink:href="#CMMI12-97"
           id="use319"
           x="0"
           y="0"
           width="100%"
           height="100%" />
        <use
           transform="matrix(0.996264,0,0,0.996264,78.881866,0)"
           xlink:href="#CMR17-61"
           id="use321"
           x="0"
           y="0"
           width="100%"
           height="100%" />
        <use
           transform="matrix(0.996264,0,0,0.996264,178.27066,0)"
           xlink:href="#CMSY10-0"
           id="use323"
           x="0"
           y="0"
           width="100%"
           height="100%" />
        <use
           transform="matrix(0.996264,0,0,0.996264,255.75813,0)"
           xlink:href="#CMR17-48"
           id="use325"
           x="0"
           y="0"
           width="100%"
           height="100%" />
        <use
           transform="matrix(0.996264,0,0,0.996264,301.44861,0)"
           xlink:href="#CMMI12-58"
           id="use327"
           x="0"
           y="0"
           width="100%"
           height="100%" />
        <use
           transform="matrix(0.996264,0,0,0.996264,328.54579,0)"
           xlink:href="#CMR17-51"
           id="use329"
           x="0"
           y="0"
           width="100%"
           height="100%" />
        <use
           transform="matrix(0.996264,0,0,0.996264,374.23626,0)"
           xlink:href="#CMR17-50"
           id="use331"
           x="0"
           y="0"
           width="100%"
           height="100%" />
        <use
           transform="matrix(0.996264,0,0,0.996264,419.92674,0)"
           xlink:href="#CMR17-54"
           id="use333"
           x="0"
           y="0"
           width="100%"
           height="100%" />
        <use
           transform="matrix(0.996264,0,0,0.996264,465.61722,0)"
           xlink:href="#CMR17-55"
           id="use335"
           x="0"
           y="0"
           width="100%"
           height="100%" />
        <use
           transform="matrix(0.996264,0,0,0.996264,511.30769,0)"
           xlink:href="#CMR17-53"
           id="use337"
           x="0"
           y="0"
           width="100%"
           height="100%" />
      </g>
      <!-- $ b = 4504.47640$ -->
      <g
         style="fill:#262626"
         transform="matrix(0.1,0,0,-0.1,189.54569,56.624134)"
         id="g365">
        <use
           transform="scale(0.996264)"
           xlink:href="#CMMI12-98"
           id="use341"
           x="0"
           y="0"
           width="100%"
           height="100%" />
        <use
           transform="matrix(0.996264,0,0,0.996264,69.149883,0)"
           xlink:href="#CMR17-61"
           id="use343"
           x="0"
           y="0"
           width="100%"
           height="100%" />
        <use
           transform="matrix(0.996264,0,0,0.996264,168.53868,0)"
           xlink:href="#CMR17-52"
           id="use345"
           x="0"
           y="0"
           width="100%"
           height="100%" />
        <use
           transform="matrix(0.996264,0,0,0.996264,214.22916,0)"
           xlink:href="#CMR17-53"
           id="use347"
           x="0"
           y="0"
           width="100%"
           height="100%" />
        <use
           transform="matrix(0.996264,0,0,0.996264,259.91963,0)"
           xlink:href="#CMR17-48"
           id="use349"
           x="0"
           y="0"
           width="100%"
           height="100%" />
        <use
           transform="matrix(0.996264,0,0,0.996264,305.61011,0)"
           xlink:href="#CMR17-52"
           id="use351"
           x="0"
           y="0"
           width="100%"
           height="100%" />
        <use
           transform="matrix(0.996264,0,0,0.996264,351.30059,0)"
           xlink:href="#CMMI12-58"
           id="use353"
           x="0"
           y="0"
           width="100%"
           height="100%" />
        <use
           transform="matrix(0.996264,0,0,0.996264,378.39777,0)"
           xlink:href="#CMR17-52"
           id="use355"
           x="0"
           y="0"
           width="100%"
           height="100%" />
        <use
           transform="matrix(0.996264,0,0,0.996264,424.08824,0)"
           xlink:href="#CMR17-55"
           id="use357"
           x="0"
           y="0"
           width="100%"
           height="100%" />
        <use
           transform="matrix(0.996264,0,0,0.996264,469.77872,0)"
           xlink:href="#CMR17-54"
           id="use359"
           x="0"
           y="0"
           width="100%"
           height="100%" />
        <use
           transform="matrix(0.996264,0,0,0.996264,515.4692,0)"
           xlink:href="#CMR17-52"
           id="use361"
           x="0"
           y="0"
           width="100%"
           height="100%" />
        <use
           transform="matrix(0.996264,0,0,0.996264,561.15967,0)"
           xlink:href="#CMR17-48"
           id="use363"
           x="0"
           y="0"
           width="100%"
           height="100%" />
      </g>
      <!-- $ R^2 = 0.969$ -->
      <g
         style="fill:#262626"
         transform="matrix(0.1,0,0,-0.1,206.61712,66.863511)"
         id="g387">
        <defs
           id="defs369">
          <path
             d="M 36.796875,61.203125 C 37.703125,64.890625 38.09375,65.09375 42,65.09375 h 7.203125 c 8.59375,0 15,-2.59375 15,-10.359375 C 64.203125,49.640625 61.59375,35 41.5,35 H 30.203125 Z m 13.90625,-27.40625 C 63.09375,36.484375 72.796875,44.46875 72.796875,53.03125 72.796875,60.8125 64.90625,68 51,68 H 23.90625 C 21.90625,68 21,68 21,66.09375 c 0,-1 0.703125,-1 2.59375,-1 6,0 6,-0.796875 6,-1.890625 0,-0.203125 0,-0.796875 -0.390625,-2.296875 l -13.5,-53.484375 c -0.90625,-3.46875 -1.109375,-4.453125 -8,-4.453125 -2.296875,0 -3,0 -3,-1.890625 0,-0.984375 1.09375,-0.984375 1.390625,-0.984375 1.8125,0 3.90625,0.203125 5.8125,0.203125 h 11.796875 c 1.796875,0 3.890625,-0.203125 5.703125,-0.203125 0.796875,0 1.890625,0 1.890625,1.875 0,1 -0.890625,1 -2.390625,1 -6.109375,0 -6.109375,0.796875 -6.109375,1.78125 0,0.09375 0,0.796875 0.203125,1.578125 L 29.703125,33 h 12 C 51.203125,33 53,27.046875 53,23.78125 c 0,-1.5 -1,-5.359375 -1.703125,-7.9375 C 50.203125,11.296875 49.90625,10.203125 49.90625,8.3125 49.90625,1.28125 55.703125,-2 62.40625,-2 70.5,-2 74,7.828125 74,9.203125 c 0,0.703125 -0.5,1 -1.09375,1 -0.8125,0 -1,-0.59375 -1.203125,-1.390625 -2.40625,-7.03125 -6.5,-8.8125 -9,-8.8125 -2.5,0 -4.109375,1.078125 -4.109375,5.546875 0,2.375 1.203125,11.390625 1.3125,11.890625 0.5,3.65625 0.5,4.0625 0.5,4.84375 0,7.234375 -5.90625,10.3125 -9.703125,11.515625 z"
             id="CMMI12-82" />
          <path
             d="M 35.203125,29.234375 C 35.203125,7 26.09375,0.390625 18.59375,0.390625 c -2.296875,0 -7.890625,0.28125 -10.1875,4 2.59375,-0.390625 4.5,1 4.5,3.5 C 12.90625,10.59375 10.703125,11.5 9.296875,11.5 8.40625,11.5 5.703125,11.09375 5.703125,7.6875 5.703125,1.0625 11.59375,-2 18.796875,-2 30.296875,-2 42,10.390625 42,32.65625 42,60.265625 30.796875,66 23.203125,66 13.296875,66 3.796875,57.25 3.796875,43.75 3.796875,31.25 11.90625,22 22.09375,22 30.5,22 34.203125,29.84375 35.203125,33.15625 Z M 22.296875,23.59375 c -2.703125,0 -6.5,0.5 -9.59375,6.546875 -2.109375,3.9375 -2.109375,8.5625 -2.109375,13.5 0,5.953125 0,10.078125 2.8125,14.515625 1.390625,2.109375 4,5.53125 9.796875,5.53125 C 35,63.6875 35,45.453125 35,41.421875 35,34.265625 31.796875,23.59375 22.296875,23.59375 Z"
             id="CMR17-57" />
        </defs>
        <use
           transform="scale(0.996264)"
           xlink:href="#CMMI12-82"
           id="use371"
           x="0"
           y="0"
           width="100%"
           height="100%" />
        <use
           transform="matrix(0.697382,0,0,0.697382,75.070962,36.153639)"
           xlink:href="#CMR17-50"
           id="use373"
           x="0"
           y="0"
           width="100%"
           height="100%" />
        <use
           transform="matrix(0.996264,0,0,0.996264,135.22628,0)"
           xlink:href="#CMR17-61"
           id="use375"
           x="0"
           y="0"
           width="100%"
           height="100%" />
        <use
           transform="matrix(0.996264,0,0,0.996264,234.61508,0)"
           xlink:href="#CMR17-48"
           id="use377"
           x="0"
           y="0"
           width="100%"
           height="100%" />
        <use
           transform="matrix(0.996264,0,0,0.996264,280.30556,0)"
           xlink:href="#CMMI12-58"
           id="use379"
           x="0"
           y="0"
           width="100%"
           height="100%" />
        <use
           transform="matrix(0.996264,0,0,0.996264,307.40274,0)"
           xlink:href="#CMR17-57"
           id="use381"
           x="0"
           y="0"
           width="100%"
           height="100%" />
        <use
           transform="matrix(0.996264,0,0,0.996264,353.09321,0)"
           xlink:href="#CMR17-54"
           id="use383"
           x="0"
           y="0"
           width="100%"
           height="100%" />
        <use
           transform="matrix(0.996264,0,0,0.996264,398.78369,0)"
           xlink:href="#CMR17-57"
           id="use385"
           x="0"
           y="0"
           width="100%"
           height="100%" />
      </g>
    </g>
    <g
       id="PathCollection_1">
      <defs
         id="defs395">
        <path
           d="M -1.5,3 0,1.5 1.5,3 3,1.5 1.5,0 3,-1.5 1.5,-3 0,-1.5 -1.5,-3 -3,-1.5 -1.5,0 -3,1.5 Z"
           id="m4636cbaaa0"
           style="stroke:#ffffff;stroke-width:0.48" />
      </defs>
      <g
         clip-path="url(#p631567b55a)"
         id="g443">
        <use
           style="fill:#1f77b4;stroke:#ffffff;stroke-width:0.48"
           x="106.55862"
           xlink:href="#m4636cbaaa0"
           y="51.108166"
           id="use397"
           width="100%"
           height="100%" />
        <use
           style="fill:#1f77b4;stroke:#ffffff;stroke-width:0.48"
           x="179.9742"
           xlink:href="#m4636cbaaa0"
           y="107.59704"
           id="use399"
           width="100%"
           height="100%" />
        <use
           style="fill:#1f77b4;stroke:#ffffff;stroke-width:0.48"
           x="71.762657"
           xlink:href="#m4636cbaaa0"
           y="24.091749"
           id="use401"
           width="100%"
           height="100%" />
        <use
           style="fill:#1f77b4;stroke:#ffffff;stroke-width:0.48"
           x="106.59177"
           xlink:href="#m4636cbaaa0"
           y="41.898022"
           id="use403"
           width="100%"
           height="100%" />
        <use
           style="fill:#1f77b4;stroke:#ffffff;stroke-width:0.48"
           x="146.41376"
           xlink:href="#m4636cbaaa0"
           y="71.984489"
           id="use405"
           width="100%"
           height="100%" />
        <use
           style="fill:#1f77b4;stroke:#ffffff;stroke-width:0.48"
           x="155.4689"
           xlink:href="#m4636cbaaa0"
           y="88.562744"
           id="use407"
           width="100%"
           height="100%" />
        <use
           style="fill:#1f77b4;stroke:#ffffff;stroke-width:0.48"
           x="153.25604"
           xlink:href="#m4636cbaaa0"
           y="94.702835"
           id="use409"
           width="100%"
           height="100%" />
        <use
           style="fill:#1f77b4;stroke:#ffffff;stroke-width:0.48"
           x="187.23694"
           xlink:href="#m4636cbaaa0"
           y="114.35114"
           id="use411"
           width="100%"
           height="100%" />
        <use
           style="fill:#1f77b4;stroke:#ffffff;stroke-width:0.48"
           x="135.00035"
           xlink:href="#m4636cbaaa0"
           y="76.896561"
           id="use413"
           width="100%"
           height="100%" />
        <use
           style="fill:#1f77b4;stroke:#ffffff;stroke-width:0.48"
           x="135.8114"
           xlink:href="#m4636cbaaa0"
           y="75.054535"
           id="use415"
           width="100%"
           height="100%" />
        <use
           style="fill:#1f77b4;stroke:#ffffff;stroke-width:0.48"
           x="163.08414"
           xlink:href="#m4636cbaaa0"
           y="97.158875"
           id="use417"
           width="100%"
           height="100%" />
        <use
           style="fill:#1f77b4;stroke:#ffffff;stroke-width:0.48"
           x="161.61464"
           xlink:href="#m4636cbaaa0"
           y="94.088829"
           id="use419"
           width="100%"
           height="100%" />
        <use
           style="fill:#1f77b4;stroke:#ffffff;stroke-width:0.48"
           x="121.07907"
           xlink:href="#m4636cbaaa0"
           y="65.230385"
           id="use421"
           width="100%"
           height="100%" />
        <use
           style="fill:#1f77b4;stroke:#ffffff;stroke-width:0.48"
           x="146.43297"
           xlink:href="#m4636cbaaa0"
           y="81.80864"
           id="use423"
           width="100%"
           height="100%" />
        <use
           style="fill:#1f77b4;stroke:#ffffff;stroke-width:0.48"
           x="182.1326"
           xlink:href="#m4636cbaaa0"
           y="107.59704"
           id="use425"
           width="100%"
           height="100%" />
        <use
           style="fill:#1f77b4;stroke:#ffffff;stroke-width:0.48"
           x="184.81447"
           xlink:href="#m4636cbaaa0"
           y="101.45694"
           id="use427"
           width="100%"
           height="100%" />
        <use
           style="fill:#1f77b4;stroke:#ffffff;stroke-width:0.48"
           x="171.06995"
           xlink:href="#m4636cbaaa0"
           y="95.930855"
           id="use429"
           width="100%"
           height="100%" />
        <use
           style="fill:#1f77b4;stroke:#ffffff;stroke-width:0.48"
           x="257.6788"
           xlink:href="#m4636cbaaa0"
           y="159.78784"
           id="use431"
           width="100%"
           height="100%" />
        <use
           style="fill:#1f77b4;stroke:#ffffff;stroke-width:0.48"
           x="194.66922"
           xlink:href="#m4636cbaaa0"
           y="106.36902"
           id="use433"
           width="100%"
           height="100%" />
        <use
           style="fill:#1f77b4;stroke:#ffffff;stroke-width:0.48"
           x="176.16164"
           xlink:href="#m4636cbaaa0"
           y="103.91298"
           id="use435"
           width="100%"
           height="100%" />
        <use
           style="fill:#1f77b4;stroke:#ffffff;stroke-width:0.48"
           x="159.18683"
           xlink:href="#m4636cbaaa0"
           y="86.106705"
           id="use437"
           width="100%"
           height="100%" />
        <use
           style="fill:#1f77b4;stroke:#ffffff;stroke-width:0.48"
           x="151.88727"
           xlink:href="#m4636cbaaa0"
           y="85.492699"
           id="use439"
           width="100%"
           height="100%" />
        <use
           style="fill:#1f77b4;stroke:#ffffff;stroke-width:0.48"
           x="146.06702"
           xlink:href="#m4636cbaaa0"
           y="79.3526"
           id="use441"
           width="100%"
           height="100%" />
      </g>
    </g>
  </g>
  <defs
     id="defs451">
    <clipPath
       id="p631567b55a">
      <rect
         height="163.62418"
         width="224.95854"
         x="52.241463"
         y="11.757501"
         id="rect448" />
    </clipPath>
  </defs>
</svg>
