<?xml version="1.0" encoding="utf-8" standalone="no"?>
<!DOCTYPE svg PUBLIC "-//W3C//DTD SVG 1.1//EN"
  "http://www.w3.org/Graphics/SVG/1.1/DTD/svg11.dtd">
<!-- Created with matplotlib (https://matplotlib.org/) -->
<svg height="216pt" version="1.1" viewBox="0 0 216 216" width="216pt" xmlns="http://www.w3.org/2000/svg" xmlns:xlink="http://www.w3.org/1999/xlink">
 <metadata>
  <rdf:RDF xmlns:cc="http://creativecommons.org/ns#" xmlns:dc="http://purl.org/dc/elements/1.1/" xmlns:rdf="http://www.w3.org/1999/02/22-rdf-syntax-ns#">
   <cc:Work>
    <dc:type rdf:resource="http://purl.org/dc/dcmitype/StillImage"/>
    <dc:date>2022-04-12T15:54:09.152982</dc:date>
    <dc:format>image/svg+xml</dc:format>
    <dc:creator>
     <cc:Agent>
      <dc:title>Matplotlib v3.3.4, https://matplotlib.org/</dc:title>
     </cc:Agent>
    </dc:creator>
   </cc:Work>
  </rdf:RDF>
 </metadata>
 <defs>
  <style type="text/css">*{stroke-linecap:butt;stroke-linejoin:round;}</style>
 </defs>
 <g id="figure_1">
  <g id="patch_1">
   <path d="M 0 216 
L 216 216 
L 216 0 
L 0 0 
z
" style="fill:#ffffff;"/>
  </g>
  <g id="axes_1">
   <g id="patch_2">
    <path d="M 41.725311 186.870264 
L 205.2 186.870264 
L 205.2 14.259249 
L 41.725311 14.259249 
z
" style="fill:#ffffff;"/>
   </g>
   <g id="line2d_1">
    <path clip-path="url(#ped0c37a63b)" d="M 105.236489 71.353662 
L 65.980132 111.613521 
" style="fill:none;stroke:#6495ed;stroke-linecap:round;stroke-width:0.5;"/>
   </g>
   <g id="line2d_2">
    <path clip-path="url(#ped0c37a63b)" d="M 105.236489 66.706442 
L 85.60831 100.616208 
" style="fill:none;stroke:#cd5c5c;stroke-linecap:round;stroke-width:0.5;"/>
   </g>
   <g id="line2d_3">
    <path clip-path="url(#ped0c37a63b)" d="M 141.688821 71.353662 
L 161.317 83.647217 
" style="fill:none;stroke:#6495ed;stroke-linecap:round;stroke-width:0.5;"/>
   </g>
   <g id="line2d_4">
    <path clip-path="url(#ped0c37a63b)" d="M 141.688821 71.353662 
L 180.945179 77.612471 
" style="fill:none;stroke:#cd5c5c;stroke-linecap:round;stroke-width:0.5;"/>
   </g>
   <g id="matplotlib.axis_1">
    <g id="xtick_1">
     <g id="text_1">
      <!-- \fe{X}{1-} -->
      <g style="fill:#262626;" transform="translate(41.561537 202.70934)scale(0.1 -0.1)">
       <defs>
        <path d="M 23.5 -25 
L 23.5 -21.5 
L 14.09375 -21.5 
L 14.09375 71.484375 
L 23.5 71.484375 
L 23.5 75 
L 10.59375 75 
L 10.59375 -25 
z
" id="CMR17-91"/>
        <path d="M 54.40625 67.796875 
L 5.09375 67.796875 
L 5.09375 65.1875 
C 12 65.1875 13.09375 65.1875 13.09375 60.671875 
L 13.09375 7.03125 
C 13.09375 2.59375 12 2.59375 5.09375 2.59375 
L 5.09375 0 
C 8 0.1875 13.59375 0.1875 16.703125 0.1875 
C 20.796875 0.1875 25.59375 0.1875 29.703125 0 
L 29.703125 2.59375 
L 27.5 2.59375 
C 19.90625 2.59375 19.703125 3.578125 19.703125 7.125 
L 19.703125 32.390625 
L 28.703125 32.390625 
C 38 32.390625 38.90625 29.140625 38.90625 20.84375 
L 40.703125 20.84375 
L 40.703125 46.734375 
L 38.90625 46.734375 
C 38.90625 38.296875 38 35 28.703125 35 
L 19.703125 35 
L 19.703125 61.28125 
C 19.703125 64.6875 19.90625 65.1875 23.90625 65.1875 
L 36.796875 65.1875 
C 51.90625 65.1875 53.59375 58.96875 55 45.625 
L 56.796875 45.625 
z
" id="CMR17-70"/>
        <path d="M 38.09375 23.484375 
C 38.5 23.890625 38.5 24.09375 38.5 25.09375 
C 38.5 35.171875 33.09375 44 21.703125 44 
C 11.09375 44 2.703125 33.984375 2.703125 21.78125 
C 2.703125 8.65625 12.203125 -1 22.796875 -1 
C 34 -1 38.40625 9.671875 38.40625 11.796875 
C 38.40625 12.5 37.796875 12.5 37.59375 12.5 
C 36.90625 12.5 36.796875 12.296875 36.40625 11.078125 
C 34.203125 4.21875 28.703125 0.796875 23.5 0.796875 
C 19.203125 0.796875 14.90625 3.21875 12.203125 7.65625 
C 9.09375 12.796875 9.09375 18.75 9.09375 23.484375 
z
M 9.203125 25 
C 9.90625 39.234375 17.59375 42.390625 21.59375 42.390625 
C 28.40625 42.390625 33 36.0625 33.09375 25 
z
" id="CMR17-101"/>
        <path d="M 30.59375 -24.40625 
C 30.59375 -24.3125 30.59375 -24.109375 30.296875 -23.8125 
C 25.703125 -19.109375 13.40625 -6.296875 13.40625 24.9375 
C 13.40625 56.171875 25.5 68.875 30.40625 73.890625 
C 30.40625 73.984375 30.59375 74.1875 30.59375 74.484375 
C 30.59375 74.796875 30.296875 75 29.90625 75 
C 28.796875 75 20.296875 67.578125 15.40625 56.5625 
C 10.40625 45.453125 9 34.65625 9 25.046875 
C 9 17.828125 9.703125 5.625 15.703125 -7.296875 
C 20.5 -17.703125 28.703125 -25 29.90625 -25 
C 30.40625 -25 30.59375 -24.8125 30.59375 -24.40625 
z
" id="CMR17-40"/>
        <path d="M 36.5 37.71875 
L 51.296875 58.921875 
C 52.796875 61.015625 55.796875 65.28125 64 65.390625 
L 64 68 
C 61.703125 67.796875 57.90625 67.796875 55.5 67.796875 
C 52.203125 67.796875 48.09375 67.796875 45.59375 68 
L 45.59375 65.390625 
C 48.796875 65.09375 49.59375 63.09375 49.59375 61.5 
C 49.59375 60.3125 49.09375 59.515625 48.40625 58.515625 
L 35.203125 39.515625 
L 20.40625 61.015625 
C 19.703125 62.109375 19.59375 62.40625 19.59375 62.703125 
C 19.59375 63.59375 20.703125 65.28125 24 65.390625 
L 24 68 
C 20.796875 67.796875 15.90625 67.796875 12.59375 67.796875 
C 10 67.796875 5 67.796875 2.59375 68 
L 2.59375 65.390625 
C 8.09375 65.390625 9.90625 65.1875 12.09375 62.109375 
L 31.40625 34.046875 
L 14 8.859375 
C 9.703125 2.6875 3.203125 2.59375 1.296875 2.59375 
L 1.296875 0 
C 3.59375 0.1875 7.40625 0.1875 9.796875 0.1875 
C 12.5 0.1875 17.203125 0.1875 19.703125 0 
L 19.703125 2.59375 
C 16.59375 2.890625 15.703125 4.875 15.703125 6.46875 
C 15.703125 7.765625 16.203125 8.46875 16.703125 9.15625 
L 32.703125 32.25 
L 50.09375 6.96875 
C 50.90625 5.875 50.90625 5.578125 50.90625 5.28125 
C 50.90625 4.484375 50 2.796875 46.5 2.59375 
L 46.5 0 
C 49.703125 0.1875 54.59375 0.1875 57.90625 0.1875 
C 60.5 0.1875 65.5 0.1875 67.90625 0 
L 67.90625 2.59375 
C 61.5 2.59375 60.5 3.09375 58.5 5.875 
z
" id="CMR17-88"/>
        <path d="M 56.09375 60.90625 
C 56.09375 65.390625 57.203125 65.390625 64.09375 65.390625 
L 64.09375 68 
C 61.203125 67.796875 55.90625 67.796875 52.796875 67.796875 
C 49.703125 67.796875 44.40625 67.796875 41.5 68 
L 41.5 65.390625 
C 48.40625 65.390625 49.5 65.390625 49.5 60.90625 
L 49.5 36.59375 
L 19.703125 36.59375 
L 19.703125 60.90625 
C 19.703125 65.390625 20.796875 65.390625 27.703125 65.390625 
L 27.703125 68 
C 24.796875 67.796875 19.5 67.796875 16.40625 67.796875 
C 13.296875 67.796875 8 67.796875 5.09375 68 
L 5.09375 65.390625 
C 12 65.390625 13.09375 65.390625 13.09375 60.90625 
L 13.09375 7.0625 
C 13.09375 2.59375 12 2.59375 5.09375 2.59375 
L 5.09375 0 
C 8 0.1875 13.296875 0.1875 16.40625 0.1875 
C 19.5 0.1875 24.796875 0.1875 27.703125 0 
L 27.703125 2.59375 
C 20.796875 2.59375 19.703125 2.59375 19.703125 7.0625 
L 19.703125 34 
L 49.5 34 
L 49.5 7.0625 
C 49.5 2.59375 48.40625 2.59375 41.5 2.59375 
L 41.5 0 
C 44.40625 0.1875 49.703125 0.1875 52.796875 0.1875 
C 55.90625 0.1875 61.203125 0.1875 64.09375 0 
L 64.09375 2.59375 
C 57.203125 2.59375 56.09375 2.59375 56.09375 7.0625 
z
" id="CMR17-72"/>
        <path d="M 26.296875 24.9375 
C 26.296875 32.140625 25.59375 44.359375 19.59375 57.265625 
C 14.796875 67.6875 6.59375 75 5.40625 75 
C 5.09375 75 4.703125 74.890625 4.703125 74.390625 
C 4.703125 74.1875 4.796875 74.09375 4.90625 73.890625 
C 9.703125 68.875 21.90625 56.171875 21.90625 25.046875 
C 21.90625 -6.1875 9.796875 -18.90625 4.90625 -23.90625 
C 4.796875 -24.109375 4.703125 -24.203125 4.703125 -24.40625 
C 4.703125 -24.90625 5.09375 -25 5.40625 -25 
C 6.5 -25 15 -17.609375 19.90625 -6.59375 
C 24.90625 4.515625 26.296875 15.328125 26.296875 24.9375 
z
" id="CMR17-41"/>
        <path d="M 33.59375 64.796875 
C 33.59375 66.890625 33.5 67 31.703125 67 
L 2 19.59375 
L 2 17 
L 27.796875 17 
L 27.796875 7.1875 
C 27.796875 3.59375 27.59375 2.59375 20.59375 2.59375 
L 18.703125 2.59375 
L 18.703125 0 
C 21.90625 0.1875 27.296875 0.1875 30.703125 0.1875 
C 34.09375 0.1875 39.5 0.1875 42.703125 0 
L 42.703125 2.59375 
L 40.796875 2.59375 
C 33.796875 2.59375 33.59375 3.59375 33.59375 7.1875 
L 33.59375 17 
L 43.796875 17 
L 43.796875 19.59375 
L 33.59375 19.59375 
z
M 28.09375 58.171875 
L 28.09375 19.59375 
L 4 19.59375 
z
" id="CMR17-52"/>
        <path d="M 14.296875 75 
L 1.40625 75 
L 1.40625 71.484375 
L 10.796875 71.484375 
L 10.796875 -21.5 
L 1.40625 -21.5 
L 1.40625 -25 
L 14.296875 -25 
z
" id="CMR17-93"/>
        <path d="M 26.59375 63.796875 
C 26.59375 65.890625 26.5 66 25.09375 66 
C 21.203125 61.359375 15.296875 59.890625 9.703125 59.6875 
C 9.40625 59.6875 8.90625 59.6875 8.796875 59.5 
C 8.703125 59.296875 8.703125 59.09375 8.703125 57 
C 11.796875 57 17 57.59375 21 59.984375 
L 21 7.296875 
C 21 3.796875 20.796875 2.59375 12.203125 2.59375 
L 9.203125 2.59375 
L 9.203125 0 
C 14 0.09375 19 0.1875 23.796875 0.1875 
C 28.59375 0.1875 33.59375 0.09375 38.40625 0 
L 38.40625 2.59375 
L 35.40625 2.59375 
C 26.796875 2.59375 26.59375 3.6875 26.59375 7.296875 
z
" id="CMR17-49"/>
        <path d="M 46.40625 26 
L 46.40625 27.59375 
L -0.609375 27.59375 
L -0.609375 26 
z
" id="CMR17-123"/>
       </defs>
       <use transform="scale(0.996264)" xlink:href="#CMR17-91"/>
       <use transform="translate(24.871058 0)scale(0.996264)" xlink:href="#CMR17-70"/>
       <use transform="translate(77.04765 0)scale(0.996264)" xlink:href="#CMR17-101"/>
       <use transform="translate(117.53331 0)scale(0.996264)" xlink:href="#CMR17-40"/>
       <use transform="translate(152.814078 0)scale(0.996264)" xlink:href="#CMR17-88"/>
       <use transform="translate(221.886508 0)scale(0.996264)" xlink:href="#CMR17-72"/>
       <use transform="translate(290.958938 0)scale(0.996264)" xlink:href="#CMR17-41"/>
       <use transform="translate(326.239705 -14.943915)scale(0.697382)" xlink:href="#CMR17-52"/>
       <use transform="translate(358.721019 0)scale(0.996264)" xlink:href="#CMR17-93"/>
       <use transform="translate(383.592078 41.137482)scale(0.697382)" xlink:href="#CMR17-49"/>
       <use transform="translate(424.581845 41.137482)scale(0.697382)" xlink:href="#CMR17-123"/>
      </g>
     </g>
    </g>
    <g id="xtick_2">
     <g id="text_2">
      <!-- \ce{XH^-} -->
      <g style="fill:#262626;" transform="translate(113.554643 200.788762)scale(0.1 -0.1)">
       <use transform="scale(0.996264)" xlink:href="#CMR17-88"/>
       <use transform="translate(69.07243 0)scale(0.996264)" xlink:href="#CMR17-72"/>
       <use transform="translate(147.151444 41.137482)scale(0.697382)" xlink:href="#CMR17-123"/>
      </g>
     </g>
    </g>
    <g id="xtick_3">
     <g id="text_3">
      <!-- \fe{X}{2-} -->
      <g style="fill:#262626;" transform="translate(153.722559 202.70934)scale(0.1 -0.1)">
       <defs>
        <path d="M 41.703125 15.46875 
L 39.90625 15.46875 
C 38.90625 8.390625 38.09375 7.1875 37.703125 6.59375 
C 37.203125 5.796875 30 5.796875 28.59375 5.796875 
L 9.40625 5.796875 
C 13 9.6875 20 16.765625 28.5 24.9375 
C 34.59375 30.71875 41.703125 37.5 41.703125 47.390625 
C 41.703125 59.1875 32.296875 66 21.796875 66 
C 10.796875 66 4.09375 56.296875 4.09375 47.296875 
C 4.09375 43.390625 7 42.890625 8.203125 42.890625 
C 9.203125 42.890625 12.203125 43.484375 12.203125 46.984375 
C 12.203125 50.09375 9.59375 51 8.203125 51 
C 7.59375 51 7 50.890625 6.59375 50.6875 
C 8.5 59.1875 14.296875 63.390625 20.40625 63.390625 
C 29.09375 63.390625 34.796875 56.5 34.796875 47.390625 
C 34.796875 38.703125 29.703125 31.21875 24 24.734375 
L 4.09375 2.296875 
L 4.09375 0 
L 39.296875 0 
z
" id="CMR17-50"/>
       </defs>
       <use transform="scale(0.996264)" xlink:href="#CMR17-91"/>
       <use transform="translate(24.871058 0)scale(0.996264)" xlink:href="#CMR17-70"/>
       <use transform="translate(77.04765 0)scale(0.996264)" xlink:href="#CMR17-101"/>
       <use transform="translate(117.53331 0)scale(0.996264)" xlink:href="#CMR17-40"/>
       <use transform="translate(152.814078 0)scale(0.996264)" xlink:href="#CMR17-88"/>
       <use transform="translate(221.886508 0)scale(0.996264)" xlink:href="#CMR17-72"/>
       <use transform="translate(290.958938 0)scale(0.996264)" xlink:href="#CMR17-41"/>
       <use transform="translate(326.239705 -14.943915)scale(0.697382)" xlink:href="#CMR17-52"/>
       <use transform="translate(358.721019 0)scale(0.996264)" xlink:href="#CMR17-93"/>
       <use transform="translate(383.592078 41.137482)scale(0.697382)" xlink:href="#CMR17-50"/>
       <use transform="translate(424.581845 41.137482)scale(0.697382)" xlink:href="#CMR17-123"/>
      </g>
     </g>
    </g>
   </g>
   <g id="matplotlib.axis_2">
    <g id="ytick_1">
     <g id="text_4">
      <!-- $\mathdefault{6}$ -->
      <g style="fill:#262626;" transform="translate(29.743975 17.718498)scale(0.1 -0.1)">
       <defs>
        <path d="M 10.59375 34.34375 
C 10.59375 58 21.796875 63.6875 28.296875 63.6875 
C 30.40625 63.6875 35.5 63.265625 37.5 59.09375 
C 35.90625 59.09375 32.90625 59.09375 32.90625 55.59375 
C 32.90625 52.890625 35.09375 52 36.5 52 
C 37.40625 52 40.09375 52.390625 40.09375 55.796875 
C 40.09375 62.296875 35.09375 66 28.203125 66 
C 16.296875 66 3.796875 53.296875 3.796875 31.421875 
C 3.796875 4.015625 15.09375 -2 23.09375 -2 
C 32.796875 -2 42 6.734375 42 20.234375 
C 42 32.828125 33.90625 42 23.703125 42 
C 17.59375 42 13.09375 37.96875 10.59375 30.921875 
z
M 23.09375 0.390625 
C 10.796875 0.390625 10.796875 18.9375 10.796875 22.65625 
C 10.796875 29.90625 14.203125 40.390625 23.5 40.390625 
C 25.203125 40.390625 30.09375 40.390625 33.40625 33.4375 
C 35.203125 29.515625 35.203125 25.375 35.203125 20.34375 
C 35.203125 14.90625 35.203125 10.875 33.09375 6.84375 
C 30.90625 2.703125 27.703125 0.390625 23.09375 0.390625 
z
" id="CMR17-54"/>
       </defs>
       <use transform="scale(0.996264)" xlink:href="#CMR17-54"/>
      </g>
     </g>
    </g>
    <g id="ytick_2">
     <g id="text_5">
      <!-- $\mathdefault{7}$ -->
      <g style="fill:#262626;" transform="translate(29.743975 44.274039)scale(0.1 -0.1)">
       <defs>
        <path d="M 45.09375 61.796875 
L 45.09375 64 
L 21.59375 64 
C 9.90625 64 9.703125 65.09375 9.296875 67 
L 7.5 67 
L 4.59375 48.5 
L 6.40625 48.5 
C 6.703125 50.40625 7.40625 55.5 8.59375 57.390625 
C 9.203125 58.1875 16.59375 58.1875 18.296875 58.1875 
L 40.296875 58.1875 
L 29.203125 41.71875 
C 21.796875 30.640625 16.703125 15.671875 16.703125 2.59375 
C 16.703125 1.390625 16.703125 -2 20.296875 -2 
C 23.90625 -2 23.90625 1.390625 23.90625 2.6875 
L 23.90625 7.28125 
C 23.90625 23.65625 26.703125 34.4375 31.296875 41.3125 
z
" id="CMR17-55"/>
       </defs>
       <use transform="scale(0.996264)" xlink:href="#CMR17-55"/>
      </g>
     </g>
    </g>
    <g id="ytick_3">
     <g id="text_6">
      <!-- $\mathdefault{8}$ -->
      <g style="fill:#262626;" transform="translate(29.743975 70.82958)scale(0.1 -0.1)">
       <defs>
        <path d="M 27.203125 35.765625 
C 33.5 38.96875 39.90625 43.796875 39.90625 51.53125 
C 39.90625 60.6875 31.09375 66 23 66 
C 13.90625 66 5.90625 59.375 5.90625 50.234375 
C 5.90625 47.71875 6.5 43.390625 10.40625 39.578125 
C 11.40625 38.578125 15.59375 35.5625 18.296875 33.65625 
C 13.796875 31.34375 3.296875 25.8125 3.296875 14.765625 
C 3.296875 4.40625 13.09375 -2 22.796875 -2 
C 33.5 -2 42.5 5.71875 42.5 15.96875 
C 42.5 25.109375 36.40625 29.328125 32.40625 32.046875 
z
M 14.09375 44.609375 
C 13.296875 45.109375 9.296875 48.21875 9.296875 52.9375 
C 9.296875 59.078125 15.59375 63.6875 22.796875 63.6875 
C 30.703125 63.6875 36.5 58.0625 36.5 51.53125 
C 36.5 42.1875 26.09375 36.859375 25.59375 36.859375 
C 25.5 36.859375 25.40625 36.859375 24.59375 37.46875 
z
M 32.5 24 
C 34 22.90625 38.796875 19.578125 38.796875 13.453125 
C 38.796875 6.015625 31.40625 0.390625 23 0.390625 
C 13.90625 0.390625 7 6.921875 7 14.859375 
C 7 22.796875 13.09375 29.4375 20 32.546875 
z
" id="CMR17-56"/>
       </defs>
       <use transform="scale(0.996264)" xlink:href="#CMR17-56"/>
      </g>
     </g>
    </g>
    <g id="ytick_4">
     <g id="text_7">
      <!-- $\mathdefault{9}$ -->
      <g style="fill:#262626;" transform="translate(29.743975 97.38512)scale(0.1 -0.1)">
       <defs>
        <path d="M 35.203125 29.234375 
C 35.203125 7 26.09375 0.390625 18.59375 0.390625 
C 16.296875 0.390625 10.703125 0.671875 8.40625 4.390625 
C 11 4 12.90625 5.390625 12.90625 7.890625 
C 12.90625 10.59375 10.703125 11.5 9.296875 11.5 
C 8.40625 11.5 5.703125 11.09375 5.703125 7.6875 
C 5.703125 1.0625 11.59375 -2 18.796875 -2 
C 30.296875 -2 42 10.390625 42 32.65625 
C 42 60.265625 30.796875 66 23.203125 66 
C 13.296875 66 3.796875 57.25 3.796875 43.75 
C 3.796875 31.25 11.90625 22 22.09375 22 
C 30.5 22 34.203125 29.84375 35.203125 33.15625 
z
M 22.296875 23.59375 
C 19.59375 23.59375 15.796875 24.09375 12.703125 30.140625 
C 10.59375 34.078125 10.59375 38.703125 10.59375 43.640625 
C 10.59375 49.59375 10.59375 53.71875 13.40625 58.15625 
C 14.796875 60.265625 17.40625 63.6875 23.203125 63.6875 
C 35 63.6875 35 45.453125 35 41.421875 
C 35 34.265625 31.796875 23.59375 22.296875 23.59375 
z
" id="CMR17-57"/>
       </defs>
       <use transform="scale(0.996264)" xlink:href="#CMR17-57"/>
      </g>
     </g>
    </g>
    <g id="ytick_5">
     <g id="text_8">
      <!-- $\mathdefault{10}$ -->
      <g style="fill:#262626;" transform="translate(24.76264 123.940661)scale(0.1 -0.1)">
       <defs>
        <path d="M 42 31.84375 
C 42 37.96875 41.90625 48.421875 37.703125 56.453125 
C 34 63.484375 28.09375 66 22.90625 66 
C 18.09375 66 12 63.78125 8.203125 56.5625 
C 4.203125 49.015625 3.796875 39.671875 3.796875 31.84375 
C 3.796875 26.109375 3.90625 17.375 7 9.734375 
C 11.296875 -0.609375 19 -2 22.90625 -2 
C 27.5 -2 34.5 -0.109375 38.59375 9.4375 
C 41.59375 16.375 42 24.5 42 31.84375 
z
M 22.90625 -0.40625 
C 16.5 -0.40625 12.703125 5.125 11.296875 12.75 
C 10.203125 18.6875 10.203125 27.328125 10.203125 32.953125 
C 10.203125 40.6875 10.203125 47.109375 11.5 53.234375 
C 13.40625 61.78125 19 64.390625 22.90625 64.390625 
C 27 64.390625 32.296875 61.671875 34.203125 53.4375 
C 35.5 47.71875 35.59375 40.984375 35.59375 32.953125 
C 35.59375 26.421875 35.59375 18.375 34.40625 12.453125 
C 32.296875 1.5 26.40625 -0.40625 22.90625 -0.40625 
z
" id="CMR17-48"/>
       </defs>
       <use transform="scale(0.996264)" xlink:href="#CMR17-49"/>
       <use transform="translate(45.690477 0)scale(0.996264)" xlink:href="#CMR17-48"/>
      </g>
     </g>
    </g>
    <g id="ytick_6">
     <g id="text_9">
      <!-- $\mathdefault{11}$ -->
      <g style="fill:#262626;" transform="translate(24.76264 150.496202)scale(0.1 -0.1)">
       <use transform="scale(0.996264)" xlink:href="#CMR17-49"/>
       <use transform="translate(45.690477 0)scale(0.996264)" xlink:href="#CMR17-49"/>
      </g>
     </g>
    </g>
    <g id="ytick_7">
     <g id="text_10">
      <!-- $\mathdefault{12}$ -->
      <g style="fill:#262626;" transform="translate(24.76264 177.051742)scale(0.1 -0.1)">
       <use transform="scale(0.996264)" xlink:href="#CMR17-49"/>
       <use transform="translate(45.690477 0)scale(0.996264)" xlink:href="#CMR17-50"/>
      </g>
     </g>
    </g>
    <g id="text_11">
     <!-- IE [eV] -->
     <g style="fill:#262626;" transform="translate(18.27198 116.131404)rotate(-90)scale(0.1 -0.1)">
      <defs>
       <path d="M 19.703125 60.90625 
C 19.703125 65.390625 20.90625 65.390625 28.09375 65.390625 
L 28.09375 68 
C 24.90625 67.796875 19.796875 67.796875 16.40625 67.796875 
C 13 67.796875 7.90625 67.796875 4.703125 68 
L 4.703125 65.390625 
C 11.90625 65.390625 13.09375 65.390625 13.09375 60.90625 
L 13.09375 7.078125 
C 13.09375 2.59375 11.90625 2.59375 4.703125 2.59375 
L 4.703125 0 
C 7.90625 0.1875 13 0.1875 16.40625 0.1875 
C 19.796875 0.1875 24.90625 0.1875 28.09375 0 
L 28.09375 2.59375 
C 20.90625 2.59375 19.703125 2.59375 19.703125 7.078125 
z
" id="CMR17-73"/>
       <path d="M 60.703125 25.21875 
L 58.90625 25.21875 
C 56.703125 10.5625 55.40625 2.59375 37.796875 2.59375 
L 23.90625 2.59375 
C 19.90625 2.59375 19.703125 3.09375 19.703125 6.484375 
L 19.703125 34 
L 29.09375 34 
C 38.5 34 39.40625 30.609375 39.40625 22.328125 
L 41.203125 22.328125 
L 41.203125 48.21875 
L 39.40625 48.21875 
C 39.40625 39.96875 38.5 36.59375 29.09375 36.59375 
L 19.703125 36.59375 
L 19.703125 61.3125 
C 19.703125 64.703125 19.90625 65.1875 23.90625 65.1875 
L 37.59375 65.1875 
C 53.09375 65.1875 54.90625 59.03125 56.296875 45.828125 
L 58.09375 45.828125 
L 55.703125 67.796875 
L 5.09375 67.796875 
L 5.09375 65.1875 
C 12 65.1875 13.09375 65.1875 13.09375 60.71875 
L 13.09375 7.078125 
C 13.09375 2.59375 12 2.59375 5.09375 2.59375 
L 5.09375 0 
L 57.09375 0 
z
" id="CMR17-69"/>
       <path d="M 59 58.78125 
C 59.90625 60.984375 61.5 65.296875 68.203125 65.390625 
L 68.203125 68 
C 65.90625 67.796875 63.296875 67.796875 60.796875 67.796875 
C 58.40625 67.796875 54.296875 67.796875 52 68 
L 52 65.390625 
C 57 65.09375 57.203125 61.59375 57.203125 60.984375 
C 57.203125 59.890625 56.90625 59.1875 56.59375 58.390625 
L 36.90625 7 
L 16.296875 60.984375 
C 16 61.6875 15.796875 62.1875 15.796875 62.6875 
C 15.796875 65.390625 19.796875 65.390625 21.90625 65.390625 
L 21.90625 68 
C 18.703125 67.796875 14 67.796875 10.703125 67.796875 
C 8.09375 67.796875 3.40625 67.796875 1 68 
L 1 65.390625 
C 6.796875 65.390625 7.90625 65 9.09375 61.796875 
L 32.90625 -0.40625 
C 33.40625 -1.8125 33.5 -2 34.59375 -2 
C 35.703125 -2 35.796875 -1.8125 36.296875 -0.40625 
z
" id="CMR17-86"/>
      </defs>
      <use transform="scale(0.996264)" xlink:href="#CMR17-73"/>
      <use transform="translate(32.638409 0)scale(0.996264)" xlink:href="#CMR17-69"/>
      <use transform="translate(125.300676 0)scale(0.996264)" xlink:href="#CMR17-91"/>
      <use transform="translate(150.171735 0)scale(0.996264)" xlink:href="#CMR17-101"/>
      <use transform="translate(190.657395 0)scale(0.996264)" xlink:href="#CMR17-86"/>
      <use transform="translate(259.729825 0)scale(0.996264)" xlink:href="#CMR17-93"/>
     </g>
    </g>
   </g>
   <g id="patch_3">
    <path clip-path="url(#ped0c37a63b)" d="M 49.155978 81.8431 
L 65.980132 81.8431 
L 65.980132 164.351165 
L 49.155978 164.351165 
z
" style="fill:#6495ed;opacity:0.25;stroke:#6495ed;"/>
   </g>
   <g id="patch_4">
    <path clip-path="url(#ped0c37a63b)" d="M 68.784157 71.698884 
L 85.60831 71.698884 
L 85.60831 157.393613 
L 68.784157 157.393613 
z
" style="fill:#cd5c5c;opacity:0.25;stroke:#cd5c5c;"/>
   </g>
   <g id="patch_5">
    <path clip-path="url(#ped0c37a63b)" d="M 161.317 47.347453 
L 178.141153 47.347453 
L 178.141153 123.11041 
L 161.317 123.11041 
z
" style="fill:#6495ed;opacity:0.25;stroke:#6495ed;"/>
   </g>
   <g id="patch_6">
    <path clip-path="url(#ped0c37a63b)" d="M 180.945179 42.833011 
L 197.769332 42.833011 
L 197.769332 118.781857 
L 180.945179 118.781857 
z
" style="fill:#cd5c5c;opacity:0.25;stroke:#cd5c5c;"/>
   </g>
   <g id="LineCollection_1">
    <path clip-path="url(#ped0c37a63b)" d="M 49.155978 81.8431 
L 57.568055 81.8431 
" style="fill:none;stroke:#6495ed;"/>
    <path clip-path="url(#ped0c37a63b)" d="M 49.155978 82.692878 
L 57.568055 82.692878 
" style="fill:none;stroke:#6495ed;"/>
    <path clip-path="url(#ped0c37a63b)" d="M 49.155978 82.719433 
L 57.568055 82.719433 
" style="fill:none;stroke:#6495ed;"/>
    <path clip-path="url(#ped0c37a63b)" d="M 49.155978 95.412982 
L 57.568055 95.412982 
" style="fill:none;stroke:#6495ed;"/>
    <path clip-path="url(#ped0c37a63b)" d="M 49.155978 111.001084 
L 57.568055 111.001084 
" style="fill:none;stroke:#6495ed;"/>
    <path clip-path="url(#ped0c37a63b)" d="M 49.155978 111.001084 
L 57.568055 111.001084 
" style="fill:none;stroke:#6495ed;"/>
    <path clip-path="url(#ped0c37a63b)" d="M 49.155978 125.128632 
L 57.568055 125.128632 
" style="fill:none;stroke:#6495ed;"/>
    <path clip-path="url(#ped0c37a63b)" d="M 49.155978 164.351165 
L 57.568055 164.351165 
" style="fill:none;stroke:#6495ed;"/>
   </g>
   <g id="LineCollection_2">
    <path clip-path="url(#ped0c37a63b)" d="M 57.568055 91.509317 
L 65.980132 91.509317 
" style="fill:none;stroke:#6495ed;"/>
    <path clip-path="url(#ped0c37a63b)" d="M 57.568055 91.535873 
L 65.980132 91.535873 
" style="fill:none;stroke:#6495ed;"/>
    <path clip-path="url(#ped0c37a63b)" d="M 57.568055 103.618644 
L 65.980132 103.618644 
" style="fill:none;stroke:#6495ed;"/>
    <path clip-path="url(#ped0c37a63b)" d="M 57.568055 115.064082 
L 65.980132 115.064082 
" style="fill:none;stroke:#6495ed;"/>
    <path clip-path="url(#ped0c37a63b)" d="M 57.568055 124.809965 
L 65.980132 124.809965 
" style="fill:none;stroke:#6495ed;"/>
    <path clip-path="url(#ped0c37a63b)" d="M 57.568055 124.809965 
L 65.980132 124.809965 
" style="fill:none;stroke:#6495ed;"/>
    <path clip-path="url(#ped0c37a63b)" d="M 57.568055 127.837297 
L 65.980132 127.837297 
" style="fill:none;stroke:#6495ed;"/>
    <path clip-path="url(#ped0c37a63b)" d="M 57.568055 152.480838 
L 65.980132 152.480838 
" style="fill:none;stroke:#6495ed;"/>
   </g>
   <g id="LineCollection_3">
    <path clip-path="url(#ped0c37a63b)" d="M 49.155978 111.613521 
L 65.980132 111.613521 
" style="fill:none;stroke:#6495ed;stroke-width:4;"/>
   </g>
   <g id="LineCollection_4">
    <path clip-path="url(#ped0c37a63b)" d="M 68.784157 71.698884 
L 77.196234 71.698884 
" style="fill:none;stroke:#cd5c5c;"/>
    <path clip-path="url(#ped0c37a63b)" d="M 68.784157 72.044106 
L 77.196234 72.044106 
" style="fill:none;stroke:#cd5c5c;"/>
    <path clip-path="url(#ped0c37a63b)" d="M 68.784157 72.044106 
L 77.196234 72.044106 
" style="fill:none;stroke:#cd5c5c;"/>
    <path clip-path="url(#ped0c37a63b)" d="M 68.784157 83.967543 
L 77.196234 83.967543 
" style="fill:none;stroke:#cd5c5c;"/>
    <path clip-path="url(#ped0c37a63b)" d="M 68.784157 100.538201 
L 77.196234 100.538201 
" style="fill:none;stroke:#cd5c5c;"/>
    <path clip-path="url(#ped0c37a63b)" d="M 68.784157 100.538201 
L 77.196234 100.538201 
" style="fill:none;stroke:#cd5c5c;"/>
    <path clip-path="url(#ped0c37a63b)" d="M 68.784157 112.647527 
L 77.196234 112.647527 
" style="fill:none;stroke:#cd5c5c;"/>
    <path clip-path="url(#ped0c37a63b)" d="M 68.784157 157.393613 
L 77.196234 157.393613 
" style="fill:none;stroke:#cd5c5c;"/>
   </g>
   <g id="LineCollection_5">
    <path clip-path="url(#ped0c37a63b)" d="M 77.196234 80.037323 
L 85.60831 80.037323 
" style="fill:none;stroke:#cd5c5c;"/>
    <path clip-path="url(#ped0c37a63b)" d="M 77.196234 80.037323 
L 85.60831 80.037323 
" style="fill:none;stroke:#cd5c5c;"/>
    <path clip-path="url(#ped0c37a63b)" d="M 77.196234 90.154984 
L 85.60831 90.154984 
" style="fill:none;stroke:#cd5c5c;"/>
    <path clip-path="url(#ped0c37a63b)" d="M 77.196234 102.237755 
L 85.60831 102.237755 
" style="fill:none;stroke:#cd5c5c;"/>
    <path clip-path="url(#ped0c37a63b)" d="M 77.196234 112.010194 
L 85.60831 112.010194 
" style="fill:none;stroke:#cd5c5c;"/>
    <path clip-path="url(#ped0c37a63b)" d="M 77.196234 112.010194 
L 85.60831 112.010194 
" style="fill:none;stroke:#cd5c5c;"/>
    <path clip-path="url(#ped0c37a63b)" d="M 77.196234 115.329637 
L 85.60831 115.329637 
" style="fill:none;stroke:#cd5c5c;"/>
    <path clip-path="url(#ped0c37a63b)" d="M 77.196234 147.16973 
L 85.60831 147.16973 
" style="fill:none;stroke:#cd5c5c;"/>
   </g>
   <g id="LineCollection_6">
    <path clip-path="url(#ped0c37a63b)" d="M 68.784157 100.616208 
L 85.60831 100.616208 
" style="fill:none;stroke:#cd5c5c;stroke-width:4;"/>
   </g>
   <g id="LineCollection_7">
    <path clip-path="url(#ped0c37a63b)" d="M 161.317 47.347453 
L 169.729077 47.347453 
" style="fill:none;stroke:#6495ed;"/>
    <path clip-path="url(#ped0c37a63b)" d="M 161.317 59.934779 
L 169.729077 59.934779 
" style="fill:none;stroke:#6495ed;"/>
    <path clip-path="url(#ped0c37a63b)" d="M 161.317 59.934779 
L 169.729077 59.934779 
" style="fill:none;stroke:#6495ed;"/>
    <path clip-path="url(#ped0c37a63b)" d="M 161.317 75.94777 
L 169.729077 75.94777 
" style="fill:none;stroke:#6495ed;"/>
    <path clip-path="url(#ped0c37a63b)" d="M 161.317 82.5601 
L 169.729077 82.5601 
" style="fill:none;stroke:#6495ed;"/>
    <path clip-path="url(#ped0c37a63b)" d="M 161.317 82.5601 
L 169.729077 82.5601 
" style="fill:none;stroke:#6495ed;"/>
    <path clip-path="url(#ped0c37a63b)" d="M 161.317 94.377315 
L 169.729077 94.377315 
" style="fill:none;stroke:#6495ed;"/>
    <path clip-path="url(#ped0c37a63b)" d="M 161.317 104.17631 
L 169.729077 104.17631 
" style="fill:none;stroke:#6495ed;"/>
   </g>
   <g id="LineCollection_8">
    <path clip-path="url(#ped0c37a63b)" d="M 169.729077 73.265661 
L 178.141153 73.265661 
" style="fill:none;stroke:#6495ed;"/>
    <path clip-path="url(#ped0c37a63b)" d="M 169.729077 73.265661 
L 178.141153 73.265661 
" style="fill:none;stroke:#6495ed;"/>
    <path clip-path="url(#ped0c37a63b)" d="M 169.729077 83.781655 
L 178.141153 83.781655 
" style="fill:none;stroke:#6495ed;"/>
    <path clip-path="url(#ped0c37a63b)" d="M 169.729077 89.172429 
L 178.141153 89.172429 
" style="fill:none;stroke:#6495ed;"/>
    <path clip-path="url(#ped0c37a63b)" d="M 169.729077 93.819649 
L 178.141153 93.819649 
" style="fill:none;stroke:#6495ed;"/>
    <path clip-path="url(#ped0c37a63b)" d="M 169.729077 93.819649 
L 178.141153 93.819649 
" style="fill:none;stroke:#6495ed;"/>
    <path clip-path="url(#ped0c37a63b)" d="M 169.729077 101.281756 
L 178.141153 101.281756 
" style="fill:none;stroke:#6495ed;"/>
    <path clip-path="url(#ped0c37a63b)" d="M 169.729077 123.11041 
L 178.141153 123.11041 
" style="fill:none;stroke:#6495ed;"/>
   </g>
   <g id="LineCollection_9">
    <path clip-path="url(#ped0c37a63b)" d="M 161.317 83.647217 
L 178.141153 83.647217 
" style="fill:none;stroke:#6495ed;stroke-width:4;"/>
   </g>
   <g id="LineCollection_10">
    <path clip-path="url(#ped0c37a63b)" d="M 180.945179 42.833011 
L 189.357256 42.833011 
" style="fill:none;stroke:#cd5c5c;"/>
    <path clip-path="url(#ped0c37a63b)" d="M 180.945179 57.173003 
L 189.357256 57.173003 
" style="fill:none;stroke:#cd5c5c;"/>
    <path clip-path="url(#ped0c37a63b)" d="M 180.945179 57.173003 
L 189.357256 57.173003 
" style="fill:none;stroke:#cd5c5c;"/>
    <path clip-path="url(#ped0c37a63b)" d="M 180.945179 69.547885 
L 189.357256 69.547885 
" style="fill:none;stroke:#cd5c5c;"/>
    <path clip-path="url(#ped0c37a63b)" d="M 180.945179 76.452325 
L 189.357256 76.452325 
" style="fill:none;stroke:#cd5c5c;"/>
    <path clip-path="url(#ped0c37a63b)" d="M 180.945179 76.452325 
L 189.357256 76.452325 
" style="fill:none;stroke:#cd5c5c;"/>
    <path clip-path="url(#ped0c37a63b)" d="M 180.945179 93.713427 
L 189.357256 93.713427 
" style="fill:none;stroke:#cd5c5c;"/>
    <path clip-path="url(#ped0c37a63b)" d="M 180.945179 102.609533 
L 189.357256 102.609533 
" style="fill:none;stroke:#cd5c5c;"/>
   </g>
   <g id="LineCollection_11">
    <path clip-path="url(#ped0c37a63b)" d="M 189.357256 66.095665 
L 197.769332 66.095665 
" style="fill:none;stroke:#cd5c5c;"/>
    <path clip-path="url(#ped0c37a63b)" d="M 189.357256 66.12222 
L 197.769332 66.12222 
" style="fill:none;stroke:#cd5c5c;"/>
    <path clip-path="url(#ped0c37a63b)" d="M 189.357256 74.088882 
L 197.769332 74.088882 
" style="fill:none;stroke:#cd5c5c;"/>
    <path clip-path="url(#ped0c37a63b)" d="M 189.357256 78.523658 
L 197.769332 78.523658 
" style="fill:none;stroke:#cd5c5c;"/>
    <path clip-path="url(#ped0c37a63b)" d="M 189.357256 84.923543 
L 197.769332 84.923543 
" style="fill:none;stroke:#cd5c5c;"/>
    <path clip-path="url(#ped0c37a63b)" d="M 189.357256 84.923543 
L 197.769332 84.923543 
" style="fill:none;stroke:#cd5c5c;"/>
    <path clip-path="url(#ped0c37a63b)" d="M 189.357256 92.38565 
L 197.769332 92.38565 
" style="fill:none;stroke:#cd5c5c;"/>
    <path clip-path="url(#ped0c37a63b)" d="M 189.357256 118.781857 
L 197.769332 118.781857 
" style="fill:none;stroke:#cd5c5c;"/>
   </g>
   <g id="LineCollection_12">
    <path clip-path="url(#ped0c37a63b)" d="M 180.945179 77.612471 
L 197.769332 77.612471 
" style="fill:none;stroke:#cd5c5c;stroke-width:4;"/>
   </g>
   <g id="LineCollection_13">
    <path clip-path="url(#ped0c37a63b)" d="M 169.729077 28.758574 
L 178.141153 28.758574 
" style="fill:none;stroke:#6495ed;stroke-dasharray:3.7,1.6;stroke-dashoffset:0;"/>
   </g>
   <g id="LineCollection_14">
    <path clip-path="url(#ped0c37a63b)" d="M 189.357256 31.201684 
L 197.769332 31.201684 
" style="fill:none;stroke:#cd5c5c;stroke-dasharray:3.7,1.6;stroke-dashoffset:0;"/>
   </g>
   <g id="LineCollection_15">
    <path clip-path="url(#ped0c37a63b)" d="M 105.236489 71.353662 
L 141.688821 71.353662 
" style="fill:none;stroke:#6495ed;stroke-width:4;"/>
   </g>
   <g id="LineCollection_16">
    <path clip-path="url(#ped0c37a63b)" d="M 105.236489 66.706442 
L 141.688821 66.706442 
" style="fill:none;stroke:#cd5c5c;stroke-width:4;"/>
   </g>
   <g id="LineCollection_17">
    <path clip-path="url(#ped0c37a63b)" style="fill:none;stroke:#6495ed;stroke-width:4;"/>
   </g>
   <g id="LineCollection_18">
    <path clip-path="url(#ped0c37a63b)" style="fill:none;stroke:#cd5c5c;stroke-width:4;"/>
   </g>
   <g id="patch_7">
    <path d="M 41.725311 186.870264 
L 41.725311 14.259249 
" style="fill:none;stroke:#262626;stroke-linecap:square;stroke-linejoin:miter;stroke-width:0.8;"/>
   </g>
   <g id="patch_8">
    <path d="M 205.2 186.870264 
L 205.2 14.259249 
" style="fill:none;stroke:#262626;stroke-linecap:square;stroke-linejoin:miter;stroke-width:0.8;"/>
   </g>
   <g id="patch_9">
    <path d="M 41.725311 186.870264 
L 205.2 186.870264 
" style="fill:none;stroke:#262626;stroke-linecap:square;stroke-linejoin:miter;stroke-width:0.8;"/>
   </g>
   <g id="patch_10">
    <path d="M 41.725311 14.259249 
L 205.2 14.259249 
" style="fill:none;stroke:#262626;stroke-linecap:square;stroke-linejoin:miter;stroke-width:0.8;"/>
   </g>
   <g id="legend_1">
    <g id="patch_11">
     <path d="M 48.725311 51.47299 
L 90.687966 51.47299 
Q 92.687966 51.47299 92.687966 49.47299 
L 92.687966 21.259249 
Q 92.687966 19.259249 90.687966 19.259249 
L 48.725311 19.259249 
Q 46.725311 19.259249 46.725311 21.259249 
L 46.725311 49.47299 
Q 46.725311 51.47299 48.725311 51.47299 
z
" style="fill:#ffffff;opacity:0.8;stroke:#cccccc;stroke-linejoin:miter;"/>
    </g>
    <g id="line2d_5">
     <path d="M 50.725311 27.357687 
L 70.725311 27.357687 
" style="fill:none;stroke:#6495ed;stroke-width:4;"/>
    </g>
    <g id="text_12">
     <!-- S -->
     <g style="fill:#262626;" transform="translate(78.725311 30.857687)scale(0.1 -0.1)">
      <defs>
       <path d="M 43.796875 67.984375 
C 43.796875 69.796875 43.703125 69.890625 43.09375 69.890625 
C 42.5 69.890625 42.296875 69.484375 41.90625 68.59375 
L 38.90625 61.953125 
C 35.09375 67.5 29.296875 70 23 70 
C 12.796875 70 4.59375 61.84375 4.59375 51.578125 
C 4.59375 48.453125 5.296875 44.015625 8.703125 39.78125 
C 12.40625 35.15625 15.90625 34.34375 23.90625 32.234375 
C 26.90625 31.421875 31.90625 30.109375 32.90625 29.703125 
C 38.59375 27.296875 41.59375 21.25 41.59375 15.609375 
C 41.59375 8.34375 36.5 0.59375 27.796875 0.59375 
C 17.09375 0.59375 7.09375 6.640625 6.40625 20.75 
C 6.296875 22.359375 6.203125 22.453125 5.5 22.453125 
C 4.703125 22.453125 4.59375 22.359375 4.59375 20.34375 
L 4.59375 0 
C 4.59375 -1.8125 4.703125 -1.90625 5.296875 -1.90625 
C 6 -1.90625 6.203125 -1.40625 7.59375 1.703125 
C 7.703125 2 7.703125 2.203125 9.59375 6.03125 
C 14.59375 -0.609375 23 -2 27.796875 -2 
C 38.703125 -2 46.40625 7.140625 46.40625 17.828125 
C 46.40625 23.0625 44.5 27.09375 43.40625 28.90625 
C 39.203125 35.359375 34.703125 36.5625 29.90625 37.765625 
C 29.203125 38.078125 29 38.078125 23.40625 39.484375 
C 18 40.890625 15.703125 41.59375 13.203125 44.3125 
C 10.40625 47.4375 9.40625 50.671875 9.40625 53.890625 
C 9.40625 60.4375 14.59375 67.59375 23.09375 67.59375 
C 33.703125 67.59375 40.296875 60.03125 41.796875 47.4375 
C 42.09375 45.625 42.203125 45.53125 42.90625 45.53125 
C 43.796875 45.53125 43.796875 45.828125 43.796875 47.546875 
z
" id="CMR17-83"/>
      </defs>
      <use transform="scale(0.996264)" xlink:href="#CMR17-83"/>
     </g>
    </g>
    <g id="line2d_6">
     <path d="M 50.725311 42.035812 
L 70.725311 42.035812 
" style="fill:none;stroke:#cd5c5c;stroke-width:4;"/>
    </g>
    <g id="text_13">
     <!-- Se -->
     <g style="fill:#262626;" transform="translate(78.725311 45.535812)scale(0.1 -0.1)">
      <use transform="scale(0.996264)" xlink:href="#CMR17-83"/>
      <use transform="translate(50.89537 0)scale(0.996264)" xlink:href="#CMR17-101"/>
     </g>
    </g>
   </g>
  </g>
 </g>
 <defs>
  <clipPath id="ped0c37a63b">
   <rect height="172.611014" width="163.474689" x="41.725311" y="14.259249"/>
  </clipPath>
 </defs>
</svg>
