<?xml version="1.0" encoding="UTF-8" standalone="no"?>
<!-- Created with matplotlib (https://matplotlib.org/) -->

<svg
   height="138.39999pt"
   version="1.1"
   viewBox="0 0 473.62326 138.39999"
   width="473.62326pt"
   id="svg405"
   sodipodi:docname="diamag_fe6_fe2_.svg"
   inkscape:version="1.1.2 (1:1.1+202202050950+0a00cf5339)"
   inkscape:export-filename="/home/spiller/phd/thesis/appendix/nitroco/diamag_fe6_fe2.png"
   inkscape:export-xdpi="250.59"
   inkscape:export-ydpi="250.59"
   xmlns:inkscape="http://www.inkscape.org/namespaces/inkscape"
   xmlns:sodipodi="http://sodipodi.sourceforge.net/DTD/sodipodi-0.dtd"
   xmlns:xlink="http://www.w3.org/1999/xlink"
   xmlns="http://www.w3.org/2000/svg"
   xmlns:svg="http://www.w3.org/2000/svg"
   xmlns:rdf="http://www.w3.org/1999/02/22-rdf-syntax-ns#"
   xmlns:cc="http://creativecommons.org/ns#"
   xmlns:dc="http://purl.org/dc/elements/1.1/"
   xmlns:ns0="http://www.iki.fi/pav/software/textext/">
  <sodipodi:namedview
     id="namedview407"
     pagecolor="#ffffff"
     bordercolor="#666666"
     borderopacity="1.0"
     inkscape:pageshadow="2"
     inkscape:pageopacity="1"
     inkscape:pagecheckerboard="0"
     inkscape:document-units="pt"
     showgrid="false"
     fit-margin-top="5"
     lock-margins="true"
     fit-margin-left="5"
     fit-margin-right="5"
     fit-margin-bottom="5"
     inkscape:zoom="1.1223958"
     inkscape:cx="298.91415"
     inkscape:cy="91.322506"
     inkscape:window-width="1920"
     inkscape:window-height="1016"
     inkscape:window-x="0"
     inkscape:window-y="0"
     inkscape:window-maximized="1"
     inkscape:current-layer="axes_3" />
  <metadata
     id="metadata2">
    <rdf:RDF>
      <cc:Work>
        <dc:type
           rdf:resource="http://purl.org/dc/dcmitype/StillImage" />
        <dc:date>2022-01-17T16:35:52.500899</dc:date>
        <dc:format>image/svg+xml</dc:format>
        <dc:creator>
          <cc:Agent>
            <dc:title>Matplotlib v3.3.4, https://matplotlib.org/</dc:title>
          </cc:Agent>
        </dc:creator>
      </cc:Work>
    </rdf:RDF>
  </metadata>
  <defs
     id="defs6">
    <style
       type="text/css"
       id="style4">*{stroke-linecap:butt;stroke-linejoin:round;}</style>
    <style
       type="text/css"
       id="style1817">*{stroke-linecap:butt;stroke-linejoin:round;}</style>
    <path
       d="M 54.40625 67.796875  L 5.09375 67.796875  L 5.09375 65.1875  C 12 65.1875 13.09375 65.1875 13.09375 60.671875  L 13.09375 7.03125  C 13.09375 2.59375 12 2.59375 5.09375 2.59375  L 5.09375 0  C 8 0.1875 13.59375 0.1875 16.703125 0.1875  C 20.796875 0.1875 25.59375 0.1875 29.703125 0  L 29.703125 2.59375  L 27.5 2.59375  C 19.90625 2.59375 19.703125 3.578125 19.703125 7.125  L 19.703125 32.390625  L 28.703125 32.390625  C 38 32.390625 38.90625 29.140625 38.90625 20.84375  L 40.703125 20.84375  L 40.703125 46.734375  L 38.90625 46.734375  C 38.90625 38.296875 38 35 28.703125 35  L 19.703125 35  L 19.703125 61.28125  C 19.703125 64.6875 19.90625 65.1875 23.90625 65.1875  L 36.796875 65.1875  C 51.90625 65.1875 53.59375 58.96875 55 45.625  L 56.796875 45.625  z "
       id="CMR17-70-4" />
    <path
       d="M 38.09375 23.484375  C 38.5 23.890625 38.5 24.09375 38.5 25.09375  C 38.5 35.171875 33.09375 44 21.703125 44  C 11.09375 44 2.703125 33.984375 2.703125 21.78125  C 2.703125 8.65625 12.203125 -1 22.796875 -1  C 34 -1 38.40625 9.671875 38.40625 11.796875  C 38.40625 12.5 37.796875 12.5 37.59375 12.5  C 36.90625 12.5 36.796875 12.296875 36.40625 11.078125  C 34.203125 4.21875 28.703125 0.796875 23.5 0.796875  C 19.203125 0.796875 14.90625 3.21875 12.203125 7.65625  C 9.09375 12.796875 9.09375 18.75 9.09375 23.484375  z M 9.203125 25  C 9.90625 39.234375 17.59375 42.390625 21.59375 42.390625  C 28.40625 42.390625 33 36.0625 33.09375 25  z "
       id="CMR17-101-7" />
    <path
       d="M 10.59375 34.34375  C 10.59375 58 21.796875 63.6875 28.296875 63.6875  C 30.40625 63.6875 35.5 63.265625 37.5 59.09375  C 35.90625 59.09375 32.90625 59.09375 32.90625 55.59375  C 32.90625 52.890625 35.09375 52 36.5 52  C 37.40625 52 40.09375 52.390625 40.09375 55.796875  C 40.09375 62.296875 35.09375 66 28.203125 66  C 16.296875 66 3.796875 53.296875 3.796875 31.421875  C 3.796875 4.015625 15.09375 -2 23.09375 -2  C 32.796875 -2 42 6.734375 42 20.234375  C 42 32.828125 33.90625 42 23.703125 42  C 17.59375 42 13.09375 37.96875 10.59375 30.921875  z M 23.09375 0.390625  C 10.796875 0.390625 10.796875 18.9375 10.796875 22.65625  C 10.796875 29.90625 14.203125 40.390625 23.5 40.390625  C 25.203125 40.390625 30.09375 40.390625 33.40625 33.4375  C 35.203125 29.515625 35.203125 25.375 35.203125 20.34375  C 35.203125 14.90625 35.203125 10.875 33.09375 6.84375  C 30.90625 2.703125 27.703125 0.390625 23.09375 0.390625  z "
       id="CMR17-54-6" />
    <path
       d="M 30.59375 -24.40625  C 30.59375 -24.3125 30.59375 -24.109375 30.296875 -23.8125  C 25.703125 -19.109375 13.40625 -6.296875 13.40625 24.9375  C 13.40625 56.171875 25.5 68.875 30.40625 73.890625  C 30.40625 73.984375 30.59375 74.1875 30.59375 74.484375  C 30.59375 74.796875 30.296875 75 29.90625 75  C 28.796875 75 20.296875 67.578125 15.40625 56.5625  C 10.40625 45.453125 9 34.65625 9 25.046875  C 9 17.828125 9.703125 5.625 15.703125 -7.296875  C 20.5 -17.703125 28.703125 -25 29.90625 -25  C 30.40625 -25 30.59375 -24.8125 30.59375 -24.40625  z "
       id="CMR17-40-3" />
    <path
       d="M 20.90625 66.390625  C 20.296875 67.890625 20.203125 68 18.09375 68  L 5.296875 68  L 5.296875 65.390625  C 12.203125 65.390625 13.296875 65.390625 13.296875 60.90625  L 13.296875 9.75  C 13.296875 7.265625 13.296875 2.59375 5.296875 2.59375  L 5.296875 0  C 7.59375 0.1875 11.796875 0.1875 14.296875 0.1875  C 16.796875 0.1875 21 0.1875 23.296875 0  L 23.296875 2.59375  C 15.296875 2.59375 15.296875 7.265625 15.296875 9.75  L 15.296875 64.984375  L 15.40625 64.984375  L 38.90625 1.59375  C 39.296875 0.59375 39.5 0 40.296875 0  C 41.09375 0 41.296875 0.59375 41.703125 1.59375  L 65.40625 65.484375  L 65.5 65.484375  L 65.5 7.078125  C 65.5 2.59375 64.40625 2.59375 57.5 2.59375  L 57.5 0  C 60.203125 0.1875 65.59375 0.1875 68.5 0.1875  C 71.40625 0.1875 76.90625 0.1875 79.59375 0  L 79.59375 2.59375  C 72.703125 2.59375 71.59375 2.59375 71.59375 7.078125  L 71.59375 60.90625  C 71.59375 65.390625 72.703125 65.390625 79.59375 65.390625  L 79.59375 68  L 66.90625 68  C 64.796875 68 64.703125 67.890625 64.09375 66.390625  L 42.5 8.0625  z "
       id="CMR17-77-1" />
    <path
       d="M 43.09375 21.1875  C 43.09375 34 33.796875 44 22.90625 44  C 12 44 2.703125 34 2.703125 21.1875  C 2.703125 8.59375 12 -1 22.90625 -1  C 33.796875 -1 43.09375 8.59375 43.09375 21.1875  z M 22.90625 0.796875  C 18.203125 0.796875 14.203125 3.59375 11.90625 7.5  C 9.40625 12 9.09375 17.59375 9.09375 22  C 9.09375 26.1875 9.296875 31.390625 11.90625 35.890625  C 13.90625 39.1875 17.796875 42.390625 22.90625 42.390625  C 27.40625 42.390625 31.203125 39.890625 33.59375 36.390625  C 36.703125 31.6875 36.703125 25.09375 36.703125 22  C 36.703125 18.09375 36.5 12.09375 33.796875 7.296875  C 31 2.6875 26.703125 0.796875 22.90625 0.796875  z "
       id="CMR17-111-7" />
    <path
       d="M 26.296875 24.9375  C 26.296875 32.140625 25.59375 44.359375 19.59375 57.265625  C 14.796875 67.6875 6.59375 75 5.40625 75  C 5.09375 75 4.703125 74.890625 4.703125 74.390625  C 4.703125 74.1875 4.796875 74.09375 4.90625 73.890625  C 9.703125 68.875 21.90625 56.171875 21.90625 25.046875  C 21.90625 -6.1875 9.796875 -18.90625 4.90625 -23.90625  C 4.796875 -24.109375 4.703125 -24.203125 4.703125 -24.40625  C 4.703125 -24.90625 5.09375 -25 5.40625 -25  C 6.5 -25 15 -17.609375 19.90625 -6.59375  C 24.90625 4.515625 26.296875 15.328125 26.296875 24.9375  z "
       id="CMR17-41-5" />
    <path
       d="M 42 31.84375  C 42 37.96875 41.90625 48.421875 37.703125 56.453125  C 34 63.484375 28.09375 66 22.90625 66  C 18.09375 66 12 63.78125 8.203125 56.5625  C 4.203125 49.015625 3.796875 39.671875 3.796875 31.84375  C 3.796875 26.109375 3.90625 17.375 7 9.734375  C 11.296875 -0.609375 19 -2 22.90625 -2  C 27.5 -2 34.5 -0.109375 38.59375 9.4375  C 41.59375 16.375 42 24.5 42 31.84375  z M 22.90625 -0.40625  C 16.5 -0.40625 12.703125 5.125 11.296875 12.75  C 10.203125 18.6875 10.203125 27.328125 10.203125 32.953125  C 10.203125 40.6875 10.203125 47.109375 11.5 53.234375  C 13.40625 61.78125 19 64.390625 22.90625 64.390625  C 27 64.390625 32.296875 61.671875 34.203125 53.4375  C 35.5 47.71875 35.59375 40.984375 35.59375 32.953125  C 35.59375 26.421875 35.59375 18.375 34.40625 12.453125  C 32.296875 1.5 26.40625 -0.40625 22.90625 -0.40625  z "
       id="CMR17-48-7" />
    <path
       d="M 11.40625 58.59375  C 12.40625 58.1875 16.5 56.890625 20.703125 56.890625  C 30 56.890625 35.09375 61.890625 38 64.6875  C 38 65.484375 38 66 37.40625 66  C 37.296875 66 37.09375 66 36.296875 65.59375  C 32.796875 64.09375 28.703125 63 23.703125 63  C 20.703125 63 16.203125 63.359375 11.296875 65.484375  C 10.203125 66 10 66 9.90625 66  C 9.40625 66 9.296875 65.890625 9.296875 63.90625  L 9.296875 34.859375  C 9.296875 33.015625 9.296875 32.5 10.296875 32.5  C 10.796875 32.5 11 32.703125 11.5 33.421875  C 14.703125 38.046875 19.09375 40 24.09375 40  C 27.59375 40 35.09375 37.734375 35.09375 20.203125  C 35.09375 16.984375 35.09375 11.1875 32.09375 6.59375  C 29.59375 2.484375 25.703125 0.390625 21.40625 0.390625  C 14.796875 0.390625 8.09375 4.984375 6.296875 12.6875  C 6.703125 12.59375 7.5 12.390625 7.90625 12.390625  C 9.203125 12.390625 11.703125 13.09375 11.703125 16.1875  C 11.703125 18.890625 9.796875 20 7.90625 20  C 5.59375 20 4.09375 18.59375 4.09375 15.796875  C 4.09375 7.09375 11 -2 21.59375 -2  C 31.90625 -2 41.703125 6.890625 41.703125 19.796875  C 41.703125 32.09375 33.90625 41.59375 24.203125 41.59375  C 19.09375 41.59375 14.796875 39.6875 11.40625 36  z "
       id="CMR17-53-4" />
    <path
       d="M 26.59375 63.796875  C 26.59375 65.890625 26.5 66 25.09375 66  C 21.203125 61.359375 15.296875 59.890625 9.703125 59.6875  C 9.40625 59.6875 8.90625 59.6875 8.796875 59.5  C 8.703125 59.296875 8.703125 59.09375 8.703125 57  C 11.796875 57 17 57.59375 21 59.984375  L 21 7.296875  C 21 3.796875 20.796875 2.59375 12.203125 2.59375  L 9.203125 2.59375  L 9.203125 0  C 14 0.09375 19 0.1875 23.796875 0.1875  C 28.59375 0.1875 33.59375 0.09375 38.40625 0  L 38.40625 2.59375  L 35.40625 2.59375  C 26.796875 2.59375 26.59375 3.6875 26.59375 7.296875  z "
       id="CMR17-49-9" />
    <path
       d="M 40.59375 69.296875  C 39.796875 71 39.40625 71 38.59375 71  C 37.40625 71 37.296875 70.796875 36.59375 69.390625  L 4.203125 1.6875  C 4.09375 1.5 3.703125 0.59375 3.703125 0.5  C 3.703125 0.09375 3.796875 0 5.59375 0  L 71.5 0  C 73.296875 0 73.40625 0.09375 73.40625 0.5  C 73.40625 0.59375 73 1.5 72.90625 1.6875  z M 36.09375 63.375  L 63.796875 5.59375  L 8.296875 5.59375  z "
       id="CMR17-1-5" />
    <path
       d="M 69.5 23.265625  C 69.59375 23.5625 69.90625 24.265625 69.90625 24.65625  C 69.90625 25.171875 69.5 25.671875 68.90625 25.671875  C 68.5 25.671875 68.296875 25.5625 68 25.265625  C 67.796875 25.171875 67.796875 24.96875 66.90625 22.953125  C 61 8.90625 56.703125 2.890625 40.703125 2.890625  L 26.09375 2.890625  C 24.703125 2.890625 24.5 2.890625 23.90625 3  C 22.796875 3.09375 22.703125 3.296875 22.703125 4.09375  C 22.703125 4.796875 22.90625 5.40625 23.09375 6.296875  L 30 34  L 39.90625 34  C 47.703125 34 48.296875 32.28125 48.296875 29.28125  C 48.296875 28.28125 48.296875 27.375 47.59375 24.359375  C 47.40625 23.96875 47.296875 23.5625 47.296875 23.265625  C 47.296875 22.5625 47.796875 22.25 48.40625 22.25  C 49.296875 22.25 49.40625 22.953125 49.796875 24.359375  L 55.5 47.4375  C 55.5 47.9375 55.09375 48.421875 54.5 48.421875  C 53.59375 48.421875 53.5 48.03125 53.09375 46.65625  C 51.09375 39.0625 49.09375 36.890625 40.203125 36.890625  L 30.703125 36.890625  L 36.90625 61.140625  C 37.796875 64.59375 38 64.890625 42.09375 64.890625  L 56.40625 64.890625  C 68.703125 64.890625 71.203125 61.640625 71.203125 54.140625  C 71.203125 54.046875 71.203125 51.28125 70.796875 48.03125  C 70.703125 47.640625 70.59375 47.046875 70.59375 46.84375  C 70.59375 46.0625 71.09375 45.765625 71.703125 45.765625  C 72.40625 45.765625 72.796875 46.15625 73 47.9375  L 75.09375 65.1875  C 75.09375 65.484375 75.296875 66.484375 75.296875 66.6875  C 75.296875 67.796875 74.40625 67.796875 72.59375 67.796875  L 23.796875 67.796875  C 21.90625 67.796875 20.90625 67.796875 20.90625 65.984375  C 20.90625 64.890625 21.59375 64.890625 23.296875 64.890625  C 29.5 64.890625 29.5 64.203125 29.5 63.109375  C 29.5 62.625 29.40625 62.234375 29.09375 61.140625  L 15.59375 7.40625  C 14.703125 3.890625 14.5 2.890625 7.5 2.890625  C 5.59375 2.890625 4.59375 2.890625 4.59375 1.09375  C 4.59375 0 5.203125 0 7.203125 0  L 57.40625 0  C 59.59375 0 59.703125 0.09375 60.40625 1.6875  z "
       id="CMMI12-69-3" />
    <path
       d="M 23.5 -25  L 23.5 -21.5  L 14.09375 -21.5  L 14.09375 71.484375  L 23.5 71.484375  L 23.5 75  L 10.59375 75  L 10.59375 -25  z "
       id="CMR17-91-8" />
    <path
       d="M 26.09375 26.234375  C 26 26.4375 25.5 27.03125 25.5 27.328125  C 25.5 27.53125 32.59375 33.984375 33.5 34.78125  C 39.203125 39.5625 42.796875 40.046875 45.40625 40.15625  L 45.40625 42.734375  C 44.796875 42.734375 44.59375 42.734375 44.5 42.640625  L 39.59375 42.53125  C 36.796875 42.53125 32.5 42.53125 29.796875 42.734375  L 29.796875 40.15625  C 31.203125 40.046875 32.203125 39.265625 32.203125 37.859375  C 32.203125 35.875 30.203125 33.984375 30.09375 33.984375  L 15 20.28125  L 15 69  L 3.09375 67.890625  L 3.09375 65.296875  C 9 65.296875 9.90625 64.703125 9.90625 59.921875  L 9.90625 6.859375  C 9.90625 3.09375 9.5 2.59375 3.09375 2.59375  L 3.09375 0  C 5.5 0.1875 9.90625 0.1875 12.40625 0.1875  C 14.90625 0.1875 19.296875 0.1875 21.703125 0  L 21.703125 2.59375  C 15.296875 2.59375 14.90625 2.984375 14.90625 6.859375  L 14.90625 17.796875  L 21.796875 24.0625  L 31.90625 9.15625  C 33.09375 7.359375 34.09375 5.96875 34.09375 4.671875  C 34.09375 2.890625 32.296875 2.59375 31.09375 2.59375  L 31.09375 0  C 33.5 0.1875 37.796875 0.1875 40.296875 0.1875  C 42.09375 0.1875 45.796875 0.09375 47.5 0  L 47.5 2.59375  C 42.796875 2.59375 41.703125 3.484375 38.703125 7.859375  z "
       id="CMR17-107-8" />
    <path
       d="M 34.90625 35  C 33 35 30.203125 35 30.203125 31.484375  C 30.203125 28.6875 32.5 27.890625 33.796875 27.890625  C 34.5 27.890625 37.40625 28.1875 37.40625 31.6875  C 37.40625 38.6875 30.59375 44 22.90625 44  C 12.296875 44 3.296875 34.390625 3.296875 21.546875  C 3.296875 8.140625 12.703125 -1 22.90625 -1  C 35.296875 -1 38.40625 10.5625 38.40625 11.671875  C 38.40625 12.078125 38.296875 12.375 37.59375 12.375  C 36.90625 12.375 36.796875 12.28125 36.40625 10.96875  C 33.796875 2.8125 28.09375 0.796875 23.796875 0.796875  C 17.40625 0.796875 9.703125 6.734375 9.703125 21.640625  C 9.703125 36.84375 17.09375 42.1875 23 42.1875  C 26.90625 42.1875 32.703125 40.34375 34.90625 35  z "
       id="CMR17-99-3" />
    <path
       d="M 36 25.875  C 36 32 36 35.546875 31.796875 39.59375  C 28.09375 42.984375 23.796875 44 20.40625 44  C 12.5 44 6.796875 37.625 6.796875 30.890625  C 6.796875 27.1875 9.796875 27 10.40625 27  C 11.703125 27 14 27.796875 14 30.59375  C 14 33.09375 12.09375 34.1875 10.40625 34.1875  C 10 34.1875 9.5 34.09375 9.203125 34  C 11.296875 40.53125 16.703125 42.390625 20.203125 42.390625  C 25.203125 42.390625 30.703125 37.828125 30.703125 29.296875  L 30.703125 25.5  C 24.796875 25.296875 17.703125 24.5 12.09375 21.453125  C 5.796875 17.921875 4 12.84375 4 9  C 4 1.203125 13 -1 18.296875 -1  C 23.796875 -1 28.90625 2.109375 31.09375 7.890625  C 31.296875 3.421875 34.09375 -0.609375 38.5 -0.609375  C 40.59375 -0.609375 45.90625 0.796875 45.90625 8.796875  L 45.90625 14.46875  L 44.09375 14.46875  L 44.09375 8.703125  C 44.09375 2.515625 41.40625 1.703125 40.09375 1.703125  C 36 1.703125 36 6.96875 36 11.4375  z M 30.703125 13.859375  C 30.703125 5.046875 24.5 0.59375 19 0.59375  C 14 0.59375 10.09375 4.34375 10.09375 9  C 10.09375 12.046875 11.40625 17.40625 17.203125 20.65625  C 22 23.390625 27.5 23.796875 30.703125 24  z "
       id="CMR17-97-1" />
    <path
       d="M 15.296875 69  L 3.40625 67.890625  L 3.40625 65.296875  C 9.296875 65.296875 10.203125 64.703125 10.203125 59.921875  L 10.203125 6.859375  C 10.203125 3.09375 9.796875 2.59375 3.40625 2.59375  L 3.40625 0  C 5.796875 0.1875 10.203125 0.1875 12.703125 0.1875  C 15.296875 0.1875 19.703125 0.1875 22.09375 0  L 22.09375 2.59375  C 15.703125 2.59375 15.296875 2.984375 15.296875 6.859375  z "
       id="CMR17-108-8" />
    <path
       d="M 42.90625 71.296875  C 42.90625 71.390625 43.5 72.890625 43.5 73.09375  C 43.5 74.296875 42.5 75 41.703125 75  C 41.203125 75 40.296875 75 39.5 72.796875  L 6 -21.3125  C 6 -21.40625 5.40625 -22.90625 5.40625 -23.109375  C 5.40625 -24.3125 6.40625 -25 7.203125 -25  C 7.796875 -25 8.703125 -24.90625 9.40625 -22.8125  z "
       id="CMMI12-61-9" />
    <path
       d="M 67.59375 30.53125  C 67.59375 35.5625 66.703125 44 54.796875 44  C 48 44 43.296875 39.375 41.5 33.953125  L 41.40625 33.953125  C 40.203125 42.1875 34.296875 44 28.703125 44  C 20.796875 44 16.703125 37.875 15.203125 33.84375  L 15.09375 33.84375  L 15.09375 44  L 3.296875 42.890625  L 3.296875 40.28125  C 9.203125 40.28125 10.09375 39.6875 10.09375 34.859375  L 10.09375 6.921875  C 10.09375 3.09375 9.703125 2.59375 3.296875 2.59375  L 3.296875 0  C 5.703125 0.1875 10.09375 0.1875 12.703125 0.1875  C 15.296875 0.1875 19.796875 0.1875 22.203125 0  L 22.203125 2.59375  C 15.796875 2.59375 15.40625 3 15.40625 6.921875  L 15.40625 26.21875  C 15.40625 35.453125 21 42.390625 28 42.390625  C 35.40625 42.390625 36.203125 35.765625 36.203125 30.9375  L 36.203125 6.921875  C 36.203125 3.09375 35.796875 2.59375 29.40625 2.59375  L 29.40625 0  C 31.796875 0.1875 36.203125 0.1875 38.796875 0.1875  C 41.40625 0.1875 45.90625 0.1875 48.296875 0  L 48.296875 2.59375  C 41.90625 2.59375 41.5 3 41.5 6.921875  L 41.5 26.21875  C 41.5 35.453125 47.09375 42.390625 54.09375 42.390625  C 61.5 42.390625 62.296875 35.765625 62.296875 30.9375  L 62.296875 6.921875  C 62.296875 3.09375 61.90625 2.59375 55.5 2.59375  L 55.5 0  C 57.90625 0.1875 62.296875 0.1875 64.90625 0.1875  C 67.5 0.1875 72 0.1875 74.40625 0  L 74.40625 2.59375  C 68 2.59375 67.59375 3 67.59375 6.921875  z "
       id="CMR17-109-6" />
    <path
       d="M 14.296875 75  L 1.40625 75  L 1.40625 71.484375  L 10.796875 71.484375  L 10.796875 -21.5  L 1.40625 -21.5  L 1.40625 -25  L 14.296875 -25  z "
       id="CMR17-93-4" />
    <path
       d="M 90.796875 60.71875  C 91.703125 64.09375 91.90625 65.09375 99 65.09375  C 100.90625 65.09375 101.796875 65.09375 101.796875 66.984375  C 101.796875 68 101.09375 68 99.203125 68  L 87.203125 68  C 84.703125 68 84.59375 67.890625 83.5 66.296875  L 47 8.859375  L 39.5 65.796875  C 39.203125 68 39.09375 68 36.5 68  L 24.09375 68  C 22.203125 68 21.296875 68 21.296875 66.09375  C 21.296875 65.09375 22.203125 65.09375 23.703125 65.09375  C 29.796875 65.09375 29.796875 64.296875 29.796875 63.203125  C 29.796875 63 29.796875 62.40625 29.40625 60.90625  L 16.59375 10.15625  C 15.40625 5.375 13.09375 3.1875 6.40625 2.890625  C 6.09375 2.890625 4.90625 2.796875 4.90625 1.09375  C 4.90625 0 5.796875 0 6.203125 0  C 8.203125 0 13.296875 0.1875 15.296875 0.1875  L 20.09375 0.1875  C 21.5 0.1875 23.203125 0 24.59375 0  C 25.296875 0 26.40625 0 26.40625 1.890625  C 26.40625 2.796875 25.40625 2.890625 25 2.890625  C 21.703125 2.984375 18.5 3.59375 18.5 7.171875  C 18.5 8.171875 18.5 8.265625 18.90625 9.65625  L 32.703125 64.5  L 32.796875 64.5  L 41.09375 2.6875  C 41.40625 0.296875 41.5 0 42.40625 0  C 43.5 0 44 0.796875 44.5 1.6875  L 84.703125 64.984375  L 84.796875 64.984375  L 70.296875 7.375  C 69.40625 3.890625 69.203125 2.890625 62.203125 2.890625  C 60.296875 2.890625 59.296875 2.890625 59.296875 1.09375  C 59.296875 0 60.203125 0 60.796875 0  C 62.5 0 64.5 0.1875 66.203125 0.1875  L 78 0.1875  C 79.703125 0.1875 81.796875 0 83.5 0  C 84.296875 0 85.40625 0 85.40625 1.890625  C 85.40625 2.890625 84.5 2.890625 83 2.890625  C 76.90625 2.890625 76.90625 3.6875 76.90625 4.6875  C 76.90625 4.78125 76.90625 5.484375 77.09375 6.28125  z "
       id="CMMI12-77" />
    <path
       d="M 63.5 69.09375  C 63.5 70 62.796875 70 62.59375 70  C 62.203125 70 62.09375 69.890625 60.90625 68.390625  C 60.296875 67.6875 56.203125 62.53125 56.09375 62.4375  C 52.796875 68.890625 46.203125 70 42 70  C 29.296875 70 17.796875 58.46875 17.796875 47.25  C 17.796875 39.796875 22.296875 35.4375 27.203125 33.75  C 28.296875 33.34375 34.203125 31.765625 37.203125 31.0625  C 42.296875 29.671875 43.59375 29.28125 45.703125 27.09375  C 46.09375 26.59375 48.09375 24.3125 48.09375 19.65625  C 48.09375 10.421875 39.5 0.890625 29.5 0.890625  C 21.296875 0.890625 12.203125 4.359375 12.203125 15.484375  C 12.203125 17.375 12.59375 19.75 12.90625 20.75  C 12.90625 21.046875 13 21.53125 13 21.734375  C 13 22.140625 12.796875 22.625 12 22.625  C 11.09375 22.625 11 22.4375 10.59375 20.75  L 5.5 0.390625  C 5.5 0.296875 5.09375 -1 5.09375 -1.109375  C 5.09375 -2 5.90625 -2 6.09375 -2  C 6.5 -2 6.59375 -1.90625 7.796875 -0.40625  L 12.40625 5.5625  C 14.796875 1.984375 20 -2 29.296875 -2  C 42.203125 -2 54 10.421875 54 22.828125  C 54 27 53 30.671875 49.203125 34.34375  C 47.09375 36.421875 45.296875 36.921875 36.09375 39.3125  C 29.40625 41.09375 28.5 41.390625 26.703125 42.984375  C 25 44.671875 23.703125 47.046875 23.703125 50.421875  C 23.703125 58.765625 32.203125 67.296875 41.703125 67.296875  C 51.5 67.296875 56.09375 61.34375 56.09375 51.90625  C 56.09375 49.328125 55.59375 46.65625 55.59375 46.25  C 55.59375 45.359375 56.40625 45.359375 56.703125 45.359375  C 57.59375 45.359375 57.703125 45.65625 58.09375 47.25  z "
       id="CMMI12-83" />
    <path
       d="M 41.703125 15.46875  L 39.90625 15.46875  C 38.90625 8.390625 38.09375 7.1875 37.703125 6.59375  C 37.203125 5.796875 30 5.796875 28.59375 5.796875  L 9.40625 5.796875  C 13 9.6875 20 16.765625 28.5 24.9375  C 34.59375 30.71875 41.703125 37.5 41.703125 47.390625  C 41.703125 59.1875 32.296875 66 21.796875 66  C 10.796875 66 4.09375 56.296875 4.09375 47.296875  C 4.09375 43.390625 7 42.890625 8.203125 42.890625  C 9.203125 42.890625 12.203125 43.484375 12.203125 46.984375  C 12.203125 50.09375 9.59375 51 8.203125 51  C 7.59375 51 7 50.890625 6.59375 50.6875  C 8.5 59.1875 14.296875 63.390625 20.40625 63.390625  C 29.09375 63.390625 34.796875 56.5 34.796875 47.390625  C 34.796875 38.703125 29.703125 31.21875 24 24.734375  L 4.09375 2.296875  L 4.09375 0  L 39.296875 0  z "
       id="CMR17-50" />
    <path
       d="M 59 58.78125  C 59.90625 60.984375 61.5 65.296875 68.203125 65.390625  L 68.203125 68  C 65.90625 67.796875 63.296875 67.796875 60.796875 67.796875  C 58.40625 67.796875 54.296875 67.796875 52 68  L 52 65.390625  C 57 65.09375 57.203125 61.59375 57.203125 60.984375  C 57.203125 59.890625 56.90625 59.1875 56.59375 58.390625  L 36.90625 7  L 16.296875 60.984375  C 16 61.6875 15.796875 62.1875 15.796875 62.6875  C 15.796875 65.390625 19.796875 65.390625 21.90625 65.390625  L 21.90625 68  C 18.703125 67.796875 14 67.796875 10.703125 67.796875  C 8.09375 67.796875 3.40625 67.796875 1 68  L 1 65.390625  C 6.796875 65.390625 7.90625 65 9.09375 61.796875  L 32.90625 -0.40625  C 33.40625 -1.8125 33.5 -2 34.59375 -2  C 35.703125 -2 35.796875 -1.8125 36.296875 -0.40625  z "
       id="CMR17-86-4" />
    <clipPath
       id="pef5c1d0add">
      <rect
         height="114.03736"
         width="123.024896"
         x="38.925311"
         y="8"
         id="rect2207" />
    </clipPath>
    <clipPath
       id="p97a5b41b5b">
      <rect
         height="114.03736"
         width="123.024896"
         x="169.950207"
         y="8"
         id="rect2210" />
    </clipPath>
    <clipPath
       id="p9bdadc5543">
      <rect
         height="114.03736"
         width="123.024896"
         x="300.975104"
         y="8"
         id="rect2213" />
    </clipPath>
  </defs>
  <g
     id="axes_3"
     transform="translate(-3,-2.6)">
    <g
       id="axes_1-0">
      <g
         id="patch_2-4">
        <path
           d="M 38.925311,122.03736 H 161.95021 V 8 H 38.925311 Z"
           style="fill:#ffffff"
           id="path1824" />
      </g>
      <g
         id="matplotlib.axis_1-4">
        <g
           id="text_1-4">
          <!-- Fe6(Mo) -->
          <g
             style="fill:#262626"
             transform="matrix(0.1,0,0,-0.1,81.965321,133.50934)"
             id="g1850">
            <defs
               id="defs1834">
              <path
                 d="M 54.40625,67.796875 H 5.09375 V 65.1875 c 6.90625,0 8,0 8,-4.515625 V 7.03125 c 0,-4.4375 -1.09375,-4.4375 -8,-4.4375 V 0 c 2.90625,0.1875 8.5,0.1875 11.609375,0.1875 4.09375,0 8.890625,0 13,-0.1875 V 2.59375 H 27.5 c -7.59375,0 -7.796875,0.984375 -7.796875,4.53125 v 25.265625 h 9 c 9.296875,0 10.203125,-3.25 10.203125,-11.546875 h 1.796875 V 46.734375 H 38.90625 C 38.90625,38.296875 38,35 28.703125,35 h -9 v 26.28125 c 0,3.40625 0.203125,3.90625 4.203125,3.90625 H 36.796875 C 51.90625,65.1875 53.59375,58.96875 55,45.625 h 1.796875 z"
                 id="path2257" />
              <path
                 d="M 38.09375,23.484375 C 38.5,23.890625 38.5,24.09375 38.5,25.09375 38.5,35.171875 33.09375,44 21.703125,44 c -10.609375,0 -19,-10.015625 -19,-22.21875 C 2.703125,8.65625 12.203125,-1 22.796875,-1 34,-1 38.40625,9.671875 38.40625,11.796875 38.40625,12.5 37.796875,12.5 37.59375,12.5 c -0.6875,0 -0.796875,-0.203125 -1.1875,-1.421875 C 34.203125,4.21875 28.703125,0.796875 23.5,0.796875 19.203125,0.796875 14.90625,3.21875 12.203125,7.65625 9.09375,12.796875 9.09375,18.75 9.09375,23.484375 Z M 9.203125,25 C 9.90625,39.234375 17.59375,42.390625 21.59375,42.390625 28.40625,42.390625 33,36.0625 33.09375,25 Z"
                 id="path2259" />
              <path
                 d="M 10.59375,34.34375 C 10.59375,58 21.796875,63.6875 28.296875,63.6875 30.40625,63.6875 35.5,63.265625 37.5,59.09375 c -1.59375,0 -4.59375,0 -4.59375,-3.5 C 32.90625,52.890625 35.09375,52 36.5,52 c 0.90625,0 3.59375,0.390625 3.59375,3.796875 0,6.5 -5,10.203125 -11.890625,10.203125 C 16.296875,66 3.796875,53.296875 3.796875,31.421875 3.796875,4.015625 15.09375,-2 23.09375,-2 32.796875,-2 42,6.734375 42,20.234375 42,32.828125 33.90625,42 23.703125,42 17.59375,42 13.09375,37.96875 10.59375,30.921875 Z m 12.5,-33.953125 c -12.296875,0 -12.296875,18.546875 -12.296875,22.265625 0,7.25 3.40625,17.734375 12.703125,17.734375 1.703125,0 6.59375,0 9.90625,-6.953125 1.796875,-3.921875 1.796875,-8.0625 1.796875,-13.09375 0,-5.4375 0,-9.46875 -2.109375,-13.5 -2.1875,-4.140625 -5.390625,-6.453125 -10,-6.453125 z"
                 id="path2261" />
              <path
                 d="m 30.59375,-24.40625 c 0,0.09375 0,0.296875 -0.296875,0.59375 -4.59375,4.703125 -16.890625,17.515625 -16.890625,48.75 0,31.234375 12.09375,43.9375 17,48.953125 0,0.09375 0.1875,0.296875 0.1875,0.59375 0,0.3125 -0.296875,0.515625 -0.6875,0.515625 -1.109375,0 -9.609375,-7.421875 -14.5,-18.4375 C 10.40625,45.453125 9,34.65625 9,25.046875 9,17.828125 9.703125,5.625 15.703125,-7.296875 20.5,-17.703125 28.703125,-25 29.90625,-25 c 0.5,0 0.6875,0.1875 0.6875,0.59375 z"
                 id="path2263" />
              <path
                 d="M 20.90625,66.390625 C 20.296875,67.890625 20.203125,68 18.09375,68 H 5.296875 v -2.609375 c 6.90625,0 8,0 8,-4.484375 V 9.75 c 0,-2.484375 0,-7.15625 -8,-7.15625 V 0 c 2.296875,0.1875 6.5,0.1875 9,0.1875 2.5,0 6.703125,0 9,-0.1875 v 2.59375 c -8,0 -8,4.671875 -8,7.15625 v 55.234375 h 0.109375 l 23.5,-63.390625 C 39.296875,0.59375 39.5,0 40.296875,0 c 0.796875,0 1,0.59375 1.40625,1.59375 L 65.40625,65.484375 H 65.5 V 7.078125 C 65.5,2.59375 64.40625,2.59375 57.5,2.59375 V 0 c 2.703125,0.1875 8.09375,0.1875 11,0.1875 2.90625,0 8.40625,0 11.09375,-0.1875 v 2.59375 c -6.890625,0 -8,0 -8,4.484375 V 60.90625 c 0,4.484375 1.109375,4.484375 8,4.484375 V 68 h -12.6875 c -2.109375,0 -2.203125,-0.109375 -2.8125,-1.609375 L 42.5,8.0625 Z"
                 id="path2265" />
              <path
                 d="M 43.09375,21.1875 C 43.09375,34 33.796875,44 22.90625,44 12,44 2.703125,34 2.703125,21.1875 2.703125,8.59375 12,-1 22.90625,-1 c 10.890625,0 20.1875,9.59375 20.1875,22.1875 z M 22.90625,0.796875 c -4.703125,0 -8.703125,2.796875 -11,6.703125 -2.5,4.5 -2.8125,10.09375 -2.8125,14.5 0,4.1875 0.203125,9.390625 2.8125,13.890625 2,3.296875 5.890625,6.5 11,6.5 4.5,0 8.296875,-2.5 10.6875,-6 C 36.703125,31.6875 36.703125,25.09375 36.703125,22 36.703125,18.09375 36.5,12.09375 33.796875,7.296875 31,2.6875 26.703125,0.796875 22.90625,0.796875 Z"
                 id="path2267" />
              <path
                 d="m 26.296875,24.9375 c 0,7.203125 -0.703125,19.421875 -6.703125,32.328125 C 14.796875,67.6875 6.59375,75 5.40625,75 5.09375,75 4.703125,74.890625 4.703125,74.390625 c 0,-0.203125 0.09375,-0.296875 0.203125,-0.5 4.796875,-5.015625 17,-17.71875 17,-48.84375 0,-31.234375 -12.109375,-43.953125 -17,-48.953125 -0.109375,-0.203125 -0.203125,-0.296875 -0.203125,-0.5 0,-0.5 0.390625,-0.59375 0.703125,-0.59375 1.09375,0 9.59375,7.390625 14.5,18.40625 5,11.109375 6.390625,21.921875 6.390625,31.53125 z"
                 id="path2269" />
            </defs>
            <use
               transform="scale(0.996264)"
               xlink:href="#CMR17-70-4"
               id="use1836"
               x="0"
               y="0"
               width="100%"
               height="100%" />
            <use
               transform="matrix(0.996264,0,0,0.996264,52.176591,0)"
               xlink:href="#CMR17-101-7"
               id="use1838"
               x="0"
               y="0"
               width="100%"
               height="100%" />
            <use
               transform="matrix(0.996264,0,0,0.996264,92.662252,0)"
               xlink:href="#CMR17-54-6"
               id="use1840"
               x="0"
               y="0"
               width="100%"
               height="100%" />
            <use
               transform="matrix(0.996264,0,0,0.996264,138.35273,0)"
               xlink:href="#CMR17-40-3"
               id="use1842"
               x="0"
               y="0"
               width="100%"
               height="100%" />
            <use
               transform="matrix(0.996264,0,0,0.996264,173.6335,0)"
               xlink:href="#CMR17-77-1"
               id="use1844"
               x="0"
               y="0"
               width="100%"
               height="100%" />
            <use
               transform="matrix(0.996264,0,0,0.996264,258.32044,0)"
               xlink:href="#CMR17-111-7"
               id="use1846"
               x="0"
               y="0"
               width="100%"
               height="100%" />
            <use
               transform="matrix(0.996264,0,0,0.996264,304.01091,0)"
               xlink:href="#CMR17-41-5"
               id="use1848"
               x="0"
               y="0"
               width="100%"
               height="100%" />
          </g>
        </g>
      </g>
      <g
         id="matplotlib.axis_2-9">
        <g
           id="ytick_1-6">
          <g
             id="line2d_1-2">
            <path
               clip-path="url(#pef5c1d0add)"
               d="M 38.925311,122.03736 H 161.95021"
               style="fill:none;stroke:#cccccc;stroke-width:0.8;stroke-linecap:round"
               id="path1854" />
          </g>
          <g
             id="text_2-1">
            <!-- $\mathdefault{0}$ -->
            <g
               style="fill:#262626"
               transform="matrix(0.1,0,0,-0.1,26.943975,125.49661)"
               id="g1862">
              <defs
                 id="defs1858">
                <path
                   d="m 42,31.84375 c 0,6.125 -0.09375,16.578125 -4.296875,24.609375 C 34,63.484375 28.09375,66 22.90625,66 18.09375,66 12,63.78125 8.203125,56.5625 4.203125,49.015625 3.796875,39.671875 3.796875,31.84375 3.796875,26.109375 3.90625,17.375 7,9.734375 11.296875,-0.609375 19,-2 22.90625,-2 27.5,-2 34.5,-0.109375 38.59375,9.4375 41.59375,16.375 42,24.5 42,31.84375 Z m -19.09375,-32.25 C 16.5,-0.40625 12.703125,5.125 11.296875,12.75 c -1.09375,5.9375 -1.09375,14.578125 -1.09375,20.203125 0,7.734375 0,14.15625 1.296875,20.28125 1.90625,8.546875 7.5,11.15625 11.40625,11.15625 4.09375,0 9.390625,-2.71875 11.296875,-10.953125 C 35.5,47.71875 35.59375,40.984375 35.59375,32.953125 c 0,-6.53125 0,-14.578125 -1.1875,-20.5 -2.109375,-10.953125 -8,-12.859375 -11.5,-12.859375 z"
                   id="path2284" />
              </defs>
              <use
                 transform="scale(0.996264)"
                 xlink:href="#CMR17-48-7"
                 id="use1860"
                 x="0"
                 y="0"
                 width="100%"
                 height="100%" />
            </g>
          </g>
        </g>
        <g
           id="ytick_2-8">
          <g
             id="line2d_2-5">
            <path
               clip-path="url(#pef5c1d0add)"
               d="M 38.925311,81.309731 H 161.95021"
               style="fill:none;stroke:#cccccc;stroke-width:0.8;stroke-linecap:round"
               id="path1866" />
          </g>
          <g
             id="text_3-7">
            <!-- $\mathdefault{5}$ -->
            <g
               style="fill:#262626"
               transform="matrix(0.1,0,0,-0.1,26.943975,84.768981)"
               id="g1874">
              <defs
                 id="defs1870">
                <path
                   d="m 11.40625,58.59375 c 1,-0.40625 5.09375,-1.703125 9.296875,-1.703125 9.296875,0 14.390625,5 17.296875,7.796875 C 38,65.484375 38,66 37.40625,66 c -0.109375,0 -0.3125,0 -1.109375,-0.40625 -3.5,-1.5 -7.59375,-2.59375 -12.59375,-2.59375 -3,0 -7.5,0.359375 -12.40625,2.484375 C 10.203125,66 10,66 9.90625,66 9.40625,66 9.296875,65.890625 9.296875,63.90625 V 34.859375 c 0,-1.84375 0,-2.359375 1,-2.359375 0.5,0 0.703125,0.203125 1.203125,0.921875 C 14.703125,38.046875 19.09375,40 24.09375,40 c 3.5,0 11,-2.265625 11,-19.796875 0,-3.21875 0,-9.015625 -3,-13.609375 -2.5,-4.109375 -6.390625,-6.203125 -10.6875,-6.203125 -6.609375,0 -13.3125,4.59375 -15.109375,12.296875 C 6.703125,12.59375 7.5,12.390625 7.90625,12.390625 c 1.296875,0 3.796875,0.703125 3.796875,3.796875 C 11.703125,18.890625 9.796875,20 7.90625,20 5.59375,20 4.09375,18.59375 4.09375,15.796875 4.09375,7.09375 11,-2 21.59375,-2 c 10.3125,0 20.109375,8.890625 20.109375,21.796875 0,12.296875 -7.796875,21.796875 -17.5,21.796875 -5.109375,0 -9.40625,-1.90625 -12.796875,-5.59375 z"
                   id="path2293" />
              </defs>
              <use
                 transform="scale(0.996264)"
                 xlink:href="#CMR17-53-4"
                 id="use1872"
                 x="0"
                 y="0"
                 width="100%"
                 height="100%" />
            </g>
          </g>
        </g>
        <g
           id="ytick_3-1">
          <g
             id="line2d_3-8">
            <path
               clip-path="url(#pef5c1d0add)"
               d="M 38.925311,40.582103 H 161.95021"
               style="fill:none;stroke:#cccccc;stroke-width:0.8;stroke-linecap:round"
               id="path1878" />
          </g>
          <g
             id="text_4-5">
            <!-- $\mathdefault{10}$ -->
            <g
               style="fill:#262626"
               transform="matrix(0.1,0,0,-0.1,21.96264,44.041352)"
               id="g1888">
              <defs
                 id="defs1882">
                <path
                   d="M 26.59375,63.796875 C 26.59375,65.890625 26.5,66 25.09375,66 21.203125,61.359375 15.296875,59.890625 9.703125,59.6875 c -0.296875,0 -0.796875,0 -0.90625,-0.1875 C 8.703125,59.296875 8.703125,59.09375 8.703125,57 11.796875,57 17,57.59375 21,59.984375 v -52.6875 c 0,-3.5 -0.203125,-4.703125 -8.796875,-4.703125 h -3 V 0 C 14,0.09375 19,0.1875 23.796875,0.1875 28.59375,0.1875 33.59375,0.09375 38.40625,0 v 2.59375 h -3 c -8.609375,0 -8.8125,1.09375 -8.8125,4.703125 z"
                   id="path2302" />
              </defs>
              <use
                 transform="scale(0.996264)"
                 xlink:href="#CMR17-49-9"
                 id="use1884"
                 x="0"
                 y="0"
                 width="100%"
                 height="100%" />
              <use
                 transform="matrix(0.996264,0,0,0.996264,45.690477,0)"
                 xlink:href="#CMR17-48-7"
                 id="use1886"
                 x="0"
                 y="0"
                 width="100%"
                 height="100%" />
            </g>
          </g>
        </g>
        <g
           id="text_5-7">
          <!-- $\Delta E$ [\si{\kpm}] -->
          <g
             style="fill:#262626"
             transform="matrix(0,-0.1,-0.1,0,15.47198,96.65704)"
             id="g1928">
            <defs
               id="defs1902">
              <path
                 d="M 40.59375,69.296875 C 39.796875,71 39.40625,71 38.59375,71 c -1.1875,0 -1.296875,-0.203125 -2,-1.609375 L 4.203125,1.6875 C 4.09375,1.5 3.703125,0.59375 3.703125,0.5 3.703125,0.09375 3.796875,0 5.59375,0 H 71.5 c 1.796875,0 1.90625,0.09375 1.90625,0.5 0,0.09375 -0.40625,1 -0.5,1.1875 z M 36.09375,63.375 63.796875,5.59375 h -55.5 z"
                 id="path2310" />
              <path
                 d="m 69.5,23.265625 c 0.09375,0.296875 0.40625,1 0.40625,1.390625 0,0.515625 -0.40625,1.015625 -1,1.015625 C 68.5,25.671875 68.296875,25.5625 68,25.265625 67.796875,25.171875 67.796875,24.96875 66.90625,22.953125 61,8.90625 56.703125,2.890625 40.703125,2.890625 H 26.09375 c -1.390625,0 -1.59375,0 -2.1875,0.109375 -1.109375,0.09375 -1.203125,0.296875 -1.203125,1.09375 0,0.703125 0.203125,1.3125 0.390625,2.203125 L 30,34 h 9.90625 c 7.796875,0 8.390625,-1.71875 8.390625,-4.71875 0,-1 0,-1.90625 -0.703125,-4.921875 -0.1875,-0.390625 -0.296875,-0.796875 -0.296875,-1.09375 0,-0.703125 0.5,-1.015625 1.109375,-1.015625 0.890625,0 1,0.703125 1.390625,2.109375 L 55.5,47.4375 c 0,0.5 -0.40625,0.984375 -1,0.984375 -0.90625,0 -1,-0.390625 -1.40625,-1.765625 -2,-7.59375 -4,-9.765625 -12.890625,-9.765625 h -9.5 l 6.203125,24.25 c 0.890625,3.453125 1.09375,3.75 5.1875,3.75 h 14.3125 c 12.296875,0 14.796875,-3.25 14.796875,-10.75 0,-0.09375 0,-2.859375 -0.40625,-6.109375 -0.09375,-0.390625 -0.203125,-0.984375 -0.203125,-1.1875 0,-0.78125 0.5,-1.078125 1.109375,-1.078125 0.703125,0 1.09375,0.390625 1.296875,2.171875 l 2.09375,17.25 c 0,0.296875 0.203125,1.296875 0.203125,1.5 0,1.109375 -0.890625,1.109375 -2.703125,1.109375 H 23.796875 c -1.890625,0 -2.890625,0 -2.890625,-1.8125 0,-1.09375 0.6875,-1.09375 2.390625,-1.09375 6.203125,0 6.203125,-0.6875 6.203125,-1.78125 0,-0.484375 -0.09375,-0.875 -0.40625,-1.96875 L 15.59375,7.40625 C 14.703125,3.890625 14.5,2.890625 7.5,2.890625 c -1.90625,0 -2.90625,0 -2.90625,-1.796875 C 4.59375,0 5.203125,0 7.203125,0 H 57.40625 c 2.1875,0 2.296875,0.09375 3,1.6875 z"
                 id="path2312" />
              <path
                 d="m 23.5,-25 v 3.5 H 14.09375 V 71.484375 H 23.5 V 75 H 10.59375 V -25 Z"
                 id="path2314" />
              <path
                 d="M 26.09375,26.234375 C 26,26.4375 25.5,27.03125 25.5,27.328125 c 0,0.203125 7.09375,6.65625 8,7.453125 5.703125,4.78125 9.296875,5.265625 11.90625,5.375 v 2.578125 c -0.609375,0 -0.8125,0 -0.90625,-0.09375 L 39.59375,42.53125 c -2.796875,0 -7.09375,0 -9.796875,0.203125 V 40.15625 c 1.40625,-0.109375 2.40625,-0.890625 2.40625,-2.296875 0,-1.984375 -2,-3.875 -2.109375,-3.875 L 15,20.28125 V 69 L 3.09375,67.890625 v -2.59375 c 5.90625,0 6.8125,-0.59375 6.8125,-5.375 V 6.859375 C 9.90625,3.09375 9.5,2.59375 3.09375,2.59375 V 0 c 2.40625,0.1875 6.8125,0.1875 9.3125,0.1875 2.5,0 6.890625,0 9.296875,-0.1875 v 2.59375 c -6.40625,0 -6.796875,0.390625 -6.796875,4.265625 v 10.9375 L 21.796875,24.0625 31.90625,9.15625 c 1.1875,-1.796875 2.1875,-3.1875 2.1875,-4.484375 0,-1.78125 -1.796875,-2.078125 -3,-2.078125 V 0 C 33.5,0.1875 37.796875,0.1875 40.296875,0.1875 42.09375,0.1875 45.796875,0.09375 47.5,0 v 2.59375 c -4.703125,0 -5.796875,0.890625 -8.796875,5.265625 z"
                 id="path2316" />
              <path
                 d="M 34.90625,35 C 33,35 30.203125,35 30.203125,31.484375 c 0,-2.796875 2.296875,-3.59375 3.59375,-3.59375 0.703125,0 3.609375,0.296875 3.609375,3.796875 0,7 -6.8125,12.3125 -14.5,12.3125 C 12.296875,44 3.296875,34.390625 3.296875,21.546875 3.296875,8.140625 12.703125,-1 22.90625,-1 c 12.390625,0 15.5,11.5625 15.5,12.671875 0,0.40625 -0.109375,0.703125 -0.8125,0.703125 -0.6875,0 -0.796875,-0.09375 -1.1875,-1.40625 C 33.796875,2.8125 28.09375,0.796875 23.796875,0.796875 c -6.390625,0 -14.09375,5.9375 -14.09375,20.84375 C 9.703125,36.84375 17.09375,42.1875 23,42.1875 c 3.90625,0 9.703125,-1.84375 11.90625,-7.1875 z"
                 id="path2318" />
              <path
                 d="M 36,25.875 C 36,32 36,35.546875 31.796875,39.59375 28.09375,42.984375 23.796875,44 20.40625,44 12.5,44 6.796875,37.625 6.796875,30.890625 6.796875,27.1875 9.796875,27 10.40625,27 11.703125,27 14,27.796875 14,30.59375 c 0,2.5 -1.90625,3.59375 -3.59375,3.59375 C 10,34.1875 9.5,34.09375 9.203125,34 c 2.09375,6.53125 7.5,8.390625 11,8.390625 5,0 10.5,-4.5625 10.5,-13.09375 V 25.5 c -5.90625,-0.203125 -13,-1 -18.609375,-4.046875 C 5.796875,17.921875 4,12.84375 4,9 4,1.203125 13,-1 18.296875,-1 c 5.5,0 10.609375,3.109375 12.796875,8.890625 0.203125,-4.46875 3,-8.5 7.40625,-8.5 2.09375,0 7.40625,1.40625 7.40625,9.40625 v 5.671875 h -1.8125 V 8.703125 c 0,-6.1875 -2.6875,-7 -4,-7 C 36,1.703125 36,6.96875 36,11.4375 Z M 30.703125,13.859375 C 30.703125,5.046875 24.5,0.59375 19,0.59375 c -5,0 -8.90625,3.75 -8.90625,8.40625 0,3.046875 1.3125,8.40625 7.109375,11.65625 C 22,23.390625 27.5,23.796875 30.703125,24 Z"
                 id="path2320" />
              <path
                 d="M 15.296875,69 3.40625,67.890625 v -2.59375 c 5.890625,0 6.796875,-0.59375 6.796875,-5.375 V 6.859375 C 10.203125,3.09375 9.796875,2.59375 3.40625,2.59375 V 0 c 2.390625,0.1875 6.796875,0.1875 9.296875,0.1875 2.59375,0 7,0 9.390625,-0.1875 v 2.59375 c -6.390625,0 -6.796875,0.390625 -6.796875,4.265625 z"
                 id="path2322" />
              <path
                 d="m 42.90625,71.296875 c 0,0.09375 0.59375,1.59375 0.59375,1.796875 0,1.203125 -1,1.90625 -1.796875,1.90625 -0.5,0 -1.40625,0 -2.203125,-2.203125 L 6,-21.3125 c 0,-0.09375 -0.59375,-1.59375 -0.59375,-1.796875 0,-1.203125 1,-1.890625 1.796875,-1.890625 0.59375,0 1.5,0.09375 2.203125,2.1875 z"
                 id="path2324" />
              <path
                 d="M 67.59375,30.53125 C 67.59375,35.5625 66.703125,44 54.796875,44 48,44 43.296875,39.375 41.5,33.953125 H 41.40625 C 40.203125,42.1875 34.296875,44 28.703125,44 c -7.90625,0 -12,-6.125 -13.5,-10.15625 H 15.09375 V 44 L 3.296875,42.890625 V 40.28125 c 5.90625,0 6.796875,-0.59375 6.796875,-5.421875 V 6.921875 C 10.09375,3.09375 9.703125,2.59375 3.296875,2.59375 V 0 c 2.40625,0.1875 6.796875,0.1875 9.40625,0.1875 2.59375,0 7.09375,0 9.5,-0.1875 V 2.59375 C 15.796875,2.59375 15.40625,3 15.40625,6.921875 V 26.21875 C 15.40625,35.453125 21,42.390625 28,42.390625 c 7.40625,0 8.203125,-6.625 8.203125,-11.453125 V 6.921875 c 0,-3.828125 -0.40625,-4.328125 -6.796875,-4.328125 V 0 c 2.390625,0.1875 6.796875,0.1875 9.390625,0.1875 2.609375,0 7.109375,0 9.5,-0.1875 V 2.59375 C 41.90625,2.59375 41.5,3 41.5,6.921875 V 26.21875 c 0,9.234375 5.59375,16.171875 12.59375,16.171875 7.40625,0 8.203125,-6.625 8.203125,-11.453125 V 6.921875 C 62.296875,3.09375 61.90625,2.59375 55.5,2.59375 V 0 c 2.40625,0.1875 6.796875,0.1875 9.40625,0.1875 2.59375,0 7.09375,0 9.5,-0.1875 V 2.59375 C 68,2.59375 67.59375,3 67.59375,6.921875 Z"
                 id="path2326" />
              <path
                 d="M 14.296875,75 H 1.40625 v -3.515625 h 9.390625 V -21.5 H 1.40625 V -25 h 12.890625 z"
                 id="path2328" />
            </defs>
            <use
               transform="scale(0.996264)"
               xlink:href="#CMR17-1-5"
               id="use1904"
               x="0"
               y="0"
               width="100%"
               height="100%" />
            <use
               transform="matrix(0.996264,0,0,0.996264,76.91959,0)"
               xlink:href="#CMMI12-69-3"
               id="use1906"
               x="0"
               y="0"
               width="100%"
               height="100%" />
            <use
               transform="matrix(0.996264,0,0,0.996264,185.04719,0)"
               xlink:href="#CMR17-91-8"
               id="use1908"
               x="0"
               y="0"
               width="100%"
               height="100%" />
            <use
               transform="matrix(0.996264,0,0,0.996264,209.91825,0)"
               xlink:href="#CMR17-107-8"
               id="use1910"
               x="0"
               y="0"
               width="100%"
               height="100%" />
            <use
               transform="matrix(0.996264,0,0,0.996264,255.60871,0)"
               xlink:href="#CMR17-99-3"
               id="use1912"
               x="0"
               y="0"
               width="100%"
               height="100%" />
            <use
               transform="matrix(0.996264,0,0,0.996264,296.09437,0)"
               xlink:href="#CMR17-97-1"
               id="use1914"
               x="0"
               y="0"
               width="100%"
               height="100%" />
            <use
               transform="matrix(0.996264,0,0,0.996264,341.78485,0)"
               xlink:href="#CMR17-108-8"
               id="use1916"
               x="0"
               y="0"
               width="100%"
               height="100%" />
            <use
               transform="matrix(0.996264,0,0,0.996264,366.65591,0)"
               xlink:href="#CMMI12-61-9"
               id="use1918"
               x="0"
               y="0"
               width="100%"
               height="100%" />
            <use
               transform="matrix(0.996264,0,0,0.996264,415.43083,0)"
               xlink:href="#CMR17-109-6"
               id="use1920"
               x="0"
               y="0"
               width="100%"
               height="100%" />
            <use
               transform="matrix(0.996264,0,0,0.996264,492.35042,0)"
               xlink:href="#CMR17-111-7"
               id="use1922"
               x="0"
               y="0"
               width="100%"
               height="100%" />
            <use
               transform="matrix(0.996264,0,0,0.996264,538.04089,0)"
               xlink:href="#CMR17-108-8"
               id="use1924"
               x="0"
               y="0"
               width="100%"
               height="100%" />
            <use
               transform="matrix(0.996264,0,0,0.996264,562.91195,0)"
               xlink:href="#CMR17-93-4"
               id="use1926"
               x="0"
               y="0"
               width="100%"
               height="100%" />
          </g>
        </g>
      </g>
      <g
         id="patch_3-3">
        <path
           clip-path="url(#pef5c1d0add)"
           d="M 51.2278,122.03736 H 84.034439 V 74.449624 H 51.2278 Z"
           style="fill:#3274a1;stroke:#ffffff;stroke-linejoin:miter"
           id="path1932" />
      </g>
      <g
         id="patch_4-3">
        <path
           clip-path="url(#pef5c1d0add)"
           d="m 84.034439,122.03736 h 32.806641 v 0 z"
           style="fill:#e1812c;stroke:#ffffff;stroke-linejoin:miter"
           id="path1935" />
      </g>
      <g
         id="patch_5-3">
        <path
           clip-path="url(#pef5c1d0add)"
           d="m 116.84108,122.03736 h 32.80664 V 18.406416 h -32.80664 z"
           style="fill:#3a923a;stroke:#ffffff;stroke-linejoin:miter"
           id="path1938" />
      </g>
      <g
         id="line2d_4-8">
        <path
           clip-path="url(#pef5c1d0add)"
           d="M 0,0"
           style="fill:none;stroke:#424242;stroke-width:2.7;stroke-linecap:round"
           id="path1941" />
      </g>
      <g
         id="line2d_5-6">
        <path
           clip-path="url(#pef5c1d0add)"
           d="M 0,0"
           style="fill:none;stroke:#424242;stroke-width:2.7;stroke-linecap:round"
           id="path1944" />
      </g>
      <g
         id="line2d_6-0">
        <path
           clip-path="url(#pef5c1d0add)"
           d="M 0,0"
           style="fill:none;stroke:#424242;stroke-width:2.7;stroke-linecap:round"
           id="path1947" />
      </g>
      <g
         id="patch_6-4">
        <path
           d="M 38.925311,122.03736 V 8"
           style="fill:none;stroke:#262626;stroke-width:0.8;stroke-linecap:square;stroke-linejoin:miter"
           id="path1950" />
      </g>
      <g
         id="patch_7-8">
        <path
           d="M 161.95021,122.03736 V 8"
           style="fill:none;stroke:#262626;stroke-width:0.8;stroke-linecap:square;stroke-linejoin:miter"
           id="path1953" />
      </g>
      <g
         id="patch_8-8">
        <path
           d="M 38.925311,122.03736 H 161.95021"
           style="fill:none;stroke:#262626;stroke-width:0.8;stroke-linecap:square;stroke-linejoin:miter"
           id="path1956" />
      </g>
      <g
         id="patch_9-8">
        <path
           d="M 38.925311,8 H 161.95021"
           style="fill:none;stroke:#262626;stroke-width:0.8;stroke-linecap:square;stroke-linejoin:miter"
           id="path1959" />
      </g>
    </g>
    <g
       id="axes_2-9">
      <g
         id="patch_14-7">
        <path
           d="M 169.95021,122.03736 H 292.9751 V 8 H 169.95021 Z"
           style="fill:#ffffff"
           id="path2005" />
      </g>
      <g
         id="matplotlib.axis_3-7">
        <g
           id="text_10-6">
          <!-- Fe2(Mo) -->
          <g
             style="fill:#262626"
             transform="matrix(0.1,0,0,-0.1,212.99022,133.50934)"
             id="g2022">
            <use
               transform="scale(0.996264)"
               xlink:href="#CMR17-70-4"
               id="use2008"
               x="0"
               y="0"
               width="100%"
               height="100%" />
            <use
               transform="matrix(0.996264,0,0,0.996264,52.176591,0)"
               xlink:href="#CMR17-101-7"
               id="use2010"
               x="0"
               y="0"
               width="100%"
               height="100%" />
            <use
               transform="matrix(0.996264,0,0,0.996264,92.662252,0)"
               xlink:href="#CMR17-50"
               id="use2012"
               x="0"
               y="0"
               width="100%"
               height="100%" />
            <use
               transform="matrix(0.996264,0,0,0.996264,138.35273,0)"
               xlink:href="#CMR17-40-3"
               id="use2014"
               x="0"
               y="0"
               width="100%"
               height="100%" />
            <use
               transform="matrix(0.996264,0,0,0.996264,173.6335,0)"
               xlink:href="#CMR17-77-1"
               id="use2016"
               x="0"
               y="0"
               width="100%"
               height="100%" />
            <use
               transform="matrix(0.996264,0,0,0.996264,258.32044,0)"
               xlink:href="#CMR17-111-7"
               id="use2018"
               x="0"
               y="0"
               width="100%"
               height="100%" />
            <use
               transform="matrix(0.996264,0,0,0.996264,304.01091,0)"
               xlink:href="#CMR17-41-5"
               id="use2020"
               x="0"
               y="0"
               width="100%"
               height="100%" />
          </g>
        </g>
      </g>
      <g
         id="matplotlib.axis_4-4">
        <g
           id="ytick_4-3">
          <g
             id="line2d_7-0">
            <path
               clip-path="url(#p97a5b41b5b)"
               d="M 169.95021,122.03736 H 292.9751"
               style="fill:none;stroke:#cccccc;stroke-width:0.8;stroke-linecap:round"
               id="path2026" />
          </g>
        </g>
        <g
           id="ytick_5-3">
          <g
             id="line2d_8-0">
            <path
               clip-path="url(#p97a5b41b5b)"
               d="M 169.95021,81.309731 H 292.9751"
               style="fill:none;stroke:#cccccc;stroke-width:0.8;stroke-linecap:round"
               id="path2030" />
          </g>
        </g>
        <g
           id="ytick_6-9">
          <g
             id="line2d_9-2">
            <path
               clip-path="url(#p97a5b41b5b)"
               d="M 169.95021,40.582103 H 292.9751"
               style="fill:none;stroke:#cccccc;stroke-width:0.8;stroke-linecap:round"
               id="path2034" />
          </g>
        </g>
      </g>
      <g
         id="patch_15-5">
        <path
           clip-path="url(#p97a5b41b5b)"
           d="m 182.2527,122.03736 h 32.80664 V 75.102035 H 182.2527 Z"
           style="fill:#3274a1;stroke:#ffffff;stroke-linejoin:miter"
           id="path2039" />
      </g>
      <g
         id="patch_16-4">
        <path
           clip-path="url(#p97a5b41b5b)"
           d="m 215.05934,122.03736 h 32.80663 v 0 z"
           style="fill:#e1812c;stroke:#ffffff;stroke-linejoin:miter"
           id="path2042" />
      </g>
      <g
         id="patch_17-0">
        <path
           clip-path="url(#p97a5b41b5b)"
           d="m 247.86597,122.03736 h 32.80664 v -21.63095 h -32.80664 z"
           style="fill:#3a923a;stroke:#ffffff;stroke-linejoin:miter"
           id="path2045" />
      </g>
      <g
         id="line2d_10-5">
        <path
           clip-path="url(#p97a5b41b5b)"
           d="M 0,0"
           style="fill:none;stroke:#424242;stroke-width:2.7;stroke-linecap:round"
           id="path2048" />
      </g>
      <g
         id="line2d_11-9">
        <path
           clip-path="url(#p97a5b41b5b)"
           d="M 0,0"
           style="fill:none;stroke:#424242;stroke-width:2.7;stroke-linecap:round"
           id="path2051" />
      </g>
      <g
         id="line2d_12-4">
        <path
           clip-path="url(#p97a5b41b5b)"
           d="M 0,0"
           style="fill:none;stroke:#424242;stroke-width:2.7;stroke-linecap:round"
           id="path2054" />
      </g>
      <g
         id="patch_18-6">
        <path
           d="M 169.95021,122.03736 V 8"
           style="fill:none;stroke:#262626;stroke-width:0.8;stroke-linecap:square;stroke-linejoin:miter"
           id="path2057" />
      </g>
      <g
         id="patch_19-9">
        <path
           d="M 292.9751,122.03736 V 8"
           style="fill:none;stroke:#262626;stroke-width:0.8;stroke-linecap:square;stroke-linejoin:miter"
           id="path2060" />
      </g>
      <g
         id="patch_20-2">
        <path
           d="M 169.95021,122.03736 H 292.9751"
           style="fill:none;stroke:#262626;stroke-width:0.8;stroke-linecap:square;stroke-linejoin:miter"
           id="path2063" />
      </g>
      <g
         id="patch_21-2">
        <path
           d="M 169.95021,8 H 292.9751"
           style="fill:none;stroke:#262626;stroke-width:0.8;stroke-linecap:square;stroke-linejoin:miter"
           id="path2066" />
      </g>
    </g>
    <g
       id="axes_3-4">
      <g
         id="patch_26-7">
        <path
           d="M 300.9751,122.03736 H 424 V 8 H 300.9751 Z"
           style="fill:#ffffff"
           id="path2105" />
      </g>
      <g
         id="matplotlib.axis_5-7">
        <g
           id="text_15-5">
          <!-- Fe6(V) -->
          <g
             style="fill:#262626"
             transform="matrix(0.1,0,0,-0.1,347.336,133.50934)"
             id="g2123">
            <defs
               id="defs2109">
              <path
                 d="m 59,58.78125 c 0.90625,2.203125 2.5,6.515625 9.203125,6.609375 V 68 c -2.296875,-0.203125 -4.90625,-0.203125 -7.40625,-0.203125 -2.390625,0 -6.5,0 -8.796875,0.203125 v -2.609375 c 5,-0.296875 5.203125,-3.796875 5.203125,-4.40625 0,-1.09375 -0.296875,-1.796875 -0.609375,-2.59375 L 36.90625,7 16.296875,60.984375 c -0.296875,0.703125 -0.5,1.203125 -0.5,1.703125 0,2.703125 4,2.703125 6.109375,2.703125 V 68 C 18.703125,67.796875 14,67.796875 10.703125,67.796875 8.09375,67.796875 3.40625,67.796875 1,68 v -2.609375 c 5.796875,0 6.90625,-0.390625 8.09375,-3.59375 L 32.90625,-0.40625 C 33.40625,-1.8125 33.5,-2 34.59375,-2 c 1.109375,0 1.203125,0.1875 1.703125,1.59375 z"
                 id="path2464" />
            </defs>
            <use
               transform="scale(0.996264)"
               xlink:href="#CMR17-70-4"
               id="use2111"
               x="0"
               y="0"
               width="100%"
               height="100%" />
            <use
               transform="matrix(0.996264,0,0,0.996264,52.176591,0)"
               xlink:href="#CMR17-101-7"
               id="use2113"
               x="0"
               y="0"
               width="100%"
               height="100%" />
            <use
               transform="matrix(0.996264,0,0,0.996264,92.662252,0)"
               xlink:href="#CMR17-54-6"
               id="use2115"
               x="0"
               y="0"
               width="100%"
               height="100%" />
            <use
               transform="matrix(0.996264,0,0,0.996264,138.35273,0)"
               xlink:href="#CMR17-40-3"
               id="use2117"
               x="0"
               y="0"
               width="100%"
               height="100%" />
            <use
               transform="matrix(0.996264,0,0,0.996264,173.6335,0)"
               xlink:href="#CMR17-86-4"
               id="use2119"
               x="0"
               y="0"
               width="100%"
               height="100%" />
            <use
               transform="matrix(0.996264,0,0,0.996264,242.70593,0)"
               xlink:href="#CMR17-41-5"
               id="use2121"
               x="0"
               y="0"
               width="100%"
               height="100%" />
          </g>
        </g>
      </g>
      <g
         id="matplotlib.axis_6-8">
        <g
           id="ytick_7-1">
          <g
             id="line2d_13-2">
            <path
               clip-path="url(#p9bdadc5543)"
               d="M 300.9751,122.03736 H 424"
               style="fill:none;stroke:#cccccc;stroke-width:0.8;stroke-linecap:round"
               id="path2127" />
          </g>
        </g>
        <g
           id="ytick_8-8">
          <g
             id="line2d_14-9">
            <path
               clip-path="url(#p9bdadc5543)"
               d="M 300.9751,81.309731 H 424"
               style="fill:none;stroke:#cccccc;stroke-width:0.8;stroke-linecap:round"
               id="path2131" />
          </g>
        </g>
        <g
           id="ytick_9-3">
          <g
             id="line2d_15-6">
            <path
               clip-path="url(#p9bdadc5543)"
               d="M 300.9751,40.582103 H 424"
               style="fill:none;stroke:#cccccc;stroke-width:0.8;stroke-linecap:round"
               id="path2135" />
          </g>
        </g>
      </g>
      <g
         id="patch_27-8">
        <path
           clip-path="url(#p9bdadc5543)"
           d="m 313.27759,122.03736 h 32.80664 V 71.817756 h -32.80664 z"
           style="fill:#3274a1;stroke:#ffffff;stroke-linejoin:miter"
           id="path2140" />
      </g>
      <g
         id="patch_28-0">
        <path
           clip-path="url(#p9bdadc5543)"
           d="m 346.08423,122.03736 h 32.80664 v 0 z"
           style="fill:#e1812c;stroke:#ffffff;stroke-linejoin:miter"
           id="path2143" />
      </g>
      <g
         id="patch_29-2">
        <path
           clip-path="url(#p9bdadc5543)"
           d="m 378.89087,122.03736 h 32.80664 V 19.59709 h -32.80664 z"
           style="fill:#3a923a;stroke:#ffffff;stroke-linejoin:miter"
           id="path2146" />
      </g>
      <g
         id="line2d_16-1">
        <path
           clip-path="url(#p9bdadc5543)"
           d="M 0,0"
           style="fill:none;stroke:#424242;stroke-width:2.7;stroke-linecap:round"
           id="path2149" />
      </g>
      <g
         id="line2d_17-0">
        <path
           clip-path="url(#p9bdadc5543)"
           d="M 0,0"
           style="fill:none;stroke:#424242;stroke-width:2.7;stroke-linecap:round"
           id="path2152" />
      </g>
      <g
         id="line2d_18-5">
        <path
           clip-path="url(#p9bdadc5543)"
           d="M 0,0"
           style="fill:none;stroke:#424242;stroke-width:2.7;stroke-linecap:round"
           id="path2155" />
      </g>
      <g
         id="patch_30-1">
        <path
           d="M 300.9751,122.03736 V 8"
           style="fill:none;stroke:#262626;stroke-width:0.8;stroke-linecap:square;stroke-linejoin:miter"
           id="path2158" />
      </g>
      <g
         id="patch_31-1">
        <path
           d="M 424,122.03736 V 8"
           style="fill:none;stroke:#262626;stroke-width:0.8;stroke-linecap:square;stroke-linejoin:miter"
           id="path2161" />
      </g>
      <g
         id="patch_32-0">
        <path
           d="M 300.9751,122.03736 H 424"
           style="fill:none;stroke:#262626;stroke-width:0.8;stroke-linecap:square;stroke-linejoin:miter"
           id="path2164" />
      </g>
      <g
         id="patch_33-8">
        <path
           d="M 300.9751,8 H 424"
           style="fill:none;stroke:#262626;stroke-width:0.8;stroke-linecap:square;stroke-linejoin:miter"
           id="path2167" />
      </g>
    </g>
    <g
       id="line2d_16">
      <path
         clip-path="url(#pb4d79925b8)"
         d="M 0,0"
         style="fill:none;stroke:#424242;stroke-width:2.7;stroke-linecap:round"
         id="path336" />
    </g>
    <g
       id="line2d_17">
      <path
         clip-path="url(#pb4d79925b8)"
         d="M 0,0"
         style="fill:none;stroke:#424242;stroke-width:2.7;stroke-linecap:round"
         id="path339" />
    </g>
    <g
       id="line2d_18">
      <path
         clip-path="url(#pb4d79925b8)"
         d="M 0,0"
         style="fill:none;stroke:#424242;stroke-width:2.7;stroke-linecap:round"
         id="path342" />
    </g>
    <g
       id="legend_3"
       transform="translate(52.12326,-4.9)">
      <g
         id="patch_34">
        <path
           d="M 380.01866,74.569991 H 417 q 2,0 2,-2 V 15 q 0,-2 -2,-2 h -36.98134 q -2,0 -2,2 v 57.569991 q 0,2 2,2 z"
           style="opacity:0.8;fill:#ffffff;stroke:#cccccc;stroke-linejoin:miter"
           id="path357" />
      </g>
      <g
         id="text_16">
        <!-- $M_S$ -->
        <g
           style="fill:#262626"
           transform="matrix(0.1,0,0,-0.1,391.2307,24.598437)"
           id="g364">
          <path
             d="m 90.457658,60.491905 c 0.902864,3.362391 1.10523,4.358655 8.172478,4.358655 1.899124,0 2.786434,0 2.786434,1.883561 0,1.011831 -0.70051,1.011831 -2.584068,1.011831 H 86.877334 c -2.49066,0 -2.599626,-0.108966 -3.68929,-1.696762 L 46.824408,8.8262764 39.352428,65.551058 c -0.295766,2.194894 -0.404732,2.194894 -2.988792,2.194894 h -12.3599 c -1.883562,0 -2.786426,0 -2.786426,-1.899128 0,-0.996264 0.902864,-0.996264 2.39726,-0.996264 6.070984,0 6.070984,-0.793898 6.070984,-1.883562 0,-0.202366 0,-0.793898 -0.389166,-2.288294 L 16.531756,10.118306 C 15.348692,5.354919 13.044832,3.1755915 6.3823163,2.8798256 c -0.3113326,0 -1.494396,-0.0934 -1.494396,-1.7901618 C 4.8879203,0 5.7752179,0 6.1799501,0 8.1724781,0 13.247198,0.1867995 15.239726,0.1867995 H 20.01868 C 21.419676,0.1867995 23.116438,0 24.501868,0 c 0.700498,0 1.805728,0 1.805728,1.8835616 0,0.9028643 -0.996264,0.996264 -1.400996,0.996264 -3.284558,0.0934 -6.475716,0.7004982 -6.475716,4.2652553 0,0.996264 0,1.0896637 0.404732,2.4750934 l 13.74533,54.6388537 h 0.0934 L 40.940224,2.6774595 C 41.251556,0.29576588 41.344956,0 42.24782,0 c 1.089664,0 1.587796,0.79389788 2.085928,1.6811955 L 84.386674,64.741593 h 0.0934 L 70.034246,7.347447 C 69.146948,3.8760896 68.944582,2.8798256 61.970734,2.8798256 c -1.899128,0 -2.895392,0 -2.895392,-1.7901618 C 59.075342,0 59.978206,0 60.569738,0 62.2665,0 64.259028,0.1867995 65.95579,0.1867995 H 77.708592 C 79.405354,0.1867995 81.491282,0 83.188044,0 c 0.793898,0 1.899128,0 1.899128,1.8835616 0,0.996264 -0.902864,0.996264 -2.39726,0.996264 -6.070984,0 -6.070984,0.7938979 -6.070984,1.7901619 0,0.0934 0,0.7938979 0.1868,1.5877957 z"
             id="use360"
             style="stroke-width:0.996264" />
          <path
             d="m 138.65718,33.240823 c 0,0.632002 -0.49034,0.632002 -0.632,0.632002 -0.27242,0 -0.34869,-0.07628 -1.17683,-1.122349 -0.42497,-0.490347 -3.27988,-4.086223 -3.35615,-4.151602 -2.29918,4.500293 -6.89755,5.273951 -9.82873,5.273951 -8.85893,0 -16.87882,-8.041686 -16.87882,-15.865441 0,-5.197675 3.13821,-8.2378244 6.55974,-9.4146565 0.76277,-0.2833114 4.88168,-1.3838674 6.97382,-1.8742141 3.55229,-0.9697969 4.45671,-1.2422117 5.92775,-2.7677348 0.27242,-0.348691 1.66718,-1.9395937 1.66718,-5.1867787 0,-6.4398869 -5.99313,-13.0868089 -12.96695,-13.0868089 -5.72071,0 -12.06253,2.419044 -12.06253,10.1774184 0,1.3184878 0.27242,2.9747701 0.49035,3.6721521 0,0.20703528 0.0654,0.54482969 0.0654,0.68648541 0,0.28331143 -0.14165,0.62110584 -0.69738,0.62110584 -0.632,0 -0.69738,-0.13075913 -0.98069,-1.30759125 L 98.209026,-14.6715 c 0,-0.06538 -0.283311,-0.969797 -0.283311,-1.046073 0,-0.621106 0.566622,-0.621106 0.697382,-0.621106 0.283311,0 0.348691,0.06538 1.187728,1.111453 l 3.214495,4.162498 c 1.66718,-2.49532 5.29575,-5.273951 11.77922,-5.273951 9.00058,0 17.22751,8.662792 17.22751,17.31468747 0,2.90939053 -0.69738,5.47009003 -3.34525,8.03078963 -1.47104,1.4492469 -2.72415,1.7979379 -9.14224,3.4651169 -4.66375,1.242212 -5.29575,1.449247 -6.54886,2.560699 -1.18772,1.176833 -2.09214,2.833115 -2.09214,5.186779 0,5.818781 5.92774,11.768321 12.55287,11.768321 6.83217,0 10.03577,-4.151602 10.03577,-10.733145 0,-1.797938 -0.34869,-3.661255 -0.34869,-3.944567 0,-0.621105 0.56662,-0.621105 0.77365,-0.621105 0.62111,0 0.69739,0.207035 0.9698,1.318487 z"
             id="use362"
             style="stroke-width:0.697382" />
        </g>
      </g>
      <g
         id="patch_35">
        <path
           d="m 382.01866,39.276562 h 20 v -7 h -20 z"
           style="fill:#3274a1;stroke:#ffffff;stroke-linejoin:miter"
           id="path367" />
      </g>
      <g
         id="text_17">
        <!-- 0 -->
        <g
           style="fill:#262626"
           transform="matrix(0.1,0,0,-0.1,410.01866,39.276562)"
           id="g372">
          <path
             d="m 41.843088,31.724782 c 0,6.102117 -0.0934,16.516189 -4.280822,24.517434 -3.68929,7.004981 -9.573474,9.511208 -14.741594,9.511208 -4.79452,0 -10.865504,-2.210461 -14.6481939,-9.402242 -3.985056,-7.518679 -4.3897882,-16.827521 -4.3897882,-24.6264 0,-5.712952 0.1089664,-14.414695 3.1911581,-22.0267746 C 11.25467,-0.60709838 18.929016,-1.992528 22.820672,-1.992528 c 4.576588,0 11.550436,1.88356162 15.628892,11.3947695 2.988792,6.9115815 3.393524,15.0062265 3.393524,22.3225405 z M 22.820672,-0.40473225 c -6.382316,0 -10.165006,5.51058525 -11.566002,13.10709825 -1.089664,5.915318 -1.089664,14.523661 -1.089664,20.127646 0,7.705479 0,14.103362 1.29203,20.205479 1.899128,8.514944 7.47198,11.114571 11.363636,11.114571 4.078456,0 9.355542,-2.708593 11.25467,-10.912204 1.29203,-5.697385 1.38543,-12.406601 1.38543,-20.407846 0,-6.506849 0,-14.523661 -1.183064,-20.423412 C 32.176214,1.494396 26.307596,-0.40473225 22.820672,-0.40473225 Z"
             id="use370"
             style="stroke-width:0.996264" />
        </g>
      </g>
      <g
         id="patch_36">
        <path
           d="m 382.01866,53.954687 h 20 v -7 h -20 z"
           style="fill:#e1812c;stroke:#ffffff;stroke-linejoin:miter"
           id="path375" />
      </g>
      <g
         id="text_18">
        <!-- 1 -->
        <g
           style="fill:#262626"
           transform="matrix(0.1,0,0,-0.1,410.01866,53.954687)"
           id="g380">
          <path
             d="m 26.494396,63.55853 c 0,2.085928 -0.0934,2.194894 -1.494396,2.194894 -3.87609,-4.623288 -9.760274,-6.08655 -15.3331259,-6.288916 -0.2957658,0 -0.7938978,0 -0.9028642,-0.1868 -0.0934,-0.202366 -0.0934,-0.404732 -0.0934,-2.49066 3.0821921,0 8.2658781,0.591532 12.2509341,2.973225 V 7.2696139 c 0,-3.486924 -0.202366,-4.6855541 -8.76401,-4.6855541 H 9.1687421 V 0 C 13.947696,0.09339975 18.929016,0.1867995 23.70797,0.1867995 28.486924,0.1867995 33.468244,0.09339975 38.262764,0 v 2.5840598 h -2.988792 c -8.57721,0 -8.779576,1.0896637 -8.779576,4.6855541 z"
             id="use378"
             style="stroke-width:0.996264" />
        </g>
      </g>
      <g
         id="patch_37">
        <path
           d="m 382.01866,68.632812 h 20 v -7 h -20 z"
           style="fill:#3a923a;stroke:#ffffff;stroke-linejoin:miter"
           id="path383" />
      </g>
      <g
         id="text_19">
        <!-- 2 -->
        <g
           style="fill:#262626"
           transform="matrix(0.1,0,0,-0.1,410.01866,68.632812)"
           id="g388">
          <path
             d="M 41.547322,15.410959 H 39.75716 C 38.760896,8.3592776 37.951432,7.1606475 37.562266,6.5691157 37.064134,5.7752179 29.88792,5.7752179 28.486924,5.7752179 H 9.3711083 C 12.951432,9.6513075 19.92528,16.702989 28.393524,24.844333 c 6.070984,5.759652 13.153798,12.515567 13.153798,22.369241 0,11.752802 -9.371108,18.53985 -19.83188,18.53985 -10.958904,0 -17.6369863,-9.666874 -17.6369863,-18.63325 0,-3.891656 2.8953923,-4.389788 4.0940224,-4.389788 0.996264,0 3.9850559,0.591531 3.9850559,4.078455 0,3.097759 -2.5996262,4.000623 -3.9850559,4.000623 -0.6070984,0 -1.1986301,-0.108966 -1.6033624,-0.311333 1.8991283,8.468245 7.6743463,12.655667 13.7608963,12.655667 8.655044,0 14.336862,-6.864882 14.336862,-15.940224 0,-8.655044 -5.07472,-16.111457 -10.756538,-22.571607 L 4.0784557,2.2882939 V 0 H 39.150062 Z"
             id="use386"
             style="stroke-width:0.996264" />
        </g>
      </g>
    </g>
    <g
       ns0:version="1.4.0"
       ns0:texconverter="pdflatex"
       ns0:pdfconverter="inkscape"
       ns0:text="a)"
       ns0:preamble="/home/spiller/.config/inkscape/extensions/textext/default_packages.tex"
       ns0:scale="5.109281666581738"
       ns0:alignment="middle center"
       ns0:inkscapeversion="1.1.1"
       transform="matrix(1.4105743,0,0,1.4105743,41.9093,9.6864916)"
       ns0:jacobian_sqrt="5.10928"
       id="g1461">
      <defs
         id="id-c28625a4-776e-465e-b916-993fa9459cfc">
        <g
           id="id-dc34e2f8-d7f9-4fc2-b172-d3e6cc7b9210">
          <symbol
             overflow="visible"
             id="id-a293fd4f-8d90-4918-8462-0211a3355b7d">
            <path
               style="stroke:none;stroke-width:0"
               d=""
               id="id-2a8b9c02-dbc6-4e92-bcd9-0558b922c054" />
          </symbol>
          <symbol
             overflow="visible"
             id="id-8fb85e12-936a-4b17-8601-1a988d3a287d">
            <path
               style="stroke:none;stroke-width:0"
               d="m 3.3125,-0.75 c 0.046875,0.390625 0.3125,0.8125 0.78125,0.8125 0.21875,0 0.828125,-0.140625 0.828125,-0.953125 v -0.5625 h -0.25 v 0.5625 c 0,0.578125 -0.25,0.640625 -0.359375,0.640625 -0.328125,0 -0.375,-0.453125 -0.375,-0.5 v -1.984375 c 0,-0.421875 0,-0.8125 -0.359375,-1.1875 C 3.1875,-4.3125 2.6875,-4.46875 2.21875,-4.46875 c -0.828125,0 -1.515625,0.46875 -1.515625,1.125 0,0.296875 0.203125,0.46875 0.46875,0.46875 0.28125,0 0.453125,-0.203125 0.453125,-0.453125 0,-0.125 -0.046875,-0.453125 -0.515625,-0.453125 C 1.390625,-4.140625 1.875,-4.25 2.1875,-4.25 c 0.5,0 1.0625,0.390625 1.0625,1.28125 v 0.359375 c -0.515625,0.03125 -1.203125,0.0625 -1.828125,0.359375 -0.75,0.34375 -1,0.859375 -1,1.296875 0,0.8125 0.96875,1.0625 1.59375,1.0625 0.65625,0 1.109375,-0.40625 1.296875,-0.859375 z M 3.25,-2.390625 v 1 c 0,0.9375 -0.71875,1.28125 -1.171875,1.28125 -0.484375,0 -0.890625,-0.34375 -0.890625,-0.84375 0,-0.546875 0.421875,-1.375 2.0625,-1.4375 z m 0,0"
               id="id-c7676f7c-ded2-4d83-ba0a-925d1f1c35f0" />
          </symbol>
          <symbol
             overflow="visible"
             id="id-9bda4976-4c21-4bb4-963f-3ac5cc38d67d">
            <path
               style="stroke:none;stroke-width:0"
               d="m 2.875,-2.5 c 0,-0.765625 -0.109375,-1.96875 -0.65625,-3.109375 -0.59375,-1.21875 -1.453125,-1.875 -1.546875,-1.875 -0.0625,0 -0.109375,0.046875 -0.109375,0.109375 0,0.03125 0,0.046875 0.1875,0.234375 0.984375,0.984375 1.546875,2.5625 1.546875,4.640625 0,1.71875 -0.359375,3.46875 -1.59375,4.71875 C 0.5625,2.34375 0.5625,2.359375 0.5625,2.390625 0.5625,2.453125 0.609375,2.5 0.671875,2.5 0.765625,2.5 1.671875,1.8125 2.25,0.546875 2.765625,-0.546875 2.875,-1.65625 2.875,-2.5 Z m 0,0"
               id="id-dc22c394-8da1-4b43-8a92-46caa4644aad" />
          </symbol>
        </g>
      </defs>
      <g
         id="id-930bf174-a48c-4d35-b57d-0c18ce23cc99"
         transform="translate(-149.134,-127.281)">
        <g
           style="fill:#000000;fill-opacity:1"
           id="id-e98cd165-b7fd-428c-b925-1be06f589849">
          <g
             id="id-ae839263-27b5-4adc-a685-d2fff8543cb5"
             transform="translate(148.712,134.765)">
            <path
               style="stroke:none;stroke-width:0"
               d="m 3.3125,-0.75 c 0.046875,0.390625 0.3125,0.8125 0.78125,0.8125 0.21875,0 0.828125,-0.140625 0.828125,-0.953125 v -0.5625 h -0.25 v 0.5625 c 0,0.578125 -0.25,0.640625 -0.359375,0.640625 -0.328125,0 -0.375,-0.453125 -0.375,-0.5 v -1.984375 c 0,-0.421875 0,-0.8125 -0.359375,-1.1875 C 3.1875,-4.3125 2.6875,-4.46875 2.21875,-4.46875 c -0.828125,0 -1.515625,0.46875 -1.515625,1.125 0,0.296875 0.203125,0.46875 0.46875,0.46875 0.28125,0 0.453125,-0.203125 0.453125,-0.453125 0,-0.125 -0.046875,-0.453125 -0.515625,-0.453125 C 1.390625,-4.140625 1.875,-4.25 2.1875,-4.25 c 0.5,0 1.0625,0.390625 1.0625,1.28125 v 0.359375 c -0.515625,0.03125 -1.203125,0.0625 -1.828125,0.359375 -0.75,0.34375 -1,0.859375 -1,1.296875 0,0.8125 0.96875,1.0625 1.59375,1.0625 0.65625,0 1.109375,-0.40625 1.296875,-0.859375 z M 3.25,-2.390625 v 1 c 0,0.9375 -0.71875,1.28125 -1.171875,1.28125 -0.484375,0 -0.890625,-0.34375 -0.890625,-0.84375 0,-0.546875 0.421875,-1.375 2.0625,-1.4375 z m 0,0"
               id="id-2f8dd07d-10d1-4ead-a229-d70b66a2a852" />
          </g>
          <g
             id="id-f9cc5b16-5cc1-46aa-ac18-53502f7fd173"
             transform="translate(153.693,134.765)">
            <path
               style="stroke:none;stroke-width:0"
               d="m 2.875,-2.5 c 0,-0.765625 -0.109375,-1.96875 -0.65625,-3.109375 -0.59375,-1.21875 -1.453125,-1.875 -1.546875,-1.875 -0.0625,0 -0.109375,0.046875 -0.109375,0.109375 0,0.03125 0,0.046875 0.1875,0.234375 0.984375,0.984375 1.546875,2.5625 1.546875,4.640625 0,1.71875 -0.359375,3.46875 -1.59375,4.71875 C 0.5625,2.34375 0.5625,2.359375 0.5625,2.390625 0.5625,2.453125 0.609375,2.5 0.671875,2.5 0.765625,2.5 1.671875,1.8125 2.25,0.546875 2.765625,-0.546875 2.875,-1.65625 2.875,-2.5 Z m 0,0"
               id="id-cd90650c-bfd9-4b3d-9344-6a7f49f5b482" />
          </g>
        </g>
      </g>
    </g>
    <g
       ns0:version="1.4.0"
       ns0:texconverter="pdflatex"
       ns0:pdfconverter="inkscape"
       ns0:text="b)"
       ns0:preamble="/home/spiller/.config/inkscape/extensions/textext/default_packages.tex"
       ns0:scale="1.7414503680386348"
       ns0:alignment="middle center"
       ns0:inkscapeversion="1.1.1"
       transform="matrix(1.4105745,0,0,1.4105745,173.04858,9.6857766)"
       ns0:jacobian_sqrt="1.74145"
       id="g1533">
      <defs
         id="id-b6909d57-2bee-4918-918f-427cf3d1b16c">
        <g
           id="id-b93c075c-ad9a-4565-a014-fff4866a36a5">
          <symbol
             overflow="visible"
             id="id-73dab85e-f6ca-49f6-aa52-b84454cf3db8">
            <path
               style="stroke:none"
               d=""
               id="id-a00b92f5-eb7c-4db0-8945-a587cfdcd16d" />
          </symbol>
          <symbol
             overflow="visible"
             id="id-d14905c5-ca33-4b0e-8e27-ff753da9f144">
            <path
               style="stroke:none"
               d="m 1.71875,-3.765625 v -3.15625 L 0.28125,-6.8125 V -6.5 c 0.703125,0 0.78125,0.0625 0.78125,0.5625 V 0 h 0.25 c 0,-0.015625 0.078125,-0.15625 0.359375,-0.625 0.140625,0.234375 0.5625,0.734375 1.296875,0.734375 1.1875,0 2.21875,-0.984375 2.21875,-2.265625 0,-1.265625 -0.96875,-2.25 -2.109375,-2.25 -0.78125,0 -1.203125,0.46875 -1.359375,0.640625 z m 0.03125,2.625 V -3.1875 c 0,-0.1875 0,-0.203125 0.109375,-0.359375 C 2.25,-4.109375 2.796875,-4.1875 3.03125,-4.1875 c 0.453125,0 0.8125,0.265625 1.046875,0.640625 0.265625,0.40625 0.28125,0.96875 0.28125,1.390625 0,0.359375 -0.015625,0.953125 -0.296875,1.40625 -0.21875,0.3125 -0.59375,0.640625 -1.125,0.640625 -0.453125,0 -0.8125,-0.234375 -1.046875,-0.609375 C 1.75,-0.921875 1.75,-0.953125 1.75,-1.140625 Z m 0,0"
               id="id-fc7b424a-6304-483b-9342-9638fdf651c5" />
          </symbol>
          <symbol
             overflow="visible"
             id="id-bfdde570-a142-4f90-ae99-99df6bdf5a19">
            <path
               style="stroke:none"
               d="m 2.875,-2.5 c 0,-0.765625 -0.109375,-1.96875 -0.65625,-3.109375 -0.59375,-1.21875 -1.453125,-1.875 -1.546875,-1.875 -0.0625,0 -0.109375,0.046875 -0.109375,0.109375 0,0.03125 0,0.046875 0.1875,0.234375 0.984375,0.984375 1.546875,2.5625 1.546875,4.640625 0,1.71875 -0.359375,3.46875 -1.59375,4.71875 C 0.5625,2.34375 0.5625,2.359375 0.5625,2.390625 0.5625,2.453125 0.609375,2.5 0.671875,2.5 0.765625,2.5 1.671875,1.8125 2.25,0.546875 2.765625,-0.546875 2.875,-1.65625 2.875,-2.5 Z m 0,0"
               id="id-5dcbb6a7-53b7-4045-b598-3b36b368cad0" />
          </symbol>
        </g>
      </defs>
      <g
         id="id-c49db664-33c6-4344-b6c7-ea510aa5177f"
         transform="translate(-148.993,-127.281)">
        <g
           style="fill:#000000;fill-opacity:1"
           id="id-d4c21f84-5687-4db4-9e87-d402cb31e116">
          <g
             id="id-32690120-7c68-4e1d-83db-14e14504c235"
             transform="translate(148.712,134.765)">
            <path
               style="stroke:none"
               d="m 1.71875,-3.765625 v -3.15625 L 0.28125,-6.8125 V -6.5 c 0.703125,0 0.78125,0.0625 0.78125,0.5625 V 0 h 0.25 c 0,-0.015625 0.078125,-0.15625 0.359375,-0.625 0.140625,0.234375 0.5625,0.734375 1.296875,0.734375 1.1875,0 2.21875,-0.984375 2.21875,-2.265625 0,-1.265625 -0.96875,-2.25 -2.109375,-2.25 -0.78125,0 -1.203125,0.46875 -1.359375,0.640625 z m 0.03125,2.625 V -3.1875 c 0,-0.1875 0,-0.203125 0.109375,-0.359375 C 2.25,-4.109375 2.796875,-4.1875 3.03125,-4.1875 c 0.453125,0 0.8125,0.265625 1.046875,0.640625 0.265625,0.40625 0.28125,0.96875 0.28125,1.390625 0,0.359375 -0.015625,0.953125 -0.296875,1.40625 -0.21875,0.3125 -0.59375,0.640625 -1.125,0.640625 -0.453125,0 -0.8125,-0.234375 -1.046875,-0.609375 C 1.75,-0.921875 1.75,-0.953125 1.75,-1.140625 Z m 0,0"
               id="id-3e322b1f-8ba7-4425-96f8-467eac3cab84" />
          </g>
          <g
             id="id-31bcc047-97df-4e35-866b-86f178fb90d4"
             transform="translate(154.247,134.765)">
            <path
               style="stroke:none"
               d="m 2.875,-2.5 c 0,-0.765625 -0.109375,-1.96875 -0.65625,-3.109375 -0.59375,-1.21875 -1.453125,-1.875 -1.546875,-1.875 -0.0625,0 -0.109375,0.046875 -0.109375,0.109375 0,0.03125 0,0.046875 0.1875,0.234375 0.984375,0.984375 1.546875,2.5625 1.546875,4.640625 0,1.71875 -0.359375,3.46875 -1.59375,4.71875 C 0.5625,2.34375 0.5625,2.359375 0.5625,2.390625 0.5625,2.453125 0.609375,2.5 0.671875,2.5 0.765625,2.5 1.671875,1.8125 2.25,0.546875 2.765625,-0.546875 2.875,-1.65625 2.875,-2.5 Z m 0,0"
               id="id-c9b3a63e-fbcb-4add-aab0-33219f13c877" />
          </g>
        </g>
      </g>
    </g>
    <g
       ns0:version="1.4.0"
       ns0:texconverter="pdflatex"
       ns0:pdfconverter="inkscape"
       ns0:text="c)"
       ns0:preamble="/home/spiller/.config/inkscape/extensions/textext/default_packages.tex"
       ns0:scale="1.7414503680386348"
       ns0:alignment="middle center"
       ns0:inkscapeversion="1.1.1"
       transform="matrix(1.4105745,0,0,1.4105745,303.88055,9.6850766)"
       ns0:jacobian_sqrt="1.74145"
       id="g2082">
      <defs
         id="id-56b39f92-7552-472f-9c4c-dcdc194fc364">
        <g
           id="id-9b4850fd-29ae-415c-b6b8-3c0e8003f4c5">
          <symbol
             overflow="visible"
             id="id-4bf71ffa-2c0b-487c-bc3f-8b2f6cbb0d5f">
            <path
               style="stroke:none"
               d=""
               id="id-68be64cc-1159-4dff-b539-d289e04ec58f" />
          </symbol>
          <symbol
             overflow="visible"
             id="id-eba13935-eaa4-41f4-bddd-6d34639de837">
            <path
               style="stroke:none"
               d="m 1.171875,-2.171875 c 0,-1.625 0.8125,-2.046875 1.34375,-2.046875 0.09375,0 0.71875,0.015625 1.0625,0.375 -0.40625,0.03125 -0.46875,0.328125 -0.46875,0.453125 0,0.265625 0.1875,0.453125 0.453125,0.453125 0.265625,0 0.46875,-0.15625 0.46875,-0.46875 0,-0.671875 -0.765625,-1.0625 -1.53125,-1.0625 -1.25,0 -2.15625,1.078125 -2.15625,2.3125 0,1.28125 0.984375,2.265625 2.140625,2.265625 1.328125,0 1.65625,-1.203125 1.65625,-1.296875 0,-0.09375 -0.109375,-0.09375 -0.140625,-0.09375 -0.078125,0 -0.109375,0.03125 -0.125,0.09375 -0.28125,0.921875 -0.9375,1.046875 -1.296875,1.046875 -0.53125,0 -1.40625,-0.421875 -1.40625,-2.03125 z m 0,0"
               id="id-e1134144-886d-4b0a-9fe7-3e30e7ca7b31" />
          </symbol>
          <symbol
             overflow="visible"
             id="id-b227c776-ce8e-4162-b59a-64ab12f6709f">
            <path
               style="stroke:none"
               d="m 2.875,-2.5 c 0,-0.765625 -0.109375,-1.96875 -0.65625,-3.109375 -0.59375,-1.21875 -1.453125,-1.875 -1.546875,-1.875 -0.0625,0 -0.109375,0.046875 -0.109375,0.109375 0,0.03125 0,0.046875 0.1875,0.234375 0.984375,0.984375 1.546875,2.5625 1.546875,4.640625 0,1.71875 -0.359375,3.46875 -1.59375,4.71875 C 0.5625,2.34375 0.5625,2.359375 0.5625,2.390625 0.5625,2.453125 0.609375,2.5 0.671875,2.5 0.765625,2.5 1.671875,1.8125 2.25,0.546875 2.765625,-0.546875 2.875,-1.65625 2.875,-2.5 Z m 0,0"
               id="id-204b7742-0642-4c1c-9240-0f3160ddf7c9" />
          </symbol>
        </g>
      </defs>
      <g
         id="id-27e914dc-8a76-46a4-b2ab-afaaf8d9be8b"
         transform="translate(-149.056,-127.281)">
        <g
           style="fill:#000000;fill-opacity:1"
           id="id-266b0df3-a352-4fe9-b804-67f853e60977">
          <g
             id="id-bea23aa7-ab36-43d6-ae23-6ff9cc15f3e0"
             transform="translate(148.712,134.765)">
            <path
               style="stroke:none"
               d="m 1.171875,-2.171875 c 0,-1.625 0.8125,-2.046875 1.34375,-2.046875 0.09375,0 0.71875,0.015625 1.0625,0.375 -0.40625,0.03125 -0.46875,0.328125 -0.46875,0.453125 0,0.265625 0.1875,0.453125 0.453125,0.453125 0.265625,0 0.46875,-0.15625 0.46875,-0.46875 0,-0.671875 -0.765625,-1.0625 -1.53125,-1.0625 -1.25,0 -2.15625,1.078125 -2.15625,2.3125 0,1.28125 0.984375,2.265625 2.140625,2.265625 1.328125,0 1.65625,-1.203125 1.65625,-1.296875 0,-0.09375 -0.109375,-0.09375 -0.140625,-0.09375 -0.078125,0 -0.109375,0.03125 -0.125,0.09375 -0.28125,0.921875 -0.9375,1.046875 -1.296875,1.046875 -0.53125,0 -1.40625,-0.421875 -1.40625,-2.03125 z m 0,0"
               id="id-e0948c11-86e4-4490-bd86-2a3ae715d06c" />
          </g>
          <g
             id="id-15a726e1-ed4d-4b0b-b87a-6585965bc25e"
             transform="translate(153.139,134.765)">
            <path
               style="stroke:none"
               d="m 2.875,-2.5 c 0,-0.765625 -0.109375,-1.96875 -0.65625,-3.109375 -0.59375,-1.21875 -1.453125,-1.875 -1.546875,-1.875 -0.0625,0 -0.109375,0.046875 -0.109375,0.109375 0,0.03125 0,0.046875 0.1875,0.234375 0.984375,0.984375 1.546875,2.5625 1.546875,4.640625 0,1.71875 -0.359375,3.46875 -1.59375,4.71875 C 0.5625,2.34375 0.5625,2.359375 0.5625,2.390625 0.5625,2.453125 0.609375,2.5 0.671875,2.5 0.765625,2.5 1.671875,1.8125 2.25,0.546875 2.765625,-0.546875 2.875,-1.65625 2.875,-2.5 Z m 0,0"
               id="id-6cb9ff7b-0d29-414e-8fe1-933820caa55e" />
          </g>
        </g>
      </g>
    </g>
  </g>
  <defs
     id="defs403">
    <clipPath
       id="p1315f9068d">
      <rect
         height="114.03736"
         width="123.02489"
         x="38.925312"
         y="8"
         id="rect394" />
    </clipPath>
    <clipPath
       id="p60f1534c98">
      <rect
         height="114.03736"
         width="123.02489"
         x="169.95021"
         y="8"
         id="rect397" />
    </clipPath>
    <clipPath
       id="pb4d79925b8">
      <rect
         height="114.03736"
         width="123.02489"
         x="300.9751"
         y="8"
         id="rect400" />
    </clipPath>
  </defs>
</svg>
