<?xml version="1.0" encoding="UTF-8" standalone="no"?>
<!-- Created with matplotlib (https://matplotlib.org/) -->

<svg
   height="204.40001pt"
   version="1.1"
   viewBox="0 0 419.19067 204.40001"
   width="419.19067pt"
   id="svg601"
   sodipodi:docname="qm1_ast_.svg"
   inkscape:version="1.1.1 (1:1.1+202109281949+c3084ef5ed)"
   inkscape:export-filename="/home/spiller/phd/thesis/results/nitro/ele/qm1_ast.png"
   inkscape:export-xdpi="300.17999"
   inkscape:export-ydpi="300.17999"
   xmlns:inkscape="http://www.inkscape.org/namespaces/inkscape"
   xmlns:sodipodi="http://sodipodi.sourceforge.net/DTD/sodipodi-0.dtd"
   xmlns:xlink="http://www.w3.org/1999/xlink"
   xmlns="http://www.w3.org/2000/svg"
   xmlns:svg="http://www.w3.org/2000/svg"
   xmlns:rdf="http://www.w3.org/1999/02/22-rdf-syntax-ns#"
   xmlns:cc="http://creativecommons.org/ns#"
   xmlns:dc="http://purl.org/dc/elements/1.1/">
  <sodipodi:namedview
     id="namedview603"
     pagecolor="#ffffff"
     bordercolor="#666666"
     borderopacity="1.0"
     inkscape:pageshadow="2"
     inkscape:pageopacity="1"
     inkscape:pagecheckerboard="0"
     inkscape:document-units="pt"
     showgrid="false"
     inkscape:zoom="1.4652778"
     inkscape:cx="356.58767"
     inkscape:cy="165.49763"
     inkscape:window-width="1920"
     inkscape:window-height="1016"
     inkscape:window-x="0"
     inkscape:window-y="0"
     inkscape:window-maximized="1"
     inkscape:current-layer="matplotlib.axis_1"
     fit-margin-top="5"
     lock-margins="true"
     fit-margin-left="5"
     fit-margin-right="5"
     fit-margin-bottom="5" />
  <metadata
     id="metadata2">
    <rdf:RDF>
      <cc:Work>
        <dc:type
           rdf:resource="http://purl.org/dc/dcmitype/StillImage" />
        <dc:date>2022-01-06T14:14:31.471023</dc:date>
        <dc:format>image/svg+xml</dc:format>
        <dc:creator>
          <cc:Agent>
            <dc:title>Matplotlib v3.3.4, https://matplotlib.org/</dc:title>
          </cc:Agent>
        </dc:creator>
      </cc:Work>
    </rdf:RDF>
  </metadata>
  <defs
     id="defs6">
    <style
       type="text/css"
       id="style4">*{stroke-linecap:butt;stroke-linejoin:round;}</style>
  </defs>
  <g
     id="axes_1"
     transform="translate(-5.8,-5.8)">
    <g
       id="patch_2">
      <path
         d="M 41.725311,173.49195 H 219.33132 V 25.766376 H 41.725311 Z"
         style="fill:#ffffff"
         id="path11" />
    </g>
    <g
       id="matplotlib.axis_1">
      <g
         id="xtick_1">
        <g
           id="text_1">
          <!-- 1 -->
          <g
             style="fill:#262626"
             transform="matrix(0.1,0,0,-0.1,48.114943,187.41045)"
             id="g19">
            <defs
               id="defs15">
              <path
                 d="M 26.59375,63.796875 C 26.59375,65.890625 26.5,66 25.09375,66 21.203125,61.359375 15.296875,59.890625 9.703125,59.6875 c -0.296875,0 -0.796875,0 -0.90625,-0.1875 C 8.703125,59.296875 8.703125,59.09375 8.703125,57 11.796875,57 17,57.59375 21,59.984375 v -52.6875 c 0,-3.5 -0.203125,-4.703125 -8.796875,-4.703125 h -3 V 0 C 14,0.09375 19,0.1875 23.796875,0.1875 28.59375,0.1875 33.59375,0.09375 38.40625,0 v 2.59375 h -3 c -8.609375,0 -8.8125,1.09375 -8.8125,4.703125 z"
                 id="CMR17-49" />
            </defs>
            <use
               transform="scale(0.996264)"
               xlink:href="#CMR17-49"
               id="use17"
               x="0"
               y="0"
               width="100%"
               height="100%" />
          </g>
        </g>
      </g>
      <g
         id="xtick_2">
        <g
           id="text_2">
          <!-- 2 -->
          <g
             style="fill:#262626"
             transform="matrix(0.1,0,0,-0.1,65.875544,187.41045)"
             id="g28">
            <defs
               id="defs24">
              <path
                 d="M 41.703125,15.46875 H 39.90625 c -1,-7.078125 -1.8125,-8.28125 -2.203125,-8.875 C 37.203125,5.796875 30,5.796875 28.59375,5.796875 H 9.40625 C 13,9.6875 20,16.765625 28.5,24.9375 34.59375,30.71875 41.703125,37.5 41.703125,47.390625 41.703125,59.1875 32.296875,66 21.796875,66 c -11,0 -17.703125,-9.703125 -17.703125,-18.703125 0,-3.90625 2.90625,-4.40625 4.109375,-4.40625 1,0 4,0.59375 4,4.09375 C 12.203125,50.09375 9.59375,51 8.203125,51 7.59375,51 7,50.890625 6.59375,50.6875 c 1.90625,8.5 7.703125,12.703125 13.8125,12.703125 8.6875,0 14.390625,-6.890625 14.390625,-16 0,-8.6875 -5.09375,-16.171875 -10.796875,-22.65625 L 4.09375,2.296875 V 0 h 35.203125 z"
                 id="CMR17-50" />
            </defs>
            <use
               transform="scale(0.996264)"
               xlink:href="#CMR17-50"
               id="use26"
               x="0"
               y="0"
               width="100%"
               height="100%" />
          </g>
        </g>
      </g>
      <g
         id="xtick_3">
        <g
           id="text_3">
          <!-- 3 -->
          <g
             style="fill:#262626"
             transform="matrix(0.1,0,0,-0.1,83.636145,187.41045)"
             id="g37">
            <defs
               id="defs33">
              <path
                 d="M 22.09375,34 C 31,34 34.90625,26.140625 34.90625,17.09375 34.90625,5.03125 28.5,0.390625 22.703125,0.390625 c -5.296875,0 -13.90625,2.625 -16.609375,10.40625 0.5,-0.203125 1,-0.203125 1.5,-0.203125 2.40625,0 4.203125,1.59375 4.203125,4.203125 C 11.796875,17.6875 9.59375,19 7.59375,19 5.90625,19 3.296875,18.1875 3.296875,14.484375 3.296875,5.234375 12.296875,-2 22.90625,-2 34,-2 42.5,6.75 42.5,16.984375 42.5,26.84375 34.5,34 25,35.09375 32.59375,36.671875 39.90625,43.375 39.90625,52.390625 39.90625,60.25 32,66 23,66 13.90625,66 5.90625,60.34375 5.90625,52.296875 c 0,-3.5 2.59375,-4.109375 3.890625,-4.109375 2.109375,0 3.90625,1.296875 3.90625,3.90625 C 13.703125,54.6875 11.90625,56 9.796875,56 9.40625,56 8.90625,56 8.5,55.796875 c 2.90625,6.6875 10.796875,7.890625 14.296875,7.890625 3.5,0 10.109375,-1.71875 10.109375,-11.390625 0,-2.8125 -0.40625,-7.75 -3.8125,-12.078125 -3,-3.828125 -6.390625,-4.03125 -9.6875,-4.328125 -0.5,0 -2.8125,-0.203125 -3.203125,-0.203125 C 15.5,35.59375 15.09375,35.5 15.09375,34.796875 15.09375,34.09375 15.203125,34 17.203125,34 Z"
                 id="CMR17-51" />
            </defs>
            <use
               transform="scale(0.996264)"
               xlink:href="#CMR17-51"
               id="use35"
               x="0"
               y="0"
               width="100%"
               height="100%" />
          </g>
        </g>
      </g>
      <g
         id="xtick_4">
        <g
           id="text_4">
          <!-- 4 -->
          <g
             style="fill:#262626"
             transform="matrix(0.1,0,0,-0.1,101.39675,187.41045)"
             id="g46">
            <defs
               id="defs42">
              <path
                 d="M 33.59375,64.796875 C 33.59375,66.890625 33.5,67 31.703125,67 L 2,19.59375 V 17 H 27.796875 V 7.1875 c 0,-3.59375 -0.203125,-4.59375 -7.203125,-4.59375 H 18.703125 V 0 c 3.203125,0.1875 8.59375,0.1875 12,0.1875 3.390625,0 8.796875,0 12,-0.1875 v 2.59375 h -1.90625 c -7,0 -7.203125,1 -7.203125,4.59375 V 17 h 10.203125 v 2.59375 H 33.59375 Z m -5.5,-6.625 V 19.59375 H 4 Z"
                 id="CMR17-52" />
            </defs>
            <use
               transform="scale(0.996264)"
               xlink:href="#CMR17-52"
               id="use44"
               x="0"
               y="0"
               width="100%"
               height="100%" />
          </g>
        </g>
      </g>
      <g
         id="xtick_5">
        <g
           id="text_5">
          <!-- 5 -->
          <g
             style="fill:#262626"
             transform="matrix(0.1,0,0,-0.1,119.15735,187.41045)"
             id="g55">
            <defs
               id="defs51">
              <path
                 d="m 11.40625,58.59375 c 1,-0.40625 5.09375,-1.703125 9.296875,-1.703125 9.296875,0 14.390625,5 17.296875,7.796875 C 38,65.484375 38,66 37.40625,66 c -0.109375,0 -0.3125,0 -1.109375,-0.40625 -3.5,-1.5 -7.59375,-2.59375 -12.59375,-2.59375 -3,0 -7.5,0.359375 -12.40625,2.484375 C 10.203125,66 10,66 9.90625,66 9.40625,66 9.296875,65.890625 9.296875,63.90625 V 34.859375 c 0,-1.84375 0,-2.359375 1,-2.359375 0.5,0 0.703125,0.203125 1.203125,0.921875 C 14.703125,38.046875 19.09375,40 24.09375,40 c 3.5,0 11,-2.265625 11,-19.796875 0,-3.21875 0,-9.015625 -3,-13.609375 -2.5,-4.109375 -6.390625,-6.203125 -10.6875,-6.203125 -6.609375,0 -13.3125,4.59375 -15.109375,12.296875 C 6.703125,12.59375 7.5,12.390625 7.90625,12.390625 c 1.296875,0 3.796875,0.703125 3.796875,3.796875 C 11.703125,18.890625 9.796875,20 7.90625,20 5.59375,20 4.09375,18.59375 4.09375,15.796875 4.09375,7.09375 11,-2 21.59375,-2 c 10.3125,0 20.109375,8.890625 20.109375,21.796875 0,12.296875 -7.796875,21.796875 -17.5,21.796875 -5.109375,0 -9.40625,-1.90625 -12.796875,-5.59375 z"
                 id="CMR17-53" />
            </defs>
            <use
               transform="scale(0.996264)"
               xlink:href="#CMR17-53"
               id="use53"
               x="0"
               y="0"
               width="100%"
               height="100%" />
          </g>
        </g>
      </g>
      <g
         id="xtick_6">
        <g
           id="text_6">
          <!-- 6 -->
          <g
             style="fill:#262626"
             transform="matrix(0.1,0,0,-0.1,136.91795,187.41045)"
             id="g64">
            <defs
               id="defs60">
              <path
                 d="M 10.59375,34.34375 C 10.59375,58 21.796875,63.6875 28.296875,63.6875 30.40625,63.6875 35.5,63.265625 37.5,59.09375 c -1.59375,0 -4.59375,0 -4.59375,-3.5 C 32.90625,52.890625 35.09375,52 36.5,52 c 0.90625,0 3.59375,0.390625 3.59375,3.796875 0,6.5 -5,10.203125 -11.890625,10.203125 C 16.296875,66 3.796875,53.296875 3.796875,31.421875 3.796875,4.015625 15.09375,-2 23.09375,-2 32.796875,-2 42,6.734375 42,20.234375 42,32.828125 33.90625,42 23.703125,42 17.59375,42 13.09375,37.96875 10.59375,30.921875 Z m 12.5,-33.953125 c -12.296875,0 -12.296875,18.546875 -12.296875,22.265625 0,7.25 3.40625,17.734375 12.703125,17.734375 1.703125,0 6.59375,0 9.90625,-6.953125 1.796875,-3.921875 1.796875,-8.0625 1.796875,-13.09375 0,-5.4375 0,-9.46875 -2.109375,-13.5 -2.1875,-4.140625 -5.390625,-6.453125 -10,-6.453125 z"
                 id="CMR17-54" />
            </defs>
            <use
               transform="scale(0.996264)"
               xlink:href="#CMR17-54"
               id="use62"
               x="0"
               y="0"
               width="100%"
               height="100%" />
          </g>
        </g>
      </g>
      <g
         id="xtick_7">
        <g
           id="text_7">
          <!-- 7 -->
          <g
             style="fill:#262626"
             transform="matrix(0.1,0,0,-0.1,154.67855,187.41045)"
             id="g73">
            <defs
               id="defs69">
              <path
                 d="M 45.09375,61.796875 V 64 h -23.5 C 9.90625,64 9.703125,65.09375 9.296875,67 H 7.5 L 4.59375,48.5 h 1.8125 c 0.296875,1.90625 1,7 2.1875,8.890625 0.609375,0.796875 8,0.796875 9.703125,0.796875 h 22 L 29.203125,41.71875 c -7.40625,-11.078125 -12.5,-26.046875 -12.5,-39.125 0,-1.203125 0,-4.59375 3.59375,-4.59375 3.609375,0 3.609375,3.390625 3.609375,4.6875 v 4.59375 c 0,16.375 2.796875,27.15625 7.390625,34.03125 z"
                 id="CMR17-55" />
            </defs>
            <use
               transform="scale(0.996264)"
               xlink:href="#CMR17-55"
               id="use71"
               x="0"
               y="0"
               width="100%"
               height="100%" />
          </g>
        </g>
      </g>
      <g
         id="xtick_8">
        <g
           id="text_8">
          <!-- 8 -->
          <g
             style="fill:#262626"
             transform="matrix(0.1,0,0,-0.1,172.43915,187.41045)"
             id="g82">
            <defs
               id="defs78">
              <path
                 d="M 27.203125,35.765625 C 33.5,38.96875 39.90625,43.796875 39.90625,51.53125 39.90625,60.6875 31.09375,66 23,66 13.90625,66 5.90625,59.375 5.90625,50.234375 c 0,-2.515625 0.59375,-6.84375 4.5,-10.65625 1,-1 5.1875,-4.015625 7.890625,-5.921875 -4.5,-2.3125 -15,-7.84375 -15,-18.890625 C 3.296875,4.40625 13.09375,-2 22.796875,-2 33.5,-2 42.5,5.71875 42.5,15.96875 c 0,9.140625 -6.09375,13.359375 -10.09375,16.078125 z m -13.109375,8.84375 c -0.796875,0.5 -4.796875,3.609375 -4.796875,8.328125 0,6.140625 6.296875,10.75 13.5,10.75 7.90625,0 13.703125,-5.625 13.703125,-12.15625 0,-9.34375 -10.40625,-14.671875 -10.90625,-14.671875 -0.09375,0 -0.1875,0 -1,0.609375 z M 32.5,24 c 1.5,-1.09375 6.296875,-4.421875 6.296875,-10.546875 0,-7.4375 -7.390625,-13.0625 -15.796875,-13.0625 -9.09375,0 -16,6.53125 -16,14.46875 0,7.9375 6.09375,14.578125 13,17.6875 z"
                 id="CMR17-56" />
            </defs>
            <use
               transform="scale(0.996264)"
               xlink:href="#CMR17-56"
               id="use80"
               x="0"
               y="0"
               width="100%"
               height="100%" />
          </g>
        </g>
      </g>
      <g
         id="xtick_9">
        <g
           id="text_9">
          <!-- 9 -->
          <g
             style="fill:#262626"
             transform="matrix(0.1,0,0,-0.1,190.19975,187.41045)"
             id="g91">
            <defs
               id="defs87">
              <path
                 d="M 35.203125,29.234375 C 35.203125,7 26.09375,0.390625 18.59375,0.390625 c -2.296875,0 -7.890625,0.28125 -10.1875,4 2.59375,-0.390625 4.5,1 4.5,3.5 C 12.90625,10.59375 10.703125,11.5 9.296875,11.5 8.40625,11.5 5.703125,11.09375 5.703125,7.6875 5.703125,1.0625 11.59375,-2 18.796875,-2 30.296875,-2 42,10.390625 42,32.65625 42,60.265625 30.796875,66 23.203125,66 13.296875,66 3.796875,57.25 3.796875,43.75 3.796875,31.25 11.90625,22 22.09375,22 30.5,22 34.203125,29.84375 35.203125,33.15625 Z M 22.296875,23.59375 c -2.703125,0 -6.5,0.5 -9.59375,6.546875 -2.109375,3.9375 -2.109375,8.5625 -2.109375,13.5 0,5.953125 0,10.078125 2.8125,14.515625 1.390625,2.109375 4,5.53125 9.796875,5.53125 C 35,63.6875 35,45.453125 35,41.421875 35,34.265625 31.796875,23.59375 22.296875,23.59375 Z"
                 id="CMR17-57" />
            </defs>
            <use
               transform="scale(0.996264)"
               xlink:href="#CMR17-57"
               id="use89"
               x="0"
               y="0"
               width="100%"
               height="100%" />
          </g>
        </g>
      </g>
      <g
         id="xtick_10">
        <g
           id="text_10">
          <!-- 10 -->
          <g
             style="fill:#262626"
             transform="matrix(0.1,0,0,-0.1,205.46968,187.41045)"
             id="g102">
            <defs
               id="defs96">
              <path
                 d="m 42,31.84375 c 0,6.125 -0.09375,16.578125 -4.296875,24.609375 C 34,63.484375 28.09375,66 22.90625,66 18.09375,66 12,63.78125 8.203125,56.5625 4.203125,49.015625 3.796875,39.671875 3.796875,31.84375 3.796875,26.109375 3.90625,17.375 7,9.734375 11.296875,-0.609375 19,-2 22.90625,-2 27.5,-2 34.5,-0.109375 38.59375,9.4375 41.59375,16.375 42,24.5 42,31.84375 Z m -19.09375,-32.25 C 16.5,-0.40625 12.703125,5.125 11.296875,12.75 c -1.09375,5.9375 -1.09375,14.578125 -1.09375,20.203125 0,7.734375 0,14.15625 1.296875,20.28125 1.90625,8.546875 7.5,11.15625 11.40625,11.15625 4.09375,0 9.390625,-2.71875 11.296875,-10.953125 C 35.5,47.71875 35.59375,40.984375 35.59375,32.953125 c 0,-6.53125 0,-14.578125 -1.1875,-20.5 -2.109375,-10.953125 -8,-12.859375 -11.5,-12.859375 z"
                 id="CMR17-48" />
            </defs>
            <use
               transform="scale(0.996264)"
               xlink:href="#CMR17-49"
               id="use98"
               x="0"
               y="0"
               width="100%"
               height="100%" />
            <use
               transform="matrix(0.996264,0,0,0.996264,45.690477,0)"
               xlink:href="#CMR17-48"
               id="use100"
               x="0"
               y="0"
               width="100%"
               height="100%" />
          </g>
        </g>
      </g>
      <g
         id="text_11"
         transform="translate(96.363448)">
        <!-- BS class $(M_S = \tfrac{3}{2})$ -->
        <g
           style="fill:#262626"
           transform="matrix(0.1,0,0,-0.1,89.478083,201.76449)"
           id="g149">
          <defs
             id="defs117">
            <path
               d="m 5.203125,68 v -2.609375 c 6.890625,0 8,0 8,-4.5 V 7.046875 c 0,-4.453125 -1.109375,-4.453125 -8,-4.453125 V 0 H 39.59375 c 12.8125,0 21.109375,9.03125 21.109375,18.046875 0,8.921875 -8.203125,16.546875 -18.90625,17.25 C 51.40625,37.1875 58.09375,43.59375 58.09375,51.1875 58.09375,59.5 49.90625,68 37,68 Z M 19.5,36 v 25.5 c 0,3.390625 0.203125,3.890625 4.203125,3.890625 H 36.5 c 9.90625,0 14.296875,-8 14.296875,-14.203125 C 50.796875,43.59375 44.703125,36 33.90625,36 Z M 23.703125,2.59375 c -4,0 -4.203125,0.5 -4.203125,3.859375 v 27.9375 H 38 c 10.296875,0 15.296875,-9.015625 15.296875,-16.25 0,-7.234375 -5.703125,-15.546875 -16.59375,-15.546875 z"
               id="CMR17-66" />
            <path
               d="m 43.796875,67.984375 c 0,1.8125 -0.09375,1.90625 -0.703125,1.90625 -0.59375,0 -0.796875,-0.40625 -1.1875,-1.296875 l -3,-6.640625 C 35.09375,67.5 29.296875,70 23,70 12.796875,70 4.59375,61.84375 4.59375,51.578125 c 0,-3.125 0.703125,-7.5625 4.109375,-11.796875 3.703125,-4.625 7.203125,-5.4375 15.203125,-7.546875 3,-0.8125 8,-2.125 9,-2.53125 5.6875,-2.40625 8.6875,-8.453125 8.6875,-14.09375 C 41.59375,8.34375 36.5,0.59375 27.796875,0.59375 17.09375,0.59375 7.09375,6.640625 6.40625,20.75 6.296875,22.359375 6.203125,22.453125 5.5,22.453125 c -0.796875,0 -0.90625,-0.09375 -0.90625,-2.109375 V 0 c 0,-1.8125 0.109375,-1.90625 0.703125,-1.90625 0.703125,0 0.90625,0.5 2.296875,3.609375 0.109375,0.296875 0.109375,0.5 2,4.328125 C 14.59375,-0.609375 23,-2 27.796875,-2 c 10.90625,0 18.609375,9.140625 18.609375,19.828125 0,5.234375 -1.90625,9.265625 -3,11.078125 -4.203125,6.453125 -8.703125,7.65625 -13.5,8.859375 -0.703125,0.3125 -0.90625,0.3125 -6.5,1.71875 C 18,40.890625 15.703125,41.59375 13.203125,44.3125 10.40625,47.4375 9.40625,50.671875 9.40625,53.890625 c 0,6.546875 5.1875,13.703125 13.6875,13.703125 10.609375,0 17.203125,-7.5625 18.703125,-20.15625 0.296875,-1.8125 0.40625,-1.90625 1.109375,-1.90625 0.890625,0 0.890625,0.296875 0.890625,2.015625 z"
               id="CMR17-83" />
            <path
               d="M 34.90625,35 C 33,35 30.203125,35 30.203125,31.484375 c 0,-2.796875 2.296875,-3.59375 3.59375,-3.59375 0.703125,0 3.609375,0.296875 3.609375,3.796875 0,7 -6.8125,12.3125 -14.5,12.3125 C 12.296875,44 3.296875,34.390625 3.296875,21.546875 3.296875,8.140625 12.703125,-1 22.90625,-1 c 12.390625,0 15.5,11.5625 15.5,12.671875 0,0.40625 -0.109375,0.703125 -0.8125,0.703125 -0.6875,0 -0.796875,-0.09375 -1.1875,-1.40625 C 33.796875,2.8125 28.09375,0.796875 23.796875,0.796875 c -6.390625,0 -14.09375,5.9375 -14.09375,20.84375 C 9.703125,36.84375 17.09375,42.1875 23,42.1875 c 3.90625,0 9.703125,-1.84375 11.90625,-7.1875 z"
               id="CMR17-99" />
            <path
               d="M 15.296875,69 3.40625,67.890625 v -2.59375 c 5.890625,0 6.796875,-0.59375 6.796875,-5.375 V 6.859375 C 10.203125,3.09375 9.796875,2.59375 3.40625,2.59375 V 0 c 2.390625,0.1875 6.796875,0.1875 9.296875,0.1875 2.59375,0 7,0 9.390625,-0.1875 v 2.59375 c -6.390625,0 -6.796875,0.390625 -6.796875,4.265625 z"
               id="CMR17-108" />
            <path
               d="M 36,25.875 C 36,32 36,35.546875 31.796875,39.59375 28.09375,42.984375 23.796875,44 20.40625,44 12.5,44 6.796875,37.625 6.796875,30.890625 6.796875,27.1875 9.796875,27 10.40625,27 11.703125,27 14,27.796875 14,30.59375 c 0,2.5 -1.90625,3.59375 -3.59375,3.59375 C 10,34.1875 9.5,34.09375 9.203125,34 c 2.09375,6.53125 7.5,8.390625 11,8.390625 5,0 10.5,-4.5625 10.5,-13.09375 V 25.5 c -5.90625,-0.203125 -13,-1 -18.609375,-4.046875 C 5.796875,17.921875 4,12.84375 4,9 4,1.203125 13,-1 18.296875,-1 c 5.5,0 10.609375,3.109375 12.796875,8.890625 0.203125,-4.46875 3,-8.5 7.40625,-8.5 2.09375,0 7.40625,1.40625 7.40625,9.40625 v 5.671875 h -1.8125 V 8.703125 c 0,-6.1875 -2.6875,-7 -4,-7 C 36,1.703125 36,6.96875 36,11.4375 Z M 30.703125,13.859375 C 30.703125,5.046875 24.5,0.59375 19,0.59375 c -5,0 -8.90625,3.75 -8.90625,8.40625 0,3.046875 1.3125,8.40625 7.109375,11.65625 C 22,23.390625 27.5,23.796875 30.703125,24 Z"
               id="CMR17-97" />
            <path
               d="m 30.90625,42 c 0,1.796875 -0.109375,1.890625 -0.703125,1.890625 -0.40625,0 -0.5,-0.09375 -1.703125,-1.59375 C 28.203125,41.890625 27.296875,40.890625 27,40.5 23.796875,43.890625 19.296875,44 17.59375,44 6.5,44 2.5,38.1875 2.5,32.390625 c 0,-9 10.203125,-11.09375 13.09375,-11.703125 6.3125,-1.296875 8.5,-1.6875 10.609375,-3.5 1.296875,-1.1875 3.5,-3.390625 3.5,-7 C 29.703125,6 27.296875,0.59375 18.09375,0.59375 9.40625,0.59375 6.296875,7.1875 4.5,16 4.203125,17.390625 4.203125,17.5 3.40625,17.5 2.59375,17.5 2.5,17.390625 2.5,15.390625 V 1 c 0,-1.8125 0.09375,-1.90625 0.703125,-1.90625 0.5,0 0.59375,0.09375 1.09375,0.90625 C 4.90625,0.890625 6.40625,3.296875 7,4.296875 9,1.59375 12.5,-1 18.09375,-1 28,-1 33.296875,4.390625 33.296875,12.1875 c 0,5.109375 -2.703125,7.8125 -4,9 -3,3.109375 -6.5,3.8125 -10.703125,4.609375 -5.5,1.203125 -12.5,2.59375 -12.5,8.703125 0,2.59375 1.40625,8.09375 11.5,8.09375 10.703125,0 11.3125,-10 11.5,-13.203125 0.109375,-0.5 0.609375,-0.59375 0.90625,-0.59375 0.90625,0 0.90625,0.296875 0.90625,2 z"
               id="CMR17-115" />
            <path
               d="m 30.59375,-24.40625 c 0,0.09375 0,0.296875 -0.296875,0.59375 -4.59375,4.703125 -16.890625,17.515625 -16.890625,48.75 0,31.234375 12.09375,43.9375 17,48.953125 0,0.09375 0.1875,0.296875 0.1875,0.59375 0,0.3125 -0.296875,0.515625 -0.6875,0.515625 -1.109375,0 -9.609375,-7.421875 -14.5,-18.4375 C 10.40625,45.453125 9,34.65625 9,25.046875 9,17.828125 9.703125,5.625 15.703125,-7.296875 20.5,-17.703125 28.703125,-25 29.90625,-25 c 0.5,0 0.6875,0.1875 0.6875,0.59375 z"
               id="CMR17-40" />
            <path
               d="m 90.796875,60.71875 c 0.90625,3.375 1.109375,4.375 8.203125,4.375 1.90625,0 2.79688,0 2.79688,1.890625 C 101.79688,68 101.09375,68 99.203125,68 h -12 C 84.703125,68 84.59375,67.890625 83.5,66.296875 L 47,8.859375 39.5,65.796875 C 39.203125,68 39.09375,68 36.5,68 H 24.09375 c -1.890625,0 -2.796875,0 -2.796875,-1.90625 0,-1 0.90625,-1 2.40625,-1 6.09375,0 6.09375,-0.796875 6.09375,-1.890625 0,-0.203125 0,-0.796875 -0.390625,-2.296875 l -12.8125,-50.75 c -1.1875,-4.78125 -3.5,-6.96875 -10.1875,-7.265625 -0.3125,0 -1.5,-0.09375 -1.5,-1.796875 C 4.90625,0 5.796875,0 6.203125,0 c 2,0 7.09375,0.1875 9.09375,0.1875 H 20.09375 C 21.5,0.1875 23.203125,0 24.59375,0 c 0.703125,0 1.8125,0 1.8125,1.890625 0,0.90625 -1,1 -1.40625,1 -3.296875,0.09375 -6.5,0.703125 -6.5,4.28125 0,1 0,1.09375 0.40625,2.484375 L 32.703125,64.5 h 0.09375 L 41.09375,2.6875 C 41.40625,0.296875 41.5,0 42.40625,0 43.5,0 44,0.796875 44.5,1.6875 l 40.203125,63.296875 h 0.09375 L 70.296875,7.375 c -0.890625,-3.484375 -1.09375,-4.484375 -8.09375,-4.484375 -1.90625,0 -2.90625,0 -2.90625,-1.796875 C 59.296875,0 60.203125,0 60.796875,0 62.5,0 64.5,0.1875 66.203125,0.1875 H 78 C 79.703125,0.1875 81.796875,0 83.5,0 c 0.796875,0 1.90625,0 1.90625,1.890625 0,1 -0.90625,1 -2.40625,1 -6.09375,0 -6.09375,0.796875 -6.09375,1.796875 0,0.09375 0,0.796875 0.1875,1.59375 z"
               id="CMMI12-77" />
            <path
               d="M 63.5,69.09375 C 63.5,70 62.796875,70 62.59375,70 c -0.390625,0 -0.5,-0.109375 -1.6875,-1.609375 C 60.296875,67.6875 56.203125,62.53125 56.09375,62.4375 52.796875,68.890625 46.203125,70 42,70 29.296875,70 17.796875,58.46875 17.796875,47.25 c 0,-7.453125 4.5,-11.8125 9.40625,-13.5 1.09375,-0.40625 7,-1.984375 10,-2.6875 5.09375,-1.390625 6.390625,-1.78125 8.5,-3.96875 0.390625,-0.5 2.390625,-2.78125 2.390625,-7.4375 C 48.09375,10.421875 39.5,0.890625 29.5,0.890625 c -8.203125,0 -17.296875,3.46875 -17.296875,14.59375 0,1.890625 0.390625,4.265625 0.703125,5.265625 0,0.296875 0.09375,0.78125 0.09375,0.984375 0,0.40625 -0.203125,0.890625 -1,0.890625 -0.90625,0 -1,-0.1875 -1.40625,-1.875 L 5.5,0.390625 C 5.5,0.296875 5.09375,-1 5.09375,-1.109375 5.09375,-2 5.90625,-2 6.09375,-2 c 0.40625,0 0.5,0.09375 1.703125,1.59375 L 12.40625,5.5625 C 14.796875,1.984375 20,-2 29.296875,-2 42.203125,-2 54,10.421875 54,22.828125 54,27 53,30.671875 49.203125,34.34375 c -2.109375,2.078125 -3.90625,2.578125 -13.109375,4.96875 -6.6875,1.78125 -7.59375,2.078125 -9.390625,3.671875 -1.703125,1.6875 -3,4.0625 -3,7.4375 0,8.34375 8.5,16.875 18,16.875 9.796875,0 14.390625,-5.953125 14.390625,-15.390625 0,-2.578125 -0.5,-5.25 -0.5,-5.65625 0,-0.890625 0.8125,-0.890625 1.109375,-0.890625 0.890625,0 1,0.296875 1.390625,1.890625 z"
               id="CMMI12-83" />
            <path
               d="m 64.296875,32 c 1.5,0 3,0 3,1.6875 0,1.8125 -1.703125,1.8125 -3.390625,1.8125 H 8 c -1.703125,0 -3.40625,0 -3.40625,-1.8125 0,-1.6875 1.5,-1.6875 3,-1.6875 z M 63.90625,14.484375 c 1.6875,0 3.390625,0 3.390625,1.8125 0,1.703125 -1.5,1.703125 -3,1.703125 H 7.59375 c -1.5,0 -3,0 -3,-1.703125 0,-1.8125 1.703125,-1.8125 3.40625,-1.8125 z"
               id="CMR17-61" />
            <path
               d="m 26.296875,24.9375 c 0,7.203125 -0.703125,19.421875 -6.703125,32.328125 C 14.796875,67.6875 6.59375,75 5.40625,75 5.09375,75 4.703125,74.890625 4.703125,74.390625 c 0,-0.203125 0.09375,-0.296875 0.203125,-0.5 4.796875,-5.015625 17,-17.71875 17,-48.84375 0,-31.234375 -12.109375,-43.953125 -17,-48.953125 -0.109375,-0.203125 -0.203125,-0.296875 -0.203125,-0.5 0,-0.5 0.390625,-0.59375 0.703125,-0.59375 1.09375,0 9.59375,7.390625 14.5,18.40625 5,11.109375 6.390625,21.921875 6.390625,31.53125 z"
               id="CMR17-41" />
          </defs>
          <use
             transform="scale(0.996264)"
             xlink:href="#CMR17-66"
             id="use119"
             x="0"
             y="0"
             width="100%"
             height="100%" />
          <use
             transform="matrix(0.996264,0,0,0.996264,65.188754,0)"
             xlink:href="#CMR17-83"
             id="use121"
             x="0"
             y="0"
             width="100%"
             height="100%" />
          <use
             transform="matrix(0.996264,0,0,0.996264,146.16009,0)"
             xlink:href="#CMR17-99"
             id="use123"
             x="0"
             y="0"
             width="100%"
             height="100%" />
          <use
             transform="matrix(0.996264,0,0,0.996264,186.64575,0)"
             xlink:href="#CMR17-108"
             id="use125"
             x="0"
             y="0"
             width="100%"
             height="100%" />
          <use
             transform="matrix(0.996264,0,0,0.996264,211.51681,0)"
             xlink:href="#CMR17-97"
             id="use127"
             x="0"
             y="0"
             width="100%"
             height="100%" />
          <use
             transform="matrix(0.996264,0,0,0.996264,257.20729,0)"
             xlink:href="#CMR17-115"
             id="use129"
             x="0"
             y="0"
             width="100%"
             height="100%" />
          <use
             transform="matrix(0.996264,0,0,0.996264,293.00862,0)"
             xlink:href="#CMR17-115"
             id="use131"
             x="0"
             y="0"
             width="100%"
             height="100%" />
          <use
             transform="matrix(0.996264,0,0,0.996264,358.88593,0)"
             xlink:href="#CMR17-40"
             id="use133"
             x="0"
             y="0"
             width="100%"
             height="100%" />
          <use
             transform="matrix(0.996264,0,0,0.996264,394.1667,0)"
             xlink:href="#CMMI12-77"
             id="use135"
             x="0"
             y="0"
             width="100%"
             height="100%" />
          <use
             transform="matrix(0.697382,0,0,0.697382,488.54012,-14.943915)"
             xlink:href="#CMMI12-83"
             id="use137"
             x="0"
             y="0"
             width="100%"
             height="100%" />
          <use
             transform="matrix(0.996264,0,0,0.996264,562.76816,0)"
             xlink:href="#CMR17-61"
             id="use139"
             x="0"
             y="0"
             width="100%"
             height="100%" />
          <use
             transform="matrix(0.697382,0,0,0.697382,663.35247,39.226102)"
             xlink:href="#CMR17-51"
             id="use141"
             x="0"
             y="0"
             width="100%"
             height="100%" />
          <use
             transform="matrix(0.697382,0,0,0.697382,663.35247,-34.355253)"
             xlink:href="#CMR17-50"
             id="use143"
             x="0"
             y="0"
             width="100%"
             height="100%" />
          <use
             transform="matrix(0.996264,0,0,0.996264,696.53117,0)"
             xlink:href="#CMR17-41"
             id="use145"
             x="0"
             y="0"
             width="100%"
             height="100%" />
          <path
             d="m 663.35247,24.410885 h 31.98318 v 0.991445 h -31.98318 z"
             id="path147" />
        </g>
      </g>
    </g>
    <g
       id="matplotlib.axis_2">
      <g
         id="ytick_1">
        <g
           id="line2d_1">
          <path
             clip-path="url(#p008ff4a6dd)"
             d="M 41.725311,173.49195 H 219.33132"
             style="fill:none;stroke:#cccccc;stroke-width:0.8;stroke-linecap:round"
             id="path153" />
        </g>
        <g
           id="text_12">
          <!-- $\mathdefault{0}$ -->
          <g
             style="fill:#262626"
             transform="matrix(0.1,0,0,-0.1,29.743975,176.9512)"
             id="g158">
            <use
               transform="scale(0.996264)"
               xlink:href="#CMR17-48"
               id="use156"
               x="0"
               y="0"
               width="100%"
               height="100%" />
          </g>
        </g>
      </g>
      <g
         id="ytick_2">
        <g
           id="line2d_2">
          <path
             clip-path="url(#p008ff4a6dd)"
             d="M 41.725311,136.56056 H 219.33132"
             style="fill:none;stroke:#cccccc;stroke-width:0.8;stroke-linecap:round"
             id="path162" />
        </g>
        <g
           id="text_13">
          <!-- $\mathdefault{10}$ -->
          <g
             style="fill:#262626"
             transform="matrix(0.1,0,0,-0.1,24.76264,140.0198)"
             id="g169">
            <use
               transform="scale(0.996264)"
               xlink:href="#CMR17-49"
               id="use165"
               x="0"
               y="0"
               width="100%"
               height="100%" />
            <use
               transform="matrix(0.996264,0,0,0.996264,45.690477,0)"
               xlink:href="#CMR17-48"
               id="use167"
               x="0"
               y="0"
               width="100%"
               height="100%" />
          </g>
        </g>
      </g>
      <g
         id="ytick_3">
        <g
           id="line2d_3">
          <path
             clip-path="url(#p008ff4a6dd)"
             d="M 41.725311,99.629163 H 219.33132"
             style="fill:none;stroke:#cccccc;stroke-width:0.8;stroke-linecap:round"
             id="path173" />
        </g>
        <g
           id="text_14">
          <!-- $\mathdefault{20}$ -->
          <g
             style="fill:#262626"
             transform="matrix(0.1,0,0,-0.1,24.76264,103.08841)"
             id="g180">
            <use
               transform="scale(0.996264)"
               xlink:href="#CMR17-50"
               id="use176"
               x="0"
               y="0"
               width="100%"
               height="100%" />
            <use
               transform="matrix(0.996264,0,0,0.996264,45.690477,0)"
               xlink:href="#CMR17-48"
               id="use178"
               x="0"
               y="0"
               width="100%"
               height="100%" />
          </g>
        </g>
      </g>
      <g
         id="ytick_4">
        <g
           id="line2d_4">
          <path
             clip-path="url(#p008ff4a6dd)"
             d="M 41.725311,62.697769 H 219.33132"
             style="fill:none;stroke:#cccccc;stroke-width:0.8;stroke-linecap:round"
             id="path184" />
        </g>
        <g
           id="text_15">
          <!-- $\mathdefault{30}$ -->
          <g
             style="fill:#262626"
             transform="matrix(0.1,0,0,-0.1,24.76264,66.157019)"
             id="g191">
            <use
               transform="scale(0.996264)"
               xlink:href="#CMR17-51"
               id="use187"
               x="0"
               y="0"
               width="100%"
               height="100%" />
            <use
               transform="matrix(0.996264,0,0,0.996264,45.690477,0)"
               xlink:href="#CMR17-48"
               id="use189"
               x="0"
               y="0"
               width="100%"
               height="100%" />
          </g>
        </g>
      </g>
      <g
         id="ytick_5">
        <g
           id="line2d_5">
          <path
             clip-path="url(#p008ff4a6dd)"
             d="M 41.725311,25.766376 H 219.33132"
             style="fill:none;stroke:#cccccc;stroke-width:0.8;stroke-linecap:round"
             id="path195" />
        </g>
        <g
           id="text_16">
          <!-- $\mathdefault{40}$ -->
          <g
             style="fill:#262626"
             transform="matrix(0.1,0,0,-0.1,24.76264,29.225625)"
             id="g202">
            <use
               transform="scale(0.996264)"
               xlink:href="#CMR17-52"
               id="use198"
               x="0"
               y="0"
               width="100%"
               height="100%" />
            <use
               transform="matrix(0.996264,0,0,0.996264,45.690477,0)"
               xlink:href="#CMR17-48"
               id="use200"
               x="0"
               y="0"
               width="100%"
               height="100%" />
          </g>
        </g>
      </g>
      <g
         id="text_17">
        <!-- relative energies [\si{\kcal\per\mol}] -->
        <g
           style="fill:#262626"
           transform="matrix(0,-0.1,-0.1,0,18.27198,158.07675)"
           id="g273">
          <defs
             id="defs219">
            <path
               d="m 15,23.703125 c 0,9.640625 4.09375,18.6875 11.59375,18.6875 0.703125,0 1.40625,-0.09375 2.109375,-0.40625 0,0 -2.203125,-0.703125 -2.203125,-3.3125 0,-2.40625 1.90625,-3.40625 3.40625,-3.40625 1.1875,0 3.390625,0.703125 3.390625,3.515625 0,3.203125 -3.203125,5.21875 -6.59375,5.21875 -7.609375,0 -10.90625,-7.4375 -11.90625,-10.953125 h -0.09375 V 44 L 3.09375,42.890625 V 40.28125 c 5.90625,0 6.8125,-0.59375 6.8125,-5.421875 V 6.921875 C 9.90625,3.09375 9.5,2.59375 3.09375,2.59375 V 0 c 2.40625,0.1875 7,0.1875 9.609375,0.1875 2.890625,0 8,0 10.703125,-0.1875 v 2.59375 c -7.203125,0 -8.40625,0 -8.40625,4.515625 z"
               id="CMR17-114" />
            <path
               d="M 38.09375,23.484375 C 38.5,23.890625 38.5,24.09375 38.5,25.09375 38.5,35.171875 33.09375,44 21.703125,44 c -10.609375,0 -19,-10.015625 -19,-22.21875 C 2.703125,8.65625 12.203125,-1 22.796875,-1 34,-1 38.40625,9.671875 38.40625,11.796875 38.40625,12.5 37.796875,12.5 37.59375,12.5 c -0.6875,0 -0.796875,-0.203125 -1.1875,-1.421875 C 34.203125,4.21875 28.703125,0.796875 23.5,0.796875 19.203125,0.796875 14.90625,3.21875 12.203125,7.65625 9.09375,12.796875 9.09375,18.75 9.09375,23.484375 Z M 9.203125,25 C 9.90625,39.234375 17.59375,42.390625 21.59375,42.390625 28.40625,42.390625 33,36.0625 33.09375,25 Z"
               id="CMR17-101" />
            <path
               d="m 15.09375,40.390625 h 14 V 43 h -14 V 62 H 13.296875 C 13.09375,51.4375 9.59375,42.1875 1.09375,41.984375 v -1.59375 H 9.796875 V 12.15625 c 0,-1.921875 0,-13.15625 11.609375,-13.15625 5.890625,0 9.296875,5.8125 9.296875,13.25 v 5.734375 H 28.90625 V 12.34375 C 28.90625,5.421875 26.203125,0.796875 22,0.796875 c -2.90625,0 -6.90625,2 -6.90625,11.15625 z"
               id="CMR17-116" />
            <path
               d="M 15.5,61.890625 C 15.5,64.09375 13.703125,66 11.40625,66 9.203125,66 7.296875,64.1875 7.296875,61.890625 c 0,-2.203125 1.796875,-4.09375 4.109375,-4.09375 2.1875,0 4.09375,1.796875 4.09375,4.09375 z m -11.703125,-19 v -2.59375 c 5.609375,0 6.40625,-0.609375 6.40625,-5.4375 V 6.921875 C 10.203125,3.09375 9.796875,2.59375 3.40625,2.59375 V 0 c 2.390625,0.1875 6.6875,0.1875 9.1875,0.1875 2.40625,0 6.5,0 8.8125,-0.1875 v 2.59375 c -5.90625,0 -6.109375,0.609375 -6.109375,4.21875 V 44 Z"
               id="CMR17-105" />
            <path
               d="m 39.09375,33.953125 c 0.90625,2.21875 2.5,6.234375 8.3125,6.4375 V 43 C 45.5,42.890625 43,42.796875 41.09375,42.796875 c -2.09375,0 -5.390625,0 -7.390625,0.203125 v -2.609375 c 2.5,-0.203125 3.890625,-1.40625 3.890625,-4.015625 0,-0.90625 0,-1.109375 -0.59375,-2.515625 L 26,5.921875 14.09375,36.0625 C 13.5,37.375 13.5,37.578125 13.5,37.984375 c 0,2.40625 3.296875,2.40625 4.796875,2.40625 V 43 C 15.90625,42.796875 11.5,42.796875 9,42.796875 c -2.703125,0 -5.796875,0 -8,0.203125 v -2.609375 c 3.796875,0 5.90625,0 7.09375,-3.109375 l 14.5,-36.59375 C 23.203125,-0.8125 23.296875,-1 24.203125,-1 c 0.890625,0 1,0.1875 1.59375,1.6875 z"
               id="CMR17-118" />
            <path
               d="M 41.5,30.53125 C 41.5,35.65625 40.5,44 28.703125,44 c -7.90625,0 -12,-6.125 -13.5,-10.15625 H 15.09375 V 44 L 3.296875,42.890625 V 40.28125 c 5.90625,0 6.796875,-0.59375 6.796875,-5.421875 V 6.921875 C 10.09375,3.09375 9.703125,2.59375 3.296875,2.59375 V 0 c 2.40625,0.1875 6.796875,0.1875 9.40625,0.1875 2.59375,0 7.09375,0 9.5,-0.1875 V 2.59375 C 15.796875,2.59375 15.40625,3 15.40625,6.921875 V 26.21875 C 15.40625,35.453125 21,42.390625 28,42.390625 c 7.40625,0 8.203125,-6.625 8.203125,-11.453125 V 6.921875 c 0,-3.828125 -0.40625,-4.328125 -6.796875,-4.328125 V 0 c 2.390625,0.1875 6.796875,0.1875 9.390625,0.1875 2.609375,0 7.109375,0 9.5,-0.1875 V 2.59375 C 41.90625,2.59375 41.5,3 41.5,6.921875 Z"
               id="CMR17-110" />
            <path
               d="M 11.09375,18.203125 C 13,16.6875 16.296875,15 20.296875,15 28.203125,15 35,21.234375 35,29.609375 c 0,2.625 -0.796875,6.65625 -3.796875,9.78125 2.796875,3 6.890625,4 9.203125,4 0.390625,0 1,0 1.5,-0.296875 -0.40625,-0.109375 -1.3125,-0.5 -1.3125,-2.109375 0,-1.296875 0.90625,-2.1875 2.203125,-2.1875 1.5,0 2.296875,1 2.296875,2.296875 0,1.890625 -1.5,3.90625 -4.6875,3.90625 -4,0 -7.5,-1.90625 -10.3125,-4.515625 -3,2.703125 -6.59375,3.703125 -9.796875,3.703125 -7.890625,0 -14.703125,-6.203125 -14.703125,-14.578125 0,-5.75 3.3125,-9.390625 4.3125,-10.390625 -3,-3.53125 -3,-7.625 -3,-8.125 0,-2.59375 1,-6.40625 4.390625,-8.5 C 6.09375,1.28125 2,-2.875 2,-8.078125 2,-15.5625 11.5,-21 22.90625,-21 c 11,0 20.890625,5.234375 20.890625,13.03125 C 43.796875,6 29,6 21.296875,6 19,6 14.90625,6 14.40625,6.09375 c -3.109375,0.5 -5.203125,3.296875 -5.203125,6.796875 0,0.90625 0,3.109375 1.890625,5.3125 z M 20.296875,16.6875 C 11.5,16.6875 11.5,27.59375 11.5,29.609375 c 0,2.015625 0,12.875 8.796875,12.875 8.796875,0 8.796875,-10.859375 8.796875,-12.875 0,-2.015625 0,-12.921875 -8.796875,-12.921875 z m 2.609375,-36 c -10,0 -16.90625,5.515625 -16.90625,11.234375 0,3.21875 1.703125,6.234375 3.90625,7.90625 2.5,1.765625 3.5,1.765625 10.296875,1.765625 8.203125,0 19.59375,0 19.59375,-9.671875 0,-5.71875 -6.890625,-11.234375 -16.890625,-11.234375 z"
               id="CMR17-103" />
            <path
               d="m 23.5,-25 v 3.5 H 14.09375 V 71.484375 H 23.5 V 75 H 10.59375 V -25 Z"
               id="CMR17-91" />
            <path
               d="M 26.09375,26.234375 C 26,26.4375 25.5,27.03125 25.5,27.328125 c 0,0.203125 7.09375,6.65625 8,7.453125 5.703125,4.78125 9.296875,5.265625 11.90625,5.375 v 2.578125 c -0.609375,0 -0.8125,0 -0.90625,-0.09375 L 39.59375,42.53125 c -2.796875,0 -7.09375,0 -9.796875,0.203125 V 40.15625 c 1.40625,-0.109375 2.40625,-0.890625 2.40625,-2.296875 0,-1.984375 -2,-3.875 -2.109375,-3.875 L 15,20.28125 V 69 L 3.09375,67.890625 v -2.59375 c 5.90625,0 6.8125,-0.59375 6.8125,-5.375 V 6.859375 C 9.90625,3.09375 9.5,2.59375 3.09375,2.59375 V 0 c 2.40625,0.1875 6.8125,0.1875 9.3125,0.1875 2.5,0 6.890625,0 9.296875,-0.1875 v 2.59375 c -6.40625,0 -6.796875,0.390625 -6.796875,4.265625 v 10.9375 L 21.796875,24.0625 31.90625,9.15625 c 1.1875,-1.796875 2.1875,-3.1875 2.1875,-4.484375 0,-1.78125 -1.796875,-2.078125 -3,-2.078125 V 0 C 33.5,0.1875 37.796875,0.1875 40.296875,0.1875 42.09375,0.1875 45.796875,0.09375 47.5,0 v 2.59375 c -4.703125,0 -5.796875,0.890625 -8.796875,5.265625 z"
               id="CMR17-107" />
            <path
               d="m 42.90625,71.296875 c 0,0.09375 0.59375,1.59375 0.59375,1.796875 0,1.203125 -1,1.90625 -1.796875,1.90625 -0.5,0 -1.40625,0 -2.203125,-2.203125 L 6,-21.3125 c 0,-0.09375 -0.59375,-1.59375 -0.59375,-1.796875 0,-1.203125 1,-1.890625 1.796875,-1.890625 0.59375,0 1.5,0.09375 2.203125,2.1875 z"
               id="CMMI12-61" />
            <path
               d="M 67.59375,30.53125 C 67.59375,35.5625 66.703125,44 54.796875,44 48,44 43.296875,39.375 41.5,33.953125 H 41.40625 C 40.203125,42.1875 34.296875,44 28.703125,44 c -7.90625,0 -12,-6.125 -13.5,-10.15625 H 15.09375 V 44 L 3.296875,42.890625 V 40.28125 c 5.90625,0 6.796875,-0.59375 6.796875,-5.421875 V 6.921875 C 10.09375,3.09375 9.703125,2.59375 3.296875,2.59375 V 0 c 2.40625,0.1875 6.796875,0.1875 9.40625,0.1875 2.59375,0 7.09375,0 9.5,-0.1875 V 2.59375 C 15.796875,2.59375 15.40625,3 15.40625,6.921875 V 26.21875 C 15.40625,35.453125 21,42.390625 28,42.390625 c 7.40625,0 8.203125,-6.625 8.203125,-11.453125 V 6.921875 c 0,-3.828125 -0.40625,-4.328125 -6.796875,-4.328125 V 0 c 2.390625,0.1875 6.796875,0.1875 9.390625,0.1875 2.609375,0 7.109375,0 9.5,-0.1875 V 2.59375 C 41.90625,2.59375 41.5,3 41.5,6.921875 V 26.21875 c 0,9.234375 5.59375,16.171875 12.59375,16.171875 7.40625,0 8.203125,-6.625 8.203125,-11.453125 V 6.921875 C 62.296875,3.09375 61.90625,2.59375 55.5,2.59375 V 0 c 2.40625,0.1875 6.796875,0.1875 9.40625,0.1875 2.59375,0 7.09375,0 9.5,-0.1875 V 2.59375 C 68,2.59375 67.59375,3 67.59375,6.921875 Z"
               id="CMR17-109" />
            <path
               d="M 43.09375,21.1875 C 43.09375,34 33.796875,44 22.90625,44 12,44 2.703125,34 2.703125,21.1875 2.703125,8.59375 12,-1 22.90625,-1 c 10.890625,0 20.1875,9.59375 20.1875,22.1875 z M 22.90625,0.796875 c -4.703125,0 -8.703125,2.796875 -11,6.703125 -2.5,4.5 -2.8125,10.09375 -2.8125,14.5 0,4.1875 0.203125,9.390625 2.8125,13.890625 2,3.296875 5.890625,6.5 11,6.5 4.5,0 8.296875,-2.5 10.6875,-6 C 36.703125,31.6875 36.703125,25.09375 36.703125,22 36.703125,18.09375 36.5,12.09375 33.796875,7.296875 31,2.6875 26.703125,0.796875 22.90625,0.796875 Z"
               id="CMR17-111" />
            <path
               d="M 14.296875,75 H 1.40625 v -3.515625 h 9.390625 V -21.5 H 1.40625 V -25 h 12.890625 z"
               id="CMR17-93" />
          </defs>
          <use
             transform="scale(0.996264)"
             xlink:href="#CMR17-114"
             id="use221"
             x="0"
             y="0"
             width="100%"
             height="100%" />
          <use
             transform="matrix(0.996264,0,0,0.996264,35.280768,0)"
             xlink:href="#CMR17-101"
             id="use223"
             x="0"
             y="0"
             width="100%"
             height="100%" />
          <use
             transform="matrix(0.996264,0,0,0.996264,75.766428,0)"
             xlink:href="#CMR17-108"
             id="use225"
             x="0"
             y="0"
             width="100%"
             height="100%" />
          <use
             transform="matrix(0.996264,0,0,0.996264,100.63749,0)"
             xlink:href="#CMR17-97"
             id="use227"
             x="0"
             y="0"
             width="100%"
             height="100%" />
          <use
             transform="matrix(0.996264,0,0,0.996264,146.32796,0)"
             xlink:href="#CMR17-116"
             id="use229"
             x="0"
             y="0"
             width="100%"
             height="100%" />
          <use
             transform="matrix(0.996264,0,0,0.996264,181.60873,0)"
             xlink:href="#CMR17-105"
             id="use231"
             x="0"
             y="0"
             width="100%"
             height="100%" />
          <use
             transform="matrix(0.996264,0,0,0.996264,206.47979,0)"
             xlink:href="#CMR17-118"
             id="use233"
             x="0"
             y="0"
             width="100%"
             height="100%" />
          <use
             transform="matrix(0.996264,0,0,0.996264,252.17025,0)"
             xlink:href="#CMR17-101"
             id="use235"
             x="0"
             y="0"
             width="100%"
             height="100%" />
          <use
             transform="matrix(0.996264,0,0,0.996264,322.73188,0)"
             xlink:href="#CMR17-101"
             id="use237"
             x="0"
             y="0"
             width="100%"
             height="100%" />
          <use
             transform="matrix(0.996264,0,0,0.996264,363.21754,0)"
             xlink:href="#CMR17-110"
             id="use239"
             x="0"
             y="0"
             width="100%"
             height="100%" />
          <use
             transform="matrix(0.996264,0,0,0.996264,414.11291,0)"
             xlink:href="#CMR17-101"
             id="use241"
             x="0"
             y="0"
             width="100%"
             height="100%" />
          <use
             transform="matrix(0.996264,0,0,0.996264,454.59857,0)"
             xlink:href="#CMR17-114"
             id="use243"
             x="0"
             y="0"
             width="100%"
             height="100%" />
          <use
             transform="matrix(0.996264,0,0,0.996264,489.87934,0)"
             xlink:href="#CMR17-103"
             id="use245"
             x="0"
             y="0"
             width="100%"
             height="100%" />
          <use
             transform="matrix(0.996264,0,0,0.996264,535.56981,0)"
             xlink:href="#CMR17-105"
             id="use247"
             x="0"
             y="0"
             width="100%"
             height="100%" />
          <use
             transform="matrix(0.996264,0,0,0.996264,560.44087,0)"
             xlink:href="#CMR17-101"
             id="use249"
             x="0"
             y="0"
             width="100%"
             height="100%" />
          <use
             transform="matrix(0.996264,0,0,0.996264,600.92653,0)"
             xlink:href="#CMR17-115"
             id="use251"
             x="0"
             y="0"
             width="100%"
             height="100%" />
          <use
             transform="matrix(0.996264,0,0,0.996264,666.80384,0)"
             xlink:href="#CMR17-91"
             id="use253"
             x="0"
             y="0"
             width="100%"
             height="100%" />
          <use
             transform="matrix(0.996264,0,0,0.996264,691.6749,0)"
             xlink:href="#CMR17-107"
             id="use255"
             x="0"
             y="0"
             width="100%"
             height="100%" />
          <use
             transform="matrix(0.996264,0,0,0.996264,737.36536,0)"
             xlink:href="#CMR17-99"
             id="use257"
             x="0"
             y="0"
             width="100%"
             height="100%" />
          <use
             transform="matrix(0.996264,0,0,0.996264,777.85102,0)"
             xlink:href="#CMR17-97"
             id="use259"
             x="0"
             y="0"
             width="100%"
             height="100%" />
          <use
             transform="matrix(0.996264,0,0,0.996264,823.5415,0)"
             xlink:href="#CMR17-108"
             id="use261"
             x="0"
             y="0"
             width="100%"
             height="100%" />
          <use
             transform="matrix(0.996264,0,0,0.996264,848.41255,0)"
             xlink:href="#CMMI12-61"
             id="use263"
             x="0"
             y="0"
             width="100%"
             height="100%" />
          <use
             transform="matrix(0.996264,0,0,0.996264,897.18747,0)"
             xlink:href="#CMR17-109"
             id="use265"
             x="0"
             y="0"
             width="100%"
             height="100%" />
          <use
             transform="matrix(0.996264,0,0,0.996264,974.10706,0)"
             xlink:href="#CMR17-111"
             id="use267"
             x="0"
             y="0"
             width="100%"
             height="100%" />
          <use
             transform="matrix(0.996264,0,0,0.996264,1019.7975,0)"
             xlink:href="#CMR17-108"
             id="use269"
             x="0"
             y="0"
             width="100%"
             height="100%" />
          <use
             transform="matrix(0.996264,0,0,0.996264,1044.6686,0)"
             xlink:href="#CMR17-93"
             id="use271"
             x="0"
             y="0"
             width="100%"
             height="100%" />
        </g>
      </g>
    </g>
    <g
       id="patch_3">
      <path
         clip-path="url(#p008ff4a6dd)"
         d="m 43.501371,173.49195 h 14.20848 V 40.617776 h -14.20848 z"
         style="fill:#597dbf;stroke:#ffffff;stroke-linejoin:miter"
         id="path277" />
    </g>
    <g
       id="patch_4">
      <path
         clip-path="url(#p008ff4a6dd)"
         d="m 61.261972,173.49195 h 14.20848 V 128.7724 h -14.20848 z"
         style="fill:#d98b5f;stroke:#ffffff;stroke-linejoin:miter"
         id="path280" />
    </g>
    <g
       id="patch_5">
      <path
         clip-path="url(#p008ff4a6dd)"
         d="m 79.022573,173.49195 h 14.20848 V 83.222834 h -14.20848 z"
         style="fill:#75bf71;stroke:#ffffff;stroke-linejoin:miter"
         id="path283" />
    </g>
    <g
       id="patch_6">
      <path
         clip-path="url(#p008ff4a6dd)"
         d="M 96.783174,173.49195 H 110.99165 V 108.80018 H 96.783174 Z"
         style="fill:#c76e6e;stroke:#ffffff;stroke-linejoin:miter"
         id="path286" />
    </g>
    <g
       id="patch_7">
      <path
         clip-path="url(#p008ff4a6dd)"
         d="m 114.54377,173.49195 h 14.20848 V 95.368657 h -14.20848 z"
         style="fill:#9475ab;stroke:#ffffff;stroke-linejoin:miter"
         id="path289" />
    </g>
    <g
       id="patch_8">
      <path
         clip-path="url(#p008ff4a6dd)"
         d="m 132.30437,173.49195 h 14.20849 V 134.5598 h -14.20849 z"
         style="fill:#826246;stroke:#ffffff;stroke-linejoin:miter"
         id="path292" />
    </g>
    <g
       id="patch_9">
      <path
         clip-path="url(#p008ff4a6dd)"
         d="m 150.06498,173.49195 h 14.20848 v -2.75882 h -14.20848 z"
         style="fill:#d08abb;stroke:#ffffff;stroke-linejoin:miter"
         id="path295" />
    </g>
    <g
       id="patch_10">
      <path
         clip-path="url(#p008ff4a6dd)"
         d="m 167.82558,173.49195 h 14.20848 v -29.87762 h -14.20848 z"
         style="fill:#797979;stroke:#ffffff;stroke-linejoin:miter"
         id="path298" />
    </g>
    <g
       id="patch_11">
      <path
         clip-path="url(#p008ff4a6dd)"
         d="m 185.58618,173.49195 h 14.20848 v -50.35647 h -14.20848 z"
         style="fill:#c7b475;stroke:#ffffff;stroke-linejoin:miter"
         id="path301" />
    </g>
    <g
       id="patch_12">
      <path
         clip-path="url(#p008ff4a6dd)"
         d="m 203.34678,173.49195 h 14.20848 v -25.52204 h -14.20848 z"
         style="fill:#8ec1d6;stroke:#ffffff;stroke-linejoin:miter"
         id="path304" />
    </g>
    <g
       id="line2d_6">
      <path
         clip-path="url(#p008ff4a6dd)"
         d="M 0,0"
         style="fill:none;stroke:#424242;stroke-width:2.7;stroke-linecap:round"
         id="path307" />
    </g>
    <g
       id="line2d_7">
      <path
         clip-path="url(#p008ff4a6dd)"
         d="M 0,0"
         style="fill:none;stroke:#424242;stroke-width:2.7;stroke-linecap:round"
         id="path310" />
    </g>
    <g
       id="line2d_8">
      <path
         clip-path="url(#p008ff4a6dd)"
         d="M 86.126813,87.838977 V 80.89081"
         style="fill:none;stroke:#424242;stroke-width:2.7;stroke-linecap:round"
         id="path313" />
    </g>
    <g
       id="line2d_9">
      <path
         clip-path="url(#p008ff4a6dd)"
         d="m 103.88741,112.90602 v -7.2794"
         style="fill:none;stroke:#424242;stroke-width:2.7;stroke-linecap:round"
         id="path316" />
    </g>
    <g
       id="line2d_10">
      <path
         clip-path="url(#p008ff4a6dd)"
         d="M 121.64802,97.707615 V 92.913839"
         style="fill:none;stroke:#424242;stroke-width:2.7;stroke-linecap:round"
         id="path319" />
    </g>
    <g
       id="line2d_11">
      <path
         clip-path="url(#p008ff4a6dd)"
         d="m 139.40862,135.4268 v -1.63727"
         style="fill:none;stroke:#424242;stroke-width:2.7;stroke-linecap:round"
         id="path322" />
    </g>
    <g
       id="line2d_12">
      <path
         clip-path="url(#p008ff4a6dd)"
         d="m 157.16922,173.49195 v -6.78428"
         style="fill:none;stroke:#424242;stroke-width:2.7;stroke-linecap:round"
         id="path325" />
    </g>
    <g
       id="line2d_13">
      <path
         clip-path="url(#p008ff4a6dd)"
         d="m 174.92982,146.02078 v -5.03679"
         style="fill:none;stroke:#424242;stroke-width:2.7;stroke-linecap:round"
         id="path328" />
    </g>
    <g
       id="line2d_14">
      <path
         clip-path="url(#p008ff4a6dd)"
         d="m 192.69042,124.90469 v -5.16841"
         style="fill:none;stroke:#424242;stroke-width:2.7;stroke-linecap:round"
         id="path331" />
    </g>
    <g
       id="line2d_15">
      <path
         clip-path="url(#p008ff4a6dd)"
         d="m 210.45102,149.87682 v -3.86394"
         style="fill:none;stroke:#424242;stroke-width:2.7;stroke-linecap:round"
         id="path334" />
    </g>
    <g
       id="patch_13">
      <path
         d="M 41.725311,173.49195 V 25.766376"
         style="fill:none;stroke:#262626;stroke-width:0.8;stroke-linecap:square;stroke-linejoin:miter"
         id="path337" />
    </g>
    <g
       id="patch_14">
      <path
         d="M 219.33132,173.49195 V 25.766376"
         style="fill:none;stroke:#262626;stroke-width:0.8;stroke-linecap:square;stroke-linejoin:miter"
         id="path340" />
    </g>
    <g
       id="patch_15">
      <path
         d="M 41.725311,173.49195 H 219.33132"
         style="fill:none;stroke:#262626;stroke-width:0.8;stroke-linecap:square;stroke-linejoin:miter"
         id="path343" />
    </g>
    <g
       id="patch_16">
      <path
         d="M 41.725311,25.766376 H 219.33132"
         style="fill:none;stroke:#262626;stroke-width:0.8;stroke-linecap:square;stroke-linejoin:miter"
         id="path346" />
    </g>
    <g
       id="text_18">
      <!-- a) FeMoco -->
      <g
         style="fill:#262626"
         transform="matrix(0.12,0,0,-0.12,103.46134,19.766376)"
         id="g369">
        <defs
           id="defs351">
          <path
             d="M 54.40625,67.796875 H 5.09375 V 65.1875 c 6.90625,0 8,0 8,-4.515625 V 7.03125 c 0,-4.4375 -1.09375,-4.4375 -8,-4.4375 V 0 c 2.90625,0.1875 8.5,0.1875 11.609375,0.1875 4.09375,0 8.890625,0 13,-0.1875 V 2.59375 H 27.5 c -7.59375,0 -7.796875,0.984375 -7.796875,4.53125 v 25.265625 h 9 c 9.296875,0 10.203125,-3.25 10.203125,-11.546875 h 1.796875 V 46.734375 H 38.90625 C 38.90625,38.296875 38,35 28.703125,35 h -9 v 26.28125 c 0,3.40625 0.203125,3.90625 4.203125,3.90625 H 36.796875 C 51.90625,65.1875 53.59375,58.96875 55,45.625 h 1.796875 z"
             id="CMR17-70" />
          <path
             d="M 20.90625,66.390625 C 20.296875,67.890625 20.203125,68 18.09375,68 H 5.296875 v -2.609375 c 6.90625,0 8,0 8,-4.484375 V 9.75 c 0,-2.484375 0,-7.15625 -8,-7.15625 V 0 c 2.296875,0.1875 6.5,0.1875 9,0.1875 2.5,0 6.703125,0 9,-0.1875 v 2.59375 c -8,0 -8,4.671875 -8,7.15625 v 55.234375 h 0.109375 l 23.5,-63.390625 C 39.296875,0.59375 39.5,0 40.296875,0 c 0.796875,0 1,0.59375 1.40625,1.59375 L 65.40625,65.484375 H 65.5 V 7.078125 C 65.5,2.59375 64.40625,2.59375 57.5,2.59375 V 0 c 2.703125,0.1875 8.09375,0.1875 11,0.1875 2.90625,0 8.40625,0 11.09375,-0.1875 v 2.59375 c -6.890625,0 -8,0 -8,4.484375 V 60.90625 c 0,4.484375 1.109375,4.484375 8,4.484375 V 68 h -12.6875 c -2.109375,0 -2.203125,-0.109375 -2.8125,-1.609375 L 42.5,8.0625 Z"
             id="CMR17-77" />
        </defs>
        <use
           transform="scale(0.996264)"
           xlink:href="#CMR17-97"
           id="use353"
           x="0"
           y="0"
           width="100%"
           height="100%" />
        <use
           transform="matrix(0.996264,0,0,0.996264,45.690477,0)"
           xlink:href="#CMR17-41"
           id="use355"
           x="0"
           y="0"
           width="100%"
           height="100%" />
        <use
           transform="matrix(0.996264,0,0,0.996264,111.04721,0)"
           xlink:href="#CMR17-70"
           id="use357"
           x="0"
           y="0"
           width="100%"
           height="100%" />
        <use
           transform="matrix(0.996264,0,0,0.996264,163.2238,0)"
           xlink:href="#CMR17-101"
           id="use359"
           x="0"
           y="0"
           width="100%"
           height="100%" />
        <use
           transform="matrix(0.996264,0,0,0.996264,203.70946,0)"
           xlink:href="#CMR17-77"
           id="use361"
           x="0"
           y="0"
           width="100%"
           height="100%" />
        <use
           transform="matrix(0.996264,0,0,0.996264,288.3964,0)"
           xlink:href="#CMR17-111"
           id="use363"
           x="0"
           y="0"
           width="100%"
           height="100%" />
        <use
           transform="matrix(0.996264,0,0,0.996264,336.68932,0)"
           xlink:href="#CMR17-99"
           id="use365"
           x="0"
           y="0"
           width="100%"
           height="100%" />
        <use
           transform="matrix(0.996264,0,0,0.996264,377.17498,0)"
           xlink:href="#CMR17-111"
           id="use367"
           x="0"
           y="0"
           width="100%"
           height="100%" />
      </g>
    </g>
  </g>
  <g
     id="axes_2"
     transform="translate(-5.8,-5.8)">
    <g
       id="patch_17">
      <path
         d="M 230.13132,173.49195 H 407.73733 V 25.766376 H 230.13132 Z"
         style="fill:#ffffff"
         id="path373" />
    </g>
    <g
       id="matplotlib.axis_3">
      <g
         id="xtick_11">
        <g
           id="text_19">
          <!-- 1 -->
          <g
             style="fill:#262626"
             transform="matrix(0.1,0,0,-0.1,236.52095,187.41045)"
             id="g378">
            <use
               transform="scale(0.996264)"
               xlink:href="#CMR17-49"
               id="use376"
               x="0"
               y="0"
               width="100%"
               height="100%" />
          </g>
        </g>
      </g>
      <g
         id="xtick_12">
        <g
           id="text_20">
          <!-- 2 -->
          <g
             style="fill:#262626"
             transform="matrix(0.1,0,0,-0.1,254.28155,187.41045)"
             id="g384">
            <use
               transform="scale(0.996264)"
               xlink:href="#CMR17-50"
               id="use382"
               x="0"
               y="0"
               width="100%"
               height="100%" />
          </g>
        </g>
      </g>
      <g
         id="xtick_13">
        <g
           id="text_21">
          <!-- 3 -->
          <g
             style="fill:#262626"
             transform="matrix(0.1,0,0,-0.1,272.04215,187.41045)"
             id="g390">
            <use
               transform="scale(0.996264)"
               xlink:href="#CMR17-51"
               id="use388"
               x="0"
               y="0"
               width="100%"
               height="100%" />
          </g>
        </g>
      </g>
      <g
         id="xtick_14">
        <g
           id="text_22">
          <!-- 4 -->
          <g
             style="fill:#262626"
             transform="matrix(0.1,0,0,-0.1,289.80276,187.41045)"
             id="g396">
            <use
               transform="scale(0.996264)"
               xlink:href="#CMR17-52"
               id="use394"
               x="0"
               y="0"
               width="100%"
               height="100%" />
          </g>
        </g>
      </g>
      <g
         id="xtick_15">
        <g
           id="text_23">
          <!-- 5 -->
          <g
             style="fill:#262626"
             transform="matrix(0.1,0,0,-0.1,307.56336,187.41045)"
             id="g402">
            <use
               transform="scale(0.996264)"
               xlink:href="#CMR17-53"
               id="use400"
               x="0"
               y="0"
               width="100%"
               height="100%" />
          </g>
        </g>
      </g>
      <g
         id="xtick_16">
        <g
           id="text_24">
          <!-- 6 -->
          <g
             style="fill:#262626"
             transform="matrix(0.1,0,0,-0.1,325.32396,187.41045)"
             id="g408">
            <use
               transform="scale(0.996264)"
               xlink:href="#CMR17-54"
               id="use406"
               x="0"
               y="0"
               width="100%"
               height="100%" />
          </g>
        </g>
      </g>
      <g
         id="xtick_17">
        <g
           id="text_25">
          <!-- 7 -->
          <g
             style="fill:#262626"
             transform="matrix(0.1,0,0,-0.1,343.08456,187.41045)"
             id="g414">
            <use
               transform="scale(0.996264)"
               xlink:href="#CMR17-55"
               id="use412"
               x="0"
               y="0"
               width="100%"
               height="100%" />
          </g>
        </g>
      </g>
      <g
         id="xtick_18">
        <g
           id="text_26">
          <!-- 8 -->
          <g
             style="fill:#262626"
             transform="matrix(0.1,0,0,-0.1,360.84516,187.41045)"
             id="g420">
            <use
               transform="scale(0.996264)"
               xlink:href="#CMR17-56"
               id="use418"
               x="0"
               y="0"
               width="100%"
               height="100%" />
          </g>
        </g>
      </g>
      <g
         id="xtick_19">
        <g
           id="text_27">
          <!-- 9 -->
          <g
             style="fill:#262626"
             transform="matrix(0.1,0,0,-0.1,378.60576,187.41045)"
             id="g426">
            <use
               transform="scale(0.996264)"
               xlink:href="#CMR17-57"
               id="use424"
               x="0"
               y="0"
               width="100%"
               height="100%" />
          </g>
        </g>
      </g>
      <g
         id="xtick_20">
        <g
           id="text_28">
          <!-- 10 -->
          <g
             style="fill:#262626"
             transform="matrix(0.1,0,0,-0.1,393.87569,187.41045)"
             id="g434">
            <use
               transform="scale(0.996264)"
               xlink:href="#CMR17-49"
               id="use430"
               x="0"
               y="0"
               width="100%"
               height="100%" />
            <use
               transform="matrix(0.996264,0,0,0.996264,45.690477,0)"
               xlink:href="#CMR17-48"
               id="use432"
               x="0"
               y="0"
               width="100%"
               height="100%" />
          </g>
        </g>
      </g>
    </g>
    <g
       id="matplotlib.axis_4">
      <g
         id="ytick_6">
        <g
           id="line2d_16">
          <path
             clip-path="url(#p486989d2cc)"
             d="M 230.13132,173.49195 H 407.73733"
             style="fill:none;stroke:#cccccc;stroke-width:0.8;stroke-linecap:round"
             id="path439" />
        </g>
        <g
           id="line2d_17" />
        <g
           id="text_29">
          <!-- $\mathdefault{0}$ -->
          <g
             style="fill:#262626"
             transform="matrix(0.1,0,0,-0.1,411.23733,176.9512)"
             id="g445">
            <use
               transform="scale(0.996264)"
               xlink:href="#CMR17-48"
               id="use443"
               x="0"
               y="0"
               width="100%"
               height="100%" />
          </g>
        </g>
      </g>
      <g
         id="ytick_7">
        <g
           id="line2d_18">
          <path
             clip-path="url(#p486989d2cc)"
             d="M 230.13132,136.56056 H 407.73733"
             style="fill:none;stroke:#cccccc;stroke-width:0.8;stroke-linecap:round"
             id="path449" />
        </g>
        <g
           id="line2d_19" />
        <g
           id="text_30">
          <!-- $\mathdefault{10}$ -->
          <g
             style="fill:#262626"
             transform="matrix(0.1,0,0,-0.1,411.23733,140.0198)"
             id="g457">
            <use
               transform="scale(0.996264)"
               xlink:href="#CMR17-49"
               id="use453"
               x="0"
               y="0"
               width="100%"
               height="100%" />
            <use
               transform="matrix(0.996264,0,0,0.996264,45.690477,0)"
               xlink:href="#CMR17-48"
               id="use455"
               x="0"
               y="0"
               width="100%"
               height="100%" />
          </g>
        </g>
      </g>
      <g
         id="ytick_8">
        <g
           id="line2d_20">
          <path
             clip-path="url(#p486989d2cc)"
             d="M 230.13132,99.629163 H 407.73733"
             style="fill:none;stroke:#cccccc;stroke-width:0.8;stroke-linecap:round"
             id="path461" />
        </g>
        <g
           id="line2d_21" />
        <g
           id="text_31">
          <!-- $\mathdefault{20}$ -->
          <g
             style="fill:#262626"
             transform="matrix(0.1,0,0,-0.1,411.23733,103.08841)"
             id="g469">
            <use
               transform="scale(0.996264)"
               xlink:href="#CMR17-50"
               id="use465"
               x="0"
               y="0"
               width="100%"
               height="100%" />
            <use
               transform="matrix(0.996264,0,0,0.996264,45.690477,0)"
               xlink:href="#CMR17-48"
               id="use467"
               x="0"
               y="0"
               width="100%"
               height="100%" />
          </g>
        </g>
      </g>
      <g
         id="ytick_9">
        <g
           id="line2d_22">
          <path
             clip-path="url(#p486989d2cc)"
             d="M 230.13132,62.697769 H 407.73733"
             style="fill:none;stroke:#cccccc;stroke-width:0.8;stroke-linecap:round"
             id="path473" />
        </g>
        <g
           id="line2d_23" />
        <g
           id="text_32">
          <!-- $\mathdefault{30}$ -->
          <g
             style="fill:#262626"
             transform="matrix(0.1,0,0,-0.1,411.23733,66.157019)"
             id="g481">
            <use
               transform="scale(0.996264)"
               xlink:href="#CMR17-51"
               id="use477"
               x="0"
               y="0"
               width="100%"
               height="100%" />
            <use
               transform="matrix(0.996264,0,0,0.996264,45.690477,0)"
               xlink:href="#CMR17-48"
               id="use479"
               x="0"
               y="0"
               width="100%"
               height="100%" />
          </g>
        </g>
      </g>
      <g
         id="ytick_10">
        <g
           id="line2d_24">
          <path
             clip-path="url(#p486989d2cc)"
             d="M 230.13132,25.766376 H 407.73733"
             style="fill:none;stroke:#cccccc;stroke-width:0.8;stroke-linecap:round"
             id="path485" />
        </g>
        <g
           id="line2d_25" />
        <g
           id="text_33">
          <!-- $\mathdefault{40}$ -->
          <g
             style="fill:#262626"
             transform="matrix(0.1,0,0,-0.1,411.23733,29.225625)"
             id="g493">
            <use
               transform="scale(0.996264)"
               xlink:href="#CMR17-52"
               id="use489"
               x="0"
               y="0"
               width="100%"
               height="100%" />
            <use
               transform="matrix(0.996264,0,0,0.996264,45.690477,0)"
               xlink:href="#CMR17-48"
               id="use491"
               x="0"
               y="0"
               width="100%"
               height="100%" />
          </g>
        </g>
      </g>
    </g>
    <g
       id="patch_18">
      <path
         clip-path="url(#p486989d2cc)"
         d="m 231.90738,173.49195 h 14.20848 V 40.520916 h -14.20848 z"
         style="fill:#597dbf;stroke:#ffffff;stroke-linejoin:miter"
         id="path498" />
    </g>
    <g
       id="patch_19">
      <path
         clip-path="url(#p486989d2cc)"
         d="m 249.66798,173.49195 h 14.20848 v -51.77482 h -14.20848 z"
         style="fill:#d98b5f;stroke:#ffffff;stroke-linejoin:miter"
         id="path501" />
    </g>
    <g
       id="patch_20">
      <path
         clip-path="url(#p486989d2cc)"
         d="m 267.42858,173.49195 h 14.20848 V 96.441966 h -14.20848 z"
         style="fill:#75bf71;stroke:#ffffff;stroke-linejoin:miter"
         id="path504" />
    </g>
    <g
       id="patch_21">
      <path
         clip-path="url(#p486989d2cc)"
         d="m 285.18918,173.49195 h 14.20848 V 96.921579 h -14.20848 z"
         style="fill:#c76e6e;stroke:#ffffff;stroke-linejoin:miter"
         id="path507" />
    </g>
    <g
       id="patch_22">
      <path
         clip-path="url(#p486989d2cc)"
         d="m 302.94978,173.49195 h 14.20848 V 94.27376 h -14.20848 z"
         style="fill:#9475ab;stroke:#ffffff;stroke-linejoin:miter"
         id="path510" />
    </g>
    <g
       id="patch_23">
      <path
         clip-path="url(#p486989d2cc)"
         d="m 320.71038,173.49195 h 14.20849 V 97.528651 h -14.20849 z"
         style="fill:#826246;stroke:#ffffff;stroke-linejoin:miter"
         id="path513" />
    </g>
    <g
       id="patch_24">
      <path
         clip-path="url(#p486989d2cc)"
         d="m 338.47099,173.49195 h 14.20848 v -35.04852 h -14.20848 z"
         style="fill:#d08abb;stroke:#ffffff;stroke-linejoin:miter"
         id="path516" />
    </g>
    <g
       id="patch_25">
      <path
         clip-path="url(#p486989d2cc)"
         d="m 356.23159,173.49195 h 14.20848 v -45.20898 h -14.20848 z"
         style="fill:#797979;stroke:#ffffff;stroke-linejoin:miter"
         id="path519" />
    </g>
    <g
       id="patch_26">
      <path
         clip-path="url(#p486989d2cc)"
         d="m 373.99219,173.49195 h 14.20848 V 114.9712 h -14.20848 z"
         style="fill:#c7b475;stroke:#ffffff;stroke-linejoin:miter"
         id="path522" />
    </g>
    <g
       id="patch_27">
      <path
         clip-path="url(#p486989d2cc)"
         d="m 391.75279,173.49195 h 14.20848 v -39.65189 h -14.20848 z"
         style="fill:#8ec1d6;stroke:#ffffff;stroke-linejoin:miter"
         id="path525" />
    </g>
    <g
       id="line2d_26">
      <path
         clip-path="url(#p486989d2cc)"
         d="M 0,0"
         style="fill:none;stroke:#424242;stroke-width:2.7;stroke-linecap:round"
         id="path528" />
    </g>
    <g
       id="line2d_27">
      <path
         clip-path="url(#p486989d2cc)"
         d="M 0,0"
         style="fill:none;stroke:#424242;stroke-width:2.7;stroke-linecap:round"
         id="path531" />
    </g>
    <g
       id="line2d_28">
      <path
         clip-path="url(#p486989d2cc)"
         d="M 274.53282,110.45896 V 79.704401"
         style="fill:none;stroke:#424242;stroke-width:2.7;stroke-linecap:round"
         id="path534" />
    </g>
    <g
       id="line2d_29">
      <path
         clip-path="url(#p486989d2cc)"
         d="M 292.29342,116.44631 V 69.783318"
         style="fill:none;stroke:#424242;stroke-width:2.7;stroke-linecap:round"
         id="path537" />
    </g>
    <g
       id="line2d_30">
      <path
         clip-path="url(#p486989d2cc)"
         d="M 310.05402,102.47786 V 86.387051"
         style="fill:none;stroke:#424242;stroke-width:2.7;stroke-linecap:round"
         id="path540" />
    </g>
    <g
       id="line2d_31">
      <path
         clip-path="url(#p486989d2cc)"
         d="M 327.81462,108.55606 V 90.1823"
         style="fill:none;stroke:#424242;stroke-width:2.7;stroke-linecap:round"
         id="path543" />
    </g>
    <g
       id="line2d_32">
      <path
         clip-path="url(#p486989d2cc)"
         d="M 345.57523,173.49195 V 108.2446"
         style="fill:none;stroke:#424242;stroke-width:2.7;stroke-linecap:round"
         id="path546" />
    </g>
    <g
       id="line2d_33">
      <path
         clip-path="url(#p486989d2cc)"
         d="M 363.33583,134.27117 V 119.59238"
         style="fill:none;stroke:#424242;stroke-width:2.7;stroke-linecap:round"
         id="path549" />
    </g>
    <g
       id="line2d_34">
      <path
         clip-path="url(#p486989d2cc)"
         d="M 381.09643,132.65743 V 104.5946"
         style="fill:none;stroke:#424242;stroke-width:2.7;stroke-linecap:round"
         id="path552" />
    </g>
    <g
       id="line2d_35">
      <path
         clip-path="url(#p486989d2cc)"
         d="m 398.85703,137.9695 v -8.26457"
         style="fill:none;stroke:#424242;stroke-width:2.7;stroke-linecap:round"
         id="path555" />
    </g>
    <g
       id="patch_28">
      <path
         d="M 230.13132,173.49195 V 25.766376"
         style="fill:none;stroke:#262626;stroke-width:0.8;stroke-linecap:square;stroke-linejoin:miter"
         id="path558" />
    </g>
    <g
       id="patch_29">
      <path
         d="M 407.73733,173.49195 V 25.766376"
         style="fill:none;stroke:#262626;stroke-width:0.8;stroke-linecap:square;stroke-linejoin:miter"
         id="path561" />
    </g>
    <g
       id="patch_30">
      <path
         d="M 230.13132,173.49195 H 407.73733"
         style="fill:none;stroke:#262626;stroke-width:0.8;stroke-linecap:square;stroke-linejoin:miter"
         id="path564" />
    </g>
    <g
       id="patch_31">
      <path
         d="M 230.13132,25.766376 H 407.73733"
         style="fill:none;stroke:#262626;stroke-width:0.8;stroke-linecap:square;stroke-linejoin:miter"
         id="path567" />
    </g>
    <g
       id="text_34">
      <!-- b) FeVco -->
      <g
         style="fill:#262626"
         transform="matrix(0.12,0,0,-0.12,295.60676,19.766376)"
         id="g588">
        <defs
           id="defs572">
          <path
             d="M 15,69 3.09375,67.890625 v -2.59375 c 5.90625,0 6.8125,-0.59375 6.8125,-5.25 v -60.25 h 1.796875 l 2.890625,7.15625 C 17.5,2.203125 21.796875,-1 27.59375,-1 c 10,0 20.109375,8.859375 20.109375,22.59375 0,12.921875 -9,22.40625 -19.109375,22.40625 C 22.40625,44 18,40.671875 15,36.734375 Z m 0.203125,-37.40625 c 0,1.8125 0,2.109375 1.390625,4.234375 3.90625,6.0625 9.5,6.5625 11.40625,6.5625 3,0 13.296875,-1.609375 13.296875,-20.703125 C 41.296875,1.703125 29.5,0.59375 27.09375,0.59375 24,0.59375 19.5,1.796875 16.296875,7.65625 c -1.09375,1.921875 -1.09375,2.125 -1.09375,3.9375 z"
             id="CMR17-98" />
          <path
             d="m 59,58.78125 c 0.90625,2.203125 2.5,6.515625 9.203125,6.609375 V 68 c -2.296875,-0.203125 -4.90625,-0.203125 -7.40625,-0.203125 -2.390625,0 -6.5,0 -8.796875,0.203125 v -2.609375 c 5,-0.296875 5.203125,-3.796875 5.203125,-4.40625 0,-1.09375 -0.296875,-1.796875 -0.609375,-2.59375 L 36.90625,7 16.296875,60.984375 c -0.296875,0.703125 -0.5,1.203125 -0.5,1.703125 0,2.703125 4,2.703125 6.109375,2.703125 V 68 C 18.703125,67.796875 14,67.796875 10.703125,67.796875 8.09375,67.796875 3.40625,67.796875 1,68 v -2.609375 c 5.796875,0 6.90625,-0.390625 8.09375,-3.59375 L 32.90625,-0.40625 C 33.40625,-1.8125 33.5,-2 34.59375,-2 c 1.109375,0 1.203125,0.1875 1.703125,1.59375 z"
             id="CMR17-86" />
        </defs>
        <use
           transform="scale(0.996264)"
           xlink:href="#CMR17-98"
           id="use574"
           x="0"
           y="0"
           width="100%"
           height="100%" />
        <use
           transform="matrix(0.996264,0,0,0.996264,50.89537,0)"
           xlink:href="#CMR17-41"
           id="use576"
           x="0"
           y="0"
           width="100%"
           height="100%" />
        <use
           transform="matrix(0.996264,0,0,0.996264,116.2521,0)"
           xlink:href="#CMR17-70"
           id="use578"
           x="0"
           y="0"
           width="100%"
           height="100%" />
        <use
           transform="matrix(0.996264,0,0,0.996264,168.42869,0)"
           xlink:href="#CMR17-101"
           id="use580"
           x="0"
           y="0"
           width="100%"
           height="100%" />
        <use
           transform="matrix(0.996264,0,0,0.996264,208.91436,0)"
           xlink:href="#CMR17-86"
           id="use582"
           x="0"
           y="0"
           width="100%"
           height="100%" />
        <use
           transform="matrix(0.996264,0,0,0.996264,277.98678,0)"
           xlink:href="#CMR17-99"
           id="use584"
           x="0"
           y="0"
           width="100%"
           height="100%" />
        <use
           transform="matrix(0.996264,0,0,0.996264,318.47245,0)"
           xlink:href="#CMR17-111"
           id="use586"
           x="0"
           y="0"
           width="100%"
           height="100%" />
      </g>
    </g>
  </g>
  <defs
     id="defs599">
    <clipPath
       id="p008ff4a6dd">
      <rect
         height="147.72557"
         width="177.606"
         x="41.725311"
         y="25.766376"
         id="rect593" />
    </clipPath>
    <clipPath
       id="p486989d2cc">
      <rect
         height="147.72557"
         width="177.606"
         x="230.13132"
         y="25.766376"
         id="rect596" />
    </clipPath>
  </defs>
</svg>
