<?xml version="1.0" encoding="utf-8" standalone="no"?>
<!DOCTYPE svg PUBLIC "-//W3C//DTD SVG 1.1//EN"
  "http://www.w3.org/Graphics/SVG/1.1/DTD/svg11.dtd">
<!-- Created with matplotlib (https://matplotlib.org/) -->
<svg height="252pt" version="1.1" viewBox="0 0 648 252" width="648pt" xmlns="http://www.w3.org/2000/svg" xmlns:xlink="http://www.w3.org/1999/xlink">
 <metadata>
  <rdf:RDF xmlns:cc="http://creativecommons.org/ns#" xmlns:dc="http://purl.org/dc/elements/1.1/" xmlns:rdf="http://www.w3.org/1999/02/22-rdf-syntax-ns#">
   <cc:Work>
    <dc:type rdf:resource="http://purl.org/dc/dcmitype/StillImage"/>
    <dc:date>2022-04-12T17:05:15.776576</dc:date>
    <dc:format>image/svg+xml</dc:format>
    <dc:creator>
     <cc:Agent>
      <dc:title>Matplotlib v3.3.4, https://matplotlib.org/</dc:title>
     </cc:Agent>
    </dc:creator>
   </cc:Work>
  </rdf:RDF>
 </metadata>
 <defs>
  <style type="text/css">*{stroke-linecap:butt;stroke-linejoin:round;}</style>
 </defs>
 <g id="figure_1">
  <g id="patch_1">
   <path d="M 0 252 
L 648 252 
L 648 0 
L 0 0 
z
" style="fill:#ffffff;"/>
  </g>
  <g id="axes_1">
   <g id="line2d_1">
    <path clip-path="url(#p72cb591d97)" d="M 115.718253 41.371901 
L 73.404204 83.68595 
" style="fill:none;stroke:#333333;stroke-linecap:round;stroke-width:2;"/>
   </g>
   <g id="line2d_2">
    <path clip-path="url(#p72cb591d97)" d="M 115.718253 41.371901 
L 115.718253 100.61157 
" style="fill:none;stroke:#333333;stroke-linecap:round;stroke-width:2;"/>
   </g>
   <g id="line2d_3">
    <path clip-path="url(#p72cb591d97)" d="M 115.718253 41.371901 
L 158.032303 83.68595 
" style="fill:none;stroke:#333333;stroke-linecap:round;stroke-width:2;"/>
   </g>
   <g id="line2d_4">
    <path clip-path="url(#p72cb591d97)" d="M 115.718253 210.628099 
L 73.404204 168.31405 
" style="fill:none;stroke:#333333;stroke-linecap:round;stroke-width:2;"/>
   </g>
   <g id="line2d_5">
    <path clip-path="url(#p72cb591d97)" d="M 115.718253 210.628099 
L 115.718253 151.38843 
" style="fill:none;stroke:#333333;stroke-linecap:round;stroke-width:2;"/>
   </g>
   <g id="line2d_6">
    <path clip-path="url(#p72cb591d97)" d="M 115.718253 210.628099 
L 158.032303 168.31405 
" style="fill:none;stroke:#333333;stroke-linecap:round;stroke-width:2;"/>
   </g>
   <g id="line2d_7">
    <path clip-path="url(#p72cb591d97)" d="M 73.404204 83.68595 
L 158.032303 83.68595 
" style="fill:none;stroke:#333333;stroke-linecap:round;stroke-width:2;"/>
   </g>
   <g id="line2d_8">
    <path clip-path="url(#p72cb591d97)" d="M 73.404204 83.68595 
L 73.404204 168.31405 
" style="fill:none;stroke:#333333;stroke-linecap:round;stroke-width:2;"/>
   </g>
   <g id="line2d_9">
    <path clip-path="url(#p72cb591d97)" d="M 158.032303 168.31405 
L 158.032303 83.68595 
" style="fill:none;stroke:#333333;stroke-linecap:round;stroke-width:2;"/>
   </g>
   <g id="line2d_10">
    <path clip-path="url(#p72cb591d97)" d="M 158.032303 168.31405 
L 73.404204 168.31405 
" style="fill:none;stroke:#333333;stroke-linecap:round;stroke-width:2;"/>
   </g>
   <g id="line2d_11">
    <path clip-path="url(#p72cb591d97)" d="M 115.718253 100.61157 
L 73.404204 83.68595 
" style="fill:none;stroke:#333333;stroke-linecap:round;stroke-width:2;"/>
   </g>
   <g id="line2d_12">
    <path clip-path="url(#p72cb591d97)" d="M 115.718253 100.61157 
L 158.032303 83.68595 
" style="fill:none;stroke:#333333;stroke-linecap:round;stroke-width:2;"/>
   </g>
   <g id="line2d_13">
    <path clip-path="url(#p72cb591d97)" d="M 115.718253 100.61157 
L 115.718253 151.38843 
" style="fill:none;stroke:#333333;stroke-linecap:round;stroke-width:2;"/>
   </g>
   <g id="line2d_14">
    <path clip-path="url(#p72cb591d97)" d="M 115.718253 151.38843 
L 73.404204 168.31405 
" style="fill:none;stroke:#333333;stroke-linecap:round;stroke-width:2;"/>
   </g>
   <g id="line2d_15">
    <path clip-path="url(#p72cb591d97)" d="M 115.718253 151.38843 
L 158.032303 168.31405 
" style="fill:none;stroke:#333333;stroke-linecap:round;stroke-width:2;"/>
   </g>
   <g id="patch_2">
    <path clip-path="url(#p72cb591d97)" d="M 158.032303 193.702479 
C 164.765393 193.702479 171.22362 191.027394 175.984634 186.26638 
C 180.745647 181.505367 183.420732 175.04714 183.420732 168.31405 
C 183.420732 161.580959 180.745647 155.122733 175.984634 150.361719 
C 171.22362 145.600705 164.765393 142.92562 158.032303 142.92562 
C 151.299212 142.92562 144.840986 145.600705 140.079972 150.361719 
C 135.318958 155.122733 132.643873 161.580959 132.643873 168.31405 
C 132.643873 175.04714 135.318958 181.505367 140.079972 186.26638 
C 144.840986 191.027394 151.299212 193.702479 158.032303 193.702479 
z
" style="fill:#333333;stroke:#333333;stroke-linejoin:miter;"/>
   </g>
   <g id="patch_3">
    <path clip-path="url(#p72cb591d97)" d="M 158.032303 191.586777 
C 164.204302 191.586777 170.124343 189.134616 174.488606 184.770353 
C 178.852869 180.40609 181.30503 174.486049 181.30503 168.31405 
C 181.30503 162.14205 178.852869 156.222009 174.488606 151.857746 
C 170.124343 147.493484 164.204302 145.041322 158.032303 145.041322 
C 151.860303 145.041322 145.940262 147.493484 141.575999 151.857746 
C 137.211737 156.222009 134.759575 162.14205 134.759575 168.31405 
C 134.759575 174.486049 137.211737 180.40609 141.575999 184.770353 
C 145.940262 189.134616 151.860303 191.586777 158.032303 191.586777 
z
" style="fill:#f6a283;stroke:#f6a283;stroke-linejoin:miter;"/>
   </g>
   <g id="patch_4">
    <path clip-path="url(#p72cb591d97)" d="M 158.032303 109.07438 
C 164.765393 109.07438 171.22362 106.399295 175.984634 101.638281 
C 180.745647 96.877267 183.420732 90.419041 183.420732 83.68595 
C 183.420732 76.95286 180.745647 70.494633 175.984634 65.73362 
C 171.22362 60.972606 164.765393 58.297521 158.032303 58.297521 
C 151.299212 58.297521 144.840986 60.972606 140.079972 65.73362 
C 135.318958 70.494633 132.643873 76.95286 132.643873 83.68595 
C 132.643873 90.419041 135.318958 96.877267 140.079972 101.638281 
C 144.840986 106.399295 151.299212 109.07438 158.032303 109.07438 
z
" style="fill:#333333;stroke:#333333;stroke-linejoin:miter;"/>
   </g>
   <g id="patch_5">
    <path clip-path="url(#p72cb591d97)" d="M 158.032303 106.958678 
C 164.204302 106.958678 170.124343 104.506516 174.488606 100.142254 
C 178.852869 95.777991 181.30503 89.85795 181.30503 83.68595 
C 181.30503 77.513951 178.852869 71.59391 174.488606 67.229647 
C 170.124343 62.865384 164.204302 60.413223 158.032303 60.413223 
C 151.860303 60.413223 145.940262 62.865384 141.575999 67.229647 
C 137.211737 71.59391 134.759575 77.513951 134.759575 83.68595 
C 134.759575 89.85795 137.211737 95.777991 141.575999 100.142254 
C 145.940262 104.506516 151.860303 106.958678 158.032303 106.958678 
z
" style="fill:#f1ccb8;stroke:#f1ccb8;stroke-linejoin:miter;"/>
   </g>
   <g id="patch_6">
    <path clip-path="url(#p72cb591d97)" d="M 73.404204 193.702479 
C 80.137294 193.702479 86.595521 191.027394 91.356534 186.26638 
C 96.117548 181.505367 98.792633 175.04714 98.792633 168.31405 
C 98.792633 161.580959 96.117548 155.122733 91.356534 150.361719 
C 86.595521 145.600705 80.137294 142.92562 73.404204 142.92562 
C 66.671113 142.92562 60.212886 145.600705 55.451873 150.361719 
C 50.690859 155.122733 48.015774 161.580959 48.015774 168.31405 
C 48.015774 175.04714 50.690859 181.505367 55.451873 186.26638 
C 60.212886 191.027394 66.671113 193.702479 73.404204 193.702479 
z
" style="fill:#333333;stroke:#333333;stroke-linejoin:miter;"/>
   </g>
   <g id="patch_7">
    <path clip-path="url(#p72cb591d97)" d="M 73.404204 191.586777 
C 79.576203 191.586777 85.496244 189.134616 89.860507 184.770353 
C 94.224769 180.40609 96.676931 174.486049 96.676931 168.31405 
C 96.676931 162.14205 94.224769 156.222009 89.860507 151.857746 
C 85.496244 147.493484 79.576203 145.041322 73.404204 145.041322 
C 67.232204 145.041322 61.312163 147.493484 56.9479 151.857746 
C 52.583638 156.222009 50.131476 162.14205 50.131476 168.31405 
C 50.131476 174.486049 52.583638 180.40609 56.9479 184.770353 
C 61.312163 189.134616 67.232204 191.586777 73.404204 191.586777 
z
" style="fill:#d8dce2;stroke:#d8dce2;stroke-linejoin:miter;"/>
   </g>
   <g id="patch_8">
    <path clip-path="url(#p72cb591d97)" d="M 73.404204 109.07438 
C 80.137294 109.07438 86.595521 106.399295 91.356534 101.638281 
C 96.117548 96.877267 98.792633 90.419041 98.792633 83.68595 
C 98.792633 76.95286 96.117548 70.494633 91.356534 65.73362 
C 86.595521 60.972606 80.137294 58.297521 73.404204 58.297521 
C 66.671113 58.297521 60.212886 60.972606 55.451873 65.73362 
C 50.690859 70.494633 48.015774 76.95286 48.015774 83.68595 
C 48.015774 90.419041 50.690859 96.877267 55.451873 101.638281 
C 60.212886 106.399295 66.671113 109.07438 73.404204 109.07438 
z
" style="fill:#333333;stroke:#333333;stroke-linejoin:miter;"/>
   </g>
   <g id="patch_9">
    <path clip-path="url(#p72cb591d97)" d="M 73.404204 106.958678 
C 79.576203 106.958678 85.496244 104.506516 89.860507 100.142254 
C 94.224769 95.777991 96.676931 89.85795 96.676931 83.68595 
C 96.676931 77.513951 94.224769 71.59391 89.860507 67.229647 
C 85.496244 62.865384 79.576203 60.413223 73.404204 60.413223 
C 67.232204 60.413223 61.312163 62.865384 56.9479 67.229647 
C 52.583638 71.59391 50.131476 77.513951 50.131476 83.68595 
C 50.131476 89.85795 52.583638 95.777991 56.9479 100.142254 
C 61.312163 104.506516 67.232204 106.958678 73.404204 106.958678 
z
" style="fill:#cdd9ec;stroke:#cdd9ec;stroke-linejoin:miter;"/>
   </g>
   <g id="patch_10">
    <path clip-path="url(#p72cb591d97)" d="M 115.718253 230.727273 
C 121.048616 230.727273 126.161379 228.609497 129.930515 224.840361 
C 133.699651 221.071225 135.817427 215.958462 135.817427 210.628099 
C 135.817427 205.297736 133.699651 200.184973 129.930515 196.415837 
C 126.161379 192.646701 121.048616 190.528926 115.718253 190.528926 
C 110.38789 190.528926 105.275127 192.646701 101.505991 196.415837 
C 97.736855 200.184973 95.61908 205.297736 95.61908 210.628099 
C 95.61908 215.958462 97.736855 221.071225 101.505991 224.840361 
C 105.275127 228.609497 110.38789 230.727273 115.718253 230.727273 
z
" style="fill:#333333;stroke:#333333;stroke-linejoin:miter;"/>
   </g>
   <g id="patch_11">
    <path clip-path="url(#p72cb591d97)" d="M 115.718253 228.61157 
C 120.487525 228.61157 125.062103 226.716718 128.434487 223.344334 
C 131.806872 219.971949 133.701724 215.397371 133.701724 210.628099 
C 133.701724 205.858827 131.806872 201.28425 128.434487 197.911865 
C 125.062103 194.53948 120.487525 192.644628 115.718253 192.644628 
C 110.948981 192.644628 106.374404 194.53948 103.002019 197.911865 
C 99.629634 201.28425 97.734782 205.858827 97.734782 210.628099 
C 97.734782 215.397371 99.629634 219.971949 103.002019 223.344334 
C 106.374404 226.716718 110.948981 228.61157 115.718253 228.61157 
z
" style="fill:#d3dbe7;stroke:#d3dbe7;stroke-linejoin:miter;"/>
   </g>
   <g id="patch_12">
    <path clip-path="url(#p72cb591d97)" d="M 115.718253 61.471074 
C 121.048616 61.471074 126.161379 59.353299 129.930515 55.584163 
C 133.699651 51.815027 135.817427 46.702264 135.817427 41.371901 
C 135.817427 36.041538 133.699651 30.928775 129.930515 27.159639 
C 126.161379 23.390503 121.048616 21.272727 115.718253 21.272727 
C 110.38789 21.272727 105.275127 23.390503 101.505991 27.159639 
C 97.736855 30.928775 95.61908 36.041538 95.61908 41.371901 
C 95.61908 46.702264 97.736855 51.815027 101.505991 55.584163 
C 105.275127 59.353299 110.38789 61.471074 115.718253 61.471074 
z
" style="fill:#333333;stroke:#333333;stroke-linejoin:miter;"/>
   </g>
   <g id="patch_13">
    <path clip-path="url(#p72cb591d97)" d="M 115.718253 59.355372 
C 120.487525 59.355372 125.062103 57.46052 128.434487 54.088135 
C 131.806872 50.71575 133.701724 46.141173 133.701724 41.371901 
C 133.701724 36.602629 131.806872 32.028051 128.434487 28.655666 
C 125.062103 25.283282 120.487525 23.38843 115.718253 23.38843 
C 110.948981 23.38843 106.374404 25.283282 103.002019 28.655666 
C 99.629634 32.028051 97.734782 36.602629 97.734782 41.371901 
C 97.734782 46.141173 99.629634 50.71575 103.002019 54.088135 
C 106.374404 57.46052 110.948981 59.355372 115.718253 59.355372 
z
" style="fill:#c5d6f2;stroke:#c5d6f2;stroke-linejoin:miter;"/>
   </g>
   <g id="patch_14">
    <path clip-path="url(#p72cb591d97)" d="M 115.718253 167.256198 
C 119.926435 167.256198 123.962826 165.58427 126.93846 162.608637 
C 129.914094 159.633003 131.586022 155.596611 131.586022 151.38843 
C 131.586022 147.180248 129.914094 143.143857 126.93846 140.168223 
C 123.962826 137.192589 119.926435 135.520661 115.718253 135.520661 
C 111.510072 135.520661 107.47368 137.192589 104.498046 140.168223 
C 101.522413 143.143857 99.850485 147.180248 99.850485 151.38843 
C 99.850485 155.596611 101.522413 159.633003 104.498046 162.608637 
C 107.47368 165.58427 111.510072 167.256198 115.718253 167.256198 
z
" style="fill:#333333;stroke:#333333;stroke-linejoin:miter;"/>
   </g>
   <g id="patch_15">
    <path clip-path="url(#p72cb591d97)" d="M 115.718253 165.140496 
C 119.365344 165.140496 122.86355 163.691491 125.442432 161.112609 
C 128.021315 158.533726 129.470319 155.03552 129.470319 151.38843 
C 129.470319 147.741339 128.021315 144.243133 125.442432 141.664251 
C 122.86355 139.085368 119.365344 137.636364 115.718253 137.636364 
C 112.071163 137.636364 108.572956 139.085368 105.994074 141.664251 
C 103.415191 144.243133 101.966187 147.741339 101.966187 151.38843 
C 101.966187 155.03552 103.415191 158.533726 105.994074 161.112609 
C 108.572956 163.691491 112.071163 165.140496 115.718253 165.140496 
z
" style="fill:#e3d9d3;stroke:#e3d9d3;stroke-linejoin:miter;"/>
   </g>
   <g id="patch_16">
    <path clip-path="url(#p72cb591d97)" d="M 115.718253 116.479339 
C 119.926435 116.479339 123.962826 114.807411 126.93846 111.831777 
C 129.914094 108.856143 131.586022 104.819752 131.586022 100.61157 
C 131.586022 96.403389 129.914094 92.366997 126.93846 89.391363 
C 123.962826 86.41573 119.926435 84.743802 115.718253 84.743802 
C 111.510072 84.743802 107.47368 86.41573 104.498046 89.391363 
C 101.522413 92.366997 99.850485 96.403389 99.850485 100.61157 
C 99.850485 104.819752 101.522413 108.856143 104.498046 111.831777 
C 107.47368 114.807411 111.510072 116.479339 115.718253 116.479339 
z
" style="fill:#333333;stroke:#333333;stroke-linejoin:miter;"/>
   </g>
   <g id="patch_17">
    <path clip-path="url(#p72cb591d97)" d="M 115.718253 114.363636 
C 119.365344 114.363636 122.86355 112.914632 125.442432 110.335749 
C 128.021315 107.756867 129.470319 104.258661 129.470319 100.61157 
C 129.470319 96.96448 128.021315 93.466274 125.442432 90.887391 
C 122.86355 88.308509 119.365344 86.859504 115.718253 86.859504 
C 112.071163 86.859504 108.572956 88.308509 105.994074 90.887391 
C 103.415191 93.466274 101.966187 96.96448 101.966187 100.61157 
C 101.966187 104.258661 103.415191 107.756867 105.994074 110.335749 
C 108.572956 112.914632 112.071163 114.363636 115.718253 114.363636 
z
" style="fill:#d9dce1;stroke:#d9dce1;stroke-linejoin:miter;"/>
   </g>
  </g>
  <g id="axes_2">
   <g id="line2d_16">
    <path clip-path="url(#p9922bfef37)" d="M 324 54.687678 
L 288.343839 90.343839 
" style="fill:none;stroke:#333333;stroke-linecap:round;stroke-width:2;"/>
   </g>
   <g id="line2d_17">
    <path clip-path="url(#p9922bfef37)" d="M 324 54.687678 
L 324 104.606304 
" style="fill:none;stroke:#333333;stroke-linecap:round;stroke-width:2;"/>
   </g>
   <g id="line2d_18">
    <path clip-path="url(#p9922bfef37)" d="M 324 54.687678 
L 359.656161 90.343839 
" style="fill:none;stroke:#333333;stroke-linecap:round;stroke-width:2;"/>
   </g>
   <g id="line2d_19">
    <path clip-path="url(#p9922bfef37)" d="M 324 197.312322 
L 288.343839 161.656161 
" style="fill:none;stroke:#333333;stroke-linecap:round;stroke-width:2;"/>
   </g>
   <g id="line2d_20">
    <path clip-path="url(#p9922bfef37)" d="M 324 197.312322 
L 324 147.393696 
" style="fill:none;stroke:#333333;stroke-linecap:round;stroke-width:2;"/>
   </g>
   <g id="line2d_21">
    <path clip-path="url(#p9922bfef37)" d="M 324 197.312322 
L 359.656161 161.656161 
" style="fill:none;stroke:#333333;stroke-linecap:round;stroke-width:2;"/>
   </g>
   <g id="line2d_22">
    <path clip-path="url(#p9922bfef37)" d="M 288.343839 90.343839 
L 359.656161 90.343839 
" style="fill:none;stroke:#333333;stroke-linecap:round;stroke-width:2;"/>
   </g>
   <g id="line2d_23">
    <path clip-path="url(#p9922bfef37)" d="M 288.343839 90.343839 
L 288.343839 161.656161 
" style="fill:none;stroke:#333333;stroke-linecap:round;stroke-width:2;"/>
   </g>
   <g id="line2d_24">
    <path clip-path="url(#p9922bfef37)" d="M 359.656161 161.656161 
L 359.656161 90.343839 
" style="fill:none;stroke:#333333;stroke-linecap:round;stroke-width:2;"/>
   </g>
   <g id="line2d_25">
    <path clip-path="url(#p9922bfef37)" d="M 359.656161 161.656161 
L 288.343839 161.656161 
" style="fill:none;stroke:#333333;stroke-linecap:round;stroke-width:2;"/>
   </g>
   <g id="line2d_26">
    <path clip-path="url(#p9922bfef37)" d="M 324 104.606304 
L 288.343839 90.343839 
" style="fill:none;stroke:#333333;stroke-linecap:round;stroke-width:2;"/>
   </g>
   <g id="line2d_27">
    <path clip-path="url(#p9922bfef37)" d="M 324 104.606304 
L 359.656161 90.343839 
" style="fill:none;stroke:#333333;stroke-linecap:round;stroke-width:2;"/>
   </g>
   <g id="line2d_28">
    <path clip-path="url(#p9922bfef37)" d="M 324 104.606304 
L 324 147.393696 
" style="fill:none;stroke:#333333;stroke-linecap:round;stroke-width:2;"/>
   </g>
   <g id="line2d_29">
    <path clip-path="url(#p9922bfef37)" d="M 324 147.393696 
L 288.343839 161.656161 
" style="fill:none;stroke:#333333;stroke-linecap:round;stroke-width:2;"/>
   </g>
   <g id="line2d_30">
    <path clip-path="url(#p9922bfef37)" d="M 324 147.393696 
L 359.656161 161.656161 
" style="fill:none;stroke:#333333;stroke-linecap:round;stroke-width:2;"/>
   </g>
   <g id="patch_18">
    <path clip-path="url(#p9922bfef37)" d="M 324 78.755587 
C 330.382884 78.755587 336.505201 76.21964 341.018581 71.70626 
C 345.531962 67.192879 348.067909 61.070562 348.067909 54.687678 
C 348.067909 48.304794 345.531962 42.182478 341.018581 37.669097 
C 336.505201 33.155717 330.382884 30.61977 324 30.61977 
C 317.617116 30.61977 311.494799 33.155717 306.981419 37.669097 
C 302.468038 42.182478 299.932091 48.304794 299.932091 54.687678 
C 299.932091 61.070562 302.468038 67.192879 306.981419 71.70626 
C 311.494799 76.21964 317.617116 78.755587 324 78.755587 
z
" style="fill:#333333;stroke:#333333;stroke-linejoin:miter;"/>
   </g>
   <g id="patch_19">
    <path clip-path="url(#p9922bfef37)" d="M 324 76.972779 
C 329.910078 76.972779 335.57889 74.62468 339.757946 70.445624 
C 343.937002 66.266568 346.2851 60.597756 346.2851 54.687678 
C 346.2851 48.777601 343.937002 43.108789 339.757946 38.929733 
C 335.57889 34.750677 329.910078 32.402578 324 32.402578 
C 318.089922 32.402578 312.42111 34.750677 308.242054 38.929733 
C 304.062998 43.108789 301.7149 48.777601 301.7149 54.687678 
C 301.7149 60.597756 304.062998 66.266568 308.242054 70.445624 
C 312.42111 74.62468 318.089922 76.972779 324 76.972779 
z
" style="fill:#dadce0;stroke:#dadce0;stroke-linejoin:miter;"/>
   </g>
   <g id="patch_20">
    <path clip-path="url(#p9922bfef37)" d="M 324 221.38023 
C 330.382884 221.38023 336.505201 218.844283 341.018581 214.330903 
C 345.531962 209.817522 348.067909 203.695206 348.067909 197.312322 
C 348.067909 190.929438 345.531962 184.807121 341.018581 180.29374 
C 336.505201 175.78036 330.382884 173.244413 324 173.244413 
C 317.617116 173.244413 311.494799 175.78036 306.981419 180.29374 
C 302.468038 184.807121 299.932091 190.929438 299.932091 197.312322 
C 299.932091 203.695206 302.468038 209.817522 306.981419 214.330903 
C 311.494799 218.844283 317.617116 221.38023 324 221.38023 
z
" style="fill:#333333;stroke:#333333;stroke-linejoin:miter;"/>
   </g>
   <g id="patch_21">
    <path clip-path="url(#p9922bfef37)" d="M 324 219.597422 
C 329.910078 219.597422 335.57889 217.249323 339.757946 213.070267 
C 343.937002 208.891211 346.2851 203.222399 346.2851 197.312322 
C 346.2851 191.402244 343.937002 185.733432 339.757946 181.554376 
C 335.57889 177.37532 329.910078 175.027221 324 175.027221 
C 318.089922 175.027221 312.42111 177.37532 308.242054 181.554376 
C 304.062998 185.733432 301.7149 191.402244 301.7149 197.312322 
C 301.7149 203.222399 304.062998 208.891211 308.242054 213.070267 
C 312.42111 217.249323 318.089922 219.597422 324 219.597422 
z
" style="fill:#f7b093;stroke:#f7b093;stroke-linejoin:miter;"/>
   </g>
   <g id="patch_22">
    <path clip-path="url(#p9922bfef37)" d="M 252.687678 150.067909 
C 259.070562 150.067909 265.192879 147.531962 269.70626 143.018581 
C 274.21964 138.505201 276.755587 132.382884 276.755587 126 
C 276.755587 119.617116 274.21964 113.494799 269.70626 108.981419 
C 265.192879 104.468038 259.070562 101.932091 252.687678 101.932091 
C 246.304794 101.932091 240.182478 104.468038 235.669097 108.981419 
C 231.155717 113.494799 228.61977 119.617116 228.61977 126 
C 228.61977 132.382884 231.155717 138.505201 235.669097 143.018581 
C 240.182478 147.531962 246.304794 150.067909 252.687678 150.067909 
z
" style="fill:#333333;stroke:#333333;stroke-linejoin:miter;"/>
   </g>
   <g id="patch_23">
    <path clip-path="url(#p9922bfef37)" d="M 252.687678 148.2851 
C 258.597756 148.2851 264.266568 145.937002 268.445624 141.757946 
C 272.62468 137.57889 274.972779 131.910078 274.972779 126 
C 274.972779 120.089922 272.62468 114.42111 268.445624 110.242054 
C 264.266568 106.062998 258.597756 103.7149 252.687678 103.7149 
C 246.777601 103.7149 241.108789 106.062998 236.929733 110.242054 
C 232.750677 114.42111 230.402578 120.089922 230.402578 126 
C 230.402578 131.910078 232.750677 137.57889 236.929733 141.757946 
C 241.108789 145.937002 246.777601 148.2851 252.687678 148.2851 
z
" style="fill:#adc9fd;stroke:#adc9fd;stroke-linejoin:miter;"/>
   </g>
   <g id="patch_24">
    <path clip-path="url(#p9922bfef37)" d="M 395.312322 150.067909 
C 401.695206 150.067909 407.817522 147.531962 412.330903 143.018581 
C 416.844283 138.505201 419.38023 132.382884 419.38023 126 
C 419.38023 119.617116 416.844283 113.494799 412.330903 108.981419 
C 407.817522 104.468038 401.695206 101.932091 395.312322 101.932091 
C 388.929438 101.932091 382.807121 104.468038 378.29374 108.981419 
C 373.78036 113.494799 371.244413 119.617116 371.244413 126 
C 371.244413 132.382884 373.78036 138.505201 378.29374 143.018581 
C 382.807121 147.531962 388.929438 150.067909 395.312322 150.067909 
z
" style="fill:#333333;stroke:#333333;stroke-linejoin:miter;"/>
   </g>
   <g id="patch_25">
    <path clip-path="url(#p9922bfef37)" d="M 395.312322 148.2851 
C 401.222399 148.2851 406.891211 145.937002 411.070267 141.757946 
C 415.249323 137.57889 417.597422 131.910078 417.597422 126 
C 417.597422 120.089922 415.249323 114.42111 411.070267 110.242054 
C 406.891211 106.062998 401.222399 103.7149 395.312322 103.7149 
C 389.402244 103.7149 383.733432 106.062998 379.554376 110.242054 
C 375.37532 114.42111 373.027221 120.089922 373.027221 126 
C 373.027221 131.910078 375.37532 137.57889 379.554376 141.757946 
C 383.733432 145.937002 389.402244 148.2851 395.312322 148.2851 
z
" style="fill:#b50927;stroke:#b50927;stroke-linejoin:miter;"/>
   </g>
   <g id="patch_26">
    <path clip-path="url(#p9922bfef37)" d="M 284.778223 195.529514 
C 289.979092 195.529514 294.967646 193.463187 298.645215 189.785617 
C 302.322785 186.108048 304.389112 181.119494 304.389112 175.918625 
C 304.389112 170.717757 302.322785 165.729202 298.645215 162.051633 
C 294.967646 158.374064 289.979092 156.307737 284.778223 156.307737 
C 279.577355 156.307737 274.5888 158.374064 270.911231 162.051633 
C 267.233662 165.729202 265.167335 170.717757 265.167335 175.918625 
C 265.167335 181.119494 267.233662 186.108048 270.911231 189.785617 
C 274.5888 193.463187 279.577355 195.529514 284.778223 195.529514 
z
" style="fill:#333333;stroke:#333333;stroke-linejoin:miter;"/>
   </g>
   <g id="patch_27">
    <path clip-path="url(#p9922bfef37)" d="M 284.778223 193.746705 
C 289.506285 193.746705 294.041335 191.868226 297.38458 188.524982 
C 300.727825 185.181737 302.606304 180.646687 302.606304 175.918625 
C 302.606304 171.190563 300.727825 166.655513 297.38458 163.312269 
C 294.041335 159.969024 289.506285 158.090545 284.778223 158.090545 
C 280.050161 158.090545 275.515111 159.969024 272.171867 163.312269 
C 268.828622 166.655513 266.950143 171.190563 266.950143 175.918625 
C 266.950143 180.646687 268.828622 185.181737 272.171867 188.524982 
C 275.515111 191.868226 280.050161 193.746705 284.778223 193.746705 
z
" style="fill:#bbd1f8;stroke:#bbd1f8;stroke-linejoin:miter;"/>
   </g>
   <g id="patch_28">
    <path clip-path="url(#p9922bfef37)" d="M 363.221777 195.529514 
C 368.422645 195.529514 373.4112 193.463187 377.088769 189.785617 
C 380.766338 186.108048 382.832665 181.119494 382.832665 175.918625 
C 382.832665 170.717757 380.766338 165.729202 377.088769 162.051633 
C 373.4112 158.374064 368.422645 156.307737 363.221777 156.307737 
C 358.020908 156.307737 353.032354 158.374064 349.354785 162.051633 
C 345.677215 165.729202 343.610888 170.717757 343.610888 175.918625 
C 343.610888 181.119494 345.677215 186.108048 349.354785 189.785617 
C 353.032354 193.463187 358.020908 195.529514 363.221777 195.529514 
z
" style="fill:#333333;stroke:#333333;stroke-linejoin:miter;"/>
   </g>
   <g id="patch_29">
    <path clip-path="url(#p9922bfef37)" d="M 363.221777 193.746705 
C 367.949839 193.746705 372.484889 191.868226 375.828133 188.524982 
C 379.171378 185.181737 381.049857 180.646687 381.049857 175.918625 
C 381.049857 171.190563 379.171378 166.655513 375.828133 163.312269 
C 372.484889 159.969024 367.949839 158.090545 363.221777 158.090545 
C 358.493715 158.090545 353.958665 159.969024 350.61542 163.312269 
C 347.272175 166.655513 345.393696 171.190563 345.393696 175.918625 
C 345.393696 180.646687 347.272175 185.181737 350.61542 188.524982 
C 353.958665 191.868226 358.493715 193.746705 363.221777 193.746705 
z
" style="fill:#f5c0a7;stroke:#f5c0a7;stroke-linejoin:miter;"/>
   </g>
   <g id="patch_30">
    <path clip-path="url(#p9922bfef37)" d="M 284.778223 95.692263 
C 289.979092 95.692263 294.967646 93.625936 298.645215 89.948367 
C 302.322785 86.270798 304.389112 81.282243 304.389112 76.081375 
C 304.389112 70.880506 302.322785 65.891952 298.645215 62.214383 
C 294.967646 58.536813 289.979092 56.470486 284.778223 56.470486 
C 279.577355 56.470486 274.5888 58.536813 270.911231 62.214383 
C 267.233662 65.891952 265.167335 70.880506 265.167335 76.081375 
C 265.167335 81.282243 267.233662 86.270798 270.911231 89.948367 
C 274.5888 93.625936 279.577355 95.692263 284.778223 95.692263 
z
" style="fill:#333333;stroke:#333333;stroke-linejoin:miter;"/>
   </g>
   <g id="patch_31">
    <path clip-path="url(#p9922bfef37)" d="M 284.778223 93.909455 
C 289.506285 93.909455 294.041335 92.030976 297.38458 88.687731 
C 300.727825 85.344487 302.606304 80.809437 302.606304 76.081375 
C 302.606304 71.353313 300.727825 66.818263 297.38458 63.475018 
C 294.041335 60.131774 289.506285 58.253295 284.778223 58.253295 
C 280.050161 58.253295 275.515111 60.131774 272.171867 63.475018 
C 268.828622 66.818263 266.950143 71.353313 266.950143 76.081375 
C 266.950143 80.809437 268.828622 85.344487 272.171867 88.687731 
C 275.515111 92.030976 280.050161 93.909455 284.778223 93.909455 
z
" style="fill:#a1c0ff;stroke:#a1c0ff;stroke-linejoin:miter;"/>
   </g>
   <g id="patch_32">
    <path clip-path="url(#p9922bfef37)" d="M 363.221777 95.692263 
C 368.422645 95.692263 373.4112 93.625936 377.088769 89.948367 
C 380.766338 86.270798 382.832665 81.282243 382.832665 76.081375 
C 382.832665 70.880506 380.766338 65.891952 377.088769 62.214383 
C 373.4112 58.536813 368.422645 56.470486 363.221777 56.470486 
C 358.020908 56.470486 353.032354 58.536813 349.354785 62.214383 
C 345.677215 65.891952 343.610888 70.880506 343.610888 76.081375 
C 343.610888 81.282243 345.677215 86.270798 349.354785 89.948367 
C 353.032354 93.625936 358.020908 95.692263 363.221777 95.692263 
z
" style="fill:#333333;stroke:#333333;stroke-linejoin:miter;"/>
   </g>
   <g id="patch_33">
    <path clip-path="url(#p9922bfef37)" d="M 363.221777 93.909455 
C 367.949839 93.909455 372.484889 92.030976 375.828133 88.687731 
C 379.171378 85.344487 381.049857 80.809437 381.049857 76.081375 
C 381.049857 71.353313 379.171378 66.818263 375.828133 63.475018 
C 372.484889 60.131774 367.949839 58.253295 363.221777 58.253295 
C 358.493715 58.253295 353.958665 60.131774 350.61542 63.475018 
C 347.272175 66.818263 345.393696 71.353313 345.393696 76.081375 
C 345.393696 80.809437 347.272175 85.344487 350.61542 88.687731 
C 353.958665 92.030976 358.493715 93.909455 363.221777 93.909455 
z
" style="fill:#e1dad6;stroke:#e1dad6;stroke-linejoin:miter;"/>
   </g>
   <g id="patch_34">
    <path clip-path="url(#p9922bfef37)" d="M 324 145.610888 
C 329.200868 145.610888 334.189423 143.544562 337.866992 139.866992 
C 341.544562 136.189423 343.610888 131.200868 343.610888 126 
C 343.610888 120.799132 341.544562 115.810577 337.866992 112.133008 
C 334.189423 108.455438 329.200868 106.389112 324 106.389112 
C 318.799132 106.389112 313.810577 108.455438 310.133008 112.133008 
C 306.455438 115.810577 304.389112 120.799132 304.389112 126 
C 304.389112 131.200868 306.455438 136.189423 310.133008 139.866992 
C 313.810577 143.544562 318.799132 145.610888 324 145.610888 
z
" style="fill:#333333;stroke:#333333;stroke-linejoin:miter;"/>
   </g>
   <g id="patch_35">
    <path clip-path="url(#p9922bfef37)" d="M 324 143.82808 
C 328.728062 143.82808 333.263112 141.949601 336.606357 138.606357 
C 339.949601 135.263112 341.82808 130.728062 341.82808 126 
C 341.82808 121.271938 339.949601 116.736888 336.606357 113.393643 
C 333.263112 110.050399 328.728062 108.17192 324 108.17192 
C 319.271938 108.17192 314.736888 110.050399 311.393643 113.393643 
C 308.050399 116.736888 306.17192 121.271938 306.17192 126 
C 306.17192 130.728062 308.050399 135.263112 311.393643 138.606357 
C 314.736888 141.949601 319.271938 143.82808 324 143.82808 
z
" style="fill:#e1dad6;stroke:#e1dad6;stroke-linejoin:miter;"/>
   </g>
  </g>
  <g id="axes_3">
   <g id="line2d_31">
    <path clip-path="url(#p5ccd37ac1e)" d="M 532.281747 28.579281 
L 483.571387 77.289641 
" style="fill:none;stroke:#000000;stroke-linecap:round;"/>
   </g>
   <g id="line2d_32">
    <path clip-path="url(#p5ccd37ac1e)" d="M 532.281747 28.579281 
L 532.281747 101.64482 
" style="fill:none;stroke:#000000;stroke-linecap:round;"/>
   </g>
   <g id="line2d_33">
    <path clip-path="url(#p5ccd37ac1e)" d="M 532.281747 28.579281 
L 580.992106 77.289641 
" style="fill:none;stroke:#000000;stroke-linecap:round;"/>
   </g>
   <g id="line2d_34">
    <path clip-path="url(#p5ccd37ac1e)" d="M 532.281747 223.420719 
L 483.571387 174.710359 
" style="fill:none;stroke:#000000;stroke-linecap:round;"/>
   </g>
   <g id="line2d_35">
    <path clip-path="url(#p5ccd37ac1e)" d="M 532.281747 223.420719 
L 532.281747 150.35518 
" style="fill:none;stroke:#000000;stroke-linecap:round;"/>
   </g>
   <g id="line2d_36">
    <path clip-path="url(#p5ccd37ac1e)" d="M 532.281747 223.420719 
L 580.992106 174.710359 
" style="fill:none;stroke:#000000;stroke-linecap:round;"/>
   </g>
   <g id="line2d_37">
    <path clip-path="url(#p5ccd37ac1e)" d="M 483.571387 77.289641 
L 580.992106 77.289641 
" style="fill:none;stroke:#000000;stroke-linecap:round;"/>
   </g>
   <g id="line2d_38">
    <path clip-path="url(#p5ccd37ac1e)" d="M 483.571387 77.289641 
L 483.571387 174.710359 
" style="fill:none;stroke:#000000;stroke-linecap:round;"/>
   </g>
   <g id="line2d_39">
    <path clip-path="url(#p5ccd37ac1e)" d="M 580.992106 174.710359 
L 580.992106 77.289641 
" style="fill:none;stroke:#000000;stroke-linecap:round;"/>
   </g>
   <g id="line2d_40">
    <path clip-path="url(#p5ccd37ac1e)" d="M 580.992106 174.710359 
L 483.571387 174.710359 
" style="fill:none;stroke:#000000;stroke-linecap:round;"/>
   </g>
   <g id="line2d_41">
    <path clip-path="url(#p5ccd37ac1e)" d="M 532.281747 101.64482 
L 483.571387 77.289641 
" style="fill:none;stroke:#000000;stroke-linecap:round;"/>
   </g>
   <g id="line2d_42">
    <path clip-path="url(#p5ccd37ac1e)" d="M 532.281747 101.64482 
L 580.992106 77.289641 
" style="fill:none;stroke:#000000;stroke-linecap:round;"/>
   </g>
   <g id="line2d_43">
    <path clip-path="url(#p5ccd37ac1e)" d="M 532.281747 101.64482 
L 532.281747 150.35518 
" style="fill:none;stroke:#000000;stroke-linecap:round;"/>
   </g>
   <g id="line2d_44">
    <path clip-path="url(#p5ccd37ac1e)" d="M 532.281747 150.35518 
L 483.571387 174.710359 
" style="fill:none;stroke:#000000;stroke-linecap:round;"/>
   </g>
   <g id="line2d_45">
    <path clip-path="url(#p5ccd37ac1e)" d="M 532.281747 150.35518 
L 580.992106 174.710359 
" style="fill:none;stroke:#000000;stroke-linecap:round;"/>
   </g>
   <g id="patch_36">
    <path clip-path="url(#p5ccd37ac1e)" d="M 528.62847 28.579281 
L 535.935024 28.579281 
L 488.442423 77.289641 
L 478.700352 77.289641 
z
" style="fill:#c83836;stroke:#333333;stroke-linejoin:miter;"/>
   </g>
   <g id="patch_37">
    <path clip-path="url(#p5ccd37ac1e)" d="M 528.62847 28.579281 
L 535.935024 28.579281 
L 585.863142 77.289641 
L 576.12107 77.289641 
z
" style="fill:#92b4fe;stroke:#333333;stroke-linejoin:miter;"/>
   </g>
   <g id="patch_38">
    <path clip-path="url(#p5ccd37ac1e)" d="M 528.62847 28.579281 
L 535.935024 28.579281 
L 534.717265 101.64482 
L 529.846229 101.64482 
z
" style="fill:#c3d5f4;stroke:#333333;stroke-linejoin:miter;"/>
   </g>
   <g id="patch_39">
    <path clip-path="url(#p5ccd37ac1e)" d="M 528.62847 223.420719 
L 535.935024 223.420719 
L 488.442423 174.710359 
L 478.700352 174.710359 
z
" style="fill:#e6d7cf;stroke:#333333;stroke-linejoin:miter;"/>
   </g>
   <g id="patch_40">
    <path clip-path="url(#p5ccd37ac1e)" d="M 528.62847 223.420719 
L 535.935024 223.420719 
L 585.863142 174.710359 
L 576.12107 174.710359 
z
" style="fill:#e4d9d2;stroke:#333333;stroke-linejoin:miter;"/>
   </g>
   <g id="patch_41">
    <path clip-path="url(#p5ccd37ac1e)" d="M 528.62847 223.420719 
L 535.935024 223.420719 
L 534.717265 150.35518 
L 529.846229 150.35518 
z
" style="fill:#dfdbd9;stroke:#333333;stroke-linejoin:miter;"/>
   </g>
   <g id="patch_42">
    <path clip-path="url(#p5ccd37ac1e)" d="M 576.12107 77.289641 
L 585.863142 77.289641 
L 534.717265 101.64482 
L 529.846229 101.64482 
z
" style="fill:#e9d5cb;stroke:#333333;stroke-linejoin:miter;"/>
   </g>
   <g id="patch_43">
    <path clip-path="url(#p5ccd37ac1e)" d="M 529.846229 101.64482 
L 534.717265 101.64482 
L 488.442423 77.289641 
L 478.700352 77.289641 
z
" style="fill:#f6a283;stroke:#333333;stroke-linejoin:miter;"/>
   </g>
   <g id="patch_44">
    <path clip-path="url(#p5ccd37ac1e)" d="M 483.571387 82.160677 
L 483.571387 72.418605 
L 580.992106 72.418605 
L 580.992106 82.160677 
z
" style="fill:#e3d9d3;stroke:#333333;stroke-linejoin:miter;"/>
   </g>
   <g id="patch_45">
    <path clip-path="url(#p5ccd37ac1e)" d="M 576.12107 174.710359 
L 585.863142 174.710359 
L 534.717265 150.35518 
L 529.846229 150.35518 
z
" style="fill:#cbd8ee;stroke:#333333;stroke-linejoin:miter;"/>
   </g>
   <g id="patch_46">
    <path clip-path="url(#p5ccd37ac1e)" d="M 529.846229 150.35518 
L 534.717265 150.35518 
L 488.442423 174.710359 
L 478.700352 174.710359 
z
" style="fill:#ec8165;stroke:#333333;stroke-linejoin:miter;"/>
   </g>
   <g id="patch_47">
    <path clip-path="url(#p5ccd37ac1e)" d="M 483.571387 179.581395 
L 483.571387 169.839323 
L 580.992106 169.839323 
L 580.992106 179.581395 
z
" style="fill:#d5dbe5;stroke:#333333;stroke-linejoin:miter;"/>
   </g>
   <g id="patch_48">
    <path clip-path="url(#p5ccd37ac1e)" d="M 478.700352 77.289641 
L 488.442423 77.289641 
L 488.442423 174.710359 
L 478.700352 174.710359 
z
" style="fill:#e67259;stroke:#333333;stroke-linejoin:miter;"/>
   </g>
   <g id="patch_49">
    <path clip-path="url(#p5ccd37ac1e)" d="M 576.12107 77.289641 
L 585.863142 77.289641 
L 585.863142 174.710359 
L 576.12107 174.710359 
z
" style="fill:#b5cdfa;stroke:#333333;stroke-linejoin:miter;"/>
   </g>
   <g id="patch_50">
    <path clip-path="url(#p5ccd37ac1e)" d="M 529.846229 101.64482 
L 534.717265 101.64482 
L 534.717265 150.35518 
L 529.846229 150.35518 
z
" style="fill:#e6d7cf;stroke:#333333;stroke-linejoin:miter;"/>
   </g>
   <g id="patch_51">
    <path clip-path="url(#p5ccd37ac1e)" d="M 532.281747 35.885835 
C 534.219468 35.885835 536.078085 35.11597 537.448261 33.745795 
C 538.818436 32.37562 539.588301 30.517002 539.588301 28.579281 
C 539.588301 26.64156 538.818436 24.782943 537.448261 23.412767 
C 536.078085 22.042592 534.219468 21.272727 532.281747 21.272727 
C 530.344026 21.272727 528.485409 22.042592 527.115233 23.412767 
C 525.745058 24.782943 524.975193 26.64156 524.975193 28.579281 
C 524.975193 30.517002 525.745058 32.37562 527.115233 33.745795 
C 528.485409 35.11597 530.344026 35.885835 532.281747 35.885835 
z
" style="fill:#333333;stroke:#333333;stroke-linejoin:miter;"/>
   </g>
   <g id="patch_52">
    <path clip-path="url(#p5ccd37ac1e)" d="M 532.281747 28.579281 
C 532.281747 28.579281 532.281747 28.579281 532.281747 28.579281 
C 532.281747 28.579281 532.281747 28.579281 532.281747 28.579281 
C 532.281747 28.579281 532.281747 28.579281 532.281747 28.579281 
C 532.281747 28.579281 532.281747 28.579281 532.281747 28.579281 
C 532.281747 28.579281 532.281747 28.579281 532.281747 28.579281 
C 532.281747 28.579281 532.281747 28.579281 532.281747 28.579281 
C 532.281747 28.579281 532.281747 28.579281 532.281747 28.579281 
C 532.281747 28.579281 532.281747 28.579281 532.281747 28.579281 
z
" style="fill:#333333;stroke:#333333;stroke-linejoin:miter;"/>
   </g>
   <g id="patch_53">
    <path clip-path="url(#p5ccd37ac1e)" d="M 532.281747 35.885835 
C 534.219468 35.885835 536.078085 35.11597 537.448261 33.745795 
C 538.818436 32.37562 539.588301 30.517002 539.588301 28.579281 
C 539.588301 26.64156 538.818436 24.782943 537.448261 23.412767 
C 536.078085 22.042592 534.219468 21.272727 532.281747 21.272727 
C 530.344026 21.272727 528.485409 22.042592 527.115233 23.412767 
C 525.745058 24.782943 524.975193 26.64156 524.975193 28.579281 
C 524.975193 30.517002 525.745058 32.37562 527.115233 33.745795 
C 528.485409 35.11597 530.344026 35.885835 532.281747 35.885835 
z
" style="fill:#333333;stroke:#333333;stroke-linejoin:miter;"/>
   </g>
   <g id="patch_54">
    <path clip-path="url(#p5ccd37ac1e)" d="M 532.281747 28.579281 
C 532.281747 28.579281 532.281747 28.579281 532.281747 28.579281 
C 532.281747 28.579281 532.281747 28.579281 532.281747 28.579281 
C 532.281747 28.579281 532.281747 28.579281 532.281747 28.579281 
C 532.281747 28.579281 532.281747 28.579281 532.281747 28.579281 
C 532.281747 28.579281 532.281747 28.579281 532.281747 28.579281 
C 532.281747 28.579281 532.281747 28.579281 532.281747 28.579281 
C 532.281747 28.579281 532.281747 28.579281 532.281747 28.579281 
C 532.281747 28.579281 532.281747 28.579281 532.281747 28.579281 
z
" style="fill:#333333;stroke:#333333;stroke-linejoin:miter;"/>
   </g>
   <g id="patch_55">
    <path clip-path="url(#p5ccd37ac1e)" d="M 532.281747 35.885835 
C 534.219468 35.885835 536.078085 35.11597 537.448261 33.745795 
C 538.818436 32.37562 539.588301 30.517002 539.588301 28.579281 
C 539.588301 26.64156 538.818436 24.782943 537.448261 23.412767 
C 536.078085 22.042592 534.219468 21.272727 532.281747 21.272727 
C 530.344026 21.272727 528.485409 22.042592 527.115233 23.412767 
C 525.745058 24.782943 524.975193 26.64156 524.975193 28.579281 
C 524.975193 30.517002 525.745058 32.37562 527.115233 33.745795 
C 528.485409 35.11597 530.344026 35.885835 532.281747 35.885835 
z
" style="fill:#333333;stroke:#333333;stroke-linejoin:miter;"/>
   </g>
   <g id="patch_56">
    <path clip-path="url(#p5ccd37ac1e)" d="M 532.281747 28.579281 
C 532.281747 28.579281 532.281747 28.579281 532.281747 28.579281 
C 532.281747 28.579281 532.281747 28.579281 532.281747 28.579281 
C 532.281747 28.579281 532.281747 28.579281 532.281747 28.579281 
C 532.281747 28.579281 532.281747 28.579281 532.281747 28.579281 
C 532.281747 28.579281 532.281747 28.579281 532.281747 28.579281 
C 532.281747 28.579281 532.281747 28.579281 532.281747 28.579281 
C 532.281747 28.579281 532.281747 28.579281 532.281747 28.579281 
C 532.281747 28.579281 532.281747 28.579281 532.281747 28.579281 
z
" style="fill:#333333;stroke:#333333;stroke-linejoin:miter;"/>
   </g>
   <g id="patch_57">
    <path clip-path="url(#p5ccd37ac1e)" d="M 532.281747 230.727273 
C 534.219468 230.727273 536.078085 229.957408 537.448261 228.587233 
C 538.818436 227.217057 539.588301 225.35844 539.588301 223.420719 
C 539.588301 221.482998 538.818436 219.62438 537.448261 218.254205 
C 536.078085 216.88403 534.219468 216.114165 532.281747 216.114165 
C 530.344026 216.114165 528.485409 216.88403 527.115233 218.254205 
C 525.745058 219.62438 524.975193 221.482998 524.975193 223.420719 
C 524.975193 225.35844 525.745058 227.217057 527.115233 228.587233 
C 528.485409 229.957408 530.344026 230.727273 532.281747 230.727273 
z
" style="fill:#333333;stroke:#333333;stroke-linejoin:miter;"/>
   </g>
   <g id="patch_58">
    <path clip-path="url(#p5ccd37ac1e)" d="M 532.281747 223.420719 
C 532.281747 223.420719 532.281747 223.420719 532.281747 223.420719 
C 532.281747 223.420719 532.281747 223.420719 532.281747 223.420719 
C 532.281747 223.420719 532.281747 223.420719 532.281747 223.420719 
C 532.281747 223.420719 532.281747 223.420719 532.281747 223.420719 
C 532.281747 223.420719 532.281747 223.420719 532.281747 223.420719 
C 532.281747 223.420719 532.281747 223.420719 532.281747 223.420719 
C 532.281747 223.420719 532.281747 223.420719 532.281747 223.420719 
C 532.281747 223.420719 532.281747 223.420719 532.281747 223.420719 
z
" style="fill:#333333;stroke:#333333;stroke-linejoin:miter;"/>
   </g>
   <g id="patch_59">
    <path clip-path="url(#p5ccd37ac1e)" d="M 532.281747 230.727273 
C 534.219468 230.727273 536.078085 229.957408 537.448261 228.587233 
C 538.818436 227.217057 539.588301 225.35844 539.588301 223.420719 
C 539.588301 221.482998 538.818436 219.62438 537.448261 218.254205 
C 536.078085 216.88403 534.219468 216.114165 532.281747 216.114165 
C 530.344026 216.114165 528.485409 216.88403 527.115233 218.254205 
C 525.745058 219.62438 524.975193 221.482998 524.975193 223.420719 
C 524.975193 225.35844 525.745058 227.217057 527.115233 228.587233 
C 528.485409 229.957408 530.344026 230.727273 532.281747 230.727273 
z
" style="fill:#333333;stroke:#333333;stroke-linejoin:miter;"/>
   </g>
   <g id="patch_60">
    <path clip-path="url(#p5ccd37ac1e)" d="M 532.281747 223.420719 
C 532.281747 223.420719 532.281747 223.420719 532.281747 223.420719 
C 532.281747 223.420719 532.281747 223.420719 532.281747 223.420719 
C 532.281747 223.420719 532.281747 223.420719 532.281747 223.420719 
C 532.281747 223.420719 532.281747 223.420719 532.281747 223.420719 
C 532.281747 223.420719 532.281747 223.420719 532.281747 223.420719 
C 532.281747 223.420719 532.281747 223.420719 532.281747 223.420719 
C 532.281747 223.420719 532.281747 223.420719 532.281747 223.420719 
C 532.281747 223.420719 532.281747 223.420719 532.281747 223.420719 
z
" style="fill:#333333;stroke:#333333;stroke-linejoin:miter;"/>
   </g>
   <g id="patch_61">
    <path clip-path="url(#p5ccd37ac1e)" d="M 532.281747 230.727273 
C 534.219468 230.727273 536.078085 229.957408 537.448261 228.587233 
C 538.818436 227.217057 539.588301 225.35844 539.588301 223.420719 
C 539.588301 221.482998 538.818436 219.62438 537.448261 218.254205 
C 536.078085 216.88403 534.219468 216.114165 532.281747 216.114165 
C 530.344026 216.114165 528.485409 216.88403 527.115233 218.254205 
C 525.745058 219.62438 524.975193 221.482998 524.975193 223.420719 
C 524.975193 225.35844 525.745058 227.217057 527.115233 228.587233 
C 528.485409 229.957408 530.344026 230.727273 532.281747 230.727273 
z
" style="fill:#333333;stroke:#333333;stroke-linejoin:miter;"/>
   </g>
   <g id="patch_62">
    <path clip-path="url(#p5ccd37ac1e)" d="M 532.281747 223.420719 
C 532.281747 223.420719 532.281747 223.420719 532.281747 223.420719 
C 532.281747 223.420719 532.281747 223.420719 532.281747 223.420719 
C 532.281747 223.420719 532.281747 223.420719 532.281747 223.420719 
C 532.281747 223.420719 532.281747 223.420719 532.281747 223.420719 
C 532.281747 223.420719 532.281747 223.420719 532.281747 223.420719 
C 532.281747 223.420719 532.281747 223.420719 532.281747 223.420719 
C 532.281747 223.420719 532.281747 223.420719 532.281747 223.420719 
C 532.281747 223.420719 532.281747 223.420719 532.281747 223.420719 
z
" style="fill:#333333;stroke:#333333;stroke-linejoin:miter;"/>
   </g>
   <g id="patch_63">
    <path clip-path="url(#p5ccd37ac1e)" d="M 580.992106 87.031712 
C 583.575734 87.031712 586.053891 86.005226 587.880791 84.178326 
C 589.707692 82.351425 590.734178 79.873268 590.734178 77.289641 
C 590.734178 74.706013 589.707692 72.227856 587.880791 70.400956 
C 586.053891 68.574055 583.575734 67.547569 580.992106 67.547569 
C 578.408479 67.547569 575.930322 68.574055 574.103421 70.400956 
C 572.276521 72.227856 571.250034 74.706013 571.250034 77.289641 
C 571.250034 79.873268 572.276521 82.351425 574.103421 84.178326 
C 575.930322 86.005226 578.408479 87.031712 580.992106 87.031712 
z
" style="fill:#333333;stroke:#333333;stroke-linejoin:miter;"/>
   </g>
   <g id="patch_64">
    <path clip-path="url(#p5ccd37ac1e)" d="M 580.992106 77.289641 
C 580.992106 77.289641 580.992106 77.289641 580.992106 77.289641 
C 580.992106 77.289641 580.992106 77.289641 580.992106 77.289641 
C 580.992106 77.289641 580.992106 77.289641 580.992106 77.289641 
C 580.992106 77.289641 580.992106 77.289641 580.992106 77.289641 
C 580.992106 77.289641 580.992106 77.289641 580.992106 77.289641 
C 580.992106 77.289641 580.992106 77.289641 580.992106 77.289641 
C 580.992106 77.289641 580.992106 77.289641 580.992106 77.289641 
C 580.992106 77.289641 580.992106 77.289641 580.992106 77.289641 
z
" style="fill:#333333;stroke:#333333;stroke-linejoin:miter;"/>
   </g>
   <g id="patch_65">
    <path clip-path="url(#p5ccd37ac1e)" d="M 532.281747 106.515856 
C 533.573561 106.515856 534.812639 106.002613 535.726089 105.089163 
C 536.63954 104.175713 537.152783 102.936634 537.152783 101.64482 
C 537.152783 100.353006 536.63954 99.113928 535.726089 98.200478 
C 534.812639 97.287027 533.573561 96.773784 532.281747 96.773784 
C 530.989933 96.773784 529.750855 97.287027 528.837404 98.200478 
C 527.923954 99.113928 527.410711 100.353006 527.410711 101.64482 
C 527.410711 102.936634 527.923954 104.175713 528.837404 105.089163 
C 529.750855 106.002613 530.989933 106.515856 532.281747 106.515856 
z
" style="fill:#333333;stroke:#333333;stroke-linejoin:miter;"/>
   </g>
   <g id="patch_66">
    <path clip-path="url(#p5ccd37ac1e)" d="M 532.281747 101.64482 
C 532.281747 101.64482 532.281747 101.64482 532.281747 101.64482 
C 532.281747 101.64482 532.281747 101.64482 532.281747 101.64482 
C 532.281747 101.64482 532.281747 101.64482 532.281747 101.64482 
C 532.281747 101.64482 532.281747 101.64482 532.281747 101.64482 
C 532.281747 101.64482 532.281747 101.64482 532.281747 101.64482 
C 532.281747 101.64482 532.281747 101.64482 532.281747 101.64482 
C 532.281747 101.64482 532.281747 101.64482 532.281747 101.64482 
C 532.281747 101.64482 532.281747 101.64482 532.281747 101.64482 
z
" style="fill:#333333;stroke:#333333;stroke-linejoin:miter;"/>
   </g>
   <g id="patch_67">
    <path clip-path="url(#p5ccd37ac1e)" d="M 483.571387 77.289641 
C 483.571387 77.289641 483.571387 77.289641 483.571387 77.289641 
C 483.571387 77.289641 483.571387 77.289641 483.571387 77.289641 
C 483.571387 77.289641 483.571387 77.289641 483.571387 77.289641 
C 483.571387 77.289641 483.571387 77.289641 483.571387 77.289641 
C 483.571387 77.289641 483.571387 77.289641 483.571387 77.289641 
C 483.571387 77.289641 483.571387 77.289641 483.571387 77.289641 
C 483.571387 77.289641 483.571387 77.289641 483.571387 77.289641 
C 483.571387 77.289641 483.571387 77.289641 483.571387 77.289641 
z
" style="fill:#333333;stroke:#333333;stroke-linejoin:miter;"/>
   </g>
   <g id="patch_68">
    <path clip-path="url(#p5ccd37ac1e)" d="M 483.571387 87.031712 
C 486.155015 87.031712 488.633172 86.005226 490.460073 84.178326 
C 492.286973 82.351425 493.313459 79.873268 493.313459 77.289641 
C 493.313459 74.706013 492.286973 72.227856 490.460073 70.400956 
C 488.633172 68.574055 486.155015 67.547569 483.571387 67.547569 
C 480.98776 67.547569 478.509603 68.574055 476.682702 70.400956 
C 474.855802 72.227856 473.829316 74.706013 473.829316 77.289641 
C 473.829316 79.873268 474.855802 82.351425 476.682702 84.178326 
C 478.509603 86.005226 480.98776 87.031712 483.571387 87.031712 
z
" style="fill:#333333;stroke:#333333;stroke-linejoin:miter;"/>
   </g>
   <g id="patch_69">
    <path clip-path="url(#p5ccd37ac1e)" d="M 580.992106 184.452431 
C 583.575734 184.452431 586.053891 183.425945 587.880791 181.599044 
C 589.707692 179.772144 590.734178 177.293987 590.734178 174.710359 
C 590.734178 172.126732 589.707692 169.648575 587.880791 167.821674 
C 586.053891 165.994774 583.575734 164.968288 580.992106 164.968288 
C 578.408479 164.968288 575.930322 165.994774 574.103421 167.821674 
C 572.276521 169.648575 571.250034 172.126732 571.250034 174.710359 
C 571.250034 177.293987 572.276521 179.772144 574.103421 181.599044 
C 575.930322 183.425945 578.408479 184.452431 580.992106 184.452431 
z
" style="fill:#333333;stroke:#333333;stroke-linejoin:miter;"/>
   </g>
   <g id="patch_70">
    <path clip-path="url(#p5ccd37ac1e)" d="M 580.992106 174.710359 
C 580.992106 174.710359 580.992106 174.710359 580.992106 174.710359 
C 580.992106 174.710359 580.992106 174.710359 580.992106 174.710359 
C 580.992106 174.710359 580.992106 174.710359 580.992106 174.710359 
C 580.992106 174.710359 580.992106 174.710359 580.992106 174.710359 
C 580.992106 174.710359 580.992106 174.710359 580.992106 174.710359 
C 580.992106 174.710359 580.992106 174.710359 580.992106 174.710359 
C 580.992106 174.710359 580.992106 174.710359 580.992106 174.710359 
C 580.992106 174.710359 580.992106 174.710359 580.992106 174.710359 
z
" style="fill:#333333;stroke:#333333;stroke-linejoin:miter;"/>
   </g>
   <g id="patch_71">
    <path clip-path="url(#p5ccd37ac1e)" d="M 532.281747 155.226216 
C 533.573561 155.226216 534.812639 154.712973 535.726089 153.799522 
C 536.63954 152.886072 537.152783 151.646994 537.152783 150.35518 
C 537.152783 149.063366 536.63954 147.824287 535.726089 146.910837 
C 534.812639 145.997387 533.573561 145.484144 532.281747 145.484144 
C 530.989933 145.484144 529.750855 145.997387 528.837404 146.910837 
C 527.923954 147.824287 527.410711 149.063366 527.410711 150.35518 
C 527.410711 151.646994 527.923954 152.886072 528.837404 153.799522 
C 529.750855 154.712973 530.989933 155.226216 532.281747 155.226216 
z
" style="fill:#333333;stroke:#333333;stroke-linejoin:miter;"/>
   </g>
   <g id="patch_72">
    <path clip-path="url(#p5ccd37ac1e)" d="M 532.281747 150.35518 
C 532.281747 150.35518 532.281747 150.35518 532.281747 150.35518 
C 532.281747 150.35518 532.281747 150.35518 532.281747 150.35518 
C 532.281747 150.35518 532.281747 150.35518 532.281747 150.35518 
C 532.281747 150.35518 532.281747 150.35518 532.281747 150.35518 
C 532.281747 150.35518 532.281747 150.35518 532.281747 150.35518 
C 532.281747 150.35518 532.281747 150.35518 532.281747 150.35518 
C 532.281747 150.35518 532.281747 150.35518 532.281747 150.35518 
C 532.281747 150.35518 532.281747 150.35518 532.281747 150.35518 
z
" style="fill:#333333;stroke:#333333;stroke-linejoin:miter;"/>
   </g>
   <g id="patch_73">
    <path clip-path="url(#p5ccd37ac1e)" d="M 483.571387 174.710359 
C 483.571387 174.710359 483.571387 174.710359 483.571387 174.710359 
C 483.571387 174.710359 483.571387 174.710359 483.571387 174.710359 
C 483.571387 174.710359 483.571387 174.710359 483.571387 174.710359 
C 483.571387 174.710359 483.571387 174.710359 483.571387 174.710359 
C 483.571387 174.710359 483.571387 174.710359 483.571387 174.710359 
C 483.571387 174.710359 483.571387 174.710359 483.571387 174.710359 
C 483.571387 174.710359 483.571387 174.710359 483.571387 174.710359 
C 483.571387 174.710359 483.571387 174.710359 483.571387 174.710359 
z
" style="fill:#333333;stroke:#333333;stroke-linejoin:miter;"/>
   </g>
   <g id="patch_74">
    <path clip-path="url(#p5ccd37ac1e)" d="M 483.571387 184.452431 
C 486.155015 184.452431 488.633172 183.425945 490.460073 181.599044 
C 492.286973 179.772144 493.313459 177.293987 493.313459 174.710359 
C 493.313459 172.126732 492.286973 169.648575 490.460073 167.821674 
C 488.633172 165.994774 486.155015 164.968288 483.571387 164.968288 
C 480.98776 164.968288 478.509603 165.994774 476.682702 167.821674 
C 474.855802 169.648575 473.829316 172.126732 473.829316 174.710359 
C 473.829316 177.293987 474.855802 179.772144 476.682702 181.599044 
C 478.509603 183.425945 480.98776 184.452431 483.571387 184.452431 
z
" style="fill:#333333;stroke:#333333;stroke-linejoin:miter;"/>
   </g>
   <g id="patch_75">
    <path clip-path="url(#p5ccd37ac1e)" d="M 483.571387 87.031712 
C 486.155015 87.031712 488.633172 86.005226 490.460073 84.178326 
C 492.286973 82.351425 493.313459 79.873268 493.313459 77.289641 
C 493.313459 74.706013 492.286973 72.227856 490.460073 70.400956 
C 488.633172 68.574055 486.155015 67.547569 483.571387 67.547569 
C 480.98776 67.547569 478.509603 68.574055 476.682702 70.400956 
C 474.855802 72.227856 473.829316 74.706013 473.829316 77.289641 
C 473.829316 79.873268 474.855802 82.351425 476.682702 84.178326 
C 478.509603 86.005226 480.98776 87.031712 483.571387 87.031712 
z
" style="fill:#333333;stroke:#333333;stroke-linejoin:miter;"/>
   </g>
   <g id="patch_76">
    <path clip-path="url(#p5ccd37ac1e)" d="M 483.571387 77.289641 
C 483.571387 77.289641 483.571387 77.289641 483.571387 77.289641 
C 483.571387 77.289641 483.571387 77.289641 483.571387 77.289641 
C 483.571387 77.289641 483.571387 77.289641 483.571387 77.289641 
C 483.571387 77.289641 483.571387 77.289641 483.571387 77.289641 
C 483.571387 77.289641 483.571387 77.289641 483.571387 77.289641 
C 483.571387 77.289641 483.571387 77.289641 483.571387 77.289641 
C 483.571387 77.289641 483.571387 77.289641 483.571387 77.289641 
C 483.571387 77.289641 483.571387 77.289641 483.571387 77.289641 
z
" style="fill:#333333;stroke:#333333;stroke-linejoin:miter;"/>
   </g>
   <g id="patch_77">
    <path clip-path="url(#p5ccd37ac1e)" d="M 580.992106 87.031712 
C 583.575734 87.031712 586.053891 86.005226 587.880791 84.178326 
C 589.707692 82.351425 590.734178 79.873268 590.734178 77.289641 
C 590.734178 74.706013 589.707692 72.227856 587.880791 70.400956 
C 586.053891 68.574055 583.575734 67.547569 580.992106 67.547569 
C 578.408479 67.547569 575.930322 68.574055 574.103421 70.400956 
C 572.276521 72.227856 571.250034 74.706013 571.250034 77.289641 
C 571.250034 79.873268 572.276521 82.351425 574.103421 84.178326 
C 575.930322 86.005226 578.408479 87.031712 580.992106 87.031712 
z
" style="fill:#333333;stroke:#333333;stroke-linejoin:miter;"/>
   </g>
   <g id="patch_78">
    <path clip-path="url(#p5ccd37ac1e)" d="M 580.992106 77.289641 
C 580.992106 77.289641 580.992106 77.289641 580.992106 77.289641 
C 580.992106 77.289641 580.992106 77.289641 580.992106 77.289641 
C 580.992106 77.289641 580.992106 77.289641 580.992106 77.289641 
C 580.992106 77.289641 580.992106 77.289641 580.992106 77.289641 
C 580.992106 77.289641 580.992106 77.289641 580.992106 77.289641 
C 580.992106 77.289641 580.992106 77.289641 580.992106 77.289641 
C 580.992106 77.289641 580.992106 77.289641 580.992106 77.289641 
C 580.992106 77.289641 580.992106 77.289641 580.992106 77.289641 
z
" style="fill:#333333;stroke:#333333;stroke-linejoin:miter;"/>
   </g>
   <g id="patch_79">
    <path clip-path="url(#p5ccd37ac1e)" d="M 532.281747 106.515856 
C 533.573561 106.515856 534.812639 106.002613 535.726089 105.089163 
C 536.63954 104.175713 537.152783 102.936634 537.152783 101.64482 
C 537.152783 100.353006 536.63954 99.113928 535.726089 98.200478 
C 534.812639 97.287027 533.573561 96.773784 532.281747 96.773784 
C 530.989933 96.773784 529.750855 97.287027 528.837404 98.200478 
C 527.923954 99.113928 527.410711 100.353006 527.410711 101.64482 
C 527.410711 102.936634 527.923954 104.175713 528.837404 105.089163 
C 529.750855 106.002613 530.989933 106.515856 532.281747 106.515856 
z
" style="fill:#333333;stroke:#333333;stroke-linejoin:miter;"/>
   </g>
   <g id="patch_80">
    <path clip-path="url(#p5ccd37ac1e)" d="M 532.281747 101.64482 
C 532.281747 101.64482 532.281747 101.64482 532.281747 101.64482 
C 532.281747 101.64482 532.281747 101.64482 532.281747 101.64482 
C 532.281747 101.64482 532.281747 101.64482 532.281747 101.64482 
C 532.281747 101.64482 532.281747 101.64482 532.281747 101.64482 
C 532.281747 101.64482 532.281747 101.64482 532.281747 101.64482 
C 532.281747 101.64482 532.281747 101.64482 532.281747 101.64482 
C 532.281747 101.64482 532.281747 101.64482 532.281747 101.64482 
C 532.281747 101.64482 532.281747 101.64482 532.281747 101.64482 
z
" style="fill:#333333;stroke:#333333;stroke-linejoin:miter;"/>
   </g>
   <g id="text_1">
    <g id="patch_81">
     <path d="M 472.028303 54.374461 
L 507.926567 54.374461 
Q 509.366567 54.374461 509.366567 52.934461 
L 509.366567 40.182309 
Q 509.366567 38.742309 507.926567 38.742309 
L 472.028303 38.742309 
Q 470.588303 38.742309 470.588303 40.182309 
L 470.588303 52.934461 
Q 470.588303 54.374461 472.028303 54.374461 
z
" style="fill:#ffffff;stroke:#333333;stroke-linejoin:miter;stroke-width:0.3;"/>
    </g>
    <!-- +0.03 -->
    <g style="fill:#262626;" transform="translate(472.028303 50.144934)scale(0.144 -0.144)">
     <defs>
      <path d="M 37.703125 23 
L 64.203125 23 
C 65.59375 23 67.296875 23 67.296875 24.6875 
C 67.296875 26.5 65.703125 26.5 64.203125 26.5 
L 37.703125 26.5 
L 37.703125 52.890625 
C 37.703125 54.296875 37.703125 56 36 56 
C 34.203125 56 34.203125 54.390625 34.203125 52.890625 
L 34.203125 26.5 
L 7.703125 26.5 
C 6.296875 26.5 4.59375 26.5 4.59375 24.796875 
C 4.59375 23 6.203125 23 7.703125 23 
L 34.203125 23 
L 34.203125 -3.03125 
C 34.203125 -4.40625 34.203125 -6.109375 35.90625 -6.109375 
C 37.703125 -6.109375 37.703125 -4.515625 37.703125 -3.03125 
z
" id="CMR17-43"/>
      <path d="M 42 31.84375 
C 42 37.96875 41.90625 48.421875 37.703125 56.453125 
C 34 63.484375 28.09375 66 22.90625 66 
C 18.09375 66 12 63.78125 8.203125 56.5625 
C 4.203125 49.015625 3.796875 39.671875 3.796875 31.84375 
C 3.796875 26.109375 3.90625 17.375 7 9.734375 
C 11.296875 -0.609375 19 -2 22.90625 -2 
C 27.5 -2 34.5 -0.109375 38.59375 9.4375 
C 41.59375 16.375 42 24.5 42 31.84375 
z
M 22.90625 -0.40625 
C 16.5 -0.40625 12.703125 5.125 11.296875 12.75 
C 10.203125 18.6875 10.203125 27.328125 10.203125 32.953125 
C 10.203125 40.6875 10.203125 47.109375 11.5 53.234375 
C 13.40625 61.78125 19 64.390625 22.90625 64.390625 
C 27 64.390625 32.296875 61.671875 34.203125 53.4375 
C 35.5 47.71875 35.59375 40.984375 35.59375 32.953125 
C 35.59375 26.421875 35.59375 18.375 34.40625 12.453125 
C 32.296875 1.5 26.40625 -0.40625 22.90625 -0.40625 
z
" id="CMR17-48"/>
      <path d="M 16.59375 4.09375 
C 16.59375 6.59375 14.59375 8.1875 12.5 8.1875 
C 10.5 8.1875 8.40625 6.59375 8.40625 4.09375 
C 8.40625 1.59375 10.40625 0 12.5 0 
C 14.5 0 16.59375 1.59375 16.59375 4.09375 
z
" id="CMR17-46"/>
      <path d="M 22.09375 34 
C 31 34 34.90625 26.140625 34.90625 17.09375 
C 34.90625 5.03125 28.5 0.390625 22.703125 0.390625 
C 17.40625 0.390625 8.796875 3.015625 6.09375 10.796875 
C 6.59375 10.59375 7.09375 10.59375 7.59375 10.59375 
C 10 10.59375 11.796875 12.1875 11.796875 14.796875 
C 11.796875 17.6875 9.59375 19 7.59375 19 
C 5.90625 19 3.296875 18.1875 3.296875 14.484375 
C 3.296875 5.234375 12.296875 -2 22.90625 -2 
C 34 -2 42.5 6.75 42.5 16.984375 
C 42.5 26.84375 34.5 34 25 35.09375 
C 32.59375 36.671875 39.90625 43.375 39.90625 52.390625 
C 39.90625 60.25 32 66 23 66 
C 13.90625 66 5.90625 60.34375 5.90625 52.296875 
C 5.90625 48.796875 8.5 48.1875 9.796875 48.1875 
C 11.90625 48.1875 13.703125 49.484375 13.703125 52.09375 
C 13.703125 54.6875 11.90625 56 9.796875 56 
C 9.40625 56 8.90625 56 8.5 55.796875 
C 11.40625 62.484375 19.296875 63.6875 22.796875 63.6875 
C 26.296875 63.6875 32.90625 61.96875 32.90625 52.296875 
C 32.90625 49.484375 32.5 44.546875 29.09375 40.21875 
C 26.09375 36.390625 22.703125 36.1875 19.40625 35.890625 
C 18.90625 35.890625 16.59375 35.6875 16.203125 35.6875 
C 15.5 35.59375 15.09375 35.5 15.09375 34.796875 
C 15.09375 34.09375 15.203125 34 17.203125 34 
z
" id="CMR17-51"/>
     </defs>
     <use transform="scale(0.996264)" xlink:href="#CMR17-43"/>
     <use transform="translate(71.714788 0)scale(0.996264)" xlink:href="#CMR17-48"/>
     <use transform="translate(117.405266 0)scale(0.996264)" xlink:href="#CMR17-46"/>
     <use transform="translate(142.276324 0)scale(0.996264)" xlink:href="#CMR17-48"/>
     <use transform="translate(187.966801 0)scale(0.996264)" xlink:href="#CMR17-51"/>
    </g>
   </g>
   <g id="text_2">
    <g id="patch_82">
     <path d="M 556.636927 54.374461 
L 586.292001 54.374461 
Q 587.732001 54.374461 587.732001 52.934461 
L 587.732001 40.182309 
Q 587.732001 38.742309 586.292001 38.742309 
L 556.636927 38.742309 
Q 555.196927 38.742309 555.196927 40.182309 
L 555.196927 52.934461 
Q 555.196927 54.374461 556.636927 54.374461 
z
" style="fill:#ffffff;stroke:#333333;stroke-linejoin:miter;stroke-width:0.3;"/>
    </g>
    <!-- -0.01 -->
    <g style="fill:#262626;" transform="translate(556.636927 50.144934)scale(0.144 -0.144)">
     <defs>
      <path d="M 25.5 19.59375 
L 25.5 24 
L 0.40625 24 
L 0.40625 19.59375 
z
" id="CMR17-45"/>
      <path d="M 26.59375 63.796875 
C 26.59375 65.890625 26.5 66 25.09375 66 
C 21.203125 61.359375 15.296875 59.890625 9.703125 59.6875 
C 9.40625 59.6875 8.90625 59.6875 8.796875 59.5 
C 8.703125 59.296875 8.703125 59.09375 8.703125 57 
C 11.796875 57 17 57.59375 21 59.984375 
L 21 7.296875 
C 21 3.796875 20.796875 2.59375 12.203125 2.59375 
L 9.203125 2.59375 
L 9.203125 0 
C 14 0.09375 19 0.1875 23.796875 0.1875 
C 28.59375 0.1875 33.59375 0.09375 38.40625 0 
L 38.40625 2.59375 
L 35.40625 2.59375 
C 26.796875 2.59375 26.59375 3.6875 26.59375 7.296875 
z
" id="CMR17-49"/>
     </defs>
     <use transform="scale(0.996264)" xlink:href="#CMR17-45"/>
     <use transform="translate(30.075966 0)scale(0.996264)" xlink:href="#CMR17-48"/>
     <use transform="translate(75.766443 0)scale(0.996264)" xlink:href="#CMR17-46"/>
     <use transform="translate(100.637502 0)scale(0.996264)" xlink:href="#CMR17-48"/>
     <use transform="translate(146.327979 0)scale(0.996264)" xlink:href="#CMR17-49"/>
    </g>
   </g>
   <g id="text_3">
    <g id="patch_83">
     <path d="M 517.45421 66.552051 
L 547.109284 66.552051 
Q 548.549284 66.552051 548.549284 65.112051 
L 548.549284 52.359899 
Q 548.549284 50.919899 547.109284 50.919899 
L 517.45421 50.919899 
Q 516.01421 50.919899 516.01421 52.359899 
L 516.01421 65.112051 
Q 516.01421 66.552051 517.45421 66.552051 
z
" style="fill:#ffffff;stroke:#333333;stroke-linejoin:miter;stroke-width:0.3;"/>
    </g>
    <!-- -0.01 -->
    <g style="fill:#262626;" transform="translate(517.45421 62.322524)scale(0.144 -0.144)">
     <use transform="scale(0.996264)" xlink:href="#CMR17-45"/>
     <use transform="translate(30.075966 0)scale(0.996264)" xlink:href="#CMR17-48"/>
     <use transform="translate(75.766443 0)scale(0.996264)" xlink:href="#CMR17-46"/>
     <use transform="translate(100.637502 0)scale(0.996264)" xlink:href="#CMR17-48"/>
     <use transform="translate(146.327979 0)scale(0.996264)" xlink:href="#CMR17-49"/>
    </g>
   </g>
   <g id="text_4">
    <g id="patch_84">
     <path d="M 472.028303 213.257691 
L 507.926567 213.257691 
Q 509.366567 213.257691 509.366567 211.817691 
L 509.366567 199.065539 
Q 509.366567 197.625539 507.926567 197.625539 
L 472.028303 197.625539 
Q 470.588303 197.625539 470.588303 199.065539 
L 470.588303 211.817691 
Q 470.588303 213.257691 472.028303 213.257691 
z
" style="fill:#ffffff;stroke:#333333;stroke-linejoin:miter;stroke-width:0.3;"/>
    </g>
    <!-- +0.00 -->
    <g style="fill:#262626;" transform="translate(472.028303 209.028164)scale(0.144 -0.144)">
     <use transform="scale(0.996264)" xlink:href="#CMR17-43"/>
     <use transform="translate(71.714788 0)scale(0.996264)" xlink:href="#CMR17-48"/>
     <use transform="translate(117.405266 0)scale(0.996264)" xlink:href="#CMR17-46"/>
     <use transform="translate(142.276324 0)scale(0.996264)" xlink:href="#CMR17-48"/>
     <use transform="translate(187.966801 0)scale(0.996264)" xlink:href="#CMR17-48"/>
    </g>
   </g>
   <g id="text_5">
    <g id="patch_85">
     <path d="M 556.636927 213.257691 
L 592.535191 213.257691 
Q 593.975191 213.257691 593.975191 211.817691 
L 593.975191 199.065539 
Q 593.975191 197.625539 592.535191 197.625539 
L 556.636927 197.625539 
Q 555.196927 197.625539 555.196927 199.065539 
L 555.196927 211.817691 
Q 555.196927 213.257691 556.636927 213.257691 
z
" style="fill:#ffffff;stroke:#333333;stroke-linejoin:miter;stroke-width:0.3;"/>
    </g>
    <!-- +0.00 -->
    <g style="fill:#262626;" transform="translate(556.636927 209.028164)scale(0.144 -0.144)">
     <use transform="scale(0.996264)" xlink:href="#CMR17-43"/>
     <use transform="translate(71.714788 0)scale(0.996264)" xlink:href="#CMR17-48"/>
     <use transform="translate(117.405266 0)scale(0.996264)" xlink:href="#CMR17-46"/>
     <use transform="translate(142.276324 0)scale(0.996264)" xlink:href="#CMR17-48"/>
     <use transform="translate(187.966801 0)scale(0.996264)" xlink:href="#CMR17-48"/>
    </g>
   </g>
   <g id="text_6">
    <g id="patch_86">
     <path d="M 514.332615 201.080101 
L 550.230879 201.080101 
Q 551.670879 201.080101 551.670879 199.640101 
L 551.670879 186.887949 
Q 551.670879 185.447949 550.230879 185.447949 
L 514.332615 185.447949 
Q 512.892615 185.447949 512.892615 186.887949 
L 512.892615 199.640101 
Q 512.892615 201.080101 514.332615 201.080101 
z
" style="fill:#ffffff;stroke:#333333;stroke-linejoin:miter;stroke-width:0.3;"/>
    </g>
    <!-- +0.00 -->
    <g style="fill:#262626;" transform="translate(514.332615 196.850574)scale(0.144 -0.144)">
     <use transform="scale(0.996264)" xlink:href="#CMR17-43"/>
     <use transform="translate(71.714788 0)scale(0.996264)" xlink:href="#CMR17-48"/>
     <use transform="translate(117.405266 0)scale(0.996264)" xlink:href="#CMR17-46"/>
     <use transform="translate(142.276324 0)scale(0.996264)" xlink:href="#CMR17-48"/>
     <use transform="translate(187.966801 0)scale(0.996264)" xlink:href="#CMR17-48"/>
    </g>
   </g>
   <g id="text_7">
    <g id="patch_87">
     <path d="M 538.687794 103.659382 
L 574.586059 103.659382 
Q 576.026059 103.659382 576.026059 102.219382 
L 576.026059 89.46723 
Q 576.026059 88.02723 574.586059 88.02723 
L 538.687794 88.02723 
Q 537.247794 88.02723 537.247794 89.46723 
L 537.247794 102.219382 
Q 537.247794 103.659382 538.687794 103.659382 
z
" style="fill:#ffffff;stroke:#333333;stroke-linejoin:miter;stroke-width:0.3;"/>
    </g>
    <!-- +0.00 -->
    <g style="fill:#262626;" transform="translate(538.687794 99.429855)scale(0.144 -0.144)">
     <use transform="scale(0.996264)" xlink:href="#CMR17-43"/>
     <use transform="translate(71.714788 0)scale(0.996264)" xlink:href="#CMR17-48"/>
     <use transform="translate(117.405266 0)scale(0.996264)" xlink:href="#CMR17-46"/>
     <use transform="translate(142.276324 0)scale(0.996264)" xlink:href="#CMR17-48"/>
     <use transform="translate(187.966801 0)scale(0.996264)" xlink:href="#CMR17-48"/>
    </g>
   </g>
   <g id="text_8">
    <g id="patch_88">
     <path d="M 489.977435 103.659382 
L 525.875699 103.659382 
Q 527.315699 103.659382 527.315699 102.219382 
L 527.315699 89.46723 
Q 527.315699 88.02723 525.875699 88.02723 
L 489.977435 88.02723 
Q 488.537435 88.02723 488.537435 89.46723 
L 488.537435 102.219382 
Q 488.537435 103.659382 489.977435 103.659382 
z
" style="fill:#ffffff;stroke:#333333;stroke-linejoin:miter;stroke-width:0.3;"/>
    </g>
    <!-- +0.01 -->
    <g style="fill:#262626;" transform="translate(489.977435 99.429855)scale(0.144 -0.144)">
     <use transform="scale(0.996264)" xlink:href="#CMR17-43"/>
     <use transform="translate(71.714788 0)scale(0.996264)" xlink:href="#CMR17-48"/>
     <use transform="translate(117.405266 0)scale(0.996264)" xlink:href="#CMR17-46"/>
     <use transform="translate(142.276324 0)scale(0.996264)" xlink:href="#CMR17-48"/>
     <use transform="translate(187.966801 0)scale(0.996264)" xlink:href="#CMR17-49"/>
    </g>
   </g>
   <g id="text_9">
    <g id="patch_89">
     <path d="M 514.332615 85.105717 
L 550.230879 85.105717 
Q 551.670879 85.105717 551.670879 83.665717 
L 551.670879 70.913565 
Q 551.670879 69.473565 550.230879 69.473565 
L 514.332615 69.473565 
Q 512.892615 69.473565 512.892615 70.913565 
L 512.892615 83.665717 
Q 512.892615 85.105717 514.332615 85.105717 
z
" style="fill:#ffffff;stroke:#333333;stroke-linejoin:miter;stroke-width:0.3;"/>
    </g>
    <!-- +0.00 -->
    <g style="fill:#262626;" transform="translate(514.332615 80.87619)scale(0.144 -0.144)">
     <use transform="scale(0.996264)" xlink:href="#CMR17-43"/>
     <use transform="translate(71.714788 0)scale(0.996264)" xlink:href="#CMR17-48"/>
     <use transform="translate(117.405266 0)scale(0.996264)" xlink:href="#CMR17-46"/>
     <use transform="translate(142.276324 0)scale(0.996264)" xlink:href="#CMR17-48"/>
     <use transform="translate(187.966801 0)scale(0.996264)" xlink:href="#CMR17-48"/>
    </g>
   </g>
   <g id="text_10">
    <g id="patch_90">
     <path d="M 541.809389 163.97277 
L 571.464464 163.97277 
Q 572.904464 163.97277 572.904464 162.53277 
L 572.904464 149.780618 
Q 572.904464 148.340618 571.464464 148.340618 
L 541.809389 148.340618 
Q 540.369389 148.340618 540.369389 149.780618 
L 540.369389 162.53277 
Q 540.369389 163.97277 541.809389 163.97277 
z
" style="fill:#ffffff;stroke:#333333;stroke-linejoin:miter;stroke-width:0.3;"/>
    </g>
    <!-- -0.00 -->
    <g style="fill:#262626;" transform="translate(541.809389 159.743242)scale(0.144 -0.144)">
     <use transform="scale(0.996264)" xlink:href="#CMR17-45"/>
     <use transform="translate(30.075966 0)scale(0.996264)" xlink:href="#CMR17-48"/>
     <use transform="translate(75.766443 0)scale(0.996264)" xlink:href="#CMR17-46"/>
     <use transform="translate(100.637502 0)scale(0.996264)" xlink:href="#CMR17-48"/>
     <use transform="translate(146.327979 0)scale(0.996264)" xlink:href="#CMR17-48"/>
    </g>
   </g>
   <g id="text_11">
    <g id="patch_91">
     <path d="M 489.977435 163.97277 
L 525.875699 163.97277 
Q 527.315699 163.97277 527.315699 162.53277 
L 527.315699 149.780618 
Q 527.315699 148.340618 525.875699 148.340618 
L 489.977435 148.340618 
Q 488.537435 148.340618 488.537435 149.780618 
L 488.537435 162.53277 
Q 488.537435 163.97277 489.977435 163.97277 
z
" style="fill:#ffffff;stroke:#333333;stroke-linejoin:miter;stroke-width:0.3;"/>
    </g>
    <!-- +0.02 -->
    <g style="fill:#262626;" transform="translate(489.977435 159.743242)scale(0.144 -0.144)">
     <defs>
      <path d="M 41.703125 15.46875 
L 39.90625 15.46875 
C 38.90625 8.390625 38.09375 7.1875 37.703125 6.59375 
C 37.203125 5.796875 30 5.796875 28.59375 5.796875 
L 9.40625 5.796875 
C 13 9.6875 20 16.765625 28.5 24.9375 
C 34.59375 30.71875 41.703125 37.5 41.703125 47.390625 
C 41.703125 59.1875 32.296875 66 21.796875 66 
C 10.796875 66 4.09375 56.296875 4.09375 47.296875 
C 4.09375 43.390625 7 42.890625 8.203125 42.890625 
C 9.203125 42.890625 12.203125 43.484375 12.203125 46.984375 
C 12.203125 50.09375 9.59375 51 8.203125 51 
C 7.59375 51 7 50.890625 6.59375 50.6875 
C 8.5 59.1875 14.296875 63.390625 20.40625 63.390625 
C 29.09375 63.390625 34.796875 56.5 34.796875 47.390625 
C 34.796875 38.703125 29.703125 31.21875 24 24.734375 
L 4.09375 2.296875 
L 4.09375 0 
L 39.296875 0 
z
" id="CMR17-50"/>
     </defs>
     <use transform="scale(0.996264)" xlink:href="#CMR17-43"/>
     <use transform="translate(71.714788 0)scale(0.996264)" xlink:href="#CMR17-48"/>
     <use transform="translate(117.405266 0)scale(0.996264)" xlink:href="#CMR17-46"/>
     <use transform="translate(142.276324 0)scale(0.996264)" xlink:href="#CMR17-48"/>
     <use transform="translate(187.966801 0)scale(0.996264)" xlink:href="#CMR17-50"/>
    </g>
   </g>
   <g id="text_12">
    <g id="patch_92">
     <path d="M 517.45421 182.526435 
L 547.109284 182.526435 
Q 548.549284 182.526435 548.549284 181.086435 
L 548.549284 168.334283 
Q 548.549284 166.894283 547.109284 166.894283 
L 517.45421 166.894283 
Q 516.01421 166.894283 516.01421 168.334283 
L 516.01421 181.086435 
Q 516.01421 182.526435 517.45421 182.526435 
z
" style="fill:#ffffff;stroke:#333333;stroke-linejoin:miter;stroke-width:0.3;"/>
    </g>
    <!-- -0.00 -->
    <g style="fill:#262626;" transform="translate(517.45421 178.296908)scale(0.144 -0.144)">
     <use transform="scale(0.996264)" xlink:href="#CMR17-45"/>
     <use transform="translate(30.075966 0)scale(0.996264)" xlink:href="#CMR17-48"/>
     <use transform="translate(75.766443 0)scale(0.996264)" xlink:href="#CMR17-46"/>
     <use transform="translate(100.637502 0)scale(0.996264)" xlink:href="#CMR17-48"/>
     <use transform="translate(146.327979 0)scale(0.996264)" xlink:href="#CMR17-48"/>
    </g>
   </g>
   <g id="text_13">
    <g id="patch_93">
     <path d="M 465.622255 133.816076 
L 501.52052 133.816076 
Q 502.96052 133.816076 502.96052 132.376076 
L 502.96052 119.623924 
Q 502.96052 118.183924 501.52052 118.183924 
L 465.622255 118.183924 
Q 464.182255 118.183924 464.182255 119.623924 
L 464.182255 132.376076 
Q 464.182255 133.816076 465.622255 133.816076 
z
" style="fill:#ffffff;stroke:#333333;stroke-linejoin:miter;stroke-width:0.3;"/>
    </g>
    <!-- +0.02 -->
    <g style="fill:#262626;" transform="translate(465.622255 129.586549)scale(0.144 -0.144)">
     <use transform="scale(0.996264)" xlink:href="#CMR17-43"/>
     <use transform="translate(71.714788 0)scale(0.996264)" xlink:href="#CMR17-48"/>
     <use transform="translate(117.405266 0)scale(0.996264)" xlink:href="#CMR17-46"/>
     <use transform="translate(142.276324 0)scale(0.996264)" xlink:href="#CMR17-48"/>
     <use transform="translate(187.966801 0)scale(0.996264)" xlink:href="#CMR17-50"/>
    </g>
   </g>
   <g id="text_14">
    <g id="patch_94">
     <path d="M 566.164569 133.816076 
L 595.819644 133.816076 
Q 597.259644 133.816076 597.259644 132.376076 
L 597.259644 119.623924 
Q 597.259644 118.183924 595.819644 118.183924 
L 566.164569 118.183924 
Q 564.724569 118.183924 564.724569 119.623924 
L 564.724569 132.376076 
Q 564.724569 133.816076 566.164569 133.816076 
z
" style="fill:#ffffff;stroke:#333333;stroke-linejoin:miter;stroke-width:0.3;"/>
    </g>
    <!-- -0.01 -->
    <g style="fill:#262626;" transform="translate(566.164569 129.586549)scale(0.144 -0.144)">
     <use transform="scale(0.996264)" xlink:href="#CMR17-45"/>
     <use transform="translate(30.075966 0)scale(0.996264)" xlink:href="#CMR17-48"/>
     <use transform="translate(75.766443 0)scale(0.996264)" xlink:href="#CMR17-46"/>
     <use transform="translate(100.637502 0)scale(0.996264)" xlink:href="#CMR17-48"/>
     <use transform="translate(146.327979 0)scale(0.996264)" xlink:href="#CMR17-49"/>
    </g>
   </g>
   <g id="text_15">
    <g id="patch_95">
     <path d="M 514.332615 133.816076 
L 550.230879 133.816076 
Q 551.670879 133.816076 551.670879 132.376076 
L 551.670879 119.623924 
Q 551.670879 118.183924 550.230879 118.183924 
L 514.332615 118.183924 
Q 512.892615 118.183924 512.892615 119.623924 
L 512.892615 132.376076 
Q 512.892615 133.816076 514.332615 133.816076 
z
" style="fill:#ffffff;stroke:#333333;stroke-linejoin:miter;stroke-width:0.3;"/>
    </g>
    <!-- +0.00 -->
    <g style="fill:#262626;" transform="translate(514.332615 129.586549)scale(0.144 -0.144)">
     <use transform="scale(0.996264)" xlink:href="#CMR17-43"/>
     <use transform="translate(71.714788 0)scale(0.996264)" xlink:href="#CMR17-48"/>
     <use transform="translate(117.405266 0)scale(0.996264)" xlink:href="#CMR17-46"/>
     <use transform="translate(142.276324 0)scale(0.996264)" xlink:href="#CMR17-48"/>
     <use transform="translate(187.966801 0)scale(0.996264)" xlink:href="#CMR17-48"/>
    </g>
   </g>
  </g>
 </g>
 <defs>
  <clipPath id="p72cb591d97">
   <rect height="230.4" width="148.945455" x="41.245526" y="10.8"/>
  </clipPath>
  <clipPath id="p9922bfef37">
   <rect height="209.836506" width="209.836506" x="219.081747" y="21.081747"/>
  </clipPath>
  <clipPath id="p5ccd37ac1e">
   <rect height="230.4" width="128.595349" x="467.984072" y="10.8"/>
  </clipPath>
 </defs>
</svg>
