<?xml version="1.0" encoding="utf-8" standalone="no"?>
<!DOCTYPE svg PUBLIC "-//W3C//DTD SVG 1.1//EN"
  "http://www.w3.org/Graphics/SVG/1.1/DTD/svg11.dtd">
<!-- Created with matplotlib (https://matplotlib.org/) -->
<svg height="216pt" version="1.1" viewBox="0 0 432 216" width="432pt" xmlns="http://www.w3.org/2000/svg" xmlns:xlink="http://www.w3.org/1999/xlink">
 <metadata>
  <rdf:RDF xmlns:cc="http://creativecommons.org/ns#" xmlns:dc="http://purl.org/dc/elements/1.1/" xmlns:rdf="http://www.w3.org/1999/02/22-rdf-syntax-ns#">
   <cc:Work>
    <dc:type rdf:resource="http://purl.org/dc/dcmitype/StillImage"/>
    <dc:date>2022-04-12T17:09:52.798045</dc:date>
    <dc:format>image/svg+xml</dc:format>
    <dc:creator>
     <cc:Agent>
      <dc:title>Matplotlib v3.3.4, https://matplotlib.org/</dc:title>
     </cc:Agent>
    </dc:creator>
   </cc:Work>
  </rdf:RDF>
 </metadata>
 <defs>
  <style type="text/css">*{stroke-linecap:butt;stroke-linejoin:round;}</style>
 </defs>
 <g id="figure_1">
  <g id="patch_1">
   <path d="M 0 216 
L 432 216 
L 432 0 
L 0 0 
z
" style="fill:#ffffff;"/>
  </g>
  <g id="axes_1">
   <g id="patch_2">
    <path d="M 41.725311 173.49195 
L 219.33132 173.49195 
L 219.33132 25.766376 
L 41.725311 25.766376 
z
" style="fill:#ffffff;"/>
   </g>
   <g id="matplotlib.axis_1">
    <g id="xtick_1">
     <g id="text_1">
      <!-- 1 -->
      <g style="fill:#262626;" transform="translate(48.114943 187.410448)scale(0.1 -0.1)">
       <defs>
        <path d="M 26.59375 63.796875 
C 26.59375 65.890625 26.5 66 25.09375 66 
C 21.203125 61.359375 15.296875 59.890625 9.703125 59.6875 
C 9.40625 59.6875 8.90625 59.6875 8.796875 59.5 
C 8.703125 59.296875 8.703125 59.09375 8.703125 57 
C 11.796875 57 17 57.59375 21 59.984375 
L 21 7.296875 
C 21 3.796875 20.796875 2.59375 12.203125 2.59375 
L 9.203125 2.59375 
L 9.203125 0 
C 14 0.09375 19 0.1875 23.796875 0.1875 
C 28.59375 0.1875 33.59375 0.09375 38.40625 0 
L 38.40625 2.59375 
L 35.40625 2.59375 
C 26.796875 2.59375 26.59375 3.6875 26.59375 7.296875 
z
" id="CMR17-49"/>
       </defs>
       <use transform="scale(0.996264)" xlink:href="#CMR17-49"/>
      </g>
     </g>
    </g>
    <g id="xtick_2">
     <g id="text_2">
      <!-- 2 -->
      <g style="fill:#262626;" transform="translate(65.875544 187.410448)scale(0.1 -0.1)">
       <defs>
        <path d="M 41.703125 15.46875 
L 39.90625 15.46875 
C 38.90625 8.390625 38.09375 7.1875 37.703125 6.59375 
C 37.203125 5.796875 30 5.796875 28.59375 5.796875 
L 9.40625 5.796875 
C 13 9.6875 20 16.765625 28.5 24.9375 
C 34.59375 30.71875 41.703125 37.5 41.703125 47.390625 
C 41.703125 59.1875 32.296875 66 21.796875 66 
C 10.796875 66 4.09375 56.296875 4.09375 47.296875 
C 4.09375 43.390625 7 42.890625 8.203125 42.890625 
C 9.203125 42.890625 12.203125 43.484375 12.203125 46.984375 
C 12.203125 50.09375 9.59375 51 8.203125 51 
C 7.59375 51 7 50.890625 6.59375 50.6875 
C 8.5 59.1875 14.296875 63.390625 20.40625 63.390625 
C 29.09375 63.390625 34.796875 56.5 34.796875 47.390625 
C 34.796875 38.703125 29.703125 31.21875 24 24.734375 
L 4.09375 2.296875 
L 4.09375 0 
L 39.296875 0 
z
" id="CMR17-50"/>
       </defs>
       <use transform="scale(0.996264)" xlink:href="#CMR17-50"/>
      </g>
     </g>
    </g>
    <g id="xtick_3">
     <g id="text_3">
      <!-- 3 -->
      <g style="fill:#262626;" transform="translate(83.636145 187.410448)scale(0.1 -0.1)">
       <defs>
        <path d="M 22.09375 34 
C 31 34 34.90625 26.140625 34.90625 17.09375 
C 34.90625 5.03125 28.5 0.390625 22.703125 0.390625 
C 17.40625 0.390625 8.796875 3.015625 6.09375 10.796875 
C 6.59375 10.59375 7.09375 10.59375 7.59375 10.59375 
C 10 10.59375 11.796875 12.1875 11.796875 14.796875 
C 11.796875 17.6875 9.59375 19 7.59375 19 
C 5.90625 19 3.296875 18.1875 3.296875 14.484375 
C 3.296875 5.234375 12.296875 -2 22.90625 -2 
C 34 -2 42.5 6.75 42.5 16.984375 
C 42.5 26.84375 34.5 34 25 35.09375 
C 32.59375 36.671875 39.90625 43.375 39.90625 52.390625 
C 39.90625 60.25 32 66 23 66 
C 13.90625 66 5.90625 60.34375 5.90625 52.296875 
C 5.90625 48.796875 8.5 48.1875 9.796875 48.1875 
C 11.90625 48.1875 13.703125 49.484375 13.703125 52.09375 
C 13.703125 54.6875 11.90625 56 9.796875 56 
C 9.40625 56 8.90625 56 8.5 55.796875 
C 11.40625 62.484375 19.296875 63.6875 22.796875 63.6875 
C 26.296875 63.6875 32.90625 61.96875 32.90625 52.296875 
C 32.90625 49.484375 32.5 44.546875 29.09375 40.21875 
C 26.09375 36.390625 22.703125 36.1875 19.40625 35.890625 
C 18.90625 35.890625 16.59375 35.6875 16.203125 35.6875 
C 15.5 35.59375 15.09375 35.5 15.09375 34.796875 
C 15.09375 34.09375 15.203125 34 17.203125 34 
z
" id="CMR17-51"/>
       </defs>
       <use transform="scale(0.996264)" xlink:href="#CMR17-51"/>
      </g>
     </g>
    </g>
    <g id="xtick_4">
     <g id="text_4">
      <!-- 4 -->
      <g style="fill:#262626;" transform="translate(101.396746 187.410448)scale(0.1 -0.1)">
       <defs>
        <path d="M 33.59375 64.796875 
C 33.59375 66.890625 33.5 67 31.703125 67 
L 2 19.59375 
L 2 17 
L 27.796875 17 
L 27.796875 7.1875 
C 27.796875 3.59375 27.59375 2.59375 20.59375 2.59375 
L 18.703125 2.59375 
L 18.703125 0 
C 21.90625 0.1875 27.296875 0.1875 30.703125 0.1875 
C 34.09375 0.1875 39.5 0.1875 42.703125 0 
L 42.703125 2.59375 
L 40.796875 2.59375 
C 33.796875 2.59375 33.59375 3.59375 33.59375 7.1875 
L 33.59375 17 
L 43.796875 17 
L 43.796875 19.59375 
L 33.59375 19.59375 
z
M 28.09375 58.171875 
L 28.09375 19.59375 
L 4 19.59375 
z
" id="CMR17-52"/>
       </defs>
       <use transform="scale(0.996264)" xlink:href="#CMR17-52"/>
      </g>
     </g>
    </g>
    <g id="xtick_5">
     <g id="text_5">
      <!-- 5 -->
      <g style="fill:#262626;" transform="translate(119.157347 187.410448)scale(0.1 -0.1)">
       <defs>
        <path d="M 11.40625 58.59375 
C 12.40625 58.1875 16.5 56.890625 20.703125 56.890625 
C 30 56.890625 35.09375 61.890625 38 64.6875 
C 38 65.484375 38 66 37.40625 66 
C 37.296875 66 37.09375 66 36.296875 65.59375 
C 32.796875 64.09375 28.703125 63 23.703125 63 
C 20.703125 63 16.203125 63.359375 11.296875 65.484375 
C 10.203125 66 10 66 9.90625 66 
C 9.40625 66 9.296875 65.890625 9.296875 63.90625 
L 9.296875 34.859375 
C 9.296875 33.015625 9.296875 32.5 10.296875 32.5 
C 10.796875 32.5 11 32.703125 11.5 33.421875 
C 14.703125 38.046875 19.09375 40 24.09375 40 
C 27.59375 40 35.09375 37.734375 35.09375 20.203125 
C 35.09375 16.984375 35.09375 11.1875 32.09375 6.59375 
C 29.59375 2.484375 25.703125 0.390625 21.40625 0.390625 
C 14.796875 0.390625 8.09375 4.984375 6.296875 12.6875 
C 6.703125 12.59375 7.5 12.390625 7.90625 12.390625 
C 9.203125 12.390625 11.703125 13.09375 11.703125 16.1875 
C 11.703125 18.890625 9.796875 20 7.90625 20 
C 5.59375 20 4.09375 18.59375 4.09375 15.796875 
C 4.09375 7.09375 11 -2 21.59375 -2 
C 31.90625 -2 41.703125 6.890625 41.703125 19.796875 
C 41.703125 32.09375 33.90625 41.59375 24.203125 41.59375 
C 19.09375 41.59375 14.796875 39.6875 11.40625 36 
z
" id="CMR17-53"/>
       </defs>
       <use transform="scale(0.996264)" xlink:href="#CMR17-53"/>
      </g>
     </g>
    </g>
    <g id="xtick_6">
     <g id="text_6">
      <!-- 6 -->
      <g style="fill:#262626;" transform="translate(136.917948 187.410448)scale(0.1 -0.1)">
       <defs>
        <path d="M 10.59375 34.34375 
C 10.59375 58 21.796875 63.6875 28.296875 63.6875 
C 30.40625 63.6875 35.5 63.265625 37.5 59.09375 
C 35.90625 59.09375 32.90625 59.09375 32.90625 55.59375 
C 32.90625 52.890625 35.09375 52 36.5 52 
C 37.40625 52 40.09375 52.390625 40.09375 55.796875 
C 40.09375 62.296875 35.09375 66 28.203125 66 
C 16.296875 66 3.796875 53.296875 3.796875 31.421875 
C 3.796875 4.015625 15.09375 -2 23.09375 -2 
C 32.796875 -2 42 6.734375 42 20.234375 
C 42 32.828125 33.90625 42 23.703125 42 
C 17.59375 42 13.09375 37.96875 10.59375 30.921875 
z
M 23.09375 0.390625 
C 10.796875 0.390625 10.796875 18.9375 10.796875 22.65625 
C 10.796875 29.90625 14.203125 40.390625 23.5 40.390625 
C 25.203125 40.390625 30.09375 40.390625 33.40625 33.4375 
C 35.203125 29.515625 35.203125 25.375 35.203125 20.34375 
C 35.203125 14.90625 35.203125 10.875 33.09375 6.84375 
C 30.90625 2.703125 27.703125 0.390625 23.09375 0.390625 
z
" id="CMR17-54"/>
       </defs>
       <use transform="scale(0.996264)" xlink:href="#CMR17-54"/>
      </g>
     </g>
    </g>
    <g id="xtick_7">
     <g id="text_7">
      <!-- 7 -->
      <g style="fill:#262626;" transform="translate(154.678549 187.410448)scale(0.1 -0.1)">
       <defs>
        <path d="M 45.09375 61.796875 
L 45.09375 64 
L 21.59375 64 
C 9.90625 64 9.703125 65.09375 9.296875 67 
L 7.5 67 
L 4.59375 48.5 
L 6.40625 48.5 
C 6.703125 50.40625 7.40625 55.5 8.59375 57.390625 
C 9.203125 58.1875 16.59375 58.1875 18.296875 58.1875 
L 40.296875 58.1875 
L 29.203125 41.71875 
C 21.796875 30.640625 16.703125 15.671875 16.703125 2.59375 
C 16.703125 1.390625 16.703125 -2 20.296875 -2 
C 23.90625 -2 23.90625 1.390625 23.90625 2.6875 
L 23.90625 7.28125 
C 23.90625 23.65625 26.703125 34.4375 31.296875 41.3125 
z
" id="CMR17-55"/>
       </defs>
       <use transform="scale(0.996264)" xlink:href="#CMR17-55"/>
      </g>
     </g>
    </g>
    <g id="xtick_8">
     <g id="text_8">
      <!-- 8 -->
      <g style="fill:#262626;" transform="translate(172.43915 187.410448)scale(0.1 -0.1)">
       <defs>
        <path d="M 27.203125 35.765625 
C 33.5 38.96875 39.90625 43.796875 39.90625 51.53125 
C 39.90625 60.6875 31.09375 66 23 66 
C 13.90625 66 5.90625 59.375 5.90625 50.234375 
C 5.90625 47.71875 6.5 43.390625 10.40625 39.578125 
C 11.40625 38.578125 15.59375 35.5625 18.296875 33.65625 
C 13.796875 31.34375 3.296875 25.8125 3.296875 14.765625 
C 3.296875 4.40625 13.09375 -2 22.796875 -2 
C 33.5 -2 42.5 5.71875 42.5 15.96875 
C 42.5 25.109375 36.40625 29.328125 32.40625 32.046875 
z
M 14.09375 44.609375 
C 13.296875 45.109375 9.296875 48.21875 9.296875 52.9375 
C 9.296875 59.078125 15.59375 63.6875 22.796875 63.6875 
C 30.703125 63.6875 36.5 58.0625 36.5 51.53125 
C 36.5 42.1875 26.09375 36.859375 25.59375 36.859375 
C 25.5 36.859375 25.40625 36.859375 24.59375 37.46875 
z
M 32.5 24 
C 34 22.90625 38.796875 19.578125 38.796875 13.453125 
C 38.796875 6.015625 31.40625 0.390625 23 0.390625 
C 13.90625 0.390625 7 6.921875 7 14.859375 
C 7 22.796875 13.09375 29.4375 20 32.546875 
z
" id="CMR17-56"/>
       </defs>
       <use transform="scale(0.996264)" xlink:href="#CMR17-56"/>
      </g>
     </g>
    </g>
    <g id="xtick_9">
     <g id="text_9">
      <!-- 9 -->
      <g style="fill:#262626;" transform="translate(190.199751 187.410448)scale(0.1 -0.1)">
       <defs>
        <path d="M 35.203125 29.234375 
C 35.203125 7 26.09375 0.390625 18.59375 0.390625 
C 16.296875 0.390625 10.703125 0.671875 8.40625 4.390625 
C 11 4 12.90625 5.390625 12.90625 7.890625 
C 12.90625 10.59375 10.703125 11.5 9.296875 11.5 
C 8.40625 11.5 5.703125 11.09375 5.703125 7.6875 
C 5.703125 1.0625 11.59375 -2 18.796875 -2 
C 30.296875 -2 42 10.390625 42 32.65625 
C 42 60.265625 30.796875 66 23.203125 66 
C 13.296875 66 3.796875 57.25 3.796875 43.75 
C 3.796875 31.25 11.90625 22 22.09375 22 
C 30.5 22 34.203125 29.84375 35.203125 33.15625 
z
M 22.296875 23.59375 
C 19.59375 23.59375 15.796875 24.09375 12.703125 30.140625 
C 10.59375 34.078125 10.59375 38.703125 10.59375 43.640625 
C 10.59375 49.59375 10.59375 53.71875 13.40625 58.15625 
C 14.796875 60.265625 17.40625 63.6875 23.203125 63.6875 
C 35 63.6875 35 45.453125 35 41.421875 
C 35 34.265625 31.796875 23.59375 22.296875 23.59375 
z
" id="CMR17-57"/>
       </defs>
       <use transform="scale(0.996264)" xlink:href="#CMR17-57"/>
      </g>
     </g>
    </g>
    <g id="xtick_10">
     <g id="text_10">
      <!-- 10 -->
      <g style="fill:#262626;" transform="translate(205.469684 187.410448)scale(0.1 -0.1)">
       <defs>
        <path d="M 42 31.84375 
C 42 37.96875 41.90625 48.421875 37.703125 56.453125 
C 34 63.484375 28.09375 66 22.90625 66 
C 18.09375 66 12 63.78125 8.203125 56.5625 
C 4.203125 49.015625 3.796875 39.671875 3.796875 31.84375 
C 3.796875 26.109375 3.90625 17.375 7 9.734375 
C 11.296875 -0.609375 19 -2 22.90625 -2 
C 27.5 -2 34.5 -0.109375 38.59375 9.4375 
C 41.59375 16.375 42 24.5 42 31.84375 
z
M 22.90625 -0.40625 
C 16.5 -0.40625 12.703125 5.125 11.296875 12.75 
C 10.203125 18.6875 10.203125 27.328125 10.203125 32.953125 
C 10.203125 40.6875 10.203125 47.109375 11.5 53.234375 
C 13.40625 61.78125 19 64.390625 22.90625 64.390625 
C 27 64.390625 32.296875 61.671875 34.203125 53.4375 
C 35.5 47.71875 35.59375 40.984375 35.59375 32.953125 
C 35.59375 26.421875 35.59375 18.375 34.40625 12.453125 
C 32.296875 1.5 26.40625 -0.40625 22.90625 -0.40625 
z
" id="CMR17-48"/>
       </defs>
       <use transform="scale(0.996264)" xlink:href="#CMR17-49"/>
       <use transform="translate(45.690477 0)scale(0.996264)" xlink:href="#CMR17-48"/>
      </g>
     </g>
    </g>
    <g id="text_11">
     <!-- BS class $(M_S = \tfrac{3}{2})$ -->
     <g style="fill:#262626;" transform="translate(89.478083 201.764488)scale(0.1 -0.1)">
      <defs>
       <path d="M 5.203125 68 
L 5.203125 65.390625 
C 12.09375 65.390625 13.203125 65.390625 13.203125 60.890625 
L 13.203125 7.046875 
C 13.203125 2.59375 12.09375 2.59375 5.203125 2.59375 
L 5.203125 0 
L 39.59375 0 
C 52.40625 0 60.703125 9.03125 60.703125 18.046875 
C 60.703125 26.96875 52.5 34.59375 41.796875 35.296875 
C 51.40625 37.1875 58.09375 43.59375 58.09375 51.1875 
C 58.09375 59.5 49.90625 68 37 68 
z
M 19.5 36 
L 19.5 61.5 
C 19.5 64.890625 19.703125 65.390625 23.703125 65.390625 
L 36.5 65.390625 
C 46.40625 65.390625 50.796875 57.390625 50.796875 51.1875 
C 50.796875 43.59375 44.703125 36 33.90625 36 
z
M 23.703125 2.59375 
C 19.703125 2.59375 19.5 3.09375 19.5 6.453125 
L 19.5 34.390625 
L 38 34.390625 
C 48.296875 34.390625 53.296875 25.375 53.296875 18.140625 
C 53.296875 10.90625 47.59375 2.59375 36.703125 2.59375 
z
" id="CMR17-66"/>
       <path d="M 43.796875 67.984375 
C 43.796875 69.796875 43.703125 69.890625 43.09375 69.890625 
C 42.5 69.890625 42.296875 69.484375 41.90625 68.59375 
L 38.90625 61.953125 
C 35.09375 67.5 29.296875 70 23 70 
C 12.796875 70 4.59375 61.84375 4.59375 51.578125 
C 4.59375 48.453125 5.296875 44.015625 8.703125 39.78125 
C 12.40625 35.15625 15.90625 34.34375 23.90625 32.234375 
C 26.90625 31.421875 31.90625 30.109375 32.90625 29.703125 
C 38.59375 27.296875 41.59375 21.25 41.59375 15.609375 
C 41.59375 8.34375 36.5 0.59375 27.796875 0.59375 
C 17.09375 0.59375 7.09375 6.640625 6.40625 20.75 
C 6.296875 22.359375 6.203125 22.453125 5.5 22.453125 
C 4.703125 22.453125 4.59375 22.359375 4.59375 20.34375 
L 4.59375 0 
C 4.59375 -1.8125 4.703125 -1.90625 5.296875 -1.90625 
C 6 -1.90625 6.203125 -1.40625 7.59375 1.703125 
C 7.703125 2 7.703125 2.203125 9.59375 6.03125 
C 14.59375 -0.609375 23 -2 27.796875 -2 
C 38.703125 -2 46.40625 7.140625 46.40625 17.828125 
C 46.40625 23.0625 44.5 27.09375 43.40625 28.90625 
C 39.203125 35.359375 34.703125 36.5625 29.90625 37.765625 
C 29.203125 38.078125 29 38.078125 23.40625 39.484375 
C 18 40.890625 15.703125 41.59375 13.203125 44.3125 
C 10.40625 47.4375 9.40625 50.671875 9.40625 53.890625 
C 9.40625 60.4375 14.59375 67.59375 23.09375 67.59375 
C 33.703125 67.59375 40.296875 60.03125 41.796875 47.4375 
C 42.09375 45.625 42.203125 45.53125 42.90625 45.53125 
C 43.796875 45.53125 43.796875 45.828125 43.796875 47.546875 
z
" id="CMR17-83"/>
       <path d="M 34.90625 35 
C 33 35 30.203125 35 30.203125 31.484375 
C 30.203125 28.6875 32.5 27.890625 33.796875 27.890625 
C 34.5 27.890625 37.40625 28.1875 37.40625 31.6875 
C 37.40625 38.6875 30.59375 44 22.90625 44 
C 12.296875 44 3.296875 34.390625 3.296875 21.546875 
C 3.296875 8.140625 12.703125 -1 22.90625 -1 
C 35.296875 -1 38.40625 10.5625 38.40625 11.671875 
C 38.40625 12.078125 38.296875 12.375 37.59375 12.375 
C 36.90625 12.375 36.796875 12.28125 36.40625 10.96875 
C 33.796875 2.8125 28.09375 0.796875 23.796875 0.796875 
C 17.40625 0.796875 9.703125 6.734375 9.703125 21.640625 
C 9.703125 36.84375 17.09375 42.1875 23 42.1875 
C 26.90625 42.1875 32.703125 40.34375 34.90625 35 
z
" id="CMR17-99"/>
       <path d="M 15.296875 69 
L 3.40625 67.890625 
L 3.40625 65.296875 
C 9.296875 65.296875 10.203125 64.703125 10.203125 59.921875 
L 10.203125 6.859375 
C 10.203125 3.09375 9.796875 2.59375 3.40625 2.59375 
L 3.40625 0 
C 5.796875 0.1875 10.203125 0.1875 12.703125 0.1875 
C 15.296875 0.1875 19.703125 0.1875 22.09375 0 
L 22.09375 2.59375 
C 15.703125 2.59375 15.296875 2.984375 15.296875 6.859375 
z
" id="CMR17-108"/>
       <path d="M 36 25.875 
C 36 32 36 35.546875 31.796875 39.59375 
C 28.09375 42.984375 23.796875 44 20.40625 44 
C 12.5 44 6.796875 37.625 6.796875 30.890625 
C 6.796875 27.1875 9.796875 27 10.40625 27 
C 11.703125 27 14 27.796875 14 30.59375 
C 14 33.09375 12.09375 34.1875 10.40625 34.1875 
C 10 34.1875 9.5 34.09375 9.203125 34 
C 11.296875 40.53125 16.703125 42.390625 20.203125 42.390625 
C 25.203125 42.390625 30.703125 37.828125 30.703125 29.296875 
L 30.703125 25.5 
C 24.796875 25.296875 17.703125 24.5 12.09375 21.453125 
C 5.796875 17.921875 4 12.84375 4 9 
C 4 1.203125 13 -1 18.296875 -1 
C 23.796875 -1 28.90625 2.109375 31.09375 7.890625 
C 31.296875 3.421875 34.09375 -0.609375 38.5 -0.609375 
C 40.59375 -0.609375 45.90625 0.796875 45.90625 8.796875 
L 45.90625 14.46875 
L 44.09375 14.46875 
L 44.09375 8.703125 
C 44.09375 2.515625 41.40625 1.703125 40.09375 1.703125 
C 36 1.703125 36 6.96875 36 11.4375 
z
M 30.703125 13.859375 
C 30.703125 5.046875 24.5 0.59375 19 0.59375 
C 14 0.59375 10.09375 4.34375 10.09375 9 
C 10.09375 12.046875 11.40625 17.40625 17.203125 20.65625 
C 22 23.390625 27.5 23.796875 30.703125 24 
z
" id="CMR17-97"/>
       <path d="M 30.90625 42 
C 30.90625 43.796875 30.796875 43.890625 30.203125 43.890625 
C 29.796875 43.890625 29.703125 43.796875 28.5 42.296875 
C 28.203125 41.890625 27.296875 40.890625 27 40.5 
C 23.796875 43.890625 19.296875 44 17.59375 44 
C 6.5 44 2.5 38.1875 2.5 32.390625 
C 2.5 23.390625 12.703125 21.296875 15.59375 20.6875 
C 21.90625 19.390625 24.09375 19 26.203125 17.1875 
C 27.5 16 29.703125 13.796875 29.703125 10.1875 
C 29.703125 6 27.296875 0.59375 18.09375 0.59375 
C 9.40625 0.59375 6.296875 7.1875 4.5 16 
C 4.203125 17.390625 4.203125 17.5 3.40625 17.5 
C 2.59375 17.5 2.5 17.390625 2.5 15.390625 
L 2.5 1 
C 2.5 -0.8125 2.59375 -0.90625 3.203125 -0.90625 
C 3.703125 -0.90625 3.796875 -0.8125 4.296875 0 
C 4.90625 0.890625 6.40625 3.296875 7 4.296875 
C 9 1.59375 12.5 -1 18.09375 -1 
C 28 -1 33.296875 4.390625 33.296875 12.1875 
C 33.296875 17.296875 30.59375 20 29.296875 21.1875 
C 26.296875 24.296875 22.796875 25 18.59375 25.796875 
C 13.09375 27 6.09375 28.390625 6.09375 34.5 
C 6.09375 37.09375 7.5 42.59375 17.59375 42.59375 
C 28.296875 42.59375 28.90625 32.59375 29.09375 29.390625 
C 29.203125 28.890625 29.703125 28.796875 30 28.796875 
C 30.90625 28.796875 30.90625 29.09375 30.90625 30.796875 
z
" id="CMR17-115"/>
       <path d="M 30.59375 -24.40625 
C 30.59375 -24.3125 30.59375 -24.109375 30.296875 -23.8125 
C 25.703125 -19.109375 13.40625 -6.296875 13.40625 24.9375 
C 13.40625 56.171875 25.5 68.875 30.40625 73.890625 
C 30.40625 73.984375 30.59375 74.1875 30.59375 74.484375 
C 30.59375 74.796875 30.296875 75 29.90625 75 
C 28.796875 75 20.296875 67.578125 15.40625 56.5625 
C 10.40625 45.453125 9 34.65625 9 25.046875 
C 9 17.828125 9.703125 5.625 15.703125 -7.296875 
C 20.5 -17.703125 28.703125 -25 29.90625 -25 
C 30.40625 -25 30.59375 -24.8125 30.59375 -24.40625 
z
" id="CMR17-40"/>
       <path d="M 90.796875 60.71875 
C 91.703125 64.09375 91.90625 65.09375 99 65.09375 
C 100.90625 65.09375 101.796875 65.09375 101.796875 66.984375 
C 101.796875 68 101.09375 68 99.203125 68 
L 87.203125 68 
C 84.703125 68 84.59375 67.890625 83.5 66.296875 
L 47 8.859375 
L 39.5 65.796875 
C 39.203125 68 39.09375 68 36.5 68 
L 24.09375 68 
C 22.203125 68 21.296875 68 21.296875 66.09375 
C 21.296875 65.09375 22.203125 65.09375 23.703125 65.09375 
C 29.796875 65.09375 29.796875 64.296875 29.796875 63.203125 
C 29.796875 63 29.796875 62.40625 29.40625 60.90625 
L 16.59375 10.15625 
C 15.40625 5.375 13.09375 3.1875 6.40625 2.890625 
C 6.09375 2.890625 4.90625 2.796875 4.90625 1.09375 
C 4.90625 0 5.796875 0 6.203125 0 
C 8.203125 0 13.296875 0.1875 15.296875 0.1875 
L 20.09375 0.1875 
C 21.5 0.1875 23.203125 0 24.59375 0 
C 25.296875 0 26.40625 0 26.40625 1.890625 
C 26.40625 2.796875 25.40625 2.890625 25 2.890625 
C 21.703125 2.984375 18.5 3.59375 18.5 7.171875 
C 18.5 8.171875 18.5 8.265625 18.90625 9.65625 
L 32.703125 64.5 
L 32.796875 64.5 
L 41.09375 2.6875 
C 41.40625 0.296875 41.5 0 42.40625 0 
C 43.5 0 44 0.796875 44.5 1.6875 
L 84.703125 64.984375 
L 84.796875 64.984375 
L 70.296875 7.375 
C 69.40625 3.890625 69.203125 2.890625 62.203125 2.890625 
C 60.296875 2.890625 59.296875 2.890625 59.296875 1.09375 
C 59.296875 0 60.203125 0 60.796875 0 
C 62.5 0 64.5 0.1875 66.203125 0.1875 
L 78 0.1875 
C 79.703125 0.1875 81.796875 0 83.5 0 
C 84.296875 0 85.40625 0 85.40625 1.890625 
C 85.40625 2.890625 84.5 2.890625 83 2.890625 
C 76.90625 2.890625 76.90625 3.6875 76.90625 4.6875 
C 76.90625 4.78125 76.90625 5.484375 77.09375 6.28125 
z
" id="CMMI12-77"/>
       <path d="M 63.5 69.09375 
C 63.5 70 62.796875 70 62.59375 70 
C 62.203125 70 62.09375 69.890625 60.90625 68.390625 
C 60.296875 67.6875 56.203125 62.53125 56.09375 62.4375 
C 52.796875 68.890625 46.203125 70 42 70 
C 29.296875 70 17.796875 58.46875 17.796875 47.25 
C 17.796875 39.796875 22.296875 35.4375 27.203125 33.75 
C 28.296875 33.34375 34.203125 31.765625 37.203125 31.0625 
C 42.296875 29.671875 43.59375 29.28125 45.703125 27.09375 
C 46.09375 26.59375 48.09375 24.3125 48.09375 19.65625 
C 48.09375 10.421875 39.5 0.890625 29.5 0.890625 
C 21.296875 0.890625 12.203125 4.359375 12.203125 15.484375 
C 12.203125 17.375 12.59375 19.75 12.90625 20.75 
C 12.90625 21.046875 13 21.53125 13 21.734375 
C 13 22.140625 12.796875 22.625 12 22.625 
C 11.09375 22.625 11 22.4375 10.59375 20.75 
L 5.5 0.390625 
C 5.5 0.296875 5.09375 -1 5.09375 -1.109375 
C 5.09375 -2 5.90625 -2 6.09375 -2 
C 6.5 -2 6.59375 -1.90625 7.796875 -0.40625 
L 12.40625 5.5625 
C 14.796875 1.984375 20 -2 29.296875 -2 
C 42.203125 -2 54 10.421875 54 22.828125 
C 54 27 53 30.671875 49.203125 34.34375 
C 47.09375 36.421875 45.296875 36.921875 36.09375 39.3125 
C 29.40625 41.09375 28.5 41.390625 26.703125 42.984375 
C 25 44.671875 23.703125 47.046875 23.703125 50.421875 
C 23.703125 58.765625 32.203125 67.296875 41.703125 67.296875 
C 51.5 67.296875 56.09375 61.34375 56.09375 51.90625 
C 56.09375 49.328125 55.59375 46.65625 55.59375 46.25 
C 55.59375 45.359375 56.40625 45.359375 56.703125 45.359375 
C 57.59375 45.359375 57.703125 45.65625 58.09375 47.25 
z
" id="CMMI12-83"/>
       <path d="M 64.296875 32 
C 65.796875 32 67.296875 32 67.296875 33.6875 
C 67.296875 35.5 65.59375 35.5 63.90625 35.5 
L 8 35.5 
C 6.296875 35.5 4.59375 35.5 4.59375 33.6875 
C 4.59375 32 6.09375 32 7.59375 32 
z
M 63.90625 14.484375 
C 65.59375 14.484375 67.296875 14.484375 67.296875 16.296875 
C 67.296875 18 65.796875 18 64.296875 18 
L 7.59375 18 
C 6.09375 18 4.59375 18 4.59375 16.296875 
C 4.59375 14.484375 6.296875 14.484375 8 14.484375 
z
" id="CMR17-61"/>
       <path d="M 26.296875 24.9375 
C 26.296875 32.140625 25.59375 44.359375 19.59375 57.265625 
C 14.796875 67.6875 6.59375 75 5.40625 75 
C 5.09375 75 4.703125 74.890625 4.703125 74.390625 
C 4.703125 74.1875 4.796875 74.09375 4.90625 73.890625 
C 9.703125 68.875 21.90625 56.171875 21.90625 25.046875 
C 21.90625 -6.1875 9.796875 -18.90625 4.90625 -23.90625 
C 4.796875 -24.109375 4.703125 -24.203125 4.703125 -24.40625 
C 4.703125 -24.90625 5.09375 -25 5.40625 -25 
C 6.5 -25 15 -17.609375 19.90625 -6.59375 
C 24.90625 4.515625 26.296875 15.328125 26.296875 24.9375 
z
" id="CMR17-41"/>
      </defs>
      <use transform="scale(0.996264)" xlink:href="#CMR17-66"/>
      <use transform="translate(65.188754 0)scale(0.996264)" xlink:href="#CMR17-83"/>
      <use transform="translate(146.160091 0)scale(0.996264)" xlink:href="#CMR17-99"/>
      <use transform="translate(186.645751 0)scale(0.996264)" xlink:href="#CMR17-108"/>
      <use transform="translate(211.51681 0)scale(0.996264)" xlink:href="#CMR17-97"/>
      <use transform="translate(257.207287 0)scale(0.996264)" xlink:href="#CMR17-115"/>
      <use transform="translate(293.008624 0)scale(0.996264)" xlink:href="#CMR17-115"/>
      <use transform="translate(358.885928 0)scale(0.996264)" xlink:href="#CMR17-40"/>
      <use transform="translate(394.166696 0)scale(0.996264)" xlink:href="#CMMI12-77"/>
      <use transform="translate(488.540121 -14.943915)scale(0.697382)" xlink:href="#CMMI12-83"/>
      <use transform="translate(562.768159 0)scale(0.996264)" xlink:href="#CMR17-61"/>
      <use transform="translate(663.35247 39.226102)scale(0.697382)" xlink:href="#CMR17-51"/>
      <use transform="translate(663.35247 -34.355253)scale(0.697382)" xlink:href="#CMR17-50"/>
      <use transform="translate(696.531166 0)scale(0.996264)" xlink:href="#CMR17-41"/>
      <path d="M 663.35247 24.410885 
L 695.335652 24.410885 
L 695.335652 25.40233 
L 663.35247 25.40233 
L 663.35247 24.410885 
z
"/>
     </g>
    </g>
   </g>
   <g id="matplotlib.axis_2">
    <g id="ytick_1">
     <g id="line2d_1">
      <path clip-path="url(#pbc68a75f33)" d="M 41.725311 173.49195 
L 219.33132 173.49195 
" style="fill:none;stroke:#cccccc;stroke-linecap:round;stroke-width:0.8;"/>
     </g>
     <g id="text_12">
      <!-- $\mathdefault{0}$ -->
      <g style="fill:#262626;" transform="translate(29.743975 176.951199)scale(0.1 -0.1)">
       <use transform="scale(0.996264)" xlink:href="#CMR17-48"/>
      </g>
     </g>
    </g>
    <g id="ytick_2">
     <g id="line2d_2">
      <path clip-path="url(#pbc68a75f33)" d="M 41.725311 143.946835 
L 219.33132 143.946835 
" style="fill:none;stroke:#cccccc;stroke-linecap:round;stroke-width:0.8;"/>
     </g>
     <g id="text_13">
      <!-- $\mathdefault{10}$ -->
      <g style="fill:#262626;" transform="translate(24.76264 147.406084)scale(0.1 -0.1)">
       <use transform="scale(0.996264)" xlink:href="#CMR17-49"/>
       <use transform="translate(45.690477 0)scale(0.996264)" xlink:href="#CMR17-48"/>
      </g>
     </g>
    </g>
    <g id="ytick_3">
     <g id="line2d_3">
      <path clip-path="url(#pbc68a75f33)" d="M 41.725311 114.40172 
L 219.33132 114.40172 
" style="fill:none;stroke:#cccccc;stroke-linecap:round;stroke-width:0.8;"/>
     </g>
     <g id="text_14">
      <!-- $\mathdefault{20}$ -->
      <g style="fill:#262626;" transform="translate(24.76264 117.860969)scale(0.1 -0.1)">
       <use transform="scale(0.996264)" xlink:href="#CMR17-50"/>
       <use transform="translate(45.690477 0)scale(0.996264)" xlink:href="#CMR17-48"/>
      </g>
     </g>
    </g>
    <g id="ytick_4">
     <g id="line2d_4">
      <path clip-path="url(#pbc68a75f33)" d="M 41.725311 84.856606 
L 219.33132 84.856606 
" style="fill:none;stroke:#cccccc;stroke-linecap:round;stroke-width:0.8;"/>
     </g>
     <g id="text_15">
      <!-- $\mathdefault{30}$ -->
      <g style="fill:#262626;" transform="translate(24.76264 88.315855)scale(0.1 -0.1)">
       <use transform="scale(0.996264)" xlink:href="#CMR17-51"/>
       <use transform="translate(45.690477 0)scale(0.996264)" xlink:href="#CMR17-48"/>
      </g>
     </g>
    </g>
    <g id="ytick_5">
     <g id="line2d_5">
      <path clip-path="url(#pbc68a75f33)" d="M 41.725311 55.311491 
L 219.33132 55.311491 
" style="fill:none;stroke:#cccccc;stroke-linecap:round;stroke-width:0.8;"/>
     </g>
     <g id="text_16">
      <!-- $\mathdefault{40}$ -->
      <g style="fill:#262626;" transform="translate(24.76264 58.77074)scale(0.1 -0.1)">
       <use transform="scale(0.996264)" xlink:href="#CMR17-52"/>
       <use transform="translate(45.690477 0)scale(0.996264)" xlink:href="#CMR17-48"/>
      </g>
     </g>
    </g>
    <g id="ytick_6">
     <g id="line2d_6">
      <path clip-path="url(#pbc68a75f33)" d="M 41.725311 25.766376 
L 219.33132 25.766376 
" style="fill:none;stroke:#cccccc;stroke-linecap:round;stroke-width:0.8;"/>
     </g>
     <g id="text_17">
      <!-- $\mathdefault{50}$ -->
      <g style="fill:#262626;" transform="translate(24.76264 29.225625)scale(0.1 -0.1)">
       <use transform="scale(0.996264)" xlink:href="#CMR17-53"/>
       <use transform="translate(45.690477 0)scale(0.996264)" xlink:href="#CMR17-48"/>
      </g>
     </g>
    </g>
    <g id="text_18">
     <!-- relative energies [\si{\kcal\per\mol}] -->
     <g style="fill:#262626;" transform="translate(18.27198 158.076755)rotate(-90)scale(0.1 -0.1)">
      <defs>
       <path d="M 15 23.703125 
C 15 33.34375 19.09375 42.390625 26.59375 42.390625 
C 27.296875 42.390625 28 42.296875 28.703125 41.984375 
C 28.703125 41.984375 26.5 41.28125 26.5 38.671875 
C 26.5 36.265625 28.40625 35.265625 29.90625 35.265625 
C 31.09375 35.265625 33.296875 35.96875 33.296875 38.78125 
C 33.296875 41.984375 30.09375 44 26.703125 44 
C 19.09375 44 15.796875 36.5625 14.796875 33.046875 
L 14.703125 33.046875 
L 14.703125 44 
L 3.09375 42.890625 
L 3.09375 40.28125 
C 9 40.28125 9.90625 39.6875 9.90625 34.859375 
L 9.90625 6.921875 
C 9.90625 3.09375 9.5 2.59375 3.09375 2.59375 
L 3.09375 0 
C 5.5 0.1875 10.09375 0.1875 12.703125 0.1875 
C 15.59375 0.1875 20.703125 0.1875 23.40625 0 
L 23.40625 2.59375 
C 16.203125 2.59375 15 2.59375 15 7.109375 
z
" id="CMR17-114"/>
       <path d="M 38.09375 23.484375 
C 38.5 23.890625 38.5 24.09375 38.5 25.09375 
C 38.5 35.171875 33.09375 44 21.703125 44 
C 11.09375 44 2.703125 33.984375 2.703125 21.78125 
C 2.703125 8.65625 12.203125 -1 22.796875 -1 
C 34 -1 38.40625 9.671875 38.40625 11.796875 
C 38.40625 12.5 37.796875 12.5 37.59375 12.5 
C 36.90625 12.5 36.796875 12.296875 36.40625 11.078125 
C 34.203125 4.21875 28.703125 0.796875 23.5 0.796875 
C 19.203125 0.796875 14.90625 3.21875 12.203125 7.65625 
C 9.09375 12.796875 9.09375 18.75 9.09375 23.484375 
z
M 9.203125 25 
C 9.90625 39.234375 17.59375 42.390625 21.59375 42.390625 
C 28.40625 42.390625 33 36.0625 33.09375 25 
z
" id="CMR17-101"/>
       <path d="M 15.09375 40.390625 
L 29.09375 40.390625 
L 29.09375 43 
L 15.09375 43 
L 15.09375 62 
L 13.296875 62 
C 13.09375 51.4375 9.59375 42.1875 1.09375 41.984375 
L 1.09375 40.390625 
L 9.796875 40.390625 
L 9.796875 12.15625 
C 9.796875 10.234375 9.796875 -1 21.40625 -1 
C 27.296875 -1 30.703125 4.8125 30.703125 12.25 
L 30.703125 17.984375 
L 28.90625 17.984375 
L 28.90625 12.34375 
C 28.90625 5.421875 26.203125 0.796875 22 0.796875 
C 19.09375 0.796875 15.09375 2.796875 15.09375 11.953125 
z
" id="CMR17-116"/>
       <path d="M 15.5 61.890625 
C 15.5 64.09375 13.703125 66 11.40625 66 
C 9.203125 66 7.296875 64.1875 7.296875 61.890625 
C 7.296875 59.6875 9.09375 57.796875 11.40625 57.796875 
C 13.59375 57.796875 15.5 59.59375 15.5 61.890625 
z
M 3.796875 42.890625 
L 3.796875 40.296875 
C 9.40625 40.296875 10.203125 39.6875 10.203125 34.859375 
L 10.203125 6.921875 
C 10.203125 3.09375 9.796875 2.59375 3.40625 2.59375 
L 3.40625 0 
C 5.796875 0.1875 10.09375 0.1875 12.59375 0.1875 
C 15 0.1875 19.09375 0.1875 21.40625 0 
L 21.40625 2.59375 
C 15.5 2.59375 15.296875 3.203125 15.296875 6.8125 
L 15.296875 44 
z
" id="CMR17-105"/>
       <path d="M 39.09375 33.953125 
C 40 36.171875 41.59375 40.1875 47.40625 40.390625 
L 47.40625 43 
C 45.5 42.890625 43 42.796875 41.09375 42.796875 
C 39 42.796875 35.703125 42.796875 33.703125 43 
L 33.703125 40.390625 
C 36.203125 40.1875 37.59375 38.984375 37.59375 36.375 
C 37.59375 35.46875 37.59375 35.265625 37 33.859375 
L 26 5.921875 
L 14.09375 36.0625 
C 13.5 37.375 13.5 37.578125 13.5 37.984375 
C 13.5 40.390625 16.796875 40.390625 18.296875 40.390625 
L 18.296875 43 
C 15.90625 42.796875 11.5 42.796875 9 42.796875 
C 6.296875 42.796875 3.203125 42.796875 1 43 
L 1 40.390625 
C 4.796875 40.390625 6.90625 40.390625 8.09375 37.28125 
L 22.59375 0.6875 
C 23.203125 -0.8125 23.296875 -1 24.203125 -1 
C 25.09375 -1 25.203125 -0.8125 25.796875 0.6875 
z
" id="CMR17-118"/>
       <path d="M 41.5 30.53125 
C 41.5 35.65625 40.5 44 28.703125 44 
C 20.796875 44 16.703125 37.875 15.203125 33.84375 
L 15.09375 33.84375 
L 15.09375 44 
L 3.296875 42.890625 
L 3.296875 40.28125 
C 9.203125 40.28125 10.09375 39.6875 10.09375 34.859375 
L 10.09375 6.921875 
C 10.09375 3.09375 9.703125 2.59375 3.296875 2.59375 
L 3.296875 0 
C 5.703125 0.1875 10.09375 0.1875 12.703125 0.1875 
C 15.296875 0.1875 19.796875 0.1875 22.203125 0 
L 22.203125 2.59375 
C 15.796875 2.59375 15.40625 3 15.40625 6.921875 
L 15.40625 26.21875 
C 15.40625 35.453125 21 42.390625 28 42.390625 
C 35.40625 42.390625 36.203125 35.765625 36.203125 30.9375 
L 36.203125 6.921875 
C 36.203125 3.09375 35.796875 2.59375 29.40625 2.59375 
L 29.40625 0 
C 31.796875 0.1875 36.203125 0.1875 38.796875 0.1875 
C 41.40625 0.1875 45.90625 0.1875 48.296875 0 
L 48.296875 2.59375 
C 41.90625 2.59375 41.5 3 41.5 6.921875 
z
" id="CMR17-110"/>
       <path d="M 11.09375 18.203125 
C 13 16.6875 16.296875 15 20.296875 15 
C 28.203125 15 35 21.234375 35 29.609375 
C 35 32.234375 34.203125 36.265625 31.203125 39.390625 
C 34 42.390625 38.09375 43.390625 40.40625 43.390625 
C 40.796875 43.390625 41.40625 43.390625 41.90625 43.09375 
C 41.5 42.984375 40.59375 42.59375 40.59375 40.984375 
C 40.59375 39.6875 41.5 38.796875 42.796875 38.796875 
C 44.296875 38.796875 45.09375 39.796875 45.09375 41.09375 
C 45.09375 42.984375 43.59375 45 40.40625 45 
C 36.40625 45 32.90625 43.09375 30.09375 40.484375 
C 27.09375 43.1875 23.5 44.1875 20.296875 44.1875 
C 12.40625 44.1875 5.59375 37.984375 5.59375 29.609375 
C 5.59375 23.859375 8.90625 20.21875 9.90625 19.21875 
C 6.90625 15.6875 6.90625 11.59375 6.90625 11.09375 
C 6.90625 8.5 7.90625 4.6875 11.296875 2.59375 
C 6.09375 1.28125 2 -2.875 2 -8.078125 
C 2 -15.5625 11.5 -21 22.90625 -21 
C 33.90625 -21 43.796875 -15.765625 43.796875 -7.96875 
C 43.796875 6 29 6 21.296875 6 
C 19 6 14.90625 6 14.40625 6.09375 
C 11.296875 6.59375 9.203125 9.390625 9.203125 12.890625 
C 9.203125 13.796875 9.203125 16 11.09375 18.203125 
z
M 20.296875 16.6875 
C 11.5 16.6875 11.5 27.59375 11.5 29.609375 
C 11.5 31.625 11.5 42.484375 20.296875 42.484375 
C 29.09375 42.484375 29.09375 31.625 29.09375 29.609375 
C 29.09375 27.59375 29.09375 16.6875 20.296875 16.6875 
z
M 22.90625 -19.3125 
C 12.90625 -19.3125 6 -13.796875 6 -8.078125 
C 6 -4.859375 7.703125 -1.84375 9.90625 -0.171875 
C 12.40625 1.59375 13.40625 1.59375 20.203125 1.59375 
C 28.40625 1.59375 39.796875 1.59375 39.796875 -8.078125 
C 39.796875 -13.796875 32.90625 -19.3125 22.90625 -19.3125 
z
" id="CMR17-103"/>
       <path d="M 23.5 -25 
L 23.5 -21.5 
L 14.09375 -21.5 
L 14.09375 71.484375 
L 23.5 71.484375 
L 23.5 75 
L 10.59375 75 
L 10.59375 -25 
z
" id="CMR17-91"/>
       <path d="M 26.09375 26.234375 
C 26 26.4375 25.5 27.03125 25.5 27.328125 
C 25.5 27.53125 32.59375 33.984375 33.5 34.78125 
C 39.203125 39.5625 42.796875 40.046875 45.40625 40.15625 
L 45.40625 42.734375 
C 44.796875 42.734375 44.59375 42.734375 44.5 42.640625 
L 39.59375 42.53125 
C 36.796875 42.53125 32.5 42.53125 29.796875 42.734375 
L 29.796875 40.15625 
C 31.203125 40.046875 32.203125 39.265625 32.203125 37.859375 
C 32.203125 35.875 30.203125 33.984375 30.09375 33.984375 
L 15 20.28125 
L 15 69 
L 3.09375 67.890625 
L 3.09375 65.296875 
C 9 65.296875 9.90625 64.703125 9.90625 59.921875 
L 9.90625 6.859375 
C 9.90625 3.09375 9.5 2.59375 3.09375 2.59375 
L 3.09375 0 
C 5.5 0.1875 9.90625 0.1875 12.40625 0.1875 
C 14.90625 0.1875 19.296875 0.1875 21.703125 0 
L 21.703125 2.59375 
C 15.296875 2.59375 14.90625 2.984375 14.90625 6.859375 
L 14.90625 17.796875 
L 21.796875 24.0625 
L 31.90625 9.15625 
C 33.09375 7.359375 34.09375 5.96875 34.09375 4.671875 
C 34.09375 2.890625 32.296875 2.59375 31.09375 2.59375 
L 31.09375 0 
C 33.5 0.1875 37.796875 0.1875 40.296875 0.1875 
C 42.09375 0.1875 45.796875 0.09375 47.5 0 
L 47.5 2.59375 
C 42.796875 2.59375 41.703125 3.484375 38.703125 7.859375 
z
" id="CMR17-107"/>
       <path d="M 42.90625 71.296875 
C 42.90625 71.390625 43.5 72.890625 43.5 73.09375 
C 43.5 74.296875 42.5 75 41.703125 75 
C 41.203125 75 40.296875 75 39.5 72.796875 
L 6 -21.3125 
C 6 -21.40625 5.40625 -22.90625 5.40625 -23.109375 
C 5.40625 -24.3125 6.40625 -25 7.203125 -25 
C 7.796875 -25 8.703125 -24.90625 9.40625 -22.8125 
z
" id="CMMI12-61"/>
       <path d="M 67.59375 30.53125 
C 67.59375 35.5625 66.703125 44 54.796875 44 
C 48 44 43.296875 39.375 41.5 33.953125 
L 41.40625 33.953125 
C 40.203125 42.1875 34.296875 44 28.703125 44 
C 20.796875 44 16.703125 37.875 15.203125 33.84375 
L 15.09375 33.84375 
L 15.09375 44 
L 3.296875 42.890625 
L 3.296875 40.28125 
C 9.203125 40.28125 10.09375 39.6875 10.09375 34.859375 
L 10.09375 6.921875 
C 10.09375 3.09375 9.703125 2.59375 3.296875 2.59375 
L 3.296875 0 
C 5.703125 0.1875 10.09375 0.1875 12.703125 0.1875 
C 15.296875 0.1875 19.796875 0.1875 22.203125 0 
L 22.203125 2.59375 
C 15.796875 2.59375 15.40625 3 15.40625 6.921875 
L 15.40625 26.21875 
C 15.40625 35.453125 21 42.390625 28 42.390625 
C 35.40625 42.390625 36.203125 35.765625 36.203125 30.9375 
L 36.203125 6.921875 
C 36.203125 3.09375 35.796875 2.59375 29.40625 2.59375 
L 29.40625 0 
C 31.796875 0.1875 36.203125 0.1875 38.796875 0.1875 
C 41.40625 0.1875 45.90625 0.1875 48.296875 0 
L 48.296875 2.59375 
C 41.90625 2.59375 41.5 3 41.5 6.921875 
L 41.5 26.21875 
C 41.5 35.453125 47.09375 42.390625 54.09375 42.390625 
C 61.5 42.390625 62.296875 35.765625 62.296875 30.9375 
L 62.296875 6.921875 
C 62.296875 3.09375 61.90625 2.59375 55.5 2.59375 
L 55.5 0 
C 57.90625 0.1875 62.296875 0.1875 64.90625 0.1875 
C 67.5 0.1875 72 0.1875 74.40625 0 
L 74.40625 2.59375 
C 68 2.59375 67.59375 3 67.59375 6.921875 
z
" id="CMR17-109"/>
       <path d="M 43.09375 21.1875 
C 43.09375 34 33.796875 44 22.90625 44 
C 12 44 2.703125 34 2.703125 21.1875 
C 2.703125 8.59375 12 -1 22.90625 -1 
C 33.796875 -1 43.09375 8.59375 43.09375 21.1875 
z
M 22.90625 0.796875 
C 18.203125 0.796875 14.203125 3.59375 11.90625 7.5 
C 9.40625 12 9.09375 17.59375 9.09375 22 
C 9.09375 26.1875 9.296875 31.390625 11.90625 35.890625 
C 13.90625 39.1875 17.796875 42.390625 22.90625 42.390625 
C 27.40625 42.390625 31.203125 39.890625 33.59375 36.390625 
C 36.703125 31.6875 36.703125 25.09375 36.703125 22 
C 36.703125 18.09375 36.5 12.09375 33.796875 7.296875 
C 31 2.6875 26.703125 0.796875 22.90625 0.796875 
z
" id="CMR17-111"/>
       <path d="M 14.296875 75 
L 1.40625 75 
L 1.40625 71.484375 
L 10.796875 71.484375 
L 10.796875 -21.5 
L 1.40625 -21.5 
L 1.40625 -25 
L 14.296875 -25 
z
" id="CMR17-93"/>
      </defs>
      <use transform="scale(0.996264)" xlink:href="#CMR17-114"/>
      <use transform="translate(35.280768 0)scale(0.996264)" xlink:href="#CMR17-101"/>
      <use transform="translate(75.766428 0)scale(0.996264)" xlink:href="#CMR17-108"/>
      <use transform="translate(100.637487 0)scale(0.996264)" xlink:href="#CMR17-97"/>
      <use transform="translate(146.327964 0)scale(0.996264)" xlink:href="#CMR17-116"/>
      <use transform="translate(181.608732 0)scale(0.996264)" xlink:href="#CMR17-105"/>
      <use transform="translate(206.47979 0)scale(0.996264)" xlink:href="#CMR17-118"/>
      <use transform="translate(252.170252 0)scale(0.996264)" xlink:href="#CMR17-101"/>
      <use transform="translate(322.731879 0)scale(0.996264)" xlink:href="#CMR17-101"/>
      <use transform="translate(363.217539 0)scale(0.996264)" xlink:href="#CMR17-110"/>
      <use transform="translate(414.112909 0)scale(0.996264)" xlink:href="#CMR17-101"/>
      <use transform="translate(454.59857 0)scale(0.996264)" xlink:href="#CMR17-114"/>
      <use transform="translate(489.879337 0)scale(0.996264)" xlink:href="#CMR17-103"/>
      <use transform="translate(535.569814 0)scale(0.996264)" xlink:href="#CMR17-105"/>
      <use transform="translate(560.440873 0)scale(0.996264)" xlink:href="#CMR17-101"/>
      <use transform="translate(600.926533 0)scale(0.996264)" xlink:href="#CMR17-115"/>
      <use transform="translate(666.803837 0)scale(0.996264)" xlink:href="#CMR17-91"/>
      <use transform="translate(691.674896 0)scale(0.996264)" xlink:href="#CMR17-107"/>
      <use transform="translate(737.365358 0)scale(0.996264)" xlink:href="#CMR17-99"/>
      <use transform="translate(777.851018 0)scale(0.996264)" xlink:href="#CMR17-97"/>
      <use transform="translate(823.541495 0)scale(0.996264)" xlink:href="#CMR17-108"/>
      <use transform="translate(848.412554 0)scale(0.996264)" xlink:href="#CMMI12-61"/>
      <use transform="translate(897.187473 0)scale(0.996264)" xlink:href="#CMR17-109"/>
      <use transform="translate(974.107063 0)scale(0.996264)" xlink:href="#CMR17-111"/>
      <use transform="translate(1019.79754 0)scale(0.996264)" xlink:href="#CMR17-108"/>
      <use transform="translate(1044.668598 0)scale(0.996264)" xlink:href="#CMR17-93"/>
     </g>
    </g>
   </g>
   <g id="patch_3">
    <path clip-path="url(#pbc68a75f33)" d="M 43.501371 173.49195 
L 57.709851 173.49195 
L 57.709851 27.565255 
L 43.501371 27.565255 
z
" style="fill:#597dbf;stroke:#ffffff;stroke-linejoin:miter;"/>
   </g>
   <g id="patch_4">
    <path clip-path="url(#pbc68a75f33)" d="M 61.261972 173.49195 
L 75.470452 173.49195 
L 75.470452 117.320082 
L 61.261972 117.320082 
z
" style="fill:#d98b5f;stroke:#ffffff;stroke-linejoin:miter;"/>
   </g>
   <g id="patch_5">
    <path clip-path="url(#pbc68a75f33)" d="M 79.022573 173.49195 
L 93.231053 173.49195 
L 93.231053 79.5966 
L 79.022573 79.5966 
z
" style="fill:#75bf71;stroke:#ffffff;stroke-linejoin:miter;"/>
   </g>
   <g id="patch_6">
    <path clip-path="url(#pbc68a75f33)" d="M 96.783174 173.49195 
L 110.991654 173.49195 
L 110.991654 107.381809 
L 96.783174 107.381809 
z
" style="fill:#c76e6e;stroke:#ffffff;stroke-linejoin:miter;"/>
   </g>
   <g id="patch_7">
    <path clip-path="url(#pbc68a75f33)" d="M 114.543774 173.49195 
L 128.752255 173.49195 
L 128.752255 94.194789 
L 114.543774 94.194789 
z
" style="fill:#9475ab;stroke:#ffffff;stroke-linejoin:miter;"/>
   </g>
   <g id="patch_8">
    <path clip-path="url(#pbc68a75f33)" d="M 132.304375 173.49195 
L 146.512856 173.49195 
L 146.512856 126.374681 
L 132.304375 126.374681 
z
" style="fill:#826246;stroke:#ffffff;stroke-linejoin:miter;"/>
   </g>
   <g id="patch_9">
    <path clip-path="url(#pbc68a75f33)" d="M 150.064976 173.49195 
L 164.273457 173.49195 
L 164.273457 171.703607 
L 150.064976 171.703607 
z
" style="fill:#d08abb;stroke:#ffffff;stroke-linejoin:miter;"/>
   </g>
   <g id="patch_10">
    <path clip-path="url(#pbc68a75f33)" d="M 167.825577 173.49195 
L 182.034058 173.49195 
L 182.034058 144.852556 
L 167.825577 144.852556 
z
" style="fill:#797979;stroke:#ffffff;stroke-linejoin:miter;"/>
   </g>
   <g id="patch_11">
    <path clip-path="url(#pbc68a75f33)" d="M 185.586178 173.49195 
L 199.794659 173.49195 
L 199.794659 123.279608 
L 185.586178 123.279608 
z
" style="fill:#c7b475;stroke:#ffffff;stroke-linejoin:miter;"/>
   </g>
   <g id="patch_12">
    <path clip-path="url(#pbc68a75f33)" d="M 203.346779 173.49195 
L 217.55526 173.49195 
L 217.55526 146.36636 
L 203.346779 146.36636 
z
" style="fill:#8ec1d6;stroke:#ffffff;stroke-linejoin:miter;"/>
   </g>
   <g id="line2d_7">
    <path clip-path="url(#pbc68a75f33)" d="M 0 0 
" style="fill:none;stroke:#424242;stroke-linecap:round;stroke-width:2.7;"/>
   </g>
   <g id="line2d_8">
    <path clip-path="url(#pbc68a75f33)" d="M 0 0 
" style="fill:none;stroke:#424242;stroke-linecap:round;stroke-width:2.7;"/>
   </g>
   <g id="line2d_9">
    <path clip-path="url(#pbc68a75f33)" d="M 86.126813 80.263283 
L 86.126813 79.230179 
" style="fill:none;stroke:#424242;stroke-linecap:round;stroke-width:2.7;"/>
   </g>
   <g id="line2d_10">
    <path clip-path="url(#pbc68a75f33)" d="M 103.887414 109.520908 
L 103.887414 106.039705 
" style="fill:none;stroke:#424242;stroke-linecap:round;stroke-width:2.7;"/>
   </g>
   <g id="line2d_11">
    <path clip-path="url(#pbc68a75f33)" d="M 121.648015 96.982608 
L 121.648015 91.351965 
" style="fill:none;stroke:#424242;stroke-linecap:round;stroke-width:2.7;"/>
   </g>
   <g id="line2d_12">
    <path clip-path="url(#pbc68a75f33)" d="M 139.408616 126.954187 
L 139.408616 125.878373 
" style="fill:none;stroke:#424242;stroke-linecap:round;stroke-width:2.7;"/>
   </g>
   <g id="line2d_13">
    <path clip-path="url(#pbc68a75f33)" d="M 157.169217 173.49195 
L 157.169217 169.576606 
" style="fill:none;stroke:#424242;stroke-linecap:round;stroke-width:2.7;"/>
   </g>
   <g id="line2d_14">
    <path clip-path="url(#pbc68a75f33)" d="M 174.929818 146.514114 
L 174.929818 143.046932 
" style="fill:none;stroke:#424242;stroke-linecap:round;stroke-width:2.7;"/>
   </g>
   <g id="line2d_15">
    <path clip-path="url(#pbc68a75f33)" d="M 192.690419 125.407674 
L 192.690419 120.791716 
" style="fill:none;stroke:#424242;stroke-linecap:round;stroke-width:2.7;"/>
   </g>
   <g id="line2d_16">
    <path clip-path="url(#pbc68a75f33)" d="M 210.45102 148.106609 
L 210.45102 144.622769 
" style="fill:none;stroke:#424242;stroke-linecap:round;stroke-width:2.7;"/>
   </g>
   <g id="patch_13">
    <path d="M 41.725311 173.49195 
L 41.725311 25.766376 
" style="fill:none;stroke:#262626;stroke-linecap:square;stroke-linejoin:miter;stroke-width:0.8;"/>
   </g>
   <g id="patch_14">
    <path d="M 219.33132 173.49195 
L 219.33132 25.766376 
" style="fill:none;stroke:#262626;stroke-linecap:square;stroke-linejoin:miter;stroke-width:0.8;"/>
   </g>
   <g id="patch_15">
    <path d="M 41.725311 173.49195 
L 219.33132 173.49195 
" style="fill:none;stroke:#262626;stroke-linecap:square;stroke-linejoin:miter;stroke-width:0.8;"/>
   </g>
   <g id="patch_16">
    <path d="M 41.725311 25.766376 
L 219.33132 25.766376 
" style="fill:none;stroke:#262626;stroke-linecap:square;stroke-linejoin:miter;stroke-width:0.8;"/>
   </g>
   <g id="text_19">
    <!-- a) symmetrized cluster -->
    <g style="fill:#262626;" transform="translate(72.095963 19.766376)scale(0.12 -0.12)">
     <defs>
      <path d="M 39 34.109375 
C 41.5 40.296875 46 40.390625 47.40625 40.390625 
L 47.40625 43 
C 45.5 42.890625 43 42.796875 41.09375 42.796875 
C 39 42.796875 35.703125 42.796875 33.703125 43 
L 33.703125 40.390625 
C 37.5 40.09375 37.59375 37.25 37.59375 36.4375 
C 37.59375 35.4375 37.40625 34.921875 36.90625 33.71875 
L 26 6.390625 
L 14.09375 35.9375 
C 13.59375 37.15625 13.59375 37.859375 13.59375 37.96875 
C 13.59375 40.1875 15.90625 40.390625 18.296875 40.390625 
L 18.296875 43 
C 15.90625 42.796875 11.59375 42.796875 9.09375 42.796875 
C 6.40625 42.796875 3.203125 42.796875 1 43 
L 1 40.390625 
C 6.40625 40.390625 7 39.890625 8.296875 36.640625 
L 23.203125 -0.484375 
C 18.703125 -12.421875 16.09375 -19.40625 9.796875 -19.40625 
C 8.703125 -19.40625 6.203125 -19.109375 4.40625 -17.28125 
C 6.703125 -17.078125 7.703125 -15.65625 7.703125 -13.9375 
C 7.703125 -12.21875 6.5 -10.703125 4.5 -10.703125 
C 2.296875 -10.703125 1.203125 -12.21875 1.203125 -14.046875 
C 1.203125 -18.09375 5.296875 -21 9.796875 -21 
C 15.59375 -21 19.203125 -15.359375 21.203125 -10.296875 
z
" id="CMR17-121"/>
      <path d="M 36.09375 40.6875 
C 36.90625 41.6875 36.90625 41.890625 36.90625 42.09375 
C 36.90625 43 36.5 43 34.703125 43 
L 4.296875 43 
L 3.296875 27.5 
L 5.09375 27.5 
C 5.796875 37.1875 6.90625 41.390625 18.40625 41.390625 
L 30.59375 41.390625 
L 2 1.5 
C 2 0.09375 2.09375 0 4.203125 0 
L 35.796875 0 
L 37.203125 18 
L 35.40625 18 
C 34.59375 6.890625 33.296875 1.796875 21.09375 1.796875 
L 8.296875 1.796875 
z
" id="CMR17-122"/>
      <path d="M 29.203125 67.890625 
L 29.203125 65.296875 
C 35.09375 65.296875 36 64.703125 36 60.046875 
L 36 37.046875 
C 35.59375 37.546875 31.5 44 23.40625 44 
C 13.203125 44 3.296875 34.8125 3.296875 21.5 
C 3.296875 8.265625 12.59375 -1 22.40625 -1 
C 30.90625 -1 35.296875 5.640625 35.796875 6.34375 
L 35.796875 -1 
L 47.90625 -0.203125 
L 47.90625 2.40625 
C 42 2.40625 41.09375 3.015625 41.09375 7.859375 
L 41.09375 69 
z
M 35.796875 11.90625 
C 35.796875 8.875 34 6.140625 31.703125 4.125 
C 28.296875 1.09375 24.90625 0.59375 23 0.59375 
C 20.09375 0.59375 9.703125 2.109375 9.703125 21.390625 
C 9.703125 41.1875 21.296875 42.390625 23.90625 42.390625 
C 28.5 42.390625 32.203125 39.765625 34.5 36.140625 
C 35.796875 34.015625 35.796875 33.703125 35.796875 31.890625 
z
" id="CMR17-100"/>
      <path d="M 29.40625 42.890625 
L 29.40625 40.296875 
C 35.296875 40.296875 36.203125 39.6875 36.203125 34.828125 
L 36.203125 16.453125 
C 36.203125 7.96875 31.703125 0.59375 24.296875 0.59375 
C 16.09375 0.59375 15.40625 5.546875 15.40625 10.796875 
L 15.40625 44 
L 3.296875 42.890625 
L 3.296875 40.296875 
C 7.296875 40.296875 10 40.296875 10.09375 36.25 
L 10.09375 16.859375 
C 10.09375 10.09375 10.09375 5.75 12.703125 2.921875 
C 14 1.609375 16.5 -1 23.703125 -1 
C 32.203125 -1 35.5 6.25 36.296875 8.375 
L 36.40625 8.375 
L 36.40625 -1 
L 48.296875 -0.203125 
L 48.296875 2.40625 
C 42.40625 2.40625 41.5 3.015625 41.5 7.859375 
L 41.5 44 
z
" id="CMR17-117"/>
     </defs>
     <use transform="scale(0.996264)" xlink:href="#CMR17-97"/>
     <use transform="translate(45.690477 0)scale(0.996264)" xlink:href="#CMR17-41"/>
     <use transform="translate(111.047211 0)scale(0.996264)" xlink:href="#CMR17-115"/>
     <use transform="translate(146.848549 0)scale(0.996264)" xlink:href="#CMR17-121"/>
     <use transform="translate(195.141465 0)scale(0.996264)" xlink:href="#CMR17-109"/>
     <use transform="translate(272.061055 0)scale(0.996264)" xlink:href="#CMR17-109"/>
     <use transform="translate(348.980644 0)scale(0.996264)" xlink:href="#CMR17-101"/>
     <use transform="translate(389.466305 0)scale(0.996264)" xlink:href="#CMR17-116"/>
     <use transform="translate(424.747073 0)scale(0.996264)" xlink:href="#CMR17-114"/>
     <use transform="translate(460.027841 0)scale(0.996264)" xlink:href="#CMR17-105"/>
     <use transform="translate(484.898899 0)scale(0.996264)" xlink:href="#CMR17-122"/>
     <use transform="translate(525.384559 0)scale(0.996264)" xlink:href="#CMR17-101"/>
     <use transform="translate(565.87022 0)scale(0.996264)" xlink:href="#CMR17-100"/>
     <use transform="translate(646.841556 0)scale(0.996264)" xlink:href="#CMR17-99"/>
     <use transform="translate(687.327217 0)scale(0.996264)" xlink:href="#CMR17-108"/>
     <use transform="translate(712.198275 0)scale(0.996264)" xlink:href="#CMR17-117"/>
     <use transform="translate(763.093645 0)scale(0.996264)" xlink:href="#CMR17-115"/>
     <use transform="translate(798.894982 0)scale(0.996264)" xlink:href="#CMR17-116"/>
     <use transform="translate(834.17575 0)scale(0.996264)" xlink:href="#CMR17-101"/>
     <use transform="translate(874.661411 0)scale(0.996264)" xlink:href="#CMR17-114"/>
    </g>
   </g>
  </g>
  <g id="axes_2">
   <g id="patch_17">
    <path d="M 230.13132 173.49195 
L 407.737329 173.49195 
L 407.737329 25.766376 
L 230.13132 25.766376 
z
" style="fill:#ffffff;"/>
   </g>
   <g id="matplotlib.axis_3">
    <g id="xtick_11">
     <g id="text_20">
      <!-- 1 -->
      <g style="fill:#262626;" transform="translate(236.520953 187.410448)scale(0.1 -0.1)">
       <use transform="scale(0.996264)" xlink:href="#CMR17-49"/>
      </g>
     </g>
    </g>
    <g id="xtick_12">
     <g id="text_21">
      <!-- 2 -->
      <g style="fill:#262626;" transform="translate(254.281554 187.410448)scale(0.1 -0.1)">
       <use transform="scale(0.996264)" xlink:href="#CMR17-50"/>
      </g>
     </g>
    </g>
    <g id="xtick_13">
     <g id="text_22">
      <!-- 3 -->
      <g style="fill:#262626;" transform="translate(272.042155 187.410448)scale(0.1 -0.1)">
       <use transform="scale(0.996264)" xlink:href="#CMR17-51"/>
      </g>
     </g>
    </g>
    <g id="xtick_14">
     <g id="text_23">
      <!-- 4 -->
      <g style="fill:#262626;" transform="translate(289.802756 187.410448)scale(0.1 -0.1)">
       <use transform="scale(0.996264)" xlink:href="#CMR17-52"/>
      </g>
     </g>
    </g>
    <g id="xtick_15">
     <g id="text_24">
      <!-- 5 -->
      <g style="fill:#262626;" transform="translate(307.563357 187.410448)scale(0.1 -0.1)">
       <use transform="scale(0.996264)" xlink:href="#CMR17-53"/>
      </g>
     </g>
    </g>
    <g id="xtick_16">
     <g id="text_25">
      <!-- 6 -->
      <g style="fill:#262626;" transform="translate(325.323958 187.410448)scale(0.1 -0.1)">
       <use transform="scale(0.996264)" xlink:href="#CMR17-54"/>
      </g>
     </g>
    </g>
    <g id="xtick_17">
     <g id="text_26">
      <!-- 7 -->
      <g style="fill:#262626;" transform="translate(343.084559 187.410448)scale(0.1 -0.1)">
       <use transform="scale(0.996264)" xlink:href="#CMR17-55"/>
      </g>
     </g>
    </g>
    <g id="xtick_18">
     <g id="text_27">
      <!-- 8 -->
      <g style="fill:#262626;" transform="translate(360.84516 187.410448)scale(0.1 -0.1)">
       <use transform="scale(0.996264)" xlink:href="#CMR17-56"/>
      </g>
     </g>
    </g>
    <g id="xtick_19">
     <g id="text_28">
      <!-- 9 -->
      <g style="fill:#262626;" transform="translate(378.60576 187.410448)scale(0.1 -0.1)">
       <use transform="scale(0.996264)" xlink:href="#CMR17-57"/>
      </g>
     </g>
    </g>
    <g id="xtick_20">
     <g id="text_29">
      <!-- 10 -->
      <g style="fill:#262626;" transform="translate(393.875694 187.410448)scale(0.1 -0.1)">
       <use transform="scale(0.996264)" xlink:href="#CMR17-49"/>
       <use transform="translate(45.690477 0)scale(0.996264)" xlink:href="#CMR17-48"/>
      </g>
     </g>
    </g>
    <g id="text_30">
     <!-- BS class $(M_S = \tfrac{3}{2})$ -->
     <g style="fill:#262626;" transform="translate(277.884093 201.764488)scale(0.1 -0.1)">
      <use transform="scale(0.996264)" xlink:href="#CMR17-66"/>
      <use transform="translate(65.188754 0)scale(0.996264)" xlink:href="#CMR17-83"/>
      <use transform="translate(146.160091 0)scale(0.996264)" xlink:href="#CMR17-99"/>
      <use transform="translate(186.645751 0)scale(0.996264)" xlink:href="#CMR17-108"/>
      <use transform="translate(211.51681 0)scale(0.996264)" xlink:href="#CMR17-97"/>
      <use transform="translate(257.207287 0)scale(0.996264)" xlink:href="#CMR17-115"/>
      <use transform="translate(293.008624 0)scale(0.996264)" xlink:href="#CMR17-115"/>
      <use transform="translate(358.885928 0)scale(0.996264)" xlink:href="#CMR17-40"/>
      <use transform="translate(394.166696 0)scale(0.996264)" xlink:href="#CMMI12-77"/>
      <use transform="translate(488.540121 -14.943915)scale(0.697382)" xlink:href="#CMMI12-83"/>
      <use transform="translate(562.768159 0)scale(0.996264)" xlink:href="#CMR17-61"/>
      <use transform="translate(663.35247 39.226102)scale(0.697382)" xlink:href="#CMR17-51"/>
      <use transform="translate(663.35247 -34.355253)scale(0.697382)" xlink:href="#CMR17-50"/>
      <use transform="translate(696.531166 0)scale(0.996264)" xlink:href="#CMR17-41"/>
      <path d="M 663.35247 24.410885 
L 695.335652 24.410885 
L 695.335652 25.40233 
L 663.35247 25.40233 
L 663.35247 24.410885 
z
"/>
     </g>
    </g>
   </g>
   <g id="matplotlib.axis_4">
    <g id="ytick_7">
     <g id="line2d_17">
      <path clip-path="url(#p8dce4667f0)" d="M 230.13132 173.49195 
L 407.737329 173.49195 
" style="fill:none;stroke:#cccccc;stroke-linecap:round;stroke-width:0.8;"/>
     </g>
     <g id="line2d_18"/>
     <g id="text_31">
      <!-- $\mathdefault{0}$ -->
      <g style="fill:#262626;" transform="translate(411.237329 176.951199)scale(0.1 -0.1)">
       <use transform="scale(0.996264)" xlink:href="#CMR17-48"/>
      </g>
     </g>
    </g>
    <g id="ytick_8">
     <g id="line2d_19">
      <path clip-path="url(#p8dce4667f0)" d="M 230.13132 143.946835 
L 407.737329 143.946835 
" style="fill:none;stroke:#cccccc;stroke-linecap:round;stroke-width:0.8;"/>
     </g>
     <g id="line2d_20"/>
     <g id="text_32">
      <!-- $\mathdefault{10}$ -->
      <g style="fill:#262626;" transform="translate(411.237329 147.406084)scale(0.1 -0.1)">
       <use transform="scale(0.996264)" xlink:href="#CMR17-49"/>
       <use transform="translate(45.690477 0)scale(0.996264)" xlink:href="#CMR17-48"/>
      </g>
     </g>
    </g>
    <g id="ytick_9">
     <g id="line2d_21">
      <path clip-path="url(#p8dce4667f0)" d="M 230.13132 114.40172 
L 407.737329 114.40172 
" style="fill:none;stroke:#cccccc;stroke-linecap:round;stroke-width:0.8;"/>
     </g>
     <g id="line2d_22"/>
     <g id="text_33">
      <!-- $\mathdefault{20}$ -->
      <g style="fill:#262626;" transform="translate(411.237329 117.860969)scale(0.1 -0.1)">
       <use transform="scale(0.996264)" xlink:href="#CMR17-50"/>
       <use transform="translate(45.690477 0)scale(0.996264)" xlink:href="#CMR17-48"/>
      </g>
     </g>
    </g>
    <g id="ytick_10">
     <g id="line2d_23">
      <path clip-path="url(#p8dce4667f0)" d="M 230.13132 84.856606 
L 407.737329 84.856606 
" style="fill:none;stroke:#cccccc;stroke-linecap:round;stroke-width:0.8;"/>
     </g>
     <g id="line2d_24"/>
     <g id="text_34">
      <!-- $\mathdefault{30}$ -->
      <g style="fill:#262626;" transform="translate(411.237329 88.315855)scale(0.1 -0.1)">
       <use transform="scale(0.996264)" xlink:href="#CMR17-51"/>
       <use transform="translate(45.690477 0)scale(0.996264)" xlink:href="#CMR17-48"/>
      </g>
     </g>
    </g>
    <g id="ytick_11">
     <g id="line2d_25">
      <path clip-path="url(#p8dce4667f0)" d="M 230.13132 55.311491 
L 407.737329 55.311491 
" style="fill:none;stroke:#cccccc;stroke-linecap:round;stroke-width:0.8;"/>
     </g>
     <g id="line2d_26"/>
     <g id="text_35">
      <!-- $\mathdefault{40}$ -->
      <g style="fill:#262626;" transform="translate(411.237329 58.77074)scale(0.1 -0.1)">
       <use transform="scale(0.996264)" xlink:href="#CMR17-52"/>
       <use transform="translate(45.690477 0)scale(0.996264)" xlink:href="#CMR17-48"/>
      </g>
     </g>
    </g>
    <g id="ytick_12">
     <g id="line2d_27">
      <path clip-path="url(#p8dce4667f0)" d="M 230.13132 25.766376 
L 407.737329 25.766376 
" style="fill:none;stroke:#cccccc;stroke-linecap:round;stroke-width:0.8;"/>
     </g>
     <g id="line2d_28"/>
     <g id="text_36">
      <!-- $\mathdefault{50}$ -->
      <g style="fill:#262626;" transform="translate(411.237329 29.225625)scale(0.1 -0.1)">
       <use transform="scale(0.996264)" xlink:href="#CMR17-53"/>
       <use transform="translate(45.690477 0)scale(0.996264)" xlink:href="#CMR17-48"/>
      </g>
     </g>
    </g>
   </g>
   <g id="patch_18">
    <path clip-path="url(#p8dce4667f0)" d="M 231.90738 173.49195 
L 246.115861 173.49195 
L 246.115861 67.19261 
L 231.90738 67.19261 
z
" style="fill:#597dbf;stroke:#ffffff;stroke-linejoin:miter;"/>
   </g>
   <g id="patch_19">
    <path clip-path="url(#p8dce4667f0)" d="M 249.667981 173.49195 
L 263.876462 173.49195 
L 263.876462 137.716309 
L 249.667981 137.716309 
z
" style="fill:#d98b5f;stroke:#ffffff;stroke-linejoin:miter;"/>
   </g>
   <g id="patch_20">
    <path clip-path="url(#p8dce4667f0)" d="M 267.428582 173.49195 
L 281.637063 173.49195 
L 281.637063 101.276658 
L 267.428582 101.276658 
z
" style="fill:#75bf71;stroke:#ffffff;stroke-linejoin:miter;"/>
   </g>
   <g id="patch_21">
    <path clip-path="url(#p8dce4667f0)" d="M 285.189183 173.49195 
L 299.397664 173.49195 
L 299.397664 121.738537 
L 285.189183 121.738537 
z
" style="fill:#c76e6e;stroke:#ffffff;stroke-linejoin:miter;"/>
   </g>
   <g id="patch_22">
    <path clip-path="url(#p8dce4667f0)" d="M 302.949784 173.49195 
L 317.158265 173.49195 
L 317.158265 110.993315 
L 302.949784 110.993315 
z
" style="fill:#9475ab;stroke:#ffffff;stroke-linejoin:miter;"/>
   </g>
   <g id="patch_23">
    <path clip-path="url(#p8dce4667f0)" d="M 320.710385 173.49195 
L 334.918866 173.49195 
L 334.918866 142.346227 
L 320.710385 142.346227 
z
" style="fill:#826246;stroke:#ffffff;stroke-linejoin:miter;"/>
   </g>
   <g id="patch_24">
    <path clip-path="url(#p8dce4667f0)" d="M 338.470986 173.49195 
L 352.679467 173.49195 
L 352.679467 171.284893 
L 338.470986 171.284893 
z
" style="fill:#d08abb;stroke:#ffffff;stroke-linejoin:miter;"/>
   </g>
   <g id="patch_25">
    <path clip-path="url(#p8dce4667f0)" d="M 356.231587 173.49195 
L 370.440068 173.49195 
L 370.440068 149.589857 
L 356.231587 149.589857 
z
" style="fill:#797979;stroke:#ffffff;stroke-linejoin:miter;"/>
   </g>
   <g id="patch_26">
    <path clip-path="url(#p8dce4667f0)" d="M 373.992188 173.49195 
L 388.200668 173.49195 
L 388.200668 133.20677 
L 373.992188 133.20677 
z
" style="fill:#c7b475;stroke:#ffffff;stroke-linejoin:miter;"/>
   </g>
   <g id="patch_27">
    <path clip-path="url(#p8dce4667f0)" d="M 391.752789 173.49195 
L 405.961269 173.49195 
L 405.961269 153.074318 
L 391.752789 153.074318 
z
" style="fill:#8ec1d6;stroke:#ffffff;stroke-linejoin:miter;"/>
   </g>
   <g id="line2d_29">
    <path clip-path="url(#p8dce4667f0)" d="M 0 0 
" style="fill:none;stroke:#424242;stroke-linecap:round;stroke-width:2.7;"/>
   </g>
   <g id="line2d_30">
    <path clip-path="url(#p8dce4667f0)" d="M 0 0 
" style="fill:none;stroke:#424242;stroke-linecap:round;stroke-width:2.7;"/>
   </g>
   <g id="line2d_31">
    <path clip-path="url(#p8dce4667f0)" d="M 274.532822 104.969571 
L 274.532822 99.411038 
" style="fill:none;stroke:#424242;stroke-linecap:round;stroke-width:2.7;"/>
   </g>
   <g id="line2d_32">
    <path clip-path="url(#p8dce4667f0)" d="M 292.293423 125.023206 
L 292.293423 119.199687 
" style="fill:none;stroke:#424242;stroke-linecap:round;stroke-width:2.7;"/>
   </g>
   <g id="line2d_33">
    <path clip-path="url(#p8dce4667f0)" d="M 310.054024 112.875319 
L 310.054024 108.698755 
" style="fill:none;stroke:#424242;stroke-linecap:round;stroke-width:2.7;"/>
   </g>
   <g id="line2d_34">
    <path clip-path="url(#p8dce4667f0)" d="M 327.814625 143.039833 
L 327.814625 141.73001 
" style="fill:none;stroke:#424242;stroke-linecap:round;stroke-width:2.7;"/>
   </g>
   <g id="line2d_35">
    <path clip-path="url(#p8dce4667f0)" d="M 345.575226 173.49195 
L 345.575226 168.064524 
" style="fill:none;stroke:#424242;stroke-linecap:round;stroke-width:2.7;"/>
   </g>
   <g id="line2d_36">
    <path clip-path="url(#p8dce4667f0)" d="M 363.335827 151.515016 
L 363.335827 147.529327 
" style="fill:none;stroke:#424242;stroke-linecap:round;stroke-width:2.7;"/>
   </g>
   <g id="line2d_37">
    <path clip-path="url(#p8dce4667f0)" d="M 381.096428 134.62214 
L 381.096428 130.487416 
" style="fill:none;stroke:#424242;stroke-linecap:round;stroke-width:2.7;"/>
   </g>
   <g id="line2d_38">
    <path clip-path="url(#p8dce4667f0)" d="M 398.857029 154.599846 
L 398.857029 151.322092 
" style="fill:none;stroke:#424242;stroke-linecap:round;stroke-width:2.7;"/>
   </g>
   <g id="patch_28">
    <path d="M 230.13132 173.49195 
L 230.13132 25.766376 
" style="fill:none;stroke:#262626;stroke-linecap:square;stroke-linejoin:miter;stroke-width:0.8;"/>
   </g>
   <g id="patch_29">
    <path d="M 407.737329 173.49195 
L 407.737329 25.766376 
" style="fill:none;stroke:#262626;stroke-linecap:square;stroke-linejoin:miter;stroke-width:0.8;"/>
   </g>
   <g id="patch_30">
    <path d="M 230.13132 173.49195 
L 407.737329 173.49195 
" style="fill:none;stroke:#262626;stroke-linecap:square;stroke-linejoin:miter;stroke-width:0.8;"/>
   </g>
   <g id="patch_31">
    <path d="M 230.13132 25.766376 
L 407.737329 25.766376 
" style="fill:none;stroke:#262626;stroke-linecap:square;stroke-linejoin:miter;stroke-width:0.8;"/>
   </g>
   <g id="text_37">
    <!-- b) relaxed QMMM -->
    <g style="fill:#262626;" transform="translate(270.490797 19.766376)scale(0.12 -0.12)">
     <defs>
      <path d="M 15 69 
L 3.09375 67.890625 
L 3.09375 65.296875 
C 9 65.296875 9.90625 64.703125 9.90625 60.046875 
L 9.90625 -0.203125 
L 11.703125 -0.203125 
L 14.59375 6.953125 
C 17.5 2.203125 21.796875 -1 27.59375 -1 
C 37.59375 -1 47.703125 7.859375 47.703125 21.59375 
C 47.703125 34.515625 38.703125 44 28.59375 44 
C 22.40625 44 18 40.671875 15 36.734375 
z
M 15.203125 31.59375 
C 15.203125 33.40625 15.203125 33.703125 16.59375 35.828125 
C 20.5 41.890625 26.09375 42.390625 28 42.390625 
C 31 42.390625 41.296875 40.78125 41.296875 21.6875 
C 41.296875 1.703125 29.5 0.59375 27.09375 0.59375 
C 24 0.59375 19.5 1.796875 16.296875 7.65625 
C 15.203125 9.578125 15.203125 9.78125 15.203125 11.59375 
z
" id="CMR17-98"/>
      <path d="M 26 23.296875 
C 29 27.1875 32.40625 31.59375 35.203125 34.890625 
C 38.5 38.6875 42.296875 40.296875 46.703125 40.390625 
L 46.703125 43 
C 45 42.890625 41.5 42.796875 39.703125 42.796875 
C 37 42.796875 33.90625 42.796875 31.59375 43 
L 31.59375 40.390625 
C 33 40.1875 33.796875 39.1875 33.796875 37.796875 
C 33.796875 36 32.796875 34.890625 32.296875 34.1875 
L 24.90625 24.796875 
L 16.09375 36.296875 
C 15.203125 37.390625 15.203125 37.59375 15.203125 38.09375 
C 15.203125 39.296875 16.203125 40.296875 17.90625 40.390625 
L 17.90625 43 
C 15.5 42.796875 11.203125 42.796875 8.703125 42.796875 
C 6 42.796875 2.796875 42.796875 0.59375 43 
L 0.59375 40.390625 
C 6 40.390625 7.203125 40 9.59375 37 
L 21.09375 22.09375 
C 21.296875 21.890625 21.796875 21.296875 21.796875 21 
C 21.796875 20.59375 13.09375 9.890625 12 8.5 
C 7.5 3.09375 2.796875 2.6875 0.09375 2.59375 
L 0.09375 0 
C 1.796875 0.09375 5.296875 0.1875 7.09375 0.1875 
C 9.09375 0.1875 13.5 0.1875 15.296875 0 
L 15.296875 2.59375 
C 14.703125 2.6875 13.09375 2.890625 13.09375 5.1875 
C 13.09375 7 13.90625 8.09375 14.796875 9.296875 
L 23.09375 19.5 
L 31.796875 8.1875 
C 32.59375 7.09375 33.796875 5.59375 33.796875 4.890625 
C 33.796875 3.5 32.59375 2.6875 31 2.59375 
L 31 0 
C 33.40625 0.1875 37.703125 0.1875 40.203125 0.1875 
C 42.90625 0.1875 46.09375 0.1875 48.296875 0 
L 48.296875 2.59375 
C 43.296875 2.59375 41.796875 2.796875 39.40625 5.890625 
z
" id="CMR17-120"/>
      <path d="M 47.296875 0.484375 
C 59.203125 5.546875 67.296875 18.546875 67.296875 33.703125 
C 67.296875 54.4375 52.59375 70 36 70 
C 19 70 4.59375 54.234375 4.59375 33.703125 
C 4.59375 13.484375 19 -2 36 -2 
C 38.296875 -2 41.5 -1.703125 45.296875 -0.40625 
C 47 -12.703125 48.09375 -20 56.703125 -20 
C 67.296875 -20 67.796875 -4.328125 67.796875 -1.5 
C 67.796875 -0.5 67.796875 0.1875 67.09375 0.1875 
C 66.59375 0.1875 66.5 -0.5 66.5 -0.703125 
C 65.796875 -10.390625 60.40625 -12.40625 57.203125 -12.40625 
C 51.296875 -12.40625 49.203125 -7.0625 47.296875 0.484375 
z
M 30.59375 0.59375 
C 20.203125 3.859375 12 14.90625 12 33.703125 
C 12 57.78125 25.09375 68.1875 35.90625 68.1875 
C 47.09375 68.1875 59.90625 57.375 59.90625 33.703125 
C 59.90625 16.625 53.203125 7.234375 46.5 2.96875 
C 45 8.03125 42.59375 14 36.09375 14 
C 31.296875 14 28.59375 9.8125 28.59375 6.046875 
C 28.59375 3.765625 29.5 1.875 30.59375 0.59375 
z
M 44.90625 2.078125 
C 40.90625 -0.015625 37.703125 -0.203125 36 -0.203125 
C 31.5 -0.203125 30.203125 3.859375 30.203125 6.046875 
C 30.203125 9.125 32.296875 12.390625 36.09375 12.390625 
C 42.5 12.390625 44.09375 6.734375 44.90625 2.078125 
z
" id="CMR17-81"/>
      <path d="M 20.90625 66.390625 
C 20.296875 67.890625 20.203125 68 18.09375 68 
L 5.296875 68 
L 5.296875 65.390625 
C 12.203125 65.390625 13.296875 65.390625 13.296875 60.90625 
L 13.296875 9.75 
C 13.296875 7.265625 13.296875 2.59375 5.296875 2.59375 
L 5.296875 0 
C 7.59375 0.1875 11.796875 0.1875 14.296875 0.1875 
C 16.796875 0.1875 21 0.1875 23.296875 0 
L 23.296875 2.59375 
C 15.296875 2.59375 15.296875 7.265625 15.296875 9.75 
L 15.296875 64.984375 
L 15.40625 64.984375 
L 38.90625 1.59375 
C 39.296875 0.59375 39.5 0 40.296875 0 
C 41.09375 0 41.296875 0.59375 41.703125 1.59375 
L 65.40625 65.484375 
L 65.5 65.484375 
L 65.5 7.078125 
C 65.5 2.59375 64.40625 2.59375 57.5 2.59375 
L 57.5 0 
C 60.203125 0.1875 65.59375 0.1875 68.5 0.1875 
C 71.40625 0.1875 76.90625 0.1875 79.59375 0 
L 79.59375 2.59375 
C 72.703125 2.59375 71.59375 2.59375 71.59375 7.078125 
L 71.59375 60.90625 
C 71.59375 65.390625 72.703125 65.390625 79.59375 65.390625 
L 79.59375 68 
L 66.90625 68 
C 64.796875 68 64.703125 67.890625 64.09375 66.390625 
L 42.5 8.0625 
z
" id="CMR17-77"/>
     </defs>
     <use transform="scale(0.996264)" xlink:href="#CMR17-98"/>
     <use transform="translate(50.89537 0)scale(0.996264)" xlink:href="#CMR17-41"/>
     <use transform="translate(116.252104 0)scale(0.996264)" xlink:href="#CMR17-114"/>
     <use transform="translate(151.532872 0)scale(0.996264)" xlink:href="#CMR17-101"/>
     <use transform="translate(192.018532 0)scale(0.996264)" xlink:href="#CMR17-108"/>
     <use transform="translate(216.889591 0)scale(0.996264)" xlink:href="#CMR17-97"/>
     <use transform="translate(262.580068 0)scale(0.996264)" xlink:href="#CMR17-120"/>
     <use transform="translate(310.872984 0)scale(0.996264)" xlink:href="#CMR17-101"/>
     <use transform="translate(351.358644 0)scale(0.996264)" xlink:href="#CMR17-100"/>
     <use transform="translate(432.32998 0)scale(0.996264)" xlink:href="#CMR17-81"/>
     <use transform="translate(504.044769 0)scale(0.996264)" xlink:href="#CMR17-77"/>
     <use transform="translate(588.731709 0)scale(0.996264)" xlink:href="#CMR17-77"/>
     <use transform="translate(673.41865 0)scale(0.996264)" xlink:href="#CMR17-77"/>
    </g>
   </g>
  </g>
 </g>
 <defs>
  <clipPath id="pbc68a75f33">
   <rect height="147.725574" width="177.606009" x="41.725311" y="25.766376"/>
  </clipPath>
  <clipPath id="p8dce4667f0">
   <rect height="147.725574" width="177.606009" x="230.13132" y="25.766376"/>
  </clipPath>
 </defs>
</svg>
