<?xml version="1.0" encoding="UTF-8" standalone="no"?>
<!-- Created with matplotlib (https://matplotlib.org/) -->

<svg
   height="131.06207pt"
   version="1.1"
   viewBox="0 0 276.79999 131.06207"
   width="276.79999pt"
   id="svg388"
   sodipodi:docname="hybrid_ergs_.svg"
   inkscape:version="1.1.2 (1:1.1+202202050950+0a00cf5339)"
   inkscape:export-filename="/home/spiller/phd/thesis/results/nitro/prot/hybrid_ergs.png"
   inkscape:export-xdpi="450.81003"
   inkscape:export-ydpi="450.81003"
   xmlns:inkscape="http://www.inkscape.org/namespaces/inkscape"
   xmlns:sodipodi="http://sodipodi.sourceforge.net/DTD/sodipodi-0.dtd"
   xmlns:xlink="http://www.w3.org/1999/xlink"
   xmlns="http://www.w3.org/2000/svg"
   xmlns:svg="http://www.w3.org/2000/svg"
   xmlns:rdf="http://www.w3.org/1999/02/22-rdf-syntax-ns#"
   xmlns:cc="http://creativecommons.org/ns#"
   xmlns:dc="http://purl.org/dc/elements/1.1/">
  <sodipodi:namedview
     id="namedview390"
     pagecolor="#ffffff"
     bordercolor="#666666"
     borderopacity="1.0"
     inkscape:pageshadow="2"
     inkscape:pageopacity="1"
     inkscape:pagecheckerboard="0"
     inkscape:document-units="pt"
     showgrid="false"
     fit-margin-top="5"
     lock-margins="true"
     fit-margin-left="5"
     fit-margin-right="5"
     fit-margin-bottom="5"
     inkscape:zoom="2.3809612"
     inkscape:cx="203.48925"
     inkscape:cy="66.149755"
     inkscape:window-width="1920"
     inkscape:window-height="1016"
     inkscape:window-x="0"
     inkscape:window-y="0"
     inkscape:window-maximized="1"
     inkscape:current-layer="svg388" />
  <metadata
     id="metadata2">
    <rdf:RDF>
      <cc:Work>
        <dc:type
           rdf:resource="http://purl.org/dc/dcmitype/StillImage" />
        <dc:date>2021-12-08T17:42:51.958388</dc:date>
        <dc:format>image/svg+xml</dc:format>
        <dc:creator>
          <cc:Agent>
            <dc:title>Matplotlib v3.3.4, https://matplotlib.org/</dc:title>
          </cc:Agent>
        </dc:creator>
      </cc:Work>
    </rdf:RDF>
  </metadata>
  <defs
     id="defs6">
    <style
       type="text/css"
       id="style4">*{stroke-linecap:butt;stroke-linejoin:round;}</style>
    <style
       type="text/css"
       id="style2457">*{stroke-linecap:butt;stroke-linejoin:round;}</style>
    <path
       d="m 58.203125,34.15625 c 2,5.9375 6,6.140625 7.5,6.234375 V 43 c -2,-0.109375 -4,-0.203125 -6,-0.203125 -1.90625,0 -6.203125,0 -7.90625,0.203125 V 40.390625 C 54.90625,40.1875 56.59375,38.375 56.59375,35.875 c 0,-0.703125 -0.1875,-1.609375 -0.390625,-2.3125 L 46.796875,6.21875 36.59375,35.875 c -0.1875,0.703125 -0.5,1.5 -0.5,1.90625 0,2.609375 3.40625,2.609375 5,2.609375 V 43 c -2.296875,-0.203125 -6.5,-0.203125 -8.890625,-0.203125 -2.5,0 -5.109375,0 -7.40625,0.203125 v -2.609375 c 5.5,0 5.5,-0.203125 7.609375,-6.53125 l -9.203125,-26.9375 -9.90625,29.046875 c -0.5,1.3125 -0.5,1.515625 -0.5,1.8125 0,2.609375 3.40625,2.609375 5,2.609375 V 43 C 15.40625,42.796875 11.203125,42.796875 8.703125,42.796875 6.5,42.796875 3.09375,42.796875 1,43 v -2.609375 c 4.40625,0 5.5,-0.296875 6.59375,-3.625 L 19.90625,0.59375 C 20.296875,-0.703125 20.59375,-1 21.40625,-1 22.09375,-1 22.5,-0.8125 23,0.6875 L 33.296875,31.046875 43.703125,0.6875 c 0.5,-1.5 0.890625,-1.6875 1.59375,-1.6875 0.796875,0 1.109375,0.296875 1.5,1.59375 z"
       id="CMR17-119-7" />
    <path
       d="m 15.09375,40.390625 h 14 V 43 h -14 V 62 H 13.296875 C 13.09375,51.4375 9.59375,42.1875 1.09375,41.984375 v -1.59375 H 9.796875 V 12.15625 c 0,-1.921875 0,-13.15625 11.609375,-13.15625 5.890625,0 9.296875,5.8125 9.296875,13.25 v 5.734375 H 28.90625 V 12.34375 C 28.90625,5.421875 26.203125,0.796875 22,0.796875 c -2.90625,0 -6.90625,2 -6.90625,11.15625 z"
       id="CMR17-116-6" />
    <path
       d="M 20.90625,66.390625 C 20.296875,67.890625 20.203125,68 18.09375,68 H 5.296875 v -2.609375 c 6.90625,0 8,0 8,-4.484375 V 9.75 c 0,-2.484375 0,-7.15625 -8,-7.15625 V 0 c 2.296875,0.1875 6.5,0.1875 9,0.1875 2.5,0 6.703125,0 9,-0.1875 v 2.59375 c -8,0 -8,4.671875 -8,7.15625 v 55.234375 h 0.109375 l 23.5,-63.390625 C 39.296875,0.59375 39.5,0 40.296875,0 c 0.796875,0 1,0.59375 1.40625,1.59375 L 65.40625,65.484375 H 65.5 V 7.078125 C 65.5,2.59375 64.40625,2.59375 57.5,2.59375 V 0 c 2.703125,0.1875 8.09375,0.1875 11,0.1875 2.90625,0 8.40625,0 11.09375,-0.1875 v 2.59375 c -6.890625,0 -8,0 -8,4.484375 V 60.90625 c 0,4.484375 1.109375,4.484375 8,4.484375 V 68 h -12.6875 c -2.109375,0 -2.203125,-0.109375 -2.8125,-1.609375 L 42.5,8.0625 Z"
       id="CMR17-77-3" />
    <path
       d="M 43.09375,21.1875 C 43.09375,34 33.796875,44 22.90625,44 12,44 2.703125,34 2.703125,21.1875 2.703125,8.59375 12,-1 22.90625,-1 c 10.890625,0 20.1875,9.59375 20.1875,22.1875 z M 22.90625,0.796875 c -4.703125,0 -8.703125,2.796875 -11,6.703125 -2.5,4.5 -2.8125,10.09375 -2.8125,14.5 0,4.1875 0.203125,9.390625 2.8125,13.890625 2,3.296875 5.890625,6.5 11,6.5 4.5,0 8.296875,-2.5 10.6875,-6 C 36.703125,31.6875 36.703125,25.09375 36.703125,22 36.703125,18.09375 36.5,12.09375 33.796875,7.296875 31,2.6875 26.703125,0.796875 22.90625,0.796875 Z"
       id="CMR17-111-1" />
    <path
       d="M 54.40625,67.796875 H 5.09375 V 65.1875 c 6.90625,0 8,0 8,-4.515625 V 7.03125 c 0,-4.4375 -1.09375,-4.4375 -8,-4.4375 V 0 c 2.90625,0.1875 8.5,0.1875 11.609375,0.1875 4.09375,0 8.890625,0 13,-0.1875 V 2.59375 H 27.5 c -7.59375,0 -7.796875,0.984375 -7.796875,4.53125 v 25.265625 h 9 c 9.296875,0 10.203125,-3.25 10.203125,-11.546875 h 1.796875 V 46.734375 H 38.90625 C 38.90625,38.296875 38,35 28.703125,35 h -9 v 26.28125 c 0,3.40625 0.203125,3.90625 4.203125,3.90625 H 36.796875 C 51.90625,65.1875 53.59375,58.96875 55,45.625 h 1.796875 z"
       id="CMR17-70-7" />
    <path
       d="M 38.09375,23.484375 C 38.5,23.890625 38.5,24.09375 38.5,25.09375 38.5,35.171875 33.09375,44 21.703125,44 c -10.609375,0 -19,-10.015625 -19,-22.21875 C 2.703125,8.65625 12.203125,-1 22.796875,-1 34,-1 38.40625,9.671875 38.40625,11.796875 38.40625,12.5 37.796875,12.5 37.59375,12.5 c -0.6875,0 -0.796875,-0.203125 -1.1875,-1.421875 C 34.203125,4.21875 28.703125,0.796875 23.5,0.796875 19.203125,0.796875 14.90625,3.21875 12.203125,7.65625 9.09375,12.796875 9.09375,18.75 9.09375,23.484375 Z M 9.203125,25 C 9.90625,39.234375 17.59375,42.390625 21.59375,42.390625 28.40625,42.390625 33,36.0625 33.09375,25 Z"
       id="CMR17-101-5" />
    <path
       d="M 34.90625,35 C 33,35 30.203125,35 30.203125,31.484375 c 0,-2.796875 2.296875,-3.59375 3.59375,-3.59375 0.703125,0 3.609375,0.296875 3.609375,3.796875 0,7 -6.8125,12.3125 -14.5,12.3125 C 12.296875,44 3.296875,34.390625 3.296875,21.546875 3.296875,8.140625 12.703125,-1 22.90625,-1 c 12.390625,0 15.5,11.5625 15.5,12.671875 0,0.40625 -0.109375,0.703125 -0.8125,0.703125 -0.6875,0 -0.796875,-0.09375 -1.1875,-1.40625 C 33.796875,2.8125 28.09375,0.796875 23.796875,0.796875 c -6.390625,0 -14.09375,5.9375 -14.09375,20.84375 C 9.703125,36.84375 17.09375,42.1875 23,42.1875 c 3.90625,0 9.703125,-1.84375 11.90625,-7.1875 z"
       id="CMR17-99-2" />
    <path
       d="m 54.703125,45.4375 c 0,1.890625 -0.109375,1.984375 -2.109375,1.984375 h -2.796875 c -0.09375,0 -0.203125,0.109375 -0.703125,0.796875 C 44.90625,54.390625 39.703125,56 35.90625,56 26.296875,56 17.203125,47.234375 17.203125,34.5 17.203125,21.75 26.40625,13 35.90625,13 42.796875,13 47.5,18.078125 49.296875,21.15625 49.40625,15.59375 54,13 57.90625,13 c 8.296875,0 9.390625,9.546875 9.390625,20.203125 C 67.296875,58.203125 49.90625,70 36,70 19.203125,70 4.59375,54.796875 4.59375,34.5 4.59375,15.484375 17.90625,-1 36.5,-1 c 16.296875,0 30.703125,6.828125 30.703125,7.640625 0,0.5 -0.109375,0.609375 -2.109375,0.609375 -1.6875,0 -1.890625,0 -2.390625,-0.3125 C 59.09375,5.234375 49.40625,0.59375 36.40625,0.59375 c -17.703125,0 -30,16.1875 -30,33.90625 0,18.890625 13.59375,33.890625 29.5,33.890625 7.1875,0 14.296875,-2.921875 20.6875,-9.671875 C 63,51.703125 65.5,42.25 65.5,32.796875 65.5,25.34375 65.296875,14.59375 58.296875,14.59375 c -3.203125,0 -3.59375,4.078125 -3.59375,6.765625 z m -5.296875,-18.5 c 0,-1.890625 0,-2 -1.203125,-4.09375 -3.109375,-5.671875 -7.90625,-8.25 -12.203125,-8.25 -7.40625,0 -13.5,8.859375 -13.5,19.90625 0,11.03125 6.09375,19.890625 13.5,19.890625 4.203125,0 7.40625,-2.390625 9,-3.875 2.40625,-2.296875 4.40625,-5.171875 4.40625,-8.453125 z"
       id="CMR17-64-1" />
    <path
       d="m 59,58.78125 c 0.90625,2.203125 2.5,6.515625 9.203125,6.609375 V 68 c -2.296875,-0.203125 -4.90625,-0.203125 -7.40625,-0.203125 -2.390625,0 -6.5,0 -8.796875,0.203125 v -2.609375 c 5,-0.296875 5.203125,-3.796875 5.203125,-4.40625 0,-1.09375 -0.296875,-1.796875 -0.609375,-2.59375 L 36.90625,7 16.296875,60.984375 c -0.296875,0.703125 -0.5,1.203125 -0.5,1.703125 0,2.703125 4,2.703125 6.109375,2.703125 V 68 C 18.703125,67.796875 14,67.796875 10.703125,67.796875 8.09375,67.796875 3.40625,67.796875 1,68 v -2.609375 c 5.796875,0 6.90625,-0.390625 8.09375,-3.59375 L 32.90625,-0.40625 C 33.40625,-1.8125 33.5,-2 34.59375,-2 c 1.109375,0 1.203125,0.1875 1.703125,1.59375 z"
       id="CMR17-86-7" />
    <path
       d="m 42,31.84375 c 0,6.125 -0.09375,16.578125 -4.296875,24.609375 C 34,63.484375 28.09375,66 22.90625,66 18.09375,66 12,63.78125 8.203125,56.5625 4.203125,49.015625 3.796875,39.671875 3.796875,31.84375 3.796875,26.109375 3.90625,17.375 7,9.734375 11.296875,-0.609375 19,-2 22.90625,-2 27.5,-2 34.5,-0.109375 38.59375,9.4375 41.59375,16.375 42,24.5 42,31.84375 Z m -19.09375,-32.25 C 16.5,-0.40625 12.703125,5.125 11.296875,12.75 c -1.09375,5.9375 -1.09375,14.578125 -1.09375,20.203125 0,7.734375 0,14.15625 1.296875,20.28125 1.90625,8.546875 7.5,11.15625 11.40625,11.15625 4.09375,0 9.390625,-2.71875 11.296875,-10.953125 C 35.5,47.71875 35.59375,40.984375 35.59375,32.953125 c 0,-6.53125 0,-14.578125 -1.1875,-20.5 -2.109375,-10.953125 -8,-12.859375 -11.5,-12.859375 z"
       id="CMR17-48-7" />
    <path
       d="M 41.703125,15.46875 H 39.90625 c -1,-7.078125 -1.8125,-8.28125 -2.203125,-8.875 C 37.203125,5.796875 30,5.796875 28.59375,5.796875 H 9.40625 C 13,9.6875 20,16.765625 28.5,24.9375 34.59375,30.71875 41.703125,37.5 41.703125,47.390625 41.703125,59.1875 32.296875,66 21.796875,66 c -11,0 -17.703125,-9.703125 -17.703125,-18.703125 0,-3.90625 2.90625,-4.40625 4.109375,-4.40625 1,0 4,0.59375 4,4.09375 C 12.203125,50.09375 9.59375,51 8.203125,51 7.59375,51 7,50.890625 6.59375,50.6875 c 1.90625,8.5 7.703125,12.703125 13.8125,12.703125 8.6875,0 14.390625,-6.890625 14.390625,-16 0,-8.6875 -5.09375,-16.171875 -10.796875,-22.65625 L 4.09375,2.296875 V 0 h 35.203125 z"
       id="CMR17-50-8" />
    <path
       d="M 33.59375,64.796875 C 33.59375,66.890625 33.5,67 31.703125,67 L 2,19.59375 V 17 H 27.796875 V 7.1875 c 0,-3.59375 -0.203125,-4.59375 -7.203125,-4.59375 H 18.703125 V 0 c 3.203125,0.1875 8.59375,0.1875 12,0.1875 3.390625,0 8.796875,0 12,-0.1875 v 2.59375 h -1.90625 c -7,0 -7.203125,1 -7.203125,4.59375 V 17 h 10.203125 v 2.59375 H 33.59375 Z m -5.5,-6.625 V 19.59375 H 4 Z"
       id="CMR17-52-9" />
    <path
       d="M 10.59375,34.34375 C 10.59375,58 21.796875,63.6875 28.296875,63.6875 30.40625,63.6875 35.5,63.265625 37.5,59.09375 c -1.59375,0 -4.59375,0 -4.59375,-3.5 C 32.90625,52.890625 35.09375,52 36.5,52 c 0.90625,0 3.59375,0.390625 3.59375,3.796875 0,6.5 -5,10.203125 -11.890625,10.203125 C 16.296875,66 3.796875,53.296875 3.796875,31.421875 3.796875,4.015625 15.09375,-2 23.09375,-2 32.796875,-2 42,6.734375 42,20.234375 42,32.828125 33.90625,42 23.703125,42 17.59375,42 13.09375,37.96875 10.59375,30.921875 Z m 12.5,-33.953125 c -12.296875,0 -12.296875,18.546875 -12.296875,22.265625 0,7.25 3.40625,17.734375 12.703125,17.734375 1.703125,0 6.59375,0 9.90625,-6.953125 1.796875,-3.921875 1.796875,-8.0625 1.796875,-13.09375 0,-5.4375 0,-9.46875 -2.109375,-13.5 -2.1875,-4.140625 -5.390625,-6.453125 -10,-6.453125 z"
       id="CMR17-54-3" />
    <path
       d="M 40.59375,69.296875 C 39.796875,71 39.40625,71 38.59375,71 c -1.1875,0 -1.296875,-0.203125 -2,-1.609375 L 4.203125,1.6875 C 4.09375,1.5 3.703125,0.59375 3.703125,0.5 3.703125,0.09375 3.796875,0 5.59375,0 H 71.5 c 1.796875,0 1.90625,0.09375 1.90625,0.5 0,0.09375 -0.40625,1 -0.5,1.1875 z M 36.09375,63.375 63.796875,5.59375 h -55.5 z"
       id="CMR17-1-8" />
    <path
       d="m 69.5,23.265625 c 0.09375,0.296875 0.40625,1 0.40625,1.390625 0,0.515625 -0.40625,1.015625 -1,1.015625 C 68.5,25.671875 68.296875,25.5625 68,25.265625 67.796875,25.171875 67.796875,24.96875 66.90625,22.953125 61,8.90625 56.703125,2.890625 40.703125,2.890625 H 26.09375 c -1.390625,0 -1.59375,0 -2.1875,0.109375 -1.109375,0.09375 -1.203125,0.296875 -1.203125,1.09375 0,0.703125 0.203125,1.3125 0.390625,2.203125 L 30,34 h 9.90625 c 7.796875,0 8.390625,-1.71875 8.390625,-4.71875 0,-1 0,-1.90625 -0.703125,-4.921875 -0.1875,-0.390625 -0.296875,-0.796875 -0.296875,-1.09375 0,-0.703125 0.5,-1.015625 1.109375,-1.015625 0.890625,0 1,0.703125 1.390625,2.109375 L 55.5,47.4375 c 0,0.5 -0.40625,0.984375 -1,0.984375 -0.90625,0 -1,-0.390625 -1.40625,-1.765625 -2,-7.59375 -4,-9.765625 -12.890625,-9.765625 h -9.5 l 6.203125,24.25 c 0.890625,3.453125 1.09375,3.75 5.1875,3.75 h 14.3125 c 12.296875,0 14.796875,-3.25 14.796875,-10.75 0,-0.09375 0,-2.859375 -0.40625,-6.109375 -0.09375,-0.390625 -0.203125,-0.984375 -0.203125,-1.1875 0,-0.78125 0.5,-1.078125 1.109375,-1.078125 0.703125,0 1.09375,0.390625 1.296875,2.171875 l 2.09375,17.25 c 0,0.296875 0.203125,1.296875 0.203125,1.5 0,1.109375 -0.890625,1.109375 -2.703125,1.109375 H 23.796875 c -1.890625,0 -2.890625,0 -2.890625,-1.8125 0,-1.09375 0.6875,-1.09375 2.390625,-1.09375 6.203125,0 6.203125,-0.6875 6.203125,-1.78125 0,-0.484375 -0.09375,-0.875 -0.40625,-1.96875 L 15.59375,7.40625 C 14.703125,3.890625 14.5,2.890625 7.5,2.890625 c -1.90625,0 -2.90625,0 -2.90625,-1.796875 C 4.59375,0 5.203125,0 7.203125,0 H 57.40625 c 2.1875,0 2.296875,0.09375 3,1.6875 z"
       id="CMMI12-69-6" />
    <path
       d="m 15,23.703125 c 0,9.640625 4.09375,18.6875 11.59375,18.6875 0.703125,0 1.40625,-0.09375 2.109375,-0.40625 0,0 -2.203125,-0.703125 -2.203125,-3.3125 0,-2.40625 1.90625,-3.40625 3.40625,-3.40625 1.1875,0 3.390625,0.703125 3.390625,3.515625 0,3.203125 -3.203125,5.21875 -6.59375,5.21875 -7.609375,0 -10.90625,-7.4375 -11.90625,-10.953125 h -0.09375 V 44 L 3.09375,42.890625 V 40.28125 c 5.90625,0 6.8125,-0.59375 6.8125,-5.421875 V 6.921875 C 9.90625,3.09375 9.5,2.59375 3.09375,2.59375 V 0 c 2.40625,0.1875 7,0.1875 9.609375,0.1875 2.890625,0 8,0 10.703125,-0.1875 v 2.59375 c -7.203125,0 -8.40625,0 -8.40625,4.515625 z"
       id="CMR17-114-0" />
    <path
       d="M 15.296875,69 3.40625,67.890625 v -2.59375 c 5.890625,0 6.796875,-0.59375 6.796875,-5.375 V 6.859375 C 10.203125,3.09375 9.796875,2.59375 3.40625,2.59375 V 0 c 2.390625,0.1875 6.796875,0.1875 9.296875,0.1875 2.59375,0 7,0 9.390625,-0.1875 v 2.59375 c -6.390625,0 -6.796875,0.390625 -6.796875,4.265625 z"
       id="CMR17-108-4" />
    <path
       d="m 23.5,-25 v 3.5 H 14.09375 V 71.484375 H 23.5 V 75 H 10.59375 V -25 Z"
       id="CMR17-91-8" />
    <path
       d="M 26.09375,26.234375 C 26,26.4375 25.5,27.03125 25.5,27.328125 c 0,0.203125 7.09375,6.65625 8,7.453125 5.703125,4.78125 9.296875,5.265625 11.90625,5.375 v 2.578125 c -0.609375,0 -0.8125,0 -0.90625,-0.09375 L 39.59375,42.53125 c -2.796875,0 -7.09375,0 -9.796875,0.203125 V 40.15625 c 1.40625,-0.109375 2.40625,-0.890625 2.40625,-2.296875 0,-1.984375 -2,-3.875 -2.109375,-3.875 L 15,20.28125 V 69 L 3.09375,67.890625 v -2.59375 c 5.90625,0 6.8125,-0.59375 6.8125,-5.375 V 6.859375 C 9.90625,3.09375 9.5,2.59375 3.09375,2.59375 V 0 c 2.40625,0.1875 6.8125,0.1875 9.3125,0.1875 2.5,0 6.890625,0 9.296875,-0.1875 v 2.59375 c -6.40625,0 -6.796875,0.390625 -6.796875,4.265625 v 10.9375 L 21.796875,24.0625 31.90625,9.15625 c 1.1875,-1.796875 2.1875,-3.1875 2.1875,-4.484375 0,-1.78125 -1.796875,-2.078125 -3,-2.078125 V 0 C 33.5,0.1875 37.796875,0.1875 40.296875,0.1875 42.09375,0.1875 45.796875,0.09375 47.5,0 v 2.59375 c -4.703125,0 -5.796875,0.890625 -8.796875,5.265625 z"
       id="CMR17-107-8" />
    <path
       d="M 36,25.875 C 36,32 36,35.546875 31.796875,39.59375 28.09375,42.984375 23.796875,44 20.40625,44 12.5,44 6.796875,37.625 6.796875,30.890625 6.796875,27.1875 9.796875,27 10.40625,27 11.703125,27 14,27.796875 14,30.59375 c 0,2.5 -1.90625,3.59375 -3.59375,3.59375 C 10,34.1875 9.5,34.09375 9.203125,34 c 2.09375,6.53125 7.5,8.390625 11,8.390625 5,0 10.5,-4.5625 10.5,-13.09375 V 25.5 c -5.90625,-0.203125 -13,-1 -18.609375,-4.046875 C 5.796875,17.921875 4,12.84375 4,9 4,1.203125 13,-1 18.296875,-1 c 5.5,0 10.609375,3.109375 12.796875,8.890625 0.203125,-4.46875 3,-8.5 7.40625,-8.5 2.09375,0 7.40625,1.40625 7.40625,9.40625 v 5.671875 h -1.8125 V 8.703125 c 0,-6.1875 -2.6875,-7 -4,-7 C 36,1.703125 36,6.96875 36,11.4375 Z M 30.703125,13.859375 C 30.703125,5.046875 24.5,0.59375 19,0.59375 c -5,0 -8.90625,3.75 -8.90625,8.40625 0,3.046875 1.3125,8.40625 7.109375,11.65625 C 22,23.390625 27.5,23.796875 30.703125,24 Z"
       id="CMR17-97-8" />
    <path
       d="m 42.90625,71.296875 c 0,0.09375 0.59375,1.59375 0.59375,1.796875 0,1.203125 -1,1.90625 -1.796875,1.90625 -0.5,0 -1.40625,0 -2.203125,-2.203125 L 6,-21.3125 c 0,-0.09375 -0.59375,-1.59375 -0.59375,-1.796875 0,-1.203125 1,-1.890625 1.796875,-1.890625 0.59375,0 1.5,0.09375 2.203125,2.1875 z"
       id="CMMI12-61-9" />
    <path
       d="M 67.59375,30.53125 C 67.59375,35.5625 66.703125,44 54.796875,44 48,44 43.296875,39.375 41.5,33.953125 H 41.40625 C 40.203125,42.1875 34.296875,44 28.703125,44 c -7.90625,0 -12,-6.125 -13.5,-10.15625 H 15.09375 V 44 L 3.296875,42.890625 V 40.28125 c 5.90625,0 6.796875,-0.59375 6.796875,-5.421875 V 6.921875 C 10.09375,3.09375 9.703125,2.59375 3.296875,2.59375 V 0 c 2.40625,0.1875 6.796875,0.1875 9.40625,0.1875 2.59375,0 7.09375,0 9.5,-0.1875 V 2.59375 C 15.796875,2.59375 15.40625,3 15.40625,6.921875 V 26.21875 C 15.40625,35.453125 21,42.390625 28,42.390625 c 7.40625,0 8.203125,-6.625 8.203125,-11.453125 V 6.921875 c 0,-3.828125 -0.40625,-4.328125 -6.796875,-4.328125 V 0 c 2.390625,0.1875 6.796875,0.1875 9.390625,0.1875 2.609375,0 7.109375,0 9.5,-0.1875 V 2.59375 C 41.90625,2.59375 41.5,3 41.5,6.921875 V 26.21875 c 0,9.234375 5.59375,16.171875 12.59375,16.171875 7.40625,0 8.203125,-6.625 8.203125,-11.453125 V 6.921875 C 62.296875,3.09375 61.90625,2.59375 55.5,2.59375 V 0 c 2.40625,0.1875 6.796875,0.1875 9.40625,0.1875 2.59375,0 7.09375,0 9.5,-0.1875 V 2.59375 C 68,2.59375 67.59375,3 67.59375,6.921875 Z"
       id="CMR17-109-7" />
    <path
       d="M 14.296875,75 H 1.40625 v -3.515625 h 9.390625 V -21.5 H 1.40625 V -25 h 12.890625 z"
       id="CMR17-93-7" />
    <path
       d="m 5.203125,68 v -2.609375 c 6.890625,0 8,0 8,-4.5 V 7.046875 c 0,-4.453125 -1.109375,-4.453125 -8,-4.453125 V 0 H 39.59375 c 12.8125,0 21.109375,9.03125 21.109375,18.046875 0,8.921875 -8.203125,16.546875 -18.90625,17.25 C 51.40625,37.1875 58.09375,43.59375 58.09375,51.1875 58.09375,59.5 49.90625,68 37,68 Z M 19.5,36 v 25.5 c 0,3.390625 0.203125,3.890625 4.203125,3.890625 H 36.5 c 9.90625,0 14.296875,-8 14.296875,-14.203125 C 50.796875,43.59375 44.703125,36 33.90625,36 Z M 23.703125,2.59375 c -4,0 -4.203125,0.5 -4.203125,3.859375 v 27.9375 H 38 c 10.296875,0 15.296875,-9.015625 15.296875,-16.25 0,-7.234375 -5.703125,-15.546875 -16.59375,-15.546875 z"
       id="CMR17-66-2" />
    <path
       d="m 43.796875,67.984375 c 0,1.8125 -0.09375,1.90625 -0.703125,1.90625 -0.59375,0 -0.796875,-0.40625 -1.1875,-1.296875 l -3,-6.640625 C 35.09375,67.5 29.296875,70 23,70 12.796875,70 4.59375,61.84375 4.59375,51.578125 c 0,-3.125 0.703125,-7.5625 4.109375,-11.796875 3.703125,-4.625 7.203125,-5.4375 15.203125,-7.546875 3,-0.8125 8,-2.125 9,-2.53125 5.6875,-2.40625 8.6875,-8.453125 8.6875,-14.09375 C 41.59375,8.34375 36.5,0.59375 27.796875,0.59375 17.09375,0.59375 7.09375,6.640625 6.40625,20.75 6.296875,22.359375 6.203125,22.453125 5.5,22.453125 c -0.796875,0 -0.90625,-0.09375 -0.90625,-2.109375 V 0 c 0,-1.8125 0.109375,-1.90625 0.703125,-1.90625 0.703125,0 0.90625,0.5 2.296875,3.609375 0.109375,0.296875 0.109375,0.5 2,4.328125 C 14.59375,-0.609375 23,-2 27.796875,-2 c 10.90625,0 18.609375,9.140625 18.609375,19.828125 0,5.234375 -1.90625,9.265625 -3,11.078125 -4.203125,6.453125 -8.703125,7.65625 -13.5,8.859375 -0.703125,0.3125 -0.90625,0.3125 -6.5,1.71875 C 18,40.890625 15.703125,41.59375 13.203125,44.3125 10.40625,47.4375 9.40625,50.671875 9.40625,53.890625 c 0,6.546875 5.1875,13.703125 13.6875,13.703125 10.609375,0 17.203125,-7.5625 18.703125,-20.15625 0.296875,-1.8125 0.40625,-1.90625 1.109375,-1.90625 0.890625,0 0.890625,0.296875 0.890625,2.015625 z"
       id="CMR17-83-1" />
    <path
       d="M 45.09375,61.796875 V 64 h -23.5 C 9.90625,64 9.703125,65.09375 9.296875,67 H 7.5 L 4.59375,48.5 h 1.8125 c 0.296875,1.90625 1,7 2.1875,8.890625 0.609375,0.796875 8,0.796875 9.703125,0.796875 h 22 L 29.203125,41.71875 c -7.40625,-11.078125 -12.5,-26.046875 -12.5,-39.125 0,-1.203125 0,-4.59375 3.59375,-4.59375 3.609375,0 3.609375,3.390625 3.609375,4.6875 v 4.59375 c 0,16.375 2.796875,27.15625 7.390625,34.03125 z"
       id="CMR17-55-0" />
    <path
       d="M 25.5,19.59375 V 24 H 0.40625 v -4.40625 z"
       id="CMR17-45-5" />
    <path
       d="M 22.09375,34 C 31,34 34.90625,26.140625 34.90625,17.09375 34.90625,5.03125 28.5,0.390625 22.703125,0.390625 c -5.296875,0 -13.90625,2.625 -16.609375,10.40625 0.5,-0.203125 1,-0.203125 1.5,-0.203125 2.40625,0 4.203125,1.59375 4.203125,4.203125 C 11.796875,17.6875 9.59375,19 7.59375,19 5.90625,19 3.296875,18.1875 3.296875,14.484375 3.296875,5.234375 12.296875,-2 22.90625,-2 34,-2 42.5,6.75 42.5,16.984375 42.5,26.84375 34.5,34 25,35.09375 32.59375,36.671875 39.90625,43.375 39.90625,52.390625 39.90625,60.25 32,66 23,66 13.90625,66 5.90625,60.34375 5.90625,52.296875 c 0,-3.5 2.59375,-4.109375 3.890625,-4.109375 2.109375,0 3.90625,1.296875 3.90625,3.90625 C 13.703125,54.6875 11.90625,56 9.796875,56 9.40625,56 8.90625,56 8.5,55.796875 c 2.90625,6.6875 10.796875,7.890625 14.296875,7.890625 3.5,0 10.109375,-1.71875 10.109375,-11.390625 0,-2.8125 -0.40625,-7.75 -3.8125,-12.078125 -3,-3.828125 -6.390625,-4.03125 -9.6875,-4.328125 -0.5,0 -2.8125,-0.203125 -3.203125,-0.203125 C 15.5,35.59375 15.09375,35.5 15.09375,34.796875 15.09375,34.09375 15.203125,34 17.203125,34 Z"
       id="CMR17-51-1" />
    <path
       d="m 11.40625,58.59375 c 1,-0.40625 5.09375,-1.703125 9.296875,-1.703125 9.296875,0 14.390625,5 17.296875,7.796875 C 38,65.484375 38,66 37.40625,66 c -0.109375,0 -0.3125,0 -1.109375,-0.40625 -3.5,-1.5 -7.59375,-2.59375 -12.59375,-2.59375 -3,0 -7.5,0.359375 -12.40625,2.484375 C 10.203125,66 10,66 9.90625,66 9.40625,66 9.296875,65.890625 9.296875,63.90625 V 34.859375 c 0,-1.84375 0,-2.359375 1,-2.359375 0.5,0 0.703125,0.203125 1.203125,0.921875 C 14.703125,38.046875 19.09375,40 24.09375,40 c 3.5,0 11,-2.265625 11,-19.796875 0,-3.21875 0,-9.015625 -3,-13.609375 -2.5,-4.109375 -6.390625,-6.203125 -10.6875,-6.203125 -6.609375,0 -13.3125,4.59375 -15.109375,12.296875 C 6.703125,12.59375 7.5,12.390625 7.90625,12.390625 c 1.296875,0 3.796875,0.703125 3.796875,3.796875 C 11.703125,18.890625 9.796875,20 7.90625,20 5.59375,20 4.09375,18.59375 4.09375,15.796875 4.09375,7.09375 11,-2 21.59375,-2 c 10.3125,0 20.109375,8.890625 20.109375,21.796875 0,12.296875 -7.796875,21.796875 -17.5,21.796875 -5.109375,0 -9.40625,-1.90625 -12.796875,-5.59375 z"
       id="CMR17-53-1" />
    <clipPath
       id="pc2ce783c05">
      <rect
         height="96.304947"
         width="240.45602"
         x="36.743977"
         y="10.8"
         id="rect2817" />
    </clipPath>
  </defs>
  <defs
     id="defs386">
    <clipPath
       id="p28996392bb">
      <rect
         height="95.925804"
         width="240.45602"
         x="36.743977"
         y="11.179143"
         id="rect383" />
    </clipPath>
  </defs>
  <g
     id="axes_1-0"
     transform="translate(-5.8,-5.4)">
    <g
       id="patch_2-4">
      <path
         d="M 36.743975,107.10495 H 277.2 V 10.8 H 36.743975 Z"
         style="fill:#ffffff"
         id="path2464" />
    </g>
    <g
       id="matplotlib.axis_1-4">
      <g
         id="xtick_1-4">
        <g
           id="text_1-4">
          <!-- wt MoFe -->
          <g
             style="fill:#262626"
             transform="matrix(0.1,0,0,-0.1,47.498333,121.02344)"
             id="g2487">
            <defs
               id="defs2473">
              <path
                 d="m 58.203125,34.15625 c 2,5.9375 6,6.140625 7.5,6.234375 V 43 c -2,-0.109375 -4,-0.203125 -6,-0.203125 -1.90625,0 -6.203125,0 -7.90625,0.203125 V 40.390625 C 54.90625,40.1875 56.59375,38.375 56.59375,35.875 c 0,-0.703125 -0.1875,-1.609375 -0.390625,-2.3125 L 46.796875,6.21875 36.59375,35.875 c -0.1875,0.703125 -0.5,1.5 -0.5,1.90625 0,2.609375 3.40625,2.609375 5,2.609375 V 43 c -2.296875,-0.203125 -6.5,-0.203125 -8.890625,-0.203125 -2.5,0 -5.109375,0 -7.40625,0.203125 v -2.609375 c 5.5,0 5.5,-0.203125 7.609375,-6.53125 l -9.203125,-26.9375 -9.90625,29.046875 c -0.5,1.3125 -0.5,1.515625 -0.5,1.8125 0,2.609375 3.40625,2.609375 5,2.609375 V 43 C 15.40625,42.796875 11.203125,42.796875 8.703125,42.796875 6.5,42.796875 3.09375,42.796875 1,43 v -2.609375 c 4.40625,0 5.5,-0.296875 6.59375,-3.625 L 19.90625,0.59375 C 20.296875,-0.703125 20.59375,-1 21.40625,-1 22.09375,-1 22.5,-0.8125 23,0.6875 L 33.296875,31.046875 43.703125,0.6875 c 0.5,-1.5 0.890625,-1.6875 1.59375,-1.6875 0.796875,0 1.109375,0.296875 1.5,1.59375 z"
                 id="path2862" />
              <path
                 d="m 15.09375,40.390625 h 14 V 43 h -14 V 62 H 13.296875 C 13.09375,51.4375 9.59375,42.1875 1.09375,41.984375 v -1.59375 H 9.796875 V 12.15625 c 0,-1.921875 0,-13.15625 11.609375,-13.15625 5.890625,0 9.296875,5.8125 9.296875,13.25 v 5.734375 H 28.90625 V 12.34375 C 28.90625,5.421875 26.203125,0.796875 22,0.796875 c -2.90625,0 -6.90625,2 -6.90625,11.15625 z"
                 id="path2864" />
              <path
                 d="M 20.90625,66.390625 C 20.296875,67.890625 20.203125,68 18.09375,68 H 5.296875 v -2.609375 c 6.90625,0 8,0 8,-4.484375 V 9.75 c 0,-2.484375 0,-7.15625 -8,-7.15625 V 0 c 2.296875,0.1875 6.5,0.1875 9,0.1875 2.5,0 6.703125,0 9,-0.1875 v 2.59375 c -8,0 -8,4.671875 -8,7.15625 v 55.234375 h 0.109375 l 23.5,-63.390625 C 39.296875,0.59375 39.5,0 40.296875,0 c 0.796875,0 1,0.59375 1.40625,1.59375 L 65.40625,65.484375 H 65.5 V 7.078125 C 65.5,2.59375 64.40625,2.59375 57.5,2.59375 V 0 c 2.703125,0.1875 8.09375,0.1875 11,0.1875 2.90625,0 8.40625,0 11.09375,-0.1875 v 2.59375 c -6.890625,0 -8,0 -8,4.484375 V 60.90625 c 0,4.484375 1.109375,4.484375 8,4.484375 V 68 h -12.6875 c -2.109375,0 -2.203125,-0.109375 -2.8125,-1.609375 L 42.5,8.0625 Z"
                 id="path2866" />
              <path
                 d="M 43.09375,21.1875 C 43.09375,34 33.796875,44 22.90625,44 12,44 2.703125,34 2.703125,21.1875 2.703125,8.59375 12,-1 22.90625,-1 c 10.890625,0 20.1875,9.59375 20.1875,22.1875 z M 22.90625,0.796875 c -4.703125,0 -8.703125,2.796875 -11,6.703125 -2.5,4.5 -2.8125,10.09375 -2.8125,14.5 0,4.1875 0.203125,9.390625 2.8125,13.890625 2,3.296875 5.890625,6.5 11,6.5 4.5,0 8.296875,-2.5 10.6875,-6 C 36.703125,31.6875 36.703125,25.09375 36.703125,22 36.703125,18.09375 36.5,12.09375 33.796875,7.296875 31,2.6875 26.703125,0.796875 22.90625,0.796875 Z"
                 id="path2868" />
              <path
                 d="M 54.40625,67.796875 H 5.09375 V 65.1875 c 6.90625,0 8,0 8,-4.515625 V 7.03125 c 0,-4.4375 -1.09375,-4.4375 -8,-4.4375 V 0 c 2.90625,0.1875 8.5,0.1875 11.609375,0.1875 4.09375,0 8.890625,0 13,-0.1875 V 2.59375 H 27.5 c -7.59375,0 -7.796875,0.984375 -7.796875,4.53125 v 25.265625 h 9 c 9.296875,0 10.203125,-3.25 10.203125,-11.546875 h 1.796875 V 46.734375 H 38.90625 C 38.90625,38.296875 38,35 28.703125,35 h -9 v 26.28125 c 0,3.40625 0.203125,3.90625 4.203125,3.90625 H 36.796875 C 51.90625,65.1875 53.59375,58.96875 55,45.625 h 1.796875 z"
                 id="path2870" />
              <path
                 d="M 38.09375,23.484375 C 38.5,23.890625 38.5,24.09375 38.5,25.09375 38.5,35.171875 33.09375,44 21.703125,44 c -10.609375,0 -19,-10.015625 -19,-22.21875 C 2.703125,8.65625 12.203125,-1 22.796875,-1 34,-1 38.40625,9.671875 38.40625,11.796875 38.40625,12.5 37.796875,12.5 37.59375,12.5 c -0.6875,0 -0.796875,-0.203125 -1.1875,-1.421875 C 34.203125,4.21875 28.703125,0.796875 23.5,0.796875 19.203125,0.796875 14.90625,3.21875 12.203125,7.65625 9.09375,12.796875 9.09375,18.75 9.09375,23.484375 Z M 9.203125,25 C 9.90625,39.234375 17.59375,42.390625 21.59375,42.390625 28.40625,42.390625 33,36.0625 33.09375,25 Z"
                 id="path2872" />
            </defs>
            <use
               transform="scale(0.996264)"
               xlink:href="#CMR17-119-7"
               id="use2475"
               x="0"
               y="0"
               width="100%"
               height="100%" />
            <use
               transform="matrix(0.996264,0,0,0.996264,66.509881,0)"
               xlink:href="#CMR17-116-6"
               id="use2477"
               x="0"
               y="0"
               width="100%"
               height="100%" />
            <use
               transform="matrix(0.996264,0,0,0.996264,131.86661,0)"
               xlink:href="#CMR17-77-3"
               id="use2479"
               x="0"
               y="0"
               width="100%"
               height="100%" />
            <use
               transform="matrix(0.996264,0,0,0.996264,216.55355,0)"
               xlink:href="#CMR17-111-1"
               id="use2481"
               x="0"
               y="0"
               width="100%"
               height="100%" />
            <use
               transform="matrix(0.996264,0,0,0.996264,262.24403,0)"
               xlink:href="#CMR17-70-7"
               id="use2483"
               x="0"
               y="0"
               width="100%"
               height="100%" />
            <use
               transform="matrix(0.996264,0,0,0.996264,314.42062,0)"
               xlink:href="#CMR17-101-5"
               id="use2485"
               x="0"
               y="0"
               width="100%"
               height="100%" />
          </g>
        </g>
      </g>
      <g
         id="xtick_2-9">
        <g
           id="text_2-6">
          <!-- FeMoco -->
          <g
             style="fill:#262626"
             transform="matrix(0.1,0,0,-0.1,109.96462,121.02344)"
             id="g2506">
            <defs
               id="defs2492">
              <path
                 d="M 34.90625,35 C 33,35 30.203125,35 30.203125,31.484375 c 0,-2.796875 2.296875,-3.59375 3.59375,-3.59375 0.703125,0 3.609375,0.296875 3.609375,3.796875 0,7 -6.8125,12.3125 -14.5,12.3125 C 12.296875,44 3.296875,34.390625 3.296875,21.546875 3.296875,8.140625 12.703125,-1 22.90625,-1 c 12.390625,0 15.5,11.5625 15.5,12.671875 0,0.40625 -0.109375,0.703125 -0.8125,0.703125 -0.6875,0 -0.796875,-0.09375 -1.1875,-1.40625 C 33.796875,2.8125 28.09375,0.796875 23.796875,0.796875 c -6.390625,0 -14.09375,5.9375 -14.09375,20.84375 C 9.703125,36.84375 17.09375,42.1875 23,42.1875 c 3.90625,0 9.703125,-1.84375 11.90625,-7.1875 z"
                 id="path2884" />
            </defs>
            <use
               transform="scale(0.996264)"
               xlink:href="#CMR17-70-7"
               id="use2494"
               x="0"
               y="0"
               width="100%"
               height="100%" />
            <use
               transform="matrix(0.996264,0,0,0.996264,52.176591,0)"
               xlink:href="#CMR17-101-5"
               id="use2496"
               x="0"
               y="0"
               width="100%"
               height="100%" />
            <use
               transform="matrix(0.996264,0,0,0.996264,92.662252,0)"
               xlink:href="#CMR17-77-3"
               id="use2498"
               x="0"
               y="0"
               width="100%"
               height="100%" />
            <use
               transform="matrix(0.996264,0,0,0.996264,177.34919,0)"
               xlink:href="#CMR17-111-1"
               id="use2500"
               x="0"
               y="0"
               width="100%"
               height="100%" />
            <use
               transform="matrix(0.996264,0,0,0.996264,225.64211,0)"
               xlink:href="#CMR17-99-2"
               id="use2502"
               x="0"
               y="0"
               width="100%"
               height="100%" />
            <use
               transform="matrix(0.996264,0,0,0.996264,266.12777,0)"
               xlink:href="#CMR17-111-1"
               id="use2504"
               x="0"
               y="0"
               width="100%"
               height="100%" />
          </g>
          <!-- @VFe -->
          <g
             style="fill:#262626"
             transform="matrix(0.1,0,0,-0.1,114.2541,131.26282)"
             id="g2520">
            <defs
               id="defs2510">
              <path
                 d="m 54.703125,45.4375 c 0,1.890625 -0.109375,1.984375 -2.109375,1.984375 h -2.796875 c -0.09375,0 -0.203125,0.109375 -0.703125,0.796875 C 44.90625,54.390625 39.703125,56 35.90625,56 26.296875,56 17.203125,47.234375 17.203125,34.5 17.203125,21.75 26.40625,13 35.90625,13 42.796875,13 47.5,18.078125 49.296875,21.15625 49.40625,15.59375 54,13 57.90625,13 c 8.296875,0 9.390625,9.546875 9.390625,20.203125 C 67.296875,58.203125 49.90625,70 36,70 19.203125,70 4.59375,54.796875 4.59375,34.5 4.59375,15.484375 17.90625,-1 36.5,-1 c 16.296875,0 30.703125,6.828125 30.703125,7.640625 0,0.5 -0.109375,0.609375 -2.109375,0.609375 -1.6875,0 -1.890625,0 -2.390625,-0.3125 C 59.09375,5.234375 49.40625,0.59375 36.40625,0.59375 c -17.703125,0 -30,16.1875 -30,33.90625 0,18.890625 13.59375,33.890625 29.5,33.890625 7.1875,0 14.296875,-2.921875 20.6875,-9.671875 C 63,51.703125 65.5,42.25 65.5,32.796875 65.5,25.34375 65.296875,14.59375 58.296875,14.59375 c -3.203125,0 -3.59375,4.078125 -3.59375,6.765625 z m -5.296875,-18.5 c 0,-1.890625 0,-2 -1.203125,-4.09375 -3.109375,-5.671875 -7.90625,-8.25 -12.203125,-8.25 -7.40625,0 -13.5,8.859375 -13.5,19.90625 0,11.03125 6.09375,19.890625 13.5,19.890625 4.203125,0 7.40625,-2.390625 9,-3.875 2.40625,-2.296875 4.40625,-5.171875 4.40625,-8.453125 z"
                 id="path2894" />
              <path
                 d="m 59,58.78125 c 0.90625,2.203125 2.5,6.515625 9.203125,6.609375 V 68 c -2.296875,-0.203125 -4.90625,-0.203125 -7.40625,-0.203125 -2.390625,0 -6.5,0 -8.796875,0.203125 v -2.609375 c 5,-0.296875 5.203125,-3.796875 5.203125,-4.40625 0,-1.09375 -0.296875,-1.796875 -0.609375,-2.59375 L 36.90625,7 16.296875,60.984375 c -0.296875,0.703125 -0.5,1.203125 -0.5,1.703125 0,2.703125 4,2.703125 6.109375,2.703125 V 68 C 18.703125,67.796875 14,67.796875 10.703125,67.796875 8.09375,67.796875 3.40625,67.796875 1,68 v -2.609375 c 5.796875,0 6.90625,-0.390625 8.09375,-3.59375 L 32.90625,-0.40625 C 33.40625,-1.8125 33.5,-2 34.59375,-2 c 1.109375,0 1.203125,0.1875 1.703125,1.59375 z"
                 id="path2896" />
            </defs>
            <use
               transform="scale(0.996264)"
               xlink:href="#CMR17-64-1"
               id="use2512"
               x="0"
               y="0"
               width="100%"
               height="100%" />
            <use
               transform="matrix(0.996264,0,0,0.996264,71.714788,0)"
               xlink:href="#CMR17-86-7"
               id="use2514"
               x="0"
               y="0"
               width="100%"
               height="100%" />
            <use
               transform="matrix(0.996264,0,0,0.996264,140.78722,0)"
               xlink:href="#CMR17-70-7"
               id="use2516"
               x="0"
               y="0"
               width="100%"
               height="100%" />
            <use
               transform="matrix(0.996264,0,0,0.996264,192.96381,0)"
               xlink:href="#CMR17-101-5"
               id="use2518"
               x="0"
               y="0"
               width="100%"
               height="100%" />
          </g>
        </g>
      </g>
      <g
         id="xtick_3-8">
        <g
           id="text_3-5">
          <!-- FeVco -->
          <g
             style="fill:#262626"
             transform="matrix(0.1,0,0,-0.1,173.53789,121.02344)"
             id="g2534">
            <use
               transform="scale(0.996264)"
               xlink:href="#CMR17-70-7"
               id="use2524"
               x="0"
               y="0"
               width="100%"
               height="100%" />
            <use
               transform="matrix(0.996264,0,0,0.996264,52.176591,0)"
               xlink:href="#CMR17-101-5"
               id="use2526"
               x="0"
               y="0"
               width="100%"
               height="100%" />
            <use
               transform="matrix(0.996264,0,0,0.996264,92.662252,0)"
               xlink:href="#CMR17-86-7"
               id="use2528"
               x="0"
               y="0"
               width="100%"
               height="100%" />
            <use
               transform="matrix(0.996264,0,0,0.996264,161.73468,0)"
               xlink:href="#CMR17-99-2"
               id="use2530"
               x="0"
               y="0"
               width="100%"
               height="100%" />
            <use
               transform="matrix(0.996264,0,0,0.996264,202.22034,0)"
               xlink:href="#CMR17-111-1"
               id="use2532"
               x="0"
               y="0"
               width="100%"
               height="100%" />
          </g>
          <!-- @MoFe -->
          <g
             style="fill:#262626"
             transform="matrix(0.1,0,0,-0.1,171.04722,131.26282)"
             id="g2546">
            <use
               transform="scale(0.996264)"
               xlink:href="#CMR17-64-1"
               id="use2536"
               x="0"
               y="0"
               width="100%"
               height="100%" />
            <use
               transform="matrix(0.996264,0,0,0.996264,71.714788,0)"
               xlink:href="#CMR17-77-3"
               id="use2538"
               x="0"
               y="0"
               width="100%"
               height="100%" />
            <use
               transform="matrix(0.996264,0,0,0.996264,156.40173,0)"
               xlink:href="#CMR17-111-1"
               id="use2540"
               x="0"
               y="0"
               width="100%"
               height="100%" />
            <use
               transform="matrix(0.996264,0,0,0.996264,202.09221,0)"
               xlink:href="#CMR17-70-7"
               id="use2542"
               x="0"
               y="0"
               width="100%"
               height="100%" />
            <use
               transform="matrix(0.996264,0,0,0.996264,254.2688,0)"
               xlink:href="#CMR17-101-5"
               id="use2544"
               x="0"
               y="0"
               width="100%"
               height="100%" />
          </g>
        </g>
      </g>
      <g
         id="xtick_4-7">
        <g
           id="text_4-4">
          <!-- wt VFe -->
          <g
             style="fill:#262626"
             transform="matrix(0.1,0,0,-0.1,231.16124,121.02344)"
             id="g2560">
            <use
               transform="scale(0.996264)"
               xlink:href="#CMR17-119-7"
               id="use2550"
               x="0"
               y="0"
               width="100%"
               height="100%" />
            <use
               transform="matrix(0.996264,0,0,0.996264,66.509881,0)"
               xlink:href="#CMR17-116-6"
               id="use2552"
               x="0"
               y="0"
               width="100%"
               height="100%" />
            <use
               transform="matrix(0.996264,0,0,0.996264,131.86661,0)"
               xlink:href="#CMR17-86-7"
               id="use2554"
               x="0"
               y="0"
               width="100%"
               height="100%" />
            <use
               transform="matrix(0.996264,0,0,0.996264,200.93904,0)"
               xlink:href="#CMR17-70-7"
               id="use2556"
               x="0"
               y="0"
               width="100%"
               height="100%" />
            <use
               transform="matrix(0.996264,0,0,0.996264,253.11564,0)"
               xlink:href="#CMR17-101-5"
               id="use2558"
               x="0"
               y="0"
               width="100%"
               height="100%" />
          </g>
        </g>
      </g>
    </g>
    <g
       id="matplotlib.axis_2-1">
      <g
         id="ytick_1-8">
        <g
           id="line2d_1-5">
          <path
             clip-path="url(#pc2ce783c05)"
             d="M 36.743975,107.10495 H 277.2"
             style="fill:none;stroke:#cccccc;stroke-width:0.8;stroke-linecap:round"
             id="path2565" />
        </g>
        <g
           id="text_5-9">
          <!-- $\mathdefault{0}$ -->
          <g
             style="fill:#262626"
             transform="matrix(0.1,0,0,-0.1,24.76264,110.5642)"
             id="g2573">
            <defs
               id="defs2569">
              <path
                 d="m 42,31.84375 c 0,6.125 -0.09375,16.578125 -4.296875,24.609375 C 34,63.484375 28.09375,66 22.90625,66 18.09375,66 12,63.78125 8.203125,56.5625 4.203125,49.015625 3.796875,39.671875 3.796875,31.84375 3.796875,26.109375 3.90625,17.375 7,9.734375 11.296875,-0.609375 19,-2 22.90625,-2 27.5,-2 34.5,-0.109375 38.59375,9.4375 41.59375,16.375 42,24.5 42,31.84375 Z m -19.09375,-32.25 C 16.5,-0.40625 12.703125,5.125 11.296875,12.75 c -1.09375,5.9375 -1.09375,14.578125 -1.09375,20.203125 0,7.734375 0,14.15625 1.296875,20.28125 1.90625,8.546875 7.5,11.15625 11.40625,11.15625 4.09375,0 9.390625,-2.71875 11.296875,-10.953125 C 35.5,47.71875 35.59375,40.984375 35.59375,32.953125 c 0,-6.53125 0,-14.578125 -1.1875,-20.5 -2.109375,-10.953125 -8,-12.859375 -11.5,-12.859375 z"
                 id="path2931" />
            </defs>
            <use
               transform="scale(0.996264)"
               xlink:href="#CMR17-48-7"
               id="use2571"
               x="0"
               y="0"
               width="100%"
               height="100%" />
          </g>
        </g>
      </g>
      <g
         id="ytick_2-5">
        <g
           id="line2d_2-3">
          <path
             clip-path="url(#pc2ce783c05)"
             d="M 36.743975,82.940368 H 277.2"
             style="fill:none;stroke:#cccccc;stroke-width:0.8;stroke-linecap:round"
             id="path2577" />
        </g>
        <g
           id="text_6-8">
          <!-- $\mathdefault{2}$ -->
          <g
             style="fill:#262626"
             transform="matrix(0.1,0,0,-0.1,24.76264,86.399618)"
             id="g2585">
            <defs
               id="defs2581">
              <path
                 d="M 41.703125,15.46875 H 39.90625 c -1,-7.078125 -1.8125,-8.28125 -2.203125,-8.875 C 37.203125,5.796875 30,5.796875 28.59375,5.796875 H 9.40625 C 13,9.6875 20,16.765625 28.5,24.9375 34.59375,30.71875 41.703125,37.5 41.703125,47.390625 41.703125,59.1875 32.296875,66 21.796875,66 c -11,0 -17.703125,-9.703125 -17.703125,-18.703125 0,-3.90625 2.90625,-4.40625 4.109375,-4.40625 1,0 4,0.59375 4,4.09375 C 12.203125,50.09375 9.59375,51 8.203125,51 7.59375,51 7,50.890625 6.59375,50.6875 c 1.90625,8.5 7.703125,12.703125 13.8125,12.703125 8.6875,0 14.390625,-6.890625 14.390625,-16 0,-8.6875 -5.09375,-16.171875 -10.796875,-22.65625 L 4.09375,2.296875 V 0 h 35.203125 z"
                 id="path2940" />
            </defs>
            <use
               transform="scale(0.996264)"
               xlink:href="#CMR17-50-8"
               id="use2583"
               x="0"
               y="0"
               width="100%"
               height="100%" />
          </g>
        </g>
      </g>
      <g
         id="ytick_3-3">
        <g
           id="line2d_3-1">
          <path
             clip-path="url(#pc2ce783c05)"
             d="M 36.743975,58.77579 H 277.2"
             style="fill:none;stroke:#cccccc;stroke-width:0.8;stroke-linecap:round"
             id="path2589" />
        </g>
        <g
           id="text_7-8">
          <!-- $\mathdefault{4}$ -->
          <g
             style="fill:#262626"
             transform="matrix(0.1,0,0,-0.1,24.76264,62.235039)"
             id="g2597">
            <defs
               id="defs2593">
              <path
                 d="M 33.59375,64.796875 C 33.59375,66.890625 33.5,67 31.703125,67 L 2,19.59375 V 17 H 27.796875 V 7.1875 c 0,-3.59375 -0.203125,-4.59375 -7.203125,-4.59375 H 18.703125 V 0 c 3.203125,0.1875 8.59375,0.1875 12,0.1875 3.390625,0 8.796875,0 12,-0.1875 v 2.59375 h -1.90625 c -7,0 -7.203125,1 -7.203125,4.59375 V 17 h 10.203125 v 2.59375 H 33.59375 Z m -5.5,-6.625 V 19.59375 H 4 Z"
                 id="path2949" />
            </defs>
            <use
               transform="scale(0.996264)"
               xlink:href="#CMR17-52-9"
               id="use2595"
               x="0"
               y="0"
               width="100%"
               height="100%" />
          </g>
        </g>
      </g>
      <g
         id="ytick_4-6">
        <g
           id="line2d_4-4">
          <path
             clip-path="url(#pc2ce783c05)"
             d="M 36.743975,34.611211 H 277.2"
             style="fill:none;stroke:#cccccc;stroke-width:0.8;stroke-linecap:round"
             id="path2601" />
        </g>
        <g
           id="text_8-3">
          <!-- $\mathdefault{6}$ -->
          <g
             style="fill:#262626"
             transform="matrix(0.1,0,0,-0.1,24.76264,38.07046)"
             id="g2609">
            <defs
               id="defs2605">
              <path
                 d="M 10.59375,34.34375 C 10.59375,58 21.796875,63.6875 28.296875,63.6875 30.40625,63.6875 35.5,63.265625 37.5,59.09375 c -1.59375,0 -4.59375,0 -4.59375,-3.5 C 32.90625,52.890625 35.09375,52 36.5,52 c 0.90625,0 3.59375,0.390625 3.59375,3.796875 0,6.5 -5,10.203125 -11.890625,10.203125 C 16.296875,66 3.796875,53.296875 3.796875,31.421875 3.796875,4.015625 15.09375,-2 23.09375,-2 32.796875,-2 42,6.734375 42,20.234375 42,32.828125 33.90625,42 23.703125,42 17.59375,42 13.09375,37.96875 10.59375,30.921875 Z m 12.5,-33.953125 c -12.296875,0 -12.296875,18.546875 -12.296875,22.265625 0,7.25 3.40625,17.734375 12.703125,17.734375 1.703125,0 6.59375,0 9.90625,-6.953125 1.796875,-3.921875 1.796875,-8.0625 1.796875,-13.09375 0,-5.4375 0,-9.46875 -2.109375,-13.5 -2.1875,-4.140625 -5.390625,-6.453125 -10,-6.453125 z"
                 id="path2958" />
            </defs>
            <use
               transform="scale(0.996264)"
               xlink:href="#CMR17-54-3"
               id="use2607"
               x="0"
               y="0"
               width="100%"
               height="100%" />
          </g>
        </g>
      </g>
      <g
         id="text_9-3">
        <!-- $\Delta E_\text{rel}~[\si{\kcal\per\mol}]$ -->
        <g
           style="fill:#262626"
           transform="matrix(0,-0.1,-0.1,0,18.27198,95.008327)"
           id="g2655">
          <defs
             id="defs2623">
            <path
               d="M 40.59375,69.296875 C 39.796875,71 39.40625,71 38.59375,71 c -1.1875,0 -1.296875,-0.203125 -2,-1.609375 L 4.203125,1.6875 C 4.09375,1.5 3.703125,0.59375 3.703125,0.5 3.703125,0.09375 3.796875,0 5.59375,0 H 71.5 c 1.796875,0 1.90625,0.09375 1.90625,0.5 0,0.09375 -0.40625,1 -0.5,1.1875 z M 36.09375,63.375 63.796875,5.59375 h -55.5 z"
               id="path2965" />
            <path
               d="m 69.5,23.265625 c 0.09375,0.296875 0.40625,1 0.40625,1.390625 0,0.515625 -0.40625,1.015625 -1,1.015625 C 68.5,25.671875 68.296875,25.5625 68,25.265625 67.796875,25.171875 67.796875,24.96875 66.90625,22.953125 61,8.90625 56.703125,2.890625 40.703125,2.890625 H 26.09375 c -1.390625,0 -1.59375,0 -2.1875,0.109375 -1.109375,0.09375 -1.203125,0.296875 -1.203125,1.09375 0,0.703125 0.203125,1.3125 0.390625,2.203125 L 30,34 h 9.90625 c 7.796875,0 8.390625,-1.71875 8.390625,-4.71875 0,-1 0,-1.90625 -0.703125,-4.921875 -0.1875,-0.390625 -0.296875,-0.796875 -0.296875,-1.09375 0,-0.703125 0.5,-1.015625 1.109375,-1.015625 0.890625,0 1,0.703125 1.390625,2.109375 L 55.5,47.4375 c 0,0.5 -0.40625,0.984375 -1,0.984375 -0.90625,0 -1,-0.390625 -1.40625,-1.765625 -2,-7.59375 -4,-9.765625 -12.890625,-9.765625 h -9.5 l 6.203125,24.25 c 0.890625,3.453125 1.09375,3.75 5.1875,3.75 h 14.3125 c 12.296875,0 14.796875,-3.25 14.796875,-10.75 0,-0.09375 0,-2.859375 -0.40625,-6.109375 -0.09375,-0.390625 -0.203125,-0.984375 -0.203125,-1.1875 0,-0.78125 0.5,-1.078125 1.109375,-1.078125 0.703125,0 1.09375,0.390625 1.296875,2.171875 l 2.09375,17.25 c 0,0.296875 0.203125,1.296875 0.203125,1.5 0,1.109375 -0.890625,1.109375 -2.703125,1.109375 H 23.796875 c -1.890625,0 -2.890625,0 -2.890625,-1.8125 0,-1.09375 0.6875,-1.09375 2.390625,-1.09375 6.203125,0 6.203125,-0.6875 6.203125,-1.78125 0,-0.484375 -0.09375,-0.875 -0.40625,-1.96875 L 15.59375,7.40625 C 14.703125,3.890625 14.5,2.890625 7.5,2.890625 c -1.90625,0 -2.90625,0 -2.90625,-1.796875 C 4.59375,0 5.203125,0 7.203125,0 H 57.40625 c 2.1875,0 2.296875,0.09375 3,1.6875 z"
               id="path2967" />
            <path
               d="m 15,23.703125 c 0,9.640625 4.09375,18.6875 11.59375,18.6875 0.703125,0 1.40625,-0.09375 2.109375,-0.40625 0,0 -2.203125,-0.703125 -2.203125,-3.3125 0,-2.40625 1.90625,-3.40625 3.40625,-3.40625 1.1875,0 3.390625,0.703125 3.390625,3.515625 0,3.203125 -3.203125,5.21875 -6.59375,5.21875 -7.609375,0 -10.90625,-7.4375 -11.90625,-10.953125 h -0.09375 V 44 L 3.09375,42.890625 V 40.28125 c 5.90625,0 6.8125,-0.59375 6.8125,-5.421875 V 6.921875 C 9.90625,3.09375 9.5,2.59375 3.09375,2.59375 V 0 c 2.40625,0.1875 7,0.1875 9.609375,0.1875 2.890625,0 8,0 10.703125,-0.1875 v 2.59375 c -7.203125,0 -8.40625,0 -8.40625,4.515625 z"
               id="path2969" />
            <path
               d="M 15.296875,69 3.40625,67.890625 v -2.59375 c 5.890625,0 6.796875,-0.59375 6.796875,-5.375 V 6.859375 C 10.203125,3.09375 9.796875,2.59375 3.40625,2.59375 V 0 c 2.390625,0.1875 6.796875,0.1875 9.296875,0.1875 2.59375,0 7,0 9.390625,-0.1875 v 2.59375 c -6.390625,0 -6.796875,0.390625 -6.796875,4.265625 z"
               id="path2971" />
            <path
               d="m 23.5,-25 v 3.5 H 14.09375 V 71.484375 H 23.5 V 75 H 10.59375 V -25 Z"
               id="path2973" />
            <path
               d="M 26.09375,26.234375 C 26,26.4375 25.5,27.03125 25.5,27.328125 c 0,0.203125 7.09375,6.65625 8,7.453125 5.703125,4.78125 9.296875,5.265625 11.90625,5.375 v 2.578125 c -0.609375,0 -0.8125,0 -0.90625,-0.09375 L 39.59375,42.53125 c -2.796875,0 -7.09375,0 -9.796875,0.203125 V 40.15625 c 1.40625,-0.109375 2.40625,-0.890625 2.40625,-2.296875 0,-1.984375 -2,-3.875 -2.109375,-3.875 L 15,20.28125 V 69 L 3.09375,67.890625 v -2.59375 c 5.90625,0 6.8125,-0.59375 6.8125,-5.375 V 6.859375 C 9.90625,3.09375 9.5,2.59375 3.09375,2.59375 V 0 c 2.40625,0.1875 6.8125,0.1875 9.3125,0.1875 2.5,0 6.890625,0 9.296875,-0.1875 v 2.59375 c -6.40625,0 -6.796875,0.390625 -6.796875,4.265625 v 10.9375 L 21.796875,24.0625 31.90625,9.15625 c 1.1875,-1.796875 2.1875,-3.1875 2.1875,-4.484375 0,-1.78125 -1.796875,-2.078125 -3,-2.078125 V 0 C 33.5,0.1875 37.796875,0.1875 40.296875,0.1875 42.09375,0.1875 45.796875,0.09375 47.5,0 v 2.59375 c -4.703125,0 -5.796875,0.890625 -8.796875,5.265625 z"
               id="path2975" />
            <path
               d="M 36,25.875 C 36,32 36,35.546875 31.796875,39.59375 28.09375,42.984375 23.796875,44 20.40625,44 12.5,44 6.796875,37.625 6.796875,30.890625 6.796875,27.1875 9.796875,27 10.40625,27 11.703125,27 14,27.796875 14,30.59375 c 0,2.5 -1.90625,3.59375 -3.59375,3.59375 C 10,34.1875 9.5,34.09375 9.203125,34 c 2.09375,6.53125 7.5,8.390625 11,8.390625 5,0 10.5,-4.5625 10.5,-13.09375 V 25.5 c -5.90625,-0.203125 -13,-1 -18.609375,-4.046875 C 5.796875,17.921875 4,12.84375 4,9 4,1.203125 13,-1 18.296875,-1 c 5.5,0 10.609375,3.109375 12.796875,8.890625 0.203125,-4.46875 3,-8.5 7.40625,-8.5 2.09375,0 7.40625,1.40625 7.40625,9.40625 v 5.671875 h -1.8125 V 8.703125 c 0,-6.1875 -2.6875,-7 -4,-7 C 36,1.703125 36,6.96875 36,11.4375 Z M 30.703125,13.859375 C 30.703125,5.046875 24.5,0.59375 19,0.59375 c -5,0 -8.90625,3.75 -8.90625,8.40625 0,3.046875 1.3125,8.40625 7.109375,11.65625 C 22,23.390625 27.5,23.796875 30.703125,24 Z"
               id="path2977" />
            <path
               d="m 42.90625,71.296875 c 0,0.09375 0.59375,1.59375 0.59375,1.796875 0,1.203125 -1,1.90625 -1.796875,1.90625 -0.5,0 -1.40625,0 -2.203125,-2.203125 L 6,-21.3125 c 0,-0.09375 -0.59375,-1.59375 -0.59375,-1.796875 0,-1.203125 1,-1.890625 1.796875,-1.890625 0.59375,0 1.5,0.09375 2.203125,2.1875 z"
               id="path2979" />
            <path
               d="M 67.59375,30.53125 C 67.59375,35.5625 66.703125,44 54.796875,44 48,44 43.296875,39.375 41.5,33.953125 H 41.40625 C 40.203125,42.1875 34.296875,44 28.703125,44 c -7.90625,0 -12,-6.125 -13.5,-10.15625 H 15.09375 V 44 L 3.296875,42.890625 V 40.28125 c 5.90625,0 6.796875,-0.59375 6.796875,-5.421875 V 6.921875 C 10.09375,3.09375 9.703125,2.59375 3.296875,2.59375 V 0 c 2.40625,0.1875 6.796875,0.1875 9.40625,0.1875 2.59375,0 7.09375,0 9.5,-0.1875 V 2.59375 C 15.796875,2.59375 15.40625,3 15.40625,6.921875 V 26.21875 C 15.40625,35.453125 21,42.390625 28,42.390625 c 7.40625,0 8.203125,-6.625 8.203125,-11.453125 V 6.921875 c 0,-3.828125 -0.40625,-4.328125 -6.796875,-4.328125 V 0 c 2.390625,0.1875 6.796875,0.1875 9.390625,0.1875 2.609375,0 7.109375,0 9.5,-0.1875 V 2.59375 C 41.90625,2.59375 41.5,3 41.5,6.921875 V 26.21875 c 0,9.234375 5.59375,16.171875 12.59375,16.171875 7.40625,0 8.203125,-6.625 8.203125,-11.453125 V 6.921875 C 62.296875,3.09375 61.90625,2.59375 55.5,2.59375 V 0 c 2.40625,0.1875 6.796875,0.1875 9.40625,0.1875 2.59375,0 7.09375,0 9.5,-0.1875 V 2.59375 C 68,2.59375 67.59375,3 67.59375,6.921875 Z"
               id="path2981" />
            <path
               d="M 14.296875,75 H 1.40625 v -3.515625 h 9.390625 V -21.5 H 1.40625 V -25 h 12.890625 z"
               id="path2983" />
          </defs>
          <use
             transform="scale(0.996264)"
             xlink:href="#CMR17-1-8"
             id="use2625"
             x="0"
             y="0"
             width="100%"
             height="100%" />
          <use
             transform="matrix(0.996264,0,0,0.996264,76.91959,0)"
             xlink:href="#CMMI12-69-6"
             id="use2627"
             x="0"
             y="0"
             width="100%"
             height="100%" />
          <use
             transform="matrix(0.697382,0,0,0.697382,149.13081,-14.943915)"
             xlink:href="#CMR17-114-0"
             id="use2629"
             x="0"
             y="0"
             width="100%"
             height="100%" />
          <use
             transform="matrix(0.697382,0,0,0.697382,173.82723,-14.943915)"
             xlink:href="#CMR17-101-5"
             id="use2631"
             x="0"
             y="0"
             width="100%"
             height="100%" />
          <use
             transform="matrix(0.697382,0,0,0.697382,202.16706,-14.943915)"
             xlink:href="#CMR17-108-4"
             id="use2633"
             x="0"
             y="0"
             width="100%"
             height="100%" />
          <use
             transform="matrix(0.996264,0,0,0.996264,250.15082,0)"
             xlink:href="#CMR17-91-8"
             id="use2635"
             x="0"
             y="0"
             width="100%"
             height="100%" />
          <use
             transform="matrix(0.996264,0,0,0.996264,275.02188,0)"
             xlink:href="#CMR17-107-8"
             id="use2637"
             x="0"
             y="0"
             width="100%"
             height="100%" />
          <use
             transform="matrix(0.996264,0,0,0.996264,320.71234,0)"
             xlink:href="#CMR17-99-2"
             id="use2639"
             x="0"
             y="0"
             width="100%"
             height="100%" />
          <use
             transform="matrix(0.996264,0,0,0.996264,361.198,0)"
             xlink:href="#CMR17-97-8"
             id="use2641"
             x="0"
             y="0"
             width="100%"
             height="100%" />
          <use
             transform="matrix(0.996264,0,0,0.996264,406.88848,0)"
             xlink:href="#CMR17-108-4"
             id="use2643"
             x="0"
             y="0"
             width="100%"
             height="100%" />
          <use
             transform="matrix(0.996264,0,0,0.996264,431.75953,0)"
             xlink:href="#CMMI12-61-9"
             id="use2645"
             x="0"
             y="0"
             width="100%"
             height="100%" />
          <use
             transform="matrix(0.996264,0,0,0.996264,480.53445,0)"
             xlink:href="#CMR17-109-7"
             id="use2647"
             x="0"
             y="0"
             width="100%"
             height="100%" />
          <use
             transform="matrix(0.996264,0,0,0.996264,557.45404,0)"
             xlink:href="#CMR17-111-1"
             id="use2649"
             x="0"
             y="0"
             width="100%"
             height="100%" />
          <use
             transform="matrix(0.996264,0,0,0.996264,603.14452,0)"
             xlink:href="#CMR17-108-4"
             id="use2651"
             x="0"
             y="0"
             width="100%"
             height="100%" />
          <use
             transform="matrix(0.996264,0,0,0.996264,628.01558,0)"
             xlink:href="#CMR17-93-7"
             id="use2653"
             x="0"
             y="0"
             width="100%"
             height="100%" />
        </g>
      </g>
    </g>
    <g
       id="patch_3-6">
      <path
         clip-path="url(#pc2ce783c05)"
         d="M 42.755376,107.10495 H 58.785778 V 96.523624 H 42.755376 Z"
         style="fill:#597dbf;stroke:#ffffff;stroke-linejoin:miter"
         id="path2659" />
    </g>
    <g
       id="patch_4-4">
      <path
         clip-path="url(#pc2ce783c05)"
         d="m 102.86938,107.10495 h 16.0304 v -4.76479 h -16.0304 z"
         style="fill:#597dbf;stroke:#ffffff;stroke-linejoin:miter"
         id="path2662" />
    </g>
    <g
       id="patch_5-3">
      <path
         clip-path="url(#pc2ce783c05)"
         d="m 162.98339,107.10495 h 16.0304 v 0 z"
         style="fill:#597dbf;stroke:#ffffff;stroke-linejoin:miter"
         id="path2665" />
    </g>
    <g
       id="patch_6-0">
      <path
         clip-path="url(#pc2ce783c05)"
         d="m 223.09739,107.10495 h 16.03041 v 0 z"
         style="fill:#597dbf;stroke:#ffffff;stroke-linejoin:miter"
         id="path2668" />
    </g>
    <g
       id="patch_7-3">
      <path
         clip-path="url(#pc2ce783c05)"
         d="M 58.785778,107.10495 H 74.816179 V 86.249356 H 58.785778 Z"
         style="fill:#d98b5f;stroke:#ffffff;stroke-linejoin:miter"
         id="path2671" />
    </g>
    <g
       id="patch_8-0">
      <path
         clip-path="url(#pc2ce783c05)"
         d="m 118.89978,107.10495 h 16.0304 v 0 z"
         style="fill:#d98b5f;stroke:#ffffff;stroke-linejoin:miter"
         id="path2674" />
    </g>
    <g
       id="patch_9-9">
      <path
         clip-path="url(#pc2ce783c05)"
         d="m 179.01379,107.10495 h 16.0304 V 50.474267 h -16.0304 z"
         style="fill:#d98b5f;stroke:#ffffff;stroke-linejoin:miter"
         id="path2677" />
    </g>
    <g
       id="patch_10-2">
      <path
         clip-path="url(#pc2ce783c05)"
         d="m 239.1278,107.10495 h 16.0304 V 31.423384 h -16.0304 z"
         style="fill:#d98b5f;stroke:#ffffff;stroke-linejoin:miter"
         id="path2680" />
    </g>
    <g
       id="patch_11-5">
      <path
         clip-path="url(#pc2ce783c05)"
         d="m 74.816179,107.10495 h 16.030402 v 0 z"
         style="fill:#75bf71;stroke:#ffffff;stroke-linejoin:miter"
         id="path2683" />
    </g>
    <g
       id="patch_12-4">
      <path
         clip-path="url(#pc2ce783c05)"
         d="m 134.93018,107.10495 h 16.03041 V 82.334066 h -16.03041 z"
         style="fill:#75bf71;stroke:#ffffff;stroke-linejoin:miter"
         id="path2686" />
    </g>
    <g
       id="patch_13-0">
      <path
         clip-path="url(#pc2ce783c05)"
         d="M 0,0 Z"
         style="fill:#75bf71;stroke:#ffffff;stroke-linejoin:miter"
         id="path2689" />
    </g>
    <g
       id="patch_14-5">
      <path
         clip-path="url(#pc2ce783c05)"
         d="m 255.1582,107.10495 h 16.0304 v -91.719 h -16.0304 z"
         style="fill:#75bf71;stroke:#ffffff;stroke-linejoin:miter"
         id="path2692" />
    </g>
    <g
       id="line2d_5-9">
      <path
         clip-path="url(#pc2ce783c05)"
         d="M 0,0"
         style="fill:none;stroke:#424242;stroke-width:2.7;stroke-linecap:round"
         id="path2695" />
    </g>
    <g
       id="line2d_6-4">
      <path
         clip-path="url(#pc2ce783c05)"
         d="M 0,0"
         style="fill:none;stroke:#424242;stroke-width:2.7;stroke-linecap:round"
         id="path2698" />
    </g>
    <g
       id="line2d_7-6">
      <path
         clip-path="url(#pc2ce783c05)"
         d="M 0,0"
         style="fill:none;stroke:#424242;stroke-width:2.7;stroke-linecap:round"
         id="path2701" />
    </g>
    <g
       id="line2d_8-9">
      <path
         clip-path="url(#pc2ce783c05)"
         d="M 0,0"
         style="fill:none;stroke:#424242;stroke-width:2.7;stroke-linecap:round"
         id="path2704" />
    </g>
    <g
       id="line2d_9-2">
      <path
         clip-path="url(#pc2ce783c05)"
         d="M 0,0"
         style="fill:none;stroke:#424242;stroke-width:2.7;stroke-linecap:round"
         id="path2707" />
    </g>
    <g
       id="line2d_10-2">
      <path
         clip-path="url(#pc2ce783c05)"
         d="M 0,0"
         style="fill:none;stroke:#424242;stroke-width:2.7;stroke-linecap:round"
         id="path2710" />
    </g>
    <g
       id="line2d_11-4">
      <path
         clip-path="url(#pc2ce783c05)"
         d="M 0,0"
         style="fill:none;stroke:#424242;stroke-width:2.7;stroke-linecap:round"
         id="path2713" />
    </g>
    <g
       id="line2d_12-7">
      <path
         clip-path="url(#pc2ce783c05)"
         d="M 0,0"
         style="fill:none;stroke:#424242;stroke-width:2.7;stroke-linecap:round"
         id="path2716" />
    </g>
    <g
       id="line2d_13-7">
      <path
         clip-path="url(#pc2ce783c05)"
         d="M 0,0"
         style="fill:none;stroke:#424242;stroke-width:2.7;stroke-linecap:round"
         id="path2719" />
    </g>
    <g
       id="line2d_14-5">
      <path
         clip-path="url(#pc2ce783c05)"
         d="M 0,0"
         style="fill:none;stroke:#424242;stroke-width:2.7;stroke-linecap:round"
         id="path2722" />
    </g>
    <g
       id="line2d_15-4">
      <path
         clip-path="url(#pc2ce783c05)"
         d="M 0,0"
         style="fill:none;stroke:#424242;stroke-width:2.7;stroke-linecap:round"
         id="path2725" />
    </g>
    <g
       id="line2d_16-8">
      <path
         clip-path="url(#pc2ce783c05)"
         d="M 0,0"
         style="fill:none;stroke:#424242;stroke-width:2.7;stroke-linecap:round"
         id="path2728" />
    </g>
    <g
       id="patch_15-1">
      <path
         d="M 36.743975,107.10495 V 10.8"
         style="fill:none;stroke:#262626;stroke-width:0.8;stroke-linecap:square;stroke-linejoin:miter"
         id="path2731" />
    </g>
    <g
       id="patch_16-2">
      <path
         d="M 277.2,107.10495 V 10.8"
         style="fill:none;stroke:#262626;stroke-width:0.8;stroke-linecap:square;stroke-linejoin:miter"
         id="path2734" />
    </g>
    <g
       id="patch_17-8">
      <path
         d="M 36.743975,107.10495 H 277.2"
         style="fill:none;stroke:#262626;stroke-width:0.8;stroke-linecap:square;stroke-linejoin:miter"
         id="path2737" />
    </g>
    <g
       id="patch_18-9">
      <path
         d="M 36.743975,10.8 H 277.2"
         style="fill:none;stroke:#262626;stroke-width:0.8;stroke-linecap:square;stroke-linejoin:miter"
         id="path2740" />
    </g>
    <g
       id="legend_1-3">
      <g
         id="patch_19-6">
        <path
           d="M 43.743975,62.691866 H 111.5819 q 2,0 2,-2 V 17.8 q 0,-2 -2,-2 H 43.743975 q -2,0 -2,2 v 42.891866 q 0,2 2,2 z"
           style="opacity:0.8;fill:#ffffff;stroke:#cccccc;stroke-linejoin:miter"
           id="path2743" />
      </g>
      <g
         id="patch_20-8">
        <path
           d="m 45.743975,27.398437 h 20 v -7 h -20 z"
           style="fill:#597dbf;stroke:#ffffff;stroke-linejoin:miter"
           id="path2746" />
      </g>
      <g
         id="text_10-0">
        <!-- BS7-235 -->
        <g
           style="fill:#262626"
           transform="matrix(0.1,0,0,-0.1,73.743975,27.398437)"
           id="g2771">
          <defs
             id="defs2755">
            <path
               d="m 5.203125,68 v -2.609375 c 6.890625,0 8,0 8,-4.5 V 7.046875 c 0,-4.453125 -1.109375,-4.453125 -8,-4.453125 V 0 H 39.59375 c 12.8125,0 21.109375,9.03125 21.109375,18.046875 0,8.921875 -8.203125,16.546875 -18.90625,17.25 C 51.40625,37.1875 58.09375,43.59375 58.09375,51.1875 58.09375,59.5 49.90625,68 37,68 Z M 19.5,36 v 25.5 c 0,3.390625 0.203125,3.890625 4.203125,3.890625 H 36.5 c 9.90625,0 14.296875,-8 14.296875,-14.203125 C 50.796875,43.59375 44.703125,36 33.90625,36 Z M 23.703125,2.59375 c -4,0 -4.203125,0.5 -4.203125,3.859375 v 27.9375 H 38 c 10.296875,0 15.296875,-9.015625 15.296875,-16.25 0,-7.234375 -5.703125,-15.546875 -16.59375,-15.546875 z"
               id="path3064" />
            <path
               d="m 43.796875,67.984375 c 0,1.8125 -0.09375,1.90625 -0.703125,1.90625 -0.59375,0 -0.796875,-0.40625 -1.1875,-1.296875 l -3,-6.640625 C 35.09375,67.5 29.296875,70 23,70 12.796875,70 4.59375,61.84375 4.59375,51.578125 c 0,-3.125 0.703125,-7.5625 4.109375,-11.796875 3.703125,-4.625 7.203125,-5.4375 15.203125,-7.546875 3,-0.8125 8,-2.125 9,-2.53125 5.6875,-2.40625 8.6875,-8.453125 8.6875,-14.09375 C 41.59375,8.34375 36.5,0.59375 27.796875,0.59375 17.09375,0.59375 7.09375,6.640625 6.40625,20.75 6.296875,22.359375 6.203125,22.453125 5.5,22.453125 c -0.796875,0 -0.90625,-0.09375 -0.90625,-2.109375 V 0 c 0,-1.8125 0.109375,-1.90625 0.703125,-1.90625 0.703125,0 0.90625,0.5 2.296875,3.609375 0.109375,0.296875 0.109375,0.5 2,4.328125 C 14.59375,-0.609375 23,-2 27.796875,-2 c 10.90625,0 18.609375,9.140625 18.609375,19.828125 0,5.234375 -1.90625,9.265625 -3,11.078125 -4.203125,6.453125 -8.703125,7.65625 -13.5,8.859375 -0.703125,0.3125 -0.90625,0.3125 -6.5,1.71875 C 18,40.890625 15.703125,41.59375 13.203125,44.3125 10.40625,47.4375 9.40625,50.671875 9.40625,53.890625 c 0,6.546875 5.1875,13.703125 13.6875,13.703125 10.609375,0 17.203125,-7.5625 18.703125,-20.15625 0.296875,-1.8125 0.40625,-1.90625 1.109375,-1.90625 0.890625,0 0.890625,0.296875 0.890625,2.015625 z"
               id="path3066" />
            <path
               d="M 45.09375,61.796875 V 64 h -23.5 C 9.90625,64 9.703125,65.09375 9.296875,67 H 7.5 L 4.59375,48.5 h 1.8125 c 0.296875,1.90625 1,7 2.1875,8.890625 0.609375,0.796875 8,0.796875 9.703125,0.796875 h 22 L 29.203125,41.71875 c -7.40625,-11.078125 -12.5,-26.046875 -12.5,-39.125 0,-1.203125 0,-4.59375 3.59375,-4.59375 3.609375,0 3.609375,3.390625 3.609375,4.6875 v 4.59375 c 0,16.375 2.796875,27.15625 7.390625,34.03125 z"
               id="path3068" />
            <path
               d="M 25.5,19.59375 V 24 H 0.40625 v -4.40625 z"
               id="path3070" />
            <path
               d="M 22.09375,34 C 31,34 34.90625,26.140625 34.90625,17.09375 34.90625,5.03125 28.5,0.390625 22.703125,0.390625 c -5.296875,0 -13.90625,2.625 -16.609375,10.40625 0.5,-0.203125 1,-0.203125 1.5,-0.203125 2.40625,0 4.203125,1.59375 4.203125,4.203125 C 11.796875,17.6875 9.59375,19 7.59375,19 5.90625,19 3.296875,18.1875 3.296875,14.484375 3.296875,5.234375 12.296875,-2 22.90625,-2 34,-2 42.5,6.75 42.5,16.984375 42.5,26.84375 34.5,34 25,35.09375 32.59375,36.671875 39.90625,43.375 39.90625,52.390625 39.90625,60.25 32,66 23,66 13.90625,66 5.90625,60.34375 5.90625,52.296875 c 0,-3.5 2.59375,-4.109375 3.890625,-4.109375 2.109375,0 3.90625,1.296875 3.90625,3.90625 C 13.703125,54.6875 11.90625,56 9.796875,56 9.40625,56 8.90625,56 8.5,55.796875 c 2.90625,6.6875 10.796875,7.890625 14.296875,7.890625 3.5,0 10.109375,-1.71875 10.109375,-11.390625 0,-2.8125 -0.40625,-7.75 -3.8125,-12.078125 -3,-3.828125 -6.390625,-4.03125 -9.6875,-4.328125 -0.5,0 -2.8125,-0.203125 -3.203125,-0.203125 C 15.5,35.59375 15.09375,35.5 15.09375,34.796875 15.09375,34.09375 15.203125,34 17.203125,34 Z"
               id="path3072" />
            <path
               d="m 11.40625,58.59375 c 1,-0.40625 5.09375,-1.703125 9.296875,-1.703125 9.296875,0 14.390625,5 17.296875,7.796875 C 38,65.484375 38,66 37.40625,66 c -0.109375,0 -0.3125,0 -1.109375,-0.40625 -3.5,-1.5 -7.59375,-2.59375 -12.59375,-2.59375 -3,0 -7.5,0.359375 -12.40625,2.484375 C 10.203125,66 10,66 9.90625,66 9.40625,66 9.296875,65.890625 9.296875,63.90625 V 34.859375 c 0,-1.84375 0,-2.359375 1,-2.359375 0.5,0 0.703125,0.203125 1.203125,0.921875 C 14.703125,38.046875 19.09375,40 24.09375,40 c 3.5,0 11,-2.265625 11,-19.796875 0,-3.21875 0,-9.015625 -3,-13.609375 -2.5,-4.109375 -6.390625,-6.203125 -10.6875,-6.203125 -6.609375,0 -13.3125,4.59375 -15.109375,12.296875 C 6.703125,12.59375 7.5,12.390625 7.90625,12.390625 c 1.296875,0 3.796875,0.703125 3.796875,3.796875 C 11.703125,18.890625 9.796875,20 7.90625,20 5.59375,20 4.09375,18.59375 4.09375,15.796875 4.09375,7.09375 11,-2 21.59375,-2 c 10.3125,0 20.109375,8.890625 20.109375,21.796875 0,12.296875 -7.796875,21.796875 -17.5,21.796875 -5.109375,0 -9.40625,-1.90625 -12.796875,-5.59375 z"
               id="path3074" />
          </defs>
          <use
             transform="scale(0.996264)"
             xlink:href="#CMR17-66-2"
             id="use2757"
             x="0"
             y="0"
             width="100%"
             height="100%" />
          <use
             transform="matrix(0.996264,0,0,0.996264,65.188754,0)"
             xlink:href="#CMR17-83-1"
             id="use2759"
             x="0"
             y="0"
             width="100%"
             height="100%" />
          <use
             transform="matrix(0.996264,0,0,0.996264,116.08412,0)"
             xlink:href="#CMR17-55-0"
             id="use2761"
             x="0"
             y="0"
             width="100%"
             height="100%" />
          <use
             transform="matrix(0.996264,0,0,0.996264,161.7746,0)"
             xlink:href="#CMR17-45-5"
             id="use2763"
             x="0"
             y="0"
             width="100%"
             height="100%" />
          <use
             transform="matrix(0.996264,0,0,0.996264,191.85057,0)"
             xlink:href="#CMR17-50-8"
             id="use2765"
             x="0"
             y="0"
             width="100%"
             height="100%" />
          <use
             transform="matrix(0.996264,0,0,0.996264,237.54104,0)"
             xlink:href="#CMR17-51-1"
             id="use2767"
             x="0"
             y="0"
             width="100%"
             height="100%" />
          <use
             transform="matrix(0.996264,0,0,0.996264,283.23152,0)"
             xlink:href="#CMR17-53-1"
             id="use2769"
             x="0"
             y="0"
             width="100%"
             height="100%" />
        </g>
      </g>
      <g
         id="patch_21-0">
        <path
           d="m 45.743975,42.076562 h 20 v -7 h -20 z"
           style="fill:#d98b5f;stroke:#ffffff;stroke-linejoin:miter"
           id="path2774" />
      </g>
      <g
         id="text_11-8">
        <!-- BS7-247 -->
        <g
           style="fill:#262626"
           transform="matrix(0.1,0,0,-0.1,73.743975,42.076562)"
           id="g2791">
          <use
             transform="scale(0.996264)"
             xlink:href="#CMR17-66-2"
             id="use2777"
             x="0"
             y="0"
             width="100%"
             height="100%" />
          <use
             transform="matrix(0.996264,0,0,0.996264,65.188754,0)"
             xlink:href="#CMR17-83-1"
             id="use2779"
             x="0"
             y="0"
             width="100%"
             height="100%" />
          <use
             transform="matrix(0.996264,0,0,0.996264,116.08412,0)"
             xlink:href="#CMR17-55-0"
             id="use2781"
             x="0"
             y="0"
             width="100%"
             height="100%" />
          <use
             transform="matrix(0.996264,0,0,0.996264,161.7746,0)"
             xlink:href="#CMR17-45-5"
             id="use2783"
             x="0"
             y="0"
             width="100%"
             height="100%" />
          <use
             transform="matrix(0.996264,0,0,0.996264,191.85057,0)"
             xlink:href="#CMR17-50-8"
             id="use2785"
             x="0"
             y="0"
             width="100%"
             height="100%" />
          <use
             transform="matrix(0.996264,0,0,0.996264,237.54104,0)"
             xlink:href="#CMR17-52-9"
             id="use2787"
             x="0"
             y="0"
             width="100%"
             height="100%" />
          <use
             transform="matrix(0.996264,0,0,0.996264,283.23152,0)"
             xlink:href="#CMR17-55-0"
             id="use2789"
             x="0"
             y="0"
             width="100%"
             height="100%" />
        </g>
      </g>
      <g
         id="patch_22-5">
        <path
           d="m 45.743975,56.754687 h 20 v -7 h -20 z"
           style="fill:#75bf71;stroke:#ffffff;stroke-linejoin:miter"
           id="path2794" />
      </g>
      <g
         id="text_12-0">
        <!-- BS7-346 -->
        <g
           style="fill:#262626"
           transform="matrix(0.1,0,0,-0.1,73.743975,56.754687)"
           id="g2811">
          <use
             transform="scale(0.996264)"
             xlink:href="#CMR17-66-2"
             id="use2797"
             x="0"
             y="0"
             width="100%"
             height="100%" />
          <use
             transform="matrix(0.996264,0,0,0.996264,65.188754,0)"
             xlink:href="#CMR17-83-1"
             id="use2799"
             x="0"
             y="0"
             width="100%"
             height="100%" />
          <use
             transform="matrix(0.996264,0,0,0.996264,116.08412,0)"
             xlink:href="#CMR17-55-0"
             id="use2801"
             x="0"
             y="0"
             width="100%"
             height="100%" />
          <use
             transform="matrix(0.996264,0,0,0.996264,161.7746,0)"
             xlink:href="#CMR17-45-5"
             id="use2803"
             x="0"
             y="0"
             width="100%"
             height="100%" />
          <use
             transform="matrix(0.996264,0,0,0.996264,191.85057,0)"
             xlink:href="#CMR17-51-1"
             id="use2805"
             x="0"
             y="0"
             width="100%"
             height="100%" />
          <use
             transform="matrix(0.996264,0,0,0.996264,237.54104,0)"
             xlink:href="#CMR17-52-9"
             id="use2807"
             x="0"
             y="0"
             width="100%"
             height="100%" />
          <use
             transform="matrix(0.996264,0,0,0.996264,283.23152,0)"
             xlink:href="#CMR17-54-3"
             id="use2809"
             x="0"
             y="0"
             width="100%"
             height="100%" />
        </g>
      </g>
    </g>
  </g>
  <path
     style="fill:#aa0000;stroke:#000000;stroke-width:0.75px;stroke-linecap:butt;stroke-linejoin:miter;stroke-opacity:1"
     d="m 191.68049,100.35851 1.3412,-1.887533 2.64242,2.059793 2.16562,-2.58582 1.40765,1.658054 -2.10286,1.675276 2.04811,1.99643 -2.16132,1.87461 -0.89885,-2.25052 -3.19982,2.3545 -0.84595,-2.18654 1.97244,-1.38181 z"
     id="path3685" />
</svg>
