<?xml version="1.0" encoding="utf-8" standalone="no"?>
<!DOCTYPE svg PUBLIC "-//W3C//DTD SVG 1.1//EN"
  "http://www.w3.org/Graphics/SVG/1.1/DTD/svg11.dtd">
<!-- Created with matplotlib (https://matplotlib.org/) -->
<svg height="288pt" version="1.1" viewBox="0 0 216 288" width="216pt" xmlns="http://www.w3.org/2000/svg" xmlns:xlink="http://www.w3.org/1999/xlink">
 <metadata>
  <rdf:RDF xmlns:cc="http://creativecommons.org/ns#" xmlns:dc="http://purl.org/dc/elements/1.1/" xmlns:rdf="http://www.w3.org/1999/02/22-rdf-syntax-ns#">
   <cc:Work>
    <dc:type rdf:resource="http://purl.org/dc/dcmitype/StillImage"/>
    <dc:date>2021-05-19T18:01:36.398453</dc:date>
    <dc:format>image/svg+xml</dc:format>
    <dc:creator>
     <cc:Agent>
      <dc:title>Matplotlib v3.3.4, https://matplotlib.org/</dc:title>
     </cc:Agent>
    </dc:creator>
   </cc:Work>
  </rdf:RDF>
 </metadata>
 <defs>
  <style type="text/css">*{stroke-linecap:butt;stroke-linejoin:round;}</style>
 </defs>
 <g id="figure_1">
  <g id="patch_1">
   <path d="M 0 288 
L 216 288 
L 216 0 
L 0 0 
z
" style="fill:#ffffff;"/>
  </g>
  <g id="axes_1">
   <g id="line2d_1">
    <path clip-path="url(#pd6c3eaf78b)" d="M 108 42.637463 
L 53.577138 97.060326 
" style="fill:none;stroke:#000000;stroke-linecap:round;"/>
   </g>
   <g id="line2d_2">
    <path clip-path="url(#pd6c3eaf78b)" d="M 108 42.637463 
L 108 118.829471 
" style="fill:none;stroke:#000000;stroke-linecap:round;"/>
   </g>
   <g id="line2d_3">
    <path clip-path="url(#pd6c3eaf78b)" d="M 108 42.637463 
L 162.422862 97.060326 
" style="fill:none;stroke:#000000;stroke-linecap:round;"/>
   </g>
   <g id="line2d_4">
    <path clip-path="url(#pd6c3eaf78b)" d="M 108 260.328913 
L 53.577138 205.90605 
" style="fill:none;stroke:#000000;stroke-linecap:round;"/>
   </g>
   <g id="line2d_5">
    <path clip-path="url(#pd6c3eaf78b)" d="M 108 260.328913 
L 108 184.136905 
" style="fill:none;stroke:#000000;stroke-linecap:round;"/>
   </g>
   <g id="line2d_6">
    <path clip-path="url(#pd6c3eaf78b)" d="M 108 260.328913 
L 162.422862 205.90605 
" style="fill:none;stroke:#000000;stroke-linecap:round;"/>
   </g>
   <g id="line2d_7">
    <path clip-path="url(#pd6c3eaf78b)" d="M 53.577138 97.060326 
L 162.422862 97.060326 
" style="fill:none;stroke:#000000;stroke-linecap:round;"/>
   </g>
   <g id="line2d_8">
    <path clip-path="url(#pd6c3eaf78b)" d="M 53.577138 97.060326 
L 53.577138 205.90605 
" style="fill:none;stroke:#000000;stroke-linecap:round;"/>
   </g>
   <g id="line2d_9">
    <path clip-path="url(#pd6c3eaf78b)" d="M 162.422862 205.90605 
L 162.422862 97.060326 
" style="fill:none;stroke:#000000;stroke-linecap:round;"/>
   </g>
   <g id="line2d_10">
    <path clip-path="url(#pd6c3eaf78b)" d="M 162.422862 205.90605 
L 53.577138 205.90605 
" style="fill:none;stroke:#000000;stroke-linecap:round;"/>
   </g>
   <g id="line2d_11">
    <path clip-path="url(#pd6c3eaf78b)" d="M 108 118.829471 
L 53.577138 97.060326 
" style="fill:none;stroke:#000000;stroke-linecap:round;"/>
   </g>
   <g id="line2d_12">
    <path clip-path="url(#pd6c3eaf78b)" d="M 108 118.829471 
L 162.422862 97.060326 
" style="fill:none;stroke:#000000;stroke-linecap:round;"/>
   </g>
   <g id="line2d_13">
    <path clip-path="url(#pd6c3eaf78b)" d="M 108 118.829471 
L 108 184.136905 
" style="fill:none;stroke:#000000;stroke-linecap:round;"/>
   </g>
   <g id="line2d_14">
    <path clip-path="url(#pd6c3eaf78b)" d="M 108 184.136905 
L 53.577138 205.90605 
" style="fill:none;stroke:#000000;stroke-linecap:round;"/>
   </g>
   <g id="line2d_15">
    <path clip-path="url(#pd6c3eaf78b)" d="M 108 184.136905 
L 162.422862 205.90605 
" style="fill:none;stroke:#000000;stroke-linecap:round;"/>
   </g>
   <g id="patch_2">
    <path clip-path="url(#pd6c3eaf78b)" d="M 105.278857 42.637463 
L 110.721143 42.637463 
L 57.658852 97.060326 
L 49.495423 97.060326 
z
" style="fill:#d75445;stroke:#333333;stroke-linejoin:miter;"/>
   </g>
   <g id="patch_3">
    <path clip-path="url(#pd6c3eaf78b)" d="M 105.278857 42.637463 
L 110.721143 42.637463 
L 166.504577 97.060326 
L 158.341148 97.060326 
z
" style="fill:#a3c2fe;stroke:#333333;stroke-linejoin:miter;"/>
   </g>
   <g id="patch_4">
    <path clip-path="url(#pd6c3eaf78b)" d="M 105.278857 42.637463 
L 110.721143 42.637463 
L 109.360572 118.829471 
L 106.639428 118.829471 
z
" style="fill:#f6bda2;stroke:#333333;stroke-linejoin:miter;"/>
   </g>
   <g id="patch_5">
    <path clip-path="url(#pd6c3eaf78b)" d="M 105.278857 260.328913 
L 110.721143 260.328913 
L 57.658852 205.90605 
L 49.495423 205.90605 
z
" style="fill:#e7745b;stroke:#333333;stroke-linejoin:miter;"/>
   </g>
   <g id="patch_6">
    <path clip-path="url(#pd6c3eaf78b)" d="M 105.278857 260.328913 
L 110.721143 260.328913 
L 166.504577 205.90605 
L 158.341148 205.90605 
z
" style="fill:#80a3fa;stroke:#333333;stroke-linejoin:miter;"/>
   </g>
   <g id="patch_7">
    <path clip-path="url(#pd6c3eaf78b)" d="M 105.278857 260.328913 
L 110.721143 260.328913 
L 109.360572 184.136905 
L 106.639428 184.136905 
z
" style="fill:#799cf8;stroke:#333333;stroke-linejoin:miter;"/>
   </g>
   <g id="patch_8">
    <path clip-path="url(#pd6c3eaf78b)" d="M 158.341148 97.060326 
L 166.504577 97.060326 
L 109.360572 118.829471 
L 106.639428 118.829471 
z
" style="fill:#b40426;stroke:#333333;stroke-linejoin:miter;"/>
   </g>
   <g id="patch_9">
    <path clip-path="url(#pd6c3eaf78b)" d="M 106.639428 118.829471 
L 109.360572 118.829471 
L 57.658852 97.060326 
L 49.495423 97.060326 
z
" style="fill:#dbdcde;stroke:#333333;stroke-linejoin:miter;"/>
   </g>
   <g id="patch_10">
    <path clip-path="url(#pd6c3eaf78b)" d="M 53.577138 101.14204 
L 53.577138 92.978611 
L 162.422862 92.978611 
L 162.422862 101.14204 
z
" style="fill:#3b4cc0;stroke:#333333;stroke-linejoin:miter;"/>
   </g>
   <g id="patch_11">
    <path clip-path="url(#pd6c3eaf78b)" d="M 158.341148 205.90605 
L 166.504577 205.90605 
L 109.360572 184.136905 
L 106.639428 184.136905 
z
" style="fill:#c4d5f3;stroke:#333333;stroke-linejoin:miter;"/>
   </g>
   <g id="patch_12">
    <path clip-path="url(#pd6c3eaf78b)" d="M 106.639428 184.136905 
L 109.360572 184.136905 
L 57.658852 205.90605 
L 49.495423 205.90605 
z
" style="fill:#a5c3fe;stroke:#333333;stroke-linejoin:miter;"/>
   </g>
   <g id="patch_13">
    <path clip-path="url(#pd6c3eaf78b)" d="M 53.577138 209.987765 
L 53.577138 201.824336 
L 162.422862 201.824336 
L 162.422862 209.987765 
z
" style="fill:#a9c6fd;stroke:#333333;stroke-linejoin:miter;"/>
   </g>
   <g id="patch_14">
    <path clip-path="url(#pd6c3eaf78b)" d="M 49.495423 97.060326 
L 57.658852 97.060326 
L 57.658852 205.90605 
L 49.495423 205.90605 
z
" style="fill:#ed8366;stroke:#333333;stroke-linejoin:miter;"/>
   </g>
   <g id="patch_15">
    <path clip-path="url(#pd6c3eaf78b)" d="M 158.341148 97.060326 
L 166.504577 97.060326 
L 166.504577 205.90605 
L 158.341148 205.90605 
z
" style="fill:#7b9ff9;stroke:#333333;stroke-linejoin:miter;"/>
   </g>
   <g id="patch_16">
    <path clip-path="url(#pd6c3eaf78b)" d="M 106.639428 118.829471 
L 109.360572 118.829471 
L 109.360572 184.136905 
L 106.639428 184.136905 
z
" style="fill:#c1d4f4;stroke:#333333;stroke-linejoin:miter;"/>
   </g>
   <g id="patch_17">
    <path clip-path="url(#pd6c3eaf78b)" d="M 108 48.07975 
C 109.443311 48.07975 110.827702 47.506316 111.848277 46.485741 
C 112.868853 45.465166 113.442286 44.080775 113.442286 42.637463 
C 113.442286 41.194152 112.868853 39.809761 111.848277 38.789186 
C 110.827702 37.768611 109.443311 37.195177 108 37.195177 
C 106.556689 37.195177 105.172298 37.768611 104.151723 38.789186 
C 103.131147 39.809761 102.557714 41.194152 102.557714 42.637463 
C 102.557714 44.080775 103.131147 45.465166 104.151723 46.485741 
C 105.172298 47.506316 106.556689 48.07975 108 48.07975 
z
" style="fill:#333333;stroke:#333333;stroke-linejoin:miter;"/>
   </g>
   <g id="patch_18">
    <path clip-path="url(#pd6c3eaf78b)" d="M 108 42.637463 
C 108 42.637463 108 42.637463 108 42.637463 
C 108 42.637463 108 42.637463 108 42.637463 
C 108 42.637463 108 42.637463 108 42.637463 
C 108 42.637463 108 42.637463 108 42.637463 
C 108 42.637463 108 42.637463 108 42.637463 
C 108 42.637463 108 42.637463 108 42.637463 
C 108 42.637463 108 42.637463 108 42.637463 
C 108 42.637463 108 42.637463 108 42.637463 
z
" style="fill:#333333;stroke:#333333;stroke-linejoin:miter;"/>
   </g>
   <g id="patch_19">
    <path clip-path="url(#pd6c3eaf78b)" d="M 108 48.07975 
C 109.443311 48.07975 110.827702 47.506316 111.848277 46.485741 
C 112.868853 45.465166 113.442286 44.080775 113.442286 42.637463 
C 113.442286 41.194152 112.868853 39.809761 111.848277 38.789186 
C 110.827702 37.768611 109.443311 37.195177 108 37.195177 
C 106.556689 37.195177 105.172298 37.768611 104.151723 38.789186 
C 103.131147 39.809761 102.557714 41.194152 102.557714 42.637463 
C 102.557714 44.080775 103.131147 45.465166 104.151723 46.485741 
C 105.172298 47.506316 106.556689 48.07975 108 48.07975 
z
" style="fill:#333333;stroke:#333333;stroke-linejoin:miter;"/>
   </g>
   <g id="patch_20">
    <path clip-path="url(#pd6c3eaf78b)" d="M 108 42.637463 
C 108 42.637463 108 42.637463 108 42.637463 
C 108 42.637463 108 42.637463 108 42.637463 
C 108 42.637463 108 42.637463 108 42.637463 
C 108 42.637463 108 42.637463 108 42.637463 
C 108 42.637463 108 42.637463 108 42.637463 
C 108 42.637463 108 42.637463 108 42.637463 
C 108 42.637463 108 42.637463 108 42.637463 
C 108 42.637463 108 42.637463 108 42.637463 
z
" style="fill:#333333;stroke:#333333;stroke-linejoin:miter;"/>
   </g>
   <g id="patch_21">
    <path clip-path="url(#pd6c3eaf78b)" d="M 108 48.07975 
C 109.443311 48.07975 110.827702 47.506316 111.848277 46.485741 
C 112.868853 45.465166 113.442286 44.080775 113.442286 42.637463 
C 113.442286 41.194152 112.868853 39.809761 111.848277 38.789186 
C 110.827702 37.768611 109.443311 37.195177 108 37.195177 
C 106.556689 37.195177 105.172298 37.768611 104.151723 38.789186 
C 103.131147 39.809761 102.557714 41.194152 102.557714 42.637463 
C 102.557714 44.080775 103.131147 45.465166 104.151723 46.485741 
C 105.172298 47.506316 106.556689 48.07975 108 48.07975 
z
" style="fill:#333333;stroke:#333333;stroke-linejoin:miter;"/>
   </g>
   <g id="patch_22">
    <path clip-path="url(#pd6c3eaf78b)" d="M 108 42.637463 
C 108 42.637463 108 42.637463 108 42.637463 
C 108 42.637463 108 42.637463 108 42.637463 
C 108 42.637463 108 42.637463 108 42.637463 
C 108 42.637463 108 42.637463 108 42.637463 
C 108 42.637463 108 42.637463 108 42.637463 
C 108 42.637463 108 42.637463 108 42.637463 
C 108 42.637463 108 42.637463 108 42.637463 
C 108 42.637463 108 42.637463 108 42.637463 
z
" style="fill:#333333;stroke:#333333;stroke-linejoin:miter;"/>
   </g>
   <g id="patch_23">
    <path clip-path="url(#pd6c3eaf78b)" d="M 108 265.771199 
C 109.443311 265.771199 110.827702 265.197765 111.848277 264.17719 
C 112.868853 263.156615 113.442286 261.772224 113.442286 260.328913 
C 113.442286 258.885602 112.868853 257.50121 111.848277 256.480635 
C 110.827702 255.46006 109.443311 254.886626 108 254.886626 
C 106.556689 254.886626 105.172298 255.46006 104.151723 256.480635 
C 103.131147 257.50121 102.557714 258.885602 102.557714 260.328913 
C 102.557714 261.772224 103.131147 263.156615 104.151723 264.17719 
C 105.172298 265.197765 106.556689 265.771199 108 265.771199 
z
" style="fill:#333333;stroke:#333333;stroke-linejoin:miter;"/>
   </g>
   <g id="patch_24">
    <path clip-path="url(#pd6c3eaf78b)" d="M 108 260.328913 
C 108 260.328913 108 260.328913 108 260.328913 
C 108 260.328913 108 260.328913 108 260.328913 
C 108 260.328913 108 260.328913 108 260.328913 
C 108 260.328913 108 260.328913 108 260.328913 
C 108 260.328913 108 260.328913 108 260.328913 
C 108 260.328913 108 260.328913 108 260.328913 
C 108 260.328913 108 260.328913 108 260.328913 
C 108 260.328913 108 260.328913 108 260.328913 
z
" style="fill:#333333;stroke:#333333;stroke-linejoin:miter;"/>
   </g>
   <g id="patch_25">
    <path clip-path="url(#pd6c3eaf78b)" d="M 108 265.771199 
C 109.443311 265.771199 110.827702 265.197765 111.848277 264.17719 
C 112.868853 263.156615 113.442286 261.772224 113.442286 260.328913 
C 113.442286 258.885602 112.868853 257.50121 111.848277 256.480635 
C 110.827702 255.46006 109.443311 254.886626 108 254.886626 
C 106.556689 254.886626 105.172298 255.46006 104.151723 256.480635 
C 103.131147 257.50121 102.557714 258.885602 102.557714 260.328913 
C 102.557714 261.772224 103.131147 263.156615 104.151723 264.17719 
C 105.172298 265.197765 106.556689 265.771199 108 265.771199 
z
" style="fill:#333333;stroke:#333333;stroke-linejoin:miter;"/>
   </g>
   <g id="patch_26">
    <path clip-path="url(#pd6c3eaf78b)" d="M 108 260.328913 
C 108 260.328913 108 260.328913 108 260.328913 
C 108 260.328913 108 260.328913 108 260.328913 
C 108 260.328913 108 260.328913 108 260.328913 
C 108 260.328913 108 260.328913 108 260.328913 
C 108 260.328913 108 260.328913 108 260.328913 
C 108 260.328913 108 260.328913 108 260.328913 
C 108 260.328913 108 260.328913 108 260.328913 
C 108 260.328913 108 260.328913 108 260.328913 
z
" style="fill:#333333;stroke:#333333;stroke-linejoin:miter;"/>
   </g>
   <g id="patch_27">
    <path clip-path="url(#pd6c3eaf78b)" d="M 108 265.771199 
C 109.443311 265.771199 110.827702 265.197765 111.848277 264.17719 
C 112.868853 263.156615 113.442286 261.772224 113.442286 260.328913 
C 113.442286 258.885602 112.868853 257.50121 111.848277 256.480635 
C 110.827702 255.46006 109.443311 254.886626 108 254.886626 
C 106.556689 254.886626 105.172298 255.46006 104.151723 256.480635 
C 103.131147 257.50121 102.557714 258.885602 102.557714 260.328913 
C 102.557714 261.772224 103.131147 263.156615 104.151723 264.17719 
C 105.172298 265.197765 106.556689 265.771199 108 265.771199 
z
" style="fill:#333333;stroke:#333333;stroke-linejoin:miter;"/>
   </g>
   <g id="patch_28">
    <path clip-path="url(#pd6c3eaf78b)" d="M 108 260.328913 
C 108 260.328913 108 260.328913 108 260.328913 
C 108 260.328913 108 260.328913 108 260.328913 
C 108 260.328913 108 260.328913 108 260.328913 
C 108 260.328913 108 260.328913 108 260.328913 
C 108 260.328913 108 260.328913 108 260.328913 
C 108 260.328913 108 260.328913 108 260.328913 
C 108 260.328913 108 260.328913 108 260.328913 
C 108 260.328913 108 260.328913 108 260.328913 
z
" style="fill:#333333;stroke:#333333;stroke-linejoin:miter;"/>
   </g>
   <g id="patch_29">
    <path clip-path="url(#pd6c3eaf78b)" d="M 162.422862 105.223755 
C 164.587829 105.223755 166.664416 104.363605 168.195279 102.832742 
C 169.726141 101.301879 170.586292 99.225292 170.586292 97.060326 
C 170.586292 94.895359 169.726141 92.818772 168.195279 91.287909 
C 166.664416 89.757047 164.587829 88.896896 162.422862 88.896896 
C 160.257896 88.896896 158.181309 89.757047 156.650446 91.287909 
C 155.119583 92.818772 154.259433 94.895359 154.259433 97.060326 
C 154.259433 99.225292 155.119583 101.301879 156.650446 102.832742 
C 158.181309 104.363605 160.257896 105.223755 162.422862 105.223755 
z
" style="fill:#333333;stroke:#333333;stroke-linejoin:miter;"/>
   </g>
   <g id="patch_30">
    <path clip-path="url(#pd6c3eaf78b)" d="M 162.422862 97.060326 
C 162.422862 97.060326 162.422862 97.060326 162.422862 97.060326 
C 162.422862 97.060326 162.422862 97.060326 162.422862 97.060326 
C 162.422862 97.060326 162.422862 97.060326 162.422862 97.060326 
C 162.422862 97.060326 162.422862 97.060326 162.422862 97.060326 
C 162.422862 97.060326 162.422862 97.060326 162.422862 97.060326 
C 162.422862 97.060326 162.422862 97.060326 162.422862 97.060326 
C 162.422862 97.060326 162.422862 97.060326 162.422862 97.060326 
C 162.422862 97.060326 162.422862 97.060326 162.422862 97.060326 
z
" style="fill:#333333;stroke:#333333;stroke-linejoin:miter;"/>
   </g>
   <g id="patch_31">
    <path clip-path="url(#pd6c3eaf78b)" d="M 108 121.550614 
C 108.721656 121.550614 109.413851 121.263897 109.924139 120.753609 
C 110.434426 120.243322 110.721143 119.551126 110.721143 118.829471 
C 110.721143 118.107815 110.434426 117.415619 109.924139 116.905332 
C 109.413851 116.395044 108.721656 116.108328 108 116.108328 
C 107.278344 116.108328 106.586149 116.395044 106.075861 116.905332 
C 105.565574 117.415619 105.278857 118.107815 105.278857 118.829471 
C 105.278857 119.551126 105.565574 120.243322 106.075861 120.753609 
C 106.586149 121.263897 107.278344 121.550614 108 121.550614 
z
" style="fill:#333333;stroke:#333333;stroke-linejoin:miter;"/>
   </g>
   <g id="patch_32">
    <path clip-path="url(#pd6c3eaf78b)" d="M 108 118.829471 
C 108 118.829471 108 118.829471 108 118.829471 
C 108 118.829471 108 118.829471 108 118.829471 
C 108 118.829471 108 118.829471 108 118.829471 
C 108 118.829471 108 118.829471 108 118.829471 
C 108 118.829471 108 118.829471 108 118.829471 
C 108 118.829471 108 118.829471 108 118.829471 
C 108 118.829471 108 118.829471 108 118.829471 
C 108 118.829471 108 118.829471 108 118.829471 
z
" style="fill:#333333;stroke:#333333;stroke-linejoin:miter;"/>
   </g>
   <g id="patch_33">
    <path clip-path="url(#pd6c3eaf78b)" d="M 53.577138 97.060326 
C 53.577138 97.060326 53.577138 97.060326 53.577138 97.060326 
C 53.577138 97.060326 53.577138 97.060326 53.577138 97.060326 
C 53.577138 97.060326 53.577138 97.060326 53.577138 97.060326 
C 53.577138 97.060326 53.577138 97.060326 53.577138 97.060326 
C 53.577138 97.060326 53.577138 97.060326 53.577138 97.060326 
C 53.577138 97.060326 53.577138 97.060326 53.577138 97.060326 
C 53.577138 97.060326 53.577138 97.060326 53.577138 97.060326 
C 53.577138 97.060326 53.577138 97.060326 53.577138 97.060326 
z
" style="fill:#333333;stroke:#333333;stroke-linejoin:miter;"/>
   </g>
   <g id="patch_34">
    <path clip-path="url(#pd6c3eaf78b)" d="M 53.577138 105.223755 
C 55.742104 105.223755 57.818691 104.363605 59.349554 102.832742 
C 60.880417 101.301879 61.740567 99.225292 61.740567 97.060326 
C 61.740567 94.895359 60.880417 92.818772 59.349554 91.287909 
C 57.818691 89.757047 55.742104 88.896896 53.577138 88.896896 
C 51.412171 88.896896 49.335584 89.757047 47.804721 91.287909 
C 46.273859 92.818772 45.413708 94.895359 45.413708 97.060326 
C 45.413708 99.225292 46.273859 101.301879 47.804721 102.832742 
C 49.335584 104.363605 51.412171 105.223755 53.577138 105.223755 
z
" style="fill:#333333;stroke:#333333;stroke-linejoin:miter;"/>
   </g>
   <g id="patch_35">
    <path clip-path="url(#pd6c3eaf78b)" d="M 162.422862 214.06948 
C 164.587829 214.06948 166.664416 213.209329 168.195279 211.678467 
C 169.726141 210.147604 170.586292 208.071017 170.586292 205.90605 
C 170.586292 203.741084 169.726141 201.664497 168.195279 200.133634 
C 166.664416 198.602771 164.587829 197.742621 162.422862 197.742621 
C 160.257896 197.742621 158.181309 198.602771 156.650446 200.133634 
C 155.119583 201.664497 154.259433 203.741084 154.259433 205.90605 
C 154.259433 208.071017 155.119583 210.147604 156.650446 211.678467 
C 158.181309 213.209329 160.257896 214.06948 162.422862 214.06948 
z
" style="fill:#333333;stroke:#333333;stroke-linejoin:miter;"/>
   </g>
   <g id="patch_36">
    <path clip-path="url(#pd6c3eaf78b)" d="M 162.422862 205.90605 
C 162.422862 205.90605 162.422862 205.90605 162.422862 205.90605 
C 162.422862 205.90605 162.422862 205.90605 162.422862 205.90605 
C 162.422862 205.90605 162.422862 205.90605 162.422862 205.90605 
C 162.422862 205.90605 162.422862 205.90605 162.422862 205.90605 
C 162.422862 205.90605 162.422862 205.90605 162.422862 205.90605 
C 162.422862 205.90605 162.422862 205.90605 162.422862 205.90605 
C 162.422862 205.90605 162.422862 205.90605 162.422862 205.90605 
C 162.422862 205.90605 162.422862 205.90605 162.422862 205.90605 
z
" style="fill:#333333;stroke:#333333;stroke-linejoin:miter;"/>
   </g>
   <g id="patch_37">
    <path clip-path="url(#pd6c3eaf78b)" d="M 108 186.858049 
C 108.721656 186.858049 109.413851 186.571332 109.924139 186.061044 
C 110.434426 185.550757 110.721143 184.858561 110.721143 184.136905 
C 110.721143 183.41525 110.434426 182.723054 109.924139 182.212767 
C 109.413851 181.702479 108.721656 181.415762 108 181.415762 
C 107.278344 181.415762 106.586149 181.702479 106.075861 182.212767 
C 105.565574 182.723054 105.278857 183.41525 105.278857 184.136905 
C 105.278857 184.858561 105.565574 185.550757 106.075861 186.061044 
C 106.586149 186.571332 107.278344 186.858049 108 186.858049 
z
" style="fill:#333333;stroke:#333333;stroke-linejoin:miter;"/>
   </g>
   <g id="patch_38">
    <path clip-path="url(#pd6c3eaf78b)" d="M 108 184.136905 
C 108 184.136905 108 184.136905 108 184.136905 
C 108 184.136905 108 184.136905 108 184.136905 
C 108 184.136905 108 184.136905 108 184.136905 
C 108 184.136905 108 184.136905 108 184.136905 
C 108 184.136905 108 184.136905 108 184.136905 
C 108 184.136905 108 184.136905 108 184.136905 
C 108 184.136905 108 184.136905 108 184.136905 
C 108 184.136905 108 184.136905 108 184.136905 
z
" style="fill:#333333;stroke:#333333;stroke-linejoin:miter;"/>
   </g>
   <g id="patch_39">
    <path clip-path="url(#pd6c3eaf78b)" d="M 53.577138 205.90605 
C 53.577138 205.90605 53.577138 205.90605 53.577138 205.90605 
C 53.577138 205.90605 53.577138 205.90605 53.577138 205.90605 
C 53.577138 205.90605 53.577138 205.90605 53.577138 205.90605 
C 53.577138 205.90605 53.577138 205.90605 53.577138 205.90605 
C 53.577138 205.90605 53.577138 205.90605 53.577138 205.90605 
C 53.577138 205.90605 53.577138 205.90605 53.577138 205.90605 
C 53.577138 205.90605 53.577138 205.90605 53.577138 205.90605 
C 53.577138 205.90605 53.577138 205.90605 53.577138 205.90605 
z
" style="fill:#333333;stroke:#333333;stroke-linejoin:miter;"/>
   </g>
   <g id="patch_40">
    <path clip-path="url(#pd6c3eaf78b)" d="M 53.577138 214.06948 
C 55.742104 214.06948 57.818691 213.209329 59.349554 211.678467 
C 60.880417 210.147604 61.740567 208.071017 61.740567 205.90605 
C 61.740567 203.741084 60.880417 201.664497 59.349554 200.133634 
C 57.818691 198.602771 55.742104 197.742621 53.577138 197.742621 
C 51.412171 197.742621 49.335584 198.602771 47.804721 200.133634 
C 46.273859 201.664497 45.413708 203.741084 45.413708 205.90605 
C 45.413708 208.071017 46.273859 210.147604 47.804721 211.678467 
C 49.335584 213.209329 51.412171 214.06948 53.577138 214.06948 
z
" style="fill:#333333;stroke:#333333;stroke-linejoin:miter;"/>
   </g>
   <g id="patch_41">
    <path clip-path="url(#pd6c3eaf78b)" d="M 53.577138 105.223755 
C 55.742104 105.223755 57.818691 104.363605 59.349554 102.832742 
C 60.880417 101.301879 61.740567 99.225292 61.740567 97.060326 
C 61.740567 94.895359 60.880417 92.818772 59.349554 91.287909 
C 57.818691 89.757047 55.742104 88.896896 53.577138 88.896896 
C 51.412171 88.896896 49.335584 89.757047 47.804721 91.287909 
C 46.273859 92.818772 45.413708 94.895359 45.413708 97.060326 
C 45.413708 99.225292 46.273859 101.301879 47.804721 102.832742 
C 49.335584 104.363605 51.412171 105.223755 53.577138 105.223755 
z
" style="fill:#333333;stroke:#333333;stroke-linejoin:miter;"/>
   </g>
   <g id="patch_42">
    <path clip-path="url(#pd6c3eaf78b)" d="M 53.577138 97.060326 
C 53.577138 97.060326 53.577138 97.060326 53.577138 97.060326 
C 53.577138 97.060326 53.577138 97.060326 53.577138 97.060326 
C 53.577138 97.060326 53.577138 97.060326 53.577138 97.060326 
C 53.577138 97.060326 53.577138 97.060326 53.577138 97.060326 
C 53.577138 97.060326 53.577138 97.060326 53.577138 97.060326 
C 53.577138 97.060326 53.577138 97.060326 53.577138 97.060326 
C 53.577138 97.060326 53.577138 97.060326 53.577138 97.060326 
C 53.577138 97.060326 53.577138 97.060326 53.577138 97.060326 
z
" style="fill:#333333;stroke:#333333;stroke-linejoin:miter;"/>
   </g>
   <g id="patch_43">
    <path clip-path="url(#pd6c3eaf78b)" d="M 162.422862 105.223755 
C 164.587829 105.223755 166.664416 104.363605 168.195279 102.832742 
C 169.726141 101.301879 170.586292 99.225292 170.586292 97.060326 
C 170.586292 94.895359 169.726141 92.818772 168.195279 91.287909 
C 166.664416 89.757047 164.587829 88.896896 162.422862 88.896896 
C 160.257896 88.896896 158.181309 89.757047 156.650446 91.287909 
C 155.119583 92.818772 154.259433 94.895359 154.259433 97.060326 
C 154.259433 99.225292 155.119583 101.301879 156.650446 102.832742 
C 158.181309 104.363605 160.257896 105.223755 162.422862 105.223755 
z
" style="fill:#333333;stroke:#333333;stroke-linejoin:miter;"/>
   </g>
   <g id="patch_44">
    <path clip-path="url(#pd6c3eaf78b)" d="M 162.422862 97.060326 
C 162.422862 97.060326 162.422862 97.060326 162.422862 97.060326 
C 162.422862 97.060326 162.422862 97.060326 162.422862 97.060326 
C 162.422862 97.060326 162.422862 97.060326 162.422862 97.060326 
C 162.422862 97.060326 162.422862 97.060326 162.422862 97.060326 
C 162.422862 97.060326 162.422862 97.060326 162.422862 97.060326 
C 162.422862 97.060326 162.422862 97.060326 162.422862 97.060326 
C 162.422862 97.060326 162.422862 97.060326 162.422862 97.060326 
C 162.422862 97.060326 162.422862 97.060326 162.422862 97.060326 
z
" style="fill:#333333;stroke:#333333;stroke-linejoin:miter;"/>
   </g>
   <g id="patch_45">
    <path clip-path="url(#pd6c3eaf78b)" d="M 108 121.550614 
C 108.721656 121.550614 109.413851 121.263897 109.924139 120.753609 
C 110.434426 120.243322 110.721143 119.551126 110.721143 118.829471 
C 110.721143 118.107815 110.434426 117.415619 109.924139 116.905332 
C 109.413851 116.395044 108.721656 116.108328 108 116.108328 
C 107.278344 116.108328 106.586149 116.395044 106.075861 116.905332 
C 105.565574 117.415619 105.278857 118.107815 105.278857 118.829471 
C 105.278857 119.551126 105.565574 120.243322 106.075861 120.753609 
C 106.586149 121.263897 107.278344 121.550614 108 121.550614 
z
" style="fill:#333333;stroke:#333333;stroke-linejoin:miter;"/>
   </g>
   <g id="patch_46">
    <path clip-path="url(#pd6c3eaf78b)" d="M 108 118.829471 
C 108 118.829471 108 118.829471 108 118.829471 
C 108 118.829471 108 118.829471 108 118.829471 
C 108 118.829471 108 118.829471 108 118.829471 
C 108 118.829471 108 118.829471 108 118.829471 
C 108 118.829471 108 118.829471 108 118.829471 
C 108 118.829471 108 118.829471 108 118.829471 
C 108 118.829471 108 118.829471 108 118.829471 
C 108 118.829471 108 118.829471 108 118.829471 
z
" style="fill:#333333;stroke:#333333;stroke-linejoin:miter;"/>
   </g>
   <g id="text_1">
    <g id="patch_47">
     <path d="M 55.328411 71.848895 
L 80.788569 71.848895 
Q 82.788569 71.848895 82.788569 69.848895 
L 82.788569 60.993218 
Q 82.788569 58.993218 80.788569 58.993218 
L 55.328411 58.993218 
Q 53.328411 58.993218 53.328411 60.993218 
L 53.328411 69.848895 
Q 53.328411 71.848895 55.328411 71.848895 
z
" style="fill:#ffffff;stroke:#333333;stroke-linejoin:miter;"/>
    </g>
    <!-- +0.07 -->
    <g style="fill:#262626;" transform="translate(55.328411 67.911716)scale(0.1 -0.1)">
     <defs>
      <path d="M 37.703125 23 
L 64.203125 23 
C 65.59375 23 67.296875 23 67.296875 24.6875 
C 67.296875 26.5 65.703125 26.5 64.203125 26.5 
L 37.703125 26.5 
L 37.703125 52.890625 
C 37.703125 54.296875 37.703125 56 36 56 
C 34.203125 56 34.203125 54.390625 34.203125 52.890625 
L 34.203125 26.5 
L 7.703125 26.5 
C 6.296875 26.5 4.59375 26.5 4.59375 24.796875 
C 4.59375 23 6.203125 23 7.703125 23 
L 34.203125 23 
L 34.203125 -3.03125 
C 34.203125 -4.40625 34.203125 -6.109375 35.90625 -6.109375 
C 37.703125 -6.109375 37.703125 -4.515625 37.703125 -3.03125 
z
" id="CMR17-43"/>
      <path d="M 42 31.84375 
C 42 37.96875 41.90625 48.421875 37.703125 56.453125 
C 34 63.484375 28.09375 66 22.90625 66 
C 18.09375 66 12 63.78125 8.203125 56.5625 
C 4.203125 49.015625 3.796875 39.671875 3.796875 31.84375 
C 3.796875 26.109375 3.90625 17.375 7 9.734375 
C 11.296875 -0.609375 19 -2 22.90625 -2 
C 27.5 -2 34.5 -0.109375 38.59375 9.4375 
C 41.59375 16.375 42 24.5 42 31.84375 
z
M 22.90625 -0.40625 
C 16.5 -0.40625 12.703125 5.125 11.296875 12.75 
C 10.203125 18.6875 10.203125 27.328125 10.203125 32.953125 
C 10.203125 40.6875 10.203125 47.109375 11.5 53.234375 
C 13.40625 61.78125 19 64.390625 22.90625 64.390625 
C 27 64.390625 32.296875 61.671875 34.203125 53.4375 
C 35.5 47.71875 35.59375 40.984375 35.59375 32.953125 
C 35.59375 26.421875 35.59375 18.375 34.40625 12.453125 
C 32.296875 1.5 26.40625 -0.40625 22.90625 -0.40625 
z
" id="CMR17-48"/>
      <path d="M 16.59375 4.09375 
C 16.59375 6.59375 14.59375 8.1875 12.5 8.1875 
C 10.5 8.1875 8.40625 6.59375 8.40625 4.09375 
C 8.40625 1.59375 10.40625 0 12.5 0 
C 14.5 0 16.59375 1.59375 16.59375 4.09375 
z
" id="CMR17-46"/>
      <path d="M 45.09375 61.796875 
L 45.09375 64 
L 21.59375 64 
C 9.90625 64 9.703125 65.09375 9.296875 67 
L 7.5 67 
L 4.59375 48.5 
L 6.40625 48.5 
C 6.703125 50.40625 7.40625 55.5 8.59375 57.390625 
C 9.203125 58.1875 16.59375 58.1875 18.296875 58.1875 
L 40.296875 58.1875 
L 29.203125 41.71875 
C 21.796875 30.640625 16.703125 15.671875 16.703125 2.59375 
C 16.703125 1.390625 16.703125 -2 20.296875 -2 
C 23.90625 -2 23.90625 1.390625 23.90625 2.6875 
L 23.90625 7.28125 
C 23.90625 23.65625 26.703125 34.4375 31.296875 41.3125 
z
" id="CMR17-55"/>
     </defs>
     <use transform="scale(0.996264)" xlink:href="#CMR17-43"/>
     <use transform="translate(71.714788 0)scale(0.996264)" xlink:href="#CMR17-48"/>
     <use transform="translate(117.405266 0)scale(0.996264)" xlink:href="#CMR17-46"/>
     <use transform="translate(142.276324 0)scale(0.996264)" xlink:href="#CMR17-48"/>
     <use transform="translate(187.966801 0)scale(0.996264)" xlink:href="#CMR17-55"/>
    </g>
   </g>
   <g id="text_2">
    <g id="patch_48">
     <path d="M 135.211431 71.848895 
L 156.24372 71.848895 
Q 158.24372 71.848895 158.24372 69.848895 
L 158.24372 60.993218 
Q 158.24372 58.993218 156.24372 58.993218 
L 135.211431 58.993218 
Q 133.211431 58.993218 133.211431 60.993218 
L 133.211431 69.848895 
Q 133.211431 71.848895 135.211431 71.848895 
z
" style="fill:#ffffff;stroke:#333333;stroke-linejoin:miter;"/>
    </g>
    <!-- -0.01 -->
    <g style="fill:#262626;" transform="translate(135.211431 67.911716)scale(0.1 -0.1)">
     <defs>
      <path d="M 25.5 19.59375 
L 25.5 24 
L 0.40625 24 
L 0.40625 19.59375 
z
" id="CMR17-45"/>
      <path d="M 26.59375 63.796875 
C 26.59375 65.890625 26.5 66 25.09375 66 
C 21.203125 61.359375 15.296875 59.890625 9.703125 59.6875 
C 9.40625 59.6875 8.90625 59.6875 8.796875 59.5 
C 8.703125 59.296875 8.703125 59.09375 8.703125 57 
C 11.796875 57 17 57.59375 21 59.984375 
L 21 7.296875 
C 21 3.796875 20.796875 2.59375 12.203125 2.59375 
L 9.203125 2.59375 
L 9.203125 0 
C 14 0.09375 19 0.1875 23.796875 0.1875 
C 28.59375 0.1875 33.59375 0.09375 38.40625 0 
L 38.40625 2.59375 
L 35.40625 2.59375 
C 26.796875 2.59375 26.59375 3.6875 26.59375 7.296875 
z
" id="CMR17-49"/>
     </defs>
     <use transform="scale(0.996264)" xlink:href="#CMR17-45"/>
     <use transform="translate(30.075966 0)scale(0.996264)" xlink:href="#CMR17-48"/>
     <use transform="translate(75.766443 0)scale(0.996264)" xlink:href="#CMR17-46"/>
     <use transform="translate(100.637502 0)scale(0.996264)" xlink:href="#CMR17-48"/>
     <use transform="translate(146.327979 0)scale(0.996264)" xlink:href="#CMR17-49"/>
    </g>
   </g>
   <g id="text_3">
    <g id="patch_49">
     <path d="M 95.269921 82.733467 
L 120.730079 82.733467 
Q 122.730079 82.733467 122.730079 80.733467 
L 122.730079 71.87779 
Q 122.730079 69.87779 120.730079 69.87779 
L 95.269921 69.87779 
Q 93.269921 69.87779 93.269921 71.87779 
L 93.269921 80.733467 
Q 93.269921 82.733467 95.269921 82.733467 
z
" style="fill:#ffffff;stroke:#333333;stroke-linejoin:miter;"/>
    </g>
    <!-- +0.04 -->
    <g style="fill:#262626;" transform="translate(95.269921 78.796289)scale(0.1 -0.1)">
     <defs>
      <path d="M 33.59375 64.796875 
C 33.59375 66.890625 33.5 67 31.703125 67 
L 2 19.59375 
L 2 17 
L 27.796875 17 
L 27.796875 7.1875 
C 27.796875 3.59375 27.59375 2.59375 20.59375 2.59375 
L 18.703125 2.59375 
L 18.703125 0 
C 21.90625 0.1875 27.296875 0.1875 30.703125 0.1875 
C 34.09375 0.1875 39.5 0.1875 42.703125 0 
L 42.703125 2.59375 
L 40.796875 2.59375 
C 33.796875 2.59375 33.59375 3.59375 33.59375 7.1875 
L 33.59375 17 
L 43.796875 17 
L 43.796875 19.59375 
L 33.59375 19.59375 
z
M 28.09375 58.171875 
L 28.09375 19.59375 
L 4 19.59375 
z
" id="CMR17-52"/>
     </defs>
     <use transform="scale(0.996264)" xlink:href="#CMR17-43"/>
     <use transform="translate(71.714788 0)scale(0.996264)" xlink:href="#CMR17-48"/>
     <use transform="translate(117.405266 0)scale(0.996264)" xlink:href="#CMR17-46"/>
     <use transform="translate(142.276324 0)scale(0.996264)" xlink:href="#CMR17-48"/>
     <use transform="translate(187.966801 0)scale(0.996264)" xlink:href="#CMR17-52"/>
    </g>
   </g>
   <g id="text_4">
    <g id="patch_50">
     <path d="M 55.328411 243.973158 
L 80.788569 243.973158 
Q 82.788569 243.973158 82.788569 241.973158 
L 82.788569 233.117482 
Q 82.788569 231.117482 80.788569 231.117482 
L 55.328411 231.117482 
Q 53.328411 231.117482 53.328411 233.117482 
L 53.328411 241.973158 
Q 53.328411 243.973158 55.328411 243.973158 
z
" style="fill:#ffffff;stroke:#333333;stroke-linejoin:miter;"/>
    </g>
    <!-- +0.06 -->
    <g style="fill:#262626;" transform="translate(55.328411 240.03598)scale(0.1 -0.1)">
     <defs>
      <path d="M 10.59375 34.34375 
C 10.59375 58 21.796875 63.6875 28.296875 63.6875 
C 30.40625 63.6875 35.5 63.265625 37.5 59.09375 
C 35.90625 59.09375 32.90625 59.09375 32.90625 55.59375 
C 32.90625 52.890625 35.09375 52 36.5 52 
C 37.40625 52 40.09375 52.390625 40.09375 55.796875 
C 40.09375 62.296875 35.09375 66 28.203125 66 
C 16.296875 66 3.796875 53.296875 3.796875 31.421875 
C 3.796875 4.015625 15.09375 -2 23.09375 -2 
C 32.796875 -2 42 6.734375 42 20.234375 
C 42 32.828125 33.90625 42 23.703125 42 
C 17.59375 42 13.09375 37.96875 10.59375 30.921875 
z
M 23.09375 0.390625 
C 10.796875 0.390625 10.796875 18.9375 10.796875 22.65625 
C 10.796875 29.90625 14.203125 40.390625 23.5 40.390625 
C 25.203125 40.390625 30.09375 40.390625 33.40625 33.4375 
C 35.203125 29.515625 35.203125 25.375 35.203125 20.34375 
C 35.203125 14.90625 35.203125 10.875 33.09375 6.84375 
C 30.90625 2.703125 27.703125 0.390625 23.09375 0.390625 
z
" id="CMR17-54"/>
     </defs>
     <use transform="scale(0.996264)" xlink:href="#CMR17-43"/>
     <use transform="translate(71.714788 0)scale(0.996264)" xlink:href="#CMR17-48"/>
     <use transform="translate(117.405266 0)scale(0.996264)" xlink:href="#CMR17-46"/>
     <use transform="translate(142.276324 0)scale(0.996264)" xlink:href="#CMR17-48"/>
     <use transform="translate(187.966801 0)scale(0.996264)" xlink:href="#CMR17-54"/>
    </g>
   </g>
   <g id="text_5">
    <g id="patch_51">
     <path d="M 135.211431 243.973158 
L 156.24372 243.973158 
Q 158.24372 243.973158 158.24372 241.973158 
L 158.24372 233.117482 
Q 158.24372 231.117482 156.24372 231.117482 
L 135.211431 231.117482 
Q 133.211431 231.117482 133.211431 233.117482 
L 133.211431 241.973158 
Q 133.211431 243.973158 135.211431 243.973158 
z
" style="fill:#ffffff;stroke:#333333;stroke-linejoin:miter;"/>
    </g>
    <!-- -0.03 -->
    <g style="fill:#262626;" transform="translate(135.211431 240.03598)scale(0.1 -0.1)">
     <defs>
      <path d="M 22.09375 34 
C 31 34 34.90625 26.140625 34.90625 17.09375 
C 34.90625 5.03125 28.5 0.390625 22.703125 0.390625 
C 17.40625 0.390625 8.796875 3.015625 6.09375 10.796875 
C 6.59375 10.59375 7.09375 10.59375 7.59375 10.59375 
C 10 10.59375 11.796875 12.1875 11.796875 14.796875 
C 11.796875 17.6875 9.59375 19 7.59375 19 
C 5.90625 19 3.296875 18.1875 3.296875 14.484375 
C 3.296875 5.234375 12.296875 -2 22.90625 -2 
C 34 -2 42.5 6.75 42.5 16.984375 
C 42.5 26.84375 34.5 34 25 35.09375 
C 32.59375 36.671875 39.90625 43.375 39.90625 52.390625 
C 39.90625 60.25 32 66 23 66 
C 13.90625 66 5.90625 60.34375 5.90625 52.296875 
C 5.90625 48.796875 8.5 48.1875 9.796875 48.1875 
C 11.90625 48.1875 13.703125 49.484375 13.703125 52.09375 
C 13.703125 54.6875 11.90625 56 9.796875 56 
C 9.40625 56 8.90625 56 8.5 55.796875 
C 11.40625 62.484375 19.296875 63.6875 22.796875 63.6875 
C 26.296875 63.6875 32.90625 61.96875 32.90625 52.296875 
C 32.90625 49.484375 32.5 44.546875 29.09375 40.21875 
C 26.09375 36.390625 22.703125 36.1875 19.40625 35.890625 
C 18.90625 35.890625 16.59375 35.6875 16.203125 35.6875 
C 15.5 35.59375 15.09375 35.5 15.09375 34.796875 
C 15.09375 34.09375 15.203125 34 17.203125 34 
z
" id="CMR17-51"/>
     </defs>
     <use transform="scale(0.996264)" xlink:href="#CMR17-45"/>
     <use transform="translate(30.075966 0)scale(0.996264)" xlink:href="#CMR17-48"/>
     <use transform="translate(75.766443 0)scale(0.996264)" xlink:href="#CMR17-46"/>
     <use transform="translate(100.637502 0)scale(0.996264)" xlink:href="#CMR17-48"/>
     <use transform="translate(146.327979 0)scale(0.996264)" xlink:href="#CMR17-51"/>
    </g>
   </g>
   <g id="text_6">
    <g id="patch_52">
     <path d="M 97.483855 233.088586 
L 118.516145 233.088586 
Q 120.516145 233.088586 120.516145 231.088586 
L 120.516145 222.232909 
Q 120.516145 220.232909 118.516145 220.232909 
L 97.483855 220.232909 
Q 95.483855 220.232909 95.483855 222.232909 
L 95.483855 231.088586 
Q 95.483855 233.088586 97.483855 233.088586 
z
" style="fill:#ffffff;stroke:#333333;stroke-linejoin:miter;"/>
    </g>
    <!-- -0.03 -->
    <g style="fill:#262626;" transform="translate(97.483855 229.151407)scale(0.1 -0.1)">
     <use transform="scale(0.996264)" xlink:href="#CMR17-45"/>
     <use transform="translate(30.075966 0)scale(0.996264)" xlink:href="#CMR17-48"/>
     <use transform="translate(75.766443 0)scale(0.996264)" xlink:href="#CMR17-46"/>
     <use transform="translate(100.637502 0)scale(0.996264)" xlink:href="#CMR17-48"/>
     <use transform="translate(146.327979 0)scale(0.996264)" xlink:href="#CMR17-51"/>
    </g>
   </g>
   <g id="text_7">
    <g id="patch_53">
     <path d="M 135.211431 118.800575 
L 160.671589 118.800575 
Q 162.671589 118.800575 162.671589 116.800575 
L 162.671589 107.944898 
Q 162.671589 105.944898 160.671589 105.944898 
L 135.211431 105.944898 
Q 133.211431 105.944898 133.211431 107.944898 
L 133.211431 116.800575 
Q 133.211431 118.800575 135.211431 118.800575 
z
" style="fill:#ffffff;stroke:#333333;stroke-linejoin:miter;"/>
    </g>
    <!-- +0.09 -->
    <g style="fill:#262626;" transform="translate(135.211431 114.863397)scale(0.1 -0.1)">
     <defs>
      <path d="M 35.203125 29.234375 
C 35.203125 7 26.09375 0.390625 18.59375 0.390625 
C 16.296875 0.390625 10.703125 0.671875 8.40625 4.390625 
C 11 4 12.90625 5.390625 12.90625 7.890625 
C 12.90625 10.59375 10.703125 11.5 9.296875 11.5 
C 8.40625 11.5 5.703125 11.09375 5.703125 7.6875 
C 5.703125 1.0625 11.59375 -2 18.796875 -2 
C 30.296875 -2 42 10.390625 42 32.65625 
C 42 60.265625 30.796875 66 23.203125 66 
C 13.296875 66 3.796875 57.25 3.796875 43.75 
C 3.796875 31.25 11.90625 22 22.09375 22 
C 30.5 22 34.203125 29.84375 35.203125 33.15625 
z
M 22.296875 23.59375 
C 19.59375 23.59375 15.796875 24.09375 12.703125 30.140625 
C 10.59375 34.078125 10.59375 38.703125 10.59375 43.640625 
C 10.59375 49.59375 10.59375 53.71875 13.40625 58.15625 
C 14.796875 60.265625 17.40625 63.6875 23.203125 63.6875 
C 35 63.6875 35 45.453125 35 41.421875 
C 35 34.265625 31.796875 23.59375 22.296875 23.59375 
z
" id="CMR17-57"/>
     </defs>
     <use transform="scale(0.996264)" xlink:href="#CMR17-43"/>
     <use transform="translate(71.714788 0)scale(0.996264)" xlink:href="#CMR17-48"/>
     <use transform="translate(117.405266 0)scale(0.996264)" xlink:href="#CMR17-46"/>
     <use transform="translate(142.276324 0)scale(0.996264)" xlink:href="#CMR17-48"/>
     <use transform="translate(187.966801 0)scale(0.996264)" xlink:href="#CMR17-57"/>
    </g>
   </g>
   <g id="text_8">
    <g id="patch_54">
     <path d="M 55.328411 118.800575 
L 80.788569 118.800575 
Q 82.788569 118.800575 82.788569 116.800575 
L 82.788569 107.944898 
Q 82.788569 105.944898 80.788569 105.944898 
L 55.328411 105.944898 
Q 53.328411 105.944898 53.328411 107.944898 
L 53.328411 116.800575 
Q 53.328411 118.800575 55.328411 118.800575 
z
" style="fill:#ffffff;stroke:#333333;stroke-linejoin:miter;"/>
    </g>
    <!-- +0.01 -->
    <g style="fill:#262626;" transform="translate(55.328411 114.863397)scale(0.1 -0.1)">
     <use transform="scale(0.996264)" xlink:href="#CMR17-43"/>
     <use transform="translate(71.714788 0)scale(0.996264)" xlink:href="#CMR17-48"/>
     <use transform="translate(117.405266 0)scale(0.996264)" xlink:href="#CMR17-46"/>
     <use transform="translate(142.276324 0)scale(0.996264)" xlink:href="#CMR17-48"/>
     <use transform="translate(187.966801 0)scale(0.996264)" xlink:href="#CMR17-49"/>
    </g>
   </g>
   <g id="text_9">
    <g id="patch_55">
     <path d="M 97.483855 103.488164 
L 118.516145 103.488164 
Q 120.516145 103.488164 120.516145 101.488164 
L 120.516145 92.632487 
Q 120.516145 90.632487 118.516145 90.632487 
L 97.483855 90.632487 
Q 95.483855 90.632487 95.483855 92.632487 
L 95.483855 101.488164 
Q 95.483855 103.488164 97.483855 103.488164 
z
" style="fill:#ffffff;stroke:#333333;stroke-linejoin:miter;"/>
    </g>
    <!-- -0.06 -->
    <g style="fill:#262626;" transform="translate(97.483855 99.550986)scale(0.1 -0.1)">
     <use transform="scale(0.996264)" xlink:href="#CMR17-45"/>
     <use transform="translate(30.075966 0)scale(0.996264)" xlink:href="#CMR17-48"/>
     <use transform="translate(75.766443 0)scale(0.996264)" xlink:href="#CMR17-46"/>
     <use transform="translate(100.637502 0)scale(0.996264)" xlink:href="#CMR17-48"/>
     <use transform="translate(146.327979 0)scale(0.996264)" xlink:href="#CMR17-54"/>
    </g>
   </g>
   <g id="text_10">
    <g id="patch_56">
     <path d="M 135.211431 197.021478 
L 156.24372 197.021478 
Q 158.24372 197.021478 158.24372 195.021478 
L 158.24372 186.165801 
Q 158.24372 184.165801 156.24372 184.165801 
L 135.211431 184.165801 
Q 133.211431 184.165801 133.211431 186.165801 
L 133.211431 195.021478 
Q 133.211431 197.021478 135.211431 197.021478 
z
" style="fill:#ffffff;stroke:#333333;stroke-linejoin:miter;"/>
    </g>
    <!-- -0.00 -->
    <g style="fill:#262626;" transform="translate(135.211431 193.0843)scale(0.1 -0.1)">
     <use transform="scale(0.996264)" xlink:href="#CMR17-45"/>
     <use transform="translate(30.075966 0)scale(0.996264)" xlink:href="#CMR17-48"/>
     <use transform="translate(75.766443 0)scale(0.996264)" xlink:href="#CMR17-46"/>
     <use transform="translate(100.637502 0)scale(0.996264)" xlink:href="#CMR17-48"/>
     <use transform="translate(146.327979 0)scale(0.996264)" xlink:href="#CMR17-48"/>
    </g>
   </g>
   <g id="text_11">
    <g id="patch_57">
     <path d="M 59.75628 197.021478 
L 80.788569 197.021478 
Q 82.788569 197.021478 82.788569 195.021478 
L 82.788569 186.165801 
Q 82.788569 184.165801 80.788569 184.165801 
L 59.75628 184.165801 
Q 57.75628 184.165801 57.75628 186.165801 
L 57.75628 195.021478 
Q 57.75628 197.021478 59.75628 197.021478 
z
" style="fill:#ffffff;stroke:#333333;stroke-linejoin:miter;"/>
    </g>
    <!-- -0.01 -->
    <g style="fill:#262626;" transform="translate(59.75628 193.0843)scale(0.1 -0.1)">
     <use transform="scale(0.996264)" xlink:href="#CMR17-45"/>
     <use transform="translate(30.075966 0)scale(0.996264)" xlink:href="#CMR17-48"/>
     <use transform="translate(75.766443 0)scale(0.996264)" xlink:href="#CMR17-46"/>
     <use transform="translate(100.637502 0)scale(0.996264)" xlink:href="#CMR17-48"/>
     <use transform="translate(146.327979 0)scale(0.996264)" xlink:href="#CMR17-49"/>
    </g>
   </g>
   <g id="text_12">
    <g id="patch_58">
     <path d="M 97.483855 212.333889 
L 118.516145 212.333889 
Q 120.516145 212.333889 120.516145 210.333889 
L 120.516145 201.478212 
Q 120.516145 199.478212 118.516145 199.478212 
L 97.483855 199.478212 
Q 95.483855 199.478212 95.483855 201.478212 
L 95.483855 210.333889 
Q 95.483855 212.333889 97.483855 212.333889 
z
" style="fill:#ffffff;stroke:#333333;stroke-linejoin:miter;"/>
    </g>
    <!-- -0.01 -->
    <g style="fill:#262626;" transform="translate(97.483855 208.39671)scale(0.1 -0.1)">
     <use transform="scale(0.996264)" xlink:href="#CMR17-45"/>
     <use transform="translate(30.075966 0)scale(0.996264)" xlink:href="#CMR17-48"/>
     <use transform="translate(75.766443 0)scale(0.996264)" xlink:href="#CMR17-46"/>
     <use transform="translate(100.637502 0)scale(0.996264)" xlink:href="#CMR17-48"/>
     <use transform="translate(146.327979 0)scale(0.996264)" xlink:href="#CMR17-49"/>
    </g>
   </g>
   <g id="text_13">
    <g id="patch_59">
     <path d="M 40.847059 157.911026 
L 66.307217 157.911026 
Q 68.307217 157.911026 68.307217 155.911026 
L 68.307217 147.05535 
Q 68.307217 145.05535 66.307217 145.05535 
L 40.847059 145.05535 
Q 38.847059 145.05535 38.847059 147.05535 
L 38.847059 155.911026 
Q 38.847059 157.911026 40.847059 157.911026 
z
" style="fill:#ffffff;stroke:#333333;stroke-linejoin:miter;"/>
    </g>
    <!-- +0.06 -->
    <g style="fill:#262626;" transform="translate(40.847059 153.973848)scale(0.1 -0.1)">
     <use transform="scale(0.996264)" xlink:href="#CMR17-43"/>
     <use transform="translate(71.714788 0)scale(0.996264)" xlink:href="#CMR17-48"/>
     <use transform="translate(117.405266 0)scale(0.996264)" xlink:href="#CMR17-46"/>
     <use transform="translate(142.276324 0)scale(0.996264)" xlink:href="#CMR17-48"/>
     <use transform="translate(187.966801 0)scale(0.996264)" xlink:href="#CMR17-54"/>
    </g>
   </g>
   <g id="text_14">
    <g id="patch_60">
     <path d="M 151.906718 157.911026 
L 172.939007 157.911026 
Q 174.939007 157.911026 174.939007 155.911026 
L 174.939007 147.05535 
Q 174.939007 145.05535 172.939007 145.05535 
L 151.906718 145.05535 
Q 149.906718 145.05535 149.906718 147.05535 
L 149.906718 155.911026 
Q 149.906718 157.911026 151.906718 157.911026 
z
" style="fill:#ffffff;stroke:#333333;stroke-linejoin:miter;"/>
    </g>
    <!-- -0.03 -->
    <g style="fill:#262626;" transform="translate(151.906718 153.973848)scale(0.1 -0.1)">
     <use transform="scale(0.996264)" xlink:href="#CMR17-45"/>
     <use transform="translate(30.075966 0)scale(0.996264)" xlink:href="#CMR17-48"/>
     <use transform="translate(75.766443 0)scale(0.996264)" xlink:href="#CMR17-46"/>
     <use transform="translate(100.637502 0)scale(0.996264)" xlink:href="#CMR17-48"/>
     <use transform="translate(146.327979 0)scale(0.996264)" xlink:href="#CMR17-51"/>
    </g>
   </g>
   <g id="text_15">
    <g id="patch_61">
     <path d="M 97.483855 157.911026 
L 118.516145 157.911026 
Q 120.516145 157.911026 120.516145 155.911026 
L 120.516145 147.05535 
Q 120.516145 145.05535 118.516145 145.05535 
L 97.483855 145.05535 
Q 95.483855 145.05535 95.483855 147.05535 
L 95.483855 155.911026 
Q 95.483855 157.911026 97.483855 157.911026 
z
" style="fill:#ffffff;stroke:#333333;stroke-linejoin:miter;"/>
    </g>
    <!-- -0.00 -->
    <g style="fill:#262626;" transform="translate(97.483855 153.973848)scale(0.1 -0.1)">
     <use transform="scale(0.996264)" xlink:href="#CMR17-45"/>
     <use transform="translate(30.075966 0)scale(0.996264)" xlink:href="#CMR17-48"/>
     <use transform="translate(75.766443 0)scale(0.996264)" xlink:href="#CMR17-46"/>
     <use transform="translate(100.637502 0)scale(0.996264)" xlink:href="#CMR17-48"/>
     <use transform="translate(146.327979 0)scale(0.996264)" xlink:href="#CMR17-48"/>
    </g>
   </g>
   <g id="text_16">
    <!-- $\Delta \text{dist} (\ce{Fe/M})$ -->
    <g style="fill:#262626;" transform="translate(74.884939 19.766376)scale(0.12 -0.12)">
     <defs>
      <path d="M 40.59375 69.296875 
C 39.796875 71 39.40625 71 38.59375 71 
C 37.40625 71 37.296875 70.796875 36.59375 69.390625 
L 4.203125 1.6875 
C 4.09375 1.5 3.703125 0.59375 3.703125 0.5 
C 3.703125 0.09375 3.796875 0 5.59375 0 
L 71.5 0 
C 73.296875 0 73.40625 0.09375 73.40625 0.5 
C 73.40625 0.59375 73 1.5 72.90625 1.6875 
z
M 36.09375 63.375 
L 63.796875 5.59375 
L 8.296875 5.59375 
z
" id="CMR17-1"/>
      <path d="M 29.203125 67.890625 
L 29.203125 65.296875 
C 35.09375 65.296875 36 64.703125 36 60.046875 
L 36 37.046875 
C 35.59375 37.546875 31.5 44 23.40625 44 
C 13.203125 44 3.296875 34.8125 3.296875 21.5 
C 3.296875 8.265625 12.59375 -1 22.40625 -1 
C 30.90625 -1 35.296875 5.640625 35.796875 6.34375 
L 35.796875 -1 
L 47.90625 -0.203125 
L 47.90625 2.40625 
C 42 2.40625 41.09375 3.015625 41.09375 7.859375 
L 41.09375 69 
z
M 35.796875 11.90625 
C 35.796875 8.875 34 6.140625 31.703125 4.125 
C 28.296875 1.09375 24.90625 0.59375 23 0.59375 
C 20.09375 0.59375 9.703125 2.109375 9.703125 21.390625 
C 9.703125 41.1875 21.296875 42.390625 23.90625 42.390625 
C 28.5 42.390625 32.203125 39.765625 34.5 36.140625 
C 35.796875 34.015625 35.796875 33.703125 35.796875 31.890625 
z
" id="CMR17-100"/>
      <path d="M 15.5 61.890625 
C 15.5 64.09375 13.703125 66 11.40625 66 
C 9.203125 66 7.296875 64.1875 7.296875 61.890625 
C 7.296875 59.6875 9.09375 57.796875 11.40625 57.796875 
C 13.59375 57.796875 15.5 59.59375 15.5 61.890625 
z
M 3.796875 42.890625 
L 3.796875 40.296875 
C 9.40625 40.296875 10.203125 39.6875 10.203125 34.859375 
L 10.203125 6.921875 
C 10.203125 3.09375 9.796875 2.59375 3.40625 2.59375 
L 3.40625 0 
C 5.796875 0.1875 10.09375 0.1875 12.59375 0.1875 
C 15 0.1875 19.09375 0.1875 21.40625 0 
L 21.40625 2.59375 
C 15.5 2.59375 15.296875 3.203125 15.296875 6.8125 
L 15.296875 44 
z
" id="CMR17-105"/>
      <path d="M 30.90625 42 
C 30.90625 43.796875 30.796875 43.890625 30.203125 43.890625 
C 29.796875 43.890625 29.703125 43.796875 28.5 42.296875 
C 28.203125 41.890625 27.296875 40.890625 27 40.5 
C 23.796875 43.890625 19.296875 44 17.59375 44 
C 6.5 44 2.5 38.1875 2.5 32.390625 
C 2.5 23.390625 12.703125 21.296875 15.59375 20.6875 
C 21.90625 19.390625 24.09375 19 26.203125 17.1875 
C 27.5 16 29.703125 13.796875 29.703125 10.1875 
C 29.703125 6 27.296875 0.59375 18.09375 0.59375 
C 9.40625 0.59375 6.296875 7.1875 4.5 16 
C 4.203125 17.390625 4.203125 17.5 3.40625 17.5 
C 2.59375 17.5 2.5 17.390625 2.5 15.390625 
L 2.5 1 
C 2.5 -0.8125 2.59375 -0.90625 3.203125 -0.90625 
C 3.703125 -0.90625 3.796875 -0.8125 4.296875 0 
C 4.90625 0.890625 6.40625 3.296875 7 4.296875 
C 9 1.59375 12.5 -1 18.09375 -1 
C 28 -1 33.296875 4.390625 33.296875 12.1875 
C 33.296875 17.296875 30.59375 20 29.296875 21.1875 
C 26.296875 24.296875 22.796875 25 18.59375 25.796875 
C 13.09375 27 6.09375 28.390625 6.09375 34.5 
C 6.09375 37.09375 7.5 42.59375 17.59375 42.59375 
C 28.296875 42.59375 28.90625 32.59375 29.09375 29.390625 
C 29.203125 28.890625 29.703125 28.796875 30 28.796875 
C 30.90625 28.796875 30.90625 29.09375 30.90625 30.796875 
z
" id="CMR17-115"/>
      <path d="M 15.09375 40.390625 
L 29.09375 40.390625 
L 29.09375 43 
L 15.09375 43 
L 15.09375 62 
L 13.296875 62 
C 13.09375 51.4375 9.59375 42.1875 1.09375 41.984375 
L 1.09375 40.390625 
L 9.796875 40.390625 
L 9.796875 12.15625 
C 9.796875 10.234375 9.796875 -1 21.40625 -1 
C 27.296875 -1 30.703125 4.8125 30.703125 12.25 
L 30.703125 17.984375 
L 28.90625 17.984375 
L 28.90625 12.34375 
C 28.90625 5.421875 26.203125 0.796875 22 0.796875 
C 19.09375 0.796875 15.09375 2.796875 15.09375 11.953125 
z
" id="CMR17-116"/>
      <path d="M 30.59375 -24.40625 
C 30.59375 -24.3125 30.59375 -24.109375 30.296875 -23.8125 
C 25.703125 -19.109375 13.40625 -6.296875 13.40625 24.9375 
C 13.40625 56.171875 25.5 68.875 30.40625 73.890625 
C 30.40625 73.984375 30.59375 74.1875 30.59375 74.484375 
C 30.59375 74.796875 30.296875 75 29.90625 75 
C 28.796875 75 20.296875 67.578125 15.40625 56.5625 
C 10.40625 45.453125 9 34.65625 9 25.046875 
C 9 17.828125 9.703125 5.625 15.703125 -7.296875 
C 20.5 -17.703125 28.703125 -25 29.90625 -25 
C 30.40625 -25 30.59375 -24.8125 30.59375 -24.40625 
z
" id="CMR17-40"/>
      <path d="M 54.40625 67.796875 
L 5.09375 67.796875 
L 5.09375 65.1875 
C 12 65.1875 13.09375 65.1875 13.09375 60.671875 
L 13.09375 7.03125 
C 13.09375 2.59375 12 2.59375 5.09375 2.59375 
L 5.09375 0 
C 8 0.1875 13.59375 0.1875 16.703125 0.1875 
C 20.796875 0.1875 25.59375 0.1875 29.703125 0 
L 29.703125 2.59375 
L 27.5 2.59375 
C 19.90625 2.59375 19.703125 3.578125 19.703125 7.125 
L 19.703125 32.390625 
L 28.703125 32.390625 
C 38 32.390625 38.90625 29.140625 38.90625 20.84375 
L 40.703125 20.84375 
L 40.703125 46.734375 
L 38.90625 46.734375 
C 38.90625 38.296875 38 35 28.703125 35 
L 19.703125 35 
L 19.703125 61.28125 
C 19.703125 64.6875 19.90625 65.1875 23.90625 65.1875 
L 36.796875 65.1875 
C 51.90625 65.1875 53.59375 58.96875 55 45.625 
L 56.796875 45.625 
z
" id="CMR17-70"/>
      <path d="M 38.09375 23.484375 
C 38.5 23.890625 38.5 24.09375 38.5 25.09375 
C 38.5 35.171875 33.09375 44 21.703125 44 
C 11.09375 44 2.703125 33.984375 2.703125 21.78125 
C 2.703125 8.65625 12.203125 -1 22.796875 -1 
C 34 -1 38.40625 9.671875 38.40625 11.796875 
C 38.40625 12.5 37.796875 12.5 37.59375 12.5 
C 36.90625 12.5 36.796875 12.296875 36.40625 11.078125 
C 34.203125 4.21875 28.703125 0.796875 23.5 0.796875 
C 19.203125 0.796875 14.90625 3.21875 12.203125 7.65625 
C 9.09375 12.796875 9.09375 18.75 9.09375 23.484375 
z
M 9.203125 25 
C 9.90625 39.234375 17.59375 42.390625 21.59375 42.390625 
C 28.40625 42.390625 33 36.0625 33.09375 25 
z
" id="CMR17-101"/>
      <path d="M 42.90625 71.296875 
C 42.90625 71.390625 43.5 72.890625 43.5 73.09375 
C 43.5 74.296875 42.5 75 41.703125 75 
C 41.203125 75 40.296875 75 39.5 72.796875 
L 6 -21.3125 
C 6 -21.40625 5.40625 -22.90625 5.40625 -23.109375 
C 5.40625 -24.3125 6.40625 -25 7.203125 -25 
C 7.796875 -25 8.703125 -24.90625 9.40625 -22.8125 
z
" id="CMMI12-61"/>
      <path d="M 20.90625 66.390625 
C 20.296875 67.890625 20.203125 68 18.09375 68 
L 5.296875 68 
L 5.296875 65.390625 
C 12.203125 65.390625 13.296875 65.390625 13.296875 60.90625 
L 13.296875 9.75 
C 13.296875 7.265625 13.296875 2.59375 5.296875 2.59375 
L 5.296875 0 
C 7.59375 0.1875 11.796875 0.1875 14.296875 0.1875 
C 16.796875 0.1875 21 0.1875 23.296875 0 
L 23.296875 2.59375 
C 15.296875 2.59375 15.296875 7.265625 15.296875 9.75 
L 15.296875 64.984375 
L 15.40625 64.984375 
L 38.90625 1.59375 
C 39.296875 0.59375 39.5 0 40.296875 0 
C 41.09375 0 41.296875 0.59375 41.703125 1.59375 
L 65.40625 65.484375 
L 65.5 65.484375 
L 65.5 7.078125 
C 65.5 2.59375 64.40625 2.59375 57.5 2.59375 
L 57.5 0 
C 60.203125 0.1875 65.59375 0.1875 68.5 0.1875 
C 71.40625 0.1875 76.90625 0.1875 79.59375 0 
L 79.59375 2.59375 
C 72.703125 2.59375 71.59375 2.59375 71.59375 7.078125 
L 71.59375 60.90625 
C 71.59375 65.390625 72.703125 65.390625 79.59375 65.390625 
L 79.59375 68 
L 66.90625 68 
C 64.796875 68 64.703125 67.890625 64.09375 66.390625 
L 42.5 8.0625 
z
" id="CMR17-77"/>
      <path d="M 26.296875 24.9375 
C 26.296875 32.140625 25.59375 44.359375 19.59375 57.265625 
C 14.796875 67.6875 6.59375 75 5.40625 75 
C 5.09375 75 4.703125 74.890625 4.703125 74.390625 
C 4.703125 74.1875 4.796875 74.09375 4.90625 73.890625 
C 9.703125 68.875 21.90625 56.171875 21.90625 25.046875 
C 21.90625 -6.1875 9.796875 -18.90625 4.90625 -23.90625 
C 4.796875 -24.109375 4.703125 -24.203125 4.703125 -24.40625 
C 4.703125 -24.90625 5.09375 -25 5.40625 -25 
C 6.5 -25 15 -17.609375 19.90625 -6.59375 
C 24.90625 4.515625 26.296875 15.328125 26.296875 24.9375 
z
" id="CMR17-41"/>
     </defs>
     <use transform="scale(0.996264)" xlink:href="#CMR17-1"/>
     <use transform="translate(76.91959 0)scale(0.996264)" xlink:href="#CMR17-100"/>
     <use transform="translate(127.81496 0)scale(0.996264)" xlink:href="#CMR17-105"/>
     <use transform="translate(152.686018 0)scale(0.996264)" xlink:href="#CMR17-115"/>
     <use transform="translate(188.487356 0)scale(0.996264)" xlink:href="#CMR17-116"/>
     <use transform="translate(223.768124 0)scale(0.996264)" xlink:href="#CMR17-40"/>
     <use transform="translate(259.048891 0)scale(0.996264)" xlink:href="#CMR17-70"/>
     <use transform="translate(311.225483 0)scale(0.996264)" xlink:href="#CMR17-101"/>
     <use transform="translate(351.711143 0)scale(0.996264)" xlink:href="#CMMI12-61"/>
     <use transform="translate(400.486062 0)scale(0.996264)" xlink:href="#CMR17-77"/>
     <use transform="translate(485.173002 0)scale(0.996264)" xlink:href="#CMR17-41"/>
    </g>
   </g>
  </g>
 </g>
 <defs>
  <clipPath id="pd6c3eaf78b">
   <rect height="251.433624" width="137.689842" x="39.155079" y="25.766376"/>
  </clipPath>
 </defs>
</svg>
