<?xml version="1.0" encoding="utf-8" standalone="no"?>
<!DOCTYPE svg PUBLIC "-//W3C//DTD SVG 1.1//EN"
  "http://www.w3.org/Graphics/SVG/1.1/DTD/svg11.dtd">
<!-- Created with matplotlib (https://matplotlib.org/) -->
<svg height="288pt" version="1.1" viewBox="0 0 216 288" width="216pt" xmlns="http://www.w3.org/2000/svg" xmlns:xlink="http://www.w3.org/1999/xlink">
 <metadata>
  <rdf:RDF xmlns:cc="http://creativecommons.org/ns#" xmlns:dc="http://purl.org/dc/elements/1.1/" xmlns:rdf="http://www.w3.org/1999/02/22-rdf-syntax-ns#">
   <cc:Work>
    <dc:type rdf:resource="http://purl.org/dc/dcmitype/StillImage"/>
    <dc:date>2021-05-19T17:51:02.320877</dc:date>
    <dc:format>image/svg+xml</dc:format>
    <dc:creator>
     <cc:Agent>
      <dc:title>Matplotlib v3.3.4, https://matplotlib.org/</dc:title>
     </cc:Agent>
    </dc:creator>
   </cc:Work>
  </rdf:RDF>
 </metadata>
 <defs>
  <style type="text/css">*{stroke-linecap:butt;stroke-linejoin:round;}</style>
 </defs>
 <g id="figure_1">
  <g id="patch_1">
   <path d="M 0 288 
L 216 288 
L 216 0 
L 0 0 
z
" style="fill:#ffffff;"/>
  </g>
  <g id="axes_1">
   <g id="line2d_1">
    <path clip-path="url(#p9437778bc2)" d="M 108 77.93373 
L 74.966865 110.966865 
" style="fill:none;stroke:#333333;stroke-linecap:round;stroke-width:2;"/>
   </g>
   <g id="line2d_2">
    <path clip-path="url(#p9437778bc2)" d="M 108 77.93373 
L 108 124.180119 
" style="fill:none;stroke:#333333;stroke-linecap:round;stroke-width:2;"/>
   </g>
   <g id="line2d_3">
    <path clip-path="url(#p9437778bc2)" d="M 108 77.93373 
L 141.033135 110.966865 
" style="fill:none;stroke:#333333;stroke-linecap:round;stroke-width:2;"/>
   </g>
   <g id="line2d_4">
    <path clip-path="url(#p9437778bc2)" d="M 108 210.06627 
L 74.966865 177.033135 
" style="fill:none;stroke:#333333;stroke-linecap:round;stroke-width:2;"/>
   </g>
   <g id="line2d_5">
    <path clip-path="url(#p9437778bc2)" d="M 108 210.06627 
L 108 163.819881 
" style="fill:none;stroke:#333333;stroke-linecap:round;stroke-width:2;"/>
   </g>
   <g id="line2d_6">
    <path clip-path="url(#p9437778bc2)" d="M 108 210.06627 
L 141.033135 177.033135 
" style="fill:none;stroke:#333333;stroke-linecap:round;stroke-width:2;"/>
   </g>
   <g id="line2d_7">
    <path clip-path="url(#p9437778bc2)" d="M 74.966865 110.966865 
L 141.033135 110.966865 
" style="fill:none;stroke:#333333;stroke-linecap:round;stroke-width:2;"/>
   </g>
   <g id="line2d_8">
    <path clip-path="url(#p9437778bc2)" d="M 74.966865 110.966865 
L 74.966865 177.033135 
" style="fill:none;stroke:#333333;stroke-linecap:round;stroke-width:2;"/>
   </g>
   <g id="line2d_9">
    <path clip-path="url(#p9437778bc2)" d="M 141.033135 177.033135 
L 141.033135 110.966865 
" style="fill:none;stroke:#333333;stroke-linecap:round;stroke-width:2;"/>
   </g>
   <g id="line2d_10">
    <path clip-path="url(#p9437778bc2)" d="M 141.033135 177.033135 
L 74.966865 177.033135 
" style="fill:none;stroke:#333333;stroke-linecap:round;stroke-width:2;"/>
   </g>
   <g id="line2d_11">
    <path clip-path="url(#p9437778bc2)" d="M 108 124.180119 
L 74.966865 110.966865 
" style="fill:none;stroke:#333333;stroke-linecap:round;stroke-width:2;"/>
   </g>
   <g id="line2d_12">
    <path clip-path="url(#p9437778bc2)" d="M 108 124.180119 
L 141.033135 110.966865 
" style="fill:none;stroke:#333333;stroke-linecap:round;stroke-width:2;"/>
   </g>
   <g id="line2d_13">
    <path clip-path="url(#p9437778bc2)" d="M 108 124.180119 
L 108 163.819881 
" style="fill:none;stroke:#333333;stroke-linecap:round;stroke-width:2;"/>
   </g>
   <g id="line2d_14">
    <path clip-path="url(#p9437778bc2)" d="M 108 163.819881 
L 74.966865 177.033135 
" style="fill:none;stroke:#333333;stroke-linecap:round;stroke-width:2;"/>
   </g>
   <g id="line2d_15">
    <path clip-path="url(#p9437778bc2)" d="M 108 163.819881 
L 141.033135 177.033135 
" style="fill:none;stroke:#333333;stroke-linecap:round;stroke-width:2;"/>
   </g>
   <g id="patch_2">
    <path clip-path="url(#p9437778bc2)" d="M 108 100.231096 
C 113.913331 100.231096 119.585263 97.881705 123.766619 93.700349 
C 127.947975 89.518992 130.297366 83.84706 130.297366 77.93373 
C 130.297366 72.020399 127.947975 66.348467 123.766619 62.167111 
C 119.585263 57.985755 113.913331 55.636364 108 55.636364 
C 102.086669 55.636364 96.414737 57.985755 92.233381 62.167111 
C 88.052025 66.348467 85.702634 72.020399 85.702634 77.93373 
C 85.702634 83.84706 88.052025 89.518992 92.233381 93.700349 
C 96.414737 97.881705 102.086669 100.231096 108 100.231096 
z
" style="fill:#333333;stroke:#333333;stroke-linejoin:miter;"/>
   </g>
   <g id="patch_3">
    <path clip-path="url(#p9437778bc2)" d="M 108 98.579439 
C 113.475306 98.579439 118.727095 96.404077 122.598721 92.532451 
C 126.470347 88.660825 128.645709 83.409036 128.645709 77.93373 
C 128.645709 72.458424 126.470347 67.206635 122.598721 63.335009 
C 118.727095 59.463383 113.475306 57.28802 108 57.28802 
C 102.524694 57.28802 97.272905 59.463383 93.401279 63.335009 
C 89.529653 67.206635 87.354291 72.458424 87.354291 77.93373 
C 87.354291 83.409036 89.529653 88.660825 93.401279 92.532451 
C 97.272905 96.404077 102.524694 98.579439 108 98.579439 
z
" style="fill:#b40426;stroke:#b40426;stroke-linejoin:miter;"/>
   </g>
   <g id="patch_4">
    <path clip-path="url(#p9437778bc2)" d="M 108 232.363636 
C 113.913331 232.363636 119.585263 230.014245 123.766619 225.832889 
C 127.947975 221.651533 130.297366 215.979601 130.297366 210.06627 
C 130.297366 204.15294 127.947975 198.481008 123.766619 194.299651 
C 119.585263 190.118295 113.913331 187.768904 108 187.768904 
C 102.086669 187.768904 96.414737 190.118295 92.233381 194.299651 
C 88.052025 198.481008 85.702634 204.15294 85.702634 210.06627 
C 85.702634 215.979601 88.052025 221.651533 92.233381 225.832889 
C 96.414737 230.014245 102.086669 232.363636 108 232.363636 
z
" style="fill:#333333;stroke:#333333;stroke-linejoin:miter;"/>
   </g>
   <g id="patch_5">
    <path clip-path="url(#p9437778bc2)" d="M 108 230.71198 
C 113.475306 230.71198 118.727095 228.536617 122.598721 224.664991 
C 126.470347 220.793365 128.645709 215.541576 128.645709 210.06627 
C 128.645709 204.590964 126.470347 199.339175 122.598721 195.467549 
C 118.727095 191.595923 113.475306 189.420561 108 189.420561 
C 102.524694 189.420561 97.272905 191.595923 93.401279 195.467549 
C 89.529653 199.339175 87.354291 204.590964 87.354291 210.06627 
C 87.354291 215.541576 89.529653 220.793365 93.401279 224.664991 
C 97.272905 228.536617 102.524694 230.71198 108 230.71198 
z
" style="fill:#f7ad90;stroke:#f7ad90;stroke-linejoin:miter;"/>
   </g>
   <g id="patch_6">
    <path clip-path="url(#p9437778bc2)" d="M 41.93373 166.297366 
C 47.84706 166.297366 53.518992 163.947975 57.700349 159.766619 
C 61.881705 155.585263 64.231096 149.913331 64.231096 144 
C 64.231096 138.086669 61.881705 132.414737 57.700349 128.233381 
C 53.518992 124.052025 47.84706 121.702634 41.93373 121.702634 
C 36.020399 121.702634 30.348467 124.052025 26.167111 128.233381 
C 21.985755 132.414737 19.636364 138.086669 19.636364 144 
C 19.636364 149.913331 21.985755 155.585263 26.167111 159.766619 
C 30.348467 163.947975 36.020399 166.297366 41.93373 166.297366 
z
" style="fill:#333333;stroke:#333333;stroke-linejoin:miter;"/>
   </g>
   <g id="patch_7">
    <path clip-path="url(#p9437778bc2)" d="M 41.93373 164.645709 
C 47.409036 164.645709 52.660825 162.470347 56.532451 158.598721 
C 60.404077 154.727095 62.579439 149.475306 62.579439 144 
C 62.579439 138.524694 60.404077 133.272905 56.532451 129.401279 
C 52.660825 125.529653 47.409036 123.354291 41.93373 123.354291 
C 36.458424 123.354291 31.206635 125.529653 27.335009 129.401279 
C 23.463383 133.272905 21.28802 138.524694 21.28802 144 
C 21.28802 149.475306 23.463383 154.727095 27.335009 158.598721 
C 31.206635 162.470347 36.458424 164.645709 41.93373 164.645709 
z
" style="fill:#f1cdba;stroke:#f1cdba;stroke-linejoin:miter;"/>
   </g>
   <g id="patch_8">
    <path clip-path="url(#p9437778bc2)" d="M 174.06627 166.297366 
C 179.979601 166.297366 185.651533 163.947975 189.832889 159.766619 
C 194.014245 155.585263 196.363636 149.913331 196.363636 144 
C 196.363636 138.086669 194.014245 132.414737 189.832889 128.233381 
C 185.651533 124.052025 179.979601 121.702634 174.06627 121.702634 
C 168.15294 121.702634 162.481008 124.052025 158.299651 128.233381 
C 154.118295 132.414737 151.768904 138.086669 151.768904 144 
C 151.768904 149.913331 154.118295 155.585263 158.299651 159.766619 
C 162.481008 163.947975 168.15294 166.297366 174.06627 166.297366 
z
" style="fill:#333333;stroke:#333333;stroke-linejoin:miter;"/>
   </g>
   <g id="patch_9">
    <path clip-path="url(#p9437778bc2)" d="M 174.06627 164.645709 
C 179.541576 164.645709 184.793365 162.470347 188.664991 158.598721 
C 192.536617 154.727095 194.71198 149.475306 194.71198 144 
C 194.71198 138.524694 192.536617 133.272905 188.664991 129.401279 
C 184.793365 125.529653 179.541576 123.354291 174.06627 123.354291 
C 168.590964 123.354291 163.339175 125.529653 159.467549 129.401279 
C 155.595923 133.272905 153.420561 138.524694 153.420561 144 
C 153.420561 149.475306 155.595923 154.727095 159.467549 158.598721 
C 163.339175 162.470347 168.590964 164.645709 174.06627 164.645709 
z
" style="fill:#f7b79b;stroke:#f7b79b;stroke-linejoin:miter;"/>
   </g>
   <g id="patch_10">
    <path clip-path="url(#p9437778bc2)" d="M 71.663551 208.414613 
C 76.481821 208.414613 81.103395 206.500295 84.510426 203.093264 
C 87.917457 199.686233 89.831776 195.064659 89.831776 190.246389 
C 89.831776 185.42812 87.917457 180.806545 84.510426 177.399515 
C 81.103395 173.992484 76.481821 172.078165 71.663551 172.078165 
C 66.845282 172.078165 62.223708 173.992484 58.816677 177.399515 
C 55.409646 180.806545 53.495327 185.42812 53.495327 190.246389 
C 53.495327 195.064659 55.409646 199.686233 58.816677 203.093264 
C 62.223708 206.500295 66.845282 208.414613 71.663551 208.414613 
z
" style="fill:#333333;stroke:#333333;stroke-linejoin:miter;"/>
   </g>
   <g id="patch_11">
    <path clip-path="url(#p9437778bc2)" d="M 71.663551 206.762957 
C 76.043796 206.762957 80.245227 205.022667 83.342528 201.925366 
C 86.439829 198.828065 88.180119 194.626634 88.180119 190.246389 
C 88.180119 185.866144 86.439829 181.664713 83.342528 178.567412 
C 80.245227 175.470111 76.043796 173.729822 71.663551 173.729822 
C 67.283306 173.729822 63.081875 175.470111 59.984574 178.567412 
C 56.887274 181.664713 55.146984 185.866144 55.146984 190.246389 
C 55.146984 194.626634 56.887274 198.828065 59.984574 201.925366 
C 63.081875 205.022667 67.283306 206.762957 71.663551 206.762957 
z
" style="fill:#3b4cc0;stroke:#3b4cc0;stroke-linejoin:miter;"/>
   </g>
   <g id="patch_12">
    <path clip-path="url(#p9437778bc2)" d="M 144.336449 208.414613 
C 149.154718 208.414613 153.776292 206.500295 157.183323 203.093264 
C 160.590354 199.686233 162.504673 195.064659 162.504673 190.246389 
C 162.504673 185.42812 160.590354 180.806545 157.183323 177.399515 
C 153.776292 173.992484 149.154718 172.078165 144.336449 172.078165 
C 139.518179 172.078165 134.896605 173.992484 131.489574 177.399515 
C 128.082543 180.806545 126.168224 185.42812 126.168224 190.246389 
C 126.168224 195.064659 128.082543 199.686233 131.489574 203.093264 
C 134.896605 206.500295 139.518179 208.414613 144.336449 208.414613 
z
" style="fill:#333333;stroke:#333333;stroke-linejoin:miter;"/>
   </g>
   <g id="patch_13">
    <path clip-path="url(#p9437778bc2)" d="M 144.336449 206.762957 
C 148.716694 206.762957 152.918125 205.022667 156.015426 201.925366 
C 159.112726 198.828065 160.853016 194.626634 160.853016 190.246389 
C 160.853016 185.866144 159.112726 181.664713 156.015426 178.567412 
C 152.918125 175.470111 148.716694 173.729822 144.336449 173.729822 
C 139.956204 173.729822 135.754773 175.470111 132.657472 178.567412 
C 129.560171 181.664713 127.819881 185.866144 127.819881 190.246389 
C 127.819881 194.626634 129.560171 198.828065 132.657472 201.925366 
C 135.754773 205.022667 139.956204 206.762957 144.336449 206.762957 
z
" style="fill:#dfdbd9;stroke:#dfdbd9;stroke-linejoin:miter;"/>
   </g>
   <g id="patch_14">
    <path clip-path="url(#p9437778bc2)" d="M 71.663551 115.921835 
C 76.481821 115.921835 81.103395 114.007516 84.510426 110.600485 
C 87.917457 107.193455 89.831776 102.57188 89.831776 97.753611 
C 89.831776 92.935341 87.917457 88.313767 84.510426 84.906736 
C 81.103395 81.499705 76.481821 79.585387 71.663551 79.585387 
C 66.845282 79.585387 62.223708 81.499705 58.816677 84.906736 
C 55.409646 88.313767 53.495327 92.935341 53.495327 97.753611 
C 53.495327 102.57188 55.409646 107.193455 58.816677 110.600485 
C 62.223708 114.007516 66.845282 115.921835 71.663551 115.921835 
z
" style="fill:#333333;stroke:#333333;stroke-linejoin:miter;"/>
   </g>
   <g id="patch_15">
    <path clip-path="url(#p9437778bc2)" d="M 71.663551 114.270178 
C 76.043796 114.270178 80.245227 112.529889 83.342528 109.432588 
C 86.439829 106.335287 88.180119 102.133856 88.180119 97.753611 
C 88.180119 93.373366 86.439829 89.171935 83.342528 86.074634 
C 80.245227 82.977333 76.043796 81.237043 71.663551 81.237043 
C 67.283306 81.237043 63.081875 82.977333 59.984574 86.074634 
C 56.887274 89.171935 55.146984 93.373366 55.146984 97.753611 
C 55.146984 102.133856 56.887274 106.335287 59.984574 109.432588 
C 63.081875 112.529889 67.283306 114.270178 71.663551 114.270178 
z
" style="fill:#f7b194;stroke:#f7b194;stroke-linejoin:miter;"/>
   </g>
   <g id="patch_16">
    <path clip-path="url(#p9437778bc2)" d="M 144.336449 115.921835 
C 149.154718 115.921835 153.776292 114.007516 157.183323 110.600485 
C 160.590354 107.193455 162.504673 102.57188 162.504673 97.753611 
C 162.504673 92.935341 160.590354 88.313767 157.183323 84.906736 
C 153.776292 81.499705 149.154718 79.585387 144.336449 79.585387 
C 139.518179 79.585387 134.896605 81.499705 131.489574 84.906736 
C 128.082543 88.313767 126.168224 92.935341 126.168224 97.753611 
C 126.168224 102.57188 128.082543 107.193455 131.489574 110.600485 
C 134.896605 114.007516 139.518179 115.921835 144.336449 115.921835 
z
" style="fill:#333333;stroke:#333333;stroke-linejoin:miter;"/>
   </g>
   <g id="patch_17">
    <path clip-path="url(#p9437778bc2)" d="M 144.336449 114.270178 
C 148.716694 114.270178 152.918125 112.529889 156.015426 109.432588 
C 159.112726 106.335287 160.853016 102.133856 160.853016 97.753611 
C 160.853016 93.373366 159.112726 89.171935 156.015426 86.074634 
C 152.918125 82.977333 148.716694 81.237043 144.336449 81.237043 
C 139.956204 81.237043 135.754773 82.977333 132.657472 86.074634 
C 129.560171 89.171935 127.819881 93.373366 127.819881 97.753611 
C 127.819881 102.133856 129.560171 106.335287 132.657472 109.432588 
C 135.754773 112.529889 139.956204 114.270178 144.336449 114.270178 
z
" style="fill:#465ecf;stroke:#465ecf;stroke-linejoin:miter;"/>
   </g>
   <g id="patch_18">
    <path clip-path="url(#p9437778bc2)" d="M 108 162.168224 
C 112.818269 162.168224 117.439844 160.253906 120.846875 156.846875 
C 124.253906 153.439844 126.168224 148.818269 126.168224 144 
C 126.168224 139.181731 124.253906 134.560156 120.846875 131.153125 
C 117.439844 127.746094 112.818269 125.831776 108 125.831776 
C 103.181731 125.831776 98.560156 127.746094 95.153125 131.153125 
C 91.746094 134.560156 89.831776 139.181731 89.831776 144 
C 89.831776 148.818269 91.746094 153.439844 95.153125 156.846875 
C 98.560156 160.253906 103.181731 162.168224 108 162.168224 
z
" style="fill:#333333;stroke:#333333;stroke-linejoin:miter;"/>
   </g>
   <g id="patch_19">
    <path clip-path="url(#p9437778bc2)" d="M 108 160.516568 
C 112.380245 160.516568 116.581676 158.776278 119.678977 155.678977 
C 122.776278 152.581676 124.516568 148.380245 124.516568 144 
C 124.516568 139.619755 122.776278 135.418324 119.678977 132.321023 
C 116.581676 129.223722 112.380245 127.483432 108 127.483432 
C 103.619755 127.483432 99.418324 129.223722 96.321023 132.321023 
C 93.223722 135.418324 91.483432 139.619755 91.483432 144 
C 91.483432 148.380245 93.223722 152.581676 96.321023 155.678977 
C 99.418324 158.776278 103.619755 160.516568 108 160.516568 
z
" style="fill:#d3dbe7;stroke:#d3dbe7;stroke-linejoin:miter;"/>
   </g>
   <g id="text_1">
    <!-- 0.056 -->
    <g style="fill:#ffffff;" transform="translate(96.653625 80.42439)scale(0.1 -0.1)">
     <defs>
      <path d="M 42 31.84375 
C 42 37.96875 41.90625 48.421875 37.703125 56.453125 
C 34 63.484375 28.09375 66 22.90625 66 
C 18.09375 66 12 63.78125 8.203125 56.5625 
C 4.203125 49.015625 3.796875 39.671875 3.796875 31.84375 
C 3.796875 26.109375 3.90625 17.375 7 9.734375 
C 11.296875 -0.609375 19 -2 22.90625 -2 
C 27.5 -2 34.5 -0.109375 38.59375 9.4375 
C 41.59375 16.375 42 24.5 42 31.84375 
z
M 22.90625 -0.40625 
C 16.5 -0.40625 12.703125 5.125 11.296875 12.75 
C 10.203125 18.6875 10.203125 27.328125 10.203125 32.953125 
C 10.203125 40.6875 10.203125 47.109375 11.5 53.234375 
C 13.40625 61.78125 19 64.390625 22.90625 64.390625 
C 27 64.390625 32.296875 61.671875 34.203125 53.4375 
C 35.5 47.71875 35.59375 40.984375 35.59375 32.953125 
C 35.59375 26.421875 35.59375 18.375 34.40625 12.453125 
C 32.296875 1.5 26.40625 -0.40625 22.90625 -0.40625 
z
" id="CMR17-48"/>
      <path d="M 16.59375 4.09375 
C 16.59375 6.59375 14.59375 8.1875 12.5 8.1875 
C 10.5 8.1875 8.40625 6.59375 8.40625 4.09375 
C 8.40625 1.59375 10.40625 0 12.5 0 
C 14.5 0 16.59375 1.59375 16.59375 4.09375 
z
" id="CMR17-46"/>
      <path d="M 11.40625 58.59375 
C 12.40625 58.1875 16.5 56.890625 20.703125 56.890625 
C 30 56.890625 35.09375 61.890625 38 64.6875 
C 38 65.484375 38 66 37.40625 66 
C 37.296875 66 37.09375 66 36.296875 65.59375 
C 32.796875 64.09375 28.703125 63 23.703125 63 
C 20.703125 63 16.203125 63.359375 11.296875 65.484375 
C 10.203125 66 10 66 9.90625 66 
C 9.40625 66 9.296875 65.890625 9.296875 63.90625 
L 9.296875 34.859375 
C 9.296875 33.015625 9.296875 32.5 10.296875 32.5 
C 10.796875 32.5 11 32.703125 11.5 33.421875 
C 14.703125 38.046875 19.09375 40 24.09375 40 
C 27.59375 40 35.09375 37.734375 35.09375 20.203125 
C 35.09375 16.984375 35.09375 11.1875 32.09375 6.59375 
C 29.59375 2.484375 25.703125 0.390625 21.40625 0.390625 
C 14.796875 0.390625 8.09375 4.984375 6.296875 12.6875 
C 6.703125 12.59375 7.5 12.390625 7.90625 12.390625 
C 9.203125 12.390625 11.703125 13.09375 11.703125 16.1875 
C 11.703125 18.890625 9.796875 20 7.90625 20 
C 5.59375 20 4.09375 18.59375 4.09375 15.796875 
C 4.09375 7.09375 11 -2 21.59375 -2 
C 31.90625 -2 41.703125 6.890625 41.703125 19.796875 
C 41.703125 32.09375 33.90625 41.59375 24.203125 41.59375 
C 19.09375 41.59375 14.796875 39.6875 11.40625 36 
z
" id="CMR17-53"/>
      <path d="M 10.59375 34.34375 
C 10.59375 58 21.796875 63.6875 28.296875 63.6875 
C 30.40625 63.6875 35.5 63.265625 37.5 59.09375 
C 35.90625 59.09375 32.90625 59.09375 32.90625 55.59375 
C 32.90625 52.890625 35.09375 52 36.5 52 
C 37.40625 52 40.09375 52.390625 40.09375 55.796875 
C 40.09375 62.296875 35.09375 66 28.203125 66 
C 16.296875 66 3.796875 53.296875 3.796875 31.421875 
C 3.796875 4.015625 15.09375 -2 23.09375 -2 
C 32.796875 -2 42 6.734375 42 20.234375 
C 42 32.828125 33.90625 42 23.703125 42 
C 17.59375 42 13.09375 37.96875 10.59375 30.921875 
z
M 23.09375 0.390625 
C 10.796875 0.390625 10.796875 18.9375 10.796875 22.65625 
C 10.796875 29.90625 14.203125 40.390625 23.5 40.390625 
C 25.203125 40.390625 30.09375 40.390625 33.40625 33.4375 
C 35.203125 29.515625 35.203125 25.375 35.203125 20.34375 
C 35.203125 14.90625 35.203125 10.875 33.09375 6.84375 
C 30.90625 2.703125 27.703125 0.390625 23.09375 0.390625 
z
" id="CMR17-54"/>
     </defs>
     <use transform="scale(0.996264)" xlink:href="#CMR17-48"/>
     <use transform="translate(45.690477 0)scale(0.996264)" xlink:href="#CMR17-46"/>
     <use transform="translate(70.561536 0)scale(0.996264)" xlink:href="#CMR17-48"/>
     <use transform="translate(116.252013 0)scale(0.996264)" xlink:href="#CMR17-53"/>
     <use transform="translate(161.94249 0)scale(0.996264)" xlink:href="#CMR17-54"/>
    </g>
   </g>
   <g id="text_2">
    <!-- 0.018 -->
    <g style="fill:#262626;" transform="translate(96.653625 212.55693)scale(0.1 -0.1)">
     <defs>
      <path d="M 26.59375 63.796875 
C 26.59375 65.890625 26.5 66 25.09375 66 
C 21.203125 61.359375 15.296875 59.890625 9.703125 59.6875 
C 9.40625 59.6875 8.90625 59.6875 8.796875 59.5 
C 8.703125 59.296875 8.703125 59.09375 8.703125 57 
C 11.796875 57 17 57.59375 21 59.984375 
L 21 7.296875 
C 21 3.796875 20.796875 2.59375 12.203125 2.59375 
L 9.203125 2.59375 
L 9.203125 0 
C 14 0.09375 19 0.1875 23.796875 0.1875 
C 28.59375 0.1875 33.59375 0.09375 38.40625 0 
L 38.40625 2.59375 
L 35.40625 2.59375 
C 26.796875 2.59375 26.59375 3.6875 26.59375 7.296875 
z
" id="CMR17-49"/>
      <path d="M 27.203125 35.765625 
C 33.5 38.96875 39.90625 43.796875 39.90625 51.53125 
C 39.90625 60.6875 31.09375 66 23 66 
C 13.90625 66 5.90625 59.375 5.90625 50.234375 
C 5.90625 47.71875 6.5 43.390625 10.40625 39.578125 
C 11.40625 38.578125 15.59375 35.5625 18.296875 33.65625 
C 13.796875 31.34375 3.296875 25.8125 3.296875 14.765625 
C 3.296875 4.40625 13.09375 -2 22.796875 -2 
C 33.5 -2 42.5 5.71875 42.5 15.96875 
C 42.5 25.109375 36.40625 29.328125 32.40625 32.046875 
z
M 14.09375 44.609375 
C 13.296875 45.109375 9.296875 48.21875 9.296875 52.9375 
C 9.296875 59.078125 15.59375 63.6875 22.796875 63.6875 
C 30.703125 63.6875 36.5 58.0625 36.5 51.53125 
C 36.5 42.1875 26.09375 36.859375 25.59375 36.859375 
C 25.5 36.859375 25.40625 36.859375 24.59375 37.46875 
z
M 32.5 24 
C 34 22.90625 38.796875 19.578125 38.796875 13.453125 
C 38.796875 6.015625 31.40625 0.390625 23 0.390625 
C 13.90625 0.390625 7 6.921875 7 14.859375 
C 7 22.796875 13.09375 29.4375 20 32.546875 
z
" id="CMR17-56"/>
     </defs>
     <use transform="scale(0.996264)" xlink:href="#CMR17-48"/>
     <use transform="translate(45.690477 0)scale(0.996264)" xlink:href="#CMR17-46"/>
     <use transform="translate(70.561536 0)scale(0.996264)" xlink:href="#CMR17-48"/>
     <use transform="translate(116.252013 0)scale(0.996264)" xlink:href="#CMR17-49"/>
     <use transform="translate(161.94249 0)scale(0.996264)" xlink:href="#CMR17-56"/>
    </g>
   </g>
   <g id="text_3">
    <!-- 0.004 -->
    <g style="fill:#262626;" transform="translate(30.587355 146.49066)scale(0.1 -0.1)">
     <defs>
      <path d="M 33.59375 64.796875 
C 33.59375 66.890625 33.5 67 31.703125 67 
L 2 19.59375 
L 2 17 
L 27.796875 17 
L 27.796875 7.1875 
C 27.796875 3.59375 27.59375 2.59375 20.59375 2.59375 
L 18.703125 2.59375 
L 18.703125 0 
C 21.90625 0.1875 27.296875 0.1875 30.703125 0.1875 
C 34.09375 0.1875 39.5 0.1875 42.703125 0 
L 42.703125 2.59375 
L 40.796875 2.59375 
C 33.796875 2.59375 33.59375 3.59375 33.59375 7.1875 
L 33.59375 17 
L 43.796875 17 
L 43.796875 19.59375 
L 33.59375 19.59375 
z
M 28.09375 58.171875 
L 28.09375 19.59375 
L 4 19.59375 
z
" id="CMR17-52"/>
     </defs>
     <use transform="scale(0.996264)" xlink:href="#CMR17-48"/>
     <use transform="translate(45.690477 0)scale(0.996264)" xlink:href="#CMR17-46"/>
     <use transform="translate(70.561536 0)scale(0.996264)" xlink:href="#CMR17-48"/>
     <use transform="translate(116.252013 0)scale(0.996264)" xlink:href="#CMR17-48"/>
     <use transform="translate(161.94249 0)scale(0.996264)" xlink:href="#CMR17-52"/>
    </g>
   </g>
   <g id="text_4">
    <!-- 0.014 -->
    <g style="fill:#262626;" transform="translate(162.719895 146.49066)scale(0.1 -0.1)">
     <use transform="scale(0.996264)" xlink:href="#CMR17-48"/>
     <use transform="translate(45.690477 0)scale(0.996264)" xlink:href="#CMR17-46"/>
     <use transform="translate(70.561536 0)scale(0.996264)" xlink:href="#CMR17-48"/>
     <use transform="translate(116.252013 0)scale(0.996264)" xlink:href="#CMR17-49"/>
     <use transform="translate(161.94249 0)scale(0.996264)" xlink:href="#CMR17-52"/>
    </g>
   </g>
   <g id="text_5">
    <!-- -0.072 -->
    <g style="fill:#ffffff;" transform="translate(58.656739 192.737049)scale(0.1 -0.1)">
     <defs>
      <path d="M 25.5 19.59375 
L 25.5 24 
L 0.40625 24 
L 0.40625 19.59375 
z
" id="CMR17-45"/>
      <path d="M 45.09375 61.796875 
L 45.09375 64 
L 21.59375 64 
C 9.90625 64 9.703125 65.09375 9.296875 67 
L 7.5 67 
L 4.59375 48.5 
L 6.40625 48.5 
C 6.703125 50.40625 7.40625 55.5 8.59375 57.390625 
C 9.203125 58.1875 16.59375 58.1875 18.296875 58.1875 
L 40.296875 58.1875 
L 29.203125 41.71875 
C 21.796875 30.640625 16.703125 15.671875 16.703125 2.59375 
C 16.703125 1.390625 16.703125 -2 20.296875 -2 
C 23.90625 -2 23.90625 1.390625 23.90625 2.6875 
L 23.90625 7.28125 
C 23.90625 23.65625 26.703125 34.4375 31.296875 41.3125 
z
" id="CMR17-55"/>
      <path d="M 41.703125 15.46875 
L 39.90625 15.46875 
C 38.90625 8.390625 38.09375 7.1875 37.703125 6.59375 
C 37.203125 5.796875 30 5.796875 28.59375 5.796875 
L 9.40625 5.796875 
C 13 9.6875 20 16.765625 28.5 24.9375 
C 34.59375 30.71875 41.703125 37.5 41.703125 47.390625 
C 41.703125 59.1875 32.296875 66 21.796875 66 
C 10.796875 66 4.09375 56.296875 4.09375 47.296875 
C 4.09375 43.390625 7 42.890625 8.203125 42.890625 
C 9.203125 42.890625 12.203125 43.484375 12.203125 46.984375 
C 12.203125 50.09375 9.59375 51 8.203125 51 
C 7.59375 51 7 50.890625 6.59375 50.6875 
C 8.5 59.1875 14.296875 63.390625 20.40625 63.390625 
C 29.09375 63.390625 34.796875 56.5 34.796875 47.390625 
C 34.796875 38.703125 29.703125 31.21875 24 24.734375 
L 4.09375 2.296875 
L 4.09375 0 
L 39.296875 0 
z
" id="CMR17-50"/>
     </defs>
     <use transform="scale(0.996264)" xlink:href="#CMR17-45"/>
     <use transform="translate(30.075966 0)scale(0.996264)" xlink:href="#CMR17-48"/>
     <use transform="translate(75.766443 0)scale(0.996264)" xlink:href="#CMR17-46"/>
     <use transform="translate(100.637502 0)scale(0.996264)" xlink:href="#CMR17-48"/>
     <use transform="translate(146.327979 0)scale(0.996264)" xlink:href="#CMR17-55"/>
     <use transform="translate(192.018456 0)scale(0.996264)" xlink:href="#CMR17-50"/>
    </g>
   </g>
   <g id="text_6">
    <!-- -0.007 -->
    <g style="fill:#262626;" transform="translate(131.329636 192.737049)scale(0.1 -0.1)">
     <use transform="scale(0.996264)" xlink:href="#CMR17-45"/>
     <use transform="translate(30.075966 0)scale(0.996264)" xlink:href="#CMR17-48"/>
     <use transform="translate(75.766443 0)scale(0.996264)" xlink:href="#CMR17-46"/>
     <use transform="translate(100.637502 0)scale(0.996264)" xlink:href="#CMR17-48"/>
     <use transform="translate(146.327979 0)scale(0.996264)" xlink:href="#CMR17-48"/>
     <use transform="translate(192.018456 0)scale(0.996264)" xlink:href="#CMR17-55"/>
    </g>
   </g>
   <g id="text_7">
    <!-- 0.016 -->
    <g style="fill:#262626;" transform="translate(60.317177 100.244271)scale(0.1 -0.1)">
     <use transform="scale(0.996264)" xlink:href="#CMR17-48"/>
     <use transform="translate(45.690477 0)scale(0.996264)" xlink:href="#CMR17-46"/>
     <use transform="translate(70.561536 0)scale(0.996264)" xlink:href="#CMR17-48"/>
     <use transform="translate(116.252013 0)scale(0.996264)" xlink:href="#CMR17-49"/>
     <use transform="translate(161.94249 0)scale(0.996264)" xlink:href="#CMR17-54"/>
    </g>
   </g>
   <g id="text_8">
    <!-- -0.066 -->
    <g style="fill:#ffffff;" transform="translate(131.329636 100.244271)scale(0.1 -0.1)">
     <use transform="scale(0.996264)" xlink:href="#CMR17-45"/>
     <use transform="translate(30.075966 0)scale(0.996264)" xlink:href="#CMR17-48"/>
     <use transform="translate(75.766443 0)scale(0.996264)" xlink:href="#CMR17-46"/>
     <use transform="translate(100.637502 0)scale(0.996264)" xlink:href="#CMR17-48"/>
     <use transform="translate(146.327979 0)scale(0.996264)" xlink:href="#CMR17-54"/>
     <use transform="translate(192.018456 0)scale(0.996264)" xlink:href="#CMR17-54"/>
    </g>
   </g>
   <g id="text_9">
    <!-- -0.013 -->
    <g style="fill:#262626;" transform="translate(94.993188 146.49066)scale(0.1 -0.1)">
     <defs>
      <path d="M 22.09375 34 
C 31 34 34.90625 26.140625 34.90625 17.09375 
C 34.90625 5.03125 28.5 0.390625 22.703125 0.390625 
C 17.40625 0.390625 8.796875 3.015625 6.09375 10.796875 
C 6.59375 10.59375 7.09375 10.59375 7.59375 10.59375 
C 10 10.59375 11.796875 12.1875 11.796875 14.796875 
C 11.796875 17.6875 9.59375 19 7.59375 19 
C 5.90625 19 3.296875 18.1875 3.296875 14.484375 
C 3.296875 5.234375 12.296875 -2 22.90625 -2 
C 34 -2 42.5 6.75 42.5 16.984375 
C 42.5 26.84375 34.5 34 25 35.09375 
C 32.59375 36.671875 39.90625 43.375 39.90625 52.390625 
C 39.90625 60.25 32 66 23 66 
C 13.90625 66 5.90625 60.34375 5.90625 52.296875 
C 5.90625 48.796875 8.5 48.1875 9.796875 48.1875 
C 11.90625 48.1875 13.703125 49.484375 13.703125 52.09375 
C 13.703125 54.6875 11.90625 56 9.796875 56 
C 9.40625 56 8.90625 56 8.5 55.796875 
C 11.40625 62.484375 19.296875 63.6875 22.796875 63.6875 
C 26.296875 63.6875 32.90625 61.96875 32.90625 52.296875 
C 32.90625 49.484375 32.5 44.546875 29.09375 40.21875 
C 26.09375 36.390625 22.703125 36.1875 19.40625 35.890625 
C 18.90625 35.890625 16.59375 35.6875 16.203125 35.6875 
C 15.5 35.59375 15.09375 35.5 15.09375 34.796875 
C 15.09375 34.09375 15.203125 34 17.203125 34 
z
" id="CMR17-51"/>
     </defs>
     <use transform="scale(0.996264)" xlink:href="#CMR17-45"/>
     <use transform="translate(30.075966 0)scale(0.996264)" xlink:href="#CMR17-48"/>
     <use transform="translate(75.766443 0)scale(0.996264)" xlink:href="#CMR17-46"/>
     <use transform="translate(100.637502 0)scale(0.996264)" xlink:href="#CMR17-48"/>
     <use transform="translate(146.327979 0)scale(0.996264)" xlink:href="#CMR17-49"/>
     <use transform="translate(192.018456 0)scale(0.996264)" xlink:href="#CMR17-51"/>
    </g>
   </g>
   <g id="text_10">
    <!-- $\Delta \delta(S)$ -->
    <g style="fill:#262626;" transform="translate(91.80605 40.8)scale(0.12 -0.12)">
     <defs>
      <path d="M 40.59375 69.296875 
C 39.796875 71 39.40625 71 38.59375 71 
C 37.40625 71 37.296875 70.796875 36.59375 69.390625 
L 4.203125 1.6875 
C 4.09375 1.5 3.703125 0.59375 3.703125 0.5 
C 3.703125 0.09375 3.796875 0 5.59375 0 
L 71.5 0 
C 73.296875 0 73.40625 0.09375 73.40625 0.5 
C 73.40625 0.59375 73 1.5 72.90625 1.6875 
z
M 36.09375 63.375 
L 63.796875 5.59375 
L 8.296875 5.59375 
z
" id="CMR17-1"/>
      <path d="M 26 43.671875 
C 13.203125 40.578125 4 27.3125 4 15.640625 
C 4 4.984375 11.203125 -1 19.203125 -1 
C 31 -1 39 15.15625 39 28.40625 
C 39 37.390625 34.796875 42.859375 32.296875 46.15625 
C 28.59375 50.84375 22.59375 58.515625 22.59375 63.3125 
C 22.59375 65 23.90625 68 28.296875 68 
C 31.40625 68 33.296875 66.890625 36.296875 65.203125 
C 37.203125 64.59375 39.5 63.3125 40.796875 63.3125 
C 42.90625 63.3125 44.40625 65.40625 44.40625 67 
C 44.40625 68.890625 42.90625 69.1875 39.40625 70 
C 34.703125 71 33.296875 71 31.59375 71 
C 29.90625 71 20.09375 71 20.09375 60.8125 
C 20.09375 55.921875 22.59375 50.25 26 43.671875 
z
M 27.09375 41.765625 
C 30.90625 33.890625 32.40625 30.90625 32.40625 24.421875 
C 32.40625 16.640625 28.203125 1 19.296875 1 
C 15.40625 1 9.796875 3.578125 9.796875 12.859375 
C 9.796875 19.34375 13.5 38.1875 27.09375 41.765625 
z
" id="CMMI12-14"/>
      <path d="M 30.59375 -24.40625 
C 30.59375 -24.3125 30.59375 -24.109375 30.296875 -23.8125 
C 25.703125 -19.109375 13.40625 -6.296875 13.40625 24.9375 
C 13.40625 56.171875 25.5 68.875 30.40625 73.890625 
C 30.40625 73.984375 30.59375 74.1875 30.59375 74.484375 
C 30.59375 74.796875 30.296875 75 29.90625 75 
C 28.796875 75 20.296875 67.578125 15.40625 56.5625 
C 10.40625 45.453125 9 34.65625 9 25.046875 
C 9 17.828125 9.703125 5.625 15.703125 -7.296875 
C 20.5 -17.703125 28.703125 -25 29.90625 -25 
C 30.40625 -25 30.59375 -24.8125 30.59375 -24.40625 
z
" id="CMR17-40"/>
      <path d="M 63.5 69.09375 
C 63.5 70 62.796875 70 62.59375 70 
C 62.203125 70 62.09375 69.890625 60.90625 68.390625 
C 60.296875 67.6875 56.203125 62.53125 56.09375 62.4375 
C 52.796875 68.890625 46.203125 70 42 70 
C 29.296875 70 17.796875 58.46875 17.796875 47.25 
C 17.796875 39.796875 22.296875 35.4375 27.203125 33.75 
C 28.296875 33.34375 34.203125 31.765625 37.203125 31.0625 
C 42.296875 29.671875 43.59375 29.28125 45.703125 27.09375 
C 46.09375 26.59375 48.09375 24.3125 48.09375 19.65625 
C 48.09375 10.421875 39.5 0.890625 29.5 0.890625 
C 21.296875 0.890625 12.203125 4.359375 12.203125 15.484375 
C 12.203125 17.375 12.59375 19.75 12.90625 20.75 
C 12.90625 21.046875 13 21.53125 13 21.734375 
C 13 22.140625 12.796875 22.625 12 22.625 
C 11.09375 22.625 11 22.4375 10.59375 20.75 
L 5.5 0.390625 
C 5.5 0.296875 5.09375 -1 5.09375 -1.109375 
C 5.09375 -2 5.90625 -2 6.09375 -2 
C 6.5 -2 6.59375 -1.90625 7.796875 -0.40625 
L 12.40625 5.5625 
C 14.796875 1.984375 20 -2 29.296875 -2 
C 42.203125 -2 54 10.421875 54 22.828125 
C 54 27 53 30.671875 49.203125 34.34375 
C 47.09375 36.421875 45.296875 36.921875 36.09375 39.3125 
C 29.40625 41.09375 28.5 41.390625 26.703125 42.984375 
C 25 44.671875 23.703125 47.046875 23.703125 50.421875 
C 23.703125 58.765625 32.203125 67.296875 41.703125 67.296875 
C 51.5 67.296875 56.09375 61.34375 56.09375 51.90625 
C 56.09375 49.328125 55.59375 46.65625 55.59375 46.25 
C 55.59375 45.359375 56.40625 45.359375 56.703125 45.359375 
C 57.59375 45.359375 57.703125 45.65625 58.09375 47.25 
z
" id="CMMI12-83"/>
      <path d="M 26.296875 24.9375 
C 26.296875 32.140625 25.59375 44.359375 19.59375 57.265625 
C 14.796875 67.6875 6.59375 75 5.40625 75 
C 5.09375 75 4.703125 74.890625 4.703125 74.390625 
C 4.703125 74.1875 4.796875 74.09375 4.90625 73.890625 
C 9.703125 68.875 21.90625 56.171875 21.90625 25.046875 
C 21.90625 -6.1875 9.796875 -18.90625 4.90625 -23.90625 
C 4.796875 -24.109375 4.703125 -24.203125 4.703125 -24.40625 
C 4.703125 -24.90625 5.09375 -25 5.40625 -25 
C 6.5 -25 15 -17.609375 19.90625 -6.59375 
C 24.90625 4.515625 26.296875 15.328125 26.296875 24.9375 
z
" id="CMR17-41"/>
     </defs>
     <use transform="scale(0.996264)" xlink:href="#CMR17-1"/>
     <use transform="translate(76.91959 0)scale(0.996264)" xlink:href="#CMMI12-14"/>
     <use transform="translate(123.860976 0)scale(0.996264)" xlink:href="#CMR17-40"/>
     <use transform="translate(159.141744 0)scale(0.996264)" xlink:href="#CMMI12-83"/>
     <use transform="translate(224.936183 0)scale(0.996264)" xlink:href="#CMR17-41"/>
    </g>
   </g>
  </g>
 </g>
 <defs>
  <clipPath id="p9437778bc2">
   <rect height="194.4" width="194.4" x="10.8" y="46.8"/>
  </clipPath>
 </defs>
</svg>
