<?xml version="1.0" encoding="UTF-8" standalone="no"?>
<!-- Created with matplotlib (https://matplotlib.org/) -->

<svg
   height="168.8pt"
   version="1.1"
   viewBox="0 0 311.01428 168.8"
   width="311.01428pt"
   id="svg402"
   sodipodi:docname="freq_vs_bnd_.svg"
   inkscape:version="1.1.2 (1:1.1+202202050950+0a00cf5339)"
   inkscape:export-filename="/home/spiller/phd/thesis/results/nitroco/cluster/freq_vs_bnd.png"
   inkscape:export-xdpi="300.01999"
   inkscape:export-ydpi="300.01999"
   xmlns:inkscape="http://www.inkscape.org/namespaces/inkscape"
   xmlns:sodipodi="http://sodipodi.sourceforge.net/DTD/sodipodi-0.dtd"
   xmlns:xlink="http://www.w3.org/1999/xlink"
   xmlns="http://www.w3.org/2000/svg"
   xmlns:svg="http://www.w3.org/2000/svg"
   xmlns:rdf="http://www.w3.org/1999/02/22-rdf-syntax-ns#"
   xmlns:cc="http://creativecommons.org/ns#"
   xmlns:dc="http://purl.org/dc/elements/1.1/">
  <sodipodi:namedview
     id="namedview404"
     pagecolor="#ffffff"
     bordercolor="#666666"
     borderopacity="1.0"
     inkscape:pageshadow="2"
     inkscape:pageopacity="1"
     inkscape:pagecheckerboard="0"
     inkscape:document-units="pt"
     showgrid="false"
     inkscape:zoom="2.9958334"
     inkscape:cx="277.71905"
     inkscape:cy="100.30598"
     inkscape:window-width="1920"
     inkscape:window-height="1016"
     inkscape:window-x="0"
     inkscape:window-y="0"
     inkscape:window-maximized="1"
     inkscape:current-layer="legend_1-6"
     fit-margin-top="5"
     lock-margins="true"
     fit-margin-left="5"
     fit-margin-right="5"
     fit-margin-bottom="5" />
  <metadata
     id="metadata2">
    <rdf:RDF>
      <cc:Work>
        <dc:type
           rdf:resource="http://purl.org/dc/dcmitype/StillImage" />
        <dc:date>2022-01-28T12:04:24.970005</dc:date>
        <dc:format>image/svg+xml</dc:format>
        <dc:creator>
          <cc:Agent>
            <dc:title>Matplotlib v3.3.4, https://matplotlib.org/</dc:title>
          </cc:Agent>
        </dc:creator>
      </cc:Work>
    </rdf:RDF>
  </metadata>
  <defs
     id="defs6">
    <style
       type="text/css"
       id="style4">*{stroke-linecap:butt;stroke-linejoin:round;}</style>
    <style
       type="text/css"
       id="style3820">*{stroke-linecap:butt;stroke-linejoin:round;}</style>
    <path
       d="m 65.90625,23 c 1.6875,0 3.5,0 3.5,2 0,2 -1.8125,2 -3.5,2 H 11.796875 c -1.703125,0 -3.5,0 -3.5,-2 0,-2 1.796875,-2 3.5,-2 z"
       id="CMSY10-0-6" />
    <path
       d="M 26.59375,63.796875 C 26.59375,65.890625 26.5,66 25.09375,66 21.203125,61.359375 15.296875,59.890625 9.703125,59.6875 c -0.296875,0 -0.796875,0 -0.90625,-0.1875 C 8.703125,59.296875 8.703125,59.09375 8.703125,57 11.796875,57 17,57.59375 21,59.984375 v -52.6875 c 0,-3.5 -0.203125,-4.703125 -8.796875,-4.703125 h -3 V 0 C 14,0.09375 19,0.1875 23.796875,0.1875 28.59375,0.1875 33.59375,0.09375 38.40625,0 v 2.59375 h -3 c -8.609375,0 -8.8125,1.09375 -8.8125,4.703125 z"
       id="CMR17-49-3" />
    <path
       d="M 33.59375,64.796875 C 33.59375,66.890625 33.5,67 31.703125,67 L 2,19.59375 V 17 H 27.796875 V 7.1875 c 0,-3.59375 -0.203125,-4.59375 -7.203125,-4.59375 H 18.703125 V 0 c 3.203125,0.1875 8.59375,0.1875 12,0.1875 3.390625,0 8.796875,0 12,-0.1875 v 2.59375 h -1.90625 c -7,0 -7.203125,1 -7.203125,4.59375 V 17 h 10.203125 v 2.59375 H 33.59375 Z m -5.5,-6.625 V 19.59375 H 4 Z"
       id="CMR17-52-1" />
    <path
       d="M 41.703125,15.46875 H 39.90625 c -1,-7.078125 -1.8125,-8.28125 -2.203125,-8.875 C 37.203125,5.796875 30,5.796875 28.59375,5.796875 H 9.40625 C 13,9.6875 20,16.765625 28.5,24.9375 34.59375,30.71875 41.703125,37.5 41.703125,47.390625 41.703125,59.1875 32.296875,66 21.796875,66 c -11,0 -17.703125,-9.703125 -17.703125,-18.703125 0,-3.90625 2.90625,-4.40625 4.109375,-4.40625 1,0 4,0.59375 4,4.09375 C 12.203125,50.09375 9.59375,51 8.203125,51 7.59375,51 7,50.890625 6.59375,50.6875 c 1.90625,8.5 7.703125,12.703125 13.8125,12.703125 8.6875,0 14.390625,-6.890625 14.390625,-16 0,-8.6875 -5.09375,-16.171875 -10.796875,-22.65625 L 4.09375,2.296875 V 0 h 35.203125 z"
       id="CMR17-50-6" />
    <path
       d="m 42,31.84375 c 0,6.125 -0.09375,16.578125 -4.296875,24.609375 C 34,63.484375 28.09375,66 22.90625,66 18.09375,66 12,63.78125 8.203125,56.5625 4.203125,49.015625 3.796875,39.671875 3.796875,31.84375 3.796875,26.109375 3.90625,17.375 7,9.734375 11.296875,-0.609375 19,-2 22.90625,-2 27.5,-2 34.5,-0.109375 38.59375,9.4375 41.59375,16.375 42,24.5 42,31.84375 Z m -19.09375,-32.25 C 16.5,-0.40625 12.703125,5.125 11.296875,12.75 c -1.09375,5.9375 -1.09375,14.578125 -1.09375,20.203125 0,7.734375 0,14.15625 1.296875,20.28125 1.90625,8.546875 7.5,11.15625 11.40625,11.15625 4.09375,0 9.390625,-2.71875 11.296875,-10.953125 C 35.5,47.71875 35.59375,40.984375 35.59375,32.953125 c 0,-6.53125 0,-14.578125 -1.1875,-20.5 -2.109375,-10.953125 -8,-12.859375 -11.5,-12.859375 z"
       id="CMR17-48-8" />
    <path
       d="M 27.203125,35.765625 C 33.5,38.96875 39.90625,43.796875 39.90625,51.53125 39.90625,60.6875 31.09375,66 23,66 13.90625,66 5.90625,59.375 5.90625,50.234375 c 0,-2.515625 0.59375,-6.84375 4.5,-10.65625 1,-1 5.1875,-4.015625 7.890625,-5.921875 -4.5,-2.3125 -15,-7.84375 -15,-18.890625 C 3.296875,4.40625 13.09375,-2 22.796875,-2 33.5,-2 42.5,5.71875 42.5,15.96875 c 0,9.140625 -6.09375,13.359375 -10.09375,16.078125 z m -13.109375,8.84375 c -0.796875,0.5 -4.796875,3.609375 -4.796875,8.328125 0,6.140625 6.296875,10.75 13.5,10.75 7.90625,0 13.703125,-5.625 13.703125,-12.15625 0,-9.34375 -10.40625,-14.671875 -10.90625,-14.671875 -0.09375,0 -0.1875,0 -1,0.609375 z M 32.5,24 c 1.5,-1.09375 6.296875,-4.421875 6.296875,-10.546875 0,-7.4375 -7.390625,-13.0625 -15.796875,-13.0625 -9.09375,0 -16,6.53125 -16,14.46875 0,7.9375 6.09375,14.578125 13,17.6875 z"
       id="CMR17-56-1" />
    <path
       d="M 10.59375,34.34375 C 10.59375,58 21.796875,63.6875 28.296875,63.6875 30.40625,63.6875 35.5,63.265625 37.5,59.09375 c -1.59375,0 -4.59375,0 -4.59375,-3.5 C 32.90625,52.890625 35.09375,52 36.5,52 c 0.90625,0 3.59375,0.390625 3.59375,3.796875 0,6.5 -5,10.203125 -11.890625,10.203125 C 16.296875,66 3.796875,53.296875 3.796875,31.421875 3.796875,4.015625 15.09375,-2 23.09375,-2 32.796875,-2 42,6.734375 42,20.234375 42,32.828125 33.90625,42 23.703125,42 17.59375,42 13.09375,37.96875 10.59375,30.921875 Z m 12.5,-33.953125 c -12.296875,0 -12.296875,18.546875 -12.296875,22.265625 0,7.25 3.40625,17.734375 12.703125,17.734375 1.703125,0 6.59375,0 9.90625,-6.953125 1.796875,-3.921875 1.796875,-8.0625 1.796875,-13.09375 0,-5.4375 0,-9.46875 -2.109375,-13.5 -2.1875,-4.140625 -5.390625,-6.453125 -10,-6.453125 z"
       id="CMR17-54-7" />
    <path
       d="M 15,69 3.09375,67.890625 v -2.59375 c 5.90625,0 6.8125,-0.59375 6.8125,-5.25 v -60.25 h 1.796875 l 2.890625,7.15625 C 17.5,2.203125 21.796875,-1 27.59375,-1 c 10,0 20.109375,8.859375 20.109375,22.59375 0,12.921875 -9,22.40625 -19.109375,22.40625 C 22.40625,44 18,40.671875 15,36.734375 Z m 0.203125,-37.40625 c 0,1.8125 0,2.109375 1.390625,4.234375 3.90625,6.0625 9.5,6.5625 11.40625,6.5625 3,0 13.296875,-1.609375 13.296875,-20.703125 C 41.296875,1.703125 29.5,0.59375 27.09375,0.59375 24,0.59375 19.5,1.796875 16.296875,7.65625 c -1.09375,1.921875 -1.09375,2.125 -1.09375,3.9375 z"
       id="CMR17-98-3" />
    <path
       d="M 15.5,61.890625 C 15.5,64.09375 13.703125,66 11.40625,66 9.203125,66 7.296875,64.1875 7.296875,61.890625 c 0,-2.203125 1.796875,-4.09375 4.109375,-4.09375 2.1875,0 4.09375,1.796875 4.09375,4.09375 z m -11.703125,-19 v -2.59375 c 5.609375,0 6.40625,-0.609375 6.40625,-5.4375 V 6.921875 C 10.203125,3.09375 9.796875,2.59375 3.40625,2.59375 V 0 c 2.390625,0.1875 6.6875,0.1875 9.1875,0.1875 2.40625,0 6.5,0 8.8125,-0.1875 v 2.59375 c -5.90625,0 -6.109375,0.609375 -6.109375,4.21875 V 44 Z"
       id="CMR17-105-8" />
    <path
       d="M 41.5,30.53125 C 41.5,35.65625 40.5,44 28.703125,44 c -7.90625,0 -12,-6.125 -13.5,-10.15625 H 15.09375 V 44 L 3.296875,42.890625 V 40.28125 c 5.90625,0 6.796875,-0.59375 6.796875,-5.421875 V 6.921875 C 10.09375,3.09375 9.703125,2.59375 3.296875,2.59375 V 0 c 2.40625,0.1875 6.796875,0.1875 9.40625,0.1875 2.59375,0 7.09375,0 9.5,-0.1875 V 2.59375 C 15.796875,2.59375 15.40625,3 15.40625,6.921875 V 26.21875 C 15.40625,35.453125 21,42.390625 28,42.390625 c 7.40625,0 8.203125,-6.625 8.203125,-11.453125 V 6.921875 c 0,-3.828125 -0.40625,-4.328125 -6.796875,-4.328125 V 0 c 2.390625,0.1875 6.796875,0.1875 9.390625,0.1875 2.609375,0 7.109375,0 9.5,-0.1875 V 2.59375 C 41.90625,2.59375 41.5,3 41.5,6.921875 Z"
       id="CMR17-110-8" />
    <path
       d="m 29.203125,67.890625 v -2.59375 c 5.890625,0 6.796875,-0.59375 6.796875,-5.25 v -23 C 35.59375,37.546875 31.5,44 23.40625,44 13.203125,44 3.296875,34.8125 3.296875,21.5 3.296875,8.265625 12.59375,-1 22.40625,-1 c 8.5,0 12.890625,6.640625 13.390625,7.34375 V -1 L 47.90625,-0.203125 V 2.40625 c -5.90625,0 -6.8125,0.609375 -6.8125,5.453125 V 69 Z M 35.796875,11.90625 C 35.796875,8.875 34,6.140625 31.703125,4.125 28.296875,1.09375 24.90625,0.59375 23,0.59375 c -2.90625,0 -13.296875,1.515625 -13.296875,20.796875 0,19.796875 11.59375,21 14.203125,21 4.59375,0 8.296875,-2.625 10.59375,-6.25 1.296875,-2.125 1.296875,-2.4375 1.296875,-4.25 z"
       id="CMR17-100-3" />
    <path
       d="M 11.09375,18.203125 C 13,16.6875 16.296875,15 20.296875,15 28.203125,15 35,21.234375 35,29.609375 c 0,2.625 -0.796875,6.65625 -3.796875,9.78125 2.796875,3 6.890625,4 9.203125,4 0.390625,0 1,0 1.5,-0.296875 -0.40625,-0.109375 -1.3125,-0.5 -1.3125,-2.109375 0,-1.296875 0.90625,-2.1875 2.203125,-2.1875 1.5,0 2.296875,1 2.296875,2.296875 0,1.890625 -1.5,3.90625 -4.6875,3.90625 -4,0 -7.5,-1.90625 -10.3125,-4.515625 -3,2.703125 -6.59375,3.703125 -9.796875,3.703125 -7.890625,0 -14.703125,-6.203125 -14.703125,-14.578125 0,-5.75 3.3125,-9.390625 4.3125,-10.390625 -3,-3.53125 -3,-7.625 -3,-8.125 0,-2.59375 1,-6.40625 4.390625,-8.5 C 6.09375,1.28125 2,-2.875 2,-8.078125 2,-15.5625 11.5,-21 22.90625,-21 c 11,0 20.890625,5.234375 20.890625,13.03125 C 43.796875,6 29,6 21.296875,6 19,6 14.90625,6 14.40625,6.09375 c -3.109375,0.5 -5.203125,3.296875 -5.203125,6.796875 0,0.90625 0,3.109375 1.890625,5.3125 z M 20.296875,16.6875 C 11.5,16.6875 11.5,27.59375 11.5,29.609375 c 0,2.015625 0,12.875 8.796875,12.875 8.796875,0 8.796875,-10.859375 8.796875,-12.875 0,-2.015625 0,-12.921875 -8.796875,-12.921875 z m 2.609375,-36 c -10,0 -16.90625,5.515625 -16.90625,11.234375 0,3.21875 1.703125,6.234375 3.90625,7.90625 2.5,1.765625 3.5,1.765625 10.296875,1.765625 8.203125,0 19.59375,0 19.59375,-9.671875 0,-5.71875 -6.890625,-11.234375 -16.890625,-11.234375 z"
       id="CMR17-103-1" />
    <path
       d="M 38.09375,23.484375 C 38.5,23.890625 38.5,24.09375 38.5,25.09375 38.5,35.171875 33.09375,44 21.703125,44 c -10.609375,0 -19,-10.015625 -19,-22.21875 C 2.703125,8.65625 12.203125,-1 22.796875,-1 34,-1 38.40625,9.671875 38.40625,11.796875 38.40625,12.5 37.796875,12.5 37.59375,12.5 c -0.6875,0 -0.796875,-0.203125 -1.1875,-1.421875 C 34.203125,4.21875 28.703125,0.796875 23.5,0.796875 19.203125,0.796875 14.90625,3.21875 12.203125,7.65625 9.09375,12.796875 9.09375,18.75 9.09375,23.484375 Z M 9.203125,25 C 9.90625,39.234375 17.59375,42.390625 21.59375,42.390625 28.40625,42.390625 33,36.0625 33.09375,25 Z"
       id="CMR17-101-8" />
    <path
       d="m 15,23.703125 c 0,9.640625 4.09375,18.6875 11.59375,18.6875 0.703125,0 1.40625,-0.09375 2.109375,-0.40625 0,0 -2.203125,-0.703125 -2.203125,-3.3125 0,-2.40625 1.90625,-3.40625 3.40625,-3.40625 1.1875,0 3.390625,0.703125 3.390625,3.515625 0,3.203125 -3.203125,5.21875 -6.59375,5.21875 -7.609375,0 -10.90625,-7.4375 -11.90625,-10.953125 h -0.09375 V 44 L 3.09375,42.890625 V 40.28125 c 5.90625,0 6.8125,-0.59375 6.8125,-5.421875 V 6.921875 C 9.90625,3.09375 9.5,2.59375 3.09375,2.59375 V 0 c 2.40625,0.1875 7,0.1875 9.609375,0.1875 2.890625,0 8,0 10.703125,-0.1875 v 2.59375 c -7.203125,0 -8.40625,0 -8.40625,4.515625 z"
       id="CMR17-114-9" />
    <path
       d="m 39,34.109375 c 2.5,6.1875 7,6.28125 8.40625,6.28125 V 43 C 45.5,42.890625 43,42.796875 41.09375,42.796875 c -2.09375,0 -5.390625,0 -7.390625,0.203125 V 40.390625 C 37.5,40.09375 37.59375,37.25 37.59375,36.4375 c 0,-1 -0.1875,-1.515625 -0.6875,-2.71875 L 26,6.390625 14.09375,35.9375 c -0.5,1.21875 -0.5,1.921875 -0.5,2.03125 0,2.21875 2.3125,2.421875 4.703125,2.421875 V 43 C 15.90625,42.796875 11.59375,42.796875 9.09375,42.796875 c -2.6875,0 -5.890625,0 -8.09375,0.203125 v -2.609375 c 5.40625,0 6,-0.5 7.296875,-3.75 l 14.90625,-37.125 c -4.5,-11.9375 -7.109375,-18.921875 -13.40625,-18.921875 -1.09375,0 -3.59375,0.296875 -5.390625,2.125 2.296875,0.203125 3.296875,1.625 3.296875,3.34375 0,1.71875 -1.203125,3.234375 -3.203125,3.234375 -2.203125,0 -3.296875,-1.515625 -3.296875,-3.34375 0,-4.046875 4.09375,-6.953125 8.59375,-6.953125 5.796875,0 9.40625,5.640625 11.40625,10.703125 z"
       id="CMR17-121-6" />
    <path
       d="m 23.5,-25 v 3.5 H 14.09375 V 71.484375 H 23.5 V 75 H 10.59375 V -25 Z"
       id="CMR17-91-4" />
    <path
       d="M 26.09375,26.234375 C 26,26.4375 25.5,27.03125 25.5,27.328125 c 0,0.203125 7.09375,6.65625 8,7.453125 5.703125,4.78125 9.296875,5.265625 11.90625,5.375 v 2.578125 c -0.609375,0 -0.8125,0 -0.90625,-0.09375 L 39.59375,42.53125 c -2.796875,0 -7.09375,0 -9.796875,0.203125 V 40.15625 c 1.40625,-0.109375 2.40625,-0.890625 2.40625,-2.296875 0,-1.984375 -2,-3.875 -2.109375,-3.875 L 15,20.28125 V 69 L 3.09375,67.890625 v -2.59375 c 5.90625,0 6.8125,-0.59375 6.8125,-5.375 V 6.859375 C 9.90625,3.09375 9.5,2.59375 3.09375,2.59375 V 0 c 2.40625,0.1875 6.8125,0.1875 9.3125,0.1875 2.5,0 6.890625,0 9.296875,-0.1875 v 2.59375 c -6.40625,0 -6.796875,0.390625 -6.796875,4.265625 v 10.9375 L 21.796875,24.0625 31.90625,9.15625 c 1.1875,-1.796875 2.1875,-3.1875 2.1875,-4.484375 0,-1.78125 -1.796875,-2.078125 -3,-2.078125 V 0 C 33.5,0.1875 37.796875,0.1875 40.296875,0.1875 42.09375,0.1875 45.796875,0.09375 47.5,0 v 2.59375 c -4.703125,0 -5.796875,0.890625 -8.796875,5.265625 z"
       id="CMR17-107-3" />
    <path
       d="M 34.90625,35 C 33,35 30.203125,35 30.203125,31.484375 c 0,-2.796875 2.296875,-3.59375 3.59375,-3.59375 0.703125,0 3.609375,0.296875 3.609375,3.796875 0,7 -6.8125,12.3125 -14.5,12.3125 C 12.296875,44 3.296875,34.390625 3.296875,21.546875 3.296875,8.140625 12.703125,-1 22.90625,-1 c 12.390625,0 15.5,11.5625 15.5,12.671875 0,0.40625 -0.109375,0.703125 -0.8125,0.703125 -0.6875,0 -0.796875,-0.09375 -1.1875,-1.40625 C 33.796875,2.8125 28.09375,0.796875 23.796875,0.796875 c -6.390625,0 -14.09375,5.9375 -14.09375,20.84375 C 9.703125,36.84375 17.09375,42.1875 23,42.1875 c 3.90625,0 9.703125,-1.84375 11.90625,-7.1875 z"
       id="CMR17-99-3" />
    <path
       d="M 36,25.875 C 36,32 36,35.546875 31.796875,39.59375 28.09375,42.984375 23.796875,44 20.40625,44 12.5,44 6.796875,37.625 6.796875,30.890625 6.796875,27.1875 9.796875,27 10.40625,27 11.703125,27 14,27.796875 14,30.59375 c 0,2.5 -1.90625,3.59375 -3.59375,3.59375 C 10,34.1875 9.5,34.09375 9.203125,34 c 2.09375,6.53125 7.5,8.390625 11,8.390625 5,0 10.5,-4.5625 10.5,-13.09375 V 25.5 c -5.90625,-0.203125 -13,-1 -18.609375,-4.046875 C 5.796875,17.921875 4,12.84375 4,9 4,1.203125 13,-1 18.296875,-1 c 5.5,0 10.609375,3.109375 12.796875,8.890625 0.203125,-4.46875 3,-8.5 7.40625,-8.5 2.09375,0 7.40625,1.40625 7.40625,9.40625 v 5.671875 h -1.8125 V 8.703125 c 0,-6.1875 -2.6875,-7 -4,-7 C 36,1.703125 36,6.96875 36,11.4375 Z M 30.703125,13.859375 C 30.703125,5.046875 24.5,0.59375 19,0.59375 c -5,0 -8.90625,3.75 -8.90625,8.40625 0,3.046875 1.3125,8.40625 7.109375,11.65625 C 22,23.390625 27.5,23.796875 30.703125,24 Z"
       id="CMR17-97-3" />
    <path
       d="M 15.296875,69 3.40625,67.890625 v -2.59375 c 5.890625,0 6.796875,-0.59375 6.796875,-5.375 V 6.859375 C 10.203125,3.09375 9.796875,2.59375 3.40625,2.59375 V 0 c 2.390625,0.1875 6.796875,0.1875 9.296875,0.1875 2.59375,0 7,0 9.390625,-0.1875 v 2.59375 c -6.390625,0 -6.796875,0.390625 -6.796875,4.265625 z"
       id="CMR17-108-8" />
    <path
       d="m 42.90625,71.296875 c 0,0.09375 0.59375,1.59375 0.59375,1.796875 0,1.203125 -1,1.90625 -1.796875,1.90625 -0.5,0 -1.40625,0 -2.203125,-2.203125 L 6,-21.3125 c 0,-0.09375 -0.59375,-1.59375 -0.59375,-1.796875 0,-1.203125 1,-1.890625 1.796875,-1.890625 0.59375,0 1.5,0.09375 2.203125,2.1875 z"
       id="CMMI12-61-6" />
    <path
       d="M 67.59375,30.53125 C 67.59375,35.5625 66.703125,44 54.796875,44 48,44 43.296875,39.375 41.5,33.953125 H 41.40625 C 40.203125,42.1875 34.296875,44 28.703125,44 c -7.90625,0 -12,-6.125 -13.5,-10.15625 H 15.09375 V 44 L 3.296875,42.890625 V 40.28125 c 5.90625,0 6.796875,-0.59375 6.796875,-5.421875 V 6.921875 C 10.09375,3.09375 9.703125,2.59375 3.296875,2.59375 V 0 c 2.40625,0.1875 6.796875,0.1875 9.40625,0.1875 2.59375,0 7.09375,0 9.5,-0.1875 V 2.59375 C 15.796875,2.59375 15.40625,3 15.40625,6.921875 V 26.21875 C 15.40625,35.453125 21,42.390625 28,42.390625 c 7.40625,0 8.203125,-6.625 8.203125,-11.453125 V 6.921875 c 0,-3.828125 -0.40625,-4.328125 -6.796875,-4.328125 V 0 c 2.390625,0.1875 6.796875,0.1875 9.390625,0.1875 2.609375,0 7.109375,0 9.5,-0.1875 V 2.59375 C 41.90625,2.59375 41.5,3 41.5,6.921875 V 26.21875 c 0,9.234375 5.59375,16.171875 12.59375,16.171875 7.40625,0 8.203125,-6.625 8.203125,-11.453125 V 6.921875 C 62.296875,3.09375 61.90625,2.59375 55.5,2.59375 V 0 c 2.40625,0.1875 6.796875,0.1875 9.40625,0.1875 2.59375,0 7.09375,0 9.5,-0.1875 V 2.59375 C 68,2.59375 67.59375,3 67.59375,6.921875 Z"
       id="CMR17-109-0" />
    <path
       d="M 43.09375,21.1875 C 43.09375,34 33.796875,44 22.90625,44 12,44 2.703125,34 2.703125,21.1875 2.703125,8.59375 12,-1 22.90625,-1 c 10.890625,0 20.1875,9.59375 20.1875,22.1875 z M 22.90625,0.796875 c -4.703125,0 -8.703125,2.796875 -11,6.703125 -2.5,4.5 -2.8125,10.09375 -2.8125,14.5 0,4.1875 0.203125,9.390625 2.8125,13.890625 2,3.296875 5.890625,6.5 11,6.5 4.5,0 8.296875,-2.5 10.6875,-6 C 36.703125,31.6875 36.703125,25.09375 36.703125,22 36.703125,18.09375 36.5,12.09375 33.796875,7.296875 31,2.6875 26.703125,0.796875 22.90625,0.796875 Z"
       id="CMR17-111-4" />
    <path
       d="M 14.296875,75 H 1.40625 v -3.515625 h 9.390625 V -21.5 H 1.40625 V -25 h 12.890625 z"
       id="CMR17-93-8" />
    <path
       d="m 11.40625,58.59375 c 1,-0.40625 5.09375,-1.703125 9.296875,-1.703125 9.296875,0 14.390625,5 17.296875,7.796875 C 38,65.484375 38,66 37.40625,66 c -0.109375,0 -0.3125,0 -1.109375,-0.40625 -3.5,-1.5 -7.59375,-2.59375 -12.59375,-2.59375 -3,0 -7.5,0.359375 -12.40625,2.484375 C 10.203125,66 10,66 9.90625,66 9.40625,66 9.296875,65.890625 9.296875,63.90625 V 34.859375 c 0,-1.84375 0,-2.359375 1,-2.359375 0.5,0 0.703125,0.203125 1.203125,0.921875 C 14.703125,38.046875 19.09375,40 24.09375,40 c 3.5,0 11,-2.265625 11,-19.796875 0,-3.21875 0,-9.015625 -3,-13.609375 -2.5,-4.109375 -6.390625,-6.203125 -10.6875,-6.203125 -6.609375,0 -13.3125,4.59375 -15.109375,12.296875 C 6.703125,12.59375 7.5,12.390625 7.90625,12.390625 c 1.296875,0 3.796875,0.703125 3.796875,3.796875 C 11.703125,18.890625 9.796875,20 7.90625,20 5.59375,20 4.09375,18.59375 4.09375,15.796875 4.09375,7.09375 11,-2 21.59375,-2 c 10.3125,0 20.109375,8.890625 20.109375,21.796875 0,12.296875 -7.796875,21.796875 -17.5,21.796875 -5.109375,0 -9.40625,-1.90625 -12.796875,-5.59375 z"
       id="CMR17-53-3" />
    <path
       d="M 45.09375,61.796875 V 64 h -23.5 C 9.90625,64 9.703125,65.09375 9.296875,67 H 7.5 L 4.59375,48.5 h 1.8125 c 0.296875,1.90625 1,7 2.1875,8.890625 0.609375,0.796875 8,0.796875 9.703125,0.796875 h 22 L 29.203125,41.71875 c -7.40625,-11.078125 -12.5,-26.046875 -12.5,-39.125 0,-1.203125 0,-4.59375 3.59375,-4.59375 3.609375,0 3.609375,3.390625 3.609375,4.6875 v 4.59375 c 0,16.375 2.796875,27.15625 7.390625,34.03125 z"
       id="CMR17-55-4" />
    <path
       d="M 35.203125,29.234375 C 35.203125,7 26.09375,0.390625 18.59375,0.390625 c -2.296875,0 -7.890625,0.28125 -10.1875,4 2.59375,-0.390625 4.5,1 4.5,3.5 C 12.90625,10.59375 10.703125,11.5 9.296875,11.5 8.40625,11.5 5.703125,11.09375 5.703125,7.6875 5.703125,1.0625 11.59375,-2 18.796875,-2 30.296875,-2 42,10.390625 42,32.65625 42,60.265625 30.796875,66 23.203125,66 13.296875,66 3.796875,57.25 3.796875,43.75 3.796875,31.25 11.90625,22 22.09375,22 30.5,22 34.203125,29.84375 35.203125,33.15625 Z M 22.296875,23.59375 c -2.703125,0 -6.5,0.5 -9.59375,6.546875 -2.109375,3.9375 -2.109375,8.5625 -2.109375,13.5 0,5.953125 0,10.078125 2.8125,14.515625 1.390625,2.109375 4,5.53125 9.796875,5.53125 C 35,63.6875 35,45.453125 35,41.421875 35,34.265625 31.796875,23.59375 22.296875,23.59375 Z"
       id="CMR17-57-4" />
    <path
       d="m 62.09375,67.984375 c 0,1.8125 -0.09375,1.90625 -0.6875,1.90625 -0.40625,0 -0.5,-0.09375 -1.203125,-1.296875 l -4.40625,-8.453125 C 50.90625,66.390625 44.90625,70 37.203125,70 20.09375,70 4.59375,54.796875 4.59375,34.046875 4.59375,13.078125 20.09375,-2 37.296875,-2 52.59375,-2 62.09375,11.578125 62.09375,23.15625 c 0,1.015625 0,1.421875 -0.890625,1.421875 -0.796875,0 -0.796875,-0.3125 -0.90625,-1.21875 C 59.5,9.25 49.5,0.59375 38.703125,0.59375 c -10.203125,0 -26.5,7.25 -26.5,33.453125 0,26.296875 16.59375,33.34375 26.296875,33.34375 11.296875,0 19.5,-9.875 21.40625,-23.875 0.1875,-1.21875 0.1875,-1.40625 1.09375,-1.40625 1.09375,0 1.09375,0.1875 1.09375,2.015625 z"
       id="CMR17-67-9" />
    <path
       d="M 67.296875,33.84375 C 67.296875,54.5 52.59375,70 36,70 19,70 4.59375,54.296875 4.59375,33.84375 4.59375,13.390625 19.203125,-2 35.90625,-2 53,-2 67.296875,13.6875 67.296875,33.84375 Z M 36,-0.203125 c -11.40625,0 -23.796875,11.484375 -23.796875,35.359375 0,23.765625 13.59375,33.03125 23.703125,33.03125 C 46.5,68.1875 59.703125,58.625 59.703125,35.15625 59.703125,10.875 47,-0.203125 36,-0.203125 Z"
       id="CMR17-79-2" />
    <path
       d="m 15.296875,40.390625 h 11.40625 V 43 H 15.09375 v 12.296875 c 0,8.390625 4.203125,13.09375 8.5,13.09375 1.3125,0 2.8125,-0.21875 3.8125,-0.59375 C 26.59375,67.59375 24.5,66.890625 24.5,64.390625 24.5,61.796875 26.5,61 27.90625,61 c 1.390625,0 3.390625,0.796875 3.390625,3.390625 0,3.625 -3.59375,5.609375 -7.59375,5.609375 -5.703125,0 -13.5,-4.203125 -13.5,-14.90625 V 43 h -8 v -2.609375 h 8 v -33.5 C 10.203125,3.09375 9.796875,2.59375 3.40625,2.59375 V 0 c 2.390625,0.1875 7,0.1875 9.59375,0.1875 2.90625,0 8,0 10.703125,-0.1875 v 2.59375 c -7.203125,0 -8.40625,0 -8.40625,4.5 z"
       id="CMR17-102-2" />
    <path
       d="M 41.09375,44 H 39.5 l -3,-9.984375 C 34.203125,39.359375 30,44 23.296875,44 c -10.203125,0 -20,-9.1875 -20,-22.5 C 3.296875,8.265625 12.5,-1 22.5,-1 c 7.703125,0 12,5.9375 13.296875,8.15625 v -20.1875 c 0,-3.859375 -0.390625,-4.375 -6.796875,-4.375 V -20 c 2.40625,0.1875 6.796875,0.1875 9.40625,0.1875 2.59375,0 7.09375,0 9.5,-0.1875 v 2.59375 c -6.40625,0 -6.8125,0.40625 -6.8125,4.375 z M 36,13.609375 C 36,9.28125 32.40625,5.234375 32.09375,4.9375 29,1.40625 25.40625,0.59375 23,0.59375 15.5,0.59375 9.703125,10.1875 9.703125,21.390625 9.703125,33.203125 16.296875,42.1875 24,42.1875 32,42.1875 36,33 36,27.75 Z"
       id="CMR17-113-4" />
    <path
       d="m 29.40625,42.890625 v -2.59375 c 5.890625,0 6.796875,-0.609375 6.796875,-5.46875 v -18.375 c 0,-8.484375 -4.5,-15.859375 -11.90625,-15.859375 -8.203125,0 -8.890625,4.953125 -8.890625,10.203125 V 44 L 3.296875,42.890625 v -2.59375 c 4,0 6.703125,0 6.796875,-4.046875 V 16.859375 c 0,-6.765625 0,-11.109375 2.609375,-13.9375 C 14,1.609375 16.5,-1 23.703125,-1 c 8.5,0 11.796875,7.25 12.59375,9.375 H 36.40625 V -1 l 11.890625,0.796875 V 2.40625 C 42.40625,2.40625 41.5,3.015625 41.5,7.859375 V 44 Z"
       id="CMR17-117-7" />
    <path
       d="M 0,3 C 0.795609,3 1.55874,2.683901 2.12132,2.12132 2.683901,1.55874 3,0.795609 3,0 3,-0.795609 2.683901,-1.55874 2.12132,-2.12132 1.55874,-2.683901 0.795609,-3 0,-3 -0.795609,-3 -1.55874,-2.683901 -2.12132,-2.12132 -2.683901,-1.55874 -3,-0.795609 -3,0 -3,0.795609 -2.683901,1.55874 -2.12132,2.12132 -1.55874,2.683901 -0.795609,3 0,3 Z"
       id="m33058baa43"
       style="stroke:#4878d0" />
    <path
       d="M 54.40625,67.796875 H 5.09375 V 65.1875 c 6.90625,0 8,0 8,-4.515625 V 7.03125 c 0,-4.4375 -1.09375,-4.4375 -8,-4.4375 V 0 c 2.90625,0.1875 8.5,0.1875 11.609375,0.1875 4.09375,0 8.890625,0 13,-0.1875 V 2.59375 H 27.5 c -7.59375,0 -7.796875,0.984375 -7.796875,4.53125 v 25.265625 h 9 c 9.296875,0 10.203125,-3.25 10.203125,-11.546875 h 1.796875 V 46.734375 H 38.90625 C 38.90625,38.296875 38,35 28.703125,35 h -9 v 26.28125 c 0,3.40625 0.203125,3.90625 4.203125,3.90625 H 36.796875 C 51.90625,65.1875 53.59375,58.96875 55,45.625 h 1.796875 z"
       id="CMR17-70-2" />
    <path
       d="M 20.90625,66.390625 C 20.296875,67.890625 20.203125,68 18.09375,68 H 5.296875 v -2.609375 c 6.90625,0 8,0 8,-4.484375 V 9.75 c 0,-2.484375 0,-7.15625 -8,-7.15625 V 0 c 2.296875,0.1875 6.5,0.1875 9,0.1875 2.5,0 6.703125,0 9,-0.1875 v 2.59375 c -8,0 -8,4.671875 -8,7.15625 v 55.234375 h 0.109375 l 23.5,-63.390625 C 39.296875,0.59375 39.5,0 40.296875,0 c 0.796875,0 1,0.59375 1.40625,1.59375 L 65.40625,65.484375 H 65.5 V 7.078125 C 65.5,2.59375 64.40625,2.59375 57.5,2.59375 V 0 c 2.703125,0.1875 8.09375,0.1875 11,0.1875 2.90625,0 8.40625,0 11.09375,-0.1875 v 2.59375 c -6.890625,0 -8,0 -8,4.484375 V 60.90625 c 0,4.484375 1.109375,4.484375 8,4.484375 V 68 h -12.6875 c -2.109375,0 -2.203125,-0.109375 -2.8125,-1.609375 L 42.5,8.0625 Z"
       id="CMR17-77-1" />
    <path
       d="M 0,3 C 0.795609,3 1.55874,2.683901 2.12132,2.12132 2.683901,1.55874 3,0.795609 3,0 3,-0.795609 2.683901,-1.55874 2.12132,-2.12132 1.55874,-2.683901 0.795609,-3 0,-3 -0.795609,-3 -1.55874,-2.683901 -2.12132,-2.12132 -2.683901,-1.55874 -3,-0.795609 -3,0 -3,0.795609 -2.683901,1.55874 -2.12132,2.12132 -1.55874,2.683901 -0.795609,3 0,3 Z"
       id="m416abdd783"
       style="stroke:#ee854a" />
    <path
       d="m 59,58.78125 c 0.90625,2.203125 2.5,6.515625 9.203125,6.609375 V 68 c -2.296875,-0.203125 -4.90625,-0.203125 -7.40625,-0.203125 -2.390625,0 -6.5,0 -8.796875,0.203125 v -2.609375 c 5,-0.296875 5.203125,-3.796875 5.203125,-4.40625 0,-1.09375 -0.296875,-1.796875 -0.609375,-2.59375 L 36.90625,7 16.296875,60.984375 c -0.296875,0.703125 -0.5,1.203125 -0.5,1.703125 0,2.703125 4,2.703125 6.109375,2.703125 V 68 C 18.703125,67.796875 14,67.796875 10.703125,67.796875 8.09375,67.796875 3.40625,67.796875 1,68 v -2.609375 c 5.796875,0 6.90625,-0.390625 8.09375,-3.59375 L 32.90625,-0.40625 C 33.40625,-1.8125 33.5,-2 34.59375,-2 c 1.109375,0 1.203125,0.1875 1.703125,1.59375 z"
       id="CMR17-86-5" />
    <path
       d="M 0,3 C 0.795609,3 1.55874,2.683901 2.12132,2.12132 2.683901,1.55874 3,0.795609 3,0 3,-0.795609 2.683901,-1.55874 2.12132,-2.12132 1.55874,-2.683901 0.795609,-3 0,-3 -0.795609,-3 -1.55874,-2.683901 -2.12132,-2.12132 -2.683901,-1.55874 -3,-0.795609 -3,0 -3,0.795609 -2.683901,1.55874 -2.12132,2.12132 -1.55874,2.683901 -0.795609,3 0,3 Z"
       id="m8f734dd251"
       style="stroke:#333333" />
    <path
       d="M 60.703125,25.21875 H 58.90625 c -2.203125,-14.65625 -3.5,-22.625 -21.109375,-22.625 H 23.90625 c -4,0 -4.203125,0.5 -4.203125,3.890625 V 34 H 29.09375 C 38.5,34 39.40625,30.609375 39.40625,22.328125 h 1.796875 V 48.21875 H 39.40625 c 0,-8.25 -0.90625,-11.625 -10.3125,-11.625 H 19.703125 V 61.3125 c 0,3.390625 0.203125,3.875 4.203125,3.875 h 13.6875 c 15.5,0 17.3125,-6.15625 18.703125,-19.359375 h 1.796875 l -2.390625,21.96875 H 5.09375 V 65.1875 c 6.90625,0 8,0 8,-4.46875 V 7.078125 C 13.09375,2.59375 12,2.59375 5.09375,2.59375 V 0 h 52 z"
       id="CMR17-69" />
    <path
       d="M -1.5,3 0,1.5 1.5,3 3,1.5 1.5,0 3,-1.5 1.5,-3 0,-1.5 -1.5,-3 -3,-1.5 -1.5,0 -3,1.5 Z"
       id="m43fd243391"
       style="stroke:#333333" />
    <clipPath
       id="p4d3af2e7c0">
      <rect
         height="128.58168"
         width="188.87437"
         x="52.325619"
         y="10.8"
         id="rect4229" />
    </clipPath>
    <clipPath
       id="p4d3af2e7c0-0">
      <rect
         height="128.58168"
         width="188.87437"
         x="52.325619"
         y="10.8"
         id="rect4229-3" />
    </clipPath>
    <clipPath
       id="p4d3af2e7c0-7">
      <rect
         height="128.58168"
         width="188.87437"
         x="52.325619"
         y="10.8"
         id="rect4229-6" />
    </clipPath>
    <clipPath
       id="clipPath2381">
      <rect
         height="128.58168"
         width="188.87437"
         x="52.325619"
         y="10.8"
         id="rect2379" />
    </clipPath>
  </defs>
  <defs
     id="defs400">
    <clipPath
       id="peda2277a74">
      <rect
         height="128.58168"
         width="188.87437"
         x="52.325619"
         y="10.8"
         id="rect397" />
    </clipPath>
  </defs>
  <g
     id="axes_1-0"
     transform="translate(-5.6915339,-5.4)">
    <g
       id="patch_2-4">
      <path
         d="M 52.32562,139.38168 H 241.2 V 10.8 H 52.32562 Z"
         style="fill:#ffffff"
         id="path3827" />
    </g>
    <g
       id="matplotlib.axis_1-4">
      <g
         id="xtick_1-4">
        <g
           id="line2d_1-4">
          <path
             clip-path="url(#p4d3af2e7c0)"
             d="M 215.26234,139.38168 V 10.8"
             style="fill:none;stroke:#cccccc;stroke-width:0.8;stroke-linecap:round"
             id="path3830" />
        </g>
        <g
           id="text_1-7">
          <!-- $\mathdefault{−14}$ -->
          <g
             style="fill:#262626"
             transform="matrix(0.1,0,0,-0.1,206.40663,153.30018)"
             id="g3844">
            <defs
               id="defs3836">
              <path
                 d="m 65.90625,23 c 1.6875,0 3.5,0 3.5,2 0,2 -1.8125,2 -3.5,2 H 11.796875 c -1.703125,0 -3.5,0 -3.5,-2 0,-2 1.796875,-2 3.5,-2 z"
                 id="path4287" />
              <path
                 d="M 26.59375,63.796875 C 26.59375,65.890625 26.5,66 25.09375,66 21.203125,61.359375 15.296875,59.890625 9.703125,59.6875 c -0.296875,0 -0.796875,0 -0.90625,-0.1875 C 8.703125,59.296875 8.703125,59.09375 8.703125,57 11.796875,57 17,57.59375 21,59.984375 v -52.6875 c 0,-3.5 -0.203125,-4.703125 -8.796875,-4.703125 h -3 V 0 C 14,0.09375 19,0.1875 23.796875,0.1875 28.59375,0.1875 33.59375,0.09375 38.40625,0 v 2.59375 h -3 c -8.609375,0 -8.8125,1.09375 -8.8125,4.703125 z"
                 id="path4289" />
              <path
                 d="M 33.59375,64.796875 C 33.59375,66.890625 33.5,67 31.703125,67 L 2,19.59375 V 17 H 27.796875 V 7.1875 c 0,-3.59375 -0.203125,-4.59375 -7.203125,-4.59375 H 18.703125 V 0 c 3.203125,0.1875 8.59375,0.1875 12,0.1875 3.390625,0 8.796875,0 12,-0.1875 v 2.59375 h -1.90625 c -7,0 -7.203125,1 -7.203125,4.59375 V 17 h 10.203125 v 2.59375 H 33.59375 Z m -5.5,-6.625 V 19.59375 H 4 Z"
                 id="path4291" />
            </defs>
            <use
               transform="scale(0.996264)"
               xlink:href="#CMSY10-0-6"
               id="use3838"
               x="0"
               y="0"
               width="100%"
               height="100%" />
            <use
               transform="matrix(0.996264,0,0,0.996264,77.487468,0)"
               xlink:href="#CMR17-49-3"
               id="use3840"
               x="0"
               y="0"
               width="100%"
               height="100%" />
            <use
               transform="matrix(0.996264,0,0,0.996264,123.17794,0)"
               xlink:href="#CMR17-52-1"
               id="use3842"
               x="0"
               y="0"
               width="100%"
               height="100%" />
          </g>
        </g>
      </g>
      <g
         id="xtick_2-7">
        <g
           id="line2d_2-5">
          <path
             clip-path="url(#p4d3af2e7c0)"
             d="M 180.39827,139.38168 V 10.8"
             style="fill:none;stroke:#cccccc;stroke-width:0.8;stroke-linecap:round"
             id="path3848" />
        </g>
        <g
           id="text_2-9">
          <!-- $\mathdefault{−12}$ -->
          <g
             style="fill:#262626"
             transform="matrix(0.1,0,0,-0.1,171.54256,153.30018)"
             id="g3860">
            <defs
               id="defs3852">
              <path
                 d="M 41.703125,15.46875 H 39.90625 c -1,-7.078125 -1.8125,-8.28125 -2.203125,-8.875 C 37.203125,5.796875 30,5.796875 28.59375,5.796875 H 9.40625 C 13,9.6875 20,16.765625 28.5,24.9375 34.59375,30.71875 41.703125,37.5 41.703125,47.390625 41.703125,59.1875 32.296875,66 21.796875,66 c -11,0 -17.703125,-9.703125 -17.703125,-18.703125 0,-3.90625 2.90625,-4.40625 4.109375,-4.40625 1,0 4,0.59375 4,4.09375 C 12.203125,50.09375 9.59375,51 8.203125,51 7.59375,51 7,50.890625 6.59375,50.6875 c 1.90625,8.5 7.703125,12.703125 13.8125,12.703125 8.6875,0 14.390625,-6.890625 14.390625,-16 0,-8.6875 -5.09375,-16.171875 -10.796875,-22.65625 L 4.09375,2.296875 V 0 h 35.203125 z"
                 id="path4302" />
            </defs>
            <use
               transform="scale(0.996264)"
               xlink:href="#CMSY10-0-6"
               id="use3854"
               x="0"
               y="0"
               width="100%"
               height="100%" />
            <use
               transform="matrix(0.996264,0,0,0.996264,77.487468,0)"
               xlink:href="#CMR17-49-3"
               id="use3856"
               x="0"
               y="0"
               width="100%"
               height="100%" />
            <use
               transform="matrix(0.996264,0,0,0.996264,123.17794,0)"
               xlink:href="#CMR17-50-6"
               id="use3858"
               x="0"
               y="0"
               width="100%"
               height="100%" />
          </g>
        </g>
      </g>
      <g
         id="xtick_3-2">
        <g
           id="line2d_3-1">
          <path
             clip-path="url(#p4d3af2e7c0)"
             d="M 145.53419,139.38168 V 10.8"
             style="fill:none;stroke:#cccccc;stroke-width:0.8;stroke-linecap:round"
             id="path3864" />
        </g>
        <g
           id="text_3-7">
          <!-- $\mathdefault{−10}$ -->
          <g
             style="fill:#262626"
             transform="matrix(0.1,0,0,-0.1,136.67849,153.30018)"
             id="g3876">
            <defs
               id="defs3868">
              <path
                 d="m 42,31.84375 c 0,6.125 -0.09375,16.578125 -4.296875,24.609375 C 34,63.484375 28.09375,66 22.90625,66 18.09375,66 12,63.78125 8.203125,56.5625 4.203125,49.015625 3.796875,39.671875 3.796875,31.84375 3.796875,26.109375 3.90625,17.375 7,9.734375 11.296875,-0.609375 19,-2 22.90625,-2 27.5,-2 34.5,-0.109375 38.59375,9.4375 41.59375,16.375 42,24.5 42,31.84375 Z m -19.09375,-32.25 C 16.5,-0.40625 12.703125,5.125 11.296875,12.75 c -1.09375,5.9375 -1.09375,14.578125 -1.09375,20.203125 0,7.734375 0,14.15625 1.296875,20.28125 1.90625,8.546875 7.5,11.15625 11.40625,11.15625 4.09375,0 9.390625,-2.71875 11.296875,-10.953125 C 35.5,47.71875 35.59375,40.984375 35.59375,32.953125 c 0,-6.53125 0,-14.578125 -1.1875,-20.5 -2.109375,-10.953125 -8,-12.859375 -11.5,-12.859375 z"
                 id="path4313" />
            </defs>
            <use
               transform="scale(0.996264)"
               xlink:href="#CMSY10-0-6"
               id="use3870"
               x="0"
               y="0"
               width="100%"
               height="100%" />
            <use
               transform="matrix(0.996264,0,0,0.996264,77.487468,0)"
               xlink:href="#CMR17-49-3"
               id="use3872"
               x="0"
               y="0"
               width="100%"
               height="100%" />
            <use
               transform="matrix(0.996264,0,0,0.996264,123.17794,0)"
               xlink:href="#CMR17-48-8"
               id="use3874"
               x="0"
               y="0"
               width="100%"
               height="100%" />
          </g>
        </g>
      </g>
      <g
         id="xtick_4-5">
        <g
           id="line2d_4-7">
          <path
             clip-path="url(#p4d3af2e7c0)"
             d="M 110.67012,139.38168 V 10.8"
             style="fill:none;stroke:#cccccc;stroke-width:0.8;stroke-linecap:round"
             id="path3880" />
        </g>
        <g
           id="text_4-4">
          <!-- $\mathdefault{−8}$ -->
          <g
             style="fill:#262626"
             transform="matrix(0.1,0,0,-0.1,104.30508,153.30018)"
             id="g3890">
            <defs
               id="defs3884">
              <path
                 d="M 27.203125,35.765625 C 33.5,38.96875 39.90625,43.796875 39.90625,51.53125 39.90625,60.6875 31.09375,66 23,66 13.90625,66 5.90625,59.375 5.90625,50.234375 c 0,-2.515625 0.59375,-6.84375 4.5,-10.65625 1,-1 5.1875,-4.015625 7.890625,-5.921875 -4.5,-2.3125 -15,-7.84375 -15,-18.890625 C 3.296875,4.40625 13.09375,-2 22.796875,-2 33.5,-2 42.5,5.71875 42.5,15.96875 c 0,9.140625 -6.09375,13.359375 -10.09375,16.078125 z m -13.109375,8.84375 c -0.796875,0.5 -4.796875,3.609375 -4.796875,8.328125 0,6.140625 6.296875,10.75 13.5,10.75 7.90625,0 13.703125,-5.625 13.703125,-12.15625 0,-9.34375 -10.40625,-14.671875 -10.90625,-14.671875 -0.09375,0 -0.1875,0 -1,0.609375 z M 32.5,24 c 1.5,-1.09375 6.296875,-4.421875 6.296875,-10.546875 0,-7.4375 -7.390625,-13.0625 -15.796875,-13.0625 -9.09375,0 -16,6.53125 -16,14.46875 0,7.9375 6.09375,14.578125 13,17.6875 z"
                 id="path4324" />
            </defs>
            <use
               transform="scale(0.996264)"
               xlink:href="#CMSY10-0-6"
               id="use3886"
               x="0"
               y="0"
               width="100%"
               height="100%" />
            <use
               transform="matrix(0.996264,0,0,0.996264,77.487468,0)"
               xlink:href="#CMR17-56-1"
               id="use3888"
               x="0"
               y="0"
               width="100%"
               height="100%" />
          </g>
        </g>
      </g>
      <g
         id="xtick_5-8">
        <g
           id="line2d_5-5">
          <path
             clip-path="url(#p4d3af2e7c0)"
             d="M 75.80605,139.38168 V 10.8"
             style="fill:none;stroke:#cccccc;stroke-width:0.8;stroke-linecap:round"
             id="path3894" />
        </g>
        <g
           id="text_5-9">
          <!-- $\mathdefault{−6}$ -->
          <g
             style="fill:#262626"
             transform="matrix(0.1,0,0,-0.1,69.44101,153.30018)"
             id="g3904">
            <defs
               id="defs3898">
              <path
                 d="M 10.59375,34.34375 C 10.59375,58 21.796875,63.6875 28.296875,63.6875 30.40625,63.6875 35.5,63.265625 37.5,59.09375 c -1.59375,0 -4.59375,0 -4.59375,-3.5 C 32.90625,52.890625 35.09375,52 36.5,52 c 0.90625,0 3.59375,0.390625 3.59375,3.796875 0,6.5 -5,10.203125 -11.890625,10.203125 C 16.296875,66 3.796875,53.296875 3.796875,31.421875 3.796875,4.015625 15.09375,-2 23.09375,-2 32.796875,-2 42,6.734375 42,20.234375 42,32.828125 33.90625,42 23.703125,42 17.59375,42 13.09375,37.96875 10.59375,30.921875 Z m 12.5,-33.953125 c -12.296875,0 -12.296875,18.546875 -12.296875,22.265625 0,7.25 3.40625,17.734375 12.703125,17.734375 1.703125,0 6.59375,0 9.90625,-6.953125 1.796875,-3.921875 1.796875,-8.0625 1.796875,-13.09375 0,-5.4375 0,-9.46875 -2.109375,-13.5 -2.1875,-4.140625 -5.390625,-6.453125 -10,-6.453125 z"
                 id="path4334" />
            </defs>
            <use
               transform="scale(0.996264)"
               xlink:href="#CMSY10-0-6"
               id="use3900"
               x="0"
               y="0"
               width="100%"
               height="100%" />
            <use
               transform="matrix(0.996264,0,0,0.996264,77.487468,0)"
               xlink:href="#CMR17-54-7"
               id="use3902"
               x="0"
               y="0"
               width="100%"
               height="100%" />
          </g>
        </g>
      </g>
      <g
         id="text_6-5">
        <!-- binding energy [\si{\kpm}] -->
        <g
           style="fill:#262626"
           transform="matrix(0.1,0,0,-0.1,90.98573,166.70934)"
           id="g3973">
          <defs
             id="defs3925">
            <path
               d="M 15,69 3.09375,67.890625 v -2.59375 c 5.90625,0 6.8125,-0.59375 6.8125,-5.25 v -60.25 h 1.796875 l 2.890625,7.15625 C 17.5,2.203125 21.796875,-1 27.59375,-1 c 10,0 20.109375,8.859375 20.109375,22.59375 0,12.921875 -9,22.40625 -19.109375,22.40625 C 22.40625,44 18,40.671875 15,36.734375 Z m 0.203125,-37.40625 c 0,1.8125 0,2.109375 1.390625,4.234375 3.90625,6.0625 9.5,6.5625 11.40625,6.5625 3,0 13.296875,-1.609375 13.296875,-20.703125 C 41.296875,1.703125 29.5,0.59375 27.09375,0.59375 24,0.59375 19.5,1.796875 16.296875,7.65625 c -1.09375,1.921875 -1.09375,2.125 -1.09375,3.9375 z"
               id="path4342" />
            <path
               d="M 15.5,61.890625 C 15.5,64.09375 13.703125,66 11.40625,66 9.203125,66 7.296875,64.1875 7.296875,61.890625 c 0,-2.203125 1.796875,-4.09375 4.109375,-4.09375 2.1875,0 4.09375,1.796875 4.09375,4.09375 z m -11.703125,-19 v -2.59375 c 5.609375,0 6.40625,-0.609375 6.40625,-5.4375 V 6.921875 C 10.203125,3.09375 9.796875,2.59375 3.40625,2.59375 V 0 c 2.390625,0.1875 6.6875,0.1875 9.1875,0.1875 2.40625,0 6.5,0 8.8125,-0.1875 v 2.59375 c -5.90625,0 -6.109375,0.609375 -6.109375,4.21875 V 44 Z"
               id="path4344" />
            <path
               d="M 41.5,30.53125 C 41.5,35.65625 40.5,44 28.703125,44 c -7.90625,0 -12,-6.125 -13.5,-10.15625 H 15.09375 V 44 L 3.296875,42.890625 V 40.28125 c 5.90625,0 6.796875,-0.59375 6.796875,-5.421875 V 6.921875 C 10.09375,3.09375 9.703125,2.59375 3.296875,2.59375 V 0 c 2.40625,0.1875 6.796875,0.1875 9.40625,0.1875 2.59375,0 7.09375,0 9.5,-0.1875 V 2.59375 C 15.796875,2.59375 15.40625,3 15.40625,6.921875 V 26.21875 C 15.40625,35.453125 21,42.390625 28,42.390625 c 7.40625,0 8.203125,-6.625 8.203125,-11.453125 V 6.921875 c 0,-3.828125 -0.40625,-4.328125 -6.796875,-4.328125 V 0 c 2.390625,0.1875 6.796875,0.1875 9.390625,0.1875 2.609375,0 7.109375,0 9.5,-0.1875 V 2.59375 C 41.90625,2.59375 41.5,3 41.5,6.921875 Z"
               id="path4346" />
            <path
               d="m 29.203125,67.890625 v -2.59375 c 5.890625,0 6.796875,-0.59375 6.796875,-5.25 v -23 C 35.59375,37.546875 31.5,44 23.40625,44 13.203125,44 3.296875,34.8125 3.296875,21.5 3.296875,8.265625 12.59375,-1 22.40625,-1 c 8.5,0 12.890625,6.640625 13.390625,7.34375 V -1 L 47.90625,-0.203125 V 2.40625 c -5.90625,0 -6.8125,0.609375 -6.8125,5.453125 V 69 Z M 35.796875,11.90625 C 35.796875,8.875 34,6.140625 31.703125,4.125 28.296875,1.09375 24.90625,0.59375 23,0.59375 c -2.90625,0 -13.296875,1.515625 -13.296875,20.796875 0,19.796875 11.59375,21 14.203125,21 4.59375,0 8.296875,-2.625 10.59375,-6.25 1.296875,-2.125 1.296875,-2.4375 1.296875,-4.25 z"
               id="path4348" />
            <path
               d="M 11.09375,18.203125 C 13,16.6875 16.296875,15 20.296875,15 28.203125,15 35,21.234375 35,29.609375 c 0,2.625 -0.796875,6.65625 -3.796875,9.78125 2.796875,3 6.890625,4 9.203125,4 0.390625,0 1,0 1.5,-0.296875 -0.40625,-0.109375 -1.3125,-0.5 -1.3125,-2.109375 0,-1.296875 0.90625,-2.1875 2.203125,-2.1875 1.5,0 2.296875,1 2.296875,2.296875 0,1.890625 -1.5,3.90625 -4.6875,3.90625 -4,0 -7.5,-1.90625 -10.3125,-4.515625 -3,2.703125 -6.59375,3.703125 -9.796875,3.703125 -7.890625,0 -14.703125,-6.203125 -14.703125,-14.578125 0,-5.75 3.3125,-9.390625 4.3125,-10.390625 -3,-3.53125 -3,-7.625 -3,-8.125 0,-2.59375 1,-6.40625 4.390625,-8.5 C 6.09375,1.28125 2,-2.875 2,-8.078125 2,-15.5625 11.5,-21 22.90625,-21 c 11,0 20.890625,5.234375 20.890625,13.03125 C 43.796875,6 29,6 21.296875,6 19,6 14.90625,6 14.40625,6.09375 c -3.109375,0.5 -5.203125,3.296875 -5.203125,6.796875 0,0.90625 0,3.109375 1.890625,5.3125 z M 20.296875,16.6875 C 11.5,16.6875 11.5,27.59375 11.5,29.609375 c 0,2.015625 0,12.875 8.796875,12.875 8.796875,0 8.796875,-10.859375 8.796875,-12.875 0,-2.015625 0,-12.921875 -8.796875,-12.921875 z m 2.609375,-36 c -10,0 -16.90625,5.515625 -16.90625,11.234375 0,3.21875 1.703125,6.234375 3.90625,7.90625 2.5,1.765625 3.5,1.765625 10.296875,1.765625 8.203125,0 19.59375,0 19.59375,-9.671875 0,-5.71875 -6.890625,-11.234375 -16.890625,-11.234375 z"
               id="path4350" />
            <path
               d="M 38.09375,23.484375 C 38.5,23.890625 38.5,24.09375 38.5,25.09375 38.5,35.171875 33.09375,44 21.703125,44 c -10.609375,0 -19,-10.015625 -19,-22.21875 C 2.703125,8.65625 12.203125,-1 22.796875,-1 34,-1 38.40625,9.671875 38.40625,11.796875 38.40625,12.5 37.796875,12.5 37.59375,12.5 c -0.6875,0 -0.796875,-0.203125 -1.1875,-1.421875 C 34.203125,4.21875 28.703125,0.796875 23.5,0.796875 19.203125,0.796875 14.90625,3.21875 12.203125,7.65625 9.09375,12.796875 9.09375,18.75 9.09375,23.484375 Z M 9.203125,25 C 9.90625,39.234375 17.59375,42.390625 21.59375,42.390625 28.40625,42.390625 33,36.0625 33.09375,25 Z"
               id="path4352" />
            <path
               d="m 15,23.703125 c 0,9.640625 4.09375,18.6875 11.59375,18.6875 0.703125,0 1.40625,-0.09375 2.109375,-0.40625 0,0 -2.203125,-0.703125 -2.203125,-3.3125 0,-2.40625 1.90625,-3.40625 3.40625,-3.40625 1.1875,0 3.390625,0.703125 3.390625,3.515625 0,3.203125 -3.203125,5.21875 -6.59375,5.21875 -7.609375,0 -10.90625,-7.4375 -11.90625,-10.953125 h -0.09375 V 44 L 3.09375,42.890625 V 40.28125 c 5.90625,0 6.8125,-0.59375 6.8125,-5.421875 V 6.921875 C 9.90625,3.09375 9.5,2.59375 3.09375,2.59375 V 0 c 2.40625,0.1875 7,0.1875 9.609375,0.1875 2.890625,0 8,0 10.703125,-0.1875 v 2.59375 c -7.203125,0 -8.40625,0 -8.40625,4.515625 z"
               id="path4354" />
            <path
               d="m 39,34.109375 c 2.5,6.1875 7,6.28125 8.40625,6.28125 V 43 C 45.5,42.890625 43,42.796875 41.09375,42.796875 c -2.09375,0 -5.390625,0 -7.390625,0.203125 V 40.390625 C 37.5,40.09375 37.59375,37.25 37.59375,36.4375 c 0,-1 -0.1875,-1.515625 -0.6875,-2.71875 L 26,6.390625 14.09375,35.9375 c -0.5,1.21875 -0.5,1.921875 -0.5,2.03125 0,2.21875 2.3125,2.421875 4.703125,2.421875 V 43 C 15.90625,42.796875 11.59375,42.796875 9.09375,42.796875 c -2.6875,0 -5.890625,0 -8.09375,0.203125 v -2.609375 c 5.40625,0 6,-0.5 7.296875,-3.75 l 14.90625,-37.125 c -4.5,-11.9375 -7.109375,-18.921875 -13.40625,-18.921875 -1.09375,0 -3.59375,0.296875 -5.390625,2.125 2.296875,0.203125 3.296875,1.625 3.296875,3.34375 0,1.71875 -1.203125,3.234375 -3.203125,3.234375 -2.203125,0 -3.296875,-1.515625 -3.296875,-3.34375 0,-4.046875 4.09375,-6.953125 8.59375,-6.953125 5.796875,0 9.40625,5.640625 11.40625,10.703125 z"
               id="path4356" />
            <path
               d="m 23.5,-25 v 3.5 H 14.09375 V 71.484375 H 23.5 V 75 H 10.59375 V -25 Z"
               id="path4358" />
            <path
               d="M 26.09375,26.234375 C 26,26.4375 25.5,27.03125 25.5,27.328125 c 0,0.203125 7.09375,6.65625 8,7.453125 5.703125,4.78125 9.296875,5.265625 11.90625,5.375 v 2.578125 c -0.609375,0 -0.8125,0 -0.90625,-0.09375 L 39.59375,42.53125 c -2.796875,0 -7.09375,0 -9.796875,0.203125 V 40.15625 c 1.40625,-0.109375 2.40625,-0.890625 2.40625,-2.296875 0,-1.984375 -2,-3.875 -2.109375,-3.875 L 15,20.28125 V 69 L 3.09375,67.890625 v -2.59375 c 5.90625,0 6.8125,-0.59375 6.8125,-5.375 V 6.859375 C 9.90625,3.09375 9.5,2.59375 3.09375,2.59375 V 0 c 2.40625,0.1875 6.8125,0.1875 9.3125,0.1875 2.5,0 6.890625,0 9.296875,-0.1875 v 2.59375 c -6.40625,0 -6.796875,0.390625 -6.796875,4.265625 v 10.9375 L 21.796875,24.0625 31.90625,9.15625 c 1.1875,-1.796875 2.1875,-3.1875 2.1875,-4.484375 0,-1.78125 -1.796875,-2.078125 -3,-2.078125 V 0 C 33.5,0.1875 37.796875,0.1875 40.296875,0.1875 42.09375,0.1875 45.796875,0.09375 47.5,0 v 2.59375 c -4.703125,0 -5.796875,0.890625 -8.796875,5.265625 z"
               id="path4360" />
            <path
               d="M 34.90625,35 C 33,35 30.203125,35 30.203125,31.484375 c 0,-2.796875 2.296875,-3.59375 3.59375,-3.59375 0.703125,0 3.609375,0.296875 3.609375,3.796875 0,7 -6.8125,12.3125 -14.5,12.3125 C 12.296875,44 3.296875,34.390625 3.296875,21.546875 3.296875,8.140625 12.703125,-1 22.90625,-1 c 12.390625,0 15.5,11.5625 15.5,12.671875 0,0.40625 -0.109375,0.703125 -0.8125,0.703125 -0.6875,0 -0.796875,-0.09375 -1.1875,-1.40625 C 33.796875,2.8125 28.09375,0.796875 23.796875,0.796875 c -6.390625,0 -14.09375,5.9375 -14.09375,20.84375 C 9.703125,36.84375 17.09375,42.1875 23,42.1875 c 3.90625,0 9.703125,-1.84375 11.90625,-7.1875 z"
               id="path4362" />
            <path
               d="M 36,25.875 C 36,32 36,35.546875 31.796875,39.59375 28.09375,42.984375 23.796875,44 20.40625,44 12.5,44 6.796875,37.625 6.796875,30.890625 6.796875,27.1875 9.796875,27 10.40625,27 11.703125,27 14,27.796875 14,30.59375 c 0,2.5 -1.90625,3.59375 -3.59375,3.59375 C 10,34.1875 9.5,34.09375 9.203125,34 c 2.09375,6.53125 7.5,8.390625 11,8.390625 5,0 10.5,-4.5625 10.5,-13.09375 V 25.5 c -5.90625,-0.203125 -13,-1 -18.609375,-4.046875 C 5.796875,17.921875 4,12.84375 4,9 4,1.203125 13,-1 18.296875,-1 c 5.5,0 10.609375,3.109375 12.796875,8.890625 0.203125,-4.46875 3,-8.5 7.40625,-8.5 2.09375,0 7.40625,1.40625 7.40625,9.40625 v 5.671875 h -1.8125 V 8.703125 c 0,-6.1875 -2.6875,-7 -4,-7 C 36,1.703125 36,6.96875 36,11.4375 Z M 30.703125,13.859375 C 30.703125,5.046875 24.5,0.59375 19,0.59375 c -5,0 -8.90625,3.75 -8.90625,8.40625 0,3.046875 1.3125,8.40625 7.109375,11.65625 C 22,23.390625 27.5,23.796875 30.703125,24 Z"
               id="path4364" />
            <path
               d="M 15.296875,69 3.40625,67.890625 v -2.59375 c 5.890625,0 6.796875,-0.59375 6.796875,-5.375 V 6.859375 C 10.203125,3.09375 9.796875,2.59375 3.40625,2.59375 V 0 c 2.390625,0.1875 6.796875,0.1875 9.296875,0.1875 2.59375,0 7,0 9.390625,-0.1875 v 2.59375 c -6.390625,0 -6.796875,0.390625 -6.796875,4.265625 z"
               id="path4366" />
            <path
               d="m 42.90625,71.296875 c 0,0.09375 0.59375,1.59375 0.59375,1.796875 0,1.203125 -1,1.90625 -1.796875,1.90625 -0.5,0 -1.40625,0 -2.203125,-2.203125 L 6,-21.3125 c 0,-0.09375 -0.59375,-1.59375 -0.59375,-1.796875 0,-1.203125 1,-1.890625 1.796875,-1.890625 0.59375,0 1.5,0.09375 2.203125,2.1875 z"
               id="path4368" />
            <path
               d="M 67.59375,30.53125 C 67.59375,35.5625 66.703125,44 54.796875,44 48,44 43.296875,39.375 41.5,33.953125 H 41.40625 C 40.203125,42.1875 34.296875,44 28.703125,44 c -7.90625,0 -12,-6.125 -13.5,-10.15625 H 15.09375 V 44 L 3.296875,42.890625 V 40.28125 c 5.90625,0 6.796875,-0.59375 6.796875,-5.421875 V 6.921875 C 10.09375,3.09375 9.703125,2.59375 3.296875,2.59375 V 0 c 2.40625,0.1875 6.796875,0.1875 9.40625,0.1875 2.59375,0 7.09375,0 9.5,-0.1875 V 2.59375 C 15.796875,2.59375 15.40625,3 15.40625,6.921875 V 26.21875 C 15.40625,35.453125 21,42.390625 28,42.390625 c 7.40625,0 8.203125,-6.625 8.203125,-11.453125 V 6.921875 c 0,-3.828125 -0.40625,-4.328125 -6.796875,-4.328125 V 0 c 2.390625,0.1875 6.796875,0.1875 9.390625,0.1875 2.609375,0 7.109375,0 9.5,-0.1875 V 2.59375 C 41.90625,2.59375 41.5,3 41.5,6.921875 V 26.21875 c 0,9.234375 5.59375,16.171875 12.59375,16.171875 7.40625,0 8.203125,-6.625 8.203125,-11.453125 V 6.921875 C 62.296875,3.09375 61.90625,2.59375 55.5,2.59375 V 0 c 2.40625,0.1875 6.796875,0.1875 9.40625,0.1875 2.59375,0 7.09375,0 9.5,-0.1875 V 2.59375 C 68,2.59375 67.59375,3 67.59375,6.921875 Z"
               id="path4370" />
            <path
               d="M 43.09375,21.1875 C 43.09375,34 33.796875,44 22.90625,44 12,44 2.703125,34 2.703125,21.1875 2.703125,8.59375 12,-1 22.90625,-1 c 10.890625,0 20.1875,9.59375 20.1875,22.1875 z M 22.90625,0.796875 c -4.703125,0 -8.703125,2.796875 -11,6.703125 -2.5,4.5 -2.8125,10.09375 -2.8125,14.5 0,4.1875 0.203125,9.390625 2.8125,13.890625 2,3.296875 5.890625,6.5 11,6.5 4.5,0 8.296875,-2.5 10.6875,-6 C 36.703125,31.6875 36.703125,25.09375 36.703125,22 36.703125,18.09375 36.5,12.09375 33.796875,7.296875 31,2.6875 26.703125,0.796875 22.90625,0.796875 Z"
               id="path4372" />
            <path
               d="M 14.296875,75 H 1.40625 v -3.515625 h 9.390625 V -21.5 H 1.40625 V -25 h 12.890625 z"
               id="path4374" />
          </defs>
          <use
             transform="scale(0.996264)"
             xlink:href="#CMR17-98-3"
             id="use3927"
             x="0"
             y="0"
             width="100%"
             height="100%" />
          <use
             transform="matrix(0.996264,0,0,0.996264,50.89537,0)"
             xlink:href="#CMR17-105-8"
             id="use3929"
             x="0"
             y="0"
             width="100%"
             height="100%" />
          <use
             transform="matrix(0.996264,0,0,0.996264,75.766428,0)"
             xlink:href="#CMR17-110-8"
             id="use3931"
             x="0"
             y="0"
             width="100%"
             height="100%" />
          <use
             transform="matrix(0.996264,0,0,0.996264,126.6618,0)"
             xlink:href="#CMR17-100-3"
             id="use3933"
             x="0"
             y="0"
             width="100%"
             height="100%" />
          <use
             transform="matrix(0.996264,0,0,0.996264,177.55717,0)"
             xlink:href="#CMR17-105-8"
             id="use3935"
             x="0"
             y="0"
             width="100%"
             height="100%" />
          <use
             transform="matrix(0.996264,0,0,0.996264,202.42823,0)"
             xlink:href="#CMR17-110-8"
             id="use3937"
             x="0"
             y="0"
             width="100%"
             height="100%" />
          <use
             transform="matrix(0.996264,0,0,0.996264,253.3236,0)"
             xlink:href="#CMR17-103-1"
             id="use3939"
             x="0"
             y="0"
             width="100%"
             height="100%" />
          <use
             transform="matrix(0.996264,0,0,0.996264,329.09004,0)"
             xlink:href="#CMR17-101-8"
             id="use3941"
             x="0"
             y="0"
             width="100%"
             height="100%" />
          <use
             transform="matrix(0.996264,0,0,0.996264,369.5757,0)"
             xlink:href="#CMR17-110-8"
             id="use3943"
             x="0"
             y="0"
             width="100%"
             height="100%" />
          <use
             transform="matrix(0.996264,0,0,0.996264,420.47107,0)"
             xlink:href="#CMR17-101-8"
             id="use3945"
             x="0"
             y="0"
             width="100%"
             height="100%" />
          <use
             transform="matrix(0.996264,0,0,0.996264,460.95673,0)"
             xlink:href="#CMR17-114-9"
             id="use3947"
             x="0"
             y="0"
             width="100%"
             height="100%" />
          <use
             transform="matrix(0.996264,0,0,0.996264,496.2375,0)"
             xlink:href="#CMR17-103-1"
             id="use3949"
             x="0"
             y="0"
             width="100%"
             height="100%" />
          <use
             transform="matrix(0.996264,0,0,0.996264,541.92797,0)"
             xlink:href="#CMR17-121-6"
             id="use3951"
             x="0"
             y="0"
             width="100%"
             height="100%" />
          <use
             transform="matrix(0.996264,0,0,0.996264,620.29686,0)"
             xlink:href="#CMR17-91-4"
             id="use3953"
             x="0"
             y="0"
             width="100%"
             height="100%" />
          <use
             transform="matrix(0.996264,0,0,0.996264,645.16792,0)"
             xlink:href="#CMR17-107-3"
             id="use3955"
             x="0"
             y="0"
             width="100%"
             height="100%" />
          <use
             transform="matrix(0.996264,0,0,0.996264,690.85838,0)"
             xlink:href="#CMR17-99-3"
             id="use3957"
             x="0"
             y="0"
             width="100%"
             height="100%" />
          <use
             transform="matrix(0.996264,0,0,0.996264,731.34404,0)"
             xlink:href="#CMR17-97-3"
             id="use3959"
             x="0"
             y="0"
             width="100%"
             height="100%" />
          <use
             transform="matrix(0.996264,0,0,0.996264,777.03452,0)"
             xlink:href="#CMR17-108-8"
             id="use3961"
             x="0"
             y="0"
             width="100%"
             height="100%" />
          <use
             transform="matrix(0.996264,0,0,0.996264,801.90557,0)"
             xlink:href="#CMMI12-61-6"
             id="use3963"
             x="0"
             y="0"
             width="100%"
             height="100%" />
          <use
             transform="matrix(0.996264,0,0,0.996264,850.68049,0)"
             xlink:href="#CMR17-109-0"
             id="use3965"
             x="0"
             y="0"
             width="100%"
             height="100%" />
          <use
             transform="matrix(0.996264,0,0,0.996264,927.60008,0)"
             xlink:href="#CMR17-111-4"
             id="use3967"
             x="0"
             y="0"
             width="100%"
             height="100%" />
          <use
             transform="matrix(0.996264,0,0,0.996264,973.29056,0)"
             xlink:href="#CMR17-108-8"
             id="use3969"
             x="0"
             y="0"
             width="100%"
             height="100%" />
          <use
             transform="matrix(0.996264,0,0,0.996264,998.16162,0)"
             xlink:href="#CMR17-93-8"
             id="use3971"
             x="0"
             y="0"
             width="100%"
             height="100%" />
        </g>
      </g>
    </g>
    <g
       id="matplotlib.axis_2-8">
      <g
         id="ytick_1-8">
        <g
           id="line2d_6-9">
          <path
             clip-path="url(#p4d3af2e7c0)"
             d="M 52.32562,132.14041 H 241.2"
             style="fill:none;stroke:#cccccc;stroke-width:0.8;stroke-linecap:round"
             id="path3977" />
        </g>
        <g
           id="text_7-7">
          <!-- $\mathdefault{1800}$ -->
          <g
             style="fill:#262626"
             transform="matrix(0.1,0,0,-0.1,25.400279,135.59966)"
             id="g3988">
            <use
               transform="scale(0.996264)"
               xlink:href="#CMR17-49-3"
               id="use3980"
               x="0"
               y="0"
               width="100%"
               height="100%" />
            <use
               transform="matrix(0.996264,0,0,0.996264,45.690477,0)"
               xlink:href="#CMR17-56-1"
               id="use3982"
               x="0"
               y="0"
               width="100%"
               height="100%" />
            <use
               transform="matrix(0.996264,0,0,0.996264,91.380954,0)"
               xlink:href="#CMR17-48-8"
               id="use3984"
               x="0"
               y="0"
               width="100%"
               height="100%" />
            <use
               transform="matrix(0.996264,0,0,0.996264,137.07143,0)"
               xlink:href="#CMR17-48-8"
               id="use3986"
               x="0"
               y="0"
               width="100%"
               height="100%" />
          </g>
        </g>
      </g>
      <g
         id="ytick_2-7">
        <g
           id="line2d_7-6">
          <path
             clip-path="url(#p4d3af2e7c0)"
             d="M 52.32562,105.77635 H 241.2"
             style="fill:none;stroke:#cccccc;stroke-width:0.8;stroke-linecap:round"
             id="path3992" />
        </g>
        <g
           id="text_8-4">
          <!-- $\mathdefault{1825}$ -->
          <g
             style="fill:#262626"
             transform="matrix(0.1,0,0,-0.1,25.400279,109.2356)"
             id="g4006">
            <defs
               id="defs3996">
              <path
                 d="m 11.40625,58.59375 c 1,-0.40625 5.09375,-1.703125 9.296875,-1.703125 9.296875,0 14.390625,5 17.296875,7.796875 C 38,65.484375 38,66 37.40625,66 c -0.109375,0 -0.3125,0 -1.109375,-0.40625 -3.5,-1.5 -7.59375,-2.59375 -12.59375,-2.59375 -3,0 -7.5,0.359375 -12.40625,2.484375 C 10.203125,66 10,66 9.90625,66 9.40625,66 9.296875,65.890625 9.296875,63.90625 V 34.859375 c 0,-1.84375 0,-2.359375 1,-2.359375 0.5,0 0.703125,0.203125 1.203125,0.921875 C 14.703125,38.046875 19.09375,40 24.09375,40 c 3.5,0 11,-2.265625 11,-19.796875 0,-3.21875 0,-9.015625 -3,-13.609375 -2.5,-4.109375 -6.390625,-6.203125 -10.6875,-6.203125 -6.609375,0 -13.3125,4.59375 -15.109375,12.296875 C 6.703125,12.59375 7.5,12.390625 7.90625,12.390625 c 1.296875,0 3.796875,0.703125 3.796875,3.796875 C 11.703125,18.890625 9.796875,20 7.90625,20 5.59375,20 4.09375,18.59375 4.09375,15.796875 4.09375,7.09375 11,-2 21.59375,-2 c 10.3125,0 20.109375,8.890625 20.109375,21.796875 0,12.296875 -7.796875,21.796875 -17.5,21.796875 -5.109375,0 -9.40625,-1.90625 -12.796875,-5.59375 z"
                 id="path4414" />
            </defs>
            <use
               transform="scale(0.996264)"
               xlink:href="#CMR17-49-3"
               id="use3998"
               x="0"
               y="0"
               width="100%"
               height="100%" />
            <use
               transform="matrix(0.996264,0,0,0.996264,45.690477,0)"
               xlink:href="#CMR17-56-1"
               id="use4000"
               x="0"
               y="0"
               width="100%"
               height="100%" />
            <use
               transform="matrix(0.996264,0,0,0.996264,91.380954,0)"
               xlink:href="#CMR17-50-6"
               id="use4002"
               x="0"
               y="0"
               width="100%"
               height="100%" />
            <use
               transform="matrix(0.996264,0,0,0.996264,137.07143,0)"
               xlink:href="#CMR17-53-3"
               id="use4004"
               x="0"
               y="0"
               width="100%"
               height="100%" />
          </g>
        </g>
      </g>
      <g
         id="ytick_3-0">
        <g
           id="line2d_8-3">
          <path
             clip-path="url(#p4d3af2e7c0)"
             d="M 52.32562,79.412287 H 241.2"
             style="fill:none;stroke:#cccccc;stroke-width:0.8;stroke-linecap:round"
             id="path4010" />
        </g>
        <g
           id="text_9-0">
          <!-- $\mathdefault{1850}$ -->
          <g
             style="fill:#262626"
             transform="matrix(0.1,0,0,-0.1,25.400279,82.871536)"
             id="g4021">
            <use
               transform="scale(0.996264)"
               xlink:href="#CMR17-49-3"
               id="use4013"
               x="0"
               y="0"
               width="100%"
               height="100%" />
            <use
               transform="matrix(0.996264,0,0,0.996264,45.690477,0)"
               xlink:href="#CMR17-56-1"
               id="use4015"
               x="0"
               y="0"
               width="100%"
               height="100%" />
            <use
               transform="matrix(0.996264,0,0,0.996264,91.380954,0)"
               xlink:href="#CMR17-53-3"
               id="use4017"
               x="0"
               y="0"
               width="100%"
               height="100%" />
            <use
               transform="matrix(0.996264,0,0,0.996264,137.07143,0)"
               xlink:href="#CMR17-48-8"
               id="use4019"
               x="0"
               y="0"
               width="100%"
               height="100%" />
          </g>
        </g>
      </g>
      <g
         id="ytick_4-9">
        <g
           id="line2d_9-2">
          <path
             clip-path="url(#p4d3af2e7c0)"
             d="M 52.32562,53.048225 H 241.2"
             style="fill:none;stroke:#cccccc;stroke-width:0.8;stroke-linecap:round"
             id="path4025" />
        </g>
        <g
           id="text_10-5">
          <!-- $\mathdefault{1875}$ -->
          <g
             style="fill:#262626"
             transform="matrix(0.1,0,0,-0.1,25.400279,56.507474)"
             id="g4039">
            <defs
               id="defs4029">
              <path
                 d="M 45.09375,61.796875 V 64 h -23.5 C 9.90625,64 9.703125,65.09375 9.296875,67 H 7.5 L 4.59375,48.5 h 1.8125 c 0.296875,1.90625 1,7 2.1875,8.890625 0.609375,0.796875 8,0.796875 9.703125,0.796875 h 22 L 29.203125,41.71875 c -7.40625,-11.078125 -12.5,-26.046875 -12.5,-39.125 0,-1.203125 0,-4.59375 3.59375,-4.59375 3.609375,0 3.609375,3.390625 3.609375,4.6875 v 4.59375 c 0,16.375 2.796875,27.15625 7.390625,34.03125 z"
                 id="path4435" />
            </defs>
            <use
               transform="scale(0.996264)"
               xlink:href="#CMR17-49-3"
               id="use4031"
               x="0"
               y="0"
               width="100%"
               height="100%" />
            <use
               transform="matrix(0.996264,0,0,0.996264,45.690477,0)"
               xlink:href="#CMR17-56-1"
               id="use4033"
               x="0"
               y="0"
               width="100%"
               height="100%" />
            <use
               transform="matrix(0.996264,0,0,0.996264,91.380954,0)"
               xlink:href="#CMR17-55-4"
               id="use4035"
               x="0"
               y="0"
               width="100%"
               height="100%" />
            <use
               transform="matrix(0.996264,0,0,0.996264,137.07143,0)"
               xlink:href="#CMR17-53-3"
               id="use4037"
               x="0"
               y="0"
               width="100%"
               height="100%" />
          </g>
        </g>
      </g>
      <g
         id="ytick_5-0">
        <g
           id="line2d_10-5">
          <path
             clip-path="url(#p4d3af2e7c0)"
             d="M 52.32562,26.684163 H 241.2"
             style="fill:none;stroke:#cccccc;stroke-width:0.8;stroke-linecap:round"
             id="path4043" />
        </g>
        <g
           id="text_11-9">
          <!-- $\mathdefault{1900}$ -->
          <g
             style="fill:#262626"
             transform="matrix(0.1,0,0,-0.1,25.400279,30.143412)"
             id="g4057">
            <defs
               id="defs4047">
              <path
                 d="M 35.203125,29.234375 C 35.203125,7 26.09375,0.390625 18.59375,0.390625 c -2.296875,0 -7.890625,0.28125 -10.1875,4 2.59375,-0.390625 4.5,1 4.5,3.5 C 12.90625,10.59375 10.703125,11.5 9.296875,11.5 8.40625,11.5 5.703125,11.09375 5.703125,7.6875 5.703125,1.0625 11.59375,-2 18.796875,-2 30.296875,-2 42,10.390625 42,32.65625 42,60.265625 30.796875,66 23.203125,66 13.296875,66 3.796875,57.25 3.796875,43.75 3.796875,31.25 11.90625,22 22.09375,22 30.5,22 34.203125,29.84375 35.203125,33.15625 Z M 22.296875,23.59375 c -2.703125,0 -6.5,0.5 -9.59375,6.546875 -2.109375,3.9375 -2.109375,8.5625 -2.109375,13.5 0,5.953125 0,10.078125 2.8125,14.515625 1.390625,2.109375 4,5.53125 9.796875,5.53125 C 35,63.6875 35,45.453125 35,41.421875 35,34.265625 31.796875,23.59375 22.296875,23.59375 Z"
                 id="path4447" />
            </defs>
            <use
               transform="scale(0.996264)"
               xlink:href="#CMR17-49-3"
               id="use4049"
               x="0"
               y="0"
               width="100%"
               height="100%" />
            <use
               transform="matrix(0.996264,0,0,0.996264,45.690477,0)"
               xlink:href="#CMR17-57-4"
               id="use4051"
               x="0"
               y="0"
               width="100%"
               height="100%" />
            <use
               transform="matrix(0.996264,0,0,0.996264,91.380954,0)"
               xlink:href="#CMR17-48-8"
               id="use4053"
               x="0"
               y="0"
               width="100%"
               height="100%" />
            <use
               transform="matrix(0.996264,0,0,0.996264,137.07143,0)"
               xlink:href="#CMR17-48-8"
               id="use4055"
               x="0"
               y="0"
               width="100%"
               height="100%" />
          </g>
        </g>
      </g>
      <g
         id="text_12-6">
        <!-- CO frequency [\si{\wn}] -->
        <g
           style="fill:#262626"
           transform="matrix(0,-0.1,-0.1,0,18.909619,121.27192)"
           id="g4102">
          <defs
             id="defs4066">
            <path
               d="m 62.09375,67.984375 c 0,1.8125 -0.09375,1.90625 -0.6875,1.90625 -0.40625,0 -0.5,-0.09375 -1.203125,-1.296875 l -4.40625,-8.453125 C 50.90625,66.390625 44.90625,70 37.203125,70 20.09375,70 4.59375,54.796875 4.59375,34.046875 4.59375,13.078125 20.09375,-2 37.296875,-2 52.59375,-2 62.09375,11.578125 62.09375,23.15625 c 0,1.015625 0,1.421875 -0.890625,1.421875 -0.796875,0 -0.796875,-0.3125 -0.90625,-1.21875 C 59.5,9.25 49.5,0.59375 38.703125,0.59375 c -10.203125,0 -26.5,7.25 -26.5,33.453125 0,26.296875 16.59375,33.34375 26.296875,33.34375 11.296875,0 19.5,-9.875 21.40625,-23.875 0.1875,-1.21875 0.1875,-1.40625 1.09375,-1.40625 1.09375,0 1.09375,0.1875 1.09375,2.015625 z"
               id="path4457" />
            <path
               d="M 67.296875,33.84375 C 67.296875,54.5 52.59375,70 36,70 19,70 4.59375,54.296875 4.59375,33.84375 4.59375,13.390625 19.203125,-2 35.90625,-2 53,-2 67.296875,13.6875 67.296875,33.84375 Z M 36,-0.203125 c -11.40625,0 -23.796875,11.484375 -23.796875,35.359375 0,23.765625 13.59375,33.03125 23.703125,33.03125 C 46.5,68.1875 59.703125,58.625 59.703125,35.15625 59.703125,10.875 47,-0.203125 36,-0.203125 Z"
               id="path4459" />
            <path
               d="m 15.296875,40.390625 h 11.40625 V 43 H 15.09375 v 12.296875 c 0,8.390625 4.203125,13.09375 8.5,13.09375 1.3125,0 2.8125,-0.21875 3.8125,-0.59375 C 26.59375,67.59375 24.5,66.890625 24.5,64.390625 24.5,61.796875 26.5,61 27.90625,61 c 1.390625,0 3.390625,0.796875 3.390625,3.390625 0,3.625 -3.59375,5.609375 -7.59375,5.609375 -5.703125,0 -13.5,-4.203125 -13.5,-14.90625 V 43 h -8 v -2.609375 h 8 v -33.5 C 10.203125,3.09375 9.796875,2.59375 3.40625,2.59375 V 0 c 2.390625,0.1875 7,0.1875 9.59375,0.1875 2.90625,0 8,0 10.703125,-0.1875 v 2.59375 c -7.203125,0 -8.40625,0 -8.40625,4.5 z"
               id="path4461" />
            <path
               d="M 41.09375,44 H 39.5 l -3,-9.984375 C 34.203125,39.359375 30,44 23.296875,44 c -10.203125,0 -20,-9.1875 -20,-22.5 C 3.296875,8.265625 12.5,-1 22.5,-1 c 7.703125,0 12,5.9375 13.296875,8.15625 v -20.1875 c 0,-3.859375 -0.390625,-4.375 -6.796875,-4.375 V -20 c 2.40625,0.1875 6.796875,0.1875 9.40625,0.1875 2.59375,0 7.09375,0 9.5,-0.1875 v 2.59375 c -6.40625,0 -6.8125,0.40625 -6.8125,4.375 z M 36,13.609375 C 36,9.28125 32.40625,5.234375 32.09375,4.9375 29,1.40625 25.40625,0.59375 23,0.59375 15.5,0.59375 9.703125,10.1875 9.703125,21.390625 9.703125,33.203125 16.296875,42.1875 24,42.1875 32,42.1875 36,33 36,27.75 Z"
               id="path4463" />
            <path
               d="m 29.40625,42.890625 v -2.59375 c 5.890625,0 6.796875,-0.609375 6.796875,-5.46875 v -18.375 c 0,-8.484375 -4.5,-15.859375 -11.90625,-15.859375 -8.203125,0 -8.890625,4.953125 -8.890625,10.203125 V 44 L 3.296875,42.890625 v -2.59375 c 4,0 6.703125,0 6.796875,-4.046875 V 16.859375 c 0,-6.765625 0,-11.109375 2.609375,-13.9375 C 14,1.609375 16.5,-1 23.703125,-1 c 8.5,0 11.796875,7.25 12.59375,9.375 H 36.40625 V -1 l 11.890625,0.796875 V 2.40625 C 42.40625,2.40625 41.5,3.015625 41.5,7.859375 V 44 Z"
               id="path4465" />
          </defs>
          <use
             transform="scale(0.996264)"
             xlink:href="#CMR17-67-9"
             id="use4068"
             x="0"
             y="0"
             width="100%"
             height="100%" />
          <use
             transform="matrix(0.996264,0,0,0.996264,66.509881,0)"
             xlink:href="#CMR17-79-2"
             id="use4070"
             x="0"
             y="0"
             width="100%"
             height="100%" />
          <use
             transform="matrix(0.996264,0,0,0.996264,168.30063,0)"
             xlink:href="#CMR17-102-2"
             id="use4072"
             x="0"
             y="0"
             width="100%"
             height="100%" />
          <use
             transform="matrix(0.996264,0,0,0.996264,195.77415,0)"
             xlink:href="#CMR17-114-9"
             id="use4074"
             x="0"
             y="0"
             width="100%"
             height="100%" />
          <use
             transform="matrix(0.996264,0,0,0.996264,231.05492,0)"
             xlink:href="#CMR17-101-8"
             id="use4076"
             x="0"
             y="0"
             width="100%"
             height="100%" />
          <use
             transform="matrix(0.996264,0,0,0.996264,271.54058,0)"
             xlink:href="#CMR17-113-4"
             id="use4078"
             x="0"
             y="0"
             width="100%"
             height="100%" />
          <use
             transform="matrix(0.996264,0,0,0.996264,319.83349,0)"
             xlink:href="#CMR17-117-7"
             id="use4080"
             x="0"
             y="0"
             width="100%"
             height="100%" />
          <use
             transform="matrix(0.996264,0,0,0.996264,370.72886,0)"
             xlink:href="#CMR17-101-8"
             id="use4082"
             x="0"
             y="0"
             width="100%"
             height="100%" />
          <use
             transform="matrix(0.996264,0,0,0.996264,411.21452,0)"
             xlink:href="#CMR17-110-8"
             id="use4084"
             x="0"
             y="0"
             width="100%"
             height="100%" />
          <use
             transform="matrix(0.996264,0,0,0.996264,462.10989,0)"
             xlink:href="#CMR17-99-3"
             id="use4086"
             x="0"
             y="0"
             width="100%"
             height="100%" />
          <use
             transform="matrix(0.996264,0,0,0.996264,502.59555,0)"
             xlink:href="#CMR17-121-6"
             id="use4088"
             x="0"
             y="0"
             width="100%"
             height="100%" />
          <use
             transform="matrix(0.996264,0,0,0.996264,580.96443,0)"
             xlink:href="#CMR17-91-4"
             id="use4090"
             x="0"
             y="0"
             width="100%"
             height="100%" />
          <use
             transform="matrix(0.996264,0,0,0.996264,605.83549,0)"
             xlink:href="#CMR17-99-3"
             id="use4092"
             x="0"
             y="0"
             width="100%"
             height="100%" />
          <use
             transform="matrix(0.996264,0,0,0.996264,646.32115,0)"
             xlink:href="#CMR17-109-0"
             id="use4094"
             x="0"
             y="0"
             width="100%"
             height="100%" />
          <use
             transform="matrix(0.697382,0,0,0.697382,723.24074,36.153639)"
             xlink:href="#CMSY10-0-6"
             id="use4096"
             x="0"
             y="0"
             width="100%"
             height="100%" />
          <use
             transform="matrix(0.697382,0,0,0.697382,777.48174,36.153639)"
             xlink:href="#CMR17-49-3"
             id="use4098"
             x="0"
             y="0"
             width="100%"
             height="100%" />
          <use
             transform="matrix(0.996264,0,0,0.996264,809.96305,0)"
             xlink:href="#CMR17-93-8"
             id="use4100"
             x="0"
             y="0"
             width="100%"
             height="100%" />
        </g>
      </g>
    </g>
    <g
       id="PathCollection_1-7">
      <path
         clip-path="url(#p4d3af2e7c0)"
         d="m 75.03431,19.644622 c 0.795609,0 1.558739,-0.316099 2.12132,-0.87868 0.562581,-0.56258 0.87868,-1.325711 0.87868,-2.12132 0,-0.795609 -0.316099,-1.55874 -0.87868,-2.12132 -0.562581,-0.562581 -1.325711,-0.87868 -2.12132,-0.87868 -0.79561,0 -1.55874,0.316099 -2.121321,0.87868 -0.56258,0.56258 -0.878679,1.325711 -0.878679,2.12132 0,0.795609 0.316099,1.55874 0.878679,2.12132 0.562581,0.562581 1.325711,0.87868 2.121321,0.87868 z"
         style="fill:#4878d0;stroke:#ffffff;stroke-width:0.48"
         id="path4106" />
      <path
         clip-path="url(#p4d3af2e7c0)"
         d="m 129.70607,34.513929 c 0.79561,0 1.55874,-0.316099 2.12132,-0.87868 0.56259,-0.562581 0.87868,-1.325711 0.87868,-2.12132 0,-0.79561 -0.31609,-1.55874 -0.87868,-2.121321 -0.56258,-0.56258 -1.32571,-0.878679 -2.12132,-0.878679 -0.79561,0 -1.55874,0.316099 -2.12132,0.878679 -0.56258,0.562581 -0.87867,1.325711 -0.87867,2.121321 0,0.795609 0.31609,1.558739 0.87867,2.12132 0.56258,0.562581 1.32571,0.87868 2.12132,0.87868 z"
         style="fill:#4878d0;stroke:#ffffff;stroke-width:0.48"
         id="path4108" />
      <path
         clip-path="url(#p4d3af2e7c0)"
         d="m 231.1148,111.91722 1.5,-1.5 1.5,1.5 1.5,-1.5 -1.5,-1.5 1.5,-1.5 -1.5,-1.5 -1.5,1.5 -1.5,-1.5 -1.5,1.5 1.5,1.5 -1.5,1.5 z"
         style="fill:#4878d0;stroke:#ffffff;stroke-width:0.48"
         id="path4110" />
      <path
         clip-path="url(#p4d3af2e7c0)"
         d="m 161.28023,75.806046 1.5,-1.5 1.5,1.5 1.5,-1.5 -1.5,-1.5 1.5,-1.5 -1.5,-1.5 -1.5,1.5 -1.5,-1.5 -1.5,1.5 1.5,1.5 -1.5,1.5 z"
         style="fill:#4878d0;stroke:#ffffff;stroke-width:0.48"
         id="path4112" />
      <path
         clip-path="url(#p4d3af2e7c0)"
         d="m 64.041973,43.176466 c 0.795609,0 1.558739,-0.316099 2.12132,-0.87868 0.562581,-0.562581 0.87868,-1.325711 0.87868,-2.12132 0,-0.79561 -0.316099,-1.55874 -0.87868,-2.121321 -0.562581,-0.56258 -1.325711,-0.878679 -2.12132,-0.878679 -0.79561,0 -1.55874,0.316099 -2.121321,0.878679 -0.562581,0.562581 -0.878679,1.325711 -0.878679,2.121321 0,0.795609 0.316098,1.558739 0.878679,2.12132 0.562581,0.562581 1.325711,0.87868 2.121321,0.87868 z"
         style="fill:#ee854a;stroke:#ffffff;stroke-width:0.48"
         id="path4114" />
      <path
         clip-path="url(#p4d3af2e7c0)"
         d="m 60.910819,36.524135 c 0.795609,0 1.55874,-0.316099 2.12132,-0.87868 0.562581,-0.562581 0.87868,-1.325711 0.87868,-2.12132 0,-0.79561 -0.316099,-1.55874 -0.87868,-2.121321 -0.56258,-0.56258 -1.325711,-0.878679 -2.12132,-0.878679 -0.795609,0 -1.55874,0.316099 -2.12132,0.878679 -0.562581,0.562581 -0.87868,1.325711 -0.87868,2.121321 0,0.795609 0.316099,1.558739 0.87868,2.12132 0.56258,0.562581 1.325711,0.87868 2.12132,0.87868 z"
         style="fill:#ee854a;stroke:#ffffff;stroke-width:0.48"
         id="path4116" />
      <path
         clip-path="url(#p4d3af2e7c0)"
         d="m 174.60437,136.53706 1.5,-1.5 1.5,1.5 1.5,-1.5 -1.5,-1.5 1.5,-1.5 -1.5,-1.5 -1.5,1.5 -1.5,-1.5 -1.5,1.5 1.5,1.5 -1.5,1.5 z"
         style="fill:#ee854a;stroke:#ffffff;stroke-width:0.48"
         id="path4118" />
      <path
         clip-path="url(#p4d3af2e7c0)"
         d="m 125.40537,125.00428 1.5,-1.5 1.5,1.5 1.5,-1.5 -1.5,-1.5 1.5,-1.5 -1.5,-1.5 -1.5,1.5 -1.5,-1.5 -1.5,1.5 1.5,1.5 -1.5,1.5 z"
         style="fill:#ee854a;stroke:#ffffff;stroke-width:0.48"
         id="path4120" />
    </g>
    <g
       id="PathCollection_2-5" />
    <g
       id="PathCollection_3-4" />
    <g
       id="PathCollection_4-8" />
    <g
       id="PathCollection_5-1" />
    <g
       id="patch_3-2">
      <path
         d="M 52.32562,139.38168 V 10.8"
         style="fill:none;stroke:#262626;stroke-width:0.8;stroke-linecap:square;stroke-linejoin:miter"
         id="path4127" />
    </g>
    <g
       id="patch_4-8">
      <path
         d="M 241.2,139.38168 V 10.8"
         style="fill:none;stroke:#262626;stroke-width:0.8;stroke-linecap:square;stroke-linejoin:miter"
         id="path4130" />
    </g>
    <g
       id="patch_5-9">
      <path
         d="M 52.32562,139.38168 H 241.2"
         style="fill:none;stroke:#262626;stroke-width:0.8;stroke-linecap:square;stroke-linejoin:miter"
         id="path4133" />
    </g>
    <g
       id="patch_6-3">
      <path
         d="M 52.32562,10.8 H 241.2"
         style="fill:none;stroke:#262626;stroke-width:0.8;stroke-linecap:square;stroke-linejoin:miter"
         id="path4136" />
    </g>
    <g
       id="legend_1-6"
       transform="translate(76.41668,-8.3876259)">
      <g
         id="patch_7-8">
        <path
           d="m 171.74767,83.269127 h 61.27724 q 1.85969,0 1.85969,-1.408008 V 20.664687 q 0,-1.408009 -1.85969,-1.408009 h -61.27724 q -1.85969,0 -1.85969,1.408009 v 61.196432 q 0,1.408008 1.85969,1.408008 z"
           style="opacity:0.8;fill:#ffffff;stroke:#cccccc;stroke-width:0.809081;stroke-linejoin:miter"
           id="path4139" />
      </g>
      <g
         id="g4958">
        <g
           id="PathCollection_6"
           transform="translate(0,-9.6364306)">
          <defs
             id="defs4143">
            <path
               d="M 0,3 C 0.795609,3 1.55874,2.683901 2.12132,2.12132 2.683901,1.55874 3,0.795609 3,0 3,-0.795609 2.683901,-1.55874 2.12132,-2.12132 1.55874,-2.683901 0.795609,-3 0,-3 -0.795609,-3 -1.55874,-2.683901 -2.12132,-2.12132 -2.683901,-1.55874 -3,-0.795609 -3,0 -3,0.795609 -2.683901,1.55874 -2.12132,2.12132 -1.55874,2.683901 -0.795609,3 0,3 Z"
               id="path4511"
               style="stroke:#4878d0" />
          </defs>
          <g
             id="g4147">
            <use
               style="fill:#4878d0;stroke:#4878d0"
               x="180.29929"
               xlink:href="#m33058baa43"
               y="39.451561"
               id="use4145"
               width="100%"
               height="100%" />
          </g>
        </g>
        <g
           id="text_13-0"
           transform="translate(0,-9.6364306)">
          <!-- FeMoco -->
          <g
             style="fill:#262626"
             transform="matrix(0.1,0,0,-0.1,198.29928,42.076562)"
             id="g4166">
            <defs
               id="defs4152">
              <path
                 d="M 54.40625,67.796875 H 5.09375 V 65.1875 c 6.90625,0 8,0 8,-4.515625 V 7.03125 c 0,-4.4375 -1.09375,-4.4375 -8,-4.4375 V 0 c 2.90625,0.1875 8.5,0.1875 11.609375,0.1875 4.09375,0 8.890625,0 13,-0.1875 V 2.59375 H 27.5 c -7.59375,0 -7.796875,0.984375 -7.796875,4.53125 v 25.265625 h 9 c 9.296875,0 10.203125,-3.25 10.203125,-11.546875 h 1.796875 V 46.734375 H 38.90625 C 38.90625,38.296875 38,35 28.703125,35 h -9 v 26.28125 c 0,3.40625 0.203125,3.90625 4.203125,3.90625 H 36.796875 C 51.90625,65.1875 53.59375,58.96875 55,45.625 h 1.796875 z"
                 id="path4517" />
              <path
                 d="M 20.90625,66.390625 C 20.296875,67.890625 20.203125,68 18.09375,68 H 5.296875 v -2.609375 c 6.90625,0 8,0 8,-4.484375 V 9.75 c 0,-2.484375 0,-7.15625 -8,-7.15625 V 0 c 2.296875,0.1875 6.5,0.1875 9,0.1875 2.5,0 6.703125,0 9,-0.1875 v 2.59375 c -8,0 -8,4.671875 -8,7.15625 v 55.234375 h 0.109375 l 23.5,-63.390625 C 39.296875,0.59375 39.5,0 40.296875,0 c 0.796875,0 1,0.59375 1.40625,1.59375 L 65.40625,65.484375 H 65.5 V 7.078125 C 65.5,2.59375 64.40625,2.59375 57.5,2.59375 V 0 c 2.703125,0.1875 8.09375,0.1875 11,0.1875 2.90625,0 8.40625,0 11.09375,-0.1875 v 2.59375 c -6.890625,0 -8,0 -8,4.484375 V 60.90625 c 0,4.484375 1.109375,4.484375 8,4.484375 V 68 h -12.6875 c -2.109375,0 -2.203125,-0.109375 -2.8125,-1.609375 L 42.5,8.0625 Z"
                 id="path4519" />
            </defs>
            <use
               transform="scale(0.996264)"
               xlink:href="#CMR17-70-2"
               id="use4154"
               x="0"
               y="0"
               width="100%"
               height="100%" />
            <use
               transform="matrix(0.996264,0,0,0.996264,52.176591,0)"
               xlink:href="#CMR17-101-8"
               id="use4156"
               x="0"
               y="0"
               width="100%"
               height="100%" />
            <use
               transform="matrix(0.996264,0,0,0.996264,92.662252,0)"
               xlink:href="#CMR17-77-1"
               id="use4158"
               x="0"
               y="0"
               width="100%"
               height="100%" />
            <use
               transform="matrix(0.996264,0,0,0.996264,177.34919,0)"
               xlink:href="#CMR17-111-4"
               id="use4160"
               x="0"
               y="0"
               width="100%"
               height="100%" />
            <use
               transform="matrix(0.996264,0,0,0.996264,225.64211,0)"
               xlink:href="#CMR17-99-3"
               id="use4162"
               x="0"
               y="0"
               width="100%"
               height="100%" />
            <use
               transform="matrix(0.996264,0,0,0.996264,266.12777,0)"
               xlink:href="#CMR17-111-4"
               id="use4164"
               x="0"
               y="0"
               width="100%"
               height="100%" />
          </g>
        </g>
      </g>
      <g
         id="g4940"
         transform="translate(0,0.01316071)">
        <g
           id="PathCollection_7"
           transform="translate(0,-9.6364306)">
          <defs
             id="defs4170">
            <path
               d="M 0,3 C 0.795609,3 1.55874,2.683901 2.12132,2.12132 2.683901,1.55874 3,0.795609 3,0 3,-0.795609 2.683901,-1.55874 2.12132,-2.12132 1.55874,-2.683901 0.795609,-3 0,-3 -0.795609,-3 -1.55874,-2.683901 -2.12132,-2.12132 -2.683901,-1.55874 -3,-0.795609 -3,0 -3,0.795609 -2.683901,1.55874 -2.12132,2.12132 -1.55874,2.683901 -0.795609,3 0,3 Z"
               id="path4530"
               style="stroke:#ee854a" />
          </defs>
          <g
             id="g4174">
            <use
               style="fill:#ee854a;stroke:#ee854a"
               x="180.29929"
               xlink:href="#m416abdd783"
               y="54.129688"
               id="use4172"
               width="100%"
               height="100%" />
          </g>
        </g>
        <g
           id="text_14-0"
           transform="translate(0,-9.6364306)">
          <!-- FeVco -->
          <g
             style="fill:#262626"
             transform="matrix(0.1,0,0,-0.1,198.29928,56.754688)"
             id="g4190">
            <defs
               id="defs4178">
              <path
                 d="m 59,58.78125 c 0.90625,2.203125 2.5,6.515625 9.203125,6.609375 V 68 c -2.296875,-0.203125 -4.90625,-0.203125 -7.40625,-0.203125 -2.390625,0 -6.5,0 -8.796875,0.203125 v -2.609375 c 5,-0.296875 5.203125,-3.796875 5.203125,-4.40625 0,-1.09375 -0.296875,-1.796875 -0.609375,-2.59375 L 36.90625,7 16.296875,60.984375 c -0.296875,0.703125 -0.5,1.203125 -0.5,1.703125 0,2.703125 4,2.703125 6.109375,2.703125 V 68 C 18.703125,67.796875 14,67.796875 10.703125,67.796875 8.09375,67.796875 3.40625,67.796875 1,68 v -2.609375 c 5.796875,0 6.90625,-0.390625 8.09375,-3.59375 L 32.90625,-0.40625 C 33.40625,-1.8125 33.5,-2 34.59375,-2 c 1.109375,0 1.203125,0.1875 1.703125,1.59375 z"
                 id="path4536" />
            </defs>
            <use
               transform="scale(0.996264)"
               xlink:href="#CMR17-70-2"
               id="use4180"
               x="0"
               y="0"
               width="100%"
               height="100%" />
            <use
               transform="matrix(0.996264,0,0,0.996264,52.176591,0)"
               xlink:href="#CMR17-101-8"
               id="use4182"
               x="0"
               y="0"
               width="100%"
               height="100%" />
            <use
               transform="matrix(0.996264,0,0,0.996264,92.662252,0)"
               xlink:href="#CMR17-86-5"
               id="use4184"
               x="0"
               y="0"
               width="100%"
               height="100%" />
            <use
               transform="matrix(0.996264,0,0,0.996264,161.73468,0)"
               xlink:href="#CMR17-99-3"
               id="use4186"
               x="0"
               y="0"
               width="100%"
               height="100%" />
            <use
               transform="matrix(0.996264,0,0,0.996264,202.22034,0)"
               xlink:href="#CMR17-111-4"
               id="use4188"
               x="0"
               y="0"
               width="100%"
               height="100%" />
          </g>
        </g>
      </g>
      <g
         id="g4913"
         transform="translate(0,-0.082901)">
        <g
           id="text_15"
           transform="translate(0,-24.594894)">
          <!-- E\sub{0} -->
          <g
             style="fill:#262626"
             transform="matrix(0.1,0,0,-0.1,198.29928,86.110938)"
             id="g4208">
            <defs
               id="defs4202">
              <path
                 d="M 60.703125,25.21875 H 58.90625 c -2.203125,-14.65625 -3.5,-22.625 -21.109375,-22.625 H 23.90625 c -4,0 -4.203125,0.5 -4.203125,3.890625 V 34 H 29.09375 C 38.5,34 39.40625,30.609375 39.40625,22.328125 h 1.796875 V 48.21875 H 39.40625 c 0,-8.25 -0.90625,-11.625 -10.3125,-11.625 H 19.703125 V 61.3125 c 0,3.390625 0.203125,3.875 4.203125,3.875 h 13.6875 c 15.5,0 17.3125,-6.15625 18.703125,-19.359375 h 1.796875 l -2.390625,21.96875 H 5.09375 V 65.1875 c 6.90625,0 8,0 8,-4.46875 V 7.078125 C 13.09375,2.59375 12,2.59375 5.09375,2.59375 V 0 h 52 z"
                 id="path4552" />
            </defs>
            <use
               transform="scale(0.996264)"
               xlink:href="#CMR17-69"
               id="use4204"
               x="0"
               y="0"
               width="100%"
               height="100%" />
            <use
               transform="matrix(0.697382,0,0,0.697382,62.586301,-14.943915)"
               xlink:href="#CMR17-48-8"
               id="use4206"
               x="0"
               y="0"
               width="100%"
               height="100%" />
          </g>
        </g>
      </g>
      <g
         id="g4924">
        <g
           id="text_16"
           transform="translate(0,-24.594894)">
          <!-- E\sub{1} -->
          <g
             style="fill:#262626"
             transform="matrix(0.1,0,0,-0.1,198.29928,100.78906)"
             id="g4223">
            <use
               transform="scale(0.996264)"
               xlink:href="#CMR17-69"
               id="use4219"
               x="0"
               y="0"
               width="100%"
               height="100%" />
            <use
               transform="matrix(0.697382,0,0,0.697382,62.586301,-14.943915)"
               xlink:href="#CMR17-49-3"
               id="use4221"
               x="0"
               y="0"
               width="100%"
               height="100%" />
          </g>
        </g>
      </g>
      <path
         clip-path="url(#p4d3af2e7c0-7)"
         d="m 129.70607,34.513929 c 0.79561,0 1.55874,-0.316099 2.12132,-0.87868 0.56259,-0.562581 0.87868,-1.325711 0.87868,-2.12132 0,-0.79561 -0.31609,-1.55874 -0.87868,-2.121321 -0.56258,-0.56258 -1.32571,-0.878679 -2.12132,-0.878679 -0.79561,0 -1.55874,0.316099 -2.12132,0.878679 -0.56258,0.562581 -0.87867,1.325711 -0.87867,2.121321 0,0.795609 0.31609,1.558739 0.87867,2.12132 0.56258,0.562581 1.32571,0.87868 2.12132,0.87868 z"
         style="fill:#666666;stroke:#ffffff;stroke-width:0.48;stroke-linecap:butt;stroke-linejoin:round"
         id="path4108-3"
         transform="translate(50.593211,27.294215)" />
      <path
         clip-path="url(#p4d3af2e7c0-7)"
         d="m 161.28023,75.806046 1.5,-1.5 1.5,1.5 1.5,-1.5 -1.5,-1.5 1.5,-1.5 -1.5,-1.5 -1.5,1.5 -1.5,-1.5 -1.5,1.5 1.5,1.5 -1.5,1.5 z"
         style="fill:#666666;stroke:#ffffff;stroke-width:0.48;stroke-linecap:butt;stroke-linejoin:round"
         id="path4112-1"
         transform="translate(17.519056,0.7631225)" />
    </g>
  </g>
</svg>
