<?xml version="1.0" encoding="utf-8" standalone="no"?>
<!DOCTYPE svg PUBLIC "-//W3C//DTD SVG 1.1//EN"
  "http://www.w3.org/Graphics/SVG/1.1/DTD/svg11.dtd">
<!-- Created with matplotlib (https://matplotlib.org/) -->
<svg height="252pt" version="1.1" viewBox="0 0 720 252" width="720pt" xmlns="http://www.w3.org/2000/svg" xmlns:xlink="http://www.w3.org/1999/xlink">
 <metadata>
  <rdf:RDF xmlns:cc="http://creativecommons.org/ns#" xmlns:dc="http://purl.org/dc/elements/1.1/" xmlns:rdf="http://www.w3.org/1999/02/22-rdf-syntax-ns#">
   <cc:Work>
    <dc:type rdf:resource="http://purl.org/dc/dcmitype/StillImage"/>
    <dc:date>2022-04-13T18:36:27.590273</dc:date>
    <dc:format>image/svg+xml</dc:format>
    <dc:creator>
     <cc:Agent>
      <dc:title>Matplotlib v3.3.4, https://matplotlib.org/</dc:title>
     </cc:Agent>
    </dc:creator>
   </cc:Work>
  </rdf:RDF>
 </metadata>
 <defs>
  <style type="text/css">*{stroke-linecap:butt;stroke-linejoin:round;}</style>
 </defs>
 <g id="figure_1">
  <g id="patch_1">
   <path d="M 0 252 
L 720 252 
L 720 0 
L 0 0 
z
" style="fill:#ffffff;"/>
  </g>
  <g id="axes_1">
   <g id="line2d_1">
    <path clip-path="url(#p77609ef35b)" d="M 94.05 41.371901 
L 51.73595 83.68595 
" style="fill:none;stroke:#333333;stroke-linecap:round;stroke-width:2;"/>
   </g>
   <g id="line2d_2">
    <path clip-path="url(#p77609ef35b)" d="M 94.05 41.371901 
L 94.05 100.61157 
" style="fill:none;stroke:#333333;stroke-linecap:round;stroke-width:2;"/>
   </g>
   <g id="line2d_3">
    <path clip-path="url(#p77609ef35b)" d="M 94.05 41.371901 
L 136.36405 83.68595 
" style="fill:none;stroke:#333333;stroke-linecap:round;stroke-width:2;"/>
   </g>
   <g id="line2d_4">
    <path clip-path="url(#p77609ef35b)" d="M 94.05 210.628099 
L 51.73595 168.31405 
" style="fill:none;stroke:#333333;stroke-linecap:round;stroke-width:2;"/>
   </g>
   <g id="line2d_5">
    <path clip-path="url(#p77609ef35b)" d="M 94.05 210.628099 
L 94.05 151.38843 
" style="fill:none;stroke:#333333;stroke-linecap:round;stroke-width:2;"/>
   </g>
   <g id="line2d_6">
    <path clip-path="url(#p77609ef35b)" d="M 94.05 210.628099 
L 136.36405 168.31405 
" style="fill:none;stroke:#333333;stroke-linecap:round;stroke-width:2;"/>
   </g>
   <g id="line2d_7">
    <path clip-path="url(#p77609ef35b)" d="M 51.73595 83.68595 
L 136.36405 83.68595 
" style="fill:none;stroke:#333333;stroke-linecap:round;stroke-width:2;"/>
   </g>
   <g id="line2d_8">
    <path clip-path="url(#p77609ef35b)" d="M 51.73595 83.68595 
L 51.73595 168.31405 
" style="fill:none;stroke:#333333;stroke-linecap:round;stroke-width:2;"/>
   </g>
   <g id="line2d_9">
    <path clip-path="url(#p77609ef35b)" d="M 136.36405 168.31405 
L 136.36405 83.68595 
" style="fill:none;stroke:#333333;stroke-linecap:round;stroke-width:2;"/>
   </g>
   <g id="line2d_10">
    <path clip-path="url(#p77609ef35b)" d="M 136.36405 168.31405 
L 51.73595 168.31405 
" style="fill:none;stroke:#333333;stroke-linecap:round;stroke-width:2;"/>
   </g>
   <g id="line2d_11">
    <path clip-path="url(#p77609ef35b)" d="M 94.05 100.61157 
L 51.73595 83.68595 
" style="fill:none;stroke:#333333;stroke-linecap:round;stroke-width:2;"/>
   </g>
   <g id="line2d_12">
    <path clip-path="url(#p77609ef35b)" d="M 94.05 100.61157 
L 136.36405 83.68595 
" style="fill:none;stroke:#333333;stroke-linecap:round;stroke-width:2;"/>
   </g>
   <g id="line2d_13">
    <path clip-path="url(#p77609ef35b)" d="M 94.05 100.61157 
L 94.05 151.38843 
" style="fill:none;stroke:#333333;stroke-linecap:round;stroke-width:2;"/>
   </g>
   <g id="line2d_14">
    <path clip-path="url(#p77609ef35b)" d="M 94.05 151.38843 
L 51.73595 168.31405 
" style="fill:none;stroke:#333333;stroke-linecap:round;stroke-width:2;"/>
   </g>
   <g id="line2d_15">
    <path clip-path="url(#p77609ef35b)" d="M 94.05 151.38843 
L 136.36405 168.31405 
" style="fill:none;stroke:#333333;stroke-linecap:round;stroke-width:2;"/>
   </g>
   <g id="patch_2">
    <path clip-path="url(#p77609ef35b)" d="M 136.36405 193.702479 
C 143.09714 193.702479 149.555367 191.027394 154.31638 186.26638 
C 159.077394 181.505367 161.752479 175.04714 161.752479 168.31405 
C 161.752479 161.580959 159.077394 155.122733 154.31638 150.361719 
C 149.555367 145.600705 143.09714 142.92562 136.36405 142.92562 
C 129.630959 142.92562 123.172733 145.600705 118.411719 150.361719 
C 113.650705 155.122733 110.97562 161.580959 110.97562 168.31405 
C 110.97562 175.04714 113.650705 181.505367 118.411719 186.26638 
C 123.172733 191.027394 129.630959 193.702479 136.36405 193.702479 
z
" style="fill:#333333;stroke:#333333;stroke-linejoin:miter;"/>
   </g>
   <g id="patch_3">
    <path clip-path="url(#p77609ef35b)" d="M 136.36405 191.586777 
C 142.536049 191.586777 148.45609 189.134616 152.820353 184.770353 
C 157.184616 180.40609 159.636777 174.486049 159.636777 168.31405 
C 159.636777 162.14205 157.184616 156.222009 152.820353 151.857746 
C 148.45609 147.493484 142.536049 145.041322 136.36405 145.041322 
C 130.19205 145.041322 124.272009 147.493484 119.907746 151.857746 
C 115.543484 156.222009 113.091322 162.14205 113.091322 168.31405 
C 113.091322 174.486049 115.543484 180.40609 119.907746 184.770353 
C 124.272009 189.134616 130.19205 191.586777 136.36405 191.586777 
z
" style="fill:#c12b30;stroke:#c12b30;stroke-linejoin:miter;"/>
   </g>
   <g id="patch_4">
    <path clip-path="url(#p77609ef35b)" d="M 136.36405 109.07438 
C 143.09714 109.07438 149.555367 106.399295 154.31638 101.638281 
C 159.077394 96.877267 161.752479 90.419041 161.752479 83.68595 
C 161.752479 76.95286 159.077394 70.494633 154.31638 65.73362 
C 149.555367 60.972606 143.09714 58.297521 136.36405 58.297521 
C 129.630959 58.297521 123.172733 60.972606 118.411719 65.73362 
C 113.650705 70.494633 110.97562 76.95286 110.97562 83.68595 
C 110.97562 90.419041 113.650705 96.877267 118.411719 101.638281 
C 123.172733 106.399295 129.630959 109.07438 136.36405 109.07438 
z
" style="fill:#333333;stroke:#333333;stroke-linejoin:miter;"/>
   </g>
   <g id="patch_5">
    <path clip-path="url(#p77609ef35b)" d="M 136.36405 106.958678 
C 142.536049 106.958678 148.45609 104.506516 152.820353 100.142254 
C 157.184616 95.777991 159.636777 89.85795 159.636777 83.68595 
C 159.636777 77.513951 157.184616 71.59391 152.820353 67.229647 
C 148.45609 62.865384 142.536049 60.413223 136.36405 60.413223 
C 130.19205 60.413223 124.272009 62.865384 119.907746 67.229647 
C 115.543484 71.59391 113.091322 77.513951 113.091322 83.68595 
C 113.091322 89.85795 115.543484 95.777991 119.907746 100.142254 
C 124.272009 104.506516 130.19205 106.958678 136.36405 106.958678 
z
" style="fill:#3d50c3;stroke:#3d50c3;stroke-linejoin:miter;"/>
   </g>
   <g id="patch_6">
    <path clip-path="url(#p77609ef35b)" d="M 51.73595 193.702479 
C 58.469041 193.702479 64.927267 191.027394 69.688281 186.26638 
C 74.449295 181.505367 77.12438 175.04714 77.12438 168.31405 
C 77.12438 161.580959 74.449295 155.122733 69.688281 150.361719 
C 64.927267 145.600705 58.469041 142.92562 51.73595 142.92562 
C 45.00286 142.92562 38.544633 145.600705 33.78362 150.361719 
C 29.022606 155.122733 26.347521 161.580959 26.347521 168.31405 
C 26.347521 175.04714 29.022606 181.505367 33.78362 186.26638 
C 38.544633 191.027394 45.00286 193.702479 51.73595 193.702479 
z
" style="fill:#333333;stroke:#333333;stroke-linejoin:miter;"/>
   </g>
   <g id="patch_7">
    <path clip-path="url(#p77609ef35b)" d="M 51.73595 191.586777 
C 57.90795 191.586777 63.827991 189.134616 68.192254 184.770353 
C 72.556516 180.40609 75.008678 174.486049 75.008678 168.31405 
C 75.008678 162.14205 72.556516 156.222009 68.192254 151.857746 
C 63.827991 147.493484 57.90795 145.041322 51.73595 145.041322 
C 45.563951 145.041322 39.64391 147.493484 35.279647 151.857746 
C 30.915384 156.222009 28.463223 162.14205 28.463223 168.31405 
C 28.463223 174.486049 30.915384 180.40609 35.279647 184.770353 
C 39.64391 189.134616 45.563951 191.586777 51.73595 191.586777 
z
" style="fill:#f49a7b;stroke:#f49a7b;stroke-linejoin:miter;"/>
   </g>
   <g id="patch_8">
    <path clip-path="url(#p77609ef35b)" d="M 51.73595 109.07438 
C 58.469041 109.07438 64.927267 106.399295 69.688281 101.638281 
C 74.449295 96.877267 77.12438 90.419041 77.12438 83.68595 
C 77.12438 76.95286 74.449295 70.494633 69.688281 65.73362 
C 64.927267 60.972606 58.469041 58.297521 51.73595 58.297521 
C 45.00286 58.297521 38.544633 60.972606 33.78362 65.73362 
C 29.022606 70.494633 26.347521 76.95286 26.347521 83.68595 
C 26.347521 90.419041 29.022606 96.877267 33.78362 101.638281 
C 38.544633 106.399295 45.00286 109.07438 51.73595 109.07438 
z
" style="fill:#333333;stroke:#333333;stroke-linejoin:miter;"/>
   </g>
   <g id="patch_9">
    <path clip-path="url(#p77609ef35b)" d="M 51.73595 106.958678 
C 57.90795 106.958678 63.827991 104.506516 68.192254 100.142254 
C 72.556516 95.777991 75.008678 89.85795 75.008678 83.68595 
C 75.008678 77.513951 72.556516 71.59391 68.192254 67.229647 
C 63.827991 62.865384 57.90795 60.413223 51.73595 60.413223 
C 45.563951 60.413223 39.64391 62.865384 35.279647 67.229647 
C 30.915384 71.59391 28.463223 77.513951 28.463223 83.68595 
C 28.463223 89.85795 30.915384 95.777991 35.279647 100.142254 
C 39.64391 104.506516 45.563951 106.958678 51.73595 106.958678 
z
" style="fill:#b40426;stroke:#b40426;stroke-linejoin:miter;"/>
   </g>
   <g id="patch_10">
    <path clip-path="url(#p77609ef35b)" d="M 94.05 230.727273 
C 99.380363 230.727273 104.493126 228.609497 108.262262 224.840361 
C 112.031398 221.071225 114.149174 215.958462 114.149174 210.628099 
C 114.149174 205.297736 112.031398 200.184973 108.262262 196.415837 
C 104.493126 192.646701 99.380363 190.528926 94.05 190.528926 
C 88.719637 190.528926 83.606874 192.646701 79.837738 196.415837 
C 76.068602 200.184973 73.950826 205.297736 73.950826 210.628099 
C 73.950826 215.958462 76.068602 221.071225 79.837738 224.840361 
C 83.606874 228.609497 88.719637 230.727273 94.05 230.727273 
z
" style="fill:#333333;stroke:#333333;stroke-linejoin:miter;"/>
   </g>
   <g id="patch_11">
    <path clip-path="url(#p77609ef35b)" d="M 94.05 228.61157 
C 98.819272 228.61157 103.39385 226.716718 106.766234 223.344334 
C 110.138619 219.971949 112.033471 215.397371 112.033471 210.628099 
C 112.033471 205.858827 110.138619 201.28425 106.766234 197.911865 
C 103.39385 194.53948 98.819272 192.644628 94.05 192.644628 
C 89.280728 192.644628 84.70615 194.53948 81.333766 197.911865 
C 77.961381 201.28425 76.066529 205.858827 76.066529 210.628099 
C 76.066529 215.397371 77.961381 219.971949 81.333766 223.344334 
C 84.70615 226.716718 89.280728 228.61157 94.05 228.61157 
z
" style="fill:#cdd9ec;stroke:#cdd9ec;stroke-linejoin:miter;"/>
   </g>
   <g id="patch_12">
    <path clip-path="url(#p77609ef35b)" d="M 94.05 61.471074 
C 99.380363 61.471074 104.493126 59.353299 108.262262 55.584163 
C 112.031398 51.815027 114.149174 46.702264 114.149174 41.371901 
C 114.149174 36.041538 112.031398 30.928775 108.262262 27.159639 
C 104.493126 23.390503 99.380363 21.272727 94.05 21.272727 
C 88.719637 21.272727 83.606874 23.390503 79.837738 27.159639 
C 76.068602 30.928775 73.950826 36.041538 73.950826 41.371901 
C 73.950826 46.702264 76.068602 51.815027 79.837738 55.584163 
C 83.606874 59.353299 88.719637 61.471074 94.05 61.471074 
z
" style="fill:#333333;stroke:#333333;stroke-linejoin:miter;"/>
   </g>
   <g id="patch_13">
    <path clip-path="url(#p77609ef35b)" d="M 94.05 59.355372 
C 98.819272 59.355372 103.39385 57.46052 106.766234 54.088135 
C 110.138619 50.71575 112.033471 46.141173 112.033471 41.371901 
C 112.033471 36.602629 110.138619 32.028051 106.766234 28.655666 
C 103.39385 25.283282 98.819272 23.38843 94.05 23.38843 
C 89.280728 23.38843 84.70615 25.283282 81.333766 28.655666 
C 77.961381 32.028051 76.066529 36.602629 76.066529 41.371901 
C 76.066529 46.141173 77.961381 50.71575 81.333766 54.088135 
C 84.70615 57.46052 89.280728 59.355372 94.05 59.355372 
z
" style="fill:#3b4cc0;stroke:#3b4cc0;stroke-linejoin:miter;"/>
   </g>
   <g id="patch_14">
    <path clip-path="url(#p77609ef35b)" d="M 94.05 167.256198 
C 98.258181 167.256198 102.294573 165.58427 105.270207 162.608637 
C 108.24584 159.633003 109.917769 155.596611 109.917769 151.38843 
C 109.917769 147.180248 108.24584 143.143857 105.270207 140.168223 
C 102.294573 137.192589 98.258181 135.520661 94.05 135.520661 
C 89.841819 135.520661 85.805427 137.192589 82.829793 140.168223 
C 79.85416 143.143857 78.182231 147.180248 78.182231 151.38843 
C 78.182231 155.596611 79.85416 159.633003 82.829793 162.608637 
C 85.805427 165.58427 89.841819 167.256198 94.05 167.256198 
z
" style="fill:#333333;stroke:#333333;stroke-linejoin:miter;"/>
   </g>
   <g id="patch_15">
    <path clip-path="url(#p77609ef35b)" d="M 94.05 165.140496 
C 97.697091 165.140496 101.195297 163.691491 103.774179 161.112609 
C 106.353062 158.533726 107.802066 155.03552 107.802066 151.38843 
C 107.802066 147.741339 106.353062 144.243133 103.774179 141.664251 
C 101.195297 139.085368 97.697091 137.636364 94.05 137.636364 
C 90.402909 137.636364 86.904703 139.085368 84.325821 141.664251 
C 81.746938 144.243133 80.297934 147.741339 80.297934 151.38843 
C 80.297934 155.03552 81.746938 158.533726 84.325821 161.112609 
C 86.904703 163.691491 90.402909 165.140496 94.05 165.140496 
z
" style="fill:#506bda;stroke:#506bda;stroke-linejoin:miter;"/>
   </g>
   <g id="patch_16">
    <path clip-path="url(#p77609ef35b)" d="M 94.05 116.479339 
C 98.258181 116.479339 102.294573 114.807411 105.270207 111.831777 
C 108.24584 108.856143 109.917769 104.819752 109.917769 100.61157 
C 109.917769 96.403389 108.24584 92.366997 105.270207 89.391363 
C 102.294573 86.41573 98.258181 84.743802 94.05 84.743802 
C 89.841819 84.743802 85.805427 86.41573 82.829793 89.391363 
C 79.85416 92.366997 78.182231 96.403389 78.182231 100.61157 
C 78.182231 104.819752 79.85416 108.856143 82.829793 111.831777 
C 85.805427 114.807411 89.841819 116.479339 94.05 116.479339 
z
" style="fill:#333333;stroke:#333333;stroke-linejoin:miter;"/>
   </g>
   <g id="patch_17">
    <path clip-path="url(#p77609ef35b)" d="M 94.05 114.363636 
C 97.697091 114.363636 101.195297 112.914632 103.774179 110.335749 
C 106.353062 107.756867 107.802066 104.258661 107.802066 100.61157 
C 107.802066 96.96448 106.353062 93.466274 103.774179 90.887391 
C 101.195297 88.308509 97.697091 86.859504 94.05 86.859504 
C 90.402909 86.859504 86.904703 88.308509 84.325821 90.887391 
C 81.746938 93.466274 80.297934 96.96448 80.297934 100.61157 
C 80.297934 104.258661 81.746938 107.756867 84.325821 110.335749 
C 86.904703 112.914632 90.402909 114.363636 94.05 114.363636 
z
" style="fill:#b8122a;stroke:#b8122a;stroke-linejoin:miter;"/>
   </g>
   <g id="text_1">
    <!-- +2.96 -->
    <g style="fill:#ffffff;" transform="translate(116.176083 172.617363)scale(0.1728 -0.1728)">
     <defs>
      <path d="M 37.703125 23 
L 64.203125 23 
C 65.59375 23 67.296875 23 67.296875 24.6875 
C 67.296875 26.5 65.703125 26.5 64.203125 26.5 
L 37.703125 26.5 
L 37.703125 52.890625 
C 37.703125 54.296875 37.703125 56 36 56 
C 34.203125 56 34.203125 54.390625 34.203125 52.890625 
L 34.203125 26.5 
L 7.703125 26.5 
C 6.296875 26.5 4.59375 26.5 4.59375 24.796875 
C 4.59375 23 6.203125 23 7.703125 23 
L 34.203125 23 
L 34.203125 -3.03125 
C 34.203125 -4.40625 34.203125 -6.109375 35.90625 -6.109375 
C 37.703125 -6.109375 37.703125 -4.515625 37.703125 -3.03125 
z
" id="CMR17-43"/>
      <path d="M 41.703125 15.46875 
L 39.90625 15.46875 
C 38.90625 8.390625 38.09375 7.1875 37.703125 6.59375 
C 37.203125 5.796875 30 5.796875 28.59375 5.796875 
L 9.40625 5.796875 
C 13 9.6875 20 16.765625 28.5 24.9375 
C 34.59375 30.71875 41.703125 37.5 41.703125 47.390625 
C 41.703125 59.1875 32.296875 66 21.796875 66 
C 10.796875 66 4.09375 56.296875 4.09375 47.296875 
C 4.09375 43.390625 7 42.890625 8.203125 42.890625 
C 9.203125 42.890625 12.203125 43.484375 12.203125 46.984375 
C 12.203125 50.09375 9.59375 51 8.203125 51 
C 7.59375 51 7 50.890625 6.59375 50.6875 
C 8.5 59.1875 14.296875 63.390625 20.40625 63.390625 
C 29.09375 63.390625 34.796875 56.5 34.796875 47.390625 
C 34.796875 38.703125 29.703125 31.21875 24 24.734375 
L 4.09375 2.296875 
L 4.09375 0 
L 39.296875 0 
z
" id="CMR17-50"/>
      <path d="M 16.59375 4.09375 
C 16.59375 6.59375 14.59375 8.1875 12.5 8.1875 
C 10.5 8.1875 8.40625 6.59375 8.40625 4.09375 
C 8.40625 1.59375 10.40625 0 12.5 0 
C 14.5 0 16.59375 1.59375 16.59375 4.09375 
z
" id="CMR17-46"/>
      <path d="M 35.203125 29.234375 
C 35.203125 7 26.09375 0.390625 18.59375 0.390625 
C 16.296875 0.390625 10.703125 0.671875 8.40625 4.390625 
C 11 4 12.90625 5.390625 12.90625 7.890625 
C 12.90625 10.59375 10.703125 11.5 9.296875 11.5 
C 8.40625 11.5 5.703125 11.09375 5.703125 7.6875 
C 5.703125 1.0625 11.59375 -2 18.796875 -2 
C 30.296875 -2 42 10.390625 42 32.65625 
C 42 60.265625 30.796875 66 23.203125 66 
C 13.296875 66 3.796875 57.25 3.796875 43.75 
C 3.796875 31.25 11.90625 22 22.09375 22 
C 30.5 22 34.203125 29.84375 35.203125 33.15625 
z
M 22.296875 23.59375 
C 19.59375 23.59375 15.796875 24.09375 12.703125 30.140625 
C 10.59375 34.078125 10.59375 38.703125 10.59375 43.640625 
C 10.59375 49.59375 10.59375 53.71875 13.40625 58.15625 
C 14.796875 60.265625 17.40625 63.6875 23.203125 63.6875 
C 35 63.6875 35 45.453125 35 41.421875 
C 35 34.265625 31.796875 23.59375 22.296875 23.59375 
z
" id="CMR17-57"/>
      <path d="M 10.59375 34.34375 
C 10.59375 58 21.796875 63.6875 28.296875 63.6875 
C 30.40625 63.6875 35.5 63.265625 37.5 59.09375 
C 35.90625 59.09375 32.90625 59.09375 32.90625 55.59375 
C 32.90625 52.890625 35.09375 52 36.5 52 
C 37.40625 52 40.09375 52.390625 40.09375 55.796875 
C 40.09375 62.296875 35.09375 66 28.203125 66 
C 16.296875 66 3.796875 53.296875 3.796875 31.421875 
C 3.796875 4.015625 15.09375 -2 23.09375 -2 
C 32.796875 -2 42 6.734375 42 20.234375 
C 42 32.828125 33.90625 42 23.703125 42 
C 17.59375 42 13.09375 37.96875 10.59375 30.921875 
z
M 23.09375 0.390625 
C 10.796875 0.390625 10.796875 18.9375 10.796875 22.65625 
C 10.796875 29.90625 14.203125 40.390625 23.5 40.390625 
C 25.203125 40.390625 30.09375 40.390625 33.40625 33.4375 
C 35.203125 29.515625 35.203125 25.375 35.203125 20.34375 
C 35.203125 14.90625 35.203125 10.875 33.09375 6.84375 
C 30.90625 2.703125 27.703125 0.390625 23.09375 0.390625 
z
" id="CMR17-54"/>
     </defs>
     <use transform="scale(0.996264)" xlink:href="#CMR17-43"/>
     <use transform="translate(71.714788 0)scale(0.996264)" xlink:href="#CMR17-50"/>
     <use transform="translate(117.405266 0)scale(0.996264)" xlink:href="#CMR17-46"/>
     <use transform="translate(142.276324 0)scale(0.996264)" xlink:href="#CMR17-57"/>
     <use transform="translate(187.966801 0)scale(0.996264)" xlink:href="#CMR17-54"/>
    </g>
   </g>
   <g id="text_2">
    <!-- -3.22 -->
    <g style="fill:#ffffff;" transform="translate(119.773676 87.989263)scale(0.1728 -0.1728)">
     <defs>
      <path d="M 25.5 19.59375 
L 25.5 24 
L 0.40625 24 
L 0.40625 19.59375 
z
" id="CMR17-45"/>
      <path d="M 22.09375 34 
C 31 34 34.90625 26.140625 34.90625 17.09375 
C 34.90625 5.03125 28.5 0.390625 22.703125 0.390625 
C 17.40625 0.390625 8.796875 3.015625 6.09375 10.796875 
C 6.59375 10.59375 7.09375 10.59375 7.59375 10.59375 
C 10 10.59375 11.796875 12.1875 11.796875 14.796875 
C 11.796875 17.6875 9.59375 19 7.59375 19 
C 5.90625 19 3.296875 18.1875 3.296875 14.484375 
C 3.296875 5.234375 12.296875 -2 22.90625 -2 
C 34 -2 42.5 6.75 42.5 16.984375 
C 42.5 26.84375 34.5 34 25 35.09375 
C 32.59375 36.671875 39.90625 43.375 39.90625 52.390625 
C 39.90625 60.25 32 66 23 66 
C 13.90625 66 5.90625 60.34375 5.90625 52.296875 
C 5.90625 48.796875 8.5 48.1875 9.796875 48.1875 
C 11.90625 48.1875 13.703125 49.484375 13.703125 52.09375 
C 13.703125 54.6875 11.90625 56 9.796875 56 
C 9.40625 56 8.90625 56 8.5 55.796875 
C 11.40625 62.484375 19.296875 63.6875 22.796875 63.6875 
C 26.296875 63.6875 32.90625 61.96875 32.90625 52.296875 
C 32.90625 49.484375 32.5 44.546875 29.09375 40.21875 
C 26.09375 36.390625 22.703125 36.1875 19.40625 35.890625 
C 18.90625 35.890625 16.59375 35.6875 16.203125 35.6875 
C 15.5 35.59375 15.09375 35.5 15.09375 34.796875 
C 15.09375 34.09375 15.203125 34 17.203125 34 
z
" id="CMR17-51"/>
     </defs>
     <use transform="scale(0.996264)" xlink:href="#CMR17-45"/>
     <use transform="translate(30.075966 0)scale(0.996264)" xlink:href="#CMR17-51"/>
     <use transform="translate(75.766443 0)scale(0.996264)" xlink:href="#CMR17-46"/>
     <use transform="translate(100.637502 0)scale(0.996264)" xlink:href="#CMR17-50"/>
     <use transform="translate(146.327979 0)scale(0.996264)" xlink:href="#CMR17-50"/>
    </g>
   </g>
   <g id="text_3">
    <!-- +1.56 -->
    <g style="fill:#262626;" transform="translate(31.547983 172.617363)scale(0.1728 -0.1728)">
     <defs>
      <path d="M 26.59375 63.796875 
C 26.59375 65.890625 26.5 66 25.09375 66 
C 21.203125 61.359375 15.296875 59.890625 9.703125 59.6875 
C 9.40625 59.6875 8.90625 59.6875 8.796875 59.5 
C 8.703125 59.296875 8.703125 59.09375 8.703125 57 
C 11.796875 57 17 57.59375 21 59.984375 
L 21 7.296875 
C 21 3.796875 20.796875 2.59375 12.203125 2.59375 
L 9.203125 2.59375 
L 9.203125 0 
C 14 0.09375 19 0.1875 23.796875 0.1875 
C 28.59375 0.1875 33.59375 0.09375 38.40625 0 
L 38.40625 2.59375 
L 35.40625 2.59375 
C 26.796875 2.59375 26.59375 3.6875 26.59375 7.296875 
z
" id="CMR17-49"/>
      <path d="M 11.40625 58.59375 
C 12.40625 58.1875 16.5 56.890625 20.703125 56.890625 
C 30 56.890625 35.09375 61.890625 38 64.6875 
C 38 65.484375 38 66 37.40625 66 
C 37.296875 66 37.09375 66 36.296875 65.59375 
C 32.796875 64.09375 28.703125 63 23.703125 63 
C 20.703125 63 16.203125 63.359375 11.296875 65.484375 
C 10.203125 66 10 66 9.90625 66 
C 9.40625 66 9.296875 65.890625 9.296875 63.90625 
L 9.296875 34.859375 
C 9.296875 33.015625 9.296875 32.5 10.296875 32.5 
C 10.796875 32.5 11 32.703125 11.5 33.421875 
C 14.703125 38.046875 19.09375 40 24.09375 40 
C 27.59375 40 35.09375 37.734375 35.09375 20.203125 
C 35.09375 16.984375 35.09375 11.1875 32.09375 6.59375 
C 29.59375 2.484375 25.703125 0.390625 21.40625 0.390625 
C 14.796875 0.390625 8.09375 4.984375 6.296875 12.6875 
C 6.703125 12.59375 7.5 12.390625 7.90625 12.390625 
C 9.203125 12.390625 11.703125 13.09375 11.703125 16.1875 
C 11.703125 18.890625 9.796875 20 7.90625 20 
C 5.59375 20 4.09375 18.59375 4.09375 15.796875 
C 4.09375 7.09375 11 -2 21.59375 -2 
C 31.90625 -2 41.703125 6.890625 41.703125 19.796875 
C 41.703125 32.09375 33.90625 41.59375 24.203125 41.59375 
C 19.09375 41.59375 14.796875 39.6875 11.40625 36 
z
" id="CMR17-53"/>
     </defs>
     <use transform="scale(0.996264)" xlink:href="#CMR17-43"/>
     <use transform="translate(71.714788 0)scale(0.996264)" xlink:href="#CMR17-49"/>
     <use transform="translate(117.405266 0)scale(0.996264)" xlink:href="#CMR17-46"/>
     <use transform="translate(142.276324 0)scale(0.996264)" xlink:href="#CMR17-53"/>
     <use transform="translate(187.966801 0)scale(0.996264)" xlink:href="#CMR17-54"/>
    </g>
   </g>
   <g id="text_4">
    <!-- +3.19 -->
    <g style="fill:#ffffff;" transform="translate(31.547983 87.989263)scale(0.1728 -0.1728)">
     <use transform="scale(0.996264)" xlink:href="#CMR17-43"/>
     <use transform="translate(71.714788 0)scale(0.996264)" xlink:href="#CMR17-51"/>
     <use transform="translate(117.405266 0)scale(0.996264)" xlink:href="#CMR17-46"/>
     <use transform="translate(142.276324 0)scale(0.996264)" xlink:href="#CMR17-49"/>
     <use transform="translate(187.966801 0)scale(0.996264)" xlink:href="#CMR17-57"/>
    </g>
   </g>
   <g id="text_5">
    <!-- -0.43 -->
    <g style="fill:#262626;" transform="translate(79.222463 214.214648)scale(0.144 -0.144)">
     <defs>
      <path d="M 42 31.84375 
C 42 37.96875 41.90625 48.421875 37.703125 56.453125 
C 34 63.484375 28.09375 66 22.90625 66 
C 18.09375 66 12 63.78125 8.203125 56.5625 
C 4.203125 49.015625 3.796875 39.671875 3.796875 31.84375 
C 3.796875 26.109375 3.90625 17.375 7 9.734375 
C 11.296875 -0.609375 19 -2 22.90625 -2 
C 27.5 -2 34.5 -0.109375 38.59375 9.4375 
C 41.59375 16.375 42 24.5 42 31.84375 
z
M 22.90625 -0.40625 
C 16.5 -0.40625 12.703125 5.125 11.296875 12.75 
C 10.203125 18.6875 10.203125 27.328125 10.203125 32.953125 
C 10.203125 40.6875 10.203125 47.109375 11.5 53.234375 
C 13.40625 61.78125 19 64.390625 22.90625 64.390625 
C 27 64.390625 32.296875 61.671875 34.203125 53.4375 
C 35.5 47.71875 35.59375 40.984375 35.59375 32.953125 
C 35.59375 26.421875 35.59375 18.375 34.40625 12.453125 
C 32.296875 1.5 26.40625 -0.40625 22.90625 -0.40625 
z
" id="CMR17-48"/>
      <path d="M 33.59375 64.796875 
C 33.59375 66.890625 33.5 67 31.703125 67 
L 2 19.59375 
L 2 17 
L 27.796875 17 
L 27.796875 7.1875 
C 27.796875 3.59375 27.59375 2.59375 20.59375 2.59375 
L 18.703125 2.59375 
L 18.703125 0 
C 21.90625 0.1875 27.296875 0.1875 30.703125 0.1875 
C 34.09375 0.1875 39.5 0.1875 42.703125 0 
L 42.703125 2.59375 
L 40.796875 2.59375 
C 33.796875 2.59375 33.59375 3.59375 33.59375 7.1875 
L 33.59375 17 
L 43.796875 17 
L 43.796875 19.59375 
L 33.59375 19.59375 
z
M 28.09375 58.171875 
L 28.09375 19.59375 
L 4 19.59375 
z
" id="CMR17-52"/>
     </defs>
     <use transform="scale(0.996264)" xlink:href="#CMR17-45"/>
     <use transform="translate(30.075966 0)scale(0.996264)" xlink:href="#CMR17-48"/>
     <use transform="translate(75.766443 0)scale(0.996264)" xlink:href="#CMR17-46"/>
     <use transform="translate(100.637502 0)scale(0.996264)" xlink:href="#CMR17-52"/>
     <use transform="translate(146.327979 0)scale(0.996264)" xlink:href="#CMR17-51"/>
    </g>
   </g>
   <g id="text_6">
    <!-- -3.29 -->
    <g style="fill:#ffffff;" transform="translate(79.222463 44.95845)scale(0.144 -0.144)">
     <use transform="scale(0.996264)" xlink:href="#CMR17-45"/>
     <use transform="translate(30.075966 0)scale(0.996264)" xlink:href="#CMR17-51"/>
     <use transform="translate(75.766443 0)scale(0.996264)" xlink:href="#CMR17-46"/>
     <use transform="translate(100.637502 0)scale(0.996264)" xlink:href="#CMR17-50"/>
     <use transform="translate(146.327979 0)scale(0.996264)" xlink:href="#CMR17-57"/>
    </g>
   </g>
   <g id="text_7">
    <!-- -2.83 -->
    <g style="fill:#ffffff;" transform="translate(81.693687 154.377222)scale(0.12 -0.12)">
     <defs>
      <path d="M 27.203125 35.765625 
C 33.5 38.96875 39.90625 43.796875 39.90625 51.53125 
C 39.90625 60.6875 31.09375 66 23 66 
C 13.90625 66 5.90625 59.375 5.90625 50.234375 
C 5.90625 47.71875 6.5 43.390625 10.40625 39.578125 
C 11.40625 38.578125 15.59375 35.5625 18.296875 33.65625 
C 13.796875 31.34375 3.296875 25.8125 3.296875 14.765625 
C 3.296875 4.40625 13.09375 -2 22.796875 -2 
C 33.5 -2 42.5 5.71875 42.5 15.96875 
C 42.5 25.109375 36.40625 29.328125 32.40625 32.046875 
z
M 14.09375 44.609375 
C 13.296875 45.109375 9.296875 48.21875 9.296875 52.9375 
C 9.296875 59.078125 15.59375 63.6875 22.796875 63.6875 
C 30.703125 63.6875 36.5 58.0625 36.5 51.53125 
C 36.5 42.1875 26.09375 36.859375 25.59375 36.859375 
C 25.5 36.859375 25.40625 36.859375 24.59375 37.46875 
z
M 32.5 24 
C 34 22.90625 38.796875 19.578125 38.796875 13.453125 
C 38.796875 6.015625 31.40625 0.390625 23 0.390625 
C 13.90625 0.390625 7 6.921875 7 14.859375 
C 7 22.796875 13.09375 29.4375 20 32.546875 
z
" id="CMR17-56"/>
     </defs>
     <use transform="scale(0.996264)" xlink:href="#CMR17-45"/>
     <use transform="translate(30.075966 0)scale(0.996264)" xlink:href="#CMR17-50"/>
     <use transform="translate(75.766443 0)scale(0.996264)" xlink:href="#CMR17-46"/>
     <use transform="translate(100.637502 0)scale(0.996264)" xlink:href="#CMR17-56"/>
     <use transform="translate(146.327979 0)scale(0.996264)" xlink:href="#CMR17-51"/>
    </g>
   </g>
   <g id="text_8">
    <!-- +3.09 -->
    <g style="fill:#ffffff;" transform="translate(79.092358 103.600362)scale(0.12 -0.12)">
     <use transform="scale(0.996264)" xlink:href="#CMR17-43"/>
     <use transform="translate(71.714788 0)scale(0.996264)" xlink:href="#CMR17-51"/>
     <use transform="translate(117.405266 0)scale(0.996264)" xlink:href="#CMR17-46"/>
     <use transform="translate(142.276324 0)scale(0.996264)" xlink:href="#CMR17-48"/>
     <use transform="translate(187.966801 0)scale(0.996264)" xlink:href="#CMR17-57"/>
    </g>
   </g>
  </g>
  <g id="axes_2">
   <g id="line2d_16">
    <path clip-path="url(#p6c4eb56b74)" d="M 271.35 41.371901 
L 229.03595 83.68595 
" style="fill:none;stroke:#333333;stroke-linecap:round;stroke-width:2;"/>
   </g>
   <g id="line2d_17">
    <path clip-path="url(#p6c4eb56b74)" d="M 271.35 41.371901 
L 271.35 100.61157 
" style="fill:none;stroke:#333333;stroke-linecap:round;stroke-width:2;"/>
   </g>
   <g id="line2d_18">
    <path clip-path="url(#p6c4eb56b74)" d="M 271.35 41.371901 
L 313.66405 83.68595 
" style="fill:none;stroke:#333333;stroke-linecap:round;stroke-width:2;"/>
   </g>
   <g id="line2d_19">
    <path clip-path="url(#p6c4eb56b74)" d="M 271.35 210.628099 
L 229.03595 168.31405 
" style="fill:none;stroke:#333333;stroke-linecap:round;stroke-width:2;"/>
   </g>
   <g id="line2d_20">
    <path clip-path="url(#p6c4eb56b74)" d="M 271.35 210.628099 
L 271.35 151.38843 
" style="fill:none;stroke:#333333;stroke-linecap:round;stroke-width:2;"/>
   </g>
   <g id="line2d_21">
    <path clip-path="url(#p6c4eb56b74)" d="M 271.35 210.628099 
L 313.66405 168.31405 
" style="fill:none;stroke:#333333;stroke-linecap:round;stroke-width:2;"/>
   </g>
   <g id="line2d_22">
    <path clip-path="url(#p6c4eb56b74)" d="M 229.03595 83.68595 
L 313.66405 83.68595 
" style="fill:none;stroke:#333333;stroke-linecap:round;stroke-width:2;"/>
   </g>
   <g id="line2d_23">
    <path clip-path="url(#p6c4eb56b74)" d="M 229.03595 83.68595 
L 229.03595 168.31405 
" style="fill:none;stroke:#333333;stroke-linecap:round;stroke-width:2;"/>
   </g>
   <g id="line2d_24">
    <path clip-path="url(#p6c4eb56b74)" d="M 313.66405 168.31405 
L 313.66405 83.68595 
" style="fill:none;stroke:#333333;stroke-linecap:round;stroke-width:2;"/>
   </g>
   <g id="line2d_25">
    <path clip-path="url(#p6c4eb56b74)" d="M 313.66405 168.31405 
L 229.03595 168.31405 
" style="fill:none;stroke:#333333;stroke-linecap:round;stroke-width:2;"/>
   </g>
   <g id="line2d_26">
    <path clip-path="url(#p6c4eb56b74)" d="M 271.35 100.61157 
L 229.03595 83.68595 
" style="fill:none;stroke:#333333;stroke-linecap:round;stroke-width:2;"/>
   </g>
   <g id="line2d_27">
    <path clip-path="url(#p6c4eb56b74)" d="M 271.35 100.61157 
L 313.66405 83.68595 
" style="fill:none;stroke:#333333;stroke-linecap:round;stroke-width:2;"/>
   </g>
   <g id="line2d_28">
    <path clip-path="url(#p6c4eb56b74)" d="M 271.35 100.61157 
L 271.35 151.38843 
" style="fill:none;stroke:#333333;stroke-linecap:round;stroke-width:2;"/>
   </g>
   <g id="line2d_29">
    <path clip-path="url(#p6c4eb56b74)" d="M 271.35 151.38843 
L 229.03595 168.31405 
" style="fill:none;stroke:#333333;stroke-linecap:round;stroke-width:2;"/>
   </g>
   <g id="line2d_30">
    <path clip-path="url(#p6c4eb56b74)" d="M 271.35 151.38843 
L 313.66405 168.31405 
" style="fill:none;stroke:#333333;stroke-linecap:round;stroke-width:2;"/>
   </g>
   <g id="patch_18">
    <path clip-path="url(#p6c4eb56b74)" d="M 313.66405 193.702479 
C 320.39714 193.702479 326.855367 191.027394 331.61638 186.26638 
C 336.377394 181.505367 339.052479 175.04714 339.052479 168.31405 
C 339.052479 161.580959 336.377394 155.122733 331.61638 150.361719 
C 326.855367 145.600705 320.39714 142.92562 313.66405 142.92562 
C 306.930959 142.92562 300.472733 145.600705 295.711719 150.361719 
C 290.950705 155.122733 288.27562 161.580959 288.27562 168.31405 
C 288.27562 175.04714 290.950705 181.505367 295.711719 186.26638 
C 300.472733 191.027394 306.930959 193.702479 313.66405 193.702479 
z
" style="fill:#333333;stroke:#333333;stroke-linejoin:miter;"/>
   </g>
   <g id="patch_19">
    <path clip-path="url(#p6c4eb56b74)" d="M 313.66405 191.586777 
C 319.836049 191.586777 325.75609 189.134616 330.120353 184.770353 
C 334.484616 180.40609 336.936777 174.486049 336.936777 168.31405 
C 336.936777 162.14205 334.484616 156.222009 330.120353 151.857746 
C 325.75609 147.493484 319.836049 145.041322 313.66405 145.041322 
C 307.49205 145.041322 301.572009 147.493484 297.207746 151.857746 
C 292.843484 156.222009 290.391322 162.14205 290.391322 168.31405 
C 290.391322 174.486049 292.843484 180.40609 297.207746 184.770353 
C 301.572009 189.134616 307.49205 191.586777 313.66405 191.586777 
z
" style="fill:#506bda;stroke:#506bda;stroke-linejoin:miter;"/>
   </g>
   <g id="patch_20">
    <path clip-path="url(#p6c4eb56b74)" d="M 313.66405 109.07438 
C 320.39714 109.07438 326.855367 106.399295 331.61638 101.638281 
C 336.377394 96.877267 339.052479 90.419041 339.052479 83.68595 
C 339.052479 76.95286 336.377394 70.494633 331.61638 65.73362 
C 326.855367 60.972606 320.39714 58.297521 313.66405 58.297521 
C 306.930959 58.297521 300.472733 60.972606 295.711719 65.73362 
C 290.950705 70.494633 288.27562 76.95286 288.27562 83.68595 
C 288.27562 90.419041 290.950705 96.877267 295.711719 101.638281 
C 300.472733 106.399295 306.930959 109.07438 313.66405 109.07438 
z
" style="fill:#333333;stroke:#333333;stroke-linejoin:miter;"/>
   </g>
   <g id="patch_21">
    <path clip-path="url(#p6c4eb56b74)" d="M 313.66405 106.958678 
C 319.836049 106.958678 325.75609 104.506516 330.120353 100.142254 
C 334.484616 95.777991 336.936777 89.85795 336.936777 83.68595 
C 336.936777 77.513951 334.484616 71.59391 330.120353 67.229647 
C 325.75609 62.865384 319.836049 60.413223 313.66405 60.413223 
C 307.49205 60.413223 301.572009 62.865384 297.207746 67.229647 
C 292.843484 71.59391 290.391322 77.513951 290.391322 83.68595 
C 290.391322 89.85795 292.843484 95.777991 297.207746 100.142254 
C 301.572009 104.506516 307.49205 106.958678 313.66405 106.958678 
z
" style="fill:#b40426;stroke:#b40426;stroke-linejoin:miter;"/>
   </g>
   <g id="patch_22">
    <path clip-path="url(#p6c4eb56b74)" d="M 229.03595 193.702479 
C 235.769041 193.702479 242.227267 191.027394 246.988281 186.26638 
C 251.749295 181.505367 254.42438 175.04714 254.42438 168.31405 
C 254.42438 161.580959 251.749295 155.122733 246.988281 150.361719 
C 242.227267 145.600705 235.769041 142.92562 229.03595 142.92562 
C 222.30286 142.92562 215.844633 145.600705 211.08362 150.361719 
C 206.322606 155.122733 203.647521 161.580959 203.647521 168.31405 
C 203.647521 175.04714 206.322606 181.505367 211.08362 186.26638 
C 215.844633 191.027394 222.30286 193.702479 229.03595 193.702479 
z
" style="fill:#333333;stroke:#333333;stroke-linejoin:miter;"/>
   </g>
   <g id="patch_23">
    <path clip-path="url(#p6c4eb56b74)" d="M 229.03595 191.586777 
C 235.20795 191.586777 241.127991 189.134616 245.492254 184.770353 
C 249.856516 180.40609 252.308678 174.486049 252.308678 168.31405 
C 252.308678 162.14205 249.856516 156.222009 245.492254 151.857746 
C 241.127991 147.493484 235.20795 145.041322 229.03595 145.041322 
C 222.863951 145.041322 216.94391 147.493484 212.579647 151.857746 
C 208.215384 156.222009 205.763223 162.14205 205.763223 168.31405 
C 205.763223 174.486049 208.215384 180.40609 212.579647 184.770353 
C 216.94391 189.134616 222.863951 191.586777 229.03595 191.586777 
z
" style="fill:#c43032;stroke:#c43032;stroke-linejoin:miter;"/>
   </g>
   <g id="patch_24">
    <path clip-path="url(#p6c4eb56b74)" d="M 229.03595 109.07438 
C 235.769041 109.07438 242.227267 106.399295 246.988281 101.638281 
C 251.749295 96.877267 254.42438 90.419041 254.42438 83.68595 
C 254.42438 76.95286 251.749295 70.494633 246.988281 65.73362 
C 242.227267 60.972606 235.769041 58.297521 229.03595 58.297521 
C 222.30286 58.297521 215.844633 60.972606 211.08362 65.73362 
C 206.322606 70.494633 203.647521 76.95286 203.647521 83.68595 
C 203.647521 90.419041 206.322606 96.877267 211.08362 101.638281 
C 215.844633 106.399295 222.30286 109.07438 229.03595 109.07438 
z
" style="fill:#333333;stroke:#333333;stroke-linejoin:miter;"/>
   </g>
   <g id="patch_25">
    <path clip-path="url(#p6c4eb56b74)" d="M 229.03595 106.958678 
C 235.20795 106.958678 241.127991 104.506516 245.492254 100.142254 
C 249.856516 95.777991 252.308678 89.85795 252.308678 83.68595 
C 252.308678 77.513951 249.856516 71.59391 245.492254 67.229647 
C 241.127991 62.865384 235.20795 60.413223 229.03595 60.413223 
C 222.863951 60.413223 216.94391 62.865384 212.579647 67.229647 
C 208.215384 71.59391 205.763223 77.513951 205.763223 83.68595 
C 205.763223 89.85795 208.215384 95.777991 212.579647 100.142254 
C 216.94391 104.506516 222.863951 106.958678 229.03595 106.958678 
z
" style="fill:#ec8165;stroke:#ec8165;stroke-linejoin:miter;"/>
   </g>
   <g id="patch_26">
    <path clip-path="url(#p6c4eb56b74)" d="M 271.35 230.727273 
C 276.680363 230.727273 281.793126 228.609497 285.562262 224.840361 
C 289.331398 221.071225 291.449174 215.958462 291.449174 210.628099 
C 291.449174 205.297736 289.331398 200.184973 285.562262 196.415837 
C 281.793126 192.646701 276.680363 190.528926 271.35 190.528926 
C 266.019637 190.528926 260.906874 192.646701 257.137738 196.415837 
C 253.368602 200.184973 251.250826 205.297736 251.250826 210.628099 
C 251.250826 215.958462 253.368602 221.071225 257.137738 224.840361 
C 260.906874 228.609497 266.019637 230.727273 271.35 230.727273 
z
" style="fill:#333333;stroke:#333333;stroke-linejoin:miter;"/>
   </g>
   <g id="patch_27">
    <path clip-path="url(#p6c4eb56b74)" d="M 271.35 228.61157 
C 276.119272 228.61157 280.69385 226.716718 284.066234 223.344334 
C 287.438619 219.971949 289.333471 215.397371 289.333471 210.628099 
C 289.333471 205.858827 287.438619 201.28425 284.066234 197.911865 
C 280.69385 194.53948 276.119272 192.644628 271.35 192.644628 
C 266.580728 192.644628 262.00615 194.53948 258.633766 197.911865 
C 255.261381 201.28425 253.366529 205.858827 253.366529 210.628099 
C 253.366529 215.397371 255.261381 219.971949 258.633766 223.344334 
C 262.00615 226.716718 266.580728 228.61157 271.35 228.61157 
z
" style="fill:#cedaeb;stroke:#cedaeb;stroke-linejoin:miter;"/>
   </g>
   <g id="patch_28">
    <path clip-path="url(#p6c4eb56b74)" d="M 271.35 61.471074 
C 276.680363 61.471074 281.793126 59.353299 285.562262 55.584163 
C 289.331398 51.815027 291.449174 46.702264 291.449174 41.371901 
C 291.449174 36.041538 289.331398 30.928775 285.562262 27.159639 
C 281.793126 23.390503 276.680363 21.272727 271.35 21.272727 
C 266.019637 21.272727 260.906874 23.390503 257.137738 27.159639 
C 253.368602 30.928775 251.250826 36.041538 251.250826 41.371901 
C 251.250826 46.702264 253.368602 51.815027 257.137738 55.584163 
C 260.906874 59.353299 266.019637 61.471074 271.35 61.471074 
z
" style="fill:#333333;stroke:#333333;stroke-linejoin:miter;"/>
   </g>
   <g id="patch_29">
    <path clip-path="url(#p6c4eb56b74)" d="M 271.35 59.355372 
C 276.119272 59.355372 280.69385 57.46052 284.066234 54.088135 
C 287.438619 50.71575 289.333471 46.141173 289.333471 41.371901 
C 289.333471 36.602629 287.438619 32.028051 284.066234 28.655666 
C 280.69385 25.283282 276.119272 23.38843 271.35 23.38843 
C 266.580728 23.38843 262.00615 25.283282 258.633766 28.655666 
C 255.261381 32.028051 253.366529 36.602629 253.366529 41.371901 
C 253.366529 46.141173 255.261381 50.71575 258.633766 54.088135 
C 262.00615 57.46052 266.580728 59.355372 271.35 59.355372 
z
" style="fill:#3b4cc0;stroke:#3b4cc0;stroke-linejoin:miter;"/>
   </g>
   <g id="patch_30">
    <path clip-path="url(#p6c4eb56b74)" d="M 271.35 167.256198 
C 275.558181 167.256198 279.594573 165.58427 282.570207 162.608637 
C 285.54584 159.633003 287.217769 155.596611 287.217769 151.38843 
C 287.217769 147.180248 285.54584 143.143857 282.570207 140.168223 
C 279.594573 137.192589 275.558181 135.520661 271.35 135.520661 
C 267.141819 135.520661 263.105427 137.192589 260.129793 140.168223 
C 257.15416 143.143857 255.482231 147.180248 255.482231 151.38843 
C 255.482231 155.596611 257.15416 159.633003 260.129793 162.608637 
C 263.105427 165.58427 267.141819 167.256198 271.35 167.256198 
z
" style="fill:#333333;stroke:#333333;stroke-linejoin:miter;"/>
   </g>
   <g id="patch_31">
    <path clip-path="url(#p6c4eb56b74)" d="M 271.35 165.140496 
C 274.997091 165.140496 278.495297 163.691491 281.074179 161.112609 
C 283.653062 158.533726 285.102066 155.03552 285.102066 151.38843 
C 285.102066 147.741339 283.653062 144.243133 281.074179 141.664251 
C 278.495297 139.085368 274.997091 137.636364 271.35 137.636364 
C 267.702909 137.636364 264.204703 139.085368 261.625821 141.664251 
C 259.046938 144.243133 257.597934 147.741339 257.597934 151.38843 
C 257.597934 155.03552 259.046938 158.533726 261.625821 161.112609 
C 264.204703 163.691491 267.702909 165.140496 271.35 165.140496 
z
" style="fill:#c83836;stroke:#c83836;stroke-linejoin:miter;"/>
   </g>
   <g id="patch_32">
    <path clip-path="url(#p6c4eb56b74)" d="M 271.35 116.479339 
C 275.558181 116.479339 279.594573 114.807411 282.570207 111.831777 
C 285.54584 108.856143 287.217769 104.819752 287.217769 100.61157 
C 287.217769 96.403389 285.54584 92.366997 282.570207 89.391363 
C 279.594573 86.41573 275.558181 84.743802 271.35 84.743802 
C 267.141819 84.743802 263.105427 86.41573 260.129793 89.391363 
C 257.15416 92.366997 255.482231 96.403389 255.482231 100.61157 
C 255.482231 104.819752 257.15416 108.856143 260.129793 111.831777 
C 263.105427 114.807411 267.141819 116.479339 271.35 116.479339 
z
" style="fill:#333333;stroke:#333333;stroke-linejoin:miter;"/>
   </g>
   <g id="patch_33">
    <path clip-path="url(#p6c4eb56b74)" d="M 271.35 114.363636 
C 274.997091 114.363636 278.495297 112.914632 281.074179 110.335749 
C 283.653062 107.756867 285.102066 104.258661 285.102066 100.61157 
C 285.102066 96.96448 283.653062 93.466274 281.074179 90.887391 
C 278.495297 88.308509 274.997091 86.859504 271.35 86.859504 
C 267.702909 86.859504 264.204703 88.308509 261.625821 90.887391 
C 259.046938 93.466274 257.597934 96.96448 257.597934 100.61157 
C 257.597934 104.258661 259.046938 107.756867 261.625821 110.335749 
C 264.204703 112.914632 267.702909 114.363636 271.35 114.363636 
z
" style="fill:#3d50c3;stroke:#3d50c3;stroke-linejoin:miter;"/>
   </g>
   <g id="text_9">
    <!-- -2.83 -->
    <g style="fill:#ffffff;" transform="translate(297.073676 172.617363)scale(0.1728 -0.1728)">
     <use transform="scale(0.996264)" xlink:href="#CMR17-45"/>
     <use transform="translate(30.075966 0)scale(0.996264)" xlink:href="#CMR17-50"/>
     <use transform="translate(75.766443 0)scale(0.996264)" xlink:href="#CMR17-46"/>
     <use transform="translate(100.637502 0)scale(0.996264)" xlink:href="#CMR17-56"/>
     <use transform="translate(146.327979 0)scale(0.996264)" xlink:href="#CMR17-51"/>
    </g>
   </g>
   <g id="text_10">
    <!-- +3.22 -->
    <g style="fill:#ffffff;" transform="translate(293.476083 87.989263)scale(0.1728 -0.1728)">
     <use transform="scale(0.996264)" xlink:href="#CMR17-43"/>
     <use transform="translate(71.714788 0)scale(0.996264)" xlink:href="#CMR17-51"/>
     <use transform="translate(117.405266 0)scale(0.996264)" xlink:href="#CMR17-46"/>
     <use transform="translate(142.276324 0)scale(0.996264)" xlink:href="#CMR17-50"/>
     <use transform="translate(187.966801 0)scale(0.996264)" xlink:href="#CMR17-50"/>
    </g>
   </g>
   <g id="text_11">
    <!-- +2.93 -->
    <g style="fill:#ffffff;" transform="translate(208.847983 172.617363)scale(0.1728 -0.1728)">
     <use transform="scale(0.996264)" xlink:href="#CMR17-43"/>
     <use transform="translate(71.714788 0)scale(0.996264)" xlink:href="#CMR17-50"/>
     <use transform="translate(117.405266 0)scale(0.996264)" xlink:href="#CMR17-46"/>
     <use transform="translate(142.276324 0)scale(0.996264)" xlink:href="#CMR17-57"/>
     <use transform="translate(187.966801 0)scale(0.996264)" xlink:href="#CMR17-51"/>
    </g>
   </g>
   <g id="text_12">
    <!-- +1.95 -->
    <g style="fill:#ffffff;" transform="translate(208.847983 87.989263)scale(0.1728 -0.1728)">
     <use transform="scale(0.996264)" xlink:href="#CMR17-43"/>
     <use transform="translate(71.714788 0)scale(0.996264)" xlink:href="#CMR17-49"/>
     <use transform="translate(117.405266 0)scale(0.996264)" xlink:href="#CMR17-46"/>
     <use transform="translate(142.276324 0)scale(0.996264)" xlink:href="#CMR17-57"/>
     <use transform="translate(187.966801 0)scale(0.996264)" xlink:href="#CMR17-53"/>
    </g>
   </g>
   <g id="text_13">
    <!-- -0.40 -->
    <g style="fill:#262626;" transform="translate(256.522463 214.214648)scale(0.144 -0.144)">
     <use transform="scale(0.996264)" xlink:href="#CMR17-45"/>
     <use transform="translate(30.075966 0)scale(0.996264)" xlink:href="#CMR17-48"/>
     <use transform="translate(75.766443 0)scale(0.996264)" xlink:href="#CMR17-46"/>
     <use transform="translate(100.637502 0)scale(0.996264)" xlink:href="#CMR17-52"/>
     <use transform="translate(146.327979 0)scale(0.996264)" xlink:href="#CMR17-48"/>
    </g>
   </g>
   <g id="text_14">
    <!-- -3.32 -->
    <g style="fill:#ffffff;" transform="translate(256.522463 44.95845)scale(0.144 -0.144)">
     <use transform="scale(0.996264)" xlink:href="#CMR17-45"/>
     <use transform="translate(30.075966 0)scale(0.996264)" xlink:href="#CMR17-51"/>
     <use transform="translate(75.766443 0)scale(0.996264)" xlink:href="#CMR17-46"/>
     <use transform="translate(100.637502 0)scale(0.996264)" xlink:href="#CMR17-51"/>
     <use transform="translate(146.327979 0)scale(0.996264)" xlink:href="#CMR17-50"/>
    </g>
   </g>
   <g id="text_15">
    <!-- +2.85 -->
    <g style="fill:#ffffff;" transform="translate(256.392358 154.377222)scale(0.12 -0.12)">
     <use transform="scale(0.996264)" xlink:href="#CMR17-43"/>
     <use transform="translate(71.714788 0)scale(0.996264)" xlink:href="#CMR17-50"/>
     <use transform="translate(117.405266 0)scale(0.996264)" xlink:href="#CMR17-46"/>
     <use transform="translate(142.276324 0)scale(0.996264)" xlink:href="#CMR17-56"/>
     <use transform="translate(187.966801 0)scale(0.996264)" xlink:href="#CMR17-53"/>
    </g>
   </g>
   <g id="text_16">
    <!-- -3.25 -->
    <g style="fill:#ffffff;" transform="translate(258.993687 103.600362)scale(0.12 -0.12)">
     <use transform="scale(0.996264)" xlink:href="#CMR17-45"/>
     <use transform="translate(30.075966 0)scale(0.996264)" xlink:href="#CMR17-51"/>
     <use transform="translate(75.766443 0)scale(0.996264)" xlink:href="#CMR17-46"/>
     <use transform="translate(100.637502 0)scale(0.996264)" xlink:href="#CMR17-50"/>
     <use transform="translate(146.327979 0)scale(0.996264)" xlink:href="#CMR17-53"/>
    </g>
   </g>
  </g>
  <g id="axes_3">
   <g id="line2d_31">
    <path clip-path="url(#pa5617558eb)" d="M 448.65 41.371901 
L 406.33595 83.68595 
" style="fill:none;stroke:#333333;stroke-linecap:round;stroke-width:2;"/>
   </g>
   <g id="line2d_32">
    <path clip-path="url(#pa5617558eb)" d="M 448.65 41.371901 
L 448.65 100.61157 
" style="fill:none;stroke:#333333;stroke-linecap:round;stroke-width:2;"/>
   </g>
   <g id="line2d_33">
    <path clip-path="url(#pa5617558eb)" d="M 448.65 41.371901 
L 490.96405 83.68595 
" style="fill:none;stroke:#333333;stroke-linecap:round;stroke-width:2;"/>
   </g>
   <g id="line2d_34">
    <path clip-path="url(#pa5617558eb)" d="M 448.65 210.628099 
L 406.33595 168.31405 
" style="fill:none;stroke:#333333;stroke-linecap:round;stroke-width:2;"/>
   </g>
   <g id="line2d_35">
    <path clip-path="url(#pa5617558eb)" d="M 448.65 210.628099 
L 448.65 151.38843 
" style="fill:none;stroke:#333333;stroke-linecap:round;stroke-width:2;"/>
   </g>
   <g id="line2d_36">
    <path clip-path="url(#pa5617558eb)" d="M 448.65 210.628099 
L 490.96405 168.31405 
" style="fill:none;stroke:#333333;stroke-linecap:round;stroke-width:2;"/>
   </g>
   <g id="line2d_37">
    <path clip-path="url(#pa5617558eb)" d="M 406.33595 83.68595 
L 490.96405 83.68595 
" style="fill:none;stroke:#333333;stroke-linecap:round;stroke-width:2;"/>
   </g>
   <g id="line2d_38">
    <path clip-path="url(#pa5617558eb)" d="M 406.33595 83.68595 
L 406.33595 168.31405 
" style="fill:none;stroke:#333333;stroke-linecap:round;stroke-width:2;"/>
   </g>
   <g id="line2d_39">
    <path clip-path="url(#pa5617558eb)" d="M 490.96405 168.31405 
L 490.96405 83.68595 
" style="fill:none;stroke:#333333;stroke-linecap:round;stroke-width:2;"/>
   </g>
   <g id="line2d_40">
    <path clip-path="url(#pa5617558eb)" d="M 490.96405 168.31405 
L 406.33595 168.31405 
" style="fill:none;stroke:#333333;stroke-linecap:round;stroke-width:2;"/>
   </g>
   <g id="line2d_41">
    <path clip-path="url(#pa5617558eb)" d="M 448.65 100.61157 
L 406.33595 83.68595 
" style="fill:none;stroke:#333333;stroke-linecap:round;stroke-width:2;"/>
   </g>
   <g id="line2d_42">
    <path clip-path="url(#pa5617558eb)" d="M 448.65 100.61157 
L 490.96405 83.68595 
" style="fill:none;stroke:#333333;stroke-linecap:round;stroke-width:2;"/>
   </g>
   <g id="line2d_43">
    <path clip-path="url(#pa5617558eb)" d="M 448.65 100.61157 
L 448.65 151.38843 
" style="fill:none;stroke:#333333;stroke-linecap:round;stroke-width:2;"/>
   </g>
   <g id="line2d_44">
    <path clip-path="url(#pa5617558eb)" d="M 448.65 151.38843 
L 406.33595 168.31405 
" style="fill:none;stroke:#333333;stroke-linecap:round;stroke-width:2;"/>
   </g>
   <g id="line2d_45">
    <path clip-path="url(#pa5617558eb)" d="M 448.65 151.38843 
L 490.96405 168.31405 
" style="fill:none;stroke:#333333;stroke-linecap:round;stroke-width:2;"/>
   </g>
   <g id="patch_34">
    <path clip-path="url(#pa5617558eb)" d="M 490.96405 193.702479 
C 497.69714 193.702479 504.155367 191.027394 508.91638 186.26638 
C 513.677394 181.505367 516.352479 175.04714 516.352479 168.31405 
C 516.352479 161.580959 513.677394 155.122733 508.91638 150.361719 
C 504.155367 145.600705 497.69714 142.92562 490.96405 142.92562 
C 484.230959 142.92562 477.772733 145.600705 473.011719 150.361719 
C 468.250705 155.122733 465.57562 161.580959 465.57562 168.31405 
C 465.57562 175.04714 468.250705 181.505367 473.011719 186.26638 
C 477.772733 191.027394 484.230959 193.702479 490.96405 193.702479 
z
" style="fill:#333333;stroke:#333333;stroke-linejoin:miter;"/>
   </g>
   <g id="patch_35">
    <path clip-path="url(#pa5617558eb)" d="M 490.96405 191.586777 
C 497.136049 191.586777 503.05609 189.134616 507.420353 184.770353 
C 511.784616 180.40609 514.236777 174.486049 514.236777 168.31405 
C 514.236777 162.14205 511.784616 156.222009 507.420353 151.857746 
C 503.05609 147.493484 497.136049 145.041322 490.96405 145.041322 
C 484.79205 145.041322 478.872009 147.493484 474.507746 151.857746 
C 470.143484 156.222009 467.691322 162.14205 467.691322 168.31405 
C 467.691322 174.486049 470.143484 180.40609 474.507746 184.770353 
C 478.872009 189.134616 484.79205 191.586777 490.96405 191.586777 
z
" style="fill:#4f69d9;stroke:#4f69d9;stroke-linejoin:miter;"/>
   </g>
   <g id="patch_36">
    <path clip-path="url(#pa5617558eb)" d="M 490.96405 109.07438 
C 497.69714 109.07438 504.155367 106.399295 508.91638 101.638281 
C 513.677394 96.877267 516.352479 90.419041 516.352479 83.68595 
C 516.352479 76.95286 513.677394 70.494633 508.91638 65.73362 
C 504.155367 60.972606 497.69714 58.297521 490.96405 58.297521 
C 484.230959 58.297521 477.772733 60.972606 473.011719 65.73362 
C 468.250705 70.494633 465.57562 76.95286 465.57562 83.68595 
C 465.57562 90.419041 468.250705 96.877267 473.011719 101.638281 
C 477.772733 106.399295 484.230959 109.07438 490.96405 109.07438 
z
" style="fill:#333333;stroke:#333333;stroke-linejoin:miter;"/>
   </g>
   <g id="patch_37">
    <path clip-path="url(#pa5617558eb)" d="M 490.96405 106.958678 
C 497.136049 106.958678 503.05609 104.506516 507.420353 100.142254 
C 511.784616 95.777991 514.236777 89.85795 514.236777 83.68595 
C 514.236777 77.513951 511.784616 71.59391 507.420353 67.229647 
C 503.05609 62.865384 497.136049 60.413223 490.96405 60.413223 
C 484.79205 60.413223 478.872009 62.865384 474.507746 67.229647 
C 470.143484 71.59391 467.691322 77.513951 467.691322 83.68595 
C 467.691322 89.85795 470.143484 95.777991 474.507746 100.142254 
C 478.872009 104.506516 484.79205 106.958678 490.96405 106.958678 
z
" style="fill:#b70d28;stroke:#b70d28;stroke-linejoin:miter;"/>
   </g>
   <g id="patch_38">
    <path clip-path="url(#pa5617558eb)" d="M 406.33595 193.702479 
C 413.069041 193.702479 419.527267 191.027394 424.288281 186.26638 
C 429.049295 181.505367 431.72438 175.04714 431.72438 168.31405 
C 431.72438 161.580959 429.049295 155.122733 424.288281 150.361719 
C 419.527267 145.600705 413.069041 142.92562 406.33595 142.92562 
C 399.60286 142.92562 393.144633 145.600705 388.38362 150.361719 
C 383.622606 155.122733 380.947521 161.580959 380.947521 168.31405 
C 380.947521 175.04714 383.622606 181.505367 388.38362 186.26638 
C 393.144633 191.027394 399.60286 193.702479 406.33595 193.702479 
z
" style="fill:#333333;stroke:#333333;stroke-linejoin:miter;"/>
   </g>
   <g id="patch_39">
    <path clip-path="url(#pa5617558eb)" d="M 406.33595 191.586777 
C 412.50795 191.586777 418.427991 189.134616 422.792254 184.770353 
C 427.156516 180.40609 429.608678 174.486049 429.608678 168.31405 
C 429.608678 162.14205 427.156516 156.222009 422.792254 151.857746 
C 418.427991 147.493484 412.50795 145.041322 406.33595 145.041322 
C 400.163951 145.041322 394.24391 147.493484 389.879647 151.857746 
C 385.515384 156.222009 383.063223 162.14205 383.063223 168.31405 
C 383.063223 174.486049 385.515384 180.40609 389.879647 184.770353 
C 394.24391 189.134616 400.163951 191.586777 406.33595 191.586777 
z
" style="fill:#f7b599;stroke:#f7b599;stroke-linejoin:miter;"/>
   </g>
   <g id="patch_40">
    <path clip-path="url(#pa5617558eb)" d="M 406.33595 109.07438 
C 413.069041 109.07438 419.527267 106.399295 424.288281 101.638281 
C 429.049295 96.877267 431.72438 90.419041 431.72438 83.68595 
C 431.72438 76.95286 429.049295 70.494633 424.288281 65.73362 
C 419.527267 60.972606 413.069041 58.297521 406.33595 58.297521 
C 399.60286 58.297521 393.144633 60.972606 388.38362 65.73362 
C 383.622606 70.494633 380.947521 76.95286 380.947521 83.68595 
C 380.947521 90.419041 383.622606 96.877267 388.38362 101.638281 
C 393.144633 106.399295 399.60286 109.07438 406.33595 109.07438 
z
" style="fill:#333333;stroke:#333333;stroke-linejoin:miter;"/>
   </g>
   <g id="patch_41">
    <path clip-path="url(#pa5617558eb)" d="M 406.33595 106.958678 
C 412.50795 106.958678 418.427991 104.506516 422.792254 100.142254 
C 427.156516 95.777991 429.608678 89.85795 429.608678 83.68595 
C 429.608678 77.513951 427.156516 71.59391 422.792254 67.229647 
C 418.427991 62.865384 412.50795 60.413223 406.33595 60.413223 
C 400.163951 60.413223 394.24391 62.865384 389.879647 67.229647 
C 385.515384 71.59391 383.063223 77.513951 383.063223 83.68595 
C 383.063223 89.85795 385.515384 95.777991 389.879647 100.142254 
C 394.24391 104.506516 400.163951 106.958678 406.33595 106.958678 
z
" style="fill:#b40426;stroke:#b40426;stroke-linejoin:miter;"/>
   </g>
   <g id="patch_42">
    <path clip-path="url(#pa5617558eb)" d="M 448.65 230.727273 
C 453.980363 230.727273 459.093126 228.609497 462.862262 224.840361 
C 466.631398 221.071225 468.749174 215.958462 468.749174 210.628099 
C 468.749174 205.297736 466.631398 200.184973 462.862262 196.415837 
C 459.093126 192.646701 453.980363 190.528926 448.65 190.528926 
C 443.319637 190.528926 438.206874 192.646701 434.437738 196.415837 
C 430.668602 200.184973 428.550826 205.297736 428.550826 210.628099 
C 428.550826 215.958462 430.668602 221.071225 434.437738 224.840361 
C 438.206874 228.609497 443.319637 230.727273 448.65 230.727273 
z
" style="fill:#333333;stroke:#333333;stroke-linejoin:miter;"/>
   </g>
   <g id="patch_43">
    <path clip-path="url(#pa5617558eb)" d="M 448.65 228.61157 
C 453.419272 228.61157 457.99385 226.716718 461.366234 223.344334 
C 464.738619 219.971949 466.633471 215.397371 466.633471 210.628099 
C 466.633471 205.858827 464.738619 201.28425 461.366234 197.911865 
C 457.99385 194.53948 453.419272 192.644628 448.65 192.644628 
C 443.880728 192.644628 439.30615 194.53948 435.933766 197.911865 
C 432.561381 201.28425 430.666529 205.858827 430.666529 210.628099 
C 430.666529 215.397371 432.561381 219.971949 435.933766 223.344334 
C 439.30615 226.716718 443.880728 228.61157 448.65 228.61157 
z
" style="fill:#d2dbe8;stroke:#d2dbe8;stroke-linejoin:miter;"/>
   </g>
   <g id="patch_44">
    <path clip-path="url(#pa5617558eb)" d="M 448.65 61.471074 
C 453.980363 61.471074 459.093126 59.353299 462.862262 55.584163 
C 466.631398 51.815027 468.749174 46.702264 468.749174 41.371901 
C 468.749174 36.041538 466.631398 30.928775 462.862262 27.159639 
C 459.093126 23.390503 453.980363 21.272727 448.65 21.272727 
C 443.319637 21.272727 438.206874 23.390503 434.437738 27.159639 
C 430.668602 30.928775 428.550826 36.041538 428.550826 41.371901 
C 428.550826 46.702264 430.668602 51.815027 434.437738 55.584163 
C 438.206874 59.353299 443.319637 61.471074 448.65 61.471074 
z
" style="fill:#333333;stroke:#333333;stroke-linejoin:miter;"/>
   </g>
   <g id="patch_45">
    <path clip-path="url(#pa5617558eb)" d="M 448.65 59.355372 
C 453.419272 59.355372 457.99385 57.46052 461.366234 54.088135 
C 464.738619 50.71575 466.633471 46.141173 466.633471 41.371901 
C 466.633471 36.602629 464.738619 32.028051 461.366234 28.655666 
C 457.99385 25.283282 453.419272 23.38843 448.65 23.38843 
C 443.880728 23.38843 439.30615 25.283282 435.933766 28.655666 
C 432.561381 32.028051 430.666529 36.602629 430.666529 41.371901 
C 430.666529 46.141173 432.561381 50.71575 435.933766 54.088135 
C 439.30615 57.46052 443.880728 59.355372 448.65 59.355372 
z
" style="fill:#3b4cc0;stroke:#3b4cc0;stroke-linejoin:miter;"/>
   </g>
   <g id="patch_46">
    <path clip-path="url(#pa5617558eb)" d="M 448.65 167.256198 
C 452.858181 167.256198 456.894573 165.58427 459.870207 162.608637 
C 462.84584 159.633003 464.517769 155.596611 464.517769 151.38843 
C 464.517769 147.180248 462.84584 143.143857 459.870207 140.168223 
C 456.894573 137.192589 452.858181 135.520661 448.65 135.520661 
C 444.441819 135.520661 440.405427 137.192589 437.429793 140.168223 
C 434.45416 143.143857 432.782231 147.180248 432.782231 151.38843 
C 432.782231 155.596611 434.45416 159.633003 437.429793 162.608637 
C 440.405427 165.58427 444.441819 167.256198 448.65 167.256198 
z
" style="fill:#333333;stroke:#333333;stroke-linejoin:miter;"/>
   </g>
   <g id="patch_47">
    <path clip-path="url(#pa5617558eb)" d="M 448.65 165.140496 
C 452.297091 165.140496 455.795297 163.691491 458.374179 161.112609 
C 460.953062 158.533726 462.402066 155.03552 462.402066 151.38843 
C 462.402066 147.741339 460.953062 144.243133 458.374179 141.664251 
C 455.795297 139.085368 452.297091 137.636364 448.65 137.636364 
C 445.002909 137.636364 441.504703 139.085368 438.925821 141.664251 
C 436.346938 144.243133 434.897934 147.741339 434.897934 151.38843 
C 434.897934 155.03552 436.346938 158.533726 438.925821 161.112609 
C 441.504703 163.691491 445.002909 165.140496 448.65 165.140496 
z
" style="fill:#cd423b;stroke:#cd423b;stroke-linejoin:miter;"/>
   </g>
   <g id="patch_48">
    <path clip-path="url(#pa5617558eb)" d="M 448.65 116.479339 
C 452.858181 116.479339 456.894573 114.807411 459.870207 111.831777 
C 462.84584 108.856143 464.517769 104.819752 464.517769 100.61157 
C 464.517769 96.403389 462.84584 92.366997 459.870207 89.391363 
C 456.894573 86.41573 452.858181 84.743802 448.65 84.743802 
C 444.441819 84.743802 440.405427 86.41573 437.429793 89.391363 
C 434.45416 92.366997 432.782231 96.403389 432.782231 100.61157 
C 432.782231 104.819752 434.45416 108.856143 437.429793 111.831777 
C 440.405427 114.807411 444.441819 116.479339 448.65 116.479339 
z
" style="fill:#333333;stroke:#333333;stroke-linejoin:miter;"/>
   </g>
   <g id="patch_49">
    <path clip-path="url(#pa5617558eb)" d="M 448.65 114.363636 
C 452.297091 114.363636 455.795297 112.914632 458.374179 110.335749 
C 460.953062 107.756867 462.402066 104.258661 462.402066 100.61157 
C 462.402066 96.96448 460.953062 93.466274 458.374179 90.887391 
C 455.795297 88.308509 452.297091 86.859504 448.65 86.859504 
C 445.002909 86.859504 441.504703 88.308509 438.925821 90.887391 
C 436.346938 93.466274 434.897934 96.96448 434.897934 100.61157 
C 434.897934 104.258661 436.346938 107.756867 438.925821 110.335749 
C 441.504703 112.914632 445.002909 114.363636 448.65 114.363636 
z
" style="fill:#3e51c5;stroke:#3e51c5;stroke-linejoin:miter;"/>
   </g>
   <g id="text_17">
    <!-- -2.89 -->
    <g style="fill:#ffffff;" transform="translate(474.373676 172.617363)scale(0.1728 -0.1728)">
     <use transform="scale(0.996264)" xlink:href="#CMR17-45"/>
     <use transform="translate(30.075966 0)scale(0.996264)" xlink:href="#CMR17-50"/>
     <use transform="translate(75.766443 0)scale(0.996264)" xlink:href="#CMR17-46"/>
     <use transform="translate(100.637502 0)scale(0.996264)" xlink:href="#CMR17-56"/>
     <use transform="translate(146.327979 0)scale(0.996264)" xlink:href="#CMR17-57"/>
    </g>
   </g>
   <g id="text_18">
    <!-- +3.16 -->
    <g style="fill:#ffffff;" transform="translate(470.776083 87.989263)scale(0.1728 -0.1728)">
     <use transform="scale(0.996264)" xlink:href="#CMR17-43"/>
     <use transform="translate(71.714788 0)scale(0.996264)" xlink:href="#CMR17-51"/>
     <use transform="translate(117.405266 0)scale(0.996264)" xlink:href="#CMR17-46"/>
     <use transform="translate(142.276324 0)scale(0.996264)" xlink:href="#CMR17-49"/>
     <use transform="translate(187.966801 0)scale(0.996264)" xlink:href="#CMR17-54"/>
    </g>
   </g>
   <g id="text_19">
    <!-- +1.07 -->
    <g style="fill:#262626;" transform="translate(386.147983 172.617363)scale(0.1728 -0.1728)">
     <defs>
      <path d="M 45.09375 61.796875 
L 45.09375 64 
L 21.59375 64 
C 9.90625 64 9.703125 65.09375 9.296875 67 
L 7.5 67 
L 4.59375 48.5 
L 6.40625 48.5 
C 6.703125 50.40625 7.40625 55.5 8.59375 57.390625 
C 9.203125 58.1875 16.59375 58.1875 18.296875 58.1875 
L 40.296875 58.1875 
L 29.203125 41.71875 
C 21.796875 30.640625 16.703125 15.671875 16.703125 2.59375 
C 16.703125 1.390625 16.703125 -2 20.296875 -2 
C 23.90625 -2 23.90625 1.390625 23.90625 2.6875 
L 23.90625 7.28125 
C 23.90625 23.65625 26.703125 34.4375 31.296875 41.3125 
z
" id="CMR17-55"/>
     </defs>
     <use transform="scale(0.996264)" xlink:href="#CMR17-43"/>
     <use transform="translate(71.714788 0)scale(0.996264)" xlink:href="#CMR17-49"/>
     <use transform="translate(117.405266 0)scale(0.996264)" xlink:href="#CMR17-46"/>
     <use transform="translate(142.276324 0)scale(0.996264)" xlink:href="#CMR17-48"/>
     <use transform="translate(187.966801 0)scale(0.996264)" xlink:href="#CMR17-55"/>
    </g>
   </g>
   <g id="text_20">
    <!-- +3.22 -->
    <g style="fill:#ffffff;" transform="translate(386.147983 87.989263)scale(0.1728 -0.1728)">
     <use transform="scale(0.996264)" xlink:href="#CMR17-43"/>
     <use transform="translate(71.714788 0)scale(0.996264)" xlink:href="#CMR17-51"/>
     <use transform="translate(117.405266 0)scale(0.996264)" xlink:href="#CMR17-46"/>
     <use transform="translate(142.276324 0)scale(0.996264)" xlink:href="#CMR17-50"/>
     <use transform="translate(187.966801 0)scale(0.996264)" xlink:href="#CMR17-50"/>
    </g>
   </g>
   <g id="text_21">
    <!-- -0.32 -->
    <g style="fill:#262626;" transform="translate(433.822463 214.214648)scale(0.144 -0.144)">
     <use transform="scale(0.996264)" xlink:href="#CMR17-45"/>
     <use transform="translate(30.075966 0)scale(0.996264)" xlink:href="#CMR17-48"/>
     <use transform="translate(75.766443 0)scale(0.996264)" xlink:href="#CMR17-46"/>
     <use transform="translate(100.637502 0)scale(0.996264)" xlink:href="#CMR17-51"/>
     <use transform="translate(146.327979 0)scale(0.996264)" xlink:href="#CMR17-50"/>
    </g>
   </g>
   <g id="text_22">
    <!-- -3.35 -->
    <g style="fill:#ffffff;" transform="translate(433.822463 44.95845)scale(0.144 -0.144)">
     <use transform="scale(0.996264)" xlink:href="#CMR17-45"/>
     <use transform="translate(30.075966 0)scale(0.996264)" xlink:href="#CMR17-51"/>
     <use transform="translate(75.766443 0)scale(0.996264)" xlink:href="#CMR17-46"/>
     <use transform="translate(100.637502 0)scale(0.996264)" xlink:href="#CMR17-51"/>
     <use transform="translate(146.327979 0)scale(0.996264)" xlink:href="#CMR17-53"/>
    </g>
   </g>
   <g id="text_23">
    <!-- +2.73 -->
    <g style="fill:#ffffff;" transform="translate(433.692358 154.377222)scale(0.12 -0.12)">
     <use transform="scale(0.996264)" xlink:href="#CMR17-43"/>
     <use transform="translate(71.714788 0)scale(0.996264)" xlink:href="#CMR17-50"/>
     <use transform="translate(117.405266 0)scale(0.996264)" xlink:href="#CMR17-46"/>
     <use transform="translate(142.276324 0)scale(0.996264)" xlink:href="#CMR17-55"/>
     <use transform="translate(187.966801 0)scale(0.996264)" xlink:href="#CMR17-51"/>
    </g>
   </g>
   <g id="text_24">
    <!-- -3.25 -->
    <g style="fill:#ffffff;" transform="translate(436.293687 103.600362)scale(0.12 -0.12)">
     <use transform="scale(0.996264)" xlink:href="#CMR17-45"/>
     <use transform="translate(30.075966 0)scale(0.996264)" xlink:href="#CMR17-51"/>
     <use transform="translate(75.766443 0)scale(0.996264)" xlink:href="#CMR17-46"/>
     <use transform="translate(100.637502 0)scale(0.996264)" xlink:href="#CMR17-50"/>
     <use transform="translate(146.327979 0)scale(0.996264)" xlink:href="#CMR17-53"/>
    </g>
   </g>
  </g>
  <g id="axes_4">
   <g id="line2d_46">
    <path clip-path="url(#p60ee1feafb)" d="M 625.95 41.371901 
L 583.63595 83.68595 
" style="fill:none;stroke:#333333;stroke-linecap:round;stroke-width:2;"/>
   </g>
   <g id="line2d_47">
    <path clip-path="url(#p60ee1feafb)" d="M 625.95 41.371901 
L 625.95 100.61157 
" style="fill:none;stroke:#333333;stroke-linecap:round;stroke-width:2;"/>
   </g>
   <g id="line2d_48">
    <path clip-path="url(#p60ee1feafb)" d="M 625.95 41.371901 
L 668.26405 83.68595 
" style="fill:none;stroke:#333333;stroke-linecap:round;stroke-width:2;"/>
   </g>
   <g id="line2d_49">
    <path clip-path="url(#p60ee1feafb)" d="M 625.95 210.628099 
L 583.63595 168.31405 
" style="fill:none;stroke:#333333;stroke-linecap:round;stroke-width:2;"/>
   </g>
   <g id="line2d_50">
    <path clip-path="url(#p60ee1feafb)" d="M 625.95 210.628099 
L 625.95 151.38843 
" style="fill:none;stroke:#333333;stroke-linecap:round;stroke-width:2;"/>
   </g>
   <g id="line2d_51">
    <path clip-path="url(#p60ee1feafb)" d="M 625.95 210.628099 
L 668.26405 168.31405 
" style="fill:none;stroke:#333333;stroke-linecap:round;stroke-width:2;"/>
   </g>
   <g id="line2d_52">
    <path clip-path="url(#p60ee1feafb)" d="M 583.63595 83.68595 
L 668.26405 83.68595 
" style="fill:none;stroke:#333333;stroke-linecap:round;stroke-width:2;"/>
   </g>
   <g id="line2d_53">
    <path clip-path="url(#p60ee1feafb)" d="M 583.63595 83.68595 
L 583.63595 168.31405 
" style="fill:none;stroke:#333333;stroke-linecap:round;stroke-width:2;"/>
   </g>
   <g id="line2d_54">
    <path clip-path="url(#p60ee1feafb)" d="M 668.26405 168.31405 
L 668.26405 83.68595 
" style="fill:none;stroke:#333333;stroke-linecap:round;stroke-width:2;"/>
   </g>
   <g id="line2d_55">
    <path clip-path="url(#p60ee1feafb)" d="M 668.26405 168.31405 
L 583.63595 168.31405 
" style="fill:none;stroke:#333333;stroke-linecap:round;stroke-width:2;"/>
   </g>
   <g id="line2d_56">
    <path clip-path="url(#p60ee1feafb)" d="M 625.95 100.61157 
L 583.63595 83.68595 
" style="fill:none;stroke:#333333;stroke-linecap:round;stroke-width:2;"/>
   </g>
   <g id="line2d_57">
    <path clip-path="url(#p60ee1feafb)" d="M 625.95 100.61157 
L 668.26405 83.68595 
" style="fill:none;stroke:#333333;stroke-linecap:round;stroke-width:2;"/>
   </g>
   <g id="line2d_58">
    <path clip-path="url(#p60ee1feafb)" d="M 625.95 100.61157 
L 625.95 151.38843 
" style="fill:none;stroke:#333333;stroke-linecap:round;stroke-width:2;"/>
   </g>
   <g id="line2d_59">
    <path clip-path="url(#p60ee1feafb)" d="M 625.95 151.38843 
L 583.63595 168.31405 
" style="fill:none;stroke:#333333;stroke-linecap:round;stroke-width:2;"/>
   </g>
   <g id="line2d_60">
    <path clip-path="url(#p60ee1feafb)" d="M 625.95 151.38843 
L 668.26405 168.31405 
" style="fill:none;stroke:#333333;stroke-linecap:round;stroke-width:2;"/>
   </g>
   <g id="patch_50">
    <path clip-path="url(#p60ee1feafb)" d="M 668.26405 193.702479 
C 674.99714 193.702479 681.455367 191.027394 686.21638 186.26638 
C 690.977394 181.505367 693.652479 175.04714 693.652479 168.31405 
C 693.652479 161.580959 690.977394 155.122733 686.21638 150.361719 
C 681.455367 145.600705 674.99714 142.92562 668.26405 142.92562 
C 661.530959 142.92562 655.072733 145.600705 650.311719 150.361719 
C 645.550705 155.122733 642.87562 161.580959 642.87562 168.31405 
C 642.87562 175.04714 645.550705 181.505367 650.311719 186.26638 
C 655.072733 191.027394 661.530959 193.702479 668.26405 193.702479 
z
" style="fill:#333333;stroke:#333333;stroke-linejoin:miter;"/>
   </g>
   <g id="patch_51">
    <path clip-path="url(#p60ee1feafb)" d="M 668.26405 191.586777 
C 674.436049 191.586777 680.35609 189.134616 684.720353 184.770353 
C 689.084616 180.40609 691.536777 174.486049 691.536777 168.31405 
C 691.536777 162.14205 689.084616 156.222009 684.720353 151.857746 
C 680.35609 147.493484 674.436049 145.041322 668.26405 145.041322 
C 662.09205 145.041322 656.172009 147.493484 651.807746 151.857746 
C 647.443484 156.222009 644.991322 162.14205 644.991322 168.31405 
C 644.991322 174.486049 647.443484 180.40609 651.807746 184.770353 
C 656.172009 189.134616 662.09205 191.586777 668.26405 191.586777 
z
" style="fill:#4f69d9;stroke:#4f69d9;stroke-linejoin:miter;"/>
   </g>
   <g id="patch_52">
    <path clip-path="url(#p60ee1feafb)" d="M 668.26405 109.07438 
C 674.99714 109.07438 681.455367 106.399295 686.21638 101.638281 
C 690.977394 96.877267 693.652479 90.419041 693.652479 83.68595 
C 693.652479 76.95286 690.977394 70.494633 686.21638 65.73362 
C 681.455367 60.972606 674.99714 58.297521 668.26405 58.297521 
C 661.530959 58.297521 655.072733 60.972606 650.311719 65.73362 
C 645.550705 70.494633 642.87562 76.95286 642.87562 83.68595 
C 642.87562 90.419041 645.550705 96.877267 650.311719 101.638281 
C 655.072733 106.399295 661.530959 109.07438 668.26405 109.07438 
z
" style="fill:#333333;stroke:#333333;stroke-linejoin:miter;"/>
   </g>
   <g id="patch_53">
    <path clip-path="url(#p60ee1feafb)" d="M 668.26405 106.958678 
C 674.436049 106.958678 680.35609 104.506516 684.720353 100.142254 
C 689.084616 95.777991 691.536777 89.85795 691.536777 83.68595 
C 691.536777 77.513951 689.084616 71.59391 684.720353 67.229647 
C 680.35609 62.865384 674.436049 60.413223 668.26405 60.413223 
C 662.09205 60.413223 656.172009 62.865384 651.807746 67.229647 
C 647.443484 71.59391 644.991322 77.513951 644.991322 83.68595 
C 644.991322 89.85795 647.443484 95.777991 651.807746 100.142254 
C 656.172009 104.506516 662.09205 106.958678 668.26405 106.958678 
z
" style="fill:#b40426;stroke:#b40426;stroke-linejoin:miter;"/>
   </g>
   <g id="patch_54">
    <path clip-path="url(#p60ee1feafb)" d="M 583.63595 193.702479 
C 590.369041 193.702479 596.827267 191.027394 601.588281 186.26638 
C 606.349295 181.505367 609.02438 175.04714 609.02438 168.31405 
C 609.02438 161.580959 606.349295 155.122733 601.588281 150.361719 
C 596.827267 145.600705 590.369041 142.92562 583.63595 142.92562 
C 576.90286 142.92562 570.444633 145.600705 565.68362 150.361719 
C 560.922606 155.122733 558.247521 161.580959 558.247521 168.31405 
C 558.247521 175.04714 560.922606 181.505367 565.68362 186.26638 
C 570.444633 191.027394 576.90286 193.702479 583.63595 193.702479 
z
" style="fill:#333333;stroke:#333333;stroke-linejoin:miter;"/>
   </g>
   <g id="patch_55">
    <path clip-path="url(#p60ee1feafb)" d="M 583.63595 191.586777 
C 589.80795 191.586777 595.727991 189.134616 600.092254 184.770353 
C 604.456516 180.40609 606.908678 174.486049 606.908678 168.31405 
C 606.908678 162.14205 604.456516 156.222009 600.092254 151.857746 
C 595.727991 147.493484 589.80795 145.041322 583.63595 145.041322 
C 577.463951 145.041322 571.54391 147.493484 567.179647 151.857746 
C 562.815384 156.222009 560.363223 162.14205 560.363223 168.31405 
C 560.363223 174.486049 562.815384 180.40609 567.179647 184.770353 
C 571.54391 189.134616 577.463951 191.586777 583.63595 191.586777 
z
" style="fill:#b40426;stroke:#b40426;stroke-linejoin:miter;"/>
   </g>
   <g id="patch_56">
    <path clip-path="url(#p60ee1feafb)" d="M 583.63595 109.07438 
C 590.369041 109.07438 596.827267 106.399295 601.588281 101.638281 
C 606.349295 96.877267 609.02438 90.419041 609.02438 83.68595 
C 609.02438 76.95286 606.349295 70.494633 601.588281 65.73362 
C 596.827267 60.972606 590.369041 58.297521 583.63595 58.297521 
C 576.90286 58.297521 570.444633 60.972606 565.68362 65.73362 
C 560.922606 70.494633 558.247521 76.95286 558.247521 83.68595 
C 558.247521 90.419041 560.922606 96.877267 565.68362 101.638281 
C 570.444633 106.399295 576.90286 109.07438 583.63595 109.07438 
z
" style="fill:#333333;stroke:#333333;stroke-linejoin:miter;"/>
   </g>
   <g id="patch_57">
    <path clip-path="url(#p60ee1feafb)" d="M 583.63595 106.958678 
C 589.80795 106.958678 595.727991 104.506516 600.092254 100.142254 
C 604.456516 95.777991 606.908678 89.85795 606.908678 83.68595 
C 606.908678 77.513951 604.456516 71.59391 600.092254 67.229647 
C 595.727991 62.865384 589.80795 60.413223 583.63595 60.413223 
C 577.463951 60.413223 571.54391 62.865384 567.179647 67.229647 
C 562.815384 71.59391 560.363223 77.513951 560.363223 83.68595 
C 560.363223 89.85795 562.815384 95.777991 567.179647 100.142254 
C 571.54391 104.506516 577.463951 106.958678 583.63595 106.958678 
z
" style="fill:#f18d6f;stroke:#f18d6f;stroke-linejoin:miter;"/>
   </g>
   <g id="patch_58">
    <path clip-path="url(#p60ee1feafb)" d="M 625.95 230.727273 
C 631.280363 230.727273 636.393126 228.609497 640.162262 224.840361 
C 643.931398 221.071225 646.049174 215.958462 646.049174 210.628099 
C 646.049174 205.297736 643.931398 200.184973 640.162262 196.415837 
C 636.393126 192.646701 631.280363 190.528926 625.95 190.528926 
C 620.619637 190.528926 615.506874 192.646701 611.737738 196.415837 
C 607.968602 200.184973 605.850826 205.297736 605.850826 210.628099 
C 605.850826 215.958462 607.968602 221.071225 611.737738 224.840361 
C 615.506874 228.609497 620.619637 230.727273 625.95 230.727273 
z
" style="fill:#333333;stroke:#333333;stroke-linejoin:miter;"/>
   </g>
   <g id="patch_59">
    <path clip-path="url(#p60ee1feafb)" d="M 625.95 228.61157 
C 630.719272 228.61157 635.29385 226.716718 638.666234 223.344334 
C 642.038619 219.971949 643.933471 215.397371 643.933471 210.628099 
C 643.933471 205.858827 642.038619 201.28425 638.666234 197.911865 
C 635.29385 194.53948 630.719272 192.644628 625.95 192.644628 
C 621.180728 192.644628 616.60615 194.53948 613.233766 197.911865 
C 609.861381 201.28425 607.966529 205.858827 607.966529 210.628099 
C 607.966529 215.397371 609.861381 219.971949 613.233766 223.344334 
C 616.60615 226.716718 621.180728 228.61157 625.95 228.61157 
z
" style="fill:#d5dbe5;stroke:#d5dbe5;stroke-linejoin:miter;"/>
   </g>
   <g id="patch_60">
    <path clip-path="url(#p60ee1feafb)" d="M 625.95 61.471074 
C 631.280363 61.471074 636.393126 59.353299 640.162262 55.584163 
C 643.931398 51.815027 646.049174 46.702264 646.049174 41.371901 
C 646.049174 36.041538 643.931398 30.928775 640.162262 27.159639 
C 636.393126 23.390503 631.280363 21.272727 625.95 21.272727 
C 620.619637 21.272727 615.506874 23.390503 611.737738 27.159639 
C 607.968602 30.928775 605.850826 36.041538 605.850826 41.371901 
C 605.850826 46.702264 607.968602 51.815027 611.737738 55.584163 
C 615.506874 59.353299 620.619637 61.471074 625.95 61.471074 
z
" style="fill:#333333;stroke:#333333;stroke-linejoin:miter;"/>
   </g>
   <g id="patch_61">
    <path clip-path="url(#p60ee1feafb)" d="M 625.95 59.355372 
C 630.719272 59.355372 635.29385 57.46052 638.666234 54.088135 
C 642.038619 50.71575 643.933471 46.141173 643.933471 41.371901 
C 643.933471 36.602629 642.038619 32.028051 638.666234 28.655666 
C 635.29385 25.283282 630.719272 23.38843 625.95 23.38843 
C 621.180728 23.38843 616.60615 25.283282 613.233766 28.655666 
C 609.861381 32.028051 607.966529 36.602629 607.966529 41.371901 
C 607.966529 46.141173 609.861381 50.71575 613.233766 54.088135 
C 616.60615 57.46052 621.180728 59.355372 625.95 59.355372 
z
" style="fill:#3b4cc0;stroke:#3b4cc0;stroke-linejoin:miter;"/>
   </g>
   <g id="patch_62">
    <path clip-path="url(#p60ee1feafb)" d="M 625.95 167.256198 
C 630.158181 167.256198 634.194573 165.58427 637.170207 162.608637 
C 640.14584 159.633003 641.817769 155.596611 641.817769 151.38843 
C 641.817769 147.180248 640.14584 143.143857 637.170207 140.168223 
C 634.194573 137.192589 630.158181 135.520661 625.95 135.520661 
C 621.741819 135.520661 617.705427 137.192589 614.729793 140.168223 
C 611.75416 143.143857 610.082231 147.180248 610.082231 151.38843 
C 610.082231 155.596611 611.75416 159.633003 614.729793 162.608637 
C 617.705427 165.58427 621.741819 167.256198 625.95 167.256198 
z
" style="fill:#333333;stroke:#333333;stroke-linejoin:miter;"/>
   </g>
   <g id="patch_63">
    <path clip-path="url(#p60ee1feafb)" d="M 625.95 165.140496 
C 629.597091 165.140496 633.095297 163.691491 635.674179 161.112609 
C 638.253062 158.533726 639.702066 155.03552 639.702066 151.38843 
C 639.702066 147.741339 638.253062 144.243133 635.674179 141.664251 
C 633.095297 139.085368 629.597091 137.636364 625.95 137.636364 
C 622.302909 137.636364 618.804703 139.085368 616.225821 141.664251 
C 613.646938 144.243133 612.197934 147.741339 612.197934 151.38843 
C 612.197934 155.03552 613.646938 158.533726 616.225821 161.112609 
C 618.804703 163.691491 622.302909 165.140496 625.95 165.140496 
z
" style="fill:#be242e;stroke:#be242e;stroke-linejoin:miter;"/>
   </g>
   <g id="patch_64">
    <path clip-path="url(#p60ee1feafb)" d="M 625.95 116.479339 
C 630.158181 116.479339 634.194573 114.807411 637.170207 111.831777 
C 640.14584 108.856143 641.817769 104.819752 641.817769 100.61157 
C 641.817769 96.403389 640.14584 92.366997 637.170207 89.391363 
C 634.194573 86.41573 630.158181 84.743802 625.95 84.743802 
C 621.741819 84.743802 617.705427 86.41573 614.729793 89.391363 
C 611.75416 92.366997 610.082231 96.403389 610.082231 100.61157 
C 610.082231 104.819752 611.75416 108.856143 614.729793 111.831777 
C 617.705427 114.807411 621.741819 116.479339 625.95 116.479339 
z
" style="fill:#333333;stroke:#333333;stroke-linejoin:miter;"/>
   </g>
   <g id="patch_65">
    <path clip-path="url(#p60ee1feafb)" d="M 625.95 114.363636 
C 629.597091 114.363636 633.095297 112.914632 635.674179 110.335749 
C 638.253062 107.756867 639.702066 104.258661 639.702066 100.61157 
C 639.702066 96.96448 638.253062 93.466274 635.674179 90.887391 
C 633.095297 88.308509 629.597091 86.859504 625.95 86.859504 
C 622.302909 86.859504 618.804703 88.308509 616.225821 90.887391 
C 613.646938 93.466274 612.197934 96.96448 612.197934 100.61157 
C 612.197934 104.258661 613.646938 107.756867 616.225821 110.335749 
C 618.804703 112.914632 622.302909 114.363636 625.95 114.363636 
z
" style="fill:#3c4ec2;stroke:#3c4ec2;stroke-linejoin:miter;"/>
   </g>
   <g id="text_25">
    <!-- -2.90 -->
    <g style="fill:#ffffff;" transform="translate(651.673676 172.617363)scale(0.1728 -0.1728)">
     <use transform="scale(0.996264)" xlink:href="#CMR17-45"/>
     <use transform="translate(30.075966 0)scale(0.996264)" xlink:href="#CMR17-50"/>
     <use transform="translate(75.766443 0)scale(0.996264)" xlink:href="#CMR17-46"/>
     <use transform="translate(100.637502 0)scale(0.996264)" xlink:href="#CMR17-57"/>
     <use transform="translate(146.327979 0)scale(0.996264)" xlink:href="#CMR17-48"/>
    </g>
   </g>
   <g id="text_26">
    <!-- +2.99 -->
    <g style="fill:#ffffff;" transform="translate(648.076083 87.989263)scale(0.1728 -0.1728)">
     <use transform="scale(0.996264)" xlink:href="#CMR17-43"/>
     <use transform="translate(71.714788 0)scale(0.996264)" xlink:href="#CMR17-50"/>
     <use transform="translate(117.405266 0)scale(0.996264)" xlink:href="#CMR17-46"/>
     <use transform="translate(142.276324 0)scale(0.996264)" xlink:href="#CMR17-57"/>
     <use transform="translate(187.966801 0)scale(0.996264)" xlink:href="#CMR17-57"/>
    </g>
   </g>
   <g id="text_27">
    <!-- +3.00 -->
    <g style="fill:#ffffff;" transform="translate(563.447983 172.617363)scale(0.1728 -0.1728)">
     <use transform="scale(0.996264)" xlink:href="#CMR17-43"/>
     <use transform="translate(71.714788 0)scale(0.996264)" xlink:href="#CMR17-51"/>
     <use transform="translate(117.405266 0)scale(0.996264)" xlink:href="#CMR17-46"/>
     <use transform="translate(142.276324 0)scale(0.996264)" xlink:href="#CMR17-48"/>
     <use transform="translate(187.966801 0)scale(0.996264)" xlink:href="#CMR17-48"/>
    </g>
   </g>
   <g id="text_28">
    <!-- +1.61 -->
    <g style="fill:#ffffff;" transform="translate(563.447983 87.989263)scale(0.1728 -0.1728)">
     <use transform="scale(0.996264)" xlink:href="#CMR17-43"/>
     <use transform="translate(71.714788 0)scale(0.996264)" xlink:href="#CMR17-49"/>
     <use transform="translate(117.405266 0)scale(0.996264)" xlink:href="#CMR17-46"/>
     <use transform="translate(142.276324 0)scale(0.996264)" xlink:href="#CMR17-54"/>
     <use transform="translate(187.966801 0)scale(0.996264)" xlink:href="#CMR17-49"/>
    </g>
   </g>
   <g id="text_29">
    <!-- -0.36 -->
    <g style="fill:#262626;" transform="translate(611.122463 214.214648)scale(0.144 -0.144)">
     <use transform="scale(0.996264)" xlink:href="#CMR17-45"/>
     <use transform="translate(30.075966 0)scale(0.996264)" xlink:href="#CMR17-48"/>
     <use transform="translate(75.766443 0)scale(0.996264)" xlink:href="#CMR17-46"/>
     <use transform="translate(100.637502 0)scale(0.996264)" xlink:href="#CMR17-51"/>
     <use transform="translate(146.327979 0)scale(0.996264)" xlink:href="#CMR17-54"/>
    </g>
   </g>
   <g id="text_30">
    <!-- -3.35 -->
    <g style="fill:#ffffff;" transform="translate(611.122463 44.95845)scale(0.144 -0.144)">
     <use transform="scale(0.996264)" xlink:href="#CMR17-45"/>
     <use transform="translate(30.075966 0)scale(0.996264)" xlink:href="#CMR17-51"/>
     <use transform="translate(75.766443 0)scale(0.996264)" xlink:href="#CMR17-46"/>
     <use transform="translate(100.637502 0)scale(0.996264)" xlink:href="#CMR17-51"/>
     <use transform="translate(146.327979 0)scale(0.996264)" xlink:href="#CMR17-53"/>
    </g>
   </g>
   <g id="text_31">
    <!-- +2.81 -->
    <g style="fill:#ffffff;" transform="translate(610.992358 154.377222)scale(0.12 -0.12)">
     <use transform="scale(0.996264)" xlink:href="#CMR17-43"/>
     <use transform="translate(71.714788 0)scale(0.996264)" xlink:href="#CMR17-50"/>
     <use transform="translate(117.405266 0)scale(0.996264)" xlink:href="#CMR17-46"/>
     <use transform="translate(142.276324 0)scale(0.996264)" xlink:href="#CMR17-56"/>
     <use transform="translate(187.966801 0)scale(0.996264)" xlink:href="#CMR17-49"/>
    </g>
   </g>
   <g id="text_32">
    <!-- -3.30 -->
    <g style="fill:#ffffff;" transform="translate(613.593687 103.600362)scale(0.12 -0.12)">
     <use transform="scale(0.996264)" xlink:href="#CMR17-45"/>
     <use transform="translate(30.075966 0)scale(0.996264)" xlink:href="#CMR17-51"/>
     <use transform="translate(75.766443 0)scale(0.996264)" xlink:href="#CMR17-46"/>
     <use transform="translate(100.637502 0)scale(0.996264)" xlink:href="#CMR17-51"/>
     <use transform="translate(146.327979 0)scale(0.996264)" xlink:href="#CMR17-48"/>
    </g>
   </g>
  </g>
 </g>
 <defs>
  <clipPath id="p77609ef35b">
   <rect height="230.4" width="148.945455" x="19.577273" y="10.8"/>
  </clipPath>
  <clipPath id="p6c4eb56b74">
   <rect height="230.4" width="148.945455" x="196.877273" y="10.8"/>
  </clipPath>
  <clipPath id="pa5617558eb">
   <rect height="230.4" width="148.945455" x="374.177273" y="10.8"/>
  </clipPath>
  <clipPath id="p60ee1feafb">
   <rect height="230.4" width="148.945455" x="551.477273" y="10.8"/>
  </clipPath>
 </defs>
</svg>
