<?xml version="1.0" encoding="utf-8" standalone="no"?>
<!DOCTYPE svg PUBLIC "-//W3C//DTD SVG 1.1//EN"
  "http://www.w3.org/Graphics/SVG/1.1/DTD/svg11.dtd">
<!-- Created with matplotlib (https://matplotlib.org/) -->
<svg height="288pt" version="1.1" viewBox="0 0 360 288" width="360pt" xmlns="http://www.w3.org/2000/svg" xmlns:xlink="http://www.w3.org/1999/xlink">
 <metadata>
  <rdf:RDF xmlns:cc="http://creativecommons.org/ns#" xmlns:dc="http://purl.org/dc/elements/1.1/" xmlns:rdf="http://www.w3.org/1999/02/22-rdf-syntax-ns#">
   <cc:Work>
    <dc:type rdf:resource="http://purl.org/dc/dcmitype/StillImage"/>
    <dc:date>2022-04-15T20:30:06.751186</dc:date>
    <dc:format>image/svg+xml</dc:format>
    <dc:creator>
     <cc:Agent>
      <dc:title>Matplotlib v3.3.4, https://matplotlib.org/</dc:title>
     </cc:Agent>
    </dc:creator>
   </cc:Work>
  </rdf:RDF>
 </metadata>
 <defs>
  <style type="text/css">*{stroke-linecap:butt;stroke-linejoin:round;}</style>
 </defs>
 <g id="figure_1">
  <g id="patch_1">
   <path d="M 0 288 
L 360 288 
L 360 0 
L 0 0 
z
" style="fill:#ffffff;"/>
  </g>
  <g id="axes_1">
   <g id="line2d_1">
    <path clip-path="url(#p6328d6c910)" d="M 92.7 55.062821 
L 46.165909 101.596911 
" style="fill:none;stroke:#333333;stroke-linecap:round;stroke-width:2;"/>
   </g>
   <g id="line2d_2">
    <path clip-path="url(#p6328d6c910)" d="M 92.7 55.062821 
L 92.7 120.210548 
" style="fill:none;stroke:#333333;stroke-linecap:round;stroke-width:2;"/>
   </g>
   <g id="line2d_3">
    <path clip-path="url(#p6328d6c910)" d="M 92.7 55.062821 
L 139.234091 101.596911 
" style="fill:none;stroke:#333333;stroke-linecap:round;stroke-width:2;"/>
   </g>
   <g id="line2d_4">
    <path clip-path="url(#p6328d6c910)" d="M 92.7 241.199184 
L 46.165909 194.665093 
" style="fill:none;stroke:#333333;stroke-linecap:round;stroke-width:2;"/>
   </g>
   <g id="line2d_5">
    <path clip-path="url(#p6328d6c910)" d="M 92.7 241.199184 
L 92.7 176.051457 
" style="fill:none;stroke:#333333;stroke-linecap:round;stroke-width:2;"/>
   </g>
   <g id="line2d_6">
    <path clip-path="url(#p6328d6c910)" d="M 92.7 241.199184 
L 139.234091 194.665093 
" style="fill:none;stroke:#333333;stroke-linecap:round;stroke-width:2;"/>
   </g>
   <g id="line2d_7">
    <path clip-path="url(#p6328d6c910)" d="M 46.165909 101.596911 
L 139.234091 101.596911 
" style="fill:none;stroke:#333333;stroke-linecap:round;stroke-width:2;"/>
   </g>
   <g id="line2d_8">
    <path clip-path="url(#p6328d6c910)" d="M 46.165909 101.596911 
L 46.165909 194.665093 
" style="fill:none;stroke:#333333;stroke-linecap:round;stroke-width:2;"/>
   </g>
   <g id="line2d_9">
    <path clip-path="url(#p6328d6c910)" d="M 139.234091 194.665093 
L 139.234091 101.596911 
" style="fill:none;stroke:#333333;stroke-linecap:round;stroke-width:2;"/>
   </g>
   <g id="line2d_10">
    <path clip-path="url(#p6328d6c910)" d="M 139.234091 194.665093 
L 46.165909 194.665093 
" style="fill:none;stroke:#333333;stroke-linecap:round;stroke-width:2;"/>
   </g>
   <g id="line2d_11">
    <path clip-path="url(#p6328d6c910)" d="M 92.7 120.210548 
L 46.165909 101.596911 
" style="fill:none;stroke:#333333;stroke-linecap:round;stroke-width:2;"/>
   </g>
   <g id="line2d_12">
    <path clip-path="url(#p6328d6c910)" d="M 92.7 120.210548 
L 139.234091 101.596911 
" style="fill:none;stroke:#333333;stroke-linecap:round;stroke-width:2;"/>
   </g>
   <g id="line2d_13">
    <path clip-path="url(#p6328d6c910)" d="M 92.7 120.210548 
L 92.7 176.051457 
" style="fill:none;stroke:#333333;stroke-linecap:round;stroke-width:2;"/>
   </g>
   <g id="line2d_14">
    <path clip-path="url(#p6328d6c910)" d="M 92.7 176.051457 
L 46.165909 194.665093 
" style="fill:none;stroke:#333333;stroke-linecap:round;stroke-width:2;"/>
   </g>
   <g id="line2d_15">
    <path clip-path="url(#p6328d6c910)" d="M 92.7 176.051457 
L 139.234091 194.665093 
" style="fill:none;stroke:#333333;stroke-linecap:round;stroke-width:2;"/>
   </g>
   <g id="patch_2">
    <path clip-path="url(#p6328d6c910)" d="M 139.234091 222.585548 
C 146.638682 222.585548 153.740997 219.643673 158.976834 214.407836 
C 164.21267 209.171999 167.154545 202.069684 167.154545 194.665093 
C 167.154545 187.260502 164.21267 180.158187 158.976834 174.922351 
C 153.740997 169.686514 146.638682 166.744639 139.234091 166.744639 
C 131.8295 166.744639 124.727185 169.686514 119.491348 174.922351 
C 114.255512 180.158187 111.313636 187.260502 111.313636 194.665093 
C 111.313636 202.069684 114.255512 209.171999 119.491348 214.407836 
C 124.727185 219.643673 131.8295 222.585548 139.234091 222.585548 
z
" style="fill:#333333;stroke:#333333;stroke-linejoin:miter;"/>
   </g>
   <g id="patch_3">
    <path clip-path="url(#p6328d6c910)" d="M 139.234091 220.258843 
C 146.021633 220.258843 152.532088 217.562124 157.331605 212.762607 
C 162.131122 207.963091 164.827841 201.452635 164.827841 194.665093 
C 164.827841 187.877551 162.131122 181.367096 157.331605 176.567579 
C 152.532088 171.768062 146.021633 169.071343 139.234091 169.071343 
C 132.446549 169.071343 125.936094 171.768062 121.136577 176.567579 
C 116.33706 181.367096 113.640341 187.877551 113.640341 194.665093 
C 113.640341 201.452635 116.33706 207.963091 121.136577 212.762607 
C 125.936094 217.562124 132.446549 220.258843 139.234091 220.258843 
z
" style="fill:#2a768e;stroke:#2a768e;stroke-linejoin:miter;"/>
   </g>
   <g id="patch_4">
    <path clip-path="url(#p6328d6c910)" d="M 139.234091 129.517366 
C 146.638682 129.517366 153.740997 126.575491 158.976834 121.339654 
C 164.21267 116.103818 167.154545 109.001503 167.154545 101.596911 
C 167.154545 94.19232 164.21267 87.090005 158.976834 81.854169 
C 153.740997 76.618332 146.638682 73.676457 139.234091 73.676457 
C 131.8295 73.676457 124.727185 76.618332 119.491348 81.854169 
C 114.255512 87.090005 111.313636 94.19232 111.313636 101.596911 
C 111.313636 109.001503 114.255512 116.103818 119.491348 121.339654 
C 124.727185 126.575491 131.8295 129.517366 139.234091 129.517366 
z
" style="fill:#333333;stroke:#333333;stroke-linejoin:miter;"/>
   </g>
   <g id="patch_5">
    <path clip-path="url(#p6328d6c910)" d="M 139.234091 127.190661 
C 146.021633 127.190661 152.532088 124.493943 157.331605 119.694426 
C 162.131122 114.894909 164.827841 108.384453 164.827841 101.596911 
C 164.827841 94.80937 162.131122 88.298914 157.331605 83.499397 
C 152.532088 78.69988 146.021633 76.003161 139.234091 76.003161 
C 132.446549 76.003161 125.936094 78.69988 121.136577 83.499397 
C 116.33706 88.298914 113.640341 94.80937 113.640341 101.596911 
C 113.640341 108.384453 116.33706 114.894909 121.136577 119.694426 
C 125.936094 124.493943 132.446549 127.190661 139.234091 127.190661 
z
" style="fill:#440154;stroke:#440154;stroke-linejoin:miter;"/>
   </g>
   <g id="patch_6">
    <path clip-path="url(#p6328d6c910)" d="M 46.165909 222.585548 
C 53.5705 222.585548 60.672815 219.643673 65.908652 214.407836 
C 71.144488 209.171999 74.086364 202.069684 74.086364 194.665093 
C 74.086364 187.260502 71.144488 180.158187 65.908652 174.922351 
C 60.672815 169.686514 53.5705 166.744639 46.165909 166.744639 
C 38.761318 166.744639 31.659003 169.686514 26.423166 174.922351 
C 21.18733 180.158187 18.245455 187.260502 18.245455 194.665093 
C 18.245455 202.069684 21.18733 209.171999 26.423166 214.407836 
C 31.659003 219.643673 38.761318 222.585548 46.165909 222.585548 
z
" style="fill:#333333;stroke:#333333;stroke-linejoin:miter;"/>
   </g>
   <g id="patch_7">
    <path clip-path="url(#p6328d6c910)" d="M 46.165909 220.258843 
C 52.953451 220.258843 59.463906 217.562124 64.263423 212.762607 
C 69.06294 207.963091 71.759659 201.452635 71.759659 194.665093 
C 71.759659 187.877551 69.06294 181.367096 64.263423 176.567579 
C 59.463906 171.768062 52.953451 169.071343 46.165909 169.071343 
C 39.378367 169.071343 32.867912 171.768062 28.068395 176.567579 
C 23.268878 181.367096 20.572159 187.877551 20.572159 194.665093 
C 20.572159 201.452635 23.268878 207.963091 28.068395 212.762607 
C 32.867912 217.562124 39.378367 220.258843 46.165909 220.258843 
z
" style="fill:#c8e020;stroke:#c8e020;stroke-linejoin:miter;"/>
   </g>
   <g id="patch_8">
    <path clip-path="url(#p6328d6c910)" d="M 46.165909 129.517366 
C 53.5705 129.517366 60.672815 126.575491 65.908652 121.339654 
C 71.144488 116.103818 74.086364 109.001503 74.086364 101.596911 
C 74.086364 94.19232 71.144488 87.090005 65.908652 81.854169 
C 60.672815 76.618332 53.5705 73.676457 46.165909 73.676457 
C 38.761318 73.676457 31.659003 76.618332 26.423166 81.854169 
C 21.18733 87.090005 18.245455 94.19232 18.245455 101.596911 
C 18.245455 109.001503 21.18733 116.103818 26.423166 121.339654 
C 31.659003 126.575491 38.761318 129.517366 46.165909 129.517366 
z
" style="fill:#333333;stroke:#333333;stroke-linejoin:miter;"/>
   </g>
   <g id="patch_9">
    <path clip-path="url(#p6328d6c910)" d="M 46.165909 127.190661 
C 52.953451 127.190661 59.463906 124.493943 64.263423 119.694426 
C 69.06294 114.894909 71.759659 108.384453 71.759659 101.596911 
C 71.759659 94.80937 69.06294 88.298914 64.263423 83.499397 
C 59.463906 78.69988 52.953451 76.003161 46.165909 76.003161 
C 39.378367 76.003161 32.867912 78.69988 28.068395 83.499397 
C 23.268878 88.298914 20.572159 94.80937 20.572159 101.596911 
C 20.572159 108.384453 23.268878 114.894909 28.068395 119.694426 
C 32.867912 124.493943 39.378367 127.190661 46.165909 127.190661 
z
" style="fill:#228b8d;stroke:#228b8d;stroke-linejoin:miter;"/>
   </g>
   <g id="patch_10">
    <path clip-path="url(#p6328d6c910)" d="M 92.7 263.302877 
C 98.561968 263.302877 104.184634 260.973893 108.329671 256.828856 
C 112.474709 252.683818 114.803693 247.061152 114.803693 241.199184 
C 114.803693 235.337216 112.474709 229.71455 108.329671 225.569513 
C 104.184634 221.424476 98.561968 219.095491 92.7 219.095491 
C 86.838032 219.095491 81.215366 221.424476 77.070329 225.569513 
C 72.925291 229.71455 70.596307 235.337216 70.596307 241.199184 
C 70.596307 247.061152 72.925291 252.683818 77.070329 256.828856 
C 81.215366 260.973893 86.838032 263.302877 92.7 263.302877 
z
" style="fill:#333333;stroke:#333333;stroke-linejoin:miter;"/>
   </g>
   <g id="patch_11">
    <path clip-path="url(#p6328d6c910)" d="M 92.7 260.976173 
C 97.944919 260.976173 102.975725 258.892345 106.684443 255.183627 
C 110.39316 251.474909 112.476989 246.444103 112.476989 241.199184 
C 112.476989 235.954265 110.39316 230.923459 106.684443 227.214741 
C 102.975725 223.506024 97.944919 221.422196 92.7 221.422196 
C 87.455081 221.422196 82.424275 223.506024 78.715557 227.214741 
C 75.00684 230.923459 72.923011 235.954265 72.923011 241.199184 
C 72.923011 246.444103 75.00684 251.474909 78.715557 255.183627 
C 82.424275 258.892345 87.455081 260.976173 92.7 260.976173 
z
" style="fill:#fde725;stroke:#fde725;stroke-linejoin:miter;"/>
   </g>
   <g id="patch_12">
    <path clip-path="url(#p6328d6c910)" d="M 92.7 77.166514 
C 98.561968 77.166514 104.184634 74.837529 108.329671 70.692492 
C 112.474709 66.547455 114.803693 60.924789 114.803693 55.062821 
C 114.803693 49.200853 112.474709 43.578187 108.329671 39.433149 
C 104.184634 35.288112 98.561968 32.959127 92.7 32.959127 
C 86.838032 32.959127 81.215366 35.288112 77.070329 39.433149 
C 72.925291 43.578187 70.596307 49.200853 70.596307 55.062821 
C 70.596307 60.924789 72.925291 66.547455 77.070329 70.692492 
C 81.215366 74.837529 86.838032 77.166514 92.7 77.166514 
z
" style="fill:#333333;stroke:#333333;stroke-linejoin:miter;"/>
   </g>
   <g id="patch_13">
    <path clip-path="url(#p6328d6c910)" d="M 92.7 74.839809 
C 97.944919 74.839809 102.975725 72.755981 106.684443 69.047263 
C 110.39316 65.338546 112.476989 60.307739 112.476989 55.062821 
C 112.476989 49.817902 110.39316 44.787095 106.684443 41.078378 
C 102.975725 37.36966 97.944919 35.285832 92.7 35.285832 
C 87.455081 35.285832 82.424275 37.36966 78.715557 41.078378 
C 75.00684 44.787095 72.923011 49.817902 72.923011 55.062821 
C 72.923011 60.307739 75.00684 65.338546 78.715557 69.047263 
C 82.424275 72.755981 87.455081 74.839809 92.7 74.839809 
z
" style="fill:#423f85;stroke:#423f85;stroke-linejoin:miter;"/>
   </g>
   <g id="patch_14">
    <path clip-path="url(#p6328d6c910)" d="M 92.7 193.501741 
C 97.327869 193.501741 101.766816 191.663069 105.039214 188.390671 
C 108.311612 185.118273 110.150284 180.679326 110.150284 176.051457 
C 110.150284 171.423587 108.311612 166.984641 105.039214 163.712243 
C 101.766816 160.439845 97.327869 158.601173 92.7 158.601173 
C 88.072131 158.601173 83.633184 160.439845 80.360786 163.712243 
C 77.088388 166.984641 75.249716 171.423587 75.249716 176.051457 
C 75.249716 180.679326 77.088388 185.118273 80.360786 188.390671 
C 83.633184 191.663069 88.072131 193.501741 92.7 193.501741 
z
" style="fill:#333333;stroke:#333333;stroke-linejoin:miter;"/>
   </g>
   <g id="patch_15">
    <path clip-path="url(#p6328d6c910)" d="M 92.7 191.175036 
C 96.71082 191.175036 100.557908 189.581521 103.393986 186.745443 
C 106.230064 183.909364 107.82358 180.062277 107.82358 176.051457 
C 107.82358 172.040637 106.230064 168.193549 103.393986 165.357471 
C 100.557908 162.521393 96.71082 160.927877 92.7 160.927877 
C 88.68918 160.927877 84.842092 162.521393 82.006014 165.357471 
C 79.169936 168.193549 77.57642 172.040637 77.57642 176.051457 
C 77.57642 180.062277 79.169936 183.909364 82.006014 186.745443 
C 84.842092 189.581521 88.68918 191.175036 92.7 191.175036 
z
" style="fill:#fde725;stroke:#fde725;stroke-linejoin:miter;"/>
   </g>
   <g id="patch_16">
    <path clip-path="url(#p6328d6c910)" d="M 92.7 137.660832 
C 97.327869 137.660832 101.766816 135.82216 105.039214 132.549762 
C 108.311612 129.277364 110.150284 124.838417 110.150284 120.210548 
C 110.150284 115.582678 108.311612 111.143731 105.039214 107.871334 
C 101.766816 104.598936 97.327869 102.760264 92.7 102.760264 
C 88.072131 102.760264 83.633184 104.598936 80.360786 107.871334 
C 77.088388 111.143731 75.249716 115.582678 75.249716 120.210548 
C 75.249716 124.838417 77.088388 129.277364 80.360786 132.549762 
C 83.633184 135.82216 88.072131 137.660832 92.7 137.660832 
z
" style="fill:#333333;stroke:#333333;stroke-linejoin:miter;"/>
   </g>
   <g id="patch_17">
    <path clip-path="url(#p6328d6c910)" d="M 92.7 135.334127 
C 96.71082 135.334127 100.557908 133.740612 103.393986 130.904533 
C 106.230064 128.068455 107.82358 124.221368 107.82358 120.210548 
C 107.82358 116.199728 106.230064 112.35264 103.393986 109.516562 
C 100.557908 106.680484 96.71082 105.086968 92.7 105.086968 
C 88.68918 105.086968 84.842092 106.680484 82.006014 109.516562 
C 79.169936 112.35264 77.57642 116.199728 77.57642 120.210548 
C 77.57642 124.221368 79.169936 128.068455 82.006014 130.904533 
C 84.842092 133.740612 88.68918 135.334127 92.7 135.334127 
z
" style="fill:#20a486;stroke:#20a486;stroke-linejoin:miter;"/>
   </g>
   <g id="text_1">
    <!-- 0.077 -->
    <g style="fill:#ffffff;" transform="translate(121.294627 198.968406)scale(0.1728 -0.1728)">
     <defs>
      <path d="M 42 31.84375 
C 42 37.96875 41.90625 48.421875 37.703125 56.453125 
C 34 63.484375 28.09375 66 22.90625 66 
C 18.09375 66 12 63.78125 8.203125 56.5625 
C 4.203125 49.015625 3.796875 39.671875 3.796875 31.84375 
C 3.796875 26.109375 3.90625 17.375 7 9.734375 
C 11.296875 -0.609375 19 -2 22.90625 -2 
C 27.5 -2 34.5 -0.109375 38.59375 9.4375 
C 41.59375 16.375 42 24.5 42 31.84375 
z
M 22.90625 -0.40625 
C 16.5 -0.40625 12.703125 5.125 11.296875 12.75 
C 10.203125 18.6875 10.203125 27.328125 10.203125 32.953125 
C 10.203125 40.6875 10.203125 47.109375 11.5 53.234375 
C 13.40625 61.78125 19 64.390625 22.90625 64.390625 
C 27 64.390625 32.296875 61.671875 34.203125 53.4375 
C 35.5 47.71875 35.59375 40.984375 35.59375 32.953125 
C 35.59375 26.421875 35.59375 18.375 34.40625 12.453125 
C 32.296875 1.5 26.40625 -0.40625 22.90625 -0.40625 
z
" id="CMR17-48"/>
      <path d="M 16.59375 4.09375 
C 16.59375 6.59375 14.59375 8.1875 12.5 8.1875 
C 10.5 8.1875 8.40625 6.59375 8.40625 4.09375 
C 8.40625 1.59375 10.40625 0 12.5 0 
C 14.5 0 16.59375 1.59375 16.59375 4.09375 
z
" id="CMR17-46"/>
      <path d="M 45.09375 61.796875 
L 45.09375 64 
L 21.59375 64 
C 9.90625 64 9.703125 65.09375 9.296875 67 
L 7.5 67 
L 4.59375 48.5 
L 6.40625 48.5 
C 6.703125 50.40625 7.40625 55.5 8.59375 57.390625 
C 9.203125 58.1875 16.59375 58.1875 18.296875 58.1875 
L 40.296875 58.1875 
L 29.203125 41.71875 
C 21.796875 30.640625 16.703125 15.671875 16.703125 2.59375 
C 16.703125 1.390625 16.703125 -2 20.296875 -2 
C 23.90625 -2 23.90625 1.390625 23.90625 2.6875 
L 23.90625 7.28125 
C 23.90625 23.65625 26.703125 34.4375 31.296875 41.3125 
z
" id="CMR17-55"/>
     </defs>
     <use transform="scale(0.996264)" xlink:href="#CMR17-48"/>
     <use transform="translate(45.690477 0)scale(0.996264)" xlink:href="#CMR17-46"/>
     <use transform="translate(70.561536 0)scale(0.996264)" xlink:href="#CMR17-48"/>
     <use transform="translate(116.252013 0)scale(0.996264)" xlink:href="#CMR17-55"/>
     <use transform="translate(161.94249 0)scale(0.996264)" xlink:href="#CMR17-55"/>
    </g>
   </g>
   <g id="text_2">
    <!-- 0.051 -->
    <g style="fill:#ffffff;" transform="translate(121.294627 105.900224)scale(0.1728 -0.1728)">
     <defs>
      <path d="M 11.40625 58.59375 
C 12.40625 58.1875 16.5 56.890625 20.703125 56.890625 
C 30 56.890625 35.09375 61.890625 38 64.6875 
C 38 65.484375 38 66 37.40625 66 
C 37.296875 66 37.09375 66 36.296875 65.59375 
C 32.796875 64.09375 28.703125 63 23.703125 63 
C 20.703125 63 16.203125 63.359375 11.296875 65.484375 
C 10.203125 66 10 66 9.90625 66 
C 9.40625 66 9.296875 65.890625 9.296875 63.90625 
L 9.296875 34.859375 
C 9.296875 33.015625 9.296875 32.5 10.296875 32.5 
C 10.796875 32.5 11 32.703125 11.5 33.421875 
C 14.703125 38.046875 19.09375 40 24.09375 40 
C 27.59375 40 35.09375 37.734375 35.09375 20.203125 
C 35.09375 16.984375 35.09375 11.1875 32.09375 6.59375 
C 29.59375 2.484375 25.703125 0.390625 21.40625 0.390625 
C 14.796875 0.390625 8.09375 4.984375 6.296875 12.6875 
C 6.703125 12.59375 7.5 12.390625 7.90625 12.390625 
C 9.203125 12.390625 11.703125 13.09375 11.703125 16.1875 
C 11.703125 18.890625 9.796875 20 7.90625 20 
C 5.59375 20 4.09375 18.59375 4.09375 15.796875 
C 4.09375 7.09375 11 -2 21.59375 -2 
C 31.90625 -2 41.703125 6.890625 41.703125 19.796875 
C 41.703125 32.09375 33.90625 41.59375 24.203125 41.59375 
C 19.09375 41.59375 14.796875 39.6875 11.40625 36 
z
" id="CMR17-53"/>
      <path d="M 26.59375 63.796875 
C 26.59375 65.890625 26.5 66 25.09375 66 
C 21.203125 61.359375 15.296875 59.890625 9.703125 59.6875 
C 9.40625 59.6875 8.90625 59.6875 8.796875 59.5 
C 8.703125 59.296875 8.703125 59.09375 8.703125 57 
C 11.796875 57 17 57.59375 21 59.984375 
L 21 7.296875 
C 21 3.796875 20.796875 2.59375 12.203125 2.59375 
L 9.203125 2.59375 
L 9.203125 0 
C 14 0.09375 19 0.1875 23.796875 0.1875 
C 28.59375 0.1875 33.59375 0.09375 38.40625 0 
L 38.40625 2.59375 
L 35.40625 2.59375 
C 26.796875 2.59375 26.59375 3.6875 26.59375 7.296875 
z
" id="CMR17-49"/>
     </defs>
     <use transform="scale(0.996264)" xlink:href="#CMR17-48"/>
     <use transform="translate(45.690477 0)scale(0.996264)" xlink:href="#CMR17-46"/>
     <use transform="translate(70.561536 0)scale(0.996264)" xlink:href="#CMR17-48"/>
     <use transform="translate(116.252013 0)scale(0.996264)" xlink:href="#CMR17-53"/>
     <use transform="translate(161.94249 0)scale(0.996264)" xlink:href="#CMR17-49"/>
    </g>
   </g>
   <g id="text_3">
    <!-- 0.112 -->
    <g style="fill:#262626;" transform="translate(28.226445 198.968406)scale(0.1728 -0.1728)">
     <defs>
      <path d="M 41.703125 15.46875 
L 39.90625 15.46875 
C 38.90625 8.390625 38.09375 7.1875 37.703125 6.59375 
C 37.203125 5.796875 30 5.796875 28.59375 5.796875 
L 9.40625 5.796875 
C 13 9.6875 20 16.765625 28.5 24.9375 
C 34.59375 30.71875 41.703125 37.5 41.703125 47.390625 
C 41.703125 59.1875 32.296875 66 21.796875 66 
C 10.796875 66 4.09375 56.296875 4.09375 47.296875 
C 4.09375 43.390625 7 42.890625 8.203125 42.890625 
C 9.203125 42.890625 12.203125 43.484375 12.203125 46.984375 
C 12.203125 50.09375 9.59375 51 8.203125 51 
C 7.59375 51 7 50.890625 6.59375 50.6875 
C 8.5 59.1875 14.296875 63.390625 20.40625 63.390625 
C 29.09375 63.390625 34.796875 56.5 34.796875 47.390625 
C 34.796875 38.703125 29.703125 31.21875 24 24.734375 
L 4.09375 2.296875 
L 4.09375 0 
L 39.296875 0 
z
" id="CMR17-50"/>
     </defs>
     <use transform="scale(0.996264)" xlink:href="#CMR17-48"/>
     <use transform="translate(45.690477 0)scale(0.996264)" xlink:href="#CMR17-46"/>
     <use transform="translate(70.561536 0)scale(0.996264)" xlink:href="#CMR17-49"/>
     <use transform="translate(116.252013 0)scale(0.996264)" xlink:href="#CMR17-49"/>
     <use transform="translate(161.94249 0)scale(0.996264)" xlink:href="#CMR17-50"/>
    </g>
   </g>
   <g id="text_4">
    <!-- 0.083 -->
    <g style="fill:#ffffff;" transform="translate(28.226445 105.900224)scale(0.1728 -0.1728)">
     <defs>
      <path d="M 27.203125 35.765625 
C 33.5 38.96875 39.90625 43.796875 39.90625 51.53125 
C 39.90625 60.6875 31.09375 66 23 66 
C 13.90625 66 5.90625 59.375 5.90625 50.234375 
C 5.90625 47.71875 6.5 43.390625 10.40625 39.578125 
C 11.40625 38.578125 15.59375 35.5625 18.296875 33.65625 
C 13.796875 31.34375 3.296875 25.8125 3.296875 14.765625 
C 3.296875 4.40625 13.09375 -2 22.796875 -2 
C 33.5 -2 42.5 5.71875 42.5 15.96875 
C 42.5 25.109375 36.40625 29.328125 32.40625 32.046875 
z
M 14.09375 44.609375 
C 13.296875 45.109375 9.296875 48.21875 9.296875 52.9375 
C 9.296875 59.078125 15.59375 63.6875 22.796875 63.6875 
C 30.703125 63.6875 36.5 58.0625 36.5 51.53125 
C 36.5 42.1875 26.09375 36.859375 25.59375 36.859375 
C 25.5 36.859375 25.40625 36.859375 24.59375 37.46875 
z
M 32.5 24 
C 34 22.90625 38.796875 19.578125 38.796875 13.453125 
C 38.796875 6.015625 31.40625 0.390625 23 0.390625 
C 13.90625 0.390625 7 6.921875 7 14.859375 
C 7 22.796875 13.09375 29.4375 20 32.546875 
z
" id="CMR17-56"/>
      <path d="M 22.09375 34 
C 31 34 34.90625 26.140625 34.90625 17.09375 
C 34.90625 5.03125 28.5 0.390625 22.703125 0.390625 
C 17.40625 0.390625 8.796875 3.015625 6.09375 10.796875 
C 6.59375 10.59375 7.09375 10.59375 7.59375 10.59375 
C 10 10.59375 11.796875 12.1875 11.796875 14.796875 
C 11.796875 17.6875 9.59375 19 7.59375 19 
C 5.90625 19 3.296875 18.1875 3.296875 14.484375 
C 3.296875 5.234375 12.296875 -2 22.90625 -2 
C 34 -2 42.5 6.75 42.5 16.984375 
C 42.5 26.84375 34.5 34 25 35.09375 
C 32.59375 36.671875 39.90625 43.375 39.90625 52.390625 
C 39.90625 60.25 32 66 23 66 
C 13.90625 66 5.90625 60.34375 5.90625 52.296875 
C 5.90625 48.796875 8.5 48.1875 9.796875 48.1875 
C 11.90625 48.1875 13.703125 49.484375 13.703125 52.09375 
C 13.703125 54.6875 11.90625 56 9.796875 56 
C 9.40625 56 8.90625 56 8.5 55.796875 
C 11.40625 62.484375 19.296875 63.6875 22.796875 63.6875 
C 26.296875 63.6875 32.90625 61.96875 32.90625 52.296875 
C 32.90625 49.484375 32.5 44.546875 29.09375 40.21875 
C 26.09375 36.390625 22.703125 36.1875 19.40625 35.890625 
C 18.90625 35.890625 16.59375 35.6875 16.203125 35.6875 
C 15.5 35.59375 15.09375 35.5 15.09375 34.796875 
C 15.09375 34.09375 15.203125 34 17.203125 34 
z
" id="CMR17-51"/>
     </defs>
     <use transform="scale(0.996264)" xlink:href="#CMR17-48"/>
     <use transform="translate(45.690477 0)scale(0.996264)" xlink:href="#CMR17-46"/>
     <use transform="translate(70.561536 0)scale(0.996264)" xlink:href="#CMR17-48"/>
     <use transform="translate(116.252013 0)scale(0.996264)" xlink:href="#CMR17-56"/>
     <use transform="translate(161.94249 0)scale(0.996264)" xlink:href="#CMR17-51"/>
    </g>
   </g>
   <g id="text_5">
    <!-- 0.141 -->
    <g style="fill:#262626;" transform="translate(76.701865 244.785733)scale(0.144 -0.144)">
     <defs>
      <path d="M 33.59375 64.796875 
C 33.59375 66.890625 33.5 67 31.703125 67 
L 2 19.59375 
L 2 17 
L 27.796875 17 
L 27.796875 7.1875 
C 27.796875 3.59375 27.59375 2.59375 20.59375 2.59375 
L 18.703125 2.59375 
L 18.703125 0 
C 21.90625 0.1875 27.296875 0.1875 30.703125 0.1875 
C 34.09375 0.1875 39.5 0.1875 42.703125 0 
L 42.703125 2.59375 
L 40.796875 2.59375 
C 33.796875 2.59375 33.59375 3.59375 33.59375 7.1875 
L 33.59375 17 
L 43.796875 17 
L 43.796875 19.59375 
L 33.59375 19.59375 
z
M 28.09375 58.171875 
L 28.09375 19.59375 
L 4 19.59375 
z
" id="CMR17-52"/>
     </defs>
     <use transform="scale(0.996264)" xlink:href="#CMR17-48"/>
     <use transform="translate(45.690477 0)scale(0.996264)" xlink:href="#CMR17-46"/>
     <use transform="translate(70.561536 0)scale(0.996264)" xlink:href="#CMR17-49"/>
     <use transform="translate(116.252013 0)scale(0.996264)" xlink:href="#CMR17-52"/>
     <use transform="translate(161.94249 0)scale(0.996264)" xlink:href="#CMR17-49"/>
    </g>
   </g>
   <g id="text_6">
    <!-- 0.063 -->
    <g style="fill:#ffffff;" transform="translate(76.701865 58.649369)scale(0.144 -0.144)">
     <defs>
      <path d="M 10.59375 34.34375 
C 10.59375 58 21.796875 63.6875 28.296875 63.6875 
C 30.40625 63.6875 35.5 63.265625 37.5 59.09375 
C 35.90625 59.09375 32.90625 59.09375 32.90625 55.59375 
C 32.90625 52.890625 35.09375 52 36.5 52 
C 37.40625 52 40.09375 52.390625 40.09375 55.796875 
C 40.09375 62.296875 35.09375 66 28.203125 66 
C 16.296875 66 3.796875 53.296875 3.796875 31.421875 
C 3.796875 4.015625 15.09375 -2 23.09375 -2 
C 32.796875 -2 42 6.734375 42 20.234375 
C 42 32.828125 33.90625 42 23.703125 42 
C 17.59375 42 13.09375 37.96875 10.59375 30.921875 
z
M 23.09375 0.390625 
C 10.796875 0.390625 10.796875 18.9375 10.796875 22.65625 
C 10.796875 29.90625 14.203125 40.390625 23.5 40.390625 
C 25.203125 40.390625 30.09375 40.390625 33.40625 33.4375 
C 35.203125 29.515625 35.203125 25.375 35.203125 20.34375 
C 35.203125 14.90625 35.203125 10.875 33.09375 6.84375 
C 30.90625 2.703125 27.703125 0.390625 23.09375 0.390625 
z
" id="CMR17-54"/>
     </defs>
     <use transform="scale(0.996264)" xlink:href="#CMR17-48"/>
     <use transform="translate(45.690477 0)scale(0.996264)" xlink:href="#CMR17-46"/>
     <use transform="translate(70.561536 0)scale(0.996264)" xlink:href="#CMR17-48"/>
     <use transform="translate(116.252013 0)scale(0.996264)" xlink:href="#CMR17-54"/>
     <use transform="translate(161.94249 0)scale(0.996264)" xlink:href="#CMR17-51"/>
    </g>
   </g>
   <g id="text_7">
    <!-- 0.117 -->
    <g style="fill:#262626;" transform="translate(79.368189 179.040249)scale(0.12 -0.12)">
     <use transform="scale(0.996264)" xlink:href="#CMR17-48"/>
     <use transform="translate(45.690477 0)scale(0.996264)" xlink:href="#CMR17-46"/>
     <use transform="translate(70.561536 0)scale(0.996264)" xlink:href="#CMR17-49"/>
     <use transform="translate(116.252013 0)scale(0.996264)" xlink:href="#CMR17-49"/>
     <use transform="translate(161.94249 0)scale(0.996264)" xlink:href="#CMR17-55"/>
    </g>
   </g>
   <g id="text_8">
    <!-- 0.089 -->
    <g style="fill:#ffffff;" transform="translate(79.368189 123.19934)scale(0.12 -0.12)">
     <defs>
      <path d="M 35.203125 29.234375 
C 35.203125 7 26.09375 0.390625 18.59375 0.390625 
C 16.296875 0.390625 10.703125 0.671875 8.40625 4.390625 
C 11 4 12.90625 5.390625 12.90625 7.890625 
C 12.90625 10.59375 10.703125 11.5 9.296875 11.5 
C 8.40625 11.5 5.703125 11.09375 5.703125 7.6875 
C 5.703125 1.0625 11.59375 -2 18.796875 -2 
C 30.296875 -2 42 10.390625 42 32.65625 
C 42 60.265625 30.796875 66 23.203125 66 
C 13.296875 66 3.796875 57.25 3.796875 43.75 
C 3.796875 31.25 11.90625 22 22.09375 22 
C 30.5 22 34.203125 29.84375 35.203125 33.15625 
z
M 22.296875 23.59375 
C 19.59375 23.59375 15.796875 24.09375 12.703125 30.140625 
C 10.59375 34.078125 10.59375 38.703125 10.59375 43.640625 
C 10.59375 49.59375 10.59375 53.71875 13.40625 58.15625 
C 14.796875 60.265625 17.40625 63.6875 23.203125 63.6875 
C 35 63.6875 35 45.453125 35 41.421875 
C 35 34.265625 31.796875 23.59375 22.296875 23.59375 
z
" id="CMR17-57"/>
     </defs>
     <use transform="scale(0.996264)" xlink:href="#CMR17-48"/>
     <use transform="translate(45.690477 0)scale(0.996264)" xlink:href="#CMR17-46"/>
     <use transform="translate(70.561536 0)scale(0.996264)" xlink:href="#CMR17-48"/>
     <use transform="translate(116.252013 0)scale(0.996264)" xlink:href="#CMR17-56"/>
     <use transform="translate(161.94249 0)scale(0.996264)" xlink:href="#CMR17-57"/>
    </g>
   </g>
   <g id="text_9">
    <!-- a) $E_\text{pot,small}$ -->
    <g style="fill:#262626;" transform="translate(53.259424 15.44194)scale(0.1728 -0.1728)">
     <defs>
      <path d="M 36 25.875 
C 36 32 36 35.546875 31.796875 39.59375 
C 28.09375 42.984375 23.796875 44 20.40625 44 
C 12.5 44 6.796875 37.625 6.796875 30.890625 
C 6.796875 27.1875 9.796875 27 10.40625 27 
C 11.703125 27 14 27.796875 14 30.59375 
C 14 33.09375 12.09375 34.1875 10.40625 34.1875 
C 10 34.1875 9.5 34.09375 9.203125 34 
C 11.296875 40.53125 16.703125 42.390625 20.203125 42.390625 
C 25.203125 42.390625 30.703125 37.828125 30.703125 29.296875 
L 30.703125 25.5 
C 24.796875 25.296875 17.703125 24.5 12.09375 21.453125 
C 5.796875 17.921875 4 12.84375 4 9 
C 4 1.203125 13 -1 18.296875 -1 
C 23.796875 -1 28.90625 2.109375 31.09375 7.890625 
C 31.296875 3.421875 34.09375 -0.609375 38.5 -0.609375 
C 40.59375 -0.609375 45.90625 0.796875 45.90625 8.796875 
L 45.90625 14.46875 
L 44.09375 14.46875 
L 44.09375 8.703125 
C 44.09375 2.515625 41.40625 1.703125 40.09375 1.703125 
C 36 1.703125 36 6.96875 36 11.4375 
z
M 30.703125 13.859375 
C 30.703125 5.046875 24.5 0.59375 19 0.59375 
C 14 0.59375 10.09375 4.34375 10.09375 9 
C 10.09375 12.046875 11.40625 17.40625 17.203125 20.65625 
C 22 23.390625 27.5 23.796875 30.703125 24 
z
" id="CMR17-97"/>
      <path d="M 26.296875 24.9375 
C 26.296875 32.140625 25.59375 44.359375 19.59375 57.265625 
C 14.796875 67.6875 6.59375 75 5.40625 75 
C 5.09375 75 4.703125 74.890625 4.703125 74.390625 
C 4.703125 74.1875 4.796875 74.09375 4.90625 73.890625 
C 9.703125 68.875 21.90625 56.171875 21.90625 25.046875 
C 21.90625 -6.1875 9.796875 -18.90625 4.90625 -23.90625 
C 4.796875 -24.109375 4.703125 -24.203125 4.703125 -24.40625 
C 4.703125 -24.90625 5.09375 -25 5.40625 -25 
C 6.5 -25 15 -17.609375 19.90625 -6.59375 
C 24.90625 4.515625 26.296875 15.328125 26.296875 24.9375 
z
" id="CMR17-41"/>
      <path d="M 69.5 23.265625 
C 69.59375 23.5625 69.90625 24.265625 69.90625 24.65625 
C 69.90625 25.171875 69.5 25.671875 68.90625 25.671875 
C 68.5 25.671875 68.296875 25.5625 68 25.265625 
C 67.796875 25.171875 67.796875 24.96875 66.90625 22.953125 
C 61 8.90625 56.703125 2.890625 40.703125 2.890625 
L 26.09375 2.890625 
C 24.703125 2.890625 24.5 2.890625 23.90625 3 
C 22.796875 3.09375 22.703125 3.296875 22.703125 4.09375 
C 22.703125 4.796875 22.90625 5.40625 23.09375 6.296875 
L 30 34 
L 39.90625 34 
C 47.703125 34 48.296875 32.28125 48.296875 29.28125 
C 48.296875 28.28125 48.296875 27.375 47.59375 24.359375 
C 47.40625 23.96875 47.296875 23.5625 47.296875 23.265625 
C 47.296875 22.5625 47.796875 22.25 48.40625 22.25 
C 49.296875 22.25 49.40625 22.953125 49.796875 24.359375 
L 55.5 47.4375 
C 55.5 47.9375 55.09375 48.421875 54.5 48.421875 
C 53.59375 48.421875 53.5 48.03125 53.09375 46.65625 
C 51.09375 39.0625 49.09375 36.890625 40.203125 36.890625 
L 30.703125 36.890625 
L 36.90625 61.140625 
C 37.796875 64.59375 38 64.890625 42.09375 64.890625 
L 56.40625 64.890625 
C 68.703125 64.890625 71.203125 61.640625 71.203125 54.140625 
C 71.203125 54.046875 71.203125 51.28125 70.796875 48.03125 
C 70.703125 47.640625 70.59375 47.046875 70.59375 46.84375 
C 70.59375 46.0625 71.09375 45.765625 71.703125 45.765625 
C 72.40625 45.765625 72.796875 46.15625 73 47.9375 
L 75.09375 65.1875 
C 75.09375 65.484375 75.296875 66.484375 75.296875 66.6875 
C 75.296875 67.796875 74.40625 67.796875 72.59375 67.796875 
L 23.796875 67.796875 
C 21.90625 67.796875 20.90625 67.796875 20.90625 65.984375 
C 20.90625 64.890625 21.59375 64.890625 23.296875 64.890625 
C 29.5 64.890625 29.5 64.203125 29.5 63.109375 
C 29.5 62.625 29.40625 62.234375 29.09375 61.140625 
L 15.59375 7.40625 
C 14.703125 3.890625 14.5 2.890625 7.5 2.890625 
C 5.59375 2.890625 4.59375 2.890625 4.59375 1.09375 
C 4.59375 0 5.203125 0 7.203125 0 
L 57.40625 0 
C 59.59375 0 59.703125 0.09375 60.40625 1.6875 
z
" id="CMMI12-69"/>
      <path d="M 22 -17.40625 
C 15.59375 -17.40625 15.203125 -17 15.203125 -13.03125 
L 15.203125 5.9375 
C 18.09375 1.703125 22.296875 -1 27.59375 -1 
C 37.59375 -1 47.703125 7.859375 47.703125 21.59375 
C 47.703125 34.3125 39 44 28.703125 44 
C 22.703125 44 17.796875 40.671875 15 36.640625 
L 15 44 
L 3.09375 42.890625 
L 3.09375 40.265625 
C 9 40.265625 9.90625 39.671875 9.90625 34.8125 
L 9.90625 -13.03125 
C 9.90625 -16.890625 9.5 -17.40625 3.09375 -17.40625 
L 3.09375 -20 
C 5.5 -19.8125 9.90625 -19.8125 12.5 -19.8125 
C 15.09375 -19.8125 19.59375 -19.8125 22 -20 
z
M 15.203125 31.484375 
C 15.203125 32.90625 15.203125 35.015625 19.09375 38.765625 
C 19.59375 39.15625 23 42.1875 28 42.1875 
C 35.296875 42.1875 41.296875 33 41.296875 21.5 
C 41.296875 9.984375 34.90625 0.59375 27 0.59375 
C 23.40625 0.59375 19.5 2.3125 16.5 7.046875 
C 15.203125 9.28125 15.203125 9.875 15.203125 11.5 
z
" id="CMR17-112"/>
      <path d="M 43.09375 21.1875 
C 43.09375 34 33.796875 44 22.90625 44 
C 12 44 2.703125 34 2.703125 21.1875 
C 2.703125 8.59375 12 -1 22.90625 -1 
C 33.796875 -1 43.09375 8.59375 43.09375 21.1875 
z
M 22.90625 0.796875 
C 18.203125 0.796875 14.203125 3.59375 11.90625 7.5 
C 9.40625 12 9.09375 17.59375 9.09375 22 
C 9.09375 26.1875 9.296875 31.390625 11.90625 35.890625 
C 13.90625 39.1875 17.796875 42.390625 22.90625 42.390625 
C 27.40625 42.390625 31.203125 39.890625 33.59375 36.390625 
C 36.703125 31.6875 36.703125 25.09375 36.703125 22 
C 36.703125 18.09375 36.5 12.09375 33.796875 7.296875 
C 31 2.6875 26.703125 0.796875 22.90625 0.796875 
z
" id="CMR17-111"/>
      <path d="M 15.09375 40.390625 
L 29.09375 40.390625 
L 29.09375 43 
L 15.09375 43 
L 15.09375 62 
L 13.296875 62 
C 13.09375 51.4375 9.59375 42.1875 1.09375 41.984375 
L 1.09375 40.390625 
L 9.796875 40.390625 
L 9.796875 12.15625 
C 9.796875 10.234375 9.796875 -1 21.40625 -1 
C 27.296875 -1 30.703125 4.8125 30.703125 12.25 
L 30.703125 17.984375 
L 28.90625 17.984375 
L 28.90625 12.34375 
C 28.90625 5.421875 26.203125 0.796875 22 0.796875 
C 19.09375 0.796875 15.09375 2.796875 15.09375 11.953125 
z
" id="CMR17-116"/>
      <path d="M 15.796875 1.59375 
C 16 0.6875 16 0.390625 16 -1.1875 
C 16 -7.046875 14 -12.421875 9.796875 -17.3125 
C 9.296875 -17.8125 9.296875 -18 9.296875 -18.203125 
C 9.296875 -18.609375 9.703125 -19 10.09375 -19 
C 10.703125 -19 17.59375 -12.125 17.59375 -1.28125 
C 17.59375 2 17.203125 8.1875 12.5 8.1875 
C 10.296875 8.1875 8.40625 6.6875 8.40625 4.09375 
C 8.40625 1.5 10.296875 0 12.5 0 
C 13.703125 0 15 0.5 15.796875 1.59375 
z
" id="CMR17-44"/>
      <path d="M 30.90625 42 
C 30.90625 43.796875 30.796875 43.890625 30.203125 43.890625 
C 29.796875 43.890625 29.703125 43.796875 28.5 42.296875 
C 28.203125 41.890625 27.296875 40.890625 27 40.5 
C 23.796875 43.890625 19.296875 44 17.59375 44 
C 6.5 44 2.5 38.1875 2.5 32.390625 
C 2.5 23.390625 12.703125 21.296875 15.59375 20.6875 
C 21.90625 19.390625 24.09375 19 26.203125 17.1875 
C 27.5 16 29.703125 13.796875 29.703125 10.1875 
C 29.703125 6 27.296875 0.59375 18.09375 0.59375 
C 9.40625 0.59375 6.296875 7.1875 4.5 16 
C 4.203125 17.390625 4.203125 17.5 3.40625 17.5 
C 2.59375 17.5 2.5 17.390625 2.5 15.390625 
L 2.5 1 
C 2.5 -0.8125 2.59375 -0.90625 3.203125 -0.90625 
C 3.703125 -0.90625 3.796875 -0.8125 4.296875 0 
C 4.90625 0.890625 6.40625 3.296875 7 4.296875 
C 9 1.59375 12.5 -1 18.09375 -1 
C 28 -1 33.296875 4.390625 33.296875 12.1875 
C 33.296875 17.296875 30.59375 20 29.296875 21.1875 
C 26.296875 24.296875 22.796875 25 18.59375 25.796875 
C 13.09375 27 6.09375 28.390625 6.09375 34.5 
C 6.09375 37.09375 7.5 42.59375 17.59375 42.59375 
C 28.296875 42.59375 28.90625 32.59375 29.09375 29.390625 
C 29.203125 28.890625 29.703125 28.796875 30 28.796875 
C 30.90625 28.796875 30.90625 29.09375 30.90625 30.796875 
z
" id="CMR17-115"/>
      <path d="M 67.59375 30.53125 
C 67.59375 35.5625 66.703125 44 54.796875 44 
C 48 44 43.296875 39.375 41.5 33.953125 
L 41.40625 33.953125 
C 40.203125 42.1875 34.296875 44 28.703125 44 
C 20.796875 44 16.703125 37.875 15.203125 33.84375 
L 15.09375 33.84375 
L 15.09375 44 
L 3.296875 42.890625 
L 3.296875 40.28125 
C 9.203125 40.28125 10.09375 39.6875 10.09375 34.859375 
L 10.09375 6.921875 
C 10.09375 3.09375 9.703125 2.59375 3.296875 2.59375 
L 3.296875 0 
C 5.703125 0.1875 10.09375 0.1875 12.703125 0.1875 
C 15.296875 0.1875 19.796875 0.1875 22.203125 0 
L 22.203125 2.59375 
C 15.796875 2.59375 15.40625 3 15.40625 6.921875 
L 15.40625 26.21875 
C 15.40625 35.453125 21 42.390625 28 42.390625 
C 35.40625 42.390625 36.203125 35.765625 36.203125 30.9375 
L 36.203125 6.921875 
C 36.203125 3.09375 35.796875 2.59375 29.40625 2.59375 
L 29.40625 0 
C 31.796875 0.1875 36.203125 0.1875 38.796875 0.1875 
C 41.40625 0.1875 45.90625 0.1875 48.296875 0 
L 48.296875 2.59375 
C 41.90625 2.59375 41.5 3 41.5 6.921875 
L 41.5 26.21875 
C 41.5 35.453125 47.09375 42.390625 54.09375 42.390625 
C 61.5 42.390625 62.296875 35.765625 62.296875 30.9375 
L 62.296875 6.921875 
C 62.296875 3.09375 61.90625 2.59375 55.5 2.59375 
L 55.5 0 
C 57.90625 0.1875 62.296875 0.1875 64.90625 0.1875 
C 67.5 0.1875 72 0.1875 74.40625 0 
L 74.40625 2.59375 
C 68 2.59375 67.59375 3 67.59375 6.921875 
z
" id="CMR17-109"/>
      <path d="M 15.296875 69 
L 3.40625 67.890625 
L 3.40625 65.296875 
C 9.296875 65.296875 10.203125 64.703125 10.203125 59.921875 
L 10.203125 6.859375 
C 10.203125 3.09375 9.796875 2.59375 3.40625 2.59375 
L 3.40625 0 
C 5.796875 0.1875 10.203125 0.1875 12.703125 0.1875 
C 15.296875 0.1875 19.703125 0.1875 22.09375 0 
L 22.09375 2.59375 
C 15.703125 2.59375 15.296875 2.984375 15.296875 6.859375 
z
" id="CMR17-108"/>
     </defs>
     <use transform="scale(0.996264)" xlink:href="#CMR17-97"/>
     <use transform="translate(45.690477 0)scale(0.996264)" xlink:href="#CMR17-41"/>
     <use transform="translate(111.047211 0)scale(0.996264)" xlink:href="#CMMI12-69"/>
     <use transform="translate(183.258429 -14.943915)scale(0.697382)" xlink:href="#CMR17-112"/>
     <use transform="translate(220.706743 -14.943915)scale(0.697382)" xlink:href="#CMR17-111"/>
     <use transform="translate(252.689925 -14.943915)scale(0.697382)" xlink:href="#CMR17-116"/>
     <use transform="translate(277.386345 -14.943915)scale(0.697382)" xlink:href="#CMR17-44"/>
     <use transform="translate(294.796004 -14.943915)scale(0.697382)" xlink:href="#CMR17-115"/>
     <use transform="translate(319.856827 -14.943915)scale(0.697382)" xlink:href="#CMR17-109"/>
     <use transform="translate(373.700293 -14.943915)scale(0.697382)" xlink:href="#CMR17-97"/>
     <use transform="translate(405.683475 -14.943915)scale(0.697382)" xlink:href="#CMR17-108"/>
     <use transform="translate(423.093134 -14.943915)scale(0.697382)" xlink:href="#CMR17-108"/>
    </g>
   </g>
  </g>
  <g id="axes_2">
   <g id="line2d_16">
    <path clip-path="url(#pad763e4559)" d="M 267.3 55.062821 
L 220.765909 101.596911 
" style="fill:none;stroke:#333333;stroke-linecap:round;stroke-width:2;"/>
   </g>
   <g id="line2d_17">
    <path clip-path="url(#pad763e4559)" d="M 267.3 55.062821 
L 267.3 120.210548 
" style="fill:none;stroke:#333333;stroke-linecap:round;stroke-width:2;"/>
   </g>
   <g id="line2d_18">
    <path clip-path="url(#pad763e4559)" d="M 267.3 55.062821 
L 313.834091 101.596911 
" style="fill:none;stroke:#333333;stroke-linecap:round;stroke-width:2;"/>
   </g>
   <g id="line2d_19">
    <path clip-path="url(#pad763e4559)" d="M 267.3 241.199184 
L 220.765909 194.665093 
" style="fill:none;stroke:#333333;stroke-linecap:round;stroke-width:2;"/>
   </g>
   <g id="line2d_20">
    <path clip-path="url(#pad763e4559)" d="M 267.3 241.199184 
L 267.3 176.051457 
" style="fill:none;stroke:#333333;stroke-linecap:round;stroke-width:2;"/>
   </g>
   <g id="line2d_21">
    <path clip-path="url(#pad763e4559)" d="M 267.3 241.199184 
L 313.834091 194.665093 
" style="fill:none;stroke:#333333;stroke-linecap:round;stroke-width:2;"/>
   </g>
   <g id="line2d_22">
    <path clip-path="url(#pad763e4559)" d="M 220.765909 101.596911 
L 313.834091 101.596911 
" style="fill:none;stroke:#333333;stroke-linecap:round;stroke-width:2;"/>
   </g>
   <g id="line2d_23">
    <path clip-path="url(#pad763e4559)" d="M 220.765909 101.596911 
L 220.765909 194.665093 
" style="fill:none;stroke:#333333;stroke-linecap:round;stroke-width:2;"/>
   </g>
   <g id="line2d_24">
    <path clip-path="url(#pad763e4559)" d="M 313.834091 194.665093 
L 313.834091 101.596911 
" style="fill:none;stroke:#333333;stroke-linecap:round;stroke-width:2;"/>
   </g>
   <g id="line2d_25">
    <path clip-path="url(#pad763e4559)" d="M 313.834091 194.665093 
L 220.765909 194.665093 
" style="fill:none;stroke:#333333;stroke-linecap:round;stroke-width:2;"/>
   </g>
   <g id="line2d_26">
    <path clip-path="url(#pad763e4559)" d="M 267.3 120.210548 
L 220.765909 101.596911 
" style="fill:none;stroke:#333333;stroke-linecap:round;stroke-width:2;"/>
   </g>
   <g id="line2d_27">
    <path clip-path="url(#pad763e4559)" d="M 267.3 120.210548 
L 313.834091 101.596911 
" style="fill:none;stroke:#333333;stroke-linecap:round;stroke-width:2;"/>
   </g>
   <g id="line2d_28">
    <path clip-path="url(#pad763e4559)" d="M 267.3 120.210548 
L 267.3 176.051457 
" style="fill:none;stroke:#333333;stroke-linecap:round;stroke-width:2;"/>
   </g>
   <g id="line2d_29">
    <path clip-path="url(#pad763e4559)" d="M 267.3 176.051457 
L 220.765909 194.665093 
" style="fill:none;stroke:#333333;stroke-linecap:round;stroke-width:2;"/>
   </g>
   <g id="line2d_30">
    <path clip-path="url(#pad763e4559)" d="M 267.3 176.051457 
L 313.834091 194.665093 
" style="fill:none;stroke:#333333;stroke-linecap:round;stroke-width:2;"/>
   </g>
   <g id="patch_18">
    <path clip-path="url(#pad763e4559)" d="M 313.834091 222.585548 
C 321.238682 222.585548 328.340997 219.643673 333.576834 214.407836 
C 338.81267 209.171999 341.754545 202.069684 341.754545 194.665093 
C 341.754545 187.260502 338.81267 180.158187 333.576834 174.922351 
C 328.340997 169.686514 321.238682 166.744639 313.834091 166.744639 
C 306.4295 166.744639 299.327185 169.686514 294.091348 174.922351 
C 288.855512 180.158187 285.913636 187.260502 285.913636 194.665093 
C 285.913636 202.069684 288.855512 209.171999 294.091348 214.407836 
C 299.327185 219.643673 306.4295 222.585548 313.834091 222.585548 
z
" style="fill:#333333;stroke:#333333;stroke-linejoin:miter;"/>
   </g>
   <g id="patch_19">
    <path clip-path="url(#pad763e4559)" d="M 313.834091 220.258843 
C 320.621633 220.258843 327.132088 217.562124 331.931605 212.762607 
C 336.731122 207.963091 339.427841 201.452635 339.427841 194.665093 
C 339.427841 187.877551 336.731122 181.367096 331.931605 176.567579 
C 327.132088 171.768062 320.621633 169.071343 313.834091 169.071343 
C 307.046549 169.071343 300.536094 171.768062 295.736577 176.567579 
C 290.93706 181.367096 288.240341 187.877551 288.240341 194.665093 
C 288.240341 201.452635 290.93706 207.963091 295.736577 212.762607 
C 300.536094 217.562124 307.046549 220.258843 313.834091 220.258843 
z
" style="fill:#3b4cc0;stroke:#3b4cc0;stroke-linejoin:miter;"/>
   </g>
   <g id="patch_20">
    <path clip-path="url(#pad763e4559)" d="M 313.834091 129.517366 
C 321.238682 129.517366 328.340997 126.575491 333.576834 121.339654 
C 338.81267 116.103818 341.754545 109.001503 341.754545 101.596911 
C 341.754545 94.19232 338.81267 87.090005 333.576834 81.854169 
C 328.340997 76.618332 321.238682 73.676457 313.834091 73.676457 
C 306.4295 73.676457 299.327185 76.618332 294.091348 81.854169 
C 288.855512 87.090005 285.913636 94.19232 285.913636 101.596911 
C 285.913636 109.001503 288.855512 116.103818 294.091348 121.339654 
C 299.327185 126.575491 306.4295 129.517366 313.834091 129.517366 
z
" style="fill:#333333;stroke:#333333;stroke-linejoin:miter;"/>
   </g>
   <g id="patch_21">
    <path clip-path="url(#pad763e4559)" d="M 313.834091 127.190661 
C 320.621633 127.190661 327.132088 124.493943 331.931605 119.694426 
C 336.731122 114.894909 339.427841 108.384453 339.427841 101.596911 
C 339.427841 94.80937 336.731122 88.298914 331.931605 83.499397 
C 327.132088 78.69988 320.621633 76.003161 313.834091 76.003161 
C 307.046549 76.003161 300.536094 78.69988 295.736577 83.499397 
C 290.93706 88.298914 288.240341 94.80937 288.240341 101.596911 
C 288.240341 108.384453 290.93706 114.894909 295.736577 119.694426 
C 300.536094 124.493943 307.046549 127.190661 313.834091 127.190661 
z
" style="fill:#3b4cc0;stroke:#3b4cc0;stroke-linejoin:miter;"/>
   </g>
   <g id="patch_22">
    <path clip-path="url(#pad763e4559)" d="M 220.765909 222.585548 
C 228.1705 222.585548 235.272815 219.643673 240.508652 214.407836 
C 245.744488 209.171999 248.686364 202.069684 248.686364 194.665093 
C 248.686364 187.260502 245.744488 180.158187 240.508652 174.922351 
C 235.272815 169.686514 228.1705 166.744639 220.765909 166.744639 
C 213.361318 166.744639 206.259003 169.686514 201.023166 174.922351 
C 195.78733 180.158187 192.845455 187.260502 192.845455 194.665093 
C 192.845455 202.069684 195.78733 209.171999 201.023166 214.407836 
C 206.259003 219.643673 213.361318 222.585548 220.765909 222.585548 
z
" style="fill:#333333;stroke:#333333;stroke-linejoin:miter;"/>
   </g>
   <g id="patch_23">
    <path clip-path="url(#pad763e4559)" d="M 220.765909 220.258843 
C 227.553451 220.258843 234.063906 217.562124 238.863423 212.762607 
C 243.66294 207.963091 246.359659 201.452635 246.359659 194.665093 
C 246.359659 187.877551 243.66294 181.367096 238.863423 176.567579 
C 234.063906 171.768062 227.553451 169.071343 220.765909 169.071343 
C 213.978367 169.071343 207.467912 171.768062 202.668395 176.567579 
C 197.868878 181.367096 195.172159 187.877551 195.172159 194.665093 
C 195.172159 201.452635 197.868878 207.963091 202.668395 212.762607 
C 207.467912 217.562124 213.978367 220.258843 220.765909 220.258843 
z
" style="fill:#b70d28;stroke:#b70d28;stroke-linejoin:miter;"/>
   </g>
   <g id="patch_24">
    <path clip-path="url(#pad763e4559)" d="M 220.765909 129.517366 
C 228.1705 129.517366 235.272815 126.575491 240.508652 121.339654 
C 245.744488 116.103818 248.686364 109.001503 248.686364 101.596911 
C 248.686364 94.19232 245.744488 87.090005 240.508652 81.854169 
C 235.272815 76.618332 228.1705 73.676457 220.765909 73.676457 
C 213.361318 73.676457 206.259003 76.618332 201.023166 81.854169 
C 195.78733 87.090005 192.845455 94.19232 192.845455 101.596911 
C 192.845455 109.001503 195.78733 116.103818 201.023166 121.339654 
C 206.259003 126.575491 213.361318 129.517366 220.765909 129.517366 
z
" style="fill:#333333;stroke:#333333;stroke-linejoin:miter;"/>
   </g>
   <g id="patch_25">
    <path clip-path="url(#pad763e4559)" d="M 220.765909 127.190661 
C 227.553451 127.190661 234.063906 124.493943 238.863423 119.694426 
C 243.66294 114.894909 246.359659 108.384453 246.359659 101.596911 
C 246.359659 94.80937 243.66294 88.298914 238.863423 83.499397 
C 234.063906 78.69988 227.553451 76.003161 220.765909 76.003161 
C 213.978367 76.003161 207.467912 78.69988 202.668395 83.499397 
C 197.868878 88.298914 195.172159 94.80937 195.172159 101.596911 
C 195.172159 108.384453 197.868878 114.894909 202.668395 119.694426 
C 207.467912 124.493943 213.978367 127.190661 220.765909 127.190661 
z
" style="fill:#b40426;stroke:#b40426;stroke-linejoin:miter;"/>
   </g>
   <g id="patch_26">
    <path clip-path="url(#pad763e4559)" d="M 267.3 263.302877 
C 273.161968 263.302877 278.784634 260.973893 282.929671 256.828856 
C 287.074709 252.683818 289.403693 247.061152 289.403693 241.199184 
C 289.403693 235.337216 287.074709 229.71455 282.929671 225.569513 
C 278.784634 221.424476 273.161968 219.095491 267.3 219.095491 
C 261.438032 219.095491 255.815366 221.424476 251.670329 225.569513 
C 247.525291 229.71455 245.196307 235.337216 245.196307 241.199184 
C 245.196307 247.061152 247.525291 252.683818 251.670329 256.828856 
C 255.815366 260.973893 261.438032 263.302877 267.3 263.302877 
z
" style="fill:#333333;stroke:#333333;stroke-linejoin:miter;"/>
   </g>
   <g id="patch_27">
    <path clip-path="url(#pad763e4559)" d="M 267.3 260.976173 
C 272.544919 260.976173 277.575725 258.892345 281.284443 255.183627 
C 284.99316 251.474909 287.076989 246.444103 287.076989 241.199184 
C 287.076989 235.954265 284.99316 230.923459 281.284443 227.214741 
C 277.575725 223.506024 272.544919 221.422196 267.3 221.422196 
C 262.055081 221.422196 257.024275 223.506024 253.315557 227.214741 
C 249.60684 230.923459 247.523011 235.954265 247.523011 241.199184 
C 247.523011 246.444103 249.60684 251.474909 253.315557 255.183627 
C 257.024275 258.892345 262.055081 260.976173 267.3 260.976173 
z
" style="fill:#ccd9ed;stroke:#ccd9ed;stroke-linejoin:miter;"/>
   </g>
   <g id="patch_28">
    <path clip-path="url(#pad763e4559)" d="M 267.3 77.166514 
C 273.161968 77.166514 278.784634 74.837529 282.929671 70.692492 
C 287.074709 66.547455 289.403693 60.924789 289.403693 55.062821 
C 289.403693 49.200853 287.074709 43.578187 282.929671 39.433149 
C 278.784634 35.288112 273.161968 32.959127 267.3 32.959127 
C 261.438032 32.959127 255.815366 35.288112 251.670329 39.433149 
C 247.525291 43.578187 245.196307 49.200853 245.196307 55.062821 
C 245.196307 60.924789 247.525291 66.547455 251.670329 70.692492 
C 255.815366 74.837529 261.438032 77.166514 267.3 77.166514 
z
" style="fill:#333333;stroke:#333333;stroke-linejoin:miter;"/>
   </g>
   <g id="patch_29">
    <path clip-path="url(#pad763e4559)" d="M 267.3 74.839809 
C 272.544919 74.839809 277.575725 72.755981 281.284443 69.047263 
C 284.99316 65.338546 287.076989 60.307739 287.076989 55.062821 
C 287.076989 49.817902 284.99316 44.787095 281.284443 41.078378 
C 277.575725 37.36966 272.544919 35.285832 267.3 35.285832 
C 262.055081 35.285832 257.024275 37.36966 253.315557 41.078378 
C 249.60684 44.787095 247.523011 49.817902 247.523011 55.062821 
C 247.523011 60.307739 249.60684 65.338546 253.315557 69.047263 
C 257.024275 72.755981 262.055081 74.839809 267.3 74.839809 
z
" style="fill:#e7d7ce;stroke:#e7d7ce;stroke-linejoin:miter;"/>
   </g>
   <g id="patch_30">
    <path clip-path="url(#pad763e4559)" d="M 267.3 193.501741 
C 271.927869 193.501741 276.366816 191.663069 279.639214 188.390671 
C 282.911612 185.118273 284.750284 180.679326 284.750284 176.051457 
C 284.750284 171.423587 282.911612 166.984641 279.639214 163.712243 
C 276.366816 160.439845 271.927869 158.601173 267.3 158.601173 
C 262.672131 158.601173 258.233184 160.439845 254.960786 163.712243 
C 251.688388 166.984641 249.849716 171.423587 249.849716 176.051457 
C 249.849716 180.679326 251.688388 185.118273 254.960786 188.390671 
C 258.233184 191.663069 262.672131 193.501741 267.3 193.501741 
z
" style="fill:#333333;stroke:#333333;stroke-linejoin:miter;"/>
   </g>
   <g id="patch_31">
    <path clip-path="url(#pad763e4559)" d="M 267.3 191.175036 
C 271.31082 191.175036 275.157908 189.581521 277.993986 186.745443 
C 280.830064 183.909364 282.42358 180.062277 282.42358 176.051457 
C 282.42358 172.040637 280.830064 168.193549 277.993986 165.357471 
C 275.157908 162.521393 271.31082 160.927877 267.3 160.927877 
C 263.28918 160.927877 259.442092 162.521393 256.606014 165.357471 
C 253.769936 168.193549 252.17642 172.040637 252.17642 176.051457 
C 252.17642 180.062277 253.769936 183.909364 256.606014 186.745443 
C 259.442092 189.581521 263.28918 191.175036 267.3 191.175036 
z
" style="fill:#efcebd;stroke:#efcebd;stroke-linejoin:miter;"/>
   </g>
   <g id="patch_32">
    <path clip-path="url(#pad763e4559)" d="M 267.3 137.660832 
C 271.927869 137.660832 276.366816 135.82216 279.639214 132.549762 
C 282.911612 129.277364 284.750284 124.838417 284.750284 120.210548 
C 284.750284 115.582678 282.911612 111.143731 279.639214 107.871334 
C 276.366816 104.598936 271.927869 102.760264 267.3 102.760264 
C 262.672131 102.760264 258.233184 104.598936 254.960786 107.871334 
C 251.688388 111.143731 249.849716 115.582678 249.849716 120.210548 
C 249.849716 124.838417 251.688388 129.277364 254.960786 132.549762 
C 258.233184 135.82216 262.672131 137.660832 267.3 137.660832 
z
" style="fill:#333333;stroke:#333333;stroke-linejoin:miter;"/>
   </g>
   <g id="patch_33">
    <path clip-path="url(#pad763e4559)" d="M 267.3 135.334127 
C 271.31082 135.334127 275.157908 133.740612 277.993986 130.904533 
C 280.830064 128.068455 282.42358 124.221368 282.42358 120.210548 
C 282.42358 116.199728 280.830064 112.35264 277.993986 109.516562 
C 275.157908 106.680484 271.31082 105.086968 267.3 105.086968 
C 263.28918 105.086968 259.442092 106.680484 256.606014 109.516562 
C 253.769936 112.35264 252.17642 116.199728 252.17642 120.210548 
C 252.17642 124.221368 253.769936 128.068455 256.606014 130.904533 
C 259.442092 133.740612 263.28918 135.334127 267.3 135.334127 
z
" style="fill:#ecd3c5;stroke:#ecd3c5;stroke-linejoin:miter;"/>
   </g>
   <g id="text_10">
    <!-- 0.140 -->
    <g style="fill:#ffffff;" transform="translate(295.894627 198.968406)scale(0.1728 -0.1728)">
     <use transform="scale(0.996264)" xlink:href="#CMR17-48"/>
     <use transform="translate(45.690477 0)scale(0.996264)" xlink:href="#CMR17-46"/>
     <use transform="translate(70.561536 0)scale(0.996264)" xlink:href="#CMR17-49"/>
     <use transform="translate(116.252013 0)scale(0.996264)" xlink:href="#CMR17-52"/>
     <use transform="translate(161.94249 0)scale(0.996264)" xlink:href="#CMR17-48"/>
    </g>
   </g>
   <g id="text_11">
    <!-- 0.140 -->
    <g style="fill:#ffffff;" transform="translate(295.894627 105.900224)scale(0.1728 -0.1728)">
     <use transform="scale(0.996264)" xlink:href="#CMR17-48"/>
     <use transform="translate(45.690477 0)scale(0.996264)" xlink:href="#CMR17-46"/>
     <use transform="translate(70.561536 0)scale(0.996264)" xlink:href="#CMR17-49"/>
     <use transform="translate(116.252013 0)scale(0.996264)" xlink:href="#CMR17-52"/>
     <use transform="translate(161.94249 0)scale(0.996264)" xlink:href="#CMR17-48"/>
    </g>
   </g>
   <g id="text_12">
    <!-- 0.146 -->
    <g style="fill:#ffffff;" transform="translate(202.826445 198.968406)scale(0.1728 -0.1728)">
     <use transform="scale(0.996264)" xlink:href="#CMR17-48"/>
     <use transform="translate(45.690477 0)scale(0.996264)" xlink:href="#CMR17-46"/>
     <use transform="translate(70.561536 0)scale(0.996264)" xlink:href="#CMR17-49"/>
     <use transform="translate(116.252013 0)scale(0.996264)" xlink:href="#CMR17-52"/>
     <use transform="translate(161.94249 0)scale(0.996264)" xlink:href="#CMR17-54"/>
    </g>
   </g>
   <g id="text_13">
    <!-- 0.147 -->
    <g style="fill:#ffffff;" transform="translate(202.826445 105.900224)scale(0.1728 -0.1728)">
     <use transform="scale(0.996264)" xlink:href="#CMR17-48"/>
     <use transform="translate(45.690477 0)scale(0.996264)" xlink:href="#CMR17-46"/>
     <use transform="translate(70.561536 0)scale(0.996264)" xlink:href="#CMR17-49"/>
     <use transform="translate(116.252013 0)scale(0.996264)" xlink:href="#CMR17-52"/>
     <use transform="translate(161.94249 0)scale(0.996264)" xlink:href="#CMR17-55"/>
    </g>
   </g>
   <g id="text_14">
    <!-- 0.143 -->
    <g style="fill:#262626;" transform="translate(251.301865 244.785733)scale(0.144 -0.144)">
     <use transform="scale(0.996264)" xlink:href="#CMR17-48"/>
     <use transform="translate(45.690477 0)scale(0.996264)" xlink:href="#CMR17-46"/>
     <use transform="translate(70.561536 0)scale(0.996264)" xlink:href="#CMR17-49"/>
     <use transform="translate(116.252013 0)scale(0.996264)" xlink:href="#CMR17-52"/>
     <use transform="translate(161.94249 0)scale(0.996264)" xlink:href="#CMR17-51"/>
    </g>
   </g>
   <g id="text_15">
    <!-- 0.143 -->
    <g style="fill:#262626;" transform="translate(251.301865 58.649369)scale(0.144 -0.144)">
     <use transform="scale(0.996264)" xlink:href="#CMR17-48"/>
     <use transform="translate(45.690477 0)scale(0.996264)" xlink:href="#CMR17-46"/>
     <use transform="translate(70.561536 0)scale(0.996264)" xlink:href="#CMR17-49"/>
     <use transform="translate(116.252013 0)scale(0.996264)" xlink:href="#CMR17-52"/>
     <use transform="translate(161.94249 0)scale(0.996264)" xlink:href="#CMR17-51"/>
    </g>
   </g>
   <g id="text_16">
    <!-- 0.144 -->
    <g style="fill:#262626;" transform="translate(253.968189 179.040249)scale(0.12 -0.12)">
     <use transform="scale(0.996264)" xlink:href="#CMR17-48"/>
     <use transform="translate(45.690477 0)scale(0.996264)" xlink:href="#CMR17-46"/>
     <use transform="translate(70.561536 0)scale(0.996264)" xlink:href="#CMR17-49"/>
     <use transform="translate(116.252013 0)scale(0.996264)" xlink:href="#CMR17-52"/>
     <use transform="translate(161.94249 0)scale(0.996264)" xlink:href="#CMR17-52"/>
    </g>
   </g>
   <g id="text_17">
    <!-- 0.144 -->
    <g style="fill:#262626;" transform="translate(253.968189 123.19934)scale(0.12 -0.12)">
     <use transform="scale(0.996264)" xlink:href="#CMR17-48"/>
     <use transform="translate(45.690477 0)scale(0.996264)" xlink:href="#CMR17-46"/>
     <use transform="translate(70.561536 0)scale(0.996264)" xlink:href="#CMR17-49"/>
     <use transform="translate(116.252013 0)scale(0.996264)" xlink:href="#CMR17-52"/>
     <use transform="translate(161.94249 0)scale(0.996264)" xlink:href="#CMR17-52"/>
    </g>
   </g>
   <g id="text_18">
    <!-- b) $\Delta E_\text{pot,small\textrightarrow large}$ -->
    <g style="fill:#262626;" transform="translate(202.555936 15.44194)scale(0.1728 -0.1728)">
     <defs>
      <path d="M 15 69 
L 3.09375 67.890625 
L 3.09375 65.296875 
C 9 65.296875 9.90625 64.703125 9.90625 60.046875 
L 9.90625 -0.203125 
L 11.703125 -0.203125 
L 14.59375 6.953125 
C 17.5 2.203125 21.796875 -1 27.59375 -1 
C 37.59375 -1 47.703125 7.859375 47.703125 21.59375 
C 47.703125 34.515625 38.703125 44 28.59375 44 
C 22.40625 44 18 40.671875 15 36.734375 
z
M 15.203125 31.59375 
C 15.203125 33.40625 15.203125 33.703125 16.59375 35.828125 
C 20.5 41.890625 26.09375 42.390625 28 42.390625 
C 31 42.390625 41.296875 40.78125 41.296875 21.6875 
C 41.296875 1.703125 29.5 0.59375 27.09375 0.59375 
C 24 0.59375 19.5 1.796875 16.296875 7.65625 
C 15.203125 9.578125 15.203125 9.78125 15.203125 11.59375 
z
" id="CMR17-98"/>
      <path d="M 40.59375 69.296875 
C 39.796875 71 39.40625 71 38.59375 71 
C 37.40625 71 37.296875 70.796875 36.59375 69.390625 
L 4.203125 1.6875 
C 4.09375 1.5 3.703125 0.59375 3.703125 0.5 
C 3.703125 0.09375 3.796875 0 5.59375 0 
L 71.5 0 
C 73.296875 0 73.40625 0.09375 73.40625 0.5 
C 73.40625 0.59375 73 1.5 72.90625 1.6875 
z
M 36.09375 63.375 
L 63.796875 5.59375 
L 8.296875 5.59375 
z
" id="CMR17-1"/>
      <path d="M 63.09375 50 
C 63.90625 41.25 69.703125 32.796875 76.40625 27 
L 7.59375 27 
C 6.40625 27 5 26.796875 5 25.390625 
C 5 23.984375 6.40625 23.796875 7.59375 23.796875 
L 76.40625 23.796875 
C 69.59375 17.6875 64 9.25 63.09375 0 
L 66.296875 0 
C 67.90625 10.578125 75.203125 20.953125 84.5 25.296875 
L 84.5 25.484375 
C 75.203125 29.75 67.90625 39.765625 66.296875 50 
z
" id="Computer_Modern_Roman-25"/>
      <path d="M 15 23.703125 
C 15 33.34375 19.09375 42.390625 26.59375 42.390625 
C 27.296875 42.390625 28 42.296875 28.703125 41.984375 
C 28.703125 41.984375 26.5 41.28125 26.5 38.671875 
C 26.5 36.265625 28.40625 35.265625 29.90625 35.265625 
C 31.09375 35.265625 33.296875 35.96875 33.296875 38.78125 
C 33.296875 41.984375 30.09375 44 26.703125 44 
C 19.09375 44 15.796875 36.5625 14.796875 33.046875 
L 14.703125 33.046875 
L 14.703125 44 
L 3.09375 42.890625 
L 3.09375 40.28125 
C 9 40.28125 9.90625 39.6875 9.90625 34.859375 
L 9.90625 6.921875 
C 9.90625 3.09375 9.5 2.59375 3.09375 2.59375 
L 3.09375 0 
C 5.5 0.1875 10.09375 0.1875 12.703125 0.1875 
C 15.59375 0.1875 20.703125 0.1875 23.40625 0 
L 23.40625 2.59375 
C 16.203125 2.59375 15 2.59375 15 7.109375 
z
" id="CMR17-114"/>
      <path d="M 11.09375 18.203125 
C 13 16.6875 16.296875 15 20.296875 15 
C 28.203125 15 35 21.234375 35 29.609375 
C 35 32.234375 34.203125 36.265625 31.203125 39.390625 
C 34 42.390625 38.09375 43.390625 40.40625 43.390625 
C 40.796875 43.390625 41.40625 43.390625 41.90625 43.09375 
C 41.5 42.984375 40.59375 42.59375 40.59375 40.984375 
C 40.59375 39.6875 41.5 38.796875 42.796875 38.796875 
C 44.296875 38.796875 45.09375 39.796875 45.09375 41.09375 
C 45.09375 42.984375 43.59375 45 40.40625 45 
C 36.40625 45 32.90625 43.09375 30.09375 40.484375 
C 27.09375 43.1875 23.5 44.1875 20.296875 44.1875 
C 12.40625 44.1875 5.59375 37.984375 5.59375 29.609375 
C 5.59375 23.859375 8.90625 20.21875 9.90625 19.21875 
C 6.90625 15.6875 6.90625 11.59375 6.90625 11.09375 
C 6.90625 8.5 7.90625 4.6875 11.296875 2.59375 
C 6.09375 1.28125 2 -2.875 2 -8.078125 
C 2 -15.5625 11.5 -21 22.90625 -21 
C 33.90625 -21 43.796875 -15.765625 43.796875 -7.96875 
C 43.796875 6 29 6 21.296875 6 
C 19 6 14.90625 6 14.40625 6.09375 
C 11.296875 6.59375 9.203125 9.390625 9.203125 12.890625 
C 9.203125 13.796875 9.203125 16 11.09375 18.203125 
z
M 20.296875 16.6875 
C 11.5 16.6875 11.5 27.59375 11.5 29.609375 
C 11.5 31.625 11.5 42.484375 20.296875 42.484375 
C 29.09375 42.484375 29.09375 31.625 29.09375 29.609375 
C 29.09375 27.59375 29.09375 16.6875 20.296875 16.6875 
z
M 22.90625 -19.3125 
C 12.90625 -19.3125 6 -13.796875 6 -8.078125 
C 6 -4.859375 7.703125 -1.84375 9.90625 -0.171875 
C 12.40625 1.59375 13.40625 1.59375 20.203125 1.59375 
C 28.40625 1.59375 39.796875 1.59375 39.796875 -8.078125 
C 39.796875 -13.796875 32.90625 -19.3125 22.90625 -19.3125 
z
" id="CMR17-103"/>
      <path d="M 38.09375 23.484375 
C 38.5 23.890625 38.5 24.09375 38.5 25.09375 
C 38.5 35.171875 33.09375 44 21.703125 44 
C 11.09375 44 2.703125 33.984375 2.703125 21.78125 
C 2.703125 8.65625 12.203125 -1 22.796875 -1 
C 34 -1 38.40625 9.671875 38.40625 11.796875 
C 38.40625 12.5 37.796875 12.5 37.59375 12.5 
C 36.90625 12.5 36.796875 12.296875 36.40625 11.078125 
C 34.203125 4.21875 28.703125 0.796875 23.5 0.796875 
C 19.203125 0.796875 14.90625 3.21875 12.203125 7.65625 
C 9.09375 12.796875 9.09375 18.75 9.09375 23.484375 
z
M 9.203125 25 
C 9.90625 39.234375 17.59375 42.390625 21.59375 42.390625 
C 28.40625 42.390625 33 36.0625 33.09375 25 
z
" id="CMR17-101"/>
     </defs>
     <use transform="scale(0.996264)" xlink:href="#CMR17-98"/>
     <use transform="translate(50.89537 0)scale(0.996264)" xlink:href="#CMR17-41"/>
     <use transform="translate(116.252104 0)scale(0.996264)" xlink:href="#CMR17-1"/>
     <use transform="translate(193.171694 0)scale(0.996264)" xlink:href="#CMMI12-69"/>
     <use transform="translate(265.382912 -14.943915)scale(0.697382)" xlink:href="#CMR17-112"/>
     <use transform="translate(302.831226 -14.943915)scale(0.697382)" xlink:href="#CMR17-111"/>
     <use transform="translate(334.814408 -14.943915)scale(0.697382)" xlink:href="#CMR17-116"/>
     <use transform="translate(359.510828 -14.943915)scale(0.697382)" xlink:href="#CMR17-44"/>
     <use transform="translate(376.920487 -14.943915)scale(0.697382)" xlink:href="#CMR17-115"/>
     <use transform="translate(401.981309 -14.943915)scale(0.697382)" xlink:href="#CMR17-109"/>
     <use transform="translate(455.824776 -14.943915)scale(0.697382)" xlink:href="#CMR17-97"/>
     <use transform="translate(487.807958 -14.943915)scale(0.697382)" xlink:href="#CMR17-108"/>
     <use transform="translate(505.217617 -14.943915)scale(0.697382)" xlink:href="#CMR17-108"/>
     <use transform="translate(522.627275 -14.943915)scale(0.356961)" xlink:href="#Computer_Modern_Roman-25"/>
     <use transform="translate(554.594328 -14.943915)scale(0.697382)" xlink:href="#CMR17-108"/>
     <use transform="translate(572.003987 -14.943915)scale(0.697382)" xlink:href="#CMR17-97"/>
     <use transform="translate(603.987169 -14.943915)scale(0.697382)" xlink:href="#CMR17-114"/>
     <use transform="translate(628.683589 -14.943915)scale(0.697382)" xlink:href="#CMR17-103"/>
     <use transform="translate(660.666771 -14.943915)scale(0.697382)" xlink:href="#CMR17-101"/>
    </g>
   </g>
  </g>
 </g>
 <defs>
  <clipPath id="p6328d6c910">
   <rect height="253.378125" width="163.8" x="10.8" y="21.44194"/>
  </clipPath>
  <clipPath id="pad763e4559">
   <rect height="253.378125" width="163.8" x="185.4" y="21.44194"/>
  </clipPath>
 </defs>
</svg>
