<?xml version="1.0" encoding="utf-8" standalone="no"?>
<!DOCTYPE svg PUBLIC "-//W3C//DTD SVG 1.1//EN"
  "http://www.w3.org/Graphics/SVG/1.1/DTD/svg11.dtd">
<!-- Created with matplotlib (https://matplotlib.org/) -->
<svg height="216pt" version="1.1" viewBox="0 0 432 216" width="432pt" xmlns="http://www.w3.org/2000/svg" xmlns:xlink="http://www.w3.org/1999/xlink">
 <metadata>
  <rdf:RDF xmlns:cc="http://creativecommons.org/ns#" xmlns:dc="http://purl.org/dc/elements/1.1/" xmlns:rdf="http://www.w3.org/1999/02/22-rdf-syntax-ns#">
   <cc:Work>
    <dc:type rdf:resource="http://purl.org/dc/dcmitype/StillImage"/>
    <dc:date>2022-04-15T20:29:30.738715</dc:date>
    <dc:format>image/svg+xml</dc:format>
    <dc:creator>
     <cc:Agent>
      <dc:title>Matplotlib v3.3.4, https://matplotlib.org/</dc:title>
     </cc:Agent>
    </dc:creator>
   </cc:Work>
  </rdf:RDF>
 </metadata>
 <defs>
  <style type="text/css">*{stroke-linecap:butt;stroke-linejoin:round;}</style>
 </defs>
 <g id="figure_1">
  <g id="patch_1">
   <path d="M 0 216 
L 432 216 
L 432 0 
L 0 0 
z
" style="fill:#ffffff;"/>
  </g>
  <g id="axes_1">
   <g id="patch_2">
    <path d="M 32.400279 175.381683 
L 154.800186 175.381683 
L 154.800186 25.766376 
L 32.400279 25.766376 
z
" style="fill:#ffffff;"/>
   </g>
   <g id="matplotlib.axis_1">
    <g id="xtick_1">
     <g id="text_1">
      <!-- $J$ -->
      <g style="fill:#262626;" transform="translate(60.238046 189.300182)scale(0.1 -0.1)">
       <defs>
        <path d="M 53.40625 61.109375 
C 54.203125 64.09375 54.40625 65.09375 59.296875 65.09375 
C 60.90625 65.09375 61.90625 65.09375 61.90625 66.890625 
C 61.90625 68 61 68 60.59375 68 
C 58.90625 68 57 67.796875 55.203125 67.796875 
L 49.703125 67.796875 
C 45.5 67.796875 41.09375 68 36.90625 68 
C 36 68 34.796875 68 34.796875 66.1875 
C 34.796875 65.1875 35.59375 65.1875 35.59375 65.09375 
L 38.09375 65.09375 
C 46.09375 65.09375 46.09375 64.296875 46.09375 62.796875 
C 46.09375 62.703125 46.09375 62 45.703125 60.40625 
L 34.203125 14.890625 
C 31.59375 4.75 24.90625 0 20.09375 0 
C 16.703125 0 11.90625 1.546875 10.703125 6.6875 
C 11.09375 6.59375 11.59375 6.484375 12 6.484375 
C 15.296875 6.484375 17.90625 9.390625 17.90625 12.296875 
C 17.90625 13.890625 16.90625 16 13.90625 16 
C 12.09375 16 7.90625 14.984375 7.90625 8.484375 
C 7.90625 2.328125 13.09375 -2 20.296875 -2 
C 29.40625 -2 39.203125 4.75 41.59375 14.1875 
z
" id="CMMI12-74"/>
       </defs>
       <use transform="scale(0.996264)" xlink:href="#CMMI12-74"/>
      </g>
     </g>
    </g>
    <g id="xtick_2">
     <g id="text_2">
      <!-- +$\lambda$ -->
      <g style="fill:#262626;" transform="translate(117.420055 189.300182)scale(0.1 -0.1)">
       <defs>
        <path d="M 37.703125 23 
L 64.203125 23 
C 65.59375 23 67.296875 23 67.296875 24.6875 
C 67.296875 26.5 65.703125 26.5 64.203125 26.5 
L 37.703125 26.5 
L 37.703125 52.890625 
C 37.703125 54.296875 37.703125 56 36 56 
C 34.203125 56 34.203125 54.390625 34.203125 52.890625 
L 34.203125 26.5 
L 7.703125 26.5 
C 6.296875 26.5 4.59375 26.5 4.59375 24.796875 
C 4.59375 23 6.203125 23 7.703125 23 
L 34.203125 23 
L 34.203125 -3.03125 
C 34.203125 -4.40625 34.203125 -6.109375 35.90625 -6.109375 
C 37.703125 -6.109375 37.703125 -4.515625 37.703125 -3.03125 
z
" id="CMR17-43"/>
        <path d="M 30.90625 61.921875 
C 28.40625 69 20.5 69 19.203125 69 
C 18.59375 69 17.5 69 17.5 67.984375 
C 17.5 67.1875 18.09375 67.09375 18.59375 66.984375 
C 20.09375 66.796875 21.296875 66.59375 22.90625 63.71875 
C 23.90625 61.828125 34.203125 32.109375 34.203125 31.90625 
C 34.203125 31.8125 34.09375 31.703125 33.296875 30.90625 
L 7.296875 4.765625 
C 6.09375 3.578125 5.296875 2.78125 5.296875 1.484375 
C 5.296875 0.09375 6.5 -1.109375 8.09375 -1.109375 
C 8.5 -1.109375 9.59375 -0.90625 10.203125 -0.3125 
C 11.796875 1.1875 26.09375 18.59375 35.203125 29.328125 
C 37.796875 21.5625 41 12.421875 44.09375 4.078125 
C 44.59375 2.578125 45.09375 1.1875 46.5 -0.109375 
C 47.5 -1 47.703125 -1 50.5 -1 
L 52.40625 -1 
C 52.796875 -1 53.5 -1 53.5 -0.203125 
C 53.5 0.1875 53.40625 0.296875 53 0.6875 
C 52.09375 1.78125 51.40625 3.578125 51 4.765625 
z
" id="CMMI12-21"/>
       </defs>
       <use transform="scale(0.996264)" xlink:href="#CMR17-43"/>
       <use transform="translate(71.714788 0)scale(0.996264)" xlink:href="#CMMI12-21"/>
      </g>
     </g>
    </g>
   </g>
   <g id="matplotlib.axis_2">
    <g id="ytick_1"/>
    <g id="ytick_2"/>
    <g id="ytick_3"/>
    <g id="ytick_4"/>
    <g id="ytick_5"/>
    <g id="ytick_6"/>
    <g id="ytick_7"/>
    <g id="text_3">
     <!-- E [\si{\wn}] -->
     <g style="fill:#262626;" transform="translate(18.909619 120.104998)rotate(-90)scale(0.1 -0.1)">
      <defs>
       <path d="M 60.703125 25.21875 
L 58.90625 25.21875 
C 56.703125 10.5625 55.40625 2.59375 37.796875 2.59375 
L 23.90625 2.59375 
C 19.90625 2.59375 19.703125 3.09375 19.703125 6.484375 
L 19.703125 34 
L 29.09375 34 
C 38.5 34 39.40625 30.609375 39.40625 22.328125 
L 41.203125 22.328125 
L 41.203125 48.21875 
L 39.40625 48.21875 
C 39.40625 39.96875 38.5 36.59375 29.09375 36.59375 
L 19.703125 36.59375 
L 19.703125 61.3125 
C 19.703125 64.703125 19.90625 65.1875 23.90625 65.1875 
L 37.59375 65.1875 
C 53.09375 65.1875 54.90625 59.03125 56.296875 45.828125 
L 58.09375 45.828125 
L 55.703125 67.796875 
L 5.09375 67.796875 
L 5.09375 65.1875 
C 12 65.1875 13.09375 65.1875 13.09375 60.71875 
L 13.09375 7.078125 
C 13.09375 2.59375 12 2.59375 5.09375 2.59375 
L 5.09375 0 
L 57.09375 0 
z
" id="CMR17-69"/>
       <path d="M 23.5 -25 
L 23.5 -21.5 
L 14.09375 -21.5 
L 14.09375 71.484375 
L 23.5 71.484375 
L 23.5 75 
L 10.59375 75 
L 10.59375 -25 
z
" id="CMR17-91"/>
       <path d="M 34.90625 35 
C 33 35 30.203125 35 30.203125 31.484375 
C 30.203125 28.6875 32.5 27.890625 33.796875 27.890625 
C 34.5 27.890625 37.40625 28.1875 37.40625 31.6875 
C 37.40625 38.6875 30.59375 44 22.90625 44 
C 12.296875 44 3.296875 34.390625 3.296875 21.546875 
C 3.296875 8.140625 12.703125 -1 22.90625 -1 
C 35.296875 -1 38.40625 10.5625 38.40625 11.671875 
C 38.40625 12.078125 38.296875 12.375 37.59375 12.375 
C 36.90625 12.375 36.796875 12.28125 36.40625 10.96875 
C 33.796875 2.8125 28.09375 0.796875 23.796875 0.796875 
C 17.40625 0.796875 9.703125 6.734375 9.703125 21.640625 
C 9.703125 36.84375 17.09375 42.1875 23 42.1875 
C 26.90625 42.1875 32.703125 40.34375 34.90625 35 
z
" id="CMR17-99"/>
       <path d="M 67.59375 30.53125 
C 67.59375 35.5625 66.703125 44 54.796875 44 
C 48 44 43.296875 39.375 41.5 33.953125 
L 41.40625 33.953125 
C 40.203125 42.1875 34.296875 44 28.703125 44 
C 20.796875 44 16.703125 37.875 15.203125 33.84375 
L 15.09375 33.84375 
L 15.09375 44 
L 3.296875 42.890625 
L 3.296875 40.28125 
C 9.203125 40.28125 10.09375 39.6875 10.09375 34.859375 
L 10.09375 6.921875 
C 10.09375 3.09375 9.703125 2.59375 3.296875 2.59375 
L 3.296875 0 
C 5.703125 0.1875 10.09375 0.1875 12.703125 0.1875 
C 15.296875 0.1875 19.796875 0.1875 22.203125 0 
L 22.203125 2.59375 
C 15.796875 2.59375 15.40625 3 15.40625 6.921875 
L 15.40625 26.21875 
C 15.40625 35.453125 21 42.390625 28 42.390625 
C 35.40625 42.390625 36.203125 35.765625 36.203125 30.9375 
L 36.203125 6.921875 
C 36.203125 3.09375 35.796875 2.59375 29.40625 2.59375 
L 29.40625 0 
C 31.796875 0.1875 36.203125 0.1875 38.796875 0.1875 
C 41.40625 0.1875 45.90625 0.1875 48.296875 0 
L 48.296875 2.59375 
C 41.90625 2.59375 41.5 3 41.5 6.921875 
L 41.5 26.21875 
C 41.5 35.453125 47.09375 42.390625 54.09375 42.390625 
C 61.5 42.390625 62.296875 35.765625 62.296875 30.9375 
L 62.296875 6.921875 
C 62.296875 3.09375 61.90625 2.59375 55.5 2.59375 
L 55.5 0 
C 57.90625 0.1875 62.296875 0.1875 64.90625 0.1875 
C 67.5 0.1875 72 0.1875 74.40625 0 
L 74.40625 2.59375 
C 68 2.59375 67.59375 3 67.59375 6.921875 
z
" id="CMR17-109"/>
       <path d="M 65.90625 23 
C 67.59375 23 69.40625 23 69.40625 25 
C 69.40625 27 67.59375 27 65.90625 27 
L 11.796875 27 
C 10.09375 27 8.296875 27 8.296875 25 
C 8.296875 23 10.09375 23 11.796875 23 
z
" id="CMSY10-0"/>
       <path d="M 26.59375 63.796875 
C 26.59375 65.890625 26.5 66 25.09375 66 
C 21.203125 61.359375 15.296875 59.890625 9.703125 59.6875 
C 9.40625 59.6875 8.90625 59.6875 8.796875 59.5 
C 8.703125 59.296875 8.703125 59.09375 8.703125 57 
C 11.796875 57 17 57.59375 21 59.984375 
L 21 7.296875 
C 21 3.796875 20.796875 2.59375 12.203125 2.59375 
L 9.203125 2.59375 
L 9.203125 0 
C 14 0.09375 19 0.1875 23.796875 0.1875 
C 28.59375 0.1875 33.59375 0.09375 38.40625 0 
L 38.40625 2.59375 
L 35.40625 2.59375 
C 26.796875 2.59375 26.59375 3.6875 26.59375 7.296875 
z
" id="CMR17-49"/>
       <path d="M 14.296875 75 
L 1.40625 75 
L 1.40625 71.484375 
L 10.796875 71.484375 
L 10.796875 -21.5 
L 1.40625 -21.5 
L 1.40625 -25 
L 14.296875 -25 
z
" id="CMR17-93"/>
      </defs>
      <use transform="scale(0.996264)" xlink:href="#CMR17-69"/>
      <use transform="translate(92.662267 0)scale(0.996264)" xlink:href="#CMR17-91"/>
      <use transform="translate(117.533325 0)scale(0.996264)" xlink:href="#CMR17-99"/>
      <use transform="translate(158.018986 0)scale(0.996264)" xlink:href="#CMR17-109"/>
      <use transform="translate(234.938576 36.153639)scale(0.697382)" xlink:href="#CMSY10-0"/>
      <use transform="translate(289.179569 36.153639)scale(0.697382)" xlink:href="#CMR17-49"/>
      <use transform="translate(321.660883 0)scale(0.996264)" xlink:href="#CMR17-93"/>
     </g>
    </g>
   </g>
   <g id="line2d_1">
    <path clip-path="url(#p30cd7ba948)" d="M 52.800263 168.580987 
L 73.200248 168.580987 
" style="fill:none;stroke:#66c2a5;stroke-linecap:round;stroke-width:1.5;"/>
   </g>
   <g id="line2d_2">
    <path clip-path="url(#p30cd7ba948)" d="M 73.200248 168.580987 
L 114.000217 168.580987 
" style="fill:none;stroke:#66c2a5;stroke-dasharray:1.85,0.8;stroke-dashoffset:0;stroke-width:0.5;"/>
   </g>
   <g id="line2d_3">
    <path clip-path="url(#p30cd7ba948)" d="M 114.000217 168.580987 
L 114.000217 168.580987 
" style="fill:none;stroke:#66c2a5;stroke-dasharray:1.85,0.8;stroke-dashoffset:0;stroke-width:0.5;"/>
   </g>
   <g id="line2d_4">
    <path clip-path="url(#p30cd7ba948)" d="M 114.000217 168.580987 
L 134.400201 168.580987 
" style="fill:none;stroke:#66c2a5;stroke-linecap:round;stroke-width:1.5;"/>
   </g>
   <g id="line2d_5">
    <path clip-path="url(#p30cd7ba948)" d="M 52.800263 159.903864 
L 73.200248 159.903864 
" style="fill:none;stroke:#fc8d62;stroke-linecap:round;stroke-width:1.5;"/>
   </g>
   <g id="line2d_6">
    <path clip-path="url(#p30cd7ba948)" d="M 73.200248 159.903864 
L 114.000217 159.903864 
" style="fill:none;stroke:#fc8d62;stroke-dasharray:1.85,0.8;stroke-dashoffset:0;stroke-width:0.5;"/>
   </g>
   <g id="line2d_7">
    <path clip-path="url(#p30cd7ba948)" d="M 114.000217 159.903864 
L 114.000217 155.869001 
" style="fill:none;stroke:#fc8d62;stroke-dasharray:1.85,0.8;stroke-dashoffset:0;stroke-width:0.5;"/>
   </g>
   <g id="line2d_8">
    <path clip-path="url(#p30cd7ba948)" d="M 114.000217 155.869001 
L 134.400201 155.869001 
" style="fill:none;stroke:#fc8d62;stroke-linecap:round;stroke-width:1.5;"/>
   </g>
   <g id="line2d_9">
    <path clip-path="url(#p30cd7ba948)" d="M 52.800263 142.549616 
L 73.200248 142.549616 
" style="fill:none;stroke:#8da0cb;stroke-linecap:round;stroke-width:1.5;"/>
   </g>
   <g id="line2d_10">
    <path clip-path="url(#p30cd7ba948)" d="M 73.200248 142.549616 
L 114.000217 142.549616 
" style="fill:none;stroke:#8da0cb;stroke-dasharray:1.85,0.8;stroke-dashoffset:0;stroke-width:0.5;"/>
   </g>
   <g id="line2d_11">
    <path clip-path="url(#p30cd7ba948)" d="M 114.000217 142.549616 
L 114.000217 132.006911 
" style="fill:none;stroke:#8da0cb;stroke-dasharray:1.85,0.8;stroke-dashoffset:0;stroke-width:0.5;"/>
   </g>
   <g id="line2d_12">
    <path clip-path="url(#p30cd7ba948)" d="M 114.000217 132.006911 
L 134.400201 132.006911 
" style="fill:none;stroke:#8da0cb;stroke-linecap:round;stroke-width:1.5;"/>
   </g>
   <g id="line2d_13">
    <path clip-path="url(#p30cd7ba948)" d="M 52.800263 116.518245 
L 73.200248 116.518245 
" style="fill:none;stroke:#e78ac3;stroke-linecap:round;stroke-width:1.5;"/>
   </g>
   <g id="line2d_14">
    <path clip-path="url(#p30cd7ba948)" d="M 73.200248 116.518245 
L 114.000217 116.518245 
" style="fill:none;stroke:#e78ac3;stroke-dasharray:1.85,0.8;stroke-dashoffset:0;stroke-width:0.5;"/>
   </g>
   <g id="line2d_15">
    <path clip-path="url(#p30cd7ba948)" d="M 114.000217 116.518245 
L 114.000217 100.118481 
" style="fill:none;stroke:#e78ac3;stroke-dasharray:1.85,0.8;stroke-dashoffset:0;stroke-width:0.5;"/>
   </g>
   <g id="line2d_16">
    <path clip-path="url(#p30cd7ba948)" d="M 114.000217 100.118481 
L 134.400201 100.118481 
" style="fill:none;stroke:#e78ac3;stroke-linecap:round;stroke-width:1.5;"/>
   </g>
   <g id="line2d_17">
    <path clip-path="url(#p30cd7ba948)" d="M 52.800263 81.809749 
L 73.200248 81.809749 
" style="fill:none;stroke:#a6d854;stroke-linecap:round;stroke-width:1.5;"/>
   </g>
   <g id="line2d_18">
    <path clip-path="url(#p30cd7ba948)" d="M 73.200248 81.809749 
L 114.000217 81.809749 
" style="fill:none;stroke:#a6d854;stroke-dasharray:1.85,0.8;stroke-dashoffset:0;stroke-width:0.5;"/>
   </g>
   <g id="line2d_19">
    <path clip-path="url(#p30cd7ba948)" d="M 114.000217 81.809749 
L 114.000217 64.889358 
" style="fill:none;stroke:#a6d854;stroke-dasharray:1.85,0.8;stroke-dashoffset:0;stroke-width:0.5;"/>
   </g>
   <g id="line2d_20">
    <path clip-path="url(#p30cd7ba948)" d="M 114.000217 64.889358 
L 134.400201 64.889358 
" style="fill:none;stroke:#a6d854;stroke-linecap:round;stroke-width:1.5;"/>
   </g>
   <g id="line2d_21">
    <path clip-path="url(#p30cd7ba948)" d="M 52.800263 38.42413 
L 73.200248 38.42413 
" style="fill:none;stroke:#ffd92f;stroke-linecap:round;stroke-width:1.5;"/>
   </g>
   <g id="line2d_22">
    <path clip-path="url(#p30cd7ba948)" d="M 73.200248 38.42413 
L 114.000217 38.42413 
" style="fill:none;stroke:#ffd92f;stroke-dasharray:1.85,0.8;stroke-dashoffset:0;stroke-width:0.5;"/>
   </g>
   <g id="line2d_23">
    <path clip-path="url(#p30cd7ba948)" d="M 114.000217 38.42413 
L 114.000217 32.567072 
" style="fill:none;stroke:#ffd92f;stroke-dasharray:1.85,0.8;stroke-dashoffset:0;stroke-width:0.5;"/>
   </g>
   <g id="line2d_24">
    <path clip-path="url(#p30cd7ba948)" d="M 114.000217 32.567072 
L 134.400201 32.567072 
" style="fill:none;stroke:#ffd92f;stroke-linecap:round;stroke-width:1.5;"/>
   </g>
   <g id="patch_3">
    <path d="M 32.400279 175.381683 
L 32.400279 25.766376 
" style="fill:none;stroke:#262626;stroke-linecap:square;stroke-linejoin:miter;stroke-width:0.8;"/>
   </g>
   <g id="patch_4">
    <path d="M 154.800186 175.381683 
L 154.800186 25.766376 
" style="fill:none;stroke:#262626;stroke-linecap:square;stroke-linejoin:miter;stroke-width:0.8;"/>
   </g>
   <g id="patch_5">
    <path d="M 32.400279 175.381683 
L 154.800186 175.381683 
" style="fill:none;stroke:#262626;stroke-linecap:square;stroke-linejoin:miter;stroke-width:0.8;"/>
   </g>
   <g id="patch_6">
    <path d="M 32.400279 25.766376 
L 154.800186 25.766376 
" style="fill:none;stroke:#262626;stroke-linecap:square;stroke-linejoin:miter;stroke-width:0.8;"/>
   </g>
   <g id="text_4">
    <!-- a) HDvV -->
    <g style="fill:#262626;" transform="translate(70.112164 19.766376)scale(0.12 -0.12)">
     <defs>
      <path d="M 36 25.875 
C 36 32 36 35.546875 31.796875 39.59375 
C 28.09375 42.984375 23.796875 44 20.40625 44 
C 12.5 44 6.796875 37.625 6.796875 30.890625 
C 6.796875 27.1875 9.796875 27 10.40625 27 
C 11.703125 27 14 27.796875 14 30.59375 
C 14 33.09375 12.09375 34.1875 10.40625 34.1875 
C 10 34.1875 9.5 34.09375 9.203125 34 
C 11.296875 40.53125 16.703125 42.390625 20.203125 42.390625 
C 25.203125 42.390625 30.703125 37.828125 30.703125 29.296875 
L 30.703125 25.5 
C 24.796875 25.296875 17.703125 24.5 12.09375 21.453125 
C 5.796875 17.921875 4 12.84375 4 9 
C 4 1.203125 13 -1 18.296875 -1 
C 23.796875 -1 28.90625 2.109375 31.09375 7.890625 
C 31.296875 3.421875 34.09375 -0.609375 38.5 -0.609375 
C 40.59375 -0.609375 45.90625 0.796875 45.90625 8.796875 
L 45.90625 14.46875 
L 44.09375 14.46875 
L 44.09375 8.703125 
C 44.09375 2.515625 41.40625 1.703125 40.09375 1.703125 
C 36 1.703125 36 6.96875 36 11.4375 
z
M 30.703125 13.859375 
C 30.703125 5.046875 24.5 0.59375 19 0.59375 
C 14 0.59375 10.09375 4.34375 10.09375 9 
C 10.09375 12.046875 11.40625 17.40625 17.203125 20.65625 
C 22 23.390625 27.5 23.796875 30.703125 24 
z
" id="CMR17-97"/>
      <path d="M 26.296875 24.9375 
C 26.296875 32.140625 25.59375 44.359375 19.59375 57.265625 
C 14.796875 67.6875 6.59375 75 5.40625 75 
C 5.09375 75 4.703125 74.890625 4.703125 74.390625 
C 4.703125 74.1875 4.796875 74.09375 4.90625 73.890625 
C 9.703125 68.875 21.90625 56.171875 21.90625 25.046875 
C 21.90625 -6.1875 9.796875 -18.90625 4.90625 -23.90625 
C 4.796875 -24.109375 4.703125 -24.203125 4.703125 -24.40625 
C 4.703125 -24.90625 5.09375 -25 5.40625 -25 
C 6.5 -25 15 -17.609375 19.90625 -6.59375 
C 24.90625 4.515625 26.296875 15.328125 26.296875 24.9375 
z
" id="CMR17-41"/>
      <path d="M 56.09375 60.90625 
C 56.09375 65.390625 57.203125 65.390625 64.09375 65.390625 
L 64.09375 68 
C 61.203125 67.796875 55.90625 67.796875 52.796875 67.796875 
C 49.703125 67.796875 44.40625 67.796875 41.5 68 
L 41.5 65.390625 
C 48.40625 65.390625 49.5 65.390625 49.5 60.90625 
L 49.5 36.59375 
L 19.703125 36.59375 
L 19.703125 60.90625 
C 19.703125 65.390625 20.796875 65.390625 27.703125 65.390625 
L 27.703125 68 
C 24.796875 67.796875 19.5 67.796875 16.40625 67.796875 
C 13.296875 67.796875 8 67.796875 5.09375 68 
L 5.09375 65.390625 
C 12 65.390625 13.09375 65.390625 13.09375 60.90625 
L 13.09375 7.0625 
C 13.09375 2.59375 12 2.59375 5.09375 2.59375 
L 5.09375 0 
C 8 0.1875 13.296875 0.1875 16.40625 0.1875 
C 19.5 0.1875 24.796875 0.1875 27.703125 0 
L 27.703125 2.59375 
C 20.796875 2.59375 19.703125 2.59375 19.703125 7.0625 
L 19.703125 34 
L 49.5 34 
L 49.5 7.0625 
C 49.5 2.59375 48.40625 2.59375 41.5 2.59375 
L 41.5 0 
C 44.40625 0.1875 49.703125 0.1875 52.796875 0.1875 
C 55.90625 0.1875 61.203125 0.1875 64.09375 0 
L 64.09375 2.59375 
C 57.203125 2.59375 56.09375 2.59375 56.09375 7.0625 
z
" id="CMR17-72"/>
      <path d="M 5.203125 68 
L 5.203125 65.390625 
C 12.09375 65.390625 13.203125 65.390625 13.203125 60.90625 
L 13.203125 7.078125 
C 13.203125 2.59375 12.09375 2.59375 5.203125 2.59375 
L 5.203125 0 
L 37 0 
C 53.09375 0 66 14.734375 66 33.4375 
C 66 52.25 53.296875 68 37 68 
z
M 23.796875 2.59375 
C 19.796875 2.59375 19.59375 3.09375 19.59375 6.46875 
L 19.59375 61.5 
C 19.59375 64.890625 19.796875 65.390625 23.796875 65.390625 
L 35 65.390625 
C 43.296875 65.390625 58.59375 60.515625 58.59375 33.4375 
C 58.59375 19.40625 54.5 13.734375 52.59375 11.046875 
C 50.203125 7.96875 44.5 2.59375 35 2.59375 
z
" id="CMR17-68"/>
      <path d="M 39.09375 33.953125 
C 40 36.171875 41.59375 40.1875 47.40625 40.390625 
L 47.40625 43 
C 45.5 42.890625 43 42.796875 41.09375 42.796875 
C 39 42.796875 35.703125 42.796875 33.703125 43 
L 33.703125 40.390625 
C 36.203125 40.1875 37.59375 38.984375 37.59375 36.375 
C 37.59375 35.46875 37.59375 35.265625 37 33.859375 
L 26 5.921875 
L 14.09375 36.0625 
C 13.5 37.375 13.5 37.578125 13.5 37.984375 
C 13.5 40.390625 16.796875 40.390625 18.296875 40.390625 
L 18.296875 43 
C 15.90625 42.796875 11.5 42.796875 9 42.796875 
C 6.296875 42.796875 3.203125 42.796875 1 43 
L 1 40.390625 
C 4.796875 40.390625 6.90625 40.390625 8.09375 37.28125 
L 22.59375 0.6875 
C 23.203125 -0.8125 23.296875 -1 24.203125 -1 
C 25.09375 -1 25.203125 -0.8125 25.796875 0.6875 
z
" id="CMR17-118"/>
      <path d="M 59 58.78125 
C 59.90625 60.984375 61.5 65.296875 68.203125 65.390625 
L 68.203125 68 
C 65.90625 67.796875 63.296875 67.796875 60.796875 67.796875 
C 58.40625 67.796875 54.296875 67.796875 52 68 
L 52 65.390625 
C 57 65.09375 57.203125 61.59375 57.203125 60.984375 
C 57.203125 59.890625 56.90625 59.1875 56.59375 58.390625 
L 36.90625 7 
L 16.296875 60.984375 
C 16 61.6875 15.796875 62.1875 15.796875 62.6875 
C 15.796875 65.390625 19.796875 65.390625 21.90625 65.390625 
L 21.90625 68 
C 18.703125 67.796875 14 67.796875 10.703125 67.796875 
C 8.09375 67.796875 3.40625 67.796875 1 68 
L 1 65.390625 
C 6.796875 65.390625 7.90625 65 9.09375 61.796875 
L 32.90625 -0.40625 
C 33.40625 -1.8125 33.5 -2 34.59375 -2 
C 35.703125 -2 35.796875 -1.8125 36.296875 -0.40625 
z
" id="CMR17-86"/>
     </defs>
     <use transform="scale(0.996264)" xlink:href="#CMR17-97"/>
     <use transform="translate(45.690477 0)scale(0.996264)" xlink:href="#CMR17-41"/>
     <use transform="translate(111.047211 0)scale(0.996264)" xlink:href="#CMR17-72"/>
     <use transform="translate(180.119641 0)scale(0.996264)" xlink:href="#CMR17-68"/>
     <use transform="translate(250.513197 0)scale(0.996264)" xlink:href="#CMR17-118"/>
     <use transform="translate(298.806113 0)scale(0.996264)" xlink:href="#CMR17-86"/>
    </g>
   </g>
   <g id="legend_1">
    <g id="patch_7">
     <path d="M 39.400279 136.370742 
L 76.381614 136.370742 
Q 78.381614 136.370742 78.381614 134.370742 
L 78.381614 32.766376 
Q 78.381614 30.766376 76.381614 30.766376 
L 39.400279 30.766376 
Q 37.400279 30.766376 37.400279 32.766376 
L 37.400279 134.370742 
Q 37.400279 136.370742 39.400279 136.370742 
z
" style="fill:#ffffff;opacity:0.8;stroke:#cccccc;stroke-linejoin:miter;"/>
    </g>
    <g id="text_5">
     <!-- $S=$ -->
     <g style="fill:#262626;" transform="translate(49.291283 42.364814)scale(0.1 -0.1)">
      <defs>
       <path d="M 63.5 69.09375 
C 63.5 70 62.796875 70 62.59375 70 
C 62.203125 70 62.09375 69.890625 60.90625 68.390625 
C 60.296875 67.6875 56.203125 62.53125 56.09375 62.4375 
C 52.796875 68.890625 46.203125 70 42 70 
C 29.296875 70 17.796875 58.46875 17.796875 47.25 
C 17.796875 39.796875 22.296875 35.4375 27.203125 33.75 
C 28.296875 33.34375 34.203125 31.765625 37.203125 31.0625 
C 42.296875 29.671875 43.59375 29.28125 45.703125 27.09375 
C 46.09375 26.59375 48.09375 24.3125 48.09375 19.65625 
C 48.09375 10.421875 39.5 0.890625 29.5 0.890625 
C 21.296875 0.890625 12.203125 4.359375 12.203125 15.484375 
C 12.203125 17.375 12.59375 19.75 12.90625 20.75 
C 12.90625 21.046875 13 21.53125 13 21.734375 
C 13 22.140625 12.796875 22.625 12 22.625 
C 11.09375 22.625 11 22.4375 10.59375 20.75 
L 5.5 0.390625 
C 5.5 0.296875 5.09375 -1 5.09375 -1.109375 
C 5.09375 -2 5.90625 -2 6.09375 -2 
C 6.5 -2 6.59375 -1.90625 7.796875 -0.40625 
L 12.40625 5.5625 
C 14.796875 1.984375 20 -2 29.296875 -2 
C 42.203125 -2 54 10.421875 54 22.828125 
C 54 27 53 30.671875 49.203125 34.34375 
C 47.09375 36.421875 45.296875 36.921875 36.09375 39.3125 
C 29.40625 41.09375 28.5 41.390625 26.703125 42.984375 
C 25 44.671875 23.703125 47.046875 23.703125 50.421875 
C 23.703125 58.765625 32.203125 67.296875 41.703125 67.296875 
C 51.5 67.296875 56.09375 61.34375 56.09375 51.90625 
C 56.09375 49.328125 55.59375 46.65625 55.59375 46.25 
C 55.59375 45.359375 56.40625 45.359375 56.703125 45.359375 
C 57.59375 45.359375 57.703125 45.65625 58.09375 47.25 
z
" id="CMMI12-83"/>
       <path d="M 64.296875 32 
C 65.796875 32 67.296875 32 67.296875 33.6875 
C 67.296875 35.5 65.59375 35.5 63.90625 35.5 
L 8 35.5 
C 6.296875 35.5 4.59375 35.5 4.59375 33.6875 
C 4.59375 32 6.09375 32 7.59375 32 
z
M 63.90625 14.484375 
C 65.59375 14.484375 67.296875 14.484375 67.296875 16.296875 
C 67.296875 18 65.796875 18 64.296875 18 
L 7.59375 18 
C 6.09375 18 4.59375 18 4.59375 16.296875 
C 4.59375 14.484375 6.296875 14.484375 8 14.484375 
z
" id="CMR17-61"/>
      </defs>
      <use transform="scale(0.996264)" xlink:href="#CMMI12-83"/>
      <use transform="translate(93.468448 0)scale(0.996264)" xlink:href="#CMR17-61"/>
     </g>
    </g>
    <g id="line2d_25">
     <path d="M 41.400279 53.542939 
L 61.400279 53.542939 
" style="fill:none;stroke:#ffd92f;stroke-linecap:round;stroke-width:1.5;"/>
    </g>
    <g id="line2d_26"/>
    <g id="text_6">
     <!-- 5 -->
     <g style="fill:#262626;" transform="translate(69.400279 57.042939)scale(0.1 -0.1)">
      <defs>
       <path d="M 11.40625 58.59375 
C 12.40625 58.1875 16.5 56.890625 20.703125 56.890625 
C 30 56.890625 35.09375 61.890625 38 64.6875 
C 38 65.484375 38 66 37.40625 66 
C 37.296875 66 37.09375 66 36.296875 65.59375 
C 32.796875 64.09375 28.703125 63 23.703125 63 
C 20.703125 63 16.203125 63.359375 11.296875 65.484375 
C 10.203125 66 10 66 9.90625 66 
C 9.40625 66 9.296875 65.890625 9.296875 63.90625 
L 9.296875 34.859375 
C 9.296875 33.015625 9.296875 32.5 10.296875 32.5 
C 10.796875 32.5 11 32.703125 11.5 33.421875 
C 14.703125 38.046875 19.09375 40 24.09375 40 
C 27.59375 40 35.09375 37.734375 35.09375 20.203125 
C 35.09375 16.984375 35.09375 11.1875 32.09375 6.59375 
C 29.59375 2.484375 25.703125 0.390625 21.40625 0.390625 
C 14.796875 0.390625 8.09375 4.984375 6.296875 12.6875 
C 6.703125 12.59375 7.5 12.390625 7.90625 12.390625 
C 9.203125 12.390625 11.703125 13.09375 11.703125 16.1875 
C 11.703125 18.890625 9.796875 20 7.90625 20 
C 5.59375 20 4.09375 18.59375 4.09375 15.796875 
C 4.09375 7.09375 11 -2 21.59375 -2 
C 31.90625 -2 41.703125 6.890625 41.703125 19.796875 
C 41.703125 32.09375 33.90625 41.59375 24.203125 41.59375 
C 19.09375 41.59375 14.796875 39.6875 11.40625 36 
z
" id="CMR17-53"/>
      </defs>
      <use transform="scale(0.996264)" xlink:href="#CMR17-53"/>
     </g>
    </g>
    <g id="line2d_27">
     <path d="M 41.400279 68.221064 
L 61.400279 68.221064 
" style="fill:none;stroke:#a6d854;stroke-linecap:round;stroke-width:1.5;"/>
    </g>
    <g id="line2d_28"/>
    <g id="text_7">
     <!-- 4 -->
     <g style="fill:#262626;" transform="translate(69.400279 71.721064)scale(0.1 -0.1)">
      <defs>
       <path d="M 33.59375 64.796875 
C 33.59375 66.890625 33.5 67 31.703125 67 
L 2 19.59375 
L 2 17 
L 27.796875 17 
L 27.796875 7.1875 
C 27.796875 3.59375 27.59375 2.59375 20.59375 2.59375 
L 18.703125 2.59375 
L 18.703125 0 
C 21.90625 0.1875 27.296875 0.1875 30.703125 0.1875 
C 34.09375 0.1875 39.5 0.1875 42.703125 0 
L 42.703125 2.59375 
L 40.796875 2.59375 
C 33.796875 2.59375 33.59375 3.59375 33.59375 7.1875 
L 33.59375 17 
L 43.796875 17 
L 43.796875 19.59375 
L 33.59375 19.59375 
z
M 28.09375 58.171875 
L 28.09375 19.59375 
L 4 19.59375 
z
" id="CMR17-52"/>
      </defs>
      <use transform="scale(0.996264)" xlink:href="#CMR17-52"/>
     </g>
    </g>
    <g id="line2d_29">
     <path d="M 41.400279 82.899189 
L 61.400279 82.899189 
" style="fill:none;stroke:#e78ac3;stroke-linecap:round;stroke-width:1.5;"/>
    </g>
    <g id="line2d_30"/>
    <g id="text_8">
     <!-- 3 -->
     <g style="fill:#262626;" transform="translate(69.400279 86.399189)scale(0.1 -0.1)">
      <defs>
       <path d="M 22.09375 34 
C 31 34 34.90625 26.140625 34.90625 17.09375 
C 34.90625 5.03125 28.5 0.390625 22.703125 0.390625 
C 17.40625 0.390625 8.796875 3.015625 6.09375 10.796875 
C 6.59375 10.59375 7.09375 10.59375 7.59375 10.59375 
C 10 10.59375 11.796875 12.1875 11.796875 14.796875 
C 11.796875 17.6875 9.59375 19 7.59375 19 
C 5.90625 19 3.296875 18.1875 3.296875 14.484375 
C 3.296875 5.234375 12.296875 -2 22.90625 -2 
C 34 -2 42.5 6.75 42.5 16.984375 
C 42.5 26.84375 34.5 34 25 35.09375 
C 32.59375 36.671875 39.90625 43.375 39.90625 52.390625 
C 39.90625 60.25 32 66 23 66 
C 13.90625 66 5.90625 60.34375 5.90625 52.296875 
C 5.90625 48.796875 8.5 48.1875 9.796875 48.1875 
C 11.90625 48.1875 13.703125 49.484375 13.703125 52.09375 
C 13.703125 54.6875 11.90625 56 9.796875 56 
C 9.40625 56 8.90625 56 8.5 55.796875 
C 11.40625 62.484375 19.296875 63.6875 22.796875 63.6875 
C 26.296875 63.6875 32.90625 61.96875 32.90625 52.296875 
C 32.90625 49.484375 32.5 44.546875 29.09375 40.21875 
C 26.09375 36.390625 22.703125 36.1875 19.40625 35.890625 
C 18.90625 35.890625 16.59375 35.6875 16.203125 35.6875 
C 15.5 35.59375 15.09375 35.5 15.09375 34.796875 
C 15.09375 34.09375 15.203125 34 17.203125 34 
z
" id="CMR17-51"/>
      </defs>
      <use transform="scale(0.996264)" xlink:href="#CMR17-51"/>
     </g>
    </g>
    <g id="line2d_31">
     <path d="M 41.400279 97.577314 
L 61.400279 97.577314 
" style="fill:none;stroke:#8da0cb;stroke-linecap:round;stroke-width:1.5;"/>
    </g>
    <g id="line2d_32"/>
    <g id="text_9">
     <!-- 2 -->
     <g style="fill:#262626;" transform="translate(69.400279 101.077314)scale(0.1 -0.1)">
      <defs>
       <path d="M 41.703125 15.46875 
L 39.90625 15.46875 
C 38.90625 8.390625 38.09375 7.1875 37.703125 6.59375 
C 37.203125 5.796875 30 5.796875 28.59375 5.796875 
L 9.40625 5.796875 
C 13 9.6875 20 16.765625 28.5 24.9375 
C 34.59375 30.71875 41.703125 37.5 41.703125 47.390625 
C 41.703125 59.1875 32.296875 66 21.796875 66 
C 10.796875 66 4.09375 56.296875 4.09375 47.296875 
C 4.09375 43.390625 7 42.890625 8.203125 42.890625 
C 9.203125 42.890625 12.203125 43.484375 12.203125 46.984375 
C 12.203125 50.09375 9.59375 51 8.203125 51 
C 7.59375 51 7 50.890625 6.59375 50.6875 
C 8.5 59.1875 14.296875 63.390625 20.40625 63.390625 
C 29.09375 63.390625 34.796875 56.5 34.796875 47.390625 
C 34.796875 38.703125 29.703125 31.21875 24 24.734375 
L 4.09375 2.296875 
L 4.09375 0 
L 39.296875 0 
z
" id="CMR17-50"/>
      </defs>
      <use transform="scale(0.996264)" xlink:href="#CMR17-50"/>
     </g>
    </g>
    <g id="line2d_33">
     <path d="M 41.400279 112.255439 
L 61.400279 112.255439 
" style="fill:none;stroke:#fc8d62;stroke-linecap:round;stroke-width:1.5;"/>
    </g>
    <g id="line2d_34"/>
    <g id="text_10">
     <!-- 1 -->
     <g style="fill:#262626;" transform="translate(69.400279 115.755439)scale(0.1 -0.1)">
      <use transform="scale(0.996264)" xlink:href="#CMR17-49"/>
     </g>
    </g>
    <g id="line2d_35">
     <path d="M 41.400279 126.933564 
L 61.400279 126.933564 
" style="fill:none;stroke:#66c2a5;stroke-linecap:round;stroke-width:1.5;"/>
    </g>
    <g id="line2d_36"/>
    <g id="text_11">
     <!-- 0 -->
     <g style="fill:#262626;" transform="translate(69.400279 130.433564)scale(0.1 -0.1)">
      <defs>
       <path d="M 42 31.84375 
C 42 37.96875 41.90625 48.421875 37.703125 56.453125 
C 34 63.484375 28.09375 66 22.90625 66 
C 18.09375 66 12 63.78125 8.203125 56.5625 
C 4.203125 49.015625 3.796875 39.671875 3.796875 31.84375 
C 3.796875 26.109375 3.90625 17.375 7 9.734375 
C 11.296875 -0.609375 19 -2 22.90625 -2 
C 27.5 -2 34.5 -0.109375 38.59375 9.4375 
C 41.59375 16.375 42 24.5 42 31.84375 
z
M 22.90625 -0.40625 
C 16.5 -0.40625 12.703125 5.125 11.296875 12.75 
C 10.203125 18.6875 10.203125 27.328125 10.203125 32.953125 
C 10.203125 40.6875 10.203125 47.109375 11.5 53.234375 
C 13.40625 61.78125 19 64.390625 22.90625 64.390625 
C 27 64.390625 32.296875 61.671875 34.203125 53.4375 
C 35.5 47.71875 35.59375 40.984375 35.59375 32.953125 
C 35.59375 26.421875 35.59375 18.375 34.40625 12.453125 
C 32.296875 1.5 26.40625 -0.40625 22.90625 -0.40625 
z
" id="CMR17-48"/>
      </defs>
      <use transform="scale(0.996264)" xlink:href="#CMR17-48"/>
     </g>
    </g>
   </g>
  </g>
  <g id="axes_2">
   <g id="patch_8">
    <path d="M 165.600186 175.381683 
L 288.000093 175.381683 
L 288.000093 25.766376 
L 165.600186 25.766376 
z
" style="fill:#ffffff;"/>
   </g>
   <g id="matplotlib.axis_3">
    <g id="xtick_3">
     <g id="text_12">
      <!-- $\mathdefault{0}$ -->
      <g style="fill:#262626;" transform="translate(168.67315 189.300182)scale(0.1 -0.1)">
       <use transform="scale(0.996264)" xlink:href="#CMR17-48"/>
      </g>
     </g>
    </g>
    <g id="xtick_4">
     <g id="text_13">
      <!-- $\mathdefault{5}$ -->
      <g style="fill:#262626;" transform="translate(205.764031 189.300182)scale(0.1 -0.1)">
       <use transform="scale(0.996264)" xlink:href="#CMR17-53"/>
      </g>
     </g>
    </g>
    <g id="xtick_5">
     <g id="text_14">
      <!-- $\mathdefault{10}$ -->
      <g style="fill:#262626;" transform="translate(240.364245 189.300182)scale(0.1 -0.1)">
       <use transform="scale(0.996264)" xlink:href="#CMR17-49"/>
       <use transform="translate(45.690477 0)scale(0.996264)" xlink:href="#CMR17-48"/>
      </g>
     </g>
    </g>
    <g id="xtick_6">
     <g id="text_15">
      <!-- $\mathdefault{15}$ -->
      <g style="fill:#262626;" transform="translate(277.455126 189.300182)scale(0.1 -0.1)">
       <use transform="scale(0.996264)" xlink:href="#CMR17-49"/>
       <use transform="translate(45.690477 0)scale(0.996264)" xlink:href="#CMR17-53"/>
      </g>
     </g>
    </g>
    <g id="text_16">
     <!-- $|B/J|$ -->
     <g style="fill:#262626;" transform="translate(214.272449 202.70934)scale(0.1 -0.1)">
      <defs>
       <path d="M 15.90625 71.390625 
C 15.90625 73.1875 15.90625 75 13.90625 75 
C 11.90625 75 11.90625 73.1875 11.90625 71.390625 
L 11.90625 -21.40625 
C 11.90625 -23.203125 11.90625 -25 13.90625 -25 
C 15.90625 -25 15.90625 -23.203125 15.90625 -21.40625 
z
" id="CMSY10-106"/>
       <path d="M 36.59375 61.171875 
C 37.5 64.890625 37.90625 65.09375 41.796875 65.09375 
L 54.796875 65.09375 
C 66.09375 65.09375 66.09375 55.421875 66.09375 54.515625 
C 66.09375 46.359375 58 36 44.796875 36 
L 30.40625 36 
z
M 53.5 35.1875 
C 64.40625 37.203125 74.296875 44.859375 74.296875 54.109375 
C 74.296875 61.96875 67.40625 68 56.09375 68 
L 24 68 
C 22.09375 68 21.203125 68 21.203125 66.09375 
C 21.203125 65.09375 22.09375 65.09375 23.59375 65.09375 
C 29.703125 65.09375 29.703125 64.28125 29.703125 63.171875 
C 29.703125 62.984375 29.703125 62.375 29.296875 60.859375 
L 15.796875 7.328125 
C 14.90625 3.875 14.703125 2.890625 7.703125 2.890625 
C 5.796875 2.890625 4.796875 2.890625 4.796875 1.09375 
C 4.796875 0 5.40625 0 7.40625 0 
L 41.703125 0 
C 57 0 68.796875 11.453125 68.796875 21.390625 
C 68.796875 29.46875 61.59375 34.390625 53.5 35.1875 
z
M 39.296875 2.890625 
L 25.796875 2.890625 
C 24.40625 2.890625 24.203125 2.890625 23.59375 2.984375 
C 22.5 3.09375 22.40625 3.28125 22.40625 4.078125 
C 22.40625 4.765625 22.59375 5.359375 22.796875 6.234375 
L 29.796875 34 
L 48.59375 34 
C 60.40625 34 60.40625 23.171875 60.40625 22.375 
C 60.40625 12.9375 51.703125 2.890625 39.296875 2.890625 
z
" id="CMMI12-66"/>
       <path d="M 42.90625 71.296875 
C 42.90625 71.390625 43.5 72.890625 43.5 73.09375 
C 43.5 74.296875 42.5 75 41.703125 75 
C 41.203125 75 40.296875 75 39.5 72.796875 
L 6 -21.3125 
C 6 -21.40625 5.40625 -22.90625 5.40625 -23.109375 
C 5.40625 -24.3125 6.40625 -25 7.203125 -25 
C 7.796875 -25 8.703125 -24.90625 9.40625 -22.8125 
z
" id="CMMI12-61"/>
      </defs>
      <use transform="scale(0.996264)" xlink:href="#CMSY10-106"/>
      <use transform="translate(27.674085 0)scale(0.996264)" xlink:href="#CMMI12-66"/>
      <use transform="translate(106.809608 0)scale(0.996264)" xlink:href="#CMMI12-61"/>
      <use transform="translate(155.584527 0)scale(0.996264)" xlink:href="#CMMI12-74"/>
      <use transform="translate(218.727197 0)scale(0.996264)" xlink:href="#CMSY10-106"/>
     </g>
    </g>
   </g>
   <g id="matplotlib.axis_4">
    <g id="ytick_8"/>
    <g id="ytick_9"/>
    <g id="ytick_10"/>
    <g id="ytick_11"/>
    <g id="ytick_12"/>
   </g>
   <g id="line2d_37">
    <path clip-path="url(#p79ad9e1aab)" d="M 171.163818 94.152027 
L 173.434688 93.726963 
L 175.705559 93.3019 
L 177.976429 92.876836 
L 180.247299 92.451772 
L 182.518169 92.026709 
L 184.78904 91.601645 
L 187.05991 91.176582 
L 189.33078 90.751518 
L 191.60165 90.326454 
L 193.872521 89.901391 
L 196.143391 89.476327 
L 198.414261 89.051264 
L 200.685131 88.6262 
L 202.956002 88.201136 
L 205.226872 87.776073 
L 207.497742 87.351009 
L 209.768612 86.925945 
L 212.039483 86.500882 
L 214.310353 86.075818 
L 216.581223 85.650755 
L 218.852094 85.225691 
L 221.122964 84.800627 
L 223.393834 84.375564 
L 225.664704 83.9505 
L 227.935575 83.525437 
L 230.206445 83.100373 
L 232.477315 82.675309 
L 234.748185 82.250246 
L 237.019056 81.825182 
L 239.289926 81.400119 
L 241.560796 80.975055 
L 243.831666 80.549991 
L 246.102537 80.124928 
L 248.373407 79.699864 
L 250.644277 79.2748 
L 252.915147 78.849737 
L 255.186018 78.424673 
L 257.456888 77.99961 
L 259.727758 77.574546 
L 261.998628 77.149482 
L 264.269499 76.724419 
L 266.540369 76.299355 
L 268.811239 75.874292 
L 271.08211 75.449228 
L 273.35298 75.024164 
L 275.62385 74.599101 
L 277.89472 74.174037 
L 280.165591 73.748974 
L 282.436461 73.32391 
" style="fill:none;stroke:#a6cee3;stroke-linecap:round;"/>
   </g>
   <g id="line2d_38">
    <path clip-path="url(#p79ad9e1aab)" d="M 171.163818 94.152027 
L 173.434688 94.577091 
L 175.705559 95.002154 
L 177.976429 95.427218 
L 180.247299 95.852281 
L 182.518169 96.277345 
L 184.78904 96.702409 
L 187.05991 97.127472 
L 189.33078 97.552536 
L 191.60165 97.977599 
L 193.872521 98.402663 
L 196.143391 98.827727 
L 198.414261 99.25279 
L 200.685131 99.677854 
L 202.956002 100.102917 
L 205.226872 100.527981 
L 207.497742 100.953045 
L 209.768612 101.378108 
L 212.039483 101.803172 
L 214.310353 102.228236 
L 216.581223 102.653299 
L 218.852094 103.078363 
L 221.122964 103.503426 
L 223.393834 103.92849 
L 225.664704 104.353554 
L 227.935575 104.778617 
L 230.206445 105.203681 
L 232.477315 105.628744 
L 234.748185 106.053808 
L 237.019056 106.478872 
L 239.289926 106.903935 
L 241.560796 107.328999 
L 243.831666 107.754062 
L 246.102537 108.179126 
L 248.373407 108.60419 
L 250.644277 109.029253 
L 252.915147 109.454317 
L 255.186018 109.879381 
L 257.456888 110.304444 
L 259.727758 110.729508 
L 261.998628 111.154571 
L 264.269499 111.579635 
L 266.540369 112.004699 
L 268.811239 112.429762 
L 271.08211 112.854826 
L 273.35298 113.279889 
L 275.62385 113.704953 
L 277.89472 114.130017 
L 280.165591 114.55508 
L 282.436461 114.980144 
" style="fill:none;stroke:#1f78b4;stroke-linecap:round;"/>
   </g>
   <g id="line2d_39">
    <path clip-path="url(#p79ad9e1aab)" d="M 171.163818 89.986403 
L 173.434688 89.136276 
L 175.705559 88.286149 
L 177.976429 87.436022 
L 180.247299 86.585895 
L 182.518169 85.735767 
L 184.78904 84.88564 
L 187.05991 84.035513 
L 189.33078 83.185386 
L 191.60165 82.335258 
L 193.872521 81.485131 
L 196.143391 80.635004 
L 198.414261 79.784877 
L 200.685131 78.93475 
L 202.956002 78.084622 
L 205.226872 77.234495 
L 207.497742 76.384368 
L 209.768612 75.534241 
L 212.039483 74.684113 
L 214.310353 73.833986 
L 216.581223 72.983859 
L 218.852094 72.133732 
L 221.122964 71.283605 
L 223.393834 70.433477 
L 225.664704 69.58335 
L 227.935575 68.733223 
L 230.206445 67.883096 
L 232.477315 67.032968 
L 234.748185 66.182841 
L 237.019056 65.332714 
L 239.289926 64.482587 
L 241.560796 63.63246 
L 243.831666 62.782332 
L 246.102537 61.932205 
L 248.373407 61.082078 
L 250.644277 60.231951 
L 252.915147 59.381823 
L 255.186018 58.531696 
L 257.456888 57.681569 
L 259.727758 56.831442 
L 261.998628 55.981315 
L 264.269499 55.131187 
L 266.540369 54.28106 
L 268.811239 53.430933 
L 271.08211 52.580806 
L 273.35298 51.730678 
L 275.62385 50.880551 
L 277.89472 50.030424 
L 280.165591 49.180297 
L 282.436461 48.33017 
" style="fill:none;stroke:#b2df8a;stroke-linecap:round;"/>
   </g>
   <g id="line2d_40">
    <path clip-path="url(#p79ad9e1aab)" d="M 171.163818 89.986403 
L 173.434688 90.836531 
L 175.705559 91.686658 
L 177.976429 92.536785 
L 180.247299 93.386912 
L 182.518169 94.23704 
L 184.78904 95.087167 
L 187.05991 95.937294 
L 189.33078 96.787421 
L 191.60165 97.637549 
L 193.872521 98.487676 
L 196.143391 99.337803 
L 198.414261 100.18793 
L 200.685131 101.038057 
L 202.956002 101.888185 
L 205.226872 102.738312 
L 207.497742 103.588439 
L 209.768612 104.438566 
L 212.039483 105.288694 
L 214.310353 106.138821 
L 216.581223 106.988948 
L 218.852094 107.839075 
L 221.122964 108.689202 
L 223.393834 109.53933 
L 225.664704 110.389457 
L 227.935575 111.239584 
L 230.206445 112.089711 
L 232.477315 112.939839 
L 234.748185 113.789966 
L 237.019056 114.640093 
L 239.289926 115.49022 
L 241.560796 116.340347 
L 243.831666 117.190475 
L 246.102537 118.040602 
L 248.373407 118.890729 
L 250.644277 119.740856 
L 252.915147 120.590984 
L 255.186018 121.441111 
L 257.456888 122.291238 
L 259.727758 123.141365 
L 261.998628 123.991492 
L 264.269499 124.84162 
L 266.540369 125.691747 
L 268.811239 126.541874 
L 271.08211 127.392001 
L 273.35298 128.242129 
L 275.62385 129.092256 
L 277.89472 129.942383 
L 280.165591 130.79251 
L 282.436461 131.642637 
" style="fill:none;stroke:#33a02c;stroke-linecap:round;"/>
   </g>
   <g id="line2d_41">
    <path clip-path="url(#p79ad9e1aab)" d="M 171.163818 83.043698 
L 173.434688 81.768507 
L 175.705559 80.493316 
L 177.976429 79.218125 
L 180.247299 77.942934 
L 182.518169 76.667744 
L 184.78904 75.392553 
L 187.05991 74.117362 
L 189.33078 72.842171 
L 191.60165 71.56698 
L 193.872521 70.291789 
L 196.143391 69.016599 
L 198.414261 67.741408 
L 200.685131 66.466217 
L 202.956002 65.191026 
L 205.226872 63.915835 
L 207.497742 62.640644 
L 209.768612 61.365454 
L 212.039483 60.090263 
L 214.310353 58.815072 
L 216.581223 57.539881 
L 218.852094 56.26469 
L 221.122964 54.989499 
L 223.393834 53.714309 
L 225.664704 52.439118 
L 227.935575 51.163927 
L 230.206445 49.888736 
L 232.477315 48.613545 
L 234.748185 47.338354 
L 237.019056 46.063164 
L 239.289926 44.787973 
L 241.560796 43.512782 
L 243.831666 42.237591 
L 246.102537 40.9624 
L 248.373407 39.687209 
L 250.644277 38.412019 
L 252.915147 37.136828 
L 255.186018 35.861637 
L 257.456888 34.586446 
L 259.727758 33.311255 
L 261.998628 32.036064 
L 264.269499 30.760874 
L 266.540369 29.485683 
L 268.811239 28.210492 
L 271.08211 26.935301 
L 273.35298 25.66011 
L 275.62385 24.384919 
L 277.89472 23.109729 
L 280.165591 21.834538 
L 282.436461 20.559347 
" style="fill:none;stroke:#fb9a99;stroke-linecap:round;"/>
   </g>
   <g id="line2d_42">
    <path clip-path="url(#p79ad9e1aab)" d="M 171.163818 83.043698 
L 173.434688 84.318889 
L 175.705559 85.59408 
L 177.976429 86.86927 
L 180.247299 88.144461 
L 182.518169 89.419652 
L 184.78904 90.694843 
L 187.05991 91.970034 
L 189.33078 93.245225 
L 191.60165 94.520415 
L 193.872521 95.795606 
L 196.143391 97.070797 
L 198.414261 98.345988 
L 200.685131 99.621179 
L 202.956002 100.89637 
L 205.226872 102.17156 
L 207.497742 103.446751 
L 209.768612 104.721942 
L 212.039483 105.997133 
L 214.310353 107.272324 
L 216.581223 108.547515 
L 218.852094 109.822705 
L 221.122964 111.097896 
L 223.393834 112.373087 
L 225.664704 113.648278 
L 227.935575 114.923469 
L 230.206445 116.19866 
L 232.477315 117.47385 
L 234.748185 118.749041 
L 237.019056 120.024232 
L 239.289926 121.299423 
L 241.560796 122.574614 
L 243.831666 123.849805 
L 246.102537 125.124995 
L 248.373407 126.400186 
L 250.644277 127.675377 
L 252.915147 128.950568 
L 255.186018 130.225759 
L 257.456888 131.50095 
L 259.727758 132.77614 
L 261.998628 134.051331 
L 264.269499 135.326522 
L 266.540369 136.601713 
L 268.811239 137.876904 
L 271.08211 139.152095 
L 273.35298 140.427285 
L 275.62385 141.702476 
L 277.89472 142.977667 
L 280.165591 144.252858 
L 282.436461 145.528049 
" style="fill:none;stroke:#e31a1c;stroke-linecap:round;"/>
   </g>
   <g id="line2d_43">
    <path clip-path="url(#p79ad9e1aab)" d="M 171.163818 73.32391 
L 173.434688 71.623655 
L 175.705559 69.923401 
L 177.976429 68.223147 
L 180.247299 66.522892 
L 182.518169 64.822638 
L 184.78904 63.122383 
L 187.05991 61.422129 
L 189.33078 59.721874 
L 191.60165 58.02162 
L 193.872521 56.321365 
L 196.143391 54.621111 
L 198.414261 52.920857 
L 200.685131 51.220602 
L 202.956002 49.520348 
L 205.226872 47.820093 
L 207.497742 46.119839 
L 209.768612 44.419584 
L 212.039483 42.71933 
L 214.310353 41.019075 
L 216.581223 39.318821 
L 218.852094 37.618566 
L 221.122964 35.918312 
L 223.393834 34.218058 
L 225.664704 32.517803 
L 227.935575 30.817549 
L 230.206445 29.117294 
L 232.477315 27.41704 
L 234.748185 25.716785 
L 237.019056 24.016531 
L 239.289926 22.316276 
L 241.560796 20.616022 
L 243.831666 18.915768 
L 246.102537 17.215513 
L 248.373407 15.515259 
L 250.644277 13.815004 
L 252.915147 12.11475 
L 255.186018 10.414495 
L 257.456888 8.714241 
L 259.727758 7.013986 
L 261.998628 5.313732 
L 264.269499 3.613478 
L 266.540369 1.913223 
L 268.811239 0.212969 
L 270.431288 -1 
" style="fill:none;stroke:#fdbf6f;stroke-linecap:round;"/>
   </g>
   <g id="line2d_44">
    <path clip-path="url(#p79ad9e1aab)" d="M 171.163818 73.32391 
L 173.434688 75.024164 
L 175.705559 76.724419 
L 177.976429 78.424673 
L 180.247299 80.124928 
L 182.518169 81.825182 
L 184.78904 83.525437 
L 187.05991 85.225691 
L 189.33078 86.925945 
L 191.60165 88.6262 
L 193.872521 90.326454 
L 196.143391 92.026709 
L 198.414261 93.726963 
L 200.685131 95.427218 
L 202.956002 97.127472 
L 205.226872 98.827727 
L 207.497742 100.527981 
L 209.768612 102.228236 
L 212.039483 103.92849 
L 214.310353 105.628744 
L 216.581223 107.328999 
L 218.852094 109.029253 
L 221.122964 110.729508 
L 223.393834 112.429762 
L 225.664704 114.130017 
L 227.935575 115.830271 
L 230.206445 117.530526 
L 232.477315 119.23078 
L 234.748185 120.931034 
L 237.019056 122.631289 
L 239.289926 124.331543 
L 241.560796 126.031798 
L 243.831666 127.732052 
L 246.102537 129.432307 
L 248.373407 131.132561 
L 250.644277 132.832816 
L 252.915147 134.53307 
L 255.186018 136.233325 
L 257.456888 137.933579 
L 259.727758 139.633833 
L 261.998628 141.334088 
L 264.269499 143.034342 
L 266.540369 144.734597 
L 268.811239 146.434851 
L 271.08211 148.135106 
L 273.35298 149.83536 
L 275.62385 151.535615 
L 277.89472 153.235869 
L 280.165591 154.936123 
L 282.436461 156.636378 
" style="fill:none;stroke:#ff7f00;stroke-linecap:round;"/>
   </g>
   <g id="line2d_45">
    <path clip-path="url(#p79ad9e1aab)" d="M 171.163818 60.82704 
L 173.434688 58.701722 
L 175.705559 56.576404 
L 177.976429 54.451086 
L 180.247299 52.325767 
L 182.518169 50.200449 
L 184.78904 48.075131 
L 187.05991 45.949813 
L 189.33078 43.824495 
L 191.60165 41.699177 
L 193.872521 39.573859 
L 196.143391 37.448541 
L 198.414261 35.323223 
L 200.685131 33.197905 
L 202.956002 31.072587 
L 205.226872 28.947269 
L 207.497742 26.821951 
L 209.768612 24.696633 
L 212.039483 22.571315 
L 214.310353 20.445997 
L 216.581223 18.320678 
L 218.852094 16.19536 
L 221.122964 14.070042 
L 223.393834 11.944724 
L 225.664704 9.819406 
L 227.935575 7.694088 
L 230.206445 5.56877 
L 232.477315 3.443452 
L 234.748185 1.318134 
L 237.019056 -0.807184 
L 237.225077 -1 
" style="fill:none;stroke:#cab2d6;stroke-linecap:round;"/>
   </g>
   <g id="line2d_46">
    <path clip-path="url(#p79ad9e1aab)" d="M 171.163818 60.82704 
L 173.434688 62.952358 
L 175.705559 65.077676 
L 177.976429 67.202994 
L 180.247299 69.328312 
L 182.518169 71.45363 
L 184.78904 73.578948 
L 187.05991 75.704266 
L 189.33078 77.829584 
L 191.60165 79.954902 
L 193.872521 82.08022 
L 196.143391 84.205538 
L 198.414261 86.330856 
L 200.685131 88.456174 
L 202.956002 90.581493 
L 205.226872 92.706811 
L 207.497742 94.832129 
L 209.768612 96.957447 
L 212.039483 99.082765 
L 214.310353 101.208083 
L 216.581223 103.333401 
L 218.852094 105.458719 
L 221.122964 107.584037 
L 223.393834 109.709355 
L 225.664704 111.834673 
L 227.935575 113.959991 
L 230.206445 116.085309 
L 232.477315 118.210627 
L 234.748185 120.335945 
L 237.019056 122.461263 
L 239.289926 124.586582 
L 241.560796 126.7119 
L 243.831666 128.837218 
L 246.102537 130.962536 
L 248.373407 133.087854 
L 250.644277 135.213172 
L 252.915147 137.33849 
L 255.186018 139.463808 
L 257.456888 141.589126 
L 259.727758 143.714444 
L 261.998628 145.839762 
L 264.269499 147.96508 
L 266.540369 150.090398 
L 268.811239 152.215716 
L 271.08211 154.341034 
L 273.35298 156.466352 
L 275.62385 158.591671 
L 277.89472 160.716989 
L 280.165591 162.842307 
L 282.436461 164.967625 
" style="fill:none;stroke:#6a3d9a;stroke-linecap:round;"/>
   </g>
   <g id="patch_9">
    <path d="M 165.600186 175.381683 
L 165.600186 25.766376 
" style="fill:none;stroke:#262626;stroke-linecap:square;stroke-linejoin:miter;stroke-width:0.8;"/>
   </g>
   <g id="patch_10">
    <path d="M 288.000093 175.381683 
L 288.000093 25.766376 
" style="fill:none;stroke:#262626;stroke-linecap:square;stroke-linejoin:miter;stroke-width:0.8;"/>
   </g>
   <g id="patch_11">
    <path d="M 165.600186 175.381683 
L 288.000093 175.381683 
" style="fill:none;stroke:#262626;stroke-linecap:square;stroke-linejoin:miter;stroke-width:0.8;"/>
   </g>
   <g id="patch_12">
    <path d="M 165.600186 25.766376 
L 288.000093 25.766376 
" style="fill:none;stroke:#262626;stroke-linecap:square;stroke-linejoin:miter;stroke-width:0.8;"/>
   </g>
   <g id="text_17">
    <!-- b) DE -->
    <g style="fill:#262626;" transform="translate(210.869067 19.766376)scale(0.12 -0.12)">
     <defs>
      <path d="M 15 69 
L 3.09375 67.890625 
L 3.09375 65.296875 
C 9 65.296875 9.90625 64.703125 9.90625 60.046875 
L 9.90625 -0.203125 
L 11.703125 -0.203125 
L 14.59375 6.953125 
C 17.5 2.203125 21.796875 -1 27.59375 -1 
C 37.59375 -1 47.703125 7.859375 47.703125 21.59375 
C 47.703125 34.515625 38.703125 44 28.59375 44 
C 22.40625 44 18 40.671875 15 36.734375 
z
M 15.203125 31.59375 
C 15.203125 33.40625 15.203125 33.703125 16.59375 35.828125 
C 20.5 41.890625 26.09375 42.390625 28 42.390625 
C 31 42.390625 41.296875 40.78125 41.296875 21.6875 
C 41.296875 1.703125 29.5 0.59375 27.09375 0.59375 
C 24 0.59375 19.5 1.796875 16.296875 7.65625 
C 15.203125 9.578125 15.203125 9.78125 15.203125 11.59375 
z
" id="CMR17-98"/>
     </defs>
     <use transform="scale(0.996264)" xlink:href="#CMR17-98"/>
     <use transform="translate(50.89537 0)scale(0.996264)" xlink:href="#CMR17-41"/>
     <use transform="translate(116.252104 0)scale(0.996264)" xlink:href="#CMR17-68"/>
     <use transform="translate(186.64566 0)scale(0.996264)" xlink:href="#CMR17-69"/>
    </g>
   </g>
  </g>
  <g id="axes_3">
   <g id="patch_13">
    <path d="M 298.800093 175.381683 
L 421.2 175.381683 
L 421.2 25.766376 
L 298.800093 25.766376 
z
" style="fill:#ffffff;"/>
   </g>
   <g id="matplotlib.axis_5">
    <g id="xtick_7">
     <g id="text_18">
      <!-- $\mathdefault{1}$ -->
      <g style="fill:#262626;" transform="translate(316.544126 189.300182)scale(0.1 -0.1)">
       <use transform="scale(0.996264)" xlink:href="#CMSY10-0"/>
       <use transform="translate(77.487468 0)scale(0.996264)" xlink:href="#CMR17-49"/>
      </g>
     </g>
    </g>
    <g id="xtick_8">
     <g id="text_19">
      <!-- $\mathdefault{0}$ -->
      <g style="fill:#262626;" transform="translate(357.509379 189.300182)scale(0.1 -0.1)">
       <use transform="scale(0.996264)" xlink:href="#CMR17-48"/>
      </g>
     </g>
    </g>
    <g id="xtick_9">
     <g id="text_20">
      <!-- $\mathdefault{1}$ -->
      <g style="fill:#262626;" transform="translate(394.60026 189.300182)scale(0.1 -0.1)">
       <use transform="scale(0.996264)" xlink:href="#CMR17-49"/>
      </g>
     </g>
    </g>
    <g id="text_21">
     <!-- $Q$ -->
     <g style="fill:#262626;" transform="translate(356.06204 202.155858)scale(0.1 -0.1)">
      <defs>
       <path d="M 42.59375 0.703125 
C 59.796875 7.703125 72.59375 25.84375 72.59375 43.71875 
C 72.59375 60 61.796875 70 47.796875 70 
C 26.40625 70 4.796875 47.265625 4.796875 24.46875 
C 4.796875 8.828125 15.203125 -2 29.703125 -2 
C 33.09375 -2 36.40625 -1.5 39.59375 -0.5 
C 39 -6.34375 39 -6.828125 39 -8.65625 
C 39 -11.5 39 -19 47 -19 
C 58.90625 -19 63.296875 -0.609375 63.296875 0 
C 63.296875 0.59375 62.90625 1 62.40625 1 
C 61.796875 1 61.59375 0.5 61.296875 -0.609375 
C 59.09375 -6.734375 53.90625 -10.203125 49.5 -10.203125 
C 44.40625 -10.203125 43.09375 -6.828125 42.59375 0.703125 
z
M 24.59375 1.203125 
C 16.703125 3.953125 12.90625 12.375 12.90625 21.5 
C 12.90625 28.421875 15.5 41.546875 22.09375 51.515625 
C 29.5 62.765625 39.40625 67.796875 47.203125 67.796875 
C 57.59375 67.796875 64.59375 59.5 64.59375 46.671875 
C 64.59375 39.375 61.09375 14.890625 42.296875 3.75 
C 41.796875 8.921875 40.40625 15 33.796875 15 
C 28.40625 15 23.796875 9.53125 23.796875 4.5625 
C 23.796875 3.4375 24.203125 1.921875 24.59375 1.203125 
z
M 39.796875 2.421875 
C 36.203125 0.796875 33.09375 0.1875 30.296875 0.1875 
C 29.296875 0.1875 25.796875 0.1875 25.796875 4.65625 
C 25.796875 8.3125 29.296875 12.984375 33.796875 12.984375 
C 38.796875 12.984375 39.90625 9.53125 39.90625 4.453125 
C 39.90625 3.84375 39.90625 3.03125 39.796875 2.421875 
z
" id="CMMI12-81"/>
      </defs>
      <use transform="scale(0.996264)" xlink:href="#CMMI12-81"/>
     </g>
    </g>
   </g>
   <g id="matplotlib.axis_6">
    <g id="ytick_13"/>
    <g id="ytick_14"/>
    <g id="ytick_15"/>
    <g id="ytick_16"/>
    <g id="ytick_17"/>
    <g id="ytick_18"/>
   </g>
   <g id="line2d_47">
    <path clip-path="url(#p48548c9544)" d="M 342.430904 -1 
L 342.578572 -0.01869 
L 343.702538 7.204098 
L 344.826504 14.172145 
L 345.95047 20.875168 
L 347.074436 27.300379 
L 348.198403 33.431766 
L 349.322369 39.249172 
L 350.446335 44.727123 
L 351.570301 49.833393 
L 352.694267 54.52737 
L 353.818233 58.758432 
L 354.942199 62.464864 
L 356.066165 65.574317 
L 357.190131 68.007294 
L 358.314097 69.685174 
L 359.438063 70.542829 
L 360.56203 70.542829 
L 361.685996 69.685174 
L 362.809962 68.007294 
L 363.933928 65.574317 
L 365.057894 62.464864 
L 366.18186 58.758432 
L 367.305826 54.52737 
L 368.429792 49.833393 
L 369.553758 44.727123 
L 370.677724 39.249172 
L 371.80169 33.431766 
L 372.925656 27.300379 
L 374.049623 20.875168 
L 375.173589 14.172145 
L 376.297555 7.204098 
L 377.421521 -0.01869 
L 377.569188 -1 
" style="fill:none;stroke:#a6cee3;stroke-linecap:round;"/>
   </g>
   <g id="line2d_48">
    <path clip-path="url(#p48548c9544)" d="M 304.363725 91.589334 
L 305.487691 96.765117 
L 306.611657 101.743005 
L 307.735623 106.523122 
L 308.859589 111.105601 
L 309.983556 115.490586 
L 311.107522 119.678236 
L 312.231488 123.668722 
L 313.355454 127.462232 
L 314.47942 131.058972 
L 315.603386 134.459169 
L 316.727352 137.663072 
L 317.851318 140.670953 
L 318.975284 143.483116 
L 320.09925 146.099898 
L 321.223216 148.52167 
L 322.347183 150.748847 
L 323.471149 152.781892 
L 324.595115 154.621326 
L 325.719081 156.267729 
L 326.843047 157.721761 
L 327.967013 158.984162 
L 329.090979 160.055778 
L 330.214945 160.937569 
L 331.338911 161.630634 
L 332.462877 162.136237 
L 333.586843 162.455836 
L 334.710809 162.59112 
L 335.834776 162.544062 
L 336.958742 162.316968 
L 338.082708 161.91256 
L 339.206674 161.334061 
L 340.33064 160.585316 
L 341.454606 159.670942 
L 342.578572 158.596517 
L 343.702538 157.368833 
L 344.826504 155.996216 
L 345.95047 154.48895 
L 347.074436 152.859822 
L 348.198403 151.124844 
L 349.322369 149.304173 
L 350.446335 147.423285 
L 351.570301 145.514403 
L 352.694267 143.618141 
L 353.818233 141.785121 
L 354.942199 140.077057 
L 356.066165 138.566299 
L 357.190131 137.332342 
L 358.314097 136.453809 
L 359.438063 135.995827 
L 360.56203 135.995827 
L 361.685996 136.453809 
L 362.809962 137.332342 
L 363.933928 138.566299 
L 365.057894 140.077057 
L 366.18186 141.785121 
L 367.305826 143.618141 
L 368.429792 145.514403 
L 369.553758 147.423285 
L 370.677724 149.304173 
L 371.80169 151.124844 
L 372.925656 152.859822 
L 374.049623 154.48895 
L 375.173589 155.996216 
L 376.297555 157.368833 
L 377.421521 158.596517 
L 378.545487 159.670942 
L 379.669453 160.585316 
L 380.793419 161.334061 
L 381.917385 161.91256 
L 383.041351 162.316968 
L 384.165317 162.544062 
L 385.289283 162.59112 
L 386.41325 162.455836 
L 387.537216 162.136237 
L 388.661182 161.630634 
L 389.785148 160.937569 
L 390.909114 160.055778 
L 392.03308 158.984162 
L 393.157046 157.721761 
L 394.281012 156.267729 
L 395.404978 154.621326 
L 396.528944 152.781892 
L 397.65291 150.748847 
L 398.776877 148.52167 
L 399.900843 146.099898 
L 401.024809 143.483116 
L 402.148775 140.670953 
L 403.272741 137.663072 
L 404.396707 134.459169 
L 405.520673 131.058972 
L 406.644639 127.462232 
L 407.768605 123.668722 
L 408.892571 119.678236 
L 410.016537 115.490586 
L 411.140504 111.105601 
L 412.26447 106.523122 
L 413.388436 101.743005 
L 414.512402 96.765117 
L 415.636368 91.589334 
" style="fill:none;stroke:#1f78b4;stroke-linecap:round;"/>
   </g>
   <g id="line2d_49">
    <path clip-path="url(#p48548c9544)" d="M 349.3086 -1 
L 349.322369 -0.942327 
L 350.446335 3.376913 
L 351.570301 7.288224 
L 352.694267 10.771545 
L 353.818233 13.806535 
L 354.942199 16.373231 
L 356.066165 18.452871 
L 357.190131 20.028819 
L 358.314097 21.087517 
L 359.438063 21.61936 
L 360.56203 21.61936 
L 361.685996 21.087517 
L 362.809962 20.028819 
L 363.933928 18.452871 
L 365.057894 16.373231 
L 366.18186 13.806535 
L 367.305826 10.771545 
L 368.429792 7.288224 
L 369.553758 3.376913 
L 370.677724 -0.942327 
L 370.691493 -1 
" style="fill:none;stroke:#b2df8a;stroke-linecap:round;"/>
   </g>
   <g id="line2d_50">
    <path clip-path="url(#p48548c9544)" d="M 304.363725 82.026168 
L 305.487691 87.334525 
L 306.611657 92.450154 
L 307.735623 97.373476 
L 308.859589 102.104946 
L 309.983556 106.645054 
L 311.107522 110.994333 
L 312.231488 115.153358 
L 313.355454 119.122752 
L 314.47942 122.903194 
L 315.603386 126.495421 
L 316.727352 129.900237 
L 317.851318 133.118517 
L 318.975284 136.15122 
L 320.09925 138.999394 
L 321.223216 141.664188 
L 322.347183 144.146865 
L 323.471149 146.448815 
L 324.595115 148.571568 
L 325.719081 150.516814 
L 326.843047 152.286423 
L 327.967013 153.882467 
L 329.090979 155.307246 
L 330.214945 156.563318 
L 331.338911 157.653532 
L 332.462877 158.58107 
L 333.586843 159.349486 
L 334.710809 159.962763 
L 335.834776 160.425364 
L 336.958742 160.742301 
L 338.082708 160.919207 
L 339.206674 160.962417 
L 340.33064 160.879058 
L 341.454606 160.677148 
L 342.578572 160.365698 
L 343.702538 159.95482 
L 344.826504 159.455838 
L 345.95047 158.881378 
L 347.074436 158.245449 
L 348.198403 157.563486 
L 349.322369 156.852333 
L 350.446335 156.130155 
L 351.570301 155.416233 
L 352.694267 154.730626 
L 353.818233 154.093678 
L 354.942199 153.52535 
L 356.066165 153.044405 
L 357.190131 152.667477 
L 358.314097 152.408126 
L 359.438063 152.275957 
L 360.56203 152.275957 
L 361.685996 152.408126 
L 362.809962 152.667477 
L 363.933928 153.044405 
L 365.057894 153.52535 
L 366.18186 154.093678 
L 367.305826 154.730626 
L 368.429792 155.416233 
L 369.553758 156.130155 
L 370.677724 156.852333 
L 371.80169 157.563486 
L 372.925656 158.245449 
L 374.049623 158.881378 
L 375.173589 159.455838 
L 376.297555 159.95482 
L 377.421521 160.365698 
L 378.545487 160.677148 
L 379.669453 160.879058 
L 380.793419 160.962417 
L 381.917385 160.919207 
L 383.041351 160.742301 
L 384.165317 160.425364 
L 385.289283 159.962763 
L 386.41325 159.349486 
L 387.537216 158.58107 
L 388.661182 157.653532 
L 389.785148 156.563318 
L 390.909114 155.307246 
L 392.03308 153.882467 
L 393.157046 152.286423 
L 394.281012 150.516814 
L 395.404978 148.571568 
L 396.528944 146.448815 
L 397.65291 144.146865 
L 398.776877 141.664188 
L 399.900843 138.999394 
L 401.024809 136.15122 
L 402.148775 133.118517 
L 403.272741 129.900237 
L 404.396707 126.495421 
L 405.520673 122.903194 
L 406.644639 119.122752 
L 407.768605 115.153358 
L 408.892571 110.994333 
L 410.016537 106.645054 
L 411.140504 102.104946 
L 412.26447 97.373476 
L 413.388436 92.450154 
L 414.512402 87.334525 
L 415.636368 82.026168 
" style="fill:none;stroke:#33a02c;stroke-linecap:round;"/>
   </g>
   <g id="line2d_51">
    <path clip-path="url(#p48548c9544)" style="fill:none;stroke:#fb9a99;stroke-linecap:round;"/>
   </g>
   <g id="line2d_52">
    <path clip-path="url(#p48548c9544)" d="M 304.363725 65.683057 
L 305.487691 71.189061 
L 306.611657 76.509164 
L 307.735623 81.644115 
L 308.859589 86.594717 
L 309.983556 91.361831 
L 311.107522 95.946374 
L 312.231488 100.349335 
L 313.355454 104.571769 
L 314.47942 108.614815 
L 315.603386 112.479691 
L 316.727352 116.16771 
L 317.851318 119.680284 
L 318.975284 123.018935 
L 320.09925 126.185301 
L 321.223216 129.18115 
L 322.347183 132.00839 
L 323.471149 134.669079 
L 324.595115 137.165445 
L 325.719081 139.499891 
L 326.843047 141.675018 
L 327.967013 143.69364 
L 329.090979 145.558799 
L 330.214945 147.273786 
L 331.338911 148.842161 
L 332.462877 150.267774 
L 333.586843 151.554784 
L 334.710809 152.707683 
L 335.834776 153.731315 
L 336.958742 154.630898 
L 338.082708 155.412042 
L 339.206674 156.080763 
L 340.33064 156.643498 
L 341.454606 157.107105 
L 342.578572 157.478868 
L 343.702538 157.766478 
L 344.826504 157.978016 
L 345.95047 158.121906 
L 347.074436 158.206865 
L 348.198403 158.241825 
L 349.322369 158.235832 
L 350.446335 158.19793 
L 351.570301 158.137016 
L 352.694267 158.06168 
L 353.818233 157.98002 
L 354.942199 157.899461 
L 356.066165 157.82656 
L 357.190131 157.766821 
L 358.314097 157.724536 
L 359.438063 157.702646 
L 360.56203 157.702646 
L 361.685996 157.724536 
L 362.809962 157.766821 
L 363.933928 157.82656 
L 365.057894 157.899461 
L 366.18186 157.98002 
L 367.305826 158.06168 
L 368.429792 158.137016 
L 369.553758 158.19793 
L 370.677724 158.235832 
L 371.80169 158.241825 
L 372.925656 158.206865 
L 374.049623 158.121906 
L 375.173589 157.978016 
L 376.297555 157.766478 
L 377.421521 157.478868 
L 378.545487 157.107105 
L 379.669453 156.643498 
L 380.793419 156.080763 
L 381.917385 155.412042 
L 383.041351 154.630898 
L 384.165317 153.731315 
L 385.289283 152.707683 
L 386.41325 151.554784 
L 387.537216 150.267774 
L 388.661182 148.842161 
L 389.785148 147.273786 
L 390.909114 145.558799 
L 392.03308 143.69364 
L 393.157046 141.675018 
L 394.281012 139.499891 
L 395.404978 137.165445 
L 396.528944 134.669079 
L 397.65291 132.00839 
L 398.776877 129.18115 
L 399.900843 126.185301 
L 401.024809 123.018935 
L 402.148775 119.680284 
L 403.272741 116.16771 
L 404.396707 112.479691 
L 405.520673 108.614815 
L 406.644639 104.571769 
L 407.768605 100.349335 
L 408.892571 95.946374 
L 410.016537 91.361831 
L 411.140504 86.594717 
L 412.26447 81.644115 
L 413.388436 76.509164 
L 414.512402 71.189061 
L 415.636368 65.683057 
" style="fill:none;stroke:#e31a1c;stroke-linecap:round;"/>
   </g>
   <g id="line2d_53">
    <path clip-path="url(#p48548c9544)" style="fill:none;stroke:#fdbf6f;stroke-linecap:round;"/>
   </g>
   <g id="line2d_54">
    <path clip-path="url(#p48548c9544)" d="M 304.363725 42.056656 
L 305.487691 47.800048 
L 306.611657 53.364423 
L 307.735623 58.750776 
L 308.859589 63.96016 
L 309.983556 68.993688 
L 311.107522 73.852542 
L 312.231488 78.537973 
L 313.355454 83.051307 
L 314.47942 87.39395 
L 315.603386 91.567394 
L 316.727352 95.573221 
L 317.851318 99.413108 
L 318.975284 103.088834 
L 320.09925 106.602287 
L 321.223216 109.955469 
L 322.347183 113.150503 
L 323.471149 116.189639 
L 324.595115 119.075261 
L 325.719081 121.809896 
L 326.843047 124.396218 
L 327.967013 126.837053 
L 329.090979 129.135392 
L 330.214945 131.294388 
L 331.338911 133.317369 
L 332.462877 135.207834 
L 333.586843 136.969464 
L 334.710809 138.606118 
L 335.834776 140.121832 
L 336.958742 141.520821 
L 338.082708 142.807468 
L 339.206674 143.986319 
L 340.33064 145.062069 
L 341.454606 146.039546 
L 342.578572 146.923689 
L 343.702538 147.719526 
L 344.826504 148.432139 
L 345.95047 149.066629 
L 347.074436 149.628075 
L 348.198403 150.121487 
L 349.322369 150.551753 
L 350.446335 150.923587 
L 351.570301 151.241465 
L 352.694267 151.50957 
L 353.818233 151.731726 
L 354.942199 151.911345 
L 356.066165 152.051364 
L 357.190131 152.154203 
L 358.314097 152.221714 
L 359.438063 152.255153 
L 360.56203 152.255153 
L 361.685996 152.221714 
L 362.809962 152.154203 
L 363.933928 152.051364 
L 365.057894 151.911345 
L 366.18186 151.731726 
L 367.305826 151.50957 
L 368.429792 151.241465 
L 369.553758 150.923587 
L 370.677724 150.551753 
L 371.80169 150.121487 
L 372.925656 149.628075 
L 374.049623 149.066629 
L 375.173589 148.432139 
L 376.297555 147.719526 
L 377.421521 146.923689 
L 378.545487 146.039546 
L 379.669453 145.062069 
L 380.793419 143.986319 
L 381.917385 142.807468 
L 383.041351 141.520821 
L 384.165317 140.121832 
L 385.289283 138.606118 
L 386.41325 136.969464 
L 387.537216 135.207834 
L 388.661182 133.317369 
L 389.785148 131.294388 
L 390.909114 129.135392 
L 392.03308 126.837053 
L 393.157046 124.396218 
L 394.281012 121.809896 
L 395.404978 119.075261 
L 396.528944 116.189639 
L 397.65291 113.150503 
L 398.776877 109.955469 
L 399.900843 106.602287 
L 401.024809 103.088834 
L 402.148775 99.413108 
L 403.272741 95.573221 
L 404.396707 91.567394 
L 405.520673 87.39395 
L 406.644639 83.051307 
L 407.768605 78.537973 
L 408.892571 73.852542 
L 410.016537 68.993688 
L 411.140504 63.96016 
L 412.26447 58.750776 
L 413.388436 53.364423 
L 414.512402 47.800048 
L 415.636368 42.056656 
" style="fill:none;stroke:#ff7f00;stroke-linecap:round;"/>
   </g>
   <g id="line2d_55">
    <path clip-path="url(#p48548c9544)" style="fill:none;stroke:#cab2d6;stroke-linecap:round;"/>
   </g>
   <g id="line2d_56">
    <path clip-path="url(#p48548c9544)" d="M 304.363725 10.595516 
L 305.487691 16.593111 
L 306.611657 22.417573 
L 307.735623 28.070014 
L 308.859589 33.551601 
L 309.983556 38.863555 
L 311.107522 44.007158 
L 312.231488 48.983752 
L 313.355454 53.794743 
L 314.47942 58.441607 
L 315.603386 62.925886 
L 316.727352 67.249197 
L 317.851318 71.413231 
L 318.975284 75.419759 
L 320.09925 79.27063 
L 321.223216 82.967779 
L 322.347183 86.513224 
L 323.471149 89.909072 
L 324.595115 93.157518 
L 325.719081 96.260849 
L 326.843047 99.221442 
L 327.967013 102.041767 
L 329.090979 104.724385 
L 330.214945 107.271948 
L 331.338911 109.687198 
L 332.462877 111.972961 
L 333.586843 114.132146 
L 334.710809 116.167742 
L 335.834776 118.082805 
L 336.958742 119.880457 
L 338.082708 121.563872 
L 339.206674 123.136269 
L 340.33064 124.600895 
L 341.454606 125.961016 
L 342.578572 127.219894 
L 343.702538 128.380775 
L 344.826504 129.446867 
L 345.95047 130.421318 
L 347.074436 131.307197 
L 348.198403 132.107464 
L 349.322369 132.824953 
L 350.446335 133.462342 
L 351.570301 134.022129 
L 352.694267 134.506609 
L 353.818233 134.91785 
L 354.942199 135.25767 
L 356.066165 135.527618 
L 357.190131 135.728955 
L 358.314097 135.86264 
L 359.438063 135.92932 
L 360.56203 135.92932 
L 361.685996 135.86264 
L 362.809962 135.728955 
L 363.933928 135.527618 
L 365.057894 135.25767 
L 366.18186 134.91785 
L 367.305826 134.506609 
L 368.429792 134.022129 
L 369.553758 133.462342 
L 370.677724 132.824953 
L 371.80169 132.107464 
L 372.925656 131.307197 
L 374.049623 130.421318 
L 375.173589 129.446867 
L 376.297555 128.380775 
L 377.421521 127.219894 
L 378.545487 125.961016 
L 379.669453 124.600895 
L 380.793419 123.136269 
L 381.917385 121.563872 
L 383.041351 119.880457 
L 384.165317 118.082805 
L 385.289283 116.167742 
L 386.41325 114.132146 
L 387.537216 111.972961 
L 388.661182 109.687198 
L 389.785148 107.271948 
L 390.909114 104.724385 
L 392.03308 102.041767 
L 393.157046 99.221442 
L 394.281012 96.260849 
L 395.404978 93.157518 
L 396.528944 89.909072 
L 397.65291 86.513224 
L 398.776877 82.967779 
L 399.900843 79.27063 
L 401.024809 75.419759 
L 402.148775 71.413231 
L 403.272741 67.249197 
L 404.396707 62.925886 
L 405.520673 58.441607 
L 406.644639 53.794743 
L 407.768605 48.983752 
L 408.892571 44.007158 
L 410.016537 38.863555 
L 411.140504 33.551601 
L 412.26447 28.070014 
L 413.388436 22.417573 
L 414.512402 16.593111 
L 415.636368 10.595516 
" style="fill:none;stroke:#6a3d9a;stroke-linecap:round;"/>
   </g>
   <g id="patch_14">
    <path d="M 298.800093 175.381683 
L 298.800093 25.766376 
" style="fill:none;stroke:#262626;stroke-linecap:square;stroke-linejoin:miter;stroke-width:0.8;"/>
   </g>
   <g id="patch_15">
    <path d="M 421.2 175.381683 
L 421.2 25.766376 
" style="fill:none;stroke:#262626;stroke-linecap:square;stroke-linejoin:miter;stroke-width:0.8;"/>
   </g>
   <g id="patch_16">
    <path d="M 298.800093 175.381683 
L 421.2 175.381683 
" style="fill:none;stroke:#262626;stroke-linecap:square;stroke-linejoin:miter;stroke-width:0.8;"/>
   </g>
   <g id="patch_17">
    <path d="M 298.800093 25.766376 
L 421.2 25.766376 
" style="fill:none;stroke:#262626;stroke-linecap:square;stroke-linejoin:miter;stroke-width:0.8;"/>
   </g>
   <g id="text_22">
    <!-- c) PKS -->
    <g style="fill:#262626;" transform="translate(341.387395 19.766376)scale(0.12 -0.12)">
     <defs>
      <path d="M 19.796875 32 
L 35.796875 32 
C 48.703125 32 58.09375 40.359375 58.09375 49.796875 
C 58.09375 59.234375 48.90625 68 35.796875 68 
L 5.203125 68 
L 5.203125 65.390625 
C 12.09375 65.390625 13.203125 65.390625 13.203125 60.921875 
L 13.203125 7.078125 
C 13.203125 2.59375 12.09375 2.59375 5.203125 2.59375 
L 5.203125 0 
C 8.09375 0.1875 13.40625 0.1875 16.5 0.1875 
C 19.59375 0.1875 24.90625 0.1875 27.796875 0 
L 27.796875 2.59375 
C 20.90625 2.59375 19.796875 2.59375 19.796875 7.078125 
z
M 19.59375 34.09375 
L 19.59375 61.515625 
C 19.59375 64.890625 19.796875 65.390625 23.796875 65.390625 
L 33.90625 65.390625 
C 46.796875 65.390625 50.5 58.046875 50.5 49.796875 
C 50.5 40.75 46.09375 34.09375 33.90625 34.09375 
z
" id="CMR17-80"/>
      <path d="M 36.90625 41.703125 
L 54.203125 58.921875 
C 57.796875 62.40625 61.59375 65.1875 67.203125 65.390625 
L 67.203125 68 
C 65.203125 67.890625 62.703125 67.796875 60.703125 67.796875 
C 58 67.796875 53.296875 67.796875 50.703125 68 
L 50.703125 65.390625 
C 53.296875 65.1875 53.703125 63.390625 53.703125 62.703125 
C 53.703125 62 53.296875 60.90625 52.90625 60.3125 
L 19.703125 27.171875 
L 19.703125 60.90625 
C 19.703125 65.390625 20.796875 65.390625 27.703125 65.390625 
L 27.703125 68 
C 24.796875 67.796875 19.5 67.796875 16.40625 67.796875 
C 13.296875 67.796875 8 67.796875 5.09375 68 
L 5.09375 65.390625 
C 12 65.390625 13.09375 65.390625 13.09375 60.90625 
L 13.09375 7.078125 
C 13.09375 2.59375 12 2.59375 5.09375 2.59375 
L 5.09375 0 
C 8 0.1875 13.296875 0.1875 16.40625 0.1875 
C 19.5 0.1875 24.796875 0.1875 27.703125 0 
L 27.703125 2.59375 
C 20.796875 2.59375 19.703125 2.59375 19.703125 7.078125 
L 19.703125 24.6875 
L 32.5 37.328125 
L 51.40625 8.46875 
C 52 7.46875 52.703125 6.171875 52.703125 5.1875 
C 52.703125 2.59375 49.90625 2.59375 48.59375 2.59375 
L 48.59375 0 
C 51.796875 0.1875 56.40625 0.1875 59.703125 0.1875 
C 62.09375 0.1875 66.203125 0.1875 68.5 0 
L 68.5 2.59375 
C 63.703125 2.59375 62.203125 3.1875 59.203125 7.765625 
z
" id="CMR17-75"/>
      <path d="M 43.796875 67.984375 
C 43.796875 69.796875 43.703125 69.890625 43.09375 69.890625 
C 42.5 69.890625 42.296875 69.484375 41.90625 68.59375 
L 38.90625 61.953125 
C 35.09375 67.5 29.296875 70 23 70 
C 12.796875 70 4.59375 61.84375 4.59375 51.578125 
C 4.59375 48.453125 5.296875 44.015625 8.703125 39.78125 
C 12.40625 35.15625 15.90625 34.34375 23.90625 32.234375 
C 26.90625 31.421875 31.90625 30.109375 32.90625 29.703125 
C 38.59375 27.296875 41.59375 21.25 41.59375 15.609375 
C 41.59375 8.34375 36.5 0.59375 27.796875 0.59375 
C 17.09375 0.59375 7.09375 6.640625 6.40625 20.75 
C 6.296875 22.359375 6.203125 22.453125 5.5 22.453125 
C 4.703125 22.453125 4.59375 22.359375 4.59375 20.34375 
L 4.59375 0 
C 4.59375 -1.8125 4.703125 -1.90625 5.296875 -1.90625 
C 6 -1.90625 6.203125 -1.40625 7.59375 1.703125 
C 7.703125 2 7.703125 2.203125 9.59375 6.03125 
C 14.59375 -0.609375 23 -2 27.796875 -2 
C 38.703125 -2 46.40625 7.140625 46.40625 17.828125 
C 46.40625 23.0625 44.5 27.09375 43.40625 28.90625 
C 39.203125 35.359375 34.703125 36.5625 29.90625 37.765625 
C 29.203125 38.078125 29 38.078125 23.40625 39.484375 
C 18 40.890625 15.703125 41.59375 13.203125 44.3125 
C 10.40625 47.4375 9.40625 50.671875 9.40625 53.890625 
C 9.40625 60.4375 14.59375 67.59375 23.09375 67.59375 
C 33.703125 67.59375 40.296875 60.03125 41.796875 47.4375 
C 42.09375 45.625 42.203125 45.53125 42.90625 45.53125 
C 43.796875 45.53125 43.796875 45.828125 43.796875 47.546875 
z
" id="CMR17-83"/>
     </defs>
     <use transform="scale(0.996264)" xlink:href="#CMR17-99"/>
     <use transform="translate(40.48566 0)scale(0.996264)" xlink:href="#CMR17-41"/>
     <use transform="translate(105.842395 0)scale(0.996264)" xlink:href="#CMR17-80"/>
     <use transform="translate(168.428695 0)scale(0.996264)" xlink:href="#CMR17-75"/>
     <use transform="translate(240.103472 0)scale(0.996264)" xlink:href="#CMR17-83"/>
    </g>
   </g>
   <g id="legend_2">
    <g id="patch_18">
     <path d="M 342.014428 132.706369 
L 377.985665 132.706369 
Q 379.985665 132.706369 379.985665 130.706369 
L 379.985665 32.766376 
Q 379.985665 30.766376 377.985665 30.766376 
L 342.014428 30.766376 
Q 340.014428 30.766376 340.014428 32.766376 
L 340.014428 130.706369 
Q 340.014428 132.706369 342.014428 132.706369 
z
" style="fill:#ffffff;opacity:0.8;stroke:#cccccc;stroke-linejoin:miter;"/>
    </g>
    <g id="text_23">
     <!-- $S=$ -->
     <g style="fill:#262626;" transform="translate(351.400383 42.364814)scale(0.1 -0.1)">
      <use transform="scale(0.996264)" xlink:href="#CMMI12-83"/>
      <use transform="translate(93.468448 0)scale(0.996264)" xlink:href="#CMR17-61"/>
     </g>
    </g>
    <g id="line2d_57">
     <path d="M 344.014428 54.361363 
L 364.014428 54.361363 
" style="fill:none;stroke:#6a3d9a;stroke-linecap:round;"/>
    </g>
    <g id="line2d_58"/>
    <g id="text_24">
     <!-- $\tfrac{9}{2}$ -->
     <g style="fill:#262626;" transform="translate(372.014428 57.861363)scale(0.1 -0.1)">
      <defs>
       <path d="M 35.203125 29.234375 
C 35.203125 7 26.09375 0.390625 18.59375 0.390625 
C 16.296875 0.390625 10.703125 0.671875 8.40625 4.390625 
C 11 4 12.90625 5.390625 12.90625 7.890625 
C 12.90625 10.59375 10.703125 11.5 9.296875 11.5 
C 8.40625 11.5 5.703125 11.09375 5.703125 7.6875 
C 5.703125 1.0625 11.59375 -2 18.796875 -2 
C 30.296875 -2 42 10.390625 42 32.65625 
C 42 60.265625 30.796875 66 23.203125 66 
C 13.296875 66 3.796875 57.25 3.796875 43.75 
C 3.796875 31.25 11.90625 22 22.09375 22 
C 30.5 22 34.203125 29.84375 35.203125 33.15625 
z
M 22.296875 23.59375 
C 19.59375 23.59375 15.796875 24.09375 12.703125 30.140625 
C 10.59375 34.078125 10.59375 38.703125 10.59375 43.640625 
C 10.59375 49.59375 10.59375 53.71875 13.40625 58.15625 
C 14.796875 60.265625 17.40625 63.6875 23.203125 63.6875 
C 35 63.6875 35 45.453125 35 41.421875 
C 35 34.265625 31.796875 23.59375 22.296875 23.59375 
z
" id="CMR17-57"/>
      </defs>
      <use transform="translate(0 39.226102)scale(0.697382)" xlink:href="#CMR17-57"/>
      <use transform="translate(0 -34.355253)scale(0.697382)" xlink:href="#CMR17-50"/>
      <path d="M 0 24.410885 
L 31.983182 24.410885 
L 31.983182 25.40233 
L 0 25.40233 
L 0 24.410885 
z
"/>
     </g>
    </g>
    <g id="line2d_59">
     <path d="M 344.014428 71.213737 
L 364.014428 71.213737 
" style="fill:none;stroke:#ff7f00;stroke-linecap:round;"/>
    </g>
    <g id="line2d_60"/>
    <g id="text_25">
     <!-- $\tfrac{7}{2}$ -->
     <g style="fill:#262626;" transform="translate(372.014428 74.713737)scale(0.1 -0.1)">
      <defs>
       <path d="M 45.09375 61.796875 
L 45.09375 64 
L 21.59375 64 
C 9.90625 64 9.703125 65.09375 9.296875 67 
L 7.5 67 
L 4.59375 48.5 
L 6.40625 48.5 
C 6.703125 50.40625 7.40625 55.5 8.59375 57.390625 
C 9.203125 58.1875 16.59375 58.1875 18.296875 58.1875 
L 40.296875 58.1875 
L 29.203125 41.71875 
C 21.796875 30.640625 16.703125 15.671875 16.703125 2.59375 
C 16.703125 1.390625 16.703125 -2 20.296875 -2 
C 23.90625 -2 23.90625 1.390625 23.90625 2.6875 
L 23.90625 7.28125 
C 23.90625 23.65625 26.703125 34.4375 31.296875 41.3125 
z
" id="CMR17-55"/>
      </defs>
      <use transform="translate(0 39.226102)scale(0.697382)" xlink:href="#CMR17-55"/>
      <use transform="translate(0 -34.355253)scale(0.697382)" xlink:href="#CMR17-50"/>
      <path d="M 0 24.410885 
L 31.983182 24.410885 
L 31.983182 25.40233 
L 0 25.40233 
L 0 24.410885 
z
"/>
     </g>
    </g>
    <g id="line2d_61">
     <path d="M 344.014428 88.06611 
L 364.014428 88.06611 
" style="fill:none;stroke:#e31a1c;stroke-linecap:round;"/>
    </g>
    <g id="line2d_62"/>
    <g id="text_26">
     <!-- $\tfrac{5}{2}$ -->
     <g style="fill:#262626;" transform="translate(372.014428 91.56611)scale(0.1 -0.1)">
      <use transform="translate(0 39.226102)scale(0.697382)" xlink:href="#CMR17-53"/>
      <use transform="translate(0 -34.355253)scale(0.697382)" xlink:href="#CMR17-50"/>
      <path d="M 0 24.410885 
L 31.983182 24.410885 
L 31.983182 25.40233 
L 0 25.40233 
L 0 24.410885 
z
"/>
     </g>
    </g>
    <g id="line2d_63">
     <path d="M 344.014428 104.918484 
L 364.014428 104.918484 
" style="fill:none;stroke:#33a02c;stroke-linecap:round;"/>
    </g>
    <g id="line2d_64"/>
    <g id="text_27">
     <!-- $\tfrac{3}{2}$ -->
     <g style="fill:#262626;" transform="translate(372.014428 108.418484)scale(0.1 -0.1)">
      <use transform="translate(0 39.226102)scale(0.697382)" xlink:href="#CMR17-51"/>
      <use transform="translate(0 -34.355253)scale(0.697382)" xlink:href="#CMR17-50"/>
      <path d="M 0 24.410885 
L 31.983182 24.410885 
L 31.983182 25.40233 
L 0 25.40233 
L 0 24.410885 
z
"/>
     </g>
    </g>
    <g id="line2d_65">
     <path d="M 344.014428 121.770858 
L 364.014428 121.770858 
" style="fill:none;stroke:#1f78b4;stroke-linecap:round;"/>
    </g>
    <g id="line2d_66"/>
    <g id="text_28">
     <!-- $\tfrac{1}{2}$ -->
     <g style="fill:#262626;" transform="translate(372.014428 125.270858)scale(0.1 -0.1)">
      <use transform="translate(0 39.226102)scale(0.697382)" xlink:href="#CMR17-49"/>
      <use transform="translate(0 -34.355253)scale(0.697382)" xlink:href="#CMR17-50"/>
      <path d="M 0 24.410885 
L 31.983182 24.410885 
L 31.983182 25.40233 
L 0 25.40233 
L 0 24.410885 
z
"/>
     </g>
    </g>
   </g>
  </g>
 </g>
 <defs>
  <clipPath id="p30cd7ba948">
   <rect height="149.615307" width="122.399907" x="32.400279" y="25.766376"/>
  </clipPath>
  <clipPath id="p79ad9e1aab">
   <rect height="149.615307" width="122.399907" x="165.600186" y="25.766376"/>
  </clipPath>
  <clipPath id="p48548c9544">
   <rect height="149.615307" width="122.399907" x="298.800093" y="25.766376"/>
  </clipPath>
 </defs>
</svg>
